*
*
G04 PADS VX.2 Build Number: 5060570 generated Gerber (RS-274-X) file*
G04 PC Version=2.1*
*
%IN "PCB_ESP32-S3-WROOM-1_V1"*%
*
%MOIN*%
*
%FSLAX35Y35*%
*
*
*
*
G04 PC Standard Apertures*
*
*
G04 Thermal Relief Aperture macro.*
%AMTER*
1,1,$1,0,0*
1,0,$1-$2,0,0*
21,0,$3,$4,0,0,45*
21,0,$3,$4,0,0,135*
%
*
*
G04 Annular Aperture macro.*
%AMANN*
1,1,$1,0,0*
1,0,$2,0,0*
%
*
*
G04 Odd Aperture macro.*
%AMODD*
1,1,$1,0,0*
1,0,$1-0.005,0,0*
%
*
*
G04 PC Custom Aperture Macros*
*
*
*
*
*
*
G04 PC Aperture Table*
*
%ADD010C,0.001*%
%ADD030C,0.01*%
*
*
*
*
G04 PC Circuitry*
G04 Layer Name PCB_ESP32-S3-WROOM-1_V1 - circuitry*
%LPD*%
*
*
G04 PC Custom Flashes*
G04 Layer Name PCB_ESP32-S3-WROOM-1_V1 - flashes*
%LPD*%
*
*
G04 PC Circuitry*
G04 Layer Name PCB_ESP32-S3-WROOM-1_V1 - circuitry*
%LPD*%
*
G54D10*
G54D30*
G01X96000Y166906D02*
X104000Y174906D01*
X96000D02*
X104000Y166906D01*
X96000Y161906D02*
X104000Y169906D01*
X96000D02*
X104000Y161906D01*
X96000Y156906D02*
X104000Y164906D01*
X96000D02*
X104000Y156906D01*
X96000Y151906D02*
X104000Y159906D01*
X96000D02*
X104000Y151906D01*
X96000Y146906D02*
X104000Y154906D01*
X96000D02*
X104000Y146906D01*
X96000Y141906D02*
X104000Y149906D01*
X96000D02*
X104000Y141906D01*
X96000Y136906D02*
X104000Y144906D01*
X96000D02*
X104000Y136906D01*
X96000Y131906D02*
X104000Y139906D01*
X96000D02*
X104000Y131906D01*
X96000Y126906D02*
X104000Y134906D01*
X96000D02*
X104000Y126906D01*
X96000Y121906D02*
X104000Y129906D01*
X96000D02*
X104000Y121906D01*
X96000Y116906D02*
X104000Y124906D01*
X96000D02*
X104000Y116906D01*
X96000Y111906D02*
X104000Y119906D01*
X96000D02*
X104000Y111906D01*
X96000Y106906D02*
X104000Y114906D01*
X96000D02*
X104000Y106906D01*
X96000Y101906D02*
X104000Y109906D01*
X96000D02*
X104000Y101906D01*
X103933Y96000D02*
X111933Y104000D01*
X103933D02*
X111933Y96000D01*
X108933D02*
X116933Y104000D01*
X108933D02*
X116933Y96000D01*
X113933D02*
X121933Y104000D01*
X113933D02*
X121933Y96000D01*
X118933D02*
X126933Y104000D01*
X118933D02*
X126933Y96000D01*
X123933D02*
X131933Y104000D01*
X123933D02*
X131933Y96000D01*
X128933D02*
X136933Y104000D01*
X128933D02*
X136933Y96000D01*
X133933D02*
X141933Y104000D01*
X133933D02*
X141933Y96000D01*
X138933D02*
X146933Y104000D01*
X138933D02*
X146933Y96000D01*
X143933D02*
X151933Y104000D01*
X143933D02*
X151933Y96000D01*
X148933D02*
X156933Y104000D01*
X148933D02*
X156933Y96000D01*
X153933D02*
X161933Y104000D01*
X153933D02*
X161933Y96000D01*
X158933D02*
X166933Y104000D01*
X158933D02*
X166933Y96000D01*
X166866Y101906D02*
X174866Y109906D01*
X166866D02*
X174866Y101906D01*
X166866Y106906D02*
X174866Y114906D01*
X166866D02*
X174866Y106906D01*
X166866Y111906D02*
X174866Y119906D01*
X166866D02*
X174866Y111906D01*
X166866Y116906D02*
X174866Y124906D01*
X166866D02*
X174866Y116906D01*
X166866Y121906D02*
X174866Y129906D01*
X166866D02*
X174866Y121906D01*
X166866Y126906D02*
X174866Y134906D01*
X166866D02*
X174866Y126906D01*
X166866Y131906D02*
X174866Y139906D01*
X166866D02*
X174866Y131906D01*
X166866Y136906D02*
X174866Y144906D01*
X166866D02*
X174866Y136906D01*
X166866Y141906D02*
X174866Y149906D01*
X166866D02*
X174866Y141906D01*
X166866Y146906D02*
X174866Y154906D01*
X166866D02*
X174866Y146906D01*
X166866Y151906D02*
X174866Y159906D01*
X166866D02*
X174866Y151906D01*
X166866Y156906D02*
X174866Y164906D01*
X166866D02*
X174866Y156906D01*
X166866Y161906D02*
X174866Y169906D01*
X166866D02*
X174866Y161906D01*
X166866Y166906D02*
X174866Y174906D01*
X166866D02*
X174866Y166906D01*
X109125Y128531D02*
X117125D01*
X113125Y124531D02*
Y132531D01*
X125500Y127281D02*
X133500D01*
X129500Y123281D02*
Y131281D01*
X112500Y132031D02*
X120500D01*
X116500Y128031D02*
Y136031D01*
X122375Y128281D02*
X130375D01*
X126375Y124281D02*
Y132281D01*
X113941Y118457D02*
X121941D01*
X117941Y114457D02*
Y122457D01*
X117000Y125031D02*
X125000D01*
X121000Y121031D02*
Y129031D01*
X118550Y115100D02*
X126550D01*
X122550Y111100D02*
Y119100D01*
X114625Y122781D02*
X122625D01*
X118625Y118781D02*
Y126781D01*
X119375Y127156D02*
X127375D01*
X123375Y123156D02*
Y131156D01*
X131350Y109750D02*
X139350D01*
X135350Y105750D02*
Y113750D01*
X131183Y118000D02*
X139183D01*
X135183Y114000D02*
Y122000D01*
X130625Y125406D02*
X138625D01*
X134625Y121406D02*
Y129406D01*
X118000Y113031D02*
X126000D01*
X122000Y109031D02*
Y117031D01*
X106000Y105281D02*
X114000D01*
X110000Y101281D02*
Y109281D01*
X98125Y102156D02*
X106125D01*
X102125Y98156D02*
Y106156D01*
X101248Y105506D02*
X109248D01*
X105248Y101506D02*
Y109506D01*
X101250Y110906D02*
X109250D01*
X105250Y106906D02*
Y114906D01*
X108750Y117156D02*
X116750D01*
X112750Y113156D02*
Y121156D01*
X115500Y116031D02*
X123500D01*
X119500Y112031D02*
Y120031D01*
X117875Y122000D02*
X125875D01*
X121875Y118000D02*
Y126000D01*
X113089Y124790D02*
X121089D01*
X117089Y120790D02*
Y128790D01*
X108250Y131781D02*
X116250D01*
X112250Y127781D02*
Y135781D01*
X159850Y130700D02*
X167850D01*
X163850Y126700D02*
Y134700D01*
X144500Y114866D02*
X152500D01*
X148500Y110866D02*
Y118866D01*
X137500Y108125D02*
X145500D01*
X141500Y104125D02*
Y112125D01*
X143543Y119666D02*
X151543D01*
X147543Y115666D02*
Y123666D01*
X156430Y109936D02*
X164430D01*
X160430Y105936D02*
Y113936D01*
X139750Y107125D02*
X147750D01*
X143750Y103125D02*
Y111125D01*
X161665Y125860D02*
X169665D01*
X165665Y121860D02*
Y129860D01*
X163875Y101906D02*
X171875D01*
X167875Y97906D02*
Y105906D01*
X159420Y105436D02*
X167420D01*
X163420Y101436D02*
Y109436D01*
X161690Y110636D02*
X169690D01*
X165690Y106636D02*
Y114636D01*
X158060Y112926D02*
X166060D01*
X162060Y108926D02*
Y116926D01*
X155200Y116600D02*
X163200D01*
X159200Y112600D02*
Y120600D01*
X158433Y120000D02*
X166433D01*
X162433Y116000D02*
Y124000D01*
X156308Y123250D02*
X164308D01*
X160308Y119250D02*
Y127250D01*
X159222Y128075D02*
X167222D01*
X163222Y124075D02*
Y132075D01*
X136875Y121406D02*
X144875D01*
X140875Y117406D02*
Y125406D01*
X135808Y125375D02*
X143808D01*
X139808Y121375D02*
Y129375D01*
X142500Y105156D02*
X150500D01*
X146500Y101156D02*
Y109156D01*
X138020Y105246D02*
X146020D01*
X142020Y101246D02*
Y109246D01*
X134750Y107281D02*
X142750D01*
X138750Y103281D02*
Y111281D01*
X134320Y112786D02*
X142320D01*
X138320Y108786D02*
Y116786D01*
X144570Y112296D02*
X152570D01*
X148570Y108296D02*
Y116296D01*
X142430Y117812D02*
X150430D01*
X146430Y113812D02*
Y121812D01*
X144058Y124625D02*
X152058D01*
X148058Y120625D02*
Y128625D01*
X133150Y129450D02*
X141150D01*
X137150Y125450D02*
Y133450D01*
X141800Y129800D02*
X149800D01*
X145800Y125800D02*
Y133800D01*
X149000Y129850D02*
X157000D01*
X153000Y125850D02*
Y133850D01*
X154500Y129850D02*
X162500D01*
X158500Y125850D02*
Y133850D01*
X115558Y149875D02*
X123558D01*
X119558Y145875D02*
Y153875D01*
X126100Y157050D02*
X134100D01*
X130100Y153050D02*
Y161050D01*
X119433Y157625D02*
X127433D01*
X123433Y153625D02*
Y161625D01*
X130400Y157050D02*
X138400D01*
X134400Y153050D02*
Y161050D01*
X128250Y157050D02*
X136250D01*
X132250Y153050D02*
Y161050D01*
X109625Y133906D02*
X117625D01*
X113625Y129906D02*
Y137906D01*
X115558Y154250D02*
X123558D01*
X119558Y150250D02*
Y158250D01*
X106808Y153375D02*
X114808D01*
X110808Y149375D02*
Y157375D01*
X108433Y154875D02*
X116433D01*
X112433Y150875D02*
Y158875D01*
X107558Y156875D02*
X115558D01*
X111558Y152875D02*
Y160875D01*
X103300Y160750D02*
X111300D01*
X107300Y156750D02*
Y164750D01*
X128800Y163250D02*
X136800D01*
X132800Y159250D02*
Y167250D01*
X117183Y157625D02*
X125183D01*
X121183Y153625D02*
Y161625D01*
X115683Y152125D02*
X123683D01*
X119683Y148125D02*
Y156125D01*
X101308Y161375D02*
X109308D01*
X105308Y157375D02*
Y165375D01*
X103558Y163250D02*
X111558D01*
X107558Y159250D02*
Y167250D01*
X107200Y163500D02*
X115200D01*
X111200Y159500D02*
Y167500D01*
X131984Y149776D02*
X139984D01*
X135984Y145776D02*
Y153776D01*
X129031Y152729D02*
X137031D01*
X133031Y148729D02*
Y156729D01*
X115183Y156375D02*
X123183D01*
X119183Y152375D02*
Y160375D01*
X122558Y157125D02*
X130558D01*
X126558Y153125D02*
Y161125D01*
X123126Y152729D02*
X131126D01*
X127126Y148729D02*
Y156729D01*
X120190Y149776D02*
X128190D01*
X124190Y145776D02*
Y153776D01*
X123130Y149776D02*
X131130D01*
X127130Y145776D02*
Y153776D01*
X123100Y143276D02*
X131100D01*
X127100Y139276D02*
Y147276D01*
X112000Y134300D02*
X120000D01*
X116000Y130300D02*
Y138300D01*
X106800Y138551D02*
X114800D01*
X110800Y134551D02*
Y142551D01*
X126600Y163050D02*
X134600D01*
X130600Y159050D02*
Y167050D01*
X106933Y151125D02*
X114933D01*
X110933Y147125D02*
Y155125D01*
X105200Y149400D02*
X113200D01*
X109200Y145400D02*
Y153400D01*
X104875Y144281D02*
X112875D01*
X108875Y140281D02*
Y148281D01*
X107614Y144942D02*
X115614D01*
X111614Y140942D02*
Y148942D01*
X116137Y144502D02*
X124137D01*
X120137Y140502D02*
Y148502D01*
X116183Y141750D02*
X124183D01*
X120183Y137750D02*
Y145750D01*
X116203Y139073D02*
X124203D01*
X120203Y135073D02*
Y143073D01*
X119130Y137776D02*
X127130D01*
X123130Y133776D02*
Y141776D01*
X123100Y137776D02*
X131100D01*
X127100Y133776D02*
Y141776D01*
X113450Y167000D02*
X121450D01*
X117450Y163000D02*
Y171000D01*
X118185Y167357D02*
X126185D01*
X122185Y163357D02*
Y171357D01*
X122600Y167350D02*
X130600D01*
X126600Y163350D02*
Y171350D01*
X128150Y166010D02*
X136150D01*
X132150Y162010D02*
Y170010D01*
X125900Y137776D02*
X133900D01*
X129900Y133776D02*
Y141776D01*
X126078Y149776D02*
X134078D01*
X130078Y145776D02*
Y153776D01*
X129030Y149776D02*
X137030D01*
X133030Y145776D02*
Y153776D01*
X129000Y143281D02*
X137000D01*
X133000Y139281D02*
Y147281D01*
X129000Y137776D02*
X137000D01*
X133000Y133776D02*
Y141776D01*
X131880Y137776D02*
X139880D01*
X135880Y133776D02*
Y141776D01*
X132560Y168053D02*
X140560D01*
X136560Y164053D02*
Y172053D01*
X130352Y170179D02*
X138352D01*
X134352Y166179D02*
Y174179D01*
X124398Y169802D02*
X132398D01*
X128398Y165802D02*
Y173802D01*
X115550Y169900D02*
X123550D01*
X119550Y165900D02*
Y173900D01*
X109308Y150875D02*
X117308D01*
X113308Y146875D02*
Y154875D01*
X153023Y168337D02*
X161023D01*
X157023Y164337D02*
Y172337D01*
X157900Y142050D02*
X165900D01*
X161900Y138050D02*
Y146050D01*
X148150Y148800D02*
X156150D01*
X152150Y144800D02*
Y152800D01*
X136380Y145106D02*
X144380D01*
X140380Y141106D02*
Y149106D01*
X136375Y151406D02*
X144375D01*
X140375Y147406D02*
Y155406D01*
X137000Y149406D02*
X145000D01*
X141000Y145406D02*
Y153406D01*
X143510Y144130D02*
X151510D01*
X147510Y140130D02*
Y148130D01*
X147500Y138300D02*
X155500D01*
X151500Y134300D02*
Y142300D01*
X136000Y153500D02*
X144000D01*
X140000Y149500D02*
Y157500D01*
X143000Y142000D02*
X151000D01*
X147000Y138000D02*
Y146000D01*
X135132Y165437D02*
X143132D01*
X139132Y161437D02*
Y169437D01*
X149834Y169552D02*
X157834D01*
X153834Y165552D02*
Y173552D01*
X145550Y155300D02*
X153550D01*
X149550Y151300D02*
Y159300D01*
X159700Y143350D02*
X167700D01*
X163700Y139350D02*
Y147350D01*
X158000Y139450D02*
X166000D01*
X162000Y135450D02*
Y143450D01*
X161700Y136250D02*
X169700D01*
X165700Y132250D02*
Y140250D01*
X147750Y159150D02*
X155750D01*
X151750Y155150D02*
Y163150D01*
X138783Y160365D02*
X146783D01*
X142783Y156365D02*
Y164365D01*
X142404Y165301D02*
X150404D01*
X146404Y161301D02*
Y169301D01*
X141742Y162930D02*
X149742D01*
X145742Y158930D02*
Y166930D01*
X144142Y162429D02*
X152142D01*
X148142Y158429D02*
Y166429D01*
X144587Y164655D02*
X152587D01*
X148587Y160655D02*
Y168655D01*
X144017Y166916D02*
X152017D01*
X148017Y162916D02*
Y170916D01*
X145700Y135200D02*
X153700D01*
X149700Y131200D02*
Y139200D01*
X150300Y135200D02*
X158300D01*
X154300Y131200D02*
Y139200D01*
X156400Y158300D02*
X164400D01*
X160400Y154300D02*
Y162300D01*
X158800Y158000D02*
X166800D01*
X162800Y154000D02*
Y162000D01*
X160250Y148150D02*
X168250D01*
X164250Y144150D02*
Y152150D01*
X161700Y150000D02*
X169700D01*
X165700Y146000D02*
Y154000D01*
X160250Y152100D02*
X168250D01*
X164250Y148100D02*
Y156100D01*
X161700Y154250D02*
X169700D01*
X165700Y150250D02*
Y158250D01*
X161700Y157000D02*
X169700D01*
X165700Y153000D02*
Y161000D01*
X161700Y160150D02*
X169700D01*
X165700Y156150D02*
Y164150D01*
X157900Y160150D02*
X165900D01*
X161900Y156150D02*
Y164150D01*
X154700Y160200D02*
X162700D01*
X158700Y156200D02*
Y164200D01*
X152250Y142500D02*
X160250D01*
X156250Y138500D02*
Y146500D01*
X156150Y169700D02*
X164150D01*
X160150Y165700D02*
Y173700D01*
X156100Y165000D02*
X164100D01*
X160100Y161000D02*
Y169000D01*
X160850Y165050D02*
X168850D01*
X164850Y161050D02*
Y169050D01*
X160650Y167750D02*
X168650D01*
X164650Y163750D02*
Y171750D01*
X161000Y170906D02*
X169000D01*
X165000Y166906D02*
Y174906D01*
X154500Y135200D02*
X162500D01*
X158500Y131200D02*
Y139200D01*
X155050Y139500D02*
X163050D01*
X159050Y135500D02*
Y143500D01*
X151500Y139500D02*
X159500D01*
X155500Y135500D02*
Y143500D01*
X148683Y140125D02*
X156683D01*
X152683Y136125D02*
Y144125D01*
X147933Y142500D02*
X155933D01*
X151933Y138500D02*
Y146500D01*
X148058Y145000D02*
X156058D01*
X152058Y141000D02*
Y149000D01*
X146200Y146500D02*
X154200D01*
X150200Y142500D02*
Y150500D01*
X146150D02*
X154150D01*
X150150Y146500D02*
Y154500D01*
X147750Y156850D02*
X155750D01*
X151750Y152850D02*
Y160850D01*
X150550Y157800D02*
X158550D01*
X154550Y153800D02*
Y161800D01*
X151200Y160150D02*
X159200D01*
X155200Y156150D02*
Y164150D01*
X151200Y165000D02*
X159200D01*
X155200Y161000D02*
Y169000D01*
X149815Y167197D02*
X157815D01*
X153815Y163197D02*
Y171197D01*
X146813Y164759D02*
X154813D01*
X150813Y160759D02*
Y168759D01*
X147831Y170627D02*
X155831D01*
X151831Y166627D02*
Y174627D01*
X148953Y172249D02*
X156953D01*
X152953Y168249D02*
Y176249D01*
X141900Y172350D02*
X149900D01*
X145900Y168350D02*
Y176350D01*
X139600Y171800D02*
X147600D01*
X143600Y167800D02*
Y175800D01*
X139184Y169655D02*
X147184D01*
X143184Y165655D02*
Y173655D01*
X137235Y167762D02*
X145235D01*
X141235Y163762D02*
Y171762D01*
X134903Y168982D02*
X142903D01*
X138903Y164982D02*
Y172982D01*
X142720Y149550D02*
X150720D01*
X146720Y145550D02*
Y153550D01*
X142677Y156543D02*
X150677D01*
X146677Y152543D02*
Y160543D01*
X136490Y141336D02*
X144490D01*
X140490Y137336D02*
Y145336D01*
X130375Y175531D02*
X138375D01*
X134375Y171531D02*
Y179531D01*
X126875Y173031D02*
X134875D01*
X130875Y169031D02*
Y177031D01*
X124125Y175531D02*
X132125D01*
X128125Y171531D02*
Y179531D01*
X121000Y172906D02*
X129000D01*
X125000Y168906D02*
Y176906D01*
X115750Y172906D02*
X123750D01*
X119750Y168906D02*
Y176906D01*
X117750Y175281D02*
X125750D01*
X121750Y171281D02*
Y179281D01*
X113125Y175281D02*
X121125D01*
X117125Y171281D02*
Y179281D01*
X110625Y173031D02*
X118625D01*
X114625Y169031D02*
Y177031D01*
X107750Y175281D02*
X115750D01*
X111750Y171281D02*
Y179281D01*
X105500Y173000D02*
X113500D01*
X109500Y169000D02*
Y177000D01*
X103375Y175281D02*
X111375D01*
X107375Y171281D02*
Y179281D01*
X101000Y173000D02*
X109000D01*
X105000Y169000D02*
Y177000D01*
X98384Y174638D02*
X106384D01*
X102384Y170638D02*
Y178638D01*
X136000Y175531D02*
X144000D01*
X140000Y171531D02*
Y179531D01*
X140375Y175531D02*
X148375D01*
X144375Y171531D02*
Y179531D01*
X136561Y172877D02*
X144561D01*
X140561Y168877D02*
Y176877D01*
X155625Y175125D02*
X163625D01*
X159625Y171125D02*
Y179125D01*
X159000Y175100D02*
X167000D01*
X163000Y171100D02*
Y179100D01*
X153331Y172786D02*
X161331D01*
X157331Y168786D02*
Y176786D01*
X157451Y172831D02*
X165451D01*
X161451Y168831D02*
Y176831D01*
X162300Y173106D02*
X170300D01*
X166300Y169106D02*
Y177106D01*
X164696Y174306D02*
X172696D01*
X168696Y170306D02*
Y178306D01*
X149919Y174061D02*
X157919D01*
X153919Y170061D02*
Y178061D01*
X150883Y175829D02*
X158883D01*
X154883Y171829D02*
Y179829D01*
X144878Y175934D02*
X152878D01*
X148878Y171934D02*
Y179934D01*
X143500Y174000D02*
X151500D01*
X147500Y170000D02*
Y178000D01*
X132750Y173031D02*
X140750D01*
X136750Y169031D02*
Y177031D01*
X100000Y200394D02*
X170866D01*
Y100000*
X100000*
Y200394*
X280000Y172000D02*
X538000D01*
X280000Y148000D02*
X538000D01*
X280000Y124000D02*
X538000D01*
X280000Y100000D02*
X538000D01*
X280000Y172000D02*
Y100000D01*
X364000Y172000D02*
Y100000D01*
X400000Y172000D02*
Y100000D01*
X436000Y172000D02*
Y100000D01*
X490000Y172000D02*
Y100000D01*
X538000Y172000D02*
Y100000D01*
X315500Y160750D02*
X314955Y161500D01*
X314136Y161875*
X313045*
X312227Y161500*
X311682Y160750*
Y160000*
X311955Y159250*
X312227Y158875*
X312773Y158500*
X314409Y157750*
X314955Y157375*
X315227Y157000*
X315500Y156250*
Y155125*
X314955Y154375*
X314136Y154000*
X313045*
X312227Y154375*
X311682Y155125*
X317955Y161875D02*
Y154000D01*
X324227Y161875D02*
X320409Y154000D01*
Y161875D02*
X324227D01*
X320409Y154000D02*
X324227D01*
X326682Y161875D02*
Y154000D01*
Y161875D02*
X330227D01*
X326682Y158125D02*
X328864D01*
X326682Y154000D02*
X330227D01*
X373864Y161875D02*
X373318Y161500D01*
X372773Y160750*
X372500Y160000*
X372227Y158875*
Y157000*
X372500Y155875*
X372773Y155125*
X373318Y154375*
X373864Y154000*
X374955*
X375500Y154375*
X376045Y155125*
X376318Y155875*
X376591Y157000*
Y158875*
X376318Y160000*
X376045Y160750*
X375500Y161500*
X374955Y161875*
X373864*
X374682Y155500D02*
X376318Y153250D01*
X380955Y161875D02*
Y154000D01*
X379045Y161875D02*
X382864D01*
X385318D02*
X387500Y158125D01*
Y154000*
X389682Y161875D02*
X387500Y158125D01*
X412045Y160750D02*
X411500Y161500D01*
X410682Y161875*
X409591*
X408773Y161500*
X408227Y160750*
Y160000*
X408500Y159250*
X408773Y158875*
X409318Y158500*
X410955Y157750*
X411500Y157375*
X411773Y157000*
X412045Y156250*
Y155125*
X411500Y154375*
X410682Y154000*
X409591*
X408773Y154375*
X408227Y155125*
X414500Y161875D02*
X416682Y158125D01*
Y154000*
X418864Y161875D02*
X416682Y158125D01*
X421318Y161875D02*
Y154000D01*
Y161875D02*
X423500Y154000D01*
X425682Y161875D02*
X423500Y154000D01*
X425682Y161875D02*
Y154000D01*
X447500Y161875D02*
Y154000D01*
Y161875D02*
X449955D01*
X450773Y161500*
X451045Y161125*
X451318Y160375*
Y159250*
X451045Y158500*
X450773Y158125*
X449955Y157750*
X447500*
X453773Y161875D02*
Y154000D01*
X457045*
X461682Y161875D02*
X459500Y154000D01*
X461682Y161875D02*
X463864Y154000D01*
X460318Y156625D02*
X463045D01*
X468227Y161875D02*
Y154000D01*
X466318Y161875D02*
X470136D01*
X472591D02*
Y154000D01*
Y161875D02*
X476136D01*
X472591Y158125D02*
X474773D01*
X472591Y154000D02*
X476136D01*
X478591Y161875D02*
Y154000D01*
Y161875D02*
X480500D01*
X481318Y161500*
X481864Y160750*
X482136Y160000*
X482409Y158875*
Y157000*
X482136Y155875*
X481864Y155125*
X481318Y154375*
X480500Y154000*
X478591*
X506682Y161875D02*
Y154000D01*
X504773Y161875D02*
X508591D01*
X512682D02*
X512136Y161500D01*
X511591Y160750*
X511318Y160000*
X511045Y158875*
Y157000*
X511318Y155875*
X511591Y155125*
X512136Y154375*
X512682Y154000*
X513773*
X514318Y154375*
X514864Y155125*
X515136Y155875*
X515409Y157000*
Y158875*
X515136Y160000*
X514864Y160750*
X514318Y161500*
X513773Y161875*
X512682*
X517864D02*
Y154000D01*
X521136*
X289545Y135250D02*
X289273Y134125D01*
X288727Y133375*
X287909Y133000*
X287636*
X286818Y133375*
X286273Y134125*
X286000Y135250*
Y135625*
X286273Y136750*
X286818Y137500*
X287636Y137875*
X287909*
X288727Y137500*
X289273Y136750*
X289545Y135250*
Y133375*
X289273Y131500*
X288727Y130375*
X287909Y130000*
X287364*
X286545Y130375*
X286273Y131125*
X292273Y130750D02*
X292000Y130375D01*
X292273Y130000*
X292545Y130375*
X292273Y130750*
X296364Y137875D02*
X295545Y137500D01*
X295273Y136750*
Y136000*
X295545Y135250*
X296091Y134875*
X297182Y134500*
X298000Y134125*
X298545Y133375*
X298818Y132625*
Y131500*
X298545Y130750*
X298273Y130375*
X297455Y130000*
X296364*
X295545Y130375*
X295273Y130750*
X295000Y131500*
Y132625*
X295273Y133375*
X295818Y134125*
X296636Y134500*
X297727Y134875*
X298273Y135250*
X298545Y136000*
Y136750*
X298273Y137500*
X297455Y137875*
X296364*
X304000D02*
X301273Y132625D01*
X305364*
X304000Y137875D02*
Y130000D01*
X374000Y136375D02*
X374545Y136750D01*
X375364Y137875*
Y130000*
X381364Y135250D02*
X381091Y134125D01*
X380545Y133375*
X379727Y133000*
X379455*
X378636Y133375*
X378091Y134125*
X377818Y135250*
Y135625*
X378091Y136750*
X378636Y137500*
X379455Y137875*
X379727*
X380545Y137500*
X381091Y136750*
X381364Y135250*
Y133375*
X381091Y131500*
X380545Y130375*
X379727Y130000*
X379182*
X378364Y130375*
X378091Y131125*
X386545Y137875D02*
X383818Y132625D01*
X387909*
X386545Y137875D02*
Y130000D01*
X412000Y136000D02*
X424000D01*
X418000Y130000D02*
Y142000D01*
X444636Y137875D02*
X446818Y134125D01*
Y130000*
X449000Y137875D02*
X446818Y134125D01*
X451455Y137875D02*
Y130000D01*
Y137875D02*
X455000D01*
X451455Y134125D02*
X453636D01*
X451455Y130000D02*
X455000D01*
X461273Y136750D02*
X460727Y137500D01*
X459909Y137875*
X458818*
X458000Y137500*
X457455Y136750*
Y136000*
X457727Y135250*
X458000Y134875*
X458545Y134500*
X460182Y133750*
X460727Y133375*
X461000Y133000*
X461273Y132250*
Y131125*
X460727Y130375*
X459909Y130000*
X458818*
X458000Y130375*
X457455Y131125*
X497818Y136750D02*
Y130000D01*
X495364Y133375D02*
X500273D01*
X507636Y139375D02*
X502727Y127375D01*
X510091Y133375D02*
X515000D01*
X518000Y137875D02*
X521000D01*
X519364Y134875*
X520182*
X520727Y134500*
X521000Y134125*
X521273Y133000*
Y132250*
X521000Y131125*
X520455Y130375*
X519636Y130000*
X518818*
X518000Y130375*
X517727Y130750*
X517455Y131500*
X524000Y130750D02*
X523727Y130375D01*
X524000Y130000*
X524273Y130375*
X524000Y130750*
X528364Y137875D02*
X527545Y137500D01*
X527000Y136375*
X526727Y134500*
Y133375*
X527000Y131500*
X527545Y130375*
X528364Y130000*
X528909*
X529727Y130375*
X530273Y131500*
X530545Y133375*
Y134500*
X530273Y136375*
X529727Y137500*
X528909Y137875*
X528364*
X286273Y112000D02*
Y112375D01*
X286545Y113125*
X286818Y113500*
X287364Y113875*
X288455*
X289000Y113500*
X289273Y113125*
X289545Y112375*
Y111625*
X289273Y110875*
X288727Y109750*
X286000Y106000*
X289818*
X292273Y112375D02*
X292818Y112750D01*
X293636Y113875*
Y106000*
X296364Y106750D02*
X296091Y106375D01*
X296364Y106000*
X296636Y106375*
X296364Y106750*
X302364Y112750D02*
X302091Y113500D01*
X301273Y113875*
X300727*
X299909Y113500*
X299364Y112375*
X299091Y110500*
Y108625*
X299364Y107125*
X299909Y106375*
X300727Y106000*
X301000*
X301818Y106375*
X302364Y107125*
X302636Y108250*
Y108625*
X302364Y109750*
X301818Y110500*
X301000Y110875*
X300727*
X299909Y110500*
X299364Y109750*
X299091Y108625*
X308636Y113875D02*
X305909D01*
X305636Y110500*
X305909Y110875*
X306727Y111250*
X307545*
X308364Y110875*
X308909Y110125*
X309182Y109000*
X308909Y108250*
X308636Y107125*
X308091Y106375*
X307273Y106000*
X306455*
X305636Y106375*
X305364Y106750*
X305091Y107500*
X378500Y113875D02*
X375773Y108625D01*
X379864*
X378500Y113875D02*
Y106000D01*
X383955Y113875D02*
X383136Y113500D01*
X382591Y112375*
X382318Y110500*
Y109375*
X382591Y107500*
X383136Y106375*
X383955Y106000*
X384500*
X385318Y106375*
X385864Y107500*
X386136Y109375*
Y110500*
X385864Y112375*
X385318Y113500*
X384500Y113875*
X383955*
X412000Y106000D02*
X424000Y118000D01*
X412000D02*
X424000Y106000D01*
X444636Y113875D02*
X446818Y110125D01*
Y106000*
X449000Y113875D02*
X446818Y110125D01*
X451455Y113875D02*
Y106000D01*
Y113875D02*
X455000D01*
X451455Y110125D02*
X453636D01*
X451455Y106000D02*
X455000D01*
X461273Y112750D02*
X460727Y113500D01*
X459909Y113875*
X458818*
X458000Y113500*
X457455Y112750*
Y112000*
X457727Y111250*
X458000Y110875*
X458545Y110500*
X460182Y109750*
X460727Y109375*
X461000Y109000*
X461273Y108250*
Y107125*
X460727Y106375*
X459909Y106000*
X458818*
X458000Y106375*
X457455Y107125*
X497818Y112750D02*
Y106000D01*
X495364Y109375D02*
X500273D01*
X507636Y115375D02*
X502727Y103375D01*
X510091Y109375D02*
X515000D01*
X518000Y113875D02*
X521000D01*
X519364Y110875*
X520182*
X520727Y110500*
X521000Y110125*
X521273Y109000*
Y108250*
X521000Y107125*
X520455Y106375*
X519636Y106000*
X518818*
X518000Y106375*
X517727Y106750*
X517455Y107500*
X524000Y106750D02*
X523727Y106375D01*
X524000Y106000*
X524273Y106375*
X524000Y106750*
X528364Y113875D02*
X527545Y113500D01*
X527000Y112375*
X526727Y110500*
Y109375*
X527000Y107500*
X527545Y106375*
X528364Y106000*
X528909*
X529727Y106375*
X530273Y107500*
X530545Y109375*
Y110500*
X530273Y112375*
X529727Y113500*
X528909Y113875*
X528364*
X0Y0D02*
M02*
