*
*
G04 PADS VX.2 Build Number: 5060570 generated Gerber (RS-274-X) file*
G04 PC Version=2.1*
*
%IN "PCB_ESP32-S3-WROOM-1_V1"*%
*
%MOIN*%
*
%FSLAX35Y35*%
*
*
*
*
G04 PC Standard Apertures*
*
*
G04 Thermal Relief Aperture macro.*
%AMTER*
1,1,$1,0,0*
1,0,$1-$2,0,0*
21,0,$3,$4,0,0,45*
21,0,$3,$4,0,0,135*
%
*
*
G04 Annular Aperture macro.*
%AMANN*
1,1,$1,0,0*
1,0,$2,0,0*
%
*
*
G04 Odd Aperture macro.*
%AMODD*
1,1,$1,0,0*
1,0,$1-0.005,0,0*
%
*
*
G04 PC Custom Aperture Macros*
*
*
*
*
*
*
G04 PC Aperture Table*
*
%ADD010C,0.001*%
%ADD011R,0.02X0.02*%
%ADD027C,0.00394*%
%ADD029C,0.008*%
%ADD030C,0.01*%
%ADD031C,0.012*%
%ADD036C,0.006*%
%ADD037C,0.005*%
%ADD038C,0.004*%
%ADD096C,0.009*%
%ADD101R,0.03543X0.03543*%
%ADD102C,0.01575*%
%ADD104R,0.10225X0.024*%
%ADD105O,0.10225X0.024*%
%ADD108R,0.01969X0.02362*%
%ADD109R,0.03937X0.04331*%
%ADD110R,0.02756X0.01575*%
%ADD138R,0.03937X0.03937*%
%ADD171C,0.0126*%
%ADD179R,0.03543X0.03543*%
%ADD180R,0.01181X0.01181*%
%ADD181C,0.0063*%
%ADD182C,0.0085*%
%ADD183C,0.01575*%
%ADD184C,0.00394*%
%ADD192O,0.00866X0.02559*%
%ADD193R,0.00866X0.02559*%
%ADD194R,0.02559X0.00866*%
%ADD195O,0.02559X0.00866*%
*
*
*
*
G04 PC Circuitry*
G04 Layer Name PCB_ESP32-S3-WROOM-1_V1 - circuitry*
%LPD*%
*
*
G04 PC Custom Flashes*
G04 Layer Name PCB_ESP32-S3-WROOM-1_V1 - flashes*
%LPD*%
*
*
G04 PC Circuitry*
G04 Layer Name PCB_ESP32-S3-WROOM-1_V1 - circuitry*
%LPD*%
*
G54D10*
G01X144864Y171061D02*
X144100Y170296D01*
X144864Y169532*
X145629Y170296*
X144864Y171061*
X144796Y169600D02*
X144932D01*
X144696Y169700D02*
X145032D01*
X144596Y169800D02*
X145132D01*
X144496Y169900D02*
X145232D01*
X144396Y170000D02*
X145332D01*
X144296Y170100D02*
X145432D01*
X144196Y170200D02*
X145532D01*
X144104Y170300D02*
X145625D01*
X144204Y170400D02*
X145525D01*
X144304Y170500D02*
X145425D01*
X144404Y170600D02*
X145325D01*
X144504Y170700D02*
X145225D01*
X144604Y170800D02*
X145125D01*
X144704Y170900D02*
X145025D01*
X144804Y171000D02*
X144925D01*
X144100Y170296D02*
X144100D01*
X144200Y170196D02*
Y170396D01*
X144300Y170096D02*
Y170496D01*
X144400Y169996D02*
Y170596D01*
X144500Y169896D02*
Y170696D01*
X144600Y169796D02*
Y170796D01*
X144700Y169696D02*
Y170896D01*
X144800Y169596D02*
Y170996D01*
X144900Y169568D02*
Y171025D01*
X145000Y169668D02*
Y170925D01*
X145100Y169768D02*
Y170825D01*
X145200Y169868D02*
Y170725D01*
X145300Y169968D02*
Y170625D01*
X145400Y170068D02*
Y170525D01*
X145500Y170168D02*
Y170425D01*
X145600Y170268D02*
Y170325D01*
X146256Y169669D02*
X145492Y168905D01*
X146256Y168140*
X147021Y168905*
X146256Y169669*
X146196Y168200D02*
X146316D01*
X146096Y168300D02*
X146416D01*
X145996Y168400D02*
X146516D01*
X145896Y168500D02*
X146616D01*
X145796Y168600D02*
X146716D01*
X145696Y168700D02*
X146816D01*
X145596Y168800D02*
X146916D01*
X145496Y168900D02*
X147016D01*
X145587Y169000D02*
X146925D01*
X145687Y169100D02*
X146825D01*
X145787Y169200D02*
X146725D01*
X145887Y169300D02*
X146625D01*
X145987Y169400D02*
X146525D01*
X146087Y169500D02*
X146425D01*
X146187Y169600D02*
X146325D01*
X145500Y168896D02*
Y168913D01*
X145600Y168796D02*
Y169013D01*
X145700Y168696D02*
Y169113D01*
X145800Y168596D02*
Y169213D01*
X145900Y168496D02*
Y169313D01*
X146000Y168396D02*
Y169413D01*
X146100Y168296D02*
Y169513D01*
X146200Y168196D02*
Y169613D01*
X146300Y168184D02*
Y169625D01*
X146400Y168284D02*
Y169525D01*
X146500Y168384D02*
Y169425D01*
X146600Y168484D02*
Y169325D01*
X146700Y168584D02*
Y169225D01*
X146800Y168684D02*
Y169125D01*
X146900Y168784D02*
Y169025D01*
X147000Y168884D02*
Y168925D01*
X142945Y163575D02*
X142181Y162811D01*
X142945Y162046*
X143710Y162811*
X142945Y163575*
X142891Y162100D02*
X142999D01*
X142791Y162200D02*
X143099D01*
X142691Y162300D02*
X143199D01*
X142591Y162400D02*
X143299D01*
X142491Y162500D02*
X143399D01*
X142391Y162600D02*
X143499D01*
X142291Y162700D02*
X143599D01*
X142191Y162800D02*
X143699D01*
X142270Y162900D02*
X143620D01*
X142370Y163000D02*
X143520D01*
X142470Y163100D02*
X143420D01*
X142570Y163200D02*
X143320D01*
X142670Y163300D02*
X143220D01*
X142770Y163400D02*
X143120D01*
X142870Y163500D02*
X143020D01*
X142200Y162791D02*
Y162830D01*
X142300Y162691D02*
Y162930D01*
X142400Y162591D02*
Y163030D01*
X142500Y162491D02*
Y163130D01*
X142600Y162391D02*
Y163230D01*
X142700Y162291D02*
Y163330D01*
X142800Y162191D02*
Y163430D01*
X142900Y162091D02*
Y163530D01*
X143000Y162101D02*
Y163520D01*
X143100Y162201D02*
Y163420D01*
X143200Y162301D02*
Y163320D01*
X143300Y162401D02*
Y163220D01*
X143400Y162501D02*
Y163120D01*
X143500Y162601D02*
Y163020D01*
X143600Y162701D02*
Y162920D01*
X143700Y162801D02*
Y162820D01*
X141553Y164967D02*
X140789Y164202D01*
X141553Y163438*
X142318Y164202*
X141553Y164967*
X141491Y163500D02*
X141615D01*
X141391Y163600D02*
X141715D01*
X141291Y163700D02*
X141815D01*
X141191Y163800D02*
X141915D01*
X141091Y163900D02*
X142015D01*
X140991Y164000D02*
X142115D01*
X140891Y164100D02*
X142215D01*
X140791Y164200D02*
X142315D01*
X140886Y164300D02*
X142220D01*
X140986Y164400D02*
X142120D01*
X141086Y164500D02*
X142020D01*
X141186Y164600D02*
X141920D01*
X141286Y164700D02*
X141820D01*
X141386Y164800D02*
X141720D01*
X141486Y164900D02*
X141620D01*
X140800Y164191D02*
Y164214D01*
X140900Y164091D02*
Y164314D01*
X141000Y163991D02*
Y164414D01*
X141100Y163891D02*
Y164514D01*
X141200Y163791D02*
Y164614D01*
X141300Y163691D02*
Y164714D01*
X141400Y163591D02*
Y164814D01*
X141500Y163491D02*
Y164914D01*
X141600Y163485D02*
Y164920D01*
X141700Y163585D02*
Y164820D01*
X141800Y163685D02*
Y164720D01*
X141900Y163785D02*
Y164620D01*
X142000Y163885D02*
Y164520D01*
X142100Y163985D02*
Y164420D01*
X142200Y164085D02*
Y164320D01*
X142300Y164185D02*
Y164220D01*
X136127Y166383D02*
X135363Y165619D01*
X136127Y164855*
X136891Y165619*
X136127Y166383*
X136082Y164900D02*
X136172D01*
X135982Y165000D02*
X136272D01*
X135882Y165100D02*
X136372D01*
X135782Y165200D02*
X136472D01*
X135682Y165300D02*
X136572D01*
X135582Y165400D02*
X136672D01*
X135482Y165500D02*
X136772D01*
X135382Y165600D02*
X136872D01*
X135444Y165700D02*
X136811D01*
X135544Y165800D02*
X136711D01*
X135644Y165900D02*
X136611D01*
X135744Y166000D02*
X136511D01*
X135844Y166100D02*
X136411D01*
X135944Y166200D02*
X136311D01*
X136044Y166300D02*
X136211D01*
X135400Y165582D02*
Y165656D01*
X135500Y165482D02*
Y165756D01*
X135600Y165382D02*
Y165856D01*
X135700Y165282D02*
Y165956D01*
X135800Y165182D02*
Y166056D01*
X135900Y165082D02*
Y166156D01*
X136000Y164982D02*
Y166256D01*
X136100Y164882D02*
Y166356D01*
X136200Y164928D02*
Y166311D01*
X136300Y165028D02*
Y166211D01*
X136400Y165128D02*
Y166111D01*
X136500Y165228D02*
Y166011D01*
X136600Y165328D02*
Y165911D01*
X136700Y165428D02*
Y165811D01*
X136800Y165528D02*
Y165711D01*
X137519Y167775D02*
X136754Y167011D01*
X137519Y166246*
X138283Y167011*
X137519Y167775*
X137465Y166300D02*
X137572D01*
X137365Y166400D02*
X137672D01*
X137265Y166500D02*
X137772D01*
X137165Y166600D02*
X137872D01*
X137065Y166700D02*
X137972D01*
X136965Y166800D02*
X138072D01*
X136865Y166900D02*
X138172D01*
X136765Y167000D02*
X138272D01*
X136844Y167100D02*
X138194D01*
X136944Y167200D02*
X138094D01*
X137044Y167300D02*
X137994D01*
X137144Y167400D02*
X137894D01*
X137244Y167500D02*
X137794D01*
X137344Y167600D02*
X137694D01*
X137444Y167700D02*
X137594D01*
X136800Y166965D02*
Y167056D01*
X136900Y166865D02*
Y167156D01*
X137000Y166765D02*
Y167256D01*
X137100Y166665D02*
Y167356D01*
X137200Y166565D02*
Y167456D01*
X137300Y166465D02*
Y167556D01*
X137400Y166365D02*
Y167656D01*
X137500Y166265D02*
Y167756D01*
X137600Y166328D02*
Y167694D01*
X137700Y166428D02*
Y167594D01*
X137800Y166528D02*
Y167494D01*
X137900Y166628D02*
Y167394D01*
X138000Y166728D02*
Y167294D01*
X138100Y166828D02*
Y167194D01*
X138200Y166928D02*
Y167094D01*
X143207Y166621D02*
X142443Y165856D01*
X143207Y165092*
X143972Y165856*
X143207Y166621*
X143199Y165100D02*
X143215D01*
X143099Y165200D02*
X143315D01*
X142999Y165300D02*
X143415D01*
X142899Y165400D02*
X143515D01*
X142799Y165500D02*
X143615D01*
X142699Y165600D02*
X143715D01*
X142599Y165700D02*
X143815D01*
X142499Y165800D02*
X143915D01*
X142486Y165900D02*
X143928D01*
X142586Y166000D02*
X143828D01*
X142686Y166100D02*
X143728D01*
X142786Y166200D02*
X143628D01*
X142886Y166300D02*
X143528D01*
X142986Y166400D02*
X143428D01*
X143086Y166500D02*
X143328D01*
X143186Y166600D02*
X143228D01*
X142500Y165799D02*
Y165914D01*
X142600Y165699D02*
Y166014D01*
X142700Y165599D02*
Y166114D01*
X142800Y165499D02*
Y166214D01*
X142900Y165399D02*
Y166314D01*
X143000Y165299D02*
Y166414D01*
X143100Y165199D02*
Y166514D01*
X143200Y165099D02*
Y166614D01*
X143300Y165185D02*
Y166528D01*
X143400Y165285D02*
Y166428D01*
X143500Y165385D02*
Y166328D01*
X143600Y165485D02*
Y166228D01*
X143700Y165585D02*
Y166128D01*
X143800Y165685D02*
Y166028D01*
X143900Y165785D02*
Y165928D01*
X144599Y168013D02*
X143835Y167248D01*
X144599Y166484*
X145364Y167248*
X144599Y168013*
X144583Y166500D02*
X144615D01*
X144483Y166600D02*
X144715D01*
X144383Y166700D02*
X144815D01*
X144283Y166800D02*
X144915D01*
X144183Y166900D02*
X145015D01*
X144083Y167000D02*
X145115D01*
X143983Y167100D02*
X145215D01*
X143883Y167200D02*
X145315D01*
X143886Y167300D02*
X145312D01*
X143986Y167400D02*
X145212D01*
X144086Y167500D02*
X145112D01*
X144186Y167600D02*
X145012D01*
X144286Y167700D02*
X144912D01*
X144386Y167800D02*
X144812D01*
X144486Y167900D02*
X144712D01*
X144586Y168000D02*
X144612D01*
X143900Y167183D02*
Y167314D01*
X144000Y167083D02*
Y167414D01*
X144100Y166983D02*
Y167514D01*
X144200Y166883D02*
Y167614D01*
X144300Y166783D02*
Y167714D01*
X144400Y166683D02*
Y167814D01*
X144500Y166583D02*
Y167914D01*
X144600Y166485D02*
Y168012D01*
X144700Y166585D02*
Y167912D01*
X144800Y166685D02*
Y167812D01*
X144900Y166785D02*
Y167712D01*
X145000Y166885D02*
Y167612D01*
X145100Y166985D02*
Y167512D01*
X145200Y167085D02*
Y167412D01*
X145300Y167185D02*
Y167312D01*
X132691Y169007D02*
X131927Y168243D01*
X132691Y167479*
X133455Y168243*
X132691Y169007*
X132670Y167500D02*
X132713D01*
X132570Y167600D02*
X132813D01*
X132470Y167700D02*
X132913D01*
X132370Y167800D02*
X133013D01*
X132270Y167900D02*
X133113D01*
X132170Y168000D02*
X133213D01*
X132070Y168100D02*
X133313D01*
X131970Y168200D02*
X133413D01*
X131984Y168300D02*
X133398D01*
X132084Y168400D02*
X133298D01*
X132184Y168500D02*
X133198D01*
X132284Y168600D02*
X133098D01*
X132384Y168700D02*
X132998D01*
X132484Y168800D02*
X132898D01*
X132584Y168900D02*
X132798D01*
X132684Y169000D02*
X132698D01*
X132000Y168170D02*
Y168316D01*
X132100Y168070D02*
Y168416D01*
X132200Y167970D02*
Y168516D01*
X132300Y167870D02*
Y168616D01*
X132400Y167770D02*
Y168716D01*
X132500Y167670D02*
Y168816D01*
X132600Y167570D02*
Y168916D01*
X132700Y167487D02*
Y168998D01*
X132800Y167587D02*
Y168898D01*
X132900Y167687D02*
Y168798D01*
X133000Y167787D02*
Y168698D01*
X133100Y167887D02*
Y168598D01*
X133200Y167987D02*
Y168498D01*
X133300Y168087D02*
Y168398D01*
X133400Y168187D02*
Y168298D01*
X134083Y167615D02*
X133319Y166851D01*
X134083Y166087*
X134847Y166851*
X134083Y167615*
X134070Y166100D02*
X134096D01*
X133970Y166200D02*
X134196D01*
X133870Y166300D02*
X134296D01*
X133770Y166400D02*
X134396D01*
X133670Y166500D02*
X134496D01*
X133570Y166600D02*
X134596D01*
X133470Y166700D02*
X134696D01*
X133370Y166800D02*
X134796D01*
X133367Y166900D02*
X134798D01*
X133467Y167000D02*
X134698D01*
X133567Y167100D02*
X134598D01*
X133667Y167200D02*
X134498D01*
X133767Y167300D02*
X134398D01*
X133867Y167400D02*
X134298D01*
X133967Y167500D02*
X134198D01*
X134067Y167600D02*
X134098D01*
X133400Y166770D02*
Y166933D01*
X133500Y166670D02*
Y167033D01*
X133600Y166570D02*
Y167133D01*
X133700Y166470D02*
Y167233D01*
X133800Y166370D02*
Y167333D01*
X133900Y166270D02*
Y167433D01*
X134000Y166170D02*
Y167533D01*
X134100Y166104D02*
Y167598D01*
X134200Y166204D02*
Y167498D01*
X134300Y166304D02*
Y167398D01*
X134400Y166404D02*
Y167298D01*
X134500Y166504D02*
Y167198D01*
X134600Y166604D02*
Y167098D01*
X134700Y166704D02*
Y166998D01*
X134800Y166804D02*
Y166898D01*
X115446Y131741D02*
X114681Y130976D01*
X115446Y130212*
X116210Y130976*
X115446Y131741*
X115358Y130300D02*
X115534D01*
X115258Y130400D02*
X115634D01*
X115158Y130500D02*
X115734D01*
X115058Y130600D02*
X115834D01*
X114958Y130700D02*
X115934D01*
X114858Y130800D02*
X116034D01*
X114758Y130900D02*
X116134D01*
X114705Y131000D02*
X116187D01*
X114805Y131100D02*
X116087D01*
X114905Y131200D02*
X115987D01*
X115005Y131300D02*
X115887D01*
X115105Y131400D02*
X115787D01*
X115205Y131500D02*
X115687D01*
X115305Y131600D02*
X115587D01*
X115405Y131700D02*
X115487D01*
X114700Y130958D02*
Y130995D01*
X114800Y130858D02*
Y131095D01*
X114900Y130758D02*
Y131195D01*
X115000Y130658D02*
Y131295D01*
X115100Y130558D02*
Y131395D01*
X115200Y130458D02*
Y131495D01*
X115300Y130358D02*
Y131595D01*
X115400Y130258D02*
Y131695D01*
X115500Y130266D02*
Y131687D01*
X115600Y130366D02*
Y131587D01*
X115700Y130466D02*
Y131487D01*
X115800Y130566D02*
Y131387D01*
X115900Y130666D02*
Y131287D01*
X116000Y130766D02*
Y131187D01*
X116100Y130866D02*
Y131087D01*
X116200Y130966D02*
Y130987D01*
X114054Y130349D02*
X113290Y129585D01*
X114054Y128820*
X114818Y129585*
X114054Y130349*
X113974Y128900D02*
X114134D01*
X113874Y129000D02*
X114234D01*
X113774Y129100D02*
X114334D01*
X113674Y129200D02*
X114434D01*
X113574Y129300D02*
X114534D01*
X113474Y129400D02*
X114634D01*
X113374Y129500D02*
X114734D01*
X113305Y129600D02*
X114803D01*
X113405Y129700D02*
X114703D01*
X113505Y129800D02*
X114603D01*
X113605Y129900D02*
X114503D01*
X113705Y130000D02*
X114403D01*
X113805Y130100D02*
X114303D01*
X113905Y130200D02*
X114203D01*
X114005Y130300D02*
X114103D01*
X113300Y129574D02*
Y129595D01*
X113400Y129474D02*
Y129695D01*
X113500Y129374D02*
Y129795D01*
X113600Y129274D02*
Y129895D01*
X113700Y129174D02*
Y129995D01*
X113800Y129074D02*
Y130095D01*
X113900Y128974D02*
Y130195D01*
X114000Y128874D02*
Y130295D01*
X114100Y128866D02*
Y130303D01*
X114200Y128966D02*
Y130203D01*
X114300Y129066D02*
Y130103D01*
X114400Y129166D02*
Y130003D01*
X114500Y129266D02*
Y129903D01*
X114600Y129366D02*
Y129803D01*
X114700Y129466D02*
Y129703D01*
X114800Y129566D02*
Y129603D01*
X130179Y130616D02*
X129415Y129851D01*
X130179Y129087*
X130944Y129851*
X130179Y130616*
X130166Y129100D02*
X130192D01*
X130066Y129200D02*
X130292D01*
X129966Y129300D02*
X130392D01*
X129866Y129400D02*
X130492D01*
X129766Y129500D02*
X130592D01*
X129666Y129600D02*
X130692D01*
X129566Y129700D02*
X130792D01*
X129466Y129800D02*
X130892D01*
X129463Y129900D02*
X130895D01*
X129563Y130000D02*
X130795D01*
X129663Y130100D02*
X130695D01*
X129763Y130200D02*
X130595D01*
X129863Y130300D02*
X130495D01*
X129963Y130400D02*
X130395D01*
X130063Y130500D02*
X130295D01*
X130163Y130600D02*
X130195D01*
X129500Y129766D02*
Y129937D01*
X129600Y129666D02*
Y130037D01*
X129700Y129566D02*
Y130137D01*
X129800Y129466D02*
Y130237D01*
X129900Y129366D02*
Y130337D01*
X130000Y129266D02*
Y130437D01*
X130100Y129166D02*
Y130537D01*
X130200Y129108D02*
Y130595D01*
X130300Y129208D02*
Y130495D01*
X130400Y129308D02*
Y130395D01*
X130500Y129408D02*
Y130295D01*
X130600Y129508D02*
Y130195D01*
X130700Y129608D02*
Y130095D01*
X130800Y129708D02*
Y129995D01*
X130900Y129808D02*
Y129895D01*
X131571Y129224D02*
X130807Y128460D01*
X131571Y127695*
X132335Y128460*
X131571Y129224*
X131566Y127700D02*
X131576D01*
X131466Y127800D02*
X131676D01*
X131366Y127900D02*
X131776D01*
X131266Y128000D02*
X131876D01*
X131166Y128100D02*
X131976D01*
X131066Y128200D02*
X132076D01*
X130966Y128300D02*
X132176D01*
X130866Y128400D02*
X132276D01*
X130847Y128500D02*
X132295D01*
X130947Y128600D02*
X132195D01*
X131047Y128700D02*
X132095D01*
X131147Y128800D02*
X131995D01*
X131247Y128900D02*
X131895D01*
X131347Y129000D02*
X131795D01*
X131447Y129100D02*
X131695D01*
X131547Y129200D02*
X131595D01*
X130900Y128366D02*
Y128553D01*
X131000Y128266D02*
Y128653D01*
X131100Y128166D02*
Y128753D01*
X131200Y128066D02*
Y128853D01*
X131300Y127966D02*
Y128953D01*
X131400Y127866D02*
Y129053D01*
X131500Y127766D02*
Y129153D01*
X131600Y127724D02*
Y129195D01*
X131700Y127824D02*
Y129095D01*
X131800Y127924D02*
Y128995D01*
X131900Y128024D02*
Y128895D01*
X132000Y128124D02*
Y128795D01*
X132100Y128224D02*
Y128695D01*
X132200Y128324D02*
Y128595D01*
X132300Y128424D02*
Y128495D01*
X148042Y171414D02*
X147278Y170650D01*
X148042Y169886*
X148806Y170650*
X148042Y171414*
X148028Y169900D02*
X148057D01*
X147928Y170000D02*
X148157D01*
X147828Y170100D02*
X148257D01*
X147728Y170200D02*
X148357D01*
X147628Y170300D02*
X148457D01*
X147528Y170400D02*
X148557D01*
X147428Y170500D02*
X148657D01*
X147328Y170600D02*
X148757D01*
X147328Y170700D02*
X148756D01*
X147428Y170800D02*
X148656D01*
X147528Y170900D02*
X148556D01*
X147628Y171000D02*
X148456D01*
X147728Y171100D02*
X148356D01*
X147828Y171200D02*
X148256D01*
X147928Y171300D02*
X148156D01*
X148028Y171400D02*
X148056D01*
X147300Y170628D02*
Y170672D01*
X147400Y170528D02*
Y170772D01*
X147500Y170428D02*
Y170872D01*
X147600Y170328D02*
Y170972D01*
X147700Y170228D02*
Y171072D01*
X147800Y170128D02*
Y171172D01*
X147900Y170028D02*
Y171272D01*
X148000Y169928D02*
Y171372D01*
X148100Y169943D02*
Y171356D01*
X148200Y170043D02*
Y171256D01*
X148300Y170143D02*
Y171156D01*
X148400Y170243D02*
Y171056D01*
X148500Y170343D02*
Y170956D01*
X148600Y170443D02*
Y170856D01*
X148700Y170543D02*
Y170756D01*
X148800Y170643D02*
Y170656D01*
X149434Y170022D02*
X148670Y169258D01*
X149434Y168494*
X150198Y169258*
X149434Y170022*
X149428Y168500D02*
X149440D01*
X149328Y168600D02*
X149540D01*
X149228Y168700D02*
X149640D01*
X149128Y168800D02*
X149740D01*
X149028Y168900D02*
X149840D01*
X148928Y169000D02*
X149940D01*
X148828Y169100D02*
X150040D01*
X148728Y169200D02*
X150140D01*
X148711Y169300D02*
X150156D01*
X148811Y169400D02*
X150056D01*
X148911Y169500D02*
X149956D01*
X149011Y169600D02*
X149856D01*
X149111Y169700D02*
X149756D01*
X149211Y169800D02*
X149656D01*
X149311Y169900D02*
X149556D01*
X149411Y170000D02*
X149456D01*
X148700Y169228D02*
Y169289D01*
X148800Y169128D02*
Y169389D01*
X148900Y169028D02*
Y169489D01*
X149000Y168928D02*
Y169589D01*
X149100Y168828D02*
Y169689D01*
X149200Y168728D02*
Y169789D01*
X149300Y168628D02*
Y169889D01*
X149400Y168528D02*
Y169989D01*
X149500Y168560D02*
Y169956D01*
X149600Y168660D02*
Y169856D01*
X149700Y168760D02*
Y169756D01*
X149800Y168860D02*
Y169656D01*
X149900Y168960D02*
Y169556D01*
X150000Y169060D02*
Y169456D01*
X150100Y169160D02*
Y169356D01*
X152403Y167026D02*
X151639Y166262D01*
X152403Y165498*
X153167Y166262*
X152403Y167026*
X152401Y165500D02*
X152405D01*
X152301Y165600D02*
X152505D01*
X152201Y165700D02*
X152605D01*
X152101Y165800D02*
X152705D01*
X152001Y165900D02*
X152805D01*
X151901Y166000D02*
X152905D01*
X151801Y166100D02*
X153005D01*
X151701Y166200D02*
X153105D01*
X151676Y166300D02*
X153129D01*
X151776Y166400D02*
X153029D01*
X151876Y166500D02*
X152929D01*
X151976Y166600D02*
X152829D01*
X152076Y166700D02*
X152729D01*
X152176Y166800D02*
X152629D01*
X152276Y166900D02*
X152529D01*
X152376Y167000D02*
X152429D01*
X151700Y166201D02*
Y166324D01*
X151800Y166101D02*
Y166424D01*
X151900Y166001D02*
Y166524D01*
X152000Y165901D02*
Y166624D01*
X152100Y165801D02*
Y166724D01*
X152200Y165701D02*
Y166824D01*
X152300Y165601D02*
Y166924D01*
X152400Y165501D02*
Y167024D01*
X152500Y165595D02*
Y166929D01*
X152600Y165695D02*
Y166829D01*
X152700Y165795D02*
Y166729D01*
X152800Y165895D02*
Y166629D01*
X152900Y165995D02*
Y166529D01*
X153000Y166095D02*
Y166429D01*
X153100Y166195D02*
Y166329D01*
X151011Y168418D02*
X150247Y167654D01*
X151011Y166889*
X151776Y167654*
X151011Y168418*
X151001Y166900D02*
X151022D01*
X150901Y167000D02*
X151122D01*
X150801Y167100D02*
X151222D01*
X150701Y167200D02*
X151322D01*
X150601Y167300D02*
X151422D01*
X150501Y167400D02*
X151522D01*
X150401Y167500D02*
X151622D01*
X150301Y167600D02*
X151722D01*
X150293Y167700D02*
X151729D01*
X150393Y167800D02*
X151629D01*
X150493Y167900D02*
X151529D01*
X150593Y168000D02*
X151429D01*
X150693Y168100D02*
X151329D01*
X150793Y168200D02*
X151229D01*
X150893Y168300D02*
X151129D01*
X150993Y168400D02*
X151029D01*
X150300Y167601D02*
Y167707D01*
X150400Y167501D02*
Y167807D01*
X150500Y167401D02*
Y167907D01*
X150600Y167301D02*
Y168007D01*
X150700Y167201D02*
Y168107D01*
X150800Y167101D02*
Y168207D01*
X150900Y167001D02*
Y168307D01*
X151000Y166901D02*
Y168407D01*
X151100Y166978D02*
Y168329D01*
X151200Y167078D02*
Y168229D01*
X151300Y167178D02*
Y168129D01*
X151400Y167278D02*
Y168029D01*
X151500Y167378D02*
Y167929D01*
X151600Y167478D02*
Y167829D01*
X151700Y167578D02*
Y167729D01*
G54D11*
X112900Y168995D03*
Y165617D03*
G54D27*
X155769Y151832D02*
X156835Y152898D01*
Y155769*
X153292*
Y151832*
X155769*
X153292D02*
Y155769D01*
X153488Y151832D02*
Y155769D01*
X153685Y151832D02*
Y155769D01*
X153882Y151832D02*
Y155769D01*
X154079Y151832D02*
Y155769D01*
X154276Y151832D02*
Y155769D01*
X154473Y151832D02*
Y155769D01*
X154670Y151832D02*
Y155769D01*
X154866Y151832D02*
Y155769D01*
X155063Y151832D02*
Y155769D01*
X155260Y151832D02*
Y155769D01*
X155457Y151832D02*
Y155769D01*
X155654Y151832D02*
Y155769D01*
X155851Y151913D02*
Y155769D01*
X156047Y152110D02*
Y155769D01*
X156244Y152307D02*
Y155769D01*
X156441Y152504D02*
Y155769D01*
X156638Y152701D02*
Y155769D01*
G54D29*
X116625Y128515D02*
X116500Y128412D01*
Y128766*
X119842Y132109*
Y133339*
X135820Y166009D02*
Y165464D01*
X137165Y164119*
Y162990*
X113530Y150557D02*
G75*
G03X113308Y150226I137J-331D01*
X113086Y150557I-358J-0*
G01X112792Y149375D02*
X113308Y149391D01*
Y150875*
X112792Y149375D02*
X112933Y149234D01*
Y149185*
X116594*
X146239Y157059D02*
X143563D01*
X145912*
X143563Y155485D02*
X145385D01*
X145912Y156012*
X143563Y155485D02*
X145385D01*
X146533Y156633*
X143563Y141311D02*
X145098D01*
X146425Y139984*
X146969*
X146239Y157059D02*
X145945D01*
X147070*
X147276Y156853*
X146677Y156543D02*
X146660Y156585D01*
Y156604*
X146677Y156621*
X146533Y156633D02*
X146550Y156650D01*
Y156850*
X146653Y156600*
X146660Y156594*
Y156585*
X146533Y156633D02*
X146665D01*
X146677Y156621*
X146239Y157059D02*
X146677Y156621D01*
X146533Y156633D02*
X145912Y156012D01*
X145912D02*
Y157059D01*
X145912D02*
X145945D01*
X140388Y141336D02*
X140669Y141311D01*
X143563*
X140388Y141336D02*
X140490D01*
X137165Y162879D02*
Y162990D01*
G54D30*
X116500Y128412D02*
X116625D01*
X114988Y127625D02*
Y113763D01*
X119028Y109723*
X120153Y109739*
X114988Y127625D02*
X115775Y128412D01*
X116500*
X124237Y108590D02*
G03X121638Y109200I-2599J-5235D01*
X124237Y109810I0J5845*
G01X121638Y109200D02*
X124237D01*
X120071Y109723D02*
X120196D01*
X120719Y109200*
X128326*
X120071Y109723D02*
X120153Y109739D01*
X148066Y156850D02*
Y159300D01*
X151016Y176944D02*
X152985D01*
Y196235*
X159573*
Y176944*
X162040*
Y198203*
X142853*
Y187573*
X142853D02*
X134936D01*
X134936D02*
Y198203D01*
X123913*
Y187573*
X123913D02*
X116039D01*
X116039D02*
Y198203D01*
X105409*
Y181963*
X107377*
Y196235*
X114070*
Y185605*
X125881*
Y196235*
X132968*
Y185605*
X144822*
Y196235*
X151016*
Y176944*
X142853Y197642D02*
X162040D01*
X142853Y196742D02*
X162040D01*
X159573Y195842D02*
X162040D01*
X159573Y194942D02*
X162040D01*
X159573Y194042D02*
X162040D01*
X159573Y193142D02*
X162040D01*
X159573Y192242D02*
X162040D01*
X159573Y191342D02*
X162040D01*
X159573Y190442D02*
X162040D01*
X159573Y189542D02*
X162040D01*
X159573Y188642D02*
X162040D01*
X159573Y187742D02*
X162040D01*
X159573Y186842D02*
X162040D01*
X159573Y185942D02*
X162040D01*
X159573Y185042D02*
X162040D01*
X159573Y184142D02*
X162040D01*
X159573Y183242D02*
X162040D01*
X159573Y182342D02*
X162040D01*
X159573Y181442D02*
X162040D01*
X159573Y180542D02*
X162040D01*
X159573Y179642D02*
X162040D01*
X159573Y178742D02*
X162040D01*
X159573Y177842D02*
X162040D01*
X151016Y195842D02*
X152985D01*
X151016Y194942D02*
X152985D01*
X151016Y194042D02*
X152985D01*
X151016Y193142D02*
X152985D01*
X151016Y192242D02*
X152985D01*
X151016Y191342D02*
X152985D01*
X151016Y190442D02*
X152985D01*
X151016Y189542D02*
X152985D01*
X151016Y188642D02*
X152985D01*
X151016Y187742D02*
X152985D01*
X151016Y186842D02*
X152985D01*
X151016Y185942D02*
X152985D01*
X151016Y185042D02*
X152985D01*
X151016Y184142D02*
X152985D01*
X151016Y183242D02*
X152985D01*
X151016Y182342D02*
X152985D01*
X151016Y181442D02*
X152985D01*
X151016Y180542D02*
X152985D01*
X151016Y179642D02*
X152985D01*
X151016Y178742D02*
X152985D01*
X151016Y177842D02*
X152985D01*
X142853Y195842D02*
X144822D01*
X142853Y194942D02*
X144822D01*
X142853Y194042D02*
X144822D01*
X142853Y193142D02*
X144822D01*
X142853Y192242D02*
X144822D01*
X142853Y191342D02*
X144822D01*
X142853Y190442D02*
X144822D01*
X142853Y189542D02*
X144822D01*
X142853Y188642D02*
X144822D01*
X142853Y187742D02*
X144822D01*
X132968Y186842D02*
X144822D01*
X132968Y185942D02*
X144822D01*
X123913Y197642D02*
X134936D01*
X123913Y196742D02*
X134936D01*
X132968Y195842D02*
X134936D01*
X132968Y194942D02*
X134936D01*
X132968Y194042D02*
X134936D01*
X132968Y193142D02*
X134936D01*
X132968Y192242D02*
X134936D01*
X132968Y191342D02*
X134936D01*
X132968Y190442D02*
X134936D01*
X132968Y189542D02*
X134936D01*
X132968Y188642D02*
X134936D01*
X132968Y187742D02*
X134936D01*
X123913Y195842D02*
X125881D01*
X123913Y194942D02*
X125881D01*
X123913Y194042D02*
X125881D01*
X123913Y193142D02*
X125881D01*
X123913Y192242D02*
X125881D01*
X123913Y191342D02*
X125881D01*
X123913Y190442D02*
X125881D01*
X123913Y189542D02*
X125881D01*
X123913Y188642D02*
X125881D01*
X123913Y187742D02*
X125881D01*
X114070Y186842D02*
X125881D01*
X114070Y185942D02*
X125881D01*
X105409Y197642D02*
X116039D01*
X105409Y196742D02*
X116039D01*
X114070Y195842D02*
X116039D01*
X114070Y194942D02*
X116039D01*
X114070Y194042D02*
X116039D01*
X114070Y193142D02*
X116039D01*
X114070Y192242D02*
X116039D01*
X114070Y191342D02*
X116039D01*
X114070Y190442D02*
X116039D01*
X114070Y189542D02*
X116039D01*
X114070Y188642D02*
X116039D01*
X114070Y187742D02*
X116039D01*
X105409Y195842D02*
X107377D01*
X105409Y194942D02*
X107377D01*
X105409Y194042D02*
X107377D01*
X105409Y193142D02*
X107377D01*
X105409Y192242D02*
X107377D01*
X105409Y191342D02*
X107377D01*
X105409Y190442D02*
X107377D01*
X105409Y189542D02*
X107377D01*
X105409Y188642D02*
X107377D01*
X105409Y187742D02*
X107377D01*
X105409Y186842D02*
X107377D01*
X105409Y185942D02*
X107377D01*
X105409Y185042D02*
X107377D01*
X105409Y184142D02*
X107377D01*
X105409Y183242D02*
X107377D01*
X105409Y182342D02*
X107377D01*
X100000Y200394D02*
X170866D01*
Y100000*
X100000*
Y200394*
G54D31*
X147276Y156853D02*
X148063D01*
X148066Y156850*
X146677Y156543D02*
X146987Y156853D01*
X147276*
G54D36*
X137652Y151060D02*
Y154397D01*
X134315*
Y151060*
X137652*
X134578D02*
Y154397D01*
X134878Y151060D02*
Y154397D01*
X135178Y151060D02*
Y154397D01*
X135478Y151060D02*
Y154397D01*
X135778Y151060D02*
Y154397D01*
X136078Y151060D02*
Y154397D01*
X136378Y151060D02*
Y154397D01*
X136678Y151060D02*
Y154397D01*
X136978Y151060D02*
Y154397D01*
X137278Y151060D02*
Y154397D01*
X137578Y151060D02*
Y154397D01*
X137652Y145155D02*
Y148492D01*
X134315*
Y145155*
X137652*
X134578D02*
Y148492D01*
X134878Y145155D02*
Y148492D01*
X135178Y145155D02*
Y148492D01*
X135478Y145155D02*
Y148492D01*
X135778Y145155D02*
Y148492D01*
X136078Y145155D02*
Y148492D01*
X136378Y145155D02*
Y148492D01*
X136678Y145155D02*
Y148492D01*
X136978Y145155D02*
Y148492D01*
X137278Y145155D02*
Y148492D01*
X137578Y145155D02*
Y148492D01*
X137652Y139249D02*
Y142586D01*
X134315*
Y139249*
X137652*
X134578D02*
Y142586D01*
X134878Y139249D02*
Y142586D01*
X135178Y139249D02*
Y142586D01*
X135478Y139249D02*
Y142586D01*
X135778Y139249D02*
Y142586D01*
X136078Y139249D02*
Y142586D01*
X136378Y139249D02*
Y142586D01*
X136678Y139249D02*
Y142586D01*
X136978Y139249D02*
Y142586D01*
X137278Y139249D02*
Y142586D01*
X137578Y139249D02*
Y142586D01*
X131747Y139249D02*
Y142586D01*
X128410*
Y139249*
X131747*
X128578D02*
Y142586D01*
X128878Y139249D02*
Y142586D01*
X129178Y139249D02*
Y142586D01*
X129478Y139249D02*
Y142586D01*
X129778Y139249D02*
Y142586D01*
X130078Y139249D02*
Y142586D01*
X130378Y139249D02*
Y142586D01*
X130678Y139249D02*
Y142586D01*
X130978Y139249D02*
Y142586D01*
X131278Y139249D02*
Y142586D01*
X131578Y139249D02*
Y142586D01*
X125841Y139249D02*
Y142586D01*
X122504*
Y139249*
X125841*
X122578D02*
Y142586D01*
X122878Y139249D02*
Y142586D01*
X123178Y139249D02*
Y142586D01*
X123478Y139249D02*
Y142586D01*
X123778Y139249D02*
Y142586D01*
X124078Y139249D02*
Y142586D01*
X124378Y139249D02*
Y142586D01*
X124678Y139249D02*
Y142586D01*
X124978Y139249D02*
Y142586D01*
X125278Y139249D02*
Y142586D01*
X125578Y139249D02*
Y142586D01*
X125841Y145155D02*
Y148492D01*
X122504*
Y145155*
X125841*
X122578D02*
Y148492D01*
X122878Y145155D02*
Y148492D01*
X123178Y145155D02*
Y148492D01*
X123478Y145155D02*
Y148492D01*
X123778Y145155D02*
Y148492D01*
X124078Y145155D02*
Y148492D01*
X124378Y145155D02*
Y148492D01*
X124678Y145155D02*
Y148492D01*
X124978Y145155D02*
Y148492D01*
X125278Y145155D02*
Y148492D01*
X125578Y145155D02*
Y148492D01*
X125841Y151060D02*
Y154397D01*
X122504*
Y151060*
X125841*
X122578D02*
Y154397D01*
X122878Y151060D02*
Y154397D01*
X123178Y151060D02*
Y154397D01*
X123478Y151060D02*
Y154397D01*
X123778Y151060D02*
Y154397D01*
X124078Y151060D02*
Y154397D01*
X124378Y151060D02*
Y154397D01*
X124678Y151060D02*
Y154397D01*
X124978Y151060D02*
Y154397D01*
X125278Y151060D02*
Y154397D01*
X125578Y151060D02*
Y154397D01*
X131747Y151060D02*
Y154397D01*
X128410*
Y151060*
X131747*
X128578D02*
Y154397D01*
X128878Y151060D02*
Y154397D01*
X129178Y151060D02*
Y154397D01*
X129478Y151060D02*
Y154397D01*
X129778Y151060D02*
Y154397D01*
X130078Y151060D02*
Y154397D01*
X130378Y151060D02*
Y154397D01*
X130678Y151060D02*
Y154397D01*
X130978Y151060D02*
Y154397D01*
X131278Y151060D02*
Y154397D01*
X131578Y151060D02*
Y154397D01*
X147763Y149184D02*
G03X148012Y149351I0J269D01*
G01Y149018D02*
G03X147763Y149184I-249J-102D01*
G01X147249D02*
X148250D01*
X148250*
G54D37*
X116625Y128412D02*
Y128515D01*
X123950Y114200D02*
X128326D01*
X112995Y129052D02*
G03X113696Y129227I206J670D01*
X113622Y128736I296J-296*
G01X113696Y129227D02*
X113445Y128963D01*
X113651Y129181D02*
G03X113719Y129525I-223J223D01*
G01X113995Y129249D02*
G03X113651Y129181I-122J-291D01*
G01X113125Y128531D02*
Y128656D01*
X114054Y129585*
X118381Y118765D02*
G03X118841Y118457I460J189D01*
X118381Y118149I0J-497*
G01X118841Y118457D02*
X118478D01*
X119038Y118536D02*
G03X119146Y118981I-312J312D01*
G01X119349Y118585D02*
G03X119038Y118536I-123J-237D01*
G01X117941Y118457D02*
X118959D01*
X119402Y118900*
X119477*
X121000Y125931D02*
G03X121308Y125471I497J-0D01*
G01X120692D02*
G03X121000Y125931I-189J460D01*
G01Y125568*
Y126171D02*
G03X121001Y126392I-111J111D01*
G01X121221Y126172D02*
G03X121000Y126171I-110J-112D01*
G01Y125031D02*
Y126171D01*
X121325Y126496*
X123008Y115381D02*
G03X123385Y114765I1469J475D01*
X122895Y114688I-217J-218*
G01X123385Y114765D02*
G03X123058Y114925I-398J-399D01*
G01X122550Y115100D02*
X123050D01*
X123950Y114200*
X123079Y115006D02*
G03X123187Y114463I459J-191D01*
X122644Y114571I-352J-351*
G01X123187Y114463D02*
X122930Y114720D01*
X122550Y115100D02*
X123450Y114200D01*
X123950*
X118847Y123270D02*
G03X119075Y123231I128J61D01*
X119115Y123002I100J-101*
G01X119270Y126217D02*
G03X119075Y125926I120J-291D01*
X118880Y126217I-315J-0*
G01X118625Y122781D02*
X119075Y123231D01*
Y126496*
X123375Y128338D02*
G03X123735Y127555I1032J0D01*
G01X123015D02*
G03X123375Y128338I-672J783D01*
G01Y127693*
X124731Y132309D02*
G03X124567Y131846I569J-463D01*
X124402Y132309I-734J0*
G01X123375Y127156D02*
Y129781D01*
X124567Y130972*
Y133339*
X131906Y128400D02*
G03X131974Y128056I291J-121D01*
X131630Y128124I-222J-223*
G01X131571Y128460D02*
X132500Y127531D01*
Y126031*
X115464Y131316D02*
G03X115976Y131506I49J653D01*
X115786Y130994I462J-462*
G01X115976Y131506D02*
X115687Y131217D01*
X115664Y131194D02*
G03X115963Y132002I-730J730D01*
G01X116472Y131494D02*
G03X115664Y131194I-78J-1030D01*
G01X116120Y131650*
X115446Y130976D02*
X116500Y132031D01*
X119075Y129214D02*
G03X119303Y128718I654J-0D01*
G01X118847D02*
G03X119075Y129214I-426J496D01*
G01Y128805*
X121582Y132309D02*
G03X121417Y131846I569J-463D01*
X121252Y132309I-734J0*
G01X119075Y128465D02*
Y129361D01*
X121417Y131702*
Y133339*
X121608Y119199D02*
G03X121844Y119200I117J119D01*
X121781Y118841I224J-224*
G01X124063Y118406D02*
G03X121844Y119200I-2219J-2702D01*
X124063Y119994I-0J3496*
G01Y118803D02*
G03X121844Y119200I-2219J-5999D01*
G01X124063*
X121844D02*
G03X124063Y119597I-0J6396D01*
G01X121445Y118900D02*
X121544D01*
X121844Y119200*
X128326*
X121325Y129214D02*
G03X121553Y128718I654J-0D01*
G01X121097D02*
G03X121325Y129214I-426J496D01*
G01Y128805*
X123157Y132309D02*
G03X122992Y131846I568J-463D01*
X122827Y132309I-734J0*
G01X121325Y128465D02*
Y129501D01*
X122992Y131167*
Y133339*
X132254Y124625D02*
G03X132500Y126031I-3896J1406D01*
X133029Y124574I2271J-0*
G01X132500Y126031D02*
G03X132641Y124599I7316J-0D01*
G01X128326Y124200D02*
X132500D01*
Y126031*
X100265Y107404D02*
G03X101802Y107708I542J1299D01*
X101498Y106171I996J-996*
G01X100720Y107246D02*
G03X101802Y107708I-33J1577D01*
G01X100974Y107075D02*
G03X101802Y107708I-1948J3409D01*
X101169Y106879I2777J-2777*
G01X101802Y107708D02*
G03X101341Y106626I1116J-1116D01*
G01X115101Y139737D02*
G03X115565Y139901I0J733D01*
G01Y139572D02*
G03X115101Y139737I-464J-569D01*
G01X100000Y105906D02*
X101844Y107750D01*
X107100*
X109750Y110400*
Y133870*
X113350Y137470*
Y138500*
X114587Y139737*
X116594*
X101498Y110640D02*
G03X101802Y109103I1300J-541D01*
X100265Y109407I-995J-995*
G01X101341Y110185D02*
G03X101802Y109103I1577J34D01*
G01X101169Y109932D02*
G03X101802Y109103I3410J1948D01*
X100974Y109736I-2776J-2776*
G01X101802Y109103D02*
G03X100720Y109565I-1115J-1115D01*
G01X115101Y141311D02*
G03X115565Y141476I0J734D01*
G01Y141147D02*
G03X115101Y141311I-464J-569D01*
G01X100000Y110906D02*
X102156Y108750D01*
X106600*
X108750Y110900*
Y134300*
X112350Y137900*
Y139000*
X114661Y141311*
X116594*
X100265Y122404D02*
G03X101802Y122708I542J1299D01*
X101498Y121171I996J-996*
G01X100720Y122246D02*
G03X101802Y122708I-33J1577D01*
G01X100974Y122075D02*
G03X101802Y122708I-1948J3409D01*
X101169Y121879I2777J-2777*
G01X101802Y122708D02*
G03X101341Y121626I1116J-1116D01*
G01X115101Y142886D02*
G03X115565Y143051I0J734D01*
G01Y142721D02*
G03X115101Y142886I-464J-569D01*
G01X100000Y120906D02*
X106450Y127356D01*
Y135300*
X108750Y137600*
Y139430*
X111712Y142392*
X113742*
X114236Y142886*
X116594*
X101247Y126777D02*
G03X102549Y125906I1302J536D01*
X101247Y125034I-0J-1408*
G01X101457Y126344D02*
G03X102549Y125906I1092J1139D01*
G01X101515Y126044D02*
G03X102549Y125906I1034J3788D01*
X101515Y125767I-0J-3927*
G01X102549Y125906D02*
G03X101457Y125467I-0J-1578D01*
G01X115101Y144461D02*
G03X115565Y144626I0J734D01*
G01Y144296D02*
G03X115101Y144461I-464J-569D01*
G01X100000Y125906D02*
X103125D01*
X105400Y128181*
Y135750*
X107750Y138100*
Y139850*
X111305Y143405*
X113255*
X114311Y144461*
X116594*
X100265Y132404D02*
G03X101802Y132708I542J1299D01*
X101498Y131171I996J-996*
G01X100720Y132246D02*
G03X101802Y132708I-33J1577D01*
G01X100974Y132075D02*
G03X101802Y132708I-1948J3409D01*
X101169Y131879I2777J-2777*
G01X101802Y132708D02*
G03X101341Y131626I1116J-1116D01*
G01X115101Y146036D02*
G03X115565Y146201I0J734D01*
G01Y145871D02*
G03X115101Y146036I-464J-569D01*
G01X100000Y130906D02*
X103050Y133956D01*
Y137400*
X104750Y139100*
Y142817*
X108413Y146480*
X114364*
X114808Y146036*
X116594*
X150925Y114375D02*
X151100Y114200D01*
X154352*
X148941Y115173D02*
G03X149400Y114866I459J190D01*
X148941Y114558I0J-498*
G01X149400Y114866D02*
X149037D01*
X148500D02*
X150434D01*
X150925Y114375*
X149006Y114683D02*
G03X148991Y114375I132J-161D01*
X148682Y114360I-148J-147*
G01X148880Y114485D02*
X148991Y114375D01*
X148500Y114866*
X148991Y114375D02*
X150925D01*
X141599Y108653D02*
G03X142125Y108750I193J430D01*
X142028Y108224I333J-333*
G01X141880Y108505D02*
X142125Y108750D01*
X141500Y108125*
X148066Y119793D02*
G03X148210Y119200I559J-178D01*
X147809Y119198I-200J-200*
G01X148210Y119200D02*
G03X147997Y119378I-1117J-1117D01*
G01X150034Y118427D02*
G03X148210Y119200I-1824J-1765D01*
X150034Y119973I0J2538*
G01Y118813D02*
G03X148210Y119200I-1824J-4108D01*
G01X150034*
X148210D02*
G03X150034Y119587I-0J4495D01*
G01X147543Y119666D02*
X147744D01*
X148210Y119200*
X154352*
X160430Y109936D02*
G03X159214Y109168I0J-1347D01*
G01Y110150D02*
G03X160430Y109936I1216J3339D01*
X159214Y109659I0J-2810*
G01X159530Y109936D02*
G03X159989Y110243I-0J497D01*
G01Y109628D02*
G03X159530Y109936I-459J-190D01*
G01X159893*
X154352Y109200D02*
X155087Y109936D01*
X160430*
X132605Y132309D02*
G03X132441Y131909I404J-400D01*
X132276Y132309I-568J0*
G01X143250Y107625D02*
G03X143576Y107633I159J159D01*
G01X143242Y107299D02*
G03X143250Y107625I-151J167D01*
G01X143370Y107505*
X132441Y133339D02*
Y131909D01*
X137250Y127100*
Y120308*
X143250Y114308*
Y107625*
X143750Y107125*
X131031Y132309D02*
G03X130866Y131884I466J-425D01*
X130701Y132309I-631J0*
G01X130866Y133339D02*
Y131884D01*
X136250Y126500*
Y119808*
X142125Y113933*
Y108750*
X129456Y132309D02*
G03X129291Y131846I569J-463D01*
X129126Y132309I-734J0*
G01X129291Y133339D02*
Y130781D01*
X130179Y129892*
Y129851*
X130179*
X127881Y132309D02*
G03X127716Y131846I569J-463D01*
X127551Y132309I-734J0*
G01X129500Y128247D02*
G03X129824Y127710I607J-0D01*
G01X129176D02*
G03X129500Y128247I-283J537D01*
G01Y127818*
X127716Y133339D02*
Y130031D01*
X129500Y128247*
Y127281*
X126306Y132309D02*
G03X126141Y131846I569J-463D01*
X125977Y132309I-733J0*
G01X126141Y129440D02*
G03X126582Y128777I720J-0D01*
G01X125857Y128425D02*
G03X126141Y129440I-1669J1015D01*
X126237Y128800I2195J-0*
G01X126141Y133339D02*
Y128514D01*
X126375Y128281*
X117624Y150925D02*
G03X118087Y150760I463J569D01*
X117624Y150595I-0J-734*
G01X118921Y150512D02*
G03X119464Y150404I352J351D01*
G01X119029Y149969D02*
G03X118921Y150512I-459J191D01*
G01X119178Y150255*
X116594Y150760D02*
X118673D01*
X119558Y149875*
X117624Y152500D02*
G03X118087Y152335I463J569D01*
X117624Y152170I-0J-734*
G01X118808Y152335D02*
G03X119472Y152619I-0J918D01*
G01X119163Y151989D02*
G03X118808Y152335I-355J-10D01*
G01X119167Y152277D02*
G03X118808Y152335I-359J-1078D01*
G01X116594D02*
X119473D01*
X119683Y152125*
X117624Y154075D02*
G03X118087Y153910I463J569D01*
X117624Y153745I-0J-734*
G01X118725Y153910D02*
G03X119024Y154306I-0J311D01*
G01X119424Y153730D02*
G03X118725Y153910I-699J-1267D01*
X119071Y154022I-0J591*
G01X116594Y153910D02*
X119218D01*
X119558Y154250*
X123157Y159278D02*
G03X122992Y158815I568J-463D01*
X122827Y159278I-734J-0*
G01X122992Y158066D02*
G03X123201Y158110I90J91D01*
G01X122948Y157857D02*
G03X122992Y158066I-47J119D01*
G01Y160307D02*
Y158066D01*
X123433Y157625*
X134180Y159278D02*
G03X134015Y158815I569J-463D01*
X133851Y159278I-733J-0*
G01X134015Y157435D02*
G03X134058Y157465I19J18D01*
G01X133985Y157392D02*
G03X134015Y157435I12J24D01*
G01Y160307D02*
Y157435D01*
X134400Y157050*
X130194Y157579D02*
G03X130737Y157687I191J459D01*
X130629Y157144I351J-352*
G01X130737Y157687D02*
X130480Y157430D01*
X131031Y159278D02*
G03X130866Y158815I569J-463D01*
X130701Y159278I-734J-0*
G01X130100Y157050D02*
X130866Y157816D01*
Y160307*
X132102Y157567D02*
G03X132441Y157930I-25J363D01*
X132739Y157272I873J-0*
G01X132390Y157569D02*
G03X132441Y157930I-1265J361D01*
G01X132605Y159278D02*
G03X132441Y158815I569J-463D01*
X132276Y159278I-734J-0*
G01X132250Y157050D02*
X132441Y157241D01*
Y160307*
X113653Y134442D02*
G03X114461Y134742I78J1030D01*
X114162Y133934I730J-730*
G01X114461Y134742D02*
X114005Y134286D01*
X115150Y138000D02*
G03X115565Y138308I0J433D01*
G01Y137979D02*
G03X115150Y138000I-415J-4025D01*
G01X113625Y133906D02*
X114550Y134831D01*
Y137400*
X115150Y138000*
X116432*
X116594Y138162*
X111285Y153622D02*
G03X111707Y153331I422J160D01*
X111188Y152995I0J-570*
G01X111707Y153331D02*
X111344D01*
X116411Y155302D02*
X116403Y155293D01*
X116411Y155302*
X110808Y153375D02*
X110852Y153331D01*
X113232*
X115195Y155293*
X116403*
X116594Y155485*
X112924Y155095D02*
G03X113112Y154875I188J-29D01*
X112924Y154655I0J-191*
G01X113112Y154875D02*
X112971D01*
X116411Y156876D02*
X116410Y156875D01*
X116411Y156876*
X112433Y154875D02*
X113112D01*
X115112Y156875*
X116410*
X116594Y157059*
X111999Y157183D02*
G03X112458Y156875I459J189D01*
X111999Y156567I0J-497*
G01X112458Y156875D02*
X112096D01*
X119450Y161250D02*
G03X119659Y161302I89J89D01*
G01Y160991D02*
G03X119450Y161250I-1324J-856D01*
G01X111558Y156875D02*
X113600D01*
X117975Y161250*
X119450*
X119842Y160858*
Y160307*
X107394Y161279D02*
G03X107937Y161387I191J459D01*
X107829Y160844I351J-352*
G01X107937Y161387D02*
X107680Y161130D01*
X129291Y161800D02*
G03X129456Y161337I734J0D01*
G01X129126D02*
G03X129291Y161800I-569J463D01*
G01X107300Y160750D02*
X108500Y161950D01*
X112982*
X116407Y165375*
X125933*
X129291Y162017*
Y160307*
X133241Y163558D02*
G03X133700Y163250I459J189D01*
X133241Y162942I0J-497*
G01X133700Y163250D02*
X133337D01*
X135407Y160491D02*
X135400Y160498D01*
X135407Y160490*
X132800Y163250D02*
X134000D01*
X135400Y161850*
Y160498*
X135590Y160307*
X121061Y158148D02*
G03X121417Y158494I10J346D01*
X121683Y157823I981J0*
G01X121349Y158136D02*
G03X121417Y158494I-904J358D01*
G01X121582Y159278D02*
G03X121417Y158815I569J-463D01*
X121252Y159278I-734J-0*
G01X121183Y157625D02*
X121417Y157859D01*
Y160307*
X100265Y137404D02*
G03X101802Y137708I542J1299D01*
X101498Y136171I996J-996*
G01X100720Y137246D02*
G03X101802Y137708I-33J1577D01*
G01X100974Y137075D02*
G03X101802Y137708I-1948J3409D01*
X101169Y136879I2777J-2777*
G01X101802Y137708D02*
G03X101341Y136626I1116J-1116D01*
G01X115101Y147481D02*
G03X115565Y147757I0J526D01*
G01Y147428D02*
G03X115101Y147481I-464J-1992D01*
G01X100000Y135906D02*
X103750Y139656D01*
Y143243*
X107988Y147481*
X116464*
X116594Y147611*
X101281Y146727D02*
G03X102375Y145906I1094J318D01*
X101281Y145084I0J-1140*
G01X101465Y146315D02*
G03X102375Y145906I910J805D01*
G01X101516Y146035D02*
G03X102375Y145906I859J2794D01*
X101516Y145777I0J-2924*
G01X102375Y145906D02*
G03X101465Y145496I0J-1215D01*
G01X124567Y161800D02*
G03X124731Y161337I733J0D01*
G01X124402D02*
G03X124567Y161800I-569J463D01*
G01X100000Y145906D02*
X102375D01*
X103750Y147281*
Y152050*
X110610Y158910*
X114216*
X117650Y162344*
X124065*
X124567Y161842*
Y160307*
X100271Y152403D02*
G03X101790Y152696I543J1268D01*
X101497Y151176I976J-976*
G01X100723Y152245D02*
G03X101790Y152696I-22J1539D01*
G01X100974Y152074D02*
G03X101790Y152696I-1886J3323D01*
X101169Y151880I2702J-2702*
G01X101790Y152696D02*
G03X101339Y151628I1089J-1089D01*
G01X126141Y161800D02*
G03X126306Y161337I734J0D01*
G01X125977D02*
G03X126141Y161800I-569J463D01*
G01X100000Y150906D02*
X101790Y152696D01*
X102946*
X110200Y159950*
X113828*
X117253Y163375*
X124808*
X126141Y162042*
Y160307*
X101247Y156777D02*
G03X102549Y155906I1302J536D01*
X101247Y155034I-0J-1408*
G01X101457Y156344D02*
G03X102549Y155906I1092J1139D01*
G01X101515Y156044D02*
G03X102549Y155906I1034J3788D01*
X101515Y155767I-0J-3927*
G01X102549Y155906D02*
G03X101457Y155467I-0J-1578D01*
G01X127716Y161800D02*
G03X127881Y161337I734J0D01*
G01X127551D02*
G03X127716Y161800I-569J463D01*
G01X100000Y155906D02*
X104656D01*
X109700Y160950*
X113405*
X116830Y164375*
X125222*
X127716Y161881*
Y160307*
X144592Y154075D02*
G03X145055Y153910I463J569D01*
X144592Y153745I0J-734*
G01X147495Y153400D02*
G03X147787Y153595I0J315D01*
G01Y153205D02*
G03X147495Y153400I-292J-120D01*
G01X143563Y153910D02*
X145466D01*
X145976Y153400*
X148066*
X144592Y152500D02*
G03X145055Y152335I463J569D01*
X144592Y152170I0J-734*
G01X158811Y149239D02*
G03X159609Y148629I2683J2682D01*
G01X159250D02*
G03X158811Y149239I-2090J-1042D01*
G01X143563Y152335D02*
X145333D01*
X145618Y152050*
X151050*
X152600Y150500*
X157550*
X160969Y147081*
Y146714*
X143746Y149002D02*
X143748Y149000D01*
X143746Y149002*
X147680Y147216D02*
G03X147971Y147411I-0J315D01*
G01Y147021D02*
G03X147680Y147216I-291J-120D01*
G01X143563Y149185D02*
X143748Y149000D01*
X145090*
X146874Y147216*
X148250*
X144592Y146201D02*
G03X145055Y146036I463J569D01*
X144592Y145871I0J-734*
G01X149700Y140554D02*
G03X149895Y140263I315J0D01*
G01X149505D02*
G03X149700Y140554I-120J291D01*
G01X143563Y146036D02*
X145514D01*
X145870Y145680*
X148150*
X149700Y144130*
Y139984*
X144592Y144484D02*
G03X144660Y144461I68J90D01*
X144592Y144438I0J-113*
G01X146621Y144270D02*
G03X147260Y144606I-0J777D01*
G01X147003Y143953D02*
G03X146621Y144270I-382J-72D01*
G01X146984Y144240D02*
G03X146621Y144270I-363J-2199D01*
G01X143563Y144461D02*
X144660D01*
X144851Y144270*
X147370*
X147510Y144130*
X144592Y143051D02*
G03X145055Y142886I463J569D01*
X144592Y142721I0J-734*
G01X146363Y142637D02*
G03X146906Y142529I352J351D01*
G01X146471Y142094D02*
G03X146363Y142637I-459J191D01*
G01X146620Y142380*
X143563Y142886D02*
X146114D01*
X147000Y142000*
X144592Y138319D02*
G03X144771Y138162I179J23D01*
X144592Y138005I-0J-180*
G01X168317Y130906D02*
G03X169619Y131777I0J1407D01*
G01Y130034D02*
G03X168317Y130906I-1302J-536D01*
X169409Y131344I0J1577*
G01X168317Y130906D02*
G03X169351Y131044I0J3926D01*
G01Y130767D02*
G03X168317Y130906I-1034J-3788D01*
G01X169409Y130467D02*
G03X168317Y130906I-1092J-1139D01*
G01X143563Y138162D02*
X144771D01*
X145637Y137296*
Y136343*
X148480Y133500*
X165051*
X167645Y130906*
X170866*
X144590Y136210D02*
G03X144356Y136404I-1146J-1146D01*
G01X144569D02*
G03X144590Y136210I131J-84D01*
G01X169064Y127708D02*
G03X170601Y127404I995J995D01*
G01X169368Y126171D02*
G03X169064Y127708I-1299J541D01*
X170146Y127246I1115J1115*
G01X169064Y127708D02*
G03X169893Y127075I2776J2776D01*
G01X169697Y126879D02*
G03X169064Y127708I-3410J-1948D01*
G01X169526Y126626D02*
G03X169064Y127708I-1578J-34D01*
G01X143563Y136587D02*
X144213D01*
X144590Y136210*
Y135910*
X148000Y132500*
X164272*
X170866Y125906*
X140479Y132309D02*
G03X140315Y131846I569J-463D01*
X140150Y132309I-734J0*
G01X168317Y120906D02*
G03X169619Y121777I0J1407D01*
G01Y120034D02*
G03X168317Y120906I-1302J-536D01*
X169409Y121344I0J1577*
G01X168317Y120906D02*
G03X169351Y121044I0J3926D01*
G01Y120767D02*
G03X168317Y120906I-1034J-3788D01*
G01X169409Y120467D02*
G03X168317Y120906I-1092J-1139D01*
G01X140315Y133339D02*
Y131785D01*
X143850Y128250*
X160856*
X168201Y120906*
X170866*
X138905Y132309D02*
G03X138740Y131846I569J-463D01*
X138575Y132309I-734J0*
G01X168375Y115906D02*
G03X169608Y116762I0J1316D01*
G01Y115049D02*
G03X168375Y115906I-1233J-460D01*
X169406Y116335I0J1452*
G01X168375Y115906D02*
G03X169351Y116041I0J3580D01*
G01Y115770D02*
G03X168375Y115906I-976J-3445D01*
G01X169406Y115476D02*
G03X168375Y115906I-1031J-1023D01*
G01X138740Y133339D02*
Y131760D01*
X143250Y127250*
X160343*
X167250Y120343*
Y117031*
X168375Y115906*
X170866*
X137330Y132309D02*
G03X137165Y131846I569J-463D01*
X137000Y132309I-734J0*
G01X169064Y112708D02*
G03X170601Y112404I995J995D01*
G01X169368Y111171D02*
G03X169064Y112708I-1299J541D01*
X170146Y112246I1115J1115*
G01X169064Y112708D02*
G03X169893Y112075I2776J2776D01*
G01X169697Y111879D02*
G03X169064Y112708I-3410J-1948D01*
G01X169526Y111626D02*
G03X169064Y112708I-1578J-34D01*
G01X137165Y133339D02*
Y131757D01*
X142672Y126250*
X159929*
X165933Y120246*
Y115839*
X170866Y110906*
X142070Y147611D02*
G03X142533Y147775I-0J733D01*
G01Y147446D02*
G03X142070Y147611I-463J-569D01*
G01X140375Y145111D02*
Y146075D01*
X141911Y147611*
X143563*
X140375Y146006D02*
G03X140681Y145551I491J-0D01*
G01X140065Y145541D02*
G03X140375Y146006I-194J465D01*
G01Y145643*
Y145111D02*
X140380Y145106D01*
X142070Y139737D02*
G03X142533Y139901I-0J733D01*
G01Y139572D02*
G03X142070Y139737I-463J-569D01*
G01X141470Y135577D02*
Y139182D01*
X142024Y139737*
X143563*
X163213Y131337D02*
G03X163756Y131229I352J351D01*
G01X163321Y130794D02*
G03X163213Y131337I-459J191D01*
G01X163470Y131080*
X141470Y135577D02*
X142047Y135000D01*
X144050*
X147550Y131500*
X163050*
X163850Y130700*
X137050Y162994D02*
X137165Y162879D01*
Y162875*
X140824Y151701D02*
G03X141230Y151406I406J131D01*
X140824Y151110I-0J-427*
G01X141230Y151406D02*
X140912D01*
X142070Y150760D02*
G03X142533Y150925I-0J734D01*
G01Y150595D02*
G03X142070Y150760I-463J-569D01*
G01X140375Y151406D02*
X141230D01*
X141875Y150760*
X143563*
X141521Y149536D02*
G03X141873Y149185I352J1D01*
X141206Y148909I-0J-943*
G01X141514Y149248D02*
G03X141873Y149185I359J998D01*
G01X142070D02*
G03X142533Y149350I-0J734D01*
G01Y149021D02*
G03X142070Y149185I-463J-569D01*
G01X141000Y149406D02*
X141220Y149185D01*
X143563*
X149842Y138325D02*
G03X149984Y138300I80J37D01*
X150010Y138157I63J-62*
G01X150600Y138300D02*
G03X151059Y138608I-0J497D01*
G01Y137992D02*
G03X150600Y138300I-459J-189D01*
G01X150963*
X149700Y138016D02*
X149984Y138300D01*
X151500*
X150313Y153595D02*
G03X150604Y153400I291J120D01*
X150313Y153205I0J-315*
G01X150034Y153400D02*
X154638D01*
X155038Y153800*
X155063*
X159984Y142670D02*
G03X160179Y142379I315J0D01*
G01X159789D02*
G03X159984Y142670I-120J291D01*
G01X160259Y144798D02*
G03X159984Y143936I1214J-862D01*
X159351Y144798I-903J0*
G01X159984Y143936D02*
G03X159805Y144798I-2163J0D01*
G01X159984Y142100D02*
Y145729D01*
X160969Y146714*
X155797Y154702D02*
G03X156094Y154839I-38J472D01*
X155797Y154438I1185J-1185*
G01X156661Y158121D02*
G03X156466Y157830I120J-291D01*
X156271Y158121I-315J-0*
G01X155063Y153800D02*
Y153809D01*
X156466Y155211*
Y158400*
X136966Y162619D02*
Y163432D01*
X133571Y166827*
X134545Y167801*
X138129Y164217*
Y162619*
X136966*
X100962Y167431D02*
X103531D01*
X106757Y170658*
X131688*
X133642Y168704*
X133642D02*
X132580Y167643D01*
X132580D02*
X131044Y169180D01*
X114786Y169179*
X113677Y168070*
X113586Y168031*
X107493*
X103823Y164361*
X103823D02*
X100962D01*
X100962D02*
Y167431D01*
X159321Y178016D02*
Y176521D01*
X157104*
Y173891*
X163921*
Y176521*
X162288*
Y178016*
X159321*
X136430Y163968D02*
X138129D01*
X136880Y163518D02*
X138129D01*
X136966Y163068D02*
X138129D01*
X135980Y164418D02*
X137929D01*
X135530Y164868D02*
X137479D01*
X135080Y165318D02*
X137029D01*
X134630Y165768D02*
X136579D01*
X134180Y166218D02*
X136129D01*
X133730Y166668D02*
X135679D01*
X133861Y167118D02*
X135229D01*
X134311Y167568D02*
X134779D01*
X131364Y168859D02*
X133487D01*
X131814Y168409D02*
X133347D01*
X105409Y169309D02*
X133037D01*
X132264Y167959D02*
X132897D01*
X105859Y169759D02*
X132587D01*
X106309Y170209D02*
X132137D01*
X104959Y168859D02*
X114466D01*
X104509Y168409D02*
X114016D01*
X104059Y167959D02*
X107422D01*
X103609Y167509D02*
X106972D01*
X100962Y167059D02*
X106522D01*
X100962Y166609D02*
X106072D01*
X100962Y166159D02*
X105622D01*
X100962Y165709D02*
X105172D01*
X100962Y165259D02*
X104722D01*
X100962Y164809D02*
X104272D01*
X157104Y176140D02*
X163921D01*
X157104Y175690D02*
X163921D01*
X157104Y175240D02*
X163921D01*
X157104Y174790D02*
X163921D01*
X157104Y174340D02*
X163921D01*
X159321Y177940D02*
X162288D01*
X159321Y177490D02*
X162288D01*
X159321Y177040D02*
X162288D01*
X159321Y176590D02*
X162288D01*
G54D38*
X136590Y168023D02*
X137722Y166891D01*
X137722*
X137100Y167513D02*
G03X137610Y167391I355J355D01*
G01X137157Y167157D02*
G03X137100Y167513I-274J139D01*
G01X137284Y167323*
X136590Y168023D02*
X137519Y167094D01*
Y167011*
X136560Y168053D02*
X136590Y168023D01*
X143147Y163145D02*
G03X143596Y162874I449J237D01*
X143306Y162660I0J-304*
G01X143596Y162874D02*
X143331Y162868D01*
X142945Y162811D02*
X143008Y162874D01*
X145687*
G54D96*
X137165Y160307D02*
Y162875D01*
X140315Y160307D02*
Y161731D01*
X140365Y161782*
X143150Y165799D02*
X143207Y165856D01*
X144599Y167248D02*
X144600D01*
X144701Y167350*
G54D101*
X100000Y170906D03*
Y165906D03*
Y160906D03*
Y155906D03*
Y150906D03*
Y145906D03*
Y140906D03*
Y135906D03*
Y130906D03*
Y125906D03*
Y120906D03*
Y115906D03*
Y110906D03*
Y105906D03*
X170866D03*
Y110906D03*
Y115906D03*
Y120906D03*
Y125906D03*
Y130906D03*
Y135906D03*
Y140906D03*
Y145906D03*
Y150906D03*
Y155906D03*
Y160906D03*
Y165906D03*
Y170906D03*
G54D102*
X152000Y176894D03*
X160806D03*
G54D104*
X154352Y109200D03*
G54D105*
Y114200D03*
Y119200D03*
Y124200D03*
X128326D03*
Y119200D03*
Y114200D03*
Y109200D03*
G54D108*
X155063Y153800D03*
G54D109*
Y146714D03*
X160969D03*
Y153800D03*
G54D110*
X108997Y168601D03*
Y165845D03*
G54D138*
X130078Y146823D03*
G54D171*
X144701Y167350D02*
X146256Y168905D01*
X149434Y169258D02*
X151011Y167681D01*
Y167654*
X149370Y172026D02*
G03X152000Y176894I-6838J6838D01*
G01X141553Y164202D02*
X141553D01*
G03X140365Y161782I3236J-3090*
G01X141553Y164202D02*
X143150Y165799D01*
X146256Y168905D02*
Y168912D01*
X149370Y172026*
G54D179*
X107933Y100000D03*
X112933D03*
X117933D03*
X122933D03*
X127933D03*
X132933D03*
X137933D03*
X142933D03*
X147933D03*
X152933D03*
X157933D03*
X162933D03*
G54D180*
X146969Y139984D03*
Y138016D03*
X148066Y156850D03*
X150034D03*
X115900Y169734D03*
Y167766D03*
X112792Y149375D03*
X110824D03*
X129800Y169734D03*
Y167766D03*
X120153Y109739D03*
Y111707D03*
X159984Y142100D03*
X158016D03*
X116625Y128515D03*
Y126547D03*
X148066Y159300D03*
X150034D03*
X156466Y158400D03*
X158434D03*
X121325Y128465D03*
Y126496D03*
X150034Y153400D03*
X148066D03*
X148250Y149184D03*
Y147216D03*
X149700Y139984D03*
Y138016D03*
X119477Y118900D03*
X121445D03*
X119075Y128465D03*
Y126496D03*
G54D181*
X137722Y166891D02*
X137722D01*
X145742Y162930D02*
X145687Y162874D01*
X145623Y162811*
G54D182*
X137165Y162990D02*
X137860D01*
X138740Y162110*
Y160307*
G54D183*
X113125Y128531D03*
X129500Y127281D03*
X116500Y132031D03*
X126375Y128281D03*
X117941Y118457D03*
X121000Y125031D03*
X122550Y115100D03*
X118625Y122781D03*
X123375Y127156D03*
X135350Y109750D03*
X135183Y118000D03*
X134625Y125406D03*
X122000Y113031D03*
X110000Y105281D03*
X102125Y102156D03*
X105248Y105506D03*
X105250Y110906D03*
X112750Y117156D03*
X119500Y116031D03*
X121875Y122000D03*
X117089Y124790D03*
X112250Y131781D03*
X163850Y130700D03*
X148500Y114866D03*
X141500Y108125D03*
X147543Y119666D03*
X160430Y109936D03*
X143750Y107125D03*
X165665Y125860D03*
X167875Y101906D03*
X163420Y105436D03*
X165690Y110636D03*
X162060Y112926D03*
X159200Y116600D03*
X162433Y120000D03*
X160308Y123250D03*
X163222Y128075D03*
X140875Y121406D03*
X139808Y125375D03*
X146500Y105156D03*
X142020Y105246D03*
X138750Y107281D03*
X138320Y112786D03*
X148570Y112296D03*
X146430Y117812D03*
X148058Y124625D03*
X137150Y129450D03*
X145800Y129800D03*
X153000Y129850D03*
X158500D03*
X119558Y149875D03*
X130100Y157050D03*
X123433Y157625D03*
X134400Y157050D03*
X132250D03*
X113625Y133906D03*
X119558Y154250D03*
X110808Y153375D03*
X112433Y154875D03*
X111558Y156875D03*
X107300Y160750D03*
X132800Y163250D03*
X121183Y157625D03*
X119683Y152125D03*
X105308Y161375D03*
X107558Y163250D03*
X111200Y163500D03*
X135984Y149776D03*
X133031Y152729D03*
X119183Y156375D03*
X126558Y157125D03*
X127126Y152729D03*
X124190Y149776D03*
X127130D03*
X127100Y143276D03*
X116000Y134300D03*
X110800Y138551D03*
X130600Y163050D03*
X110933Y151125D03*
X109200Y149400D03*
X108875Y144281D03*
X111614Y144942D03*
X120137Y144502D03*
X120183Y141750D03*
X120203Y139073D03*
X123130Y137776D03*
X127100D03*
X117450Y167000D03*
X122185Y167357D03*
X126600Y167350D03*
X132150Y166010D03*
X129900Y137776D03*
X130078Y149776D03*
X133030D03*
X133000Y143281D03*
Y137776D03*
X135880D03*
X136560Y168053D03*
X134352Y170179D03*
X128398Y169802D03*
X119550Y169900D03*
X113308Y150875D03*
X157023Y168337D03*
X161900Y142050D03*
X152150Y148800D03*
X140380Y145106D03*
X140375Y151406D03*
X141000Y149406D03*
X147510Y144130D03*
X151500Y138300D03*
X140000Y153500D03*
X147000Y142000D03*
X139132Y165437D03*
X153834Y169552D03*
X149550Y155300D03*
X163700Y143350D03*
X162000Y139450D03*
X165700Y136250D03*
X151750Y159150D03*
X142783Y160365D03*
X146404Y165301D03*
X145742Y162930D03*
X148142Y162429D03*
X148587Y164655D03*
X148017Y166916D03*
X149700Y135200D03*
X154300D03*
X160400Y158300D03*
X162800Y158000D03*
X164250Y148150D03*
X165700Y150000D03*
X164250Y152100D03*
X165700Y154250D03*
Y157000D03*
Y160150D03*
X161900D03*
X158700Y160200D03*
X156250Y142500D03*
X160150Y169700D03*
X160100Y165000D03*
X164850Y165050D03*
X164650Y167750D03*
X165000Y170906D03*
X158500Y135200D03*
X159050Y139500D03*
X155500D03*
X152683Y140125D03*
X151933Y142500D03*
X152058Y145000D03*
X150200Y146500D03*
X150150Y150500D03*
X151750Y156850D03*
X154550Y157800D03*
X155200Y160150D03*
Y165000D03*
X153815Y167197D03*
X150813Y164759D03*
X151831Y170627D03*
X152953Y172249D03*
X145900Y172350D03*
X143600Y171800D03*
X143184Y169655D03*
X141235Y167762D03*
X138903Y168982D03*
X146720Y149550D03*
X146677Y156543D03*
X140490Y141336D03*
X134375Y175531D03*
X130875Y173031D03*
X128125Y175531D03*
X125000Y172906D03*
X119750D03*
X121750Y175281D03*
X117125D03*
X114625Y173031D03*
X111750Y175281D03*
X109500Y173000D03*
X107375Y175281D03*
X105000Y173000D03*
X102384Y174638D03*
X140000Y175531D03*
X144375D03*
X140561Y172877D03*
X159625Y175125D03*
X163000Y175100D03*
X157331Y172786D03*
X161451Y172831D03*
X166300Y173106D03*
X168696Y174306D03*
X153919Y174061D03*
X154883Y175829D03*
X148878Y175934D03*
X147500Y174000D03*
X136750Y173031D03*
G54D184*
X169669Y102649D02*
G03X169610Y102708I-59J0D01*
G01X168096*
X167899Y102906D02*
G03X168096Y102708I197J-0D01*
G01X167899Y102906D02*
Y112509D01*
G03X167882Y112551I-59J-0*
G01X165263Y115169*
X164986Y115839D02*
G03X165263Y115169I947J-0D01*
G01X164986Y115839D02*
Y119829D01*
G03X164969Y119871I-59J-0*
G01X159554Y125286*
G03X159512Y125303I-42J-42*
G01X142672*
X142002Y125580D02*
G03X142672Y125303I670J670D01*
G01X142002Y125580D02*
X136495Y131087D01*
X136304Y131363D02*
G03X136495Y131087I861J394D01*
G01X136304Y131363D02*
G03X136232Y131394I-54J-25D01*
G01X136023Y131362D02*
G03X136232Y131394I0J697D01*
G01X136023Y131362D02*
X135157D01*
X134830Y131444D02*
G03X135157Y131362I327J615D01*
G01X134830Y131444D02*
G03X134775I-27J-53D01*
G01X134468Y131363D02*
G03X134775Y131444I-20J696D01*
G01X134468Y131363D02*
G03X134410Y131304I1J-59D01*
X134428Y131262I59J-0*
G01X137920Y127770*
X138197Y127100D02*
G03X137920Y127770I-947J0D01*
G01X138197Y127100D02*
Y120725D01*
G03X138214Y120683I59J-0*
G01X143920Y114978*
X144197Y114308D02*
G03X143920Y114978I-947J0D01*
G01X144197Y114308D02*
Y108583D01*
G03X144237Y108527I59J0*
G01X145235Y107125D02*
G03X144237Y108527I-1485J0D01*
G01X142304Y106787D02*
G03X145235Y107125I1446J338D01*
G01X142304Y106787D02*
G03X142218Y106826I-57J-13D01*
G01X140015Y108125D02*
G03X142218Y106826I1485J0D01*
G01X141133Y109564D02*
G03X140015Y108125I367J-1439D01*
G01X141133Y109564D02*
G03X141178Y109621I-14J57D01*
G01Y113516*
G03X141161Y113558I-59J0*
G01X135580Y119138*
X135303Y119808D02*
G03X135580Y119138I947J0D01*
G01X135303Y119808D02*
Y126083D01*
G03X135286Y126125I-59J0*
G01X133483Y127928*
G03X133382Y127886I-42J-42*
X133386Y127865I59J-0*
G01X133447Y127531D02*
G03X133386Y127865I-947J-0D01*
G01X133447Y127531D02*
Y126031D01*
G03X133514Y125615I1324J-0*
X133530Y125590I56J18*
G01X134136Y124200D02*
G03X133530Y125590I-1897J0D01*
G01X132239Y122303D02*
G03X134136Y124200I0J1897D01*
G01X132239Y122303D02*
X124414D01*
X122517Y124200D02*
G03X124414Y122303I1897J0D01*
G01X123129Y125595D02*
G03X122517Y124200I1285J-1395D01*
G01X123129Y125595D02*
G03X123148Y125639I-41J44D01*
X123099Y125697I-60J-0*
G01X122689Y125839D02*
G03X123099Y125697I686J1317D01*
G01X122689Y125839D02*
G03X122604Y125796I-27J-53D01*
G01X122449Y125457D02*
G03X122604Y125796I-533J449D01*
G01X122449Y125457D02*
G03X122435Y125419I45J-38D01*
X122437Y125404I59J-0*
G01X122485Y125031D02*
G03X122437Y125404I-1485J-0D01*
G01X120116Y123838D02*
G03X122485Y125031I884J1193D01*
G01X120116Y123838D02*
G03X120022Y123790I-35J-48D01*
G01Y123293*
G03X120025Y123273I59J-0*
G01X120110Y122781D02*
G03X120025Y123273I-1485J-0D01*
G01X117140Y122781D02*
G03X120110I1485J-0D01*
G01X118090Y124165D02*
G03X117140Y122781I535J-1384D01*
G01X118090Y124165D02*
G03X118128Y124220I-21J55D01*
G01Y125274*
G03X118101Y125323I-59J0*
G01X117787Y125906D02*
G03X118101Y125323I697J-0D01*
G01X117787Y125906D02*
Y127087D01*
X117889Y127450D02*
G03X117787Y127087I595J-363D01*
G01X117889Y127450D02*
G03X117898Y127480I-50J30D01*
X117889Y127511I-59J0*
G01X117885Y127519D02*
G03X117889Y127511I600J355D01*
G01X117885Y127519D02*
G03X117785Y127523I-51J-30D01*
G01X117216Y127227D02*
G03X117785Y127523I-0J697D01*
G01X117216Y127227D02*
X116798D01*
G03X116789I-0J-59*
G01X116625Y127215D02*
G03X116789Y127227I-0J1197D01*
G01X116625Y127215D02*
X116296D01*
G03X116254Y127198I-0J-59*
G01X116203Y127147*
G03X116185Y127105I41J-42*
G01Y114284*
G03X116203Y114242I59J-0*
G01X119409Y111035*
G03X119460Y111019I42J42*
G01X119563Y111027D02*
G03X119460Y111019I-0J-698D01*
G01X119563Y111027D02*
X120744D01*
X121431Y110446D02*
G03X120744Y111027I-687J-117D01*
G01X121431Y110446D02*
G03X121489Y110397I58J10D01*
G01X121638*
G03X123211Y110671I0J4648*
X123228Y110681I-20J56*
G01X124414Y111097D02*
G03X123228Y110681I-0J-1897D01*
G01X124414Y111097D02*
X132239D01*
X134136Y109200D02*
G03X132239Y111097I-1897J0D01*
G01Y107303D02*
G03X134136Y109200I0J1897D01*
G01X132239Y107303D02*
X124414D01*
X123228Y107719D02*
G03X124414Y107303I1186J1481D01*
G01X123228Y107719D02*
G03X123211Y107729I-37J-46D01*
X121638Y108003I-1573J-4374*
G01X120719*
X119872Y108354D02*
G03X120719Y108003I847J846D01*
G01X119872Y108354D02*
X119792Y108434D01*
G03X119750Y108451I-42J-42*
G01X119563*
X119255Y108523D02*
G03X119563Y108451I308J625D01*
G01X119255Y108523D02*
G03X119229Y108529I-26J-53D01*
G01X119045Y108526*
X118182Y108877D02*
G03X119045Y108526I846J846D01*
G01X118182Y108877D02*
X114142Y112917D01*
X113791Y113763D02*
G03X114142Y112917I1197J0D01*
G01X113791Y113763D02*
Y127111D01*
G03X113709Y127166I-59J0*
G01X111640Y128531D02*
G03X113709Y127166I1485J-0D01*
G01X112590Y129915D02*
G03X111640Y128531I535J-1384D01*
G01X112590Y129915D02*
G03X112619Y129940I-21J55D01*
G01X112726Y130077D02*
G03X112619Y129940I493J-492D01*
G01X112726Y130077D02*
X113561Y130913D01*
X113890Y131097D02*
G03X113561Y130913I164J-677D01*
G01X113890Y131097D02*
G03X113933Y131141I-14J58D01*
G01X114118Y131469D02*
G03X113933Y131141I493J-493D01*
G01X114118Y131469D02*
X114953Y132304D01*
X115043Y132380D02*
G03X114953Y132304I403J-569D01*
G01X115043Y132380D02*
G03X115066Y132413I-34J48D01*
G01X117985Y132031D02*
G03X115066Y132413I-1485J-0D01*
G01X117985Y132031D02*
Y132030D01*
X117982Y131946D02*
G03X117985Y132030I-1482J84D01*
G01X117982Y131946D02*
G03Y131943I59J-3D01*
X118083Y131901I59J-0*
G01X118695Y132513*
G03X118712Y132554I-42J41*
G01Y134618*
X119162Y135270D02*
G03X118712Y134618I247J-652D01*
G01X119162Y135270D02*
G03X119200Y135326I-21J56D01*
G01Y135888*
G03X119141Y135947I-59J-0*
G01X118581*
G03X118526Y135909I0J-59*
G01X117874Y135457D02*
G03X118526Y135909I-0J697D01*
G01X117874Y135457D02*
X115556D01*
G03X115497Y135398I0J-59*
G01Y134831*
X115220Y134161D02*
G03X115497Y134831I-670J670D01*
G01X115220Y134161D02*
X115131Y134072D01*
G03X115106Y134013I60J-60*
G01Y134012*
G03Y134008I59J0*
G01X115110Y133906D02*
G03X115106Y134008I-1485J-0D01*
G01X115110Y133906D02*
X115110D01*
X112140D02*
G03X115110I1485J-0D01*
G01X113547Y135388D02*
G03X112140Y133906I78J-1482D01*
G01X113547Y135388D02*
G03X113603Y135447I-3J59D01*
G01Y136241*
G03X113502Y136283I-59J0*
G01X110714Y133495*
G03X110697Y133453I42J-42*
G01Y110400*
X110420Y109730D02*
G03X110697Y110400I-670J670D01*
G01X110420Y109730D02*
X107770Y107080D01*
X107100Y106803D02*
G03X107770Y107080I0J947D01*
G01X107100Y106803D02*
X103026D01*
G03X102967Y106744I0J-59*
G01Y103136*
X102770Y102938D02*
G03X102967Y103136I0J198D01*
G01X102770Y102938D02*
X101256D01*
G03X101197Y102879I0J-59*
G01Y101256*
G03X101256Y101197I59J0*
G01X104904*
G03X104963Y101256I-0J59*
G01Y102766*
X105160Y102963D02*
G03X104963Y102766I0J-197D01*
G01X105160Y102963D02*
X165700D01*
X165897Y102766D02*
G03X165700Y102963I-197J-0D01*
G01X165897Y102766D02*
Y101256D01*
G03X165956Y101197I59J0*
G01X169610*
G03X169669Y101256I0J59*
G01Y102649*
X167899Y127509D02*
G03X167882Y127551I-59J-0D01*
G01X165307Y130125*
G03X165211Y130107I-42J-41*
G01X162379Y130502D02*
G03X165211Y130107I1471J198D01*
G01X162379Y130502D02*
G03X162320Y130553I-59J-8D01*
G01X147550*
X146880Y130830D02*
G03X147550Y130553I670J670D01*
G01X146880Y130830D02*
X143675Y134036D01*
G03X143633Y134053I-42J-42*
G01X142047*
X141536Y134203D02*
G03X142047Y134053I511J797D01*
G01X141536Y134203D02*
G03X141445Y134153I-32J-50D01*
G01Y132059*
X141444Y132023D02*
G03X141445Y132059I-696J36D01*
G01X141444Y132023D02*
G03Y132020I59J-3D01*
G01X141444*
G03X141461Y131978I59J0*
G01X144225Y129214*
G03X144267Y129197I42J42*
G01X160856*
X161526Y128920D02*
G03X160856Y129197I-670J-670D01*
G01X161526Y128920D02*
X167798Y122647D01*
G03X167899Y122689I42J42*
G01Y127509*
X169669Y176509D02*
G03X169610Y176569I-59J0D01*
G01X163218*
G03X163163Y176530I0J-60*
G01X162040Y175747D02*
G03X163163Y176530I-0J1197D01*
G01X162040Y175747D02*
X159573D01*
X158449Y176530D02*
G03X159573Y175747I1124J414D01*
G01X158449Y176530D02*
G03X158394Y176569I-55J-21D01*
G01X154231*
G03X154172Y176519I-0J-60*
G01X153793Y175611D02*
G03X154172Y176519I-1793J1283D01*
G01X153793Y175611D02*
G03X153784Y175593I48J-35D01*
G01X150953Y170716D02*
G03X153784Y175593I-8421J8148D01*
G01X150953Y170716D02*
G03X150937Y170675I43J-41D01*
X150954Y170633I59J-0*
G01X152459Y169128*
X152757Y168749D02*
G03X152459Y169128I-1746J-1068D01*
G01X152757Y168749D02*
G03X152766Y168738I51J31D01*
G01X152848Y168656*
X153263Y167654D02*
G03X152848Y168656I-1417J-0D01*
G01Y166652D02*
G03X153263Y167654I-1002J1002D01*
G01X152848Y166652D02*
X152718Y166521D01*
G03X152710Y166512I41J-42*
G01X152153Y165955D02*
G03X152710Y166512I-1142J1699D01*
G01X152153Y165955D02*
G03X152144Y165947I33J-49D01*
G01X152013Y165817*
X150009D02*
G03X152013I1002J1002D01*
G01X150009D02*
X149879Y165947D01*
G03X149870Y165955I-42J-41*
G01X149382Y166414D02*
G03X149870Y165955I1629J1240D01*
G01X149382Y166414D02*
G03X149377Y166420I-47J-36D01*
G01X148060Y167737*
G03X147976I-42J-42*
G01X147802Y167563*
G03X147800Y167560I42J-42*
G01X147703Y167456D02*
G03X147800Y167560I-1447J1449D01*
G01X147703Y167456D02*
X146149Y165902D01*
X145841Y165649D02*
G03X146149Y165902I-1140J1701D01*
G01X145841Y165649D02*
G03X145832Y165642I33J-49D01*
G01X145601Y165411*
X145298Y165180D02*
G03X145601Y165411I-699J1233D01*
G01X145298Y165180D02*
G03X145276Y165158I29J-51D01*
G01X145045Y164855D02*
G03X145276Y165158I-1002J1001D01*
G01X145045Y164855D02*
X144856Y164666D01*
G03X144849Y164658I42J-41*
G01X144597Y164352D02*
G03X144849Y164658I-1447J1447D01*
G01X144597Y164352D02*
X144376Y164130D01*
G03X144358Y164088I42J-42*
X144418Y164029I60J0*
G01X144528*
G03X144570Y164046I-0J59*
G01X145131Y164607*
X145270Y164665D02*
G03X145131Y164607I0J-197D01*
G01X145270Y164665D02*
X146400D01*
X146539Y164607D02*
G03X146400Y164665I-139J-139D01*
G01X146539Y164607D02*
X147434Y163712D01*
X147492Y163573D02*
G03X147434Y163712I-197J0D01*
G01X147492Y163573D02*
Y162306D01*
X147434Y162167D02*
G03X147492Y162306I-139J139D01*
G01X147434Y162167D02*
X146575Y161308D01*
X146436Y161250D02*
G03X146575Y161308I0J197D01*
G01X146436Y161250D02*
X145223D01*
X145084Y161308D02*
G03X145223Y161250I139J139D01*
G01X145084Y161308D02*
X144675Y161717D01*
G03X144633Y161734I-42J-42*
G01X143994*
G03X143952Y161717I0J-59*
G01X143363Y161128*
X143224Y161070D02*
G03X143363Y161128I0J197D01*
G01X143224Y161070D02*
X142672D01*
X142533Y161128D02*
G03X142672Y161070I139J139D01*
G01X142533Y161128D02*
X142428Y161232D01*
G03X142330Y161207I-41J-42*
G01X142188Y160851D02*
G03X142330Y161207I-1823J931D01*
G01X142188Y160851D02*
G03X142182Y160824I53J-27D01*
G01Y160307*
X142165Y160060D02*
G03X142182Y160307I-1850J247D01*
G01X142165Y160060D02*
G03Y160053I59J-7D01*
G01Y159461*
X139579Y157764D02*
G03X142165Y159461I736J1697D01*
G01X139579Y157764D02*
G03X139513Y157751I-24J-55D01*
G01X136517Y154755*
X136378Y154697D02*
G03X136517Y154755I-0J197D01*
G01X136378Y154697D02*
X122264D01*
G03X122205Y154638I-0J-59*
G01Y139008*
G03X122264Y138949I59J0*
G01X137893*
G03X137952Y139008I0J59*
G01Y152532*
X138010Y152671D02*
G03X137952Y152532I139J-139D01*
G01X138010Y152671D02*
X138523Y153184D01*
G03X138540Y153226I-42J42*
G01X138540*
G03X138539Y153236I-59J-0*
G01X138515Y153500D02*
G03X138539Y153236I1485J0D01*
G01X140264Y154961D02*
G03X138515Y153500I-264J-1461D01*
G01X140264Y154961D02*
G03X140316Y154977I10J58D01*
G01X141741Y156402*
G03X141758Y156444I-42J42*
X141749Y156474I-59J-0*
G01X141586Y157059D02*
G03X141749Y156474I1130J0D01*
G01X141586Y157059D02*
X141586D01*
X142716Y158190D02*
G03X141586Y157059I0J-1131D01*
G01X142716Y158190D02*
X144409D01*
X144674Y158158D02*
G03X144409Y158190I-265J-1099D01*
G01X144674Y158158D02*
G03X144688Y158156I14J58D01*
G01X146810*
G03X146869Y158216I-0J60*
G01Y158351*
G03X146862Y158379I-59J-0*
G01X146778Y158709D02*
G03X146862Y158379I697J0D01*
G01X146778Y158709D02*
Y159891D01*
X147475Y160588D02*
G03X146778Y159891I0J-697D01*
G01X147475Y160588D02*
X148656D01*
X149353Y159891D02*
G03X148656Y160588I-697J-0D01*
G01X149353Y159891D02*
Y158709D01*
X149270Y158379D02*
G03X149353Y158709I-614J330D01*
G01X149270Y158379D02*
G03X149263Y158351I52J-28D01*
G01Y157799*
G03X149270Y157771I59J0*
G01X149353Y157441D02*
G03X149270Y157771I-697J-0D01*
G01X149353Y157441D02*
Y157010D01*
G03X149354Y157003I59J-0*
G01X149363Y156850D02*
G03X149354Y157003I-1297J0D01*
G01X149363Y156850D02*
X149363D01*
X149354Y156697D02*
G03X149363Y156850I-1288J153D01*
G01X149354Y156697D02*
G03X149353Y156690I58J-7D01*
G01Y156259*
X148656Y155562D02*
G03X149353Y156259I0J697D01*
G01X148656Y155562D02*
X148226D01*
G03X148219I-0J-59*
G01X147980Y155556D02*
G03X148219Y155562I86J1294D01*
G01X147980Y155556D02*
G03X147976I-4J-59D01*
G01X147812*
G03X147769Y155537I0J-59*
G01X146546Y155064D02*
G03X147769Y155537I131J1479D01*
G01X146546Y155064D02*
G03X146499Y155047I-6J-59D01*
G01X146160Y154709*
X146126Y154676D02*
G03X146160Y154709I-741J809D01*
G01X146126Y154676D02*
G03X146107Y154633I40J-43D01*
X146125Y154590I59J-0*
G01X146136Y154579D02*
G03X146125Y154590I-670J-669D01*
G01X146136Y154579D02*
X146351Y154364D01*
G03X146393Y154347I42J42*
G01X146844*
G03X146893Y154374I-0J59*
G01X147475Y154688D02*
G03X146893Y154374I0J-697D01*
G01X147475Y154688D02*
X148656D01*
X149019Y154586D02*
G03X148656Y154688I-363J-595D01*
G01X149019Y154586D02*
G03X149081I31J50D01*
G01X149443Y154688D02*
G03X149081Y154586I0J-697D01*
G01X149443Y154688D02*
X150625D01*
X151207Y154374D02*
G03X150625Y154688I-582J-383D01*
G01X151207Y154374D02*
G03X151256Y154347I49J32D01*
G01X152339*
G03X152398Y154406I-0J59*
G01Y155966*
X153095Y156663D02*
G03X152398Y155966I-0J-697D01*
G01X153095Y156663D02*
X155460D01*
G03X155519Y156722I-0J59*
G01Y157178*
G03X155492Y157227I-59J-0*
G01X155178Y157809D02*
G03X155492Y157227I697J0D01*
G01X155178Y157809D02*
Y158991D01*
X155875Y159688D02*
G03X155178Y158991I0J-697D01*
G01X155875Y159688D02*
X157056D01*
X157753Y158991D02*
G03X157056Y159688I-697J-0D01*
G01X157753Y158991D02*
Y157809D01*
X157439Y157227D02*
G03X157753Y157809I-383J582D01*
G01X157439Y157227D02*
G03X157413Y157178I33J-49D01*
G01Y156580*
G03X157437Y156532I59J0*
G01X157729Y155966D02*
G03X157437Y156532I-697J-0D01*
G01X157729Y155966D02*
Y152816D01*
Y152797D02*
G03Y152816I-697J19D01*
G01Y152797D02*
X157728Y152796D01*
X157728*
G03X157733Y152774I60J-0*
G01X157747Y152700D02*
G03X157733Y152774I-197J0D01*
G01X157747Y152700D02*
Y151473D01*
G03X157791Y151416I59J-0*
G01X158220Y151170D02*
G03X157791Y151416I-670J-670D01*
G01X158220Y151170D02*
X159481Y149908D01*
G03X159865Y149587I2013J2013*
X159899Y149576I34J48*
G01X162937*
X163634Y148879D02*
G03X162937Y149576I-697J0D01*
G01X163634Y148879D02*
Y144548D01*
X162937Y143851D02*
G03X163634Y144548I0J697D01*
G01X162937Y143851D02*
X160990D01*
G03X160931Y143792I0J-59*
G01Y143322*
G03X160958Y143273I59J0*
G01X161272Y142691D02*
G03X160958Y143273I-697J-0D01*
G01X161272Y142691D02*
Y141509D01*
X160575Y140812D02*
G03X161272Y141509I-0J697D01*
G01X160575Y140812D02*
X159394D01*
X158697Y141509D02*
G03X159394Y140812I697J0D01*
G01X158697Y141509D02*
Y142691D01*
X159011Y143273D02*
G03X158697Y142691I383J-582D01*
G01X159011Y143273D02*
G03X159037Y143322I-33J49D01*
G01Y143793*
G03X158980Y143852I-59J-0*
G01X158303Y144548D02*
G03X158980Y143852I697J0D01*
G01X158303Y144548D02*
Y148356D01*
G03X158292Y148391I-59J0*
X158142Y148569I-1132J-804*
G01X157175Y149536*
G03X157133Y149553I-42J-42*
G01X152600*
X151930Y149830D02*
G03X152600Y149553I670J670D01*
G01X151930Y149830D02*
X150675Y151086D01*
G03X150633Y151103I-42J-42*
G01X147109*
G03X147050Y151044I-0J-59*
X147094Y150987I59J-0*
G01X147866Y150493D02*
G03X147094Y150987I-1146J-943D01*
G01X147866Y150493D02*
G03X147912Y150472I46J38D01*
G01X148841*
X149538Y149775D02*
G03X148841Y150472I-697J-0D01*
G01X149538Y149775D02*
Y148593D01*
X149436Y148231D02*
G03X149538Y148593I-595J362D01*
G01X149436Y148231D02*
G03X149427Y148200I50J-31D01*
X149436Y148169I59J-0*
G01X149538Y147806D02*
G03X149436Y148169I-697J0D01*
G01X149538Y147806D02*
Y146625D01*
X149225Y146044D02*
G03X149538Y146625I-384J581D01*
G01X149225Y146044D02*
G03X149199Y145995I33J-49D01*
X149216Y145953I59J-0*
G01X150370Y144800*
X150647Y144130D02*
G03X150370Y144800I-947J0D01*
G01X150647Y144130D02*
Y141206D01*
G03X150674Y141157I59J0*
G01X150988Y140575D02*
G03X150674Y141157I-697J-0D01*
G01X150988Y140575D02*
Y139776D01*
G03X151064Y139719I59J-0*
G01X152985Y138300D02*
G03X151064Y139719I-1485J0D01*
G01X150865Y136958D02*
G03X152985Y138300I635J1342D01*
G01X150865Y136958D02*
G03X150796Y136946I-26J-53D01*
G01X150291Y136728D02*
G03X150796Y136946I-0J697D01*
G01X150291Y136728D02*
X149109D01*
X148412Y137425D02*
G03X149109Y136728I697J0D01*
G01X148412Y137425D02*
Y138606D01*
X148514Y138969D02*
G03X148412Y138606I595J-363D01*
G01X148514Y138969D02*
G03X148523Y139000I-50J31D01*
X148514Y139031I-59J-0*
G01X148412Y139393D02*
G03X148514Y139031I697J0D01*
G01X148412Y139393D02*
Y140575D01*
X148726Y141157D02*
G03X148412Y140575I383J-582D01*
G01X148726Y141157D02*
G03X148753Y141206I-32J49D01*
G01Y143139*
G03X148649Y143177I-59J0*
G01X148282Y142862D02*
G03X148649Y143177I-772J1268D01*
G01X148282Y142862D02*
G03X148254Y142812I31J-50D01*
X148263Y142781I59J-0*
G01X148485Y142000D02*
G03X148263Y142781I-1485J0D01*
G01X148136Y141044D02*
G03X148485Y142000I-1136J956D01*
G01X148136Y141044D02*
G03X148122Y141006I45J-38D01*
X148132Y140972I59J-0*
G01X148257Y140575D02*
G03X148132Y140972I-697J-0D01*
G01X148257Y140575D02*
Y139394D01*
X147560Y138697D02*
G03X148257Y139394I-0J697D01*
G01X147560Y138697D02*
X146378D01*
X145737Y139121D02*
G03X146378Y138697I641J273D01*
G01X145737Y139121D02*
G03X145721Y139143I-54J-23D01*
G01X145649Y139209D02*
G03X145721Y139143I776J775D01*
G01X145649Y139209D02*
X145631Y139227D01*
G03X145531Y139194I-42J-42*
G01X145458Y138977D02*
G03X145531Y139194I-616J327D01*
G01X145458Y138977D02*
G03X145451Y138949I52J-28D01*
G01X145451*
G03X145458Y138921I59J0*
G01X145518Y138766D02*
G03X145458Y138921I-676J-171D01*
G01X145518Y138766D02*
G03X145533Y138739I57J14D01*
G01X146307Y137965*
X146584Y137296D02*
G03X146307Y137965I-947J-0D01*
G01X146584Y137296D02*
Y136760D01*
G03X146601Y136718I59J-0*
G01X148855Y134464*
G03X148897Y134447I42J42*
G01X165051*
X165721Y134170D02*
G03X165051Y134447I-670J-670D01*
G01X165721Y134170D02*
X167798Y132092D01*
G03X167899Y132134I42J42*
G01Y169150*
X168096Y169347D02*
G03X167899Y169150I0J-197D01*
G01X168096Y169347D02*
X169610D01*
G03X169669Y169406I0J59*
G01Y176509*
X149780D02*
G03X149721Y176569I-59J0D01*
G01X101256*
G03X101197Y176509I0J-60*
G01Y169398*
G03X101256Y169339I59J-0*
G01X102770*
X102967Y169142D02*
G03X102770Y169339I-197J-0D01*
G01X102967Y169142D02*
Y168437D01*
G03X103026Y168378I59J0*
G01X103114*
G03X103156Y168395I-0J59*
G01X106087Y171327*
X106757Y171605D02*
G03X106087Y171327I0J-947D01*
G01X106757Y171605D02*
X131688D01*
X132358Y171328D02*
G03X131688Y171605I-670J-670D01*
G01X132358Y171328D02*
X134312Y169374D01*
X134584Y168797D02*
G03X134312Y169374I-942J-93D01*
G01X134584Y168797D02*
G03X134637Y168744I59J6D01*
G01X134794Y168715D02*
G03X134637Y168744I-249J-914D01*
G01X134794Y168715D02*
G03X134853Y168731I16J57D01*
G01X134857Y168735D02*
G03X134853Y168731I139J-139D01*
G01X134857Y168735D02*
X135775Y169653D01*
X135914Y169711D02*
G03X135775Y169653I0J-197D01*
G01X135914Y169711D02*
X136945D01*
X137084Y169653D02*
G03X136945Y169711I-139J-139D01*
G01X137084Y169653D02*
X139197Y167540D01*
X139255Y167401D02*
G03X139197Y167540I-197J0D01*
G01X139255Y167401D02*
Y166710D01*
X139197Y166571D02*
G03X139255Y166710I-139J139D01*
G01X139197Y166571D02*
X138198Y165571D01*
G03X138181Y165530I42J-41*
X138198Y165488I59J-0*
G01X138799Y164887*
X139053Y164425D02*
G03X138799Y164887I-924J-208D01*
G01X139053Y164425D02*
G03X139162Y164408I58J13D01*
G01X139501Y164928D02*
G03X139162Y164408I5288J-3816D01*
G01X139501Y164928D02*
G03X139504Y164933I-48J35D01*
G01X139688Y165176D02*
G03X139504Y164933I1030J-974D01*
G01X139688Y165176D02*
G03X139692Y165179I-43J40D01*
G01X140065Y165608D02*
G03X139692Y165179I4724J-4496D01*
G01X140065Y165608D02*
X140065D01*
X140113Y165657D02*
G03X140065Y165608I1440J-1455D01*
G01X140113Y165657D02*
X141703Y167247D01*
X142008Y167498D02*
G03X141703Y167247I1142J-1699D01*
G01X142008Y167498D02*
G03X142017Y167506I-32J49D01*
G01X142205Y167694*
X142509Y167925D02*
G03X142205Y167694I698J-1233D01*
G01X142509Y167925D02*
G03X142531Y167947I-29J51D01*
G01X142762Y168250D02*
G03X142531Y167947I1002J-1002D01*
G01X142762Y168250D02*
X142996Y168484D01*
G03X143003Y168493I-42J42*
G01X143254Y168797D02*
G03X143003Y168493I1447J-1447D01*
G01X143254Y168797D02*
X144710Y170253D01*
G03X144713Y170256I-42J42*
G01X144809Y170359D02*
G03X144713Y170256I1447J-1447D01*
G01X144809Y170359D02*
X147923Y173473D01*
G03X149777Y176491I-5391J5391*
X149780Y176509I-56J18*
G01X113372Y141386D02*
G03X113313Y141445I-59J-0D01*
G01X112129*
G03X112087Y141428I-0J-59*
G01X109714Y139055*
G03X109697Y139013I42J-42*
G01Y137600*
X109420Y136930D02*
G03X109697Y137600I-670J670D01*
G01X109420Y136930D02*
X107414Y134925D01*
G03X107397Y134883I42J-42*
G01Y127356*
X107120Y126686D02*
G03X107397Y127356I-670J670D01*
G01X107120Y126686D02*
X102984Y122551D01*
G03X102967Y122509I42J-42*
G01Y109756*
G03X103026Y109697I59J0*
G01X106183*
G03X106225Y109714I0J59*
G01X107786Y111275*
G03X107803Y111317I-42J42*
G01Y134300*
X108080Y134970D02*
G03X107803Y134300I670J-670D01*
G01X108080Y134970D02*
X111386Y138275D01*
G03X111403Y138317I-42J42*
G01Y139000*
X111680Y139670D02*
G03X111403Y139000I670J-670D01*
G01X111680Y139670D02*
X113355Y141344D01*
G03X113372Y141386I-42J42*
G01X114061Y145419D02*
G03X114044Y145460I-59J-0D01*
G01X113989Y145516*
G03X113947Y145533I-42J-42*
G01X108830*
G03X108788Y145516I-0J-59*
G01X105714Y142442*
G03X105697Y142400I42J-42*
G01Y139100*
X105420Y138430D02*
G03X105697Y139100I-670J670D01*
G01X105420Y138430D02*
X104014Y137025D01*
G03X103997Y136983I42J-42*
G01Y133956*
X103720Y133286D02*
G03X103997Y133956I-670J670D01*
G01X103720Y133286D02*
X102984Y132551D01*
G03X102967Y132509I42J-42*
G01Y127230*
G03X103068Y127188I59J-0*
G01X104436Y128555*
G03X104453Y128597I-42J42*
G01Y135750*
X104730Y136420D02*
G03X104453Y135750I670J-670D01*
G01X104730Y136420D02*
X106786Y138475D01*
G03X106803Y138517I-42J42*
G01Y139850*
X107080Y140520D02*
G03X106803Y139850I670J-670D01*
G01X107080Y140520D02*
X110635Y144074D01*
X111305Y144352D02*
G03X110635Y144074I-0J-947D01*
G01X111305Y144352D02*
X112838D01*
G03X112880Y144369I-0J59*
G01X113641Y145131*
X114021Y145362D02*
G03X113641Y145131I290J-901D01*
G01X114021Y145362D02*
G03X114061Y145419I-19J57D01*
G01X112836Y152324D02*
G03X112777Y152384I-59J0D01*
G01X111939*
G03X111896Y152365I0J-60*
G01X109324Y153375D02*
G03X111896Y152365I1484J0D01*
G01X110887Y154857D02*
G03X109324Y153375I-79J-1482D01*
G01X110887Y154857D02*
G03X110949Y154915I3J59D01*
G01X111051Y155416D02*
G03X110949Y154915I1382J-541D01*
G01X111051Y155416D02*
G03X111055Y155438I-55J22D01*
X111017Y155493I-59J-0*
G01X110074Y156875D02*
G03X111017Y155493I1484J0D01*
G01X110074Y156875D02*
X110074D01*
Y156891D02*
G03Y156875I1484J-16D01*
G01Y156891D02*
Y156892D01*
G03X109973Y156933I-59J-0*
G01X104714Y151675*
G03X104697Y151633I42J-42*
G01Y147281*
X104420Y146611D02*
G03X104697Y147281I-670J670D01*
G01X104420Y146611D02*
X103045Y145236D01*
X102988Y145184D02*
G03X103045Y145236I-613J722D01*
G01X102988Y145184D02*
G03X102967Y145138I38J-46D01*
G01Y143942*
G03X103069Y143901I59J-0*
G01X103080Y143913D02*
G03X103069Y143901I670J-670D01*
G01X103080Y143913D02*
X107318Y148150D01*
X107988Y148428D02*
G03X107318Y148150I-0J-947D01*
G01X107988Y148428D02*
X111507D01*
G03X111566Y148487I-0J59*
X111561Y148510I-59J-0*
G01X111505Y148784D02*
G03X111561Y148510I697J0D01*
G01X111505Y148784D02*
Y149966D01*
X111822Y150550D02*
G03X111505Y149966I380J-584D01*
G01X111822Y150550D02*
G03X111848Y150599I-33J49D01*
X111847Y150610I-59J0*
G01X111824Y150875D02*
G03X111847Y150610I1484J-0D01*
G01X111824Y150875D02*
X111824D01*
X112798Y152269D02*
G03X111824Y150875I510J-1394D01*
G01X112798Y152269D02*
G03X112836Y152324I-21J55D01*
G01X136019Y162927D02*
Y163015D01*
G03X136002Y163057I-59J-0*
G01X132901Y166157*
X132741Y166370D02*
G03X132901Y166157I830J457D01*
G01X132741Y166370D02*
G03X132733Y166381I-51J-29D01*
G01X132579Y166655D02*
G03X132733Y166381I669J196D01*
G01X132579Y166655D02*
G03X132526Y166698I-57J-16D01*
G01X131911Y166973D02*
G03X132526Y166698I669J670D01*
G01X131911Y166973D02*
X130669Y168216D01*
G03X130627Y168233I-42J-42*
G01X115203Y168232*
G03X115161Y168215I-0J-59*
G01X114346Y167400*
X114048Y167198D02*
G03X114346Y167400I-371J872D01*
G01X114048Y167198D02*
X113957Y167160D01*
X113586Y167084D02*
G03X113957Y167160I-0J947D01*
G01X113586Y167084D02*
X107910D01*
G03X107868Y167067I0J-59*
G01X104493Y163691*
X103823Y163413D02*
G03X104493Y163691I-0J948D01*
G01X103823Y163413D02*
X103026D01*
G03X102967Y163354I0J-59*
G01Y156912*
G03X103026Y156853I59J-0*
G01X104239*
G03X104281Y156870I-0J59*
G01X106710Y159300*
G03X106728Y159341I-41J41*
X106693Y159395I-59J0*
G01X105815Y160750D02*
G03X106693Y159395I1485J0D01*
G01X107412Y162230D02*
G03X105815Y160750I-112J-1480D01*
G01X107412Y162230D02*
G03X107458Y162247I4J59D01*
G01X107830Y162620*
X108500Y162897D02*
G03X107830Y162620I-0J-947D01*
G01X108500Y162897D02*
X112565D01*
G03X112607Y162914I-0J59*
G01X115737Y166045*
X116407Y166322D02*
G03X115737Y166045I-0J-947D01*
G01X116407Y166322D02*
X125933D01*
X126603Y166045D02*
G03X125933Y166322I-670J-670D01*
G01X126603Y166045D02*
X129961Y162687D01*
X130194Y162303D02*
G03X129961Y162687I-903J-286D01*
G01X130194Y162303D02*
G03X130264Y162263I56J18D01*
G01X130433Y162284D02*
G03X130264Y162263I-0J-697D01*
G01X130433Y162284D02*
X131299D01*
X131575Y162227D02*
G03X131299Y162284I-276J-640D01*
G01X131575Y162227D02*
G03X131657Y162281I23J54D01*
X131644Y162318I-59J0*
G01X131315Y163250D02*
G03X131644Y162318I1485J0D01*
G01X133926Y164218D02*
G03X131315Y163250I-1126J-968D01*
G01X133926Y164218D02*
G03X133971Y164197I45J38D01*
G01X134000*
X134670Y163920D02*
G03X134000Y164197I-670J-670D01*
G01X134670Y163920D02*
X135917Y162672D01*
G03X136018Y162714I42J42*
G01Y162875*
X136019Y162924D02*
G03X136018Y162875I1146J-49D01*
G01X136019Y162924D02*
G03Y162927I-59J3D01*
G01X136019*
X160228Y108465D02*
G03X161915Y109936I202J1471D01*
G01X160228Y108465D02*
G03X160161Y108406I-8J-59D01*
G01Y108000*
X159464Y107303D02*
G03X160161Y108000I0J697D01*
G01X159464Y107303D02*
X149239D01*
X148542Y108000D02*
G03X149239Y107303I697J0D01*
G01X148542Y108000D02*
Y110400D01*
X149239Y111097D02*
G03X148542Y110400I0J-697D01*
G01X149239Y111097D02*
X159464D01*
X159483D02*
G03X159464I-19J-697D01*
G01X159483D02*
G03X159521Y111109I2J59D01*
G01X161915Y109936D02*
G03X159521Y111109I-1485J-0D01*
G01X158264Y112303D02*
G03X160161Y114200I0J1897D01*
G01X158264Y112303D02*
X150439D01*
X148738Y113359D02*
G03X150439Y112303I1701J841D01*
G01X148738Y113359D02*
G03X148678Y113392I-53J-26D01*
G01X147015Y114866D02*
G03X148678Y113392I1485J-0D01*
G01X149546Y115919D02*
G03X147015Y114866I-1046J-1053D01*
G01X149546Y115919D02*
G03X149613Y115908I41J42D01*
G01X150439Y116097D02*
G03X149613Y115908I0J-1897D01*
G01X150439Y116097D02*
X158264D01*
X160161Y114200D02*
G03X158264Y116097I-1897J0D01*
G01Y117303D02*
G03X160161Y119200I0J1897D01*
G01X158264Y117303D02*
X150439D01*
X148904Y118086D02*
G03X150439Y117303I1535J1114D01*
G01X148904Y118086D02*
G03X148881Y118105I-48J-35D01*
X148211Y118253I-671J-1443*
G01X148211*
X148058Y118265D02*
G03X148211Y118253I152J935D01*
G01X148058Y118265D02*
G03X148029Y118263I-10J-58D01*
G01X146059Y119666D02*
G03X148029Y118263I1484J-0D01*
G01X148846Y120377D02*
G03X146059Y119666I-1303J-711D01*
G01X148846Y120377D02*
G03X148945Y120369I52J28D01*
G01X150439Y121097D02*
G03X148945Y120369I0J-1897D01*
G01X150439Y121097D02*
X158264D01*
X160161Y119200D02*
G03X158264Y121097I-1897J0D01*
G01X132239Y112303D02*
G03X134136Y114200I0J1897D01*
G01X132239Y112303D02*
X124414D01*
X122622Y113576D02*
G03X124414Y112303I1792J624D01*
G01X122622Y113576D02*
G03X122566Y113616I-55J-20D01*
G01X121065Y115100D02*
G03X122566Y113616I1485J0D01*
G01X123722Y116011D02*
G03X121065Y115100I-1172J-911D01*
G01X123722Y116011D02*
G03X123789Y115991I47J36D01*
G01X124414Y116097D02*
G03X123789Y115991I-0J-1897D01*
G01X124414Y116097D02*
X132239D01*
X134136Y114200D02*
G03X132239Y116097I-1897J0D01*
G01Y117303D02*
G03X134136Y119200I0J1897D01*
G01X132239Y117303D02*
X124414D01*
X122949Y117995D02*
G03X124414Y117303I1465J1205D01*
G01X122949Y117995D02*
G03X122928Y118011I-46J-38D01*
X122759Y118083I-1084J-2307*
X122683Y118050I-21J-55*
G01X122036Y117612D02*
G03X122683Y118050I-0J697D01*
G01X122036Y117612D02*
X120855D01*
X120492Y117714D02*
G03X120855Y117612I363J595D01*
G01X120492Y117714D02*
G03X120430I-31J-50D01*
G01X120068Y117612D02*
G03X120430Y117714I-0J697D01*
G01X120068Y117612D02*
X119401D01*
G03X119375Y117606I-0J-59*
G01X119113Y117523D02*
G03X119375Y117606I-154J934D01*
G01X119113Y117523D02*
G03X119078Y117502I10J-59D01*
G01X116456Y118457D02*
G03X119078Y117502I1485J-0D01*
G01X118280Y119902D02*
G03X116456Y118457I-339J-1445D01*
G01X118280Y119902D02*
G03X118340Y119923I14J58D01*
G01X118886Y120188D02*
G03X118340Y119923I0J-697D01*
G01X118886Y120188D02*
X120068D01*
X120430Y120086D02*
G03X120068Y120188I-362J-595D01*
G01X120430Y120086D02*
G03X120492I31J50D01*
G01X120855Y120188D02*
G03X120492Y120086I-0J-697D01*
G01X120855Y120188D02*
X122036D01*
X122179Y120173D02*
G03X122036Y120188I-143J-682D01*
G01X122179Y120173D02*
G03X122200Y120172I12J58D01*
X122928Y120389I-356J2524*
X122949Y120405I-25J54*
G01X124414Y121097D02*
G03X122949Y120405I-0J-1897D01*
G01X124414Y121097D02*
X132239D01*
X134136Y119200D02*
G03X132239Y121097I-1897J0D01*
G01X165897Y102614D02*
X169669D01*
X165897Y102260D02*
X169669D01*
X165897Y101905D02*
X169669D01*
X165897Y101550D02*
X169669D01*
X144197Y112188D02*
X167899D01*
X144197Y111834D02*
X167899D01*
X144197Y111479D02*
X167899D01*
X161319Y111124D02*
X167899D01*
X161658Y110770D02*
X167899D01*
X161835Y110415D02*
X167899D01*
X161909Y110061D02*
X167899D01*
X161897Y109706D02*
X167899D01*
X161795Y109351D02*
X167899D01*
X161580Y108997D02*
X167899D01*
X161159Y108642D02*
X167899D01*
X160161Y108288D02*
X167899D01*
X160158Y107933D02*
X167899D01*
X160019Y107578D02*
X167899D01*
X145231Y107224D02*
X167899D01*
X145212Y106869D02*
X167899D01*
X145103Y106515D02*
X167899D01*
X144878Y106160D02*
X167899D01*
X144430Y105805D02*
X167899D01*
X102967Y105451D02*
X167899D01*
X102967Y105096D02*
X167899D01*
X102967Y104742D02*
X167899D01*
X102967Y104387D02*
X167899D01*
X102967Y104032D02*
X167899D01*
X102967Y103678D02*
X167899D01*
X102967Y103323D02*
X167899D01*
X102875Y102969D02*
X167899D01*
X159188Y112543D02*
X167888D01*
X159643Y112897D02*
X167535D01*
X159907Y113252D02*
X167180D01*
X160066Y113607D02*
X166826D01*
X160146Y113961D02*
X166471D01*
X160158Y114316D02*
X166117D01*
X160102Y114670D02*
X165762D01*
X159972Y115025D02*
X165407D01*
X159750Y115380D02*
X165105D01*
X159380Y115734D02*
X164992D01*
X160111Y119635D02*
X164986D01*
X160160Y119280D02*
X164986D01*
X160141Y118926D02*
X164986D01*
X160054Y118571D02*
X164986D01*
X159886Y118216D02*
X164986D01*
X159609Y117862D02*
X164986D01*
X159120Y117507D02*
X164986D01*
X141745Y117153D02*
X164986D01*
X142099Y116798D02*
X164986D01*
X142454Y116443D02*
X164986D01*
X158440Y116089D02*
X164986D01*
X159989Y119989D02*
X164850D01*
X159777Y120344D02*
X164495D01*
X159427Y120699D02*
X164141D01*
X158669Y121053D02*
X163786D01*
X138197Y121408D02*
X163432D01*
X138197Y121762D02*
X163077D01*
X138197Y122117D02*
X162722D01*
X138197Y122472D02*
X162368D01*
X138197Y122826D02*
X162013D01*
X138197Y123181D02*
X161659D01*
X138197Y123535D02*
X161304D01*
X138197Y123890D02*
X160949D01*
X138197Y124245D02*
X160595D01*
X138197Y124599D02*
X160240D01*
X138197Y124954D02*
X159886D01*
X144197Y111124D02*
X159541D01*
X149341Y116089D02*
X150263D01*
X148071Y121053D02*
X150034D01*
X141390Y117507D02*
X149583D01*
X144197Y112543D02*
X149516D01*
X148610Y120699D02*
X149276D01*
X141036Y117862D02*
X149094D01*
X144197Y112897D02*
X149060D01*
X144197Y113252D02*
X148796D01*
X145164Y107578D02*
X148684D01*
X144197Y110770D02*
X148648D01*
X147865Y118216D02*
X148549D01*
X144995Y107933D02*
X148545D01*
X144197Y110415D02*
X148542D01*
X144197Y110061D02*
X148542D01*
X144197Y109706D02*
X148542D01*
X144197Y109351D02*
X148542D01*
X144197Y108997D02*
X148542D01*
X144197Y108642D02*
X148542D01*
X144673Y108288D02*
X148542D01*
X144197Y113607D02*
X147713D01*
X142809Y116089D02*
X147659D01*
X144197Y113961D02*
X147323D01*
X143163Y115734D02*
X147296D01*
X140681Y118216D02*
X147222D01*
X144197Y114316D02*
X147121D01*
X143518Y115380D02*
X147107D01*
X144125Y114670D02*
X147028D01*
X143872Y115025D02*
X147024D01*
X138197Y121053D02*
X147016D01*
X140326Y118571D02*
X146541D01*
X138203Y120699D02*
X146477D01*
X139972Y118926D02*
X146256D01*
X138553Y120344D02*
X146223D01*
X139617Y119280D02*
X146110D01*
X138908Y119989D02*
X146095D01*
X139263Y119635D02*
X146059D01*
X102967Y105805D02*
X143070D01*
X102967Y106160D02*
X142622D01*
X138197Y125308D02*
X142570D01*
X102967Y106515D02*
X142397D01*
X138197Y125663D02*
X141919D01*
X138197Y126018D02*
X141565D01*
X138197Y126372D02*
X141210D01*
X133882Y113252D02*
X141178D01*
X133618Y112897D02*
X141178D01*
X133162Y112543D02*
X141178D01*
X118256Y112188D02*
X141178D01*
X118611Y111834D02*
X141178D01*
X118965Y111479D02*
X141178D01*
X119320Y111124D02*
X141178D01*
X133304Y110770D02*
X141178D01*
X133696Y110415D02*
X141178D01*
X133930Y110061D02*
X141178D01*
X134067Y109706D02*
X141178D01*
X134041Y113607D02*
X141112D01*
X138197Y126727D02*
X140855D01*
X134121Y113961D02*
X140758D01*
X107448Y106869D02*
X140708D01*
X134130Y109351D02*
X140664D01*
X138197Y127081D02*
X140501D01*
X134132Y114316D02*
X140403D01*
X107913Y107224D02*
X140320D01*
X134125Y108997D02*
X140298D01*
X138135Y127436D02*
X140146D01*
X133224Y107578D02*
X140120D01*
X134052Y108642D02*
X140109D01*
X134077Y114670D02*
X140048D01*
X133651Y107933D02*
X140028D01*
X133902Y108288D02*
X140024D01*
X137899Y127791D02*
X139792D01*
X133947Y115025D02*
X139694D01*
X137544Y128145D02*
X139437D01*
X133725Y115380D02*
X139339D01*
X137190Y128500D02*
X139082D01*
X133355Y115734D02*
X138985D01*
X136835Y128854D02*
X138728D01*
X132415Y116089D02*
X138630D01*
X136480Y129209D02*
X138373D01*
X123182Y116443D02*
X138275D01*
X136126Y129564D02*
X138019D01*
X116185Y116798D02*
X137921D01*
X135771Y129918D02*
X137664D01*
X118650Y117153D02*
X137566D01*
X135417Y130273D02*
X137310D01*
X133095Y117507D02*
X137212D01*
X135062Y130627D02*
X136955D01*
X133584Y117862D02*
X136857D01*
X134707Y130982D02*
X136600D01*
X133861Y118216D02*
X136502D01*
X134420Y131337D02*
X136316D01*
X134029Y118571D02*
X136148D01*
X134116Y118926D02*
X135793D01*
X134134Y119280D02*
X135464D01*
X134086Y119635D02*
X135319D01*
X133447Y126018D02*
X135303D01*
X133499Y125663D02*
X135303D01*
X133779Y125308D02*
X135303D01*
X133980Y124954D02*
X135303D01*
X134094Y124599D02*
X135303D01*
X134135Y124245D02*
X135303D01*
X134111Y123890D02*
X135303D01*
X134016Y123535D02*
X135303D01*
X133839Y123181D02*
X135303D01*
X133547Y122826D02*
X135303D01*
X133021Y122472D02*
X135303D01*
X119953Y122117D02*
X135303D01*
X119705Y121762D02*
X135303D01*
X119190Y121408D02*
X135303D01*
X132644Y121053D02*
X135303D01*
X133402Y120699D02*
X135303D01*
X133752Y120344D02*
X135303D01*
X133964Y119989D02*
X135303D01*
X133447Y126372D02*
X135039D01*
X133447Y126727D02*
X134684D01*
X133447Y127081D02*
X134329D01*
X133447Y127436D02*
X133975D01*
X133411Y127791D02*
X133620D01*
X123657Y116089D02*
X124238D01*
X116185Y121053D02*
X124009D01*
X120077Y122472D02*
X123632D01*
X119082Y117507D02*
X123558D01*
X117902Y112543D02*
X123490D01*
X108268Y107578D02*
X123429D01*
X121284Y110770D02*
X123349D01*
X116185Y120699D02*
X123251D01*
X122569Y125663D02*
X123142D01*
X120109Y122826D02*
X123106D01*
X122570Y117862D02*
X123069D01*
X117547Y112897D02*
X123035D01*
X122458Y125308D02*
X122874D01*
X116185Y120344D02*
X122826D01*
X120055Y123181D02*
X122814D01*
X117192Y113252D02*
X122771D01*
X122483Y124954D02*
X122673D01*
X120022Y123535D02*
X122637D01*
X116838Y113607D02*
X122598D01*
X122420Y124599D02*
X122559D01*
X121950Y123890D02*
X122542D01*
X122259Y124245D02*
X122517D01*
X108622Y107933D02*
X122441D01*
X121447Y110415D02*
X122050D01*
X116185Y116443D02*
X121918D01*
X116483Y113961D02*
X121598D01*
X116185Y116089D02*
X121443D01*
X116185Y114316D02*
X121289D01*
X116185Y115734D02*
X121208D01*
X116185Y114670D02*
X121129D01*
X116185Y115380D02*
X121092D01*
X116185Y115025D02*
X121067D01*
X108977Y108288D02*
X119944D01*
X118286Y135592D02*
X119200D01*
X118573Y135946D02*
X119150D01*
X115497Y135237D02*
X119088D01*
X115497Y134883D02*
X118764D01*
X115447Y134528D02*
X118712D01*
X115232Y134173D02*
X118712D01*
X115107Y133819D02*
X118712D01*
X116885Y133464D02*
X118712D01*
X117520Y133110D02*
X118712D01*
X117796Y132755D02*
X118712D01*
X117938Y132400D02*
X118582D01*
X109332Y108642D02*
X118514D01*
X116185Y119989D02*
X118400D01*
X117984Y132046D02*
X118228D01*
X116185Y124954D02*
X118128D01*
X116185Y124599D02*
X118128D01*
X116185Y124245D02*
X118128D01*
X116185Y125308D02*
X118117D01*
X109686Y108997D02*
X118062D01*
X116185Y121408D02*
X118060D01*
X117713Y127436D02*
X117881D01*
X116185Y125663D02*
X117831D01*
X116185Y127081D02*
X117787D01*
X116185Y126727D02*
X117787D01*
X116185Y126372D02*
X117787D01*
X116185Y126018D02*
X117787D01*
X110041Y109351D02*
X117707D01*
X116185Y123890D02*
X117639D01*
X116185Y121762D02*
X117545D01*
X110395Y109706D02*
X117353D01*
X116185Y123535D02*
X117347D01*
X116185Y122117D02*
X117297D01*
X116185Y117153D02*
X117232D01*
X116185Y123181D02*
X117195D01*
X116185Y122472D02*
X117173D01*
X116185Y122826D02*
X117141D01*
X116185Y119635D02*
X117037D01*
X110634Y110061D02*
X116998D01*
X116185Y117507D02*
X116800D01*
X116185Y119280D02*
X116706D01*
X110697Y110415D02*
X116643D01*
X116185Y117862D02*
X116581D01*
X116185Y118926D02*
X116532D01*
X116185Y118216D02*
X116476D01*
X116185Y118571D02*
X116461D01*
X110697Y110770D02*
X116289D01*
X115042Y133464D02*
X116115D01*
X110697Y111124D02*
X115934D01*
X110697Y111479D02*
X115580D01*
X114878Y133110D02*
X115480D01*
X110697Y111834D02*
X115225D01*
X114563Y132755D02*
X115204D01*
X110697Y132400D02*
X115061D01*
X110697Y112188D02*
X114870D01*
X110697Y132046D02*
X114694D01*
X110697Y112543D02*
X114516D01*
X110697Y131691D02*
X114340D01*
X110697Y112897D02*
X114161D01*
X110697Y131337D02*
X114014D01*
X110697Y113252D02*
X113906D01*
X110697Y113607D02*
X113801D01*
X113447Y127081D02*
X113791D01*
X110697Y126727D02*
X113791D01*
X110697Y126372D02*
X113791D01*
X110697Y126018D02*
X113791D01*
X110697Y125663D02*
X113791D01*
X110697Y125308D02*
X113791D01*
X110697Y124954D02*
X113791D01*
X110697Y124599D02*
X113791D01*
X110697Y124245D02*
X113791D01*
X110697Y123890D02*
X113791D01*
X110697Y123535D02*
X113791D01*
X110697Y123181D02*
X113791D01*
X110697Y122826D02*
X113791D01*
X110697Y122472D02*
X113791D01*
X110697Y122117D02*
X113791D01*
X110697Y121762D02*
X113791D01*
X110697Y121408D02*
X113791D01*
X110697Y121053D02*
X113791D01*
X110697Y120699D02*
X113791D01*
X110697Y120344D02*
X113791D01*
X110697Y119989D02*
X113791D01*
X110697Y119635D02*
X113791D01*
X110697Y119280D02*
X113791D01*
X110697Y118926D02*
X113791D01*
X110697Y118571D02*
X113791D01*
X110697Y118216D02*
X113791D01*
X110697Y117862D02*
X113791D01*
X110697Y117507D02*
X113791D01*
X110697Y117153D02*
X113791D01*
X110697Y116798D02*
X113791D01*
X110697Y116443D02*
X113791D01*
X110697Y116089D02*
X113791D01*
X110697Y115734D02*
X113791D01*
X110697Y115380D02*
X113791D01*
X110697Y115025D02*
X113791D01*
X110697Y114670D02*
X113791D01*
X110697Y114316D02*
X113791D01*
X110697Y113961D02*
X113791D01*
X110697Y130982D02*
X113642D01*
X113166Y135946D02*
X113603D01*
X112811Y135592D02*
X113603D01*
X110697Y130627D02*
X113276D01*
X112456Y135237D02*
X112969D01*
X110697Y130273D02*
X112921D01*
X110697Y127081D02*
X112803D01*
X110697Y132755D02*
X112687D01*
X110697Y129918D02*
X112596D01*
X112102Y134883D02*
X112507D01*
X110697Y133110D02*
X112372D01*
X111747Y134528D02*
X112277D01*
X110698Y133464D02*
X112208D01*
X111393Y134173D02*
X112165D01*
X111038Y133819D02*
X112143D01*
X110697Y127436D02*
X112122D01*
X110697Y129564D02*
X112059D01*
X110697Y127791D02*
X111838D01*
X110697Y129209D02*
X111805D01*
X110697Y128145D02*
X111691D01*
X110697Y128854D02*
X111676D01*
X110697Y128500D02*
X111641D01*
X101197Y102614D02*
X104963D01*
X101197Y102260D02*
X104963D01*
X101197Y101905D02*
X104963D01*
X101197Y101550D02*
X104963D01*
X163009Y127436D02*
X167899D01*
X163364Y127081D02*
X167899D01*
X163719Y126727D02*
X167899D01*
X164073Y126372D02*
X167899D01*
X164428Y126018D02*
X167899D01*
X164782Y125663D02*
X167899D01*
X165137Y125308D02*
X167899D01*
X165492Y124954D02*
X167899D01*
X165846Y124599D02*
X167899D01*
X166201Y124245D02*
X167899D01*
X166555Y123890D02*
X167899D01*
X166910Y123535D02*
X167899D01*
X167265Y123181D02*
X167899D01*
X167619Y122826D02*
X167899D01*
X162655Y127791D02*
X167642D01*
X162300Y128145D02*
X167287D01*
X161946Y128500D02*
X166933D01*
X161591Y128854D02*
X166578D01*
X144231Y129209D02*
X166223D01*
X164805Y129564D02*
X165869D01*
X165112Y129918D02*
X165514D01*
X143876Y129564D02*
X162895D01*
X143521Y129918D02*
X162588D01*
X143167Y130273D02*
X162428D01*
X142812Y130627D02*
X147182D01*
X142457Y130982D02*
X146729D01*
X142103Y131337D02*
X146374D01*
X141748Y131691D02*
X146020D01*
X141445Y132046D02*
X145665D01*
X141445Y132400D02*
X145310D01*
X141445Y132755D02*
X144956D01*
X141445Y133110D02*
X144601D01*
X141445Y133464D02*
X144247D01*
X141445Y133819D02*
X143892D01*
X141448Y134173D02*
X141584D01*
X163091Y176371D02*
X169669D01*
X162796Y176016D02*
X169669D01*
X153828Y175661D02*
X169669D01*
X153697Y175307D02*
X169669D01*
X153578Y174952D02*
X169669D01*
X153446Y174598D02*
X169669D01*
X153300Y174243D02*
X169669D01*
X153141Y173888D02*
X169669D01*
X152967Y173534D02*
X169669D01*
X152778Y173179D02*
X169669D01*
X152574Y172825D02*
X169669D01*
X152352Y172470D02*
X169669D01*
X152111Y172115D02*
X169669D01*
X151851Y171761D02*
X169669D01*
X151570Y171406D02*
X169669D01*
X151265Y171052D02*
X169669D01*
X150941Y170697D02*
X169669D01*
X151245Y170342D02*
X169669D01*
X151599Y169988D02*
X169669D01*
X151954Y169633D02*
X169669D01*
X152308Y169279D02*
X167947D01*
X152637Y168924D02*
X167899D01*
X152928Y168569D02*
X167899D01*
X153148Y168215D02*
X167899D01*
X153248Y167860D02*
X167899D01*
X153256Y167506D02*
X167899D01*
X153171Y167151D02*
X167899D01*
X152975Y166796D02*
X167899D01*
X152661Y166442D02*
X167899D01*
X152329Y166087D02*
X167899D01*
X151921Y165733D02*
X167899D01*
X145567Y165378D02*
X167899D01*
X145189Y165023D02*
X167899D01*
X144859Y164669D02*
X167899D01*
X146832Y164314D02*
X167899D01*
X147187Y163960D02*
X167899D01*
X147489Y163605D02*
X167899D01*
X147492Y163250D02*
X167899D01*
X147492Y162896D02*
X167899D01*
X147492Y162541D02*
X167899D01*
X147452Y162187D02*
X167899D01*
X147100Y161832D02*
X167899D01*
X146745Y161477D02*
X167899D01*
X143358Y161123D02*
X167899D01*
X142182Y160768D02*
X167899D01*
X149117Y160414D02*
X167899D01*
X149333Y160059D02*
X167899D01*
X149353Y159704D02*
X167899D01*
X157654Y159350D02*
X167899D01*
X157753Y158995D02*
X167899D01*
X157753Y158641D02*
X167899D01*
X157753Y158286D02*
X167899D01*
X157753Y157931D02*
X167899D01*
X157713Y157577D02*
X167899D01*
X157433Y157222D02*
X167899D01*
X157413Y156868D02*
X167899D01*
X157463Y156513D02*
X167899D01*
X157702Y156158D02*
X167899D01*
X157729Y155804D02*
X167899D01*
X157729Y155449D02*
X167899D01*
X157729Y155095D02*
X167899D01*
X157729Y154740D02*
X167899D01*
X157729Y154385D02*
X167899D01*
X157729Y154031D02*
X167899D01*
X157729Y153676D02*
X167899D01*
X157729Y153322D02*
X167899D01*
X157729Y152967D02*
X167899D01*
X157747Y152612D02*
X167899D01*
X157747Y152258D02*
X167899D01*
X157747Y151903D02*
X167899D01*
X157747Y151549D02*
X167899D01*
X158194Y151194D02*
X167899D01*
X158550Y150839D02*
X167899D01*
X158904Y150485D02*
X167899D01*
X159259Y150130D02*
X167899D01*
X159623Y149776D02*
X167899D01*
X163375Y149421D02*
X167899D01*
X163609Y149066D02*
X167899D01*
X163634Y148712D02*
X167899D01*
X163634Y148357D02*
X167899D01*
X163634Y148003D02*
X167899D01*
X163634Y147648D02*
X167899D01*
X163634Y147294D02*
X167899D01*
X163634Y146939D02*
X167899D01*
X163634Y146584D02*
X167899D01*
X163634Y146230D02*
X167899D01*
X163634Y145875D02*
X167899D01*
X163634Y145521D02*
X167899D01*
X163634Y145166D02*
X167899D01*
X163634Y144811D02*
X167899D01*
X163628Y144457D02*
X167899D01*
X163473Y144102D02*
X167899D01*
X160931Y143748D02*
X167899D01*
X160931Y143393D02*
X167899D01*
X161179Y143038D02*
X167899D01*
X161272Y142684D02*
X167899D01*
X161272Y142329D02*
X167899D01*
X161272Y141975D02*
X167899D01*
X161272Y141620D02*
X167899D01*
X161228Y141265D02*
X167899D01*
X160932Y140911D02*
X167899D01*
X150988Y140556D02*
X167899D01*
X150988Y140202D02*
X167899D01*
X150988Y139847D02*
X167899D01*
X152384Y139492D02*
X167899D01*
X152726Y139138D02*
X167899D01*
X152904Y138783D02*
X167899D01*
X152979Y138429D02*
X167899D01*
X152967Y138074D02*
X167899D01*
X152866Y137719D02*
X167899D01*
X152653Y137365D02*
X167899D01*
X152235Y137010D02*
X167899D01*
X146664Y136656D02*
X167899D01*
X147018Y136301D02*
X167899D01*
X147373Y135946D02*
X167899D01*
X147728Y135592D02*
X167899D01*
X148082Y135237D02*
X167899D01*
X148437Y134883D02*
X167899D01*
X148791Y134528D02*
X167899D01*
X165717Y134173D02*
X167899D01*
X166072Y133819D02*
X167899D01*
X166426Y133464D02*
X167899D01*
X166781Y133110D02*
X167899D01*
X167135Y132755D02*
X167899D01*
X167490Y132400D02*
X167899D01*
X150647Y143748D02*
X159037D01*
X150647Y143393D02*
X159037D01*
X150901Y140911D02*
X159037D01*
X154022Y176016D02*
X158816D01*
X150647Y143038D02*
X158790D01*
X150647Y141265D02*
X158741D01*
X150647Y142684D02*
X158697D01*
X150647Y142329D02*
X158697D01*
X150647Y141975D02*
X158697D01*
X150647Y141620D02*
X158697D01*
X154141Y176371D02*
X158522D01*
X150647Y144102D02*
X158465D01*
X150589Y144457D02*
X158309D01*
X149509Y148003D02*
X158303D01*
X149538Y147648D02*
X158303D01*
X149538Y147294D02*
X158303D01*
X149538Y146939D02*
X158303D01*
X149536Y146584D02*
X158303D01*
X149415Y146230D02*
X158303D01*
X149294Y145875D02*
X158303D01*
X149649Y145521D02*
X158303D01*
X150003Y145166D02*
X158303D01*
X150358Y144811D02*
X158303D01*
X149496Y148357D02*
X158303D01*
X149538Y148712D02*
X157999D01*
X149538Y149066D02*
X157644D01*
X149538Y149421D02*
X157290D01*
X149363Y156868D02*
X155519D01*
X149353Y157222D02*
X155499D01*
X149353Y159350D02*
X155278D01*
X149340Y157577D02*
X155218D01*
X149353Y158995D02*
X155178D01*
X149350Y158641D02*
X155178D01*
X149263Y158286D02*
X155178D01*
X149263Y157931D02*
X155178D01*
X149353Y156513D02*
X152663D01*
X149346Y156158D02*
X152425D01*
X149184Y155804D02*
X152398D01*
X147681Y155449D02*
X152398D01*
X147003Y155095D02*
X152398D01*
X146191Y154740D02*
X152398D01*
X151199Y154385D02*
X152394D01*
X149538Y149776D02*
X151990D01*
X149440Y150130D02*
X151630D01*
X147875Y150485D02*
X151276D01*
X147456Y150839D02*
X150921D01*
X145956Y165733D02*
X150101D01*
X146334Y166087D02*
X149694D01*
X146688Y166442D02*
X149355D01*
X147043Y166796D02*
X149001D01*
X148516Y143038D02*
X148753D01*
X148318Y142684D02*
X148753D01*
X148448Y142329D02*
X148753D01*
X148484Y141975D02*
X148753D01*
X148435Y141620D02*
X148753D01*
X148290Y141265D02*
X148753D01*
X147397Y167151D02*
X148646D01*
X146584Y137010D02*
X148549D01*
X148170Y140911D02*
X148499D01*
X148208Y139138D02*
X148461D01*
X147896Y138783D02*
X148435D01*
X146582Y137365D02*
X148415D01*
X148257Y140556D02*
X148412D01*
X148257Y140202D02*
X148412D01*
X148257Y139847D02*
X148412D01*
X148257Y139492D02*
X148412D01*
X145843Y138429D02*
X148412D01*
X146198Y138074D02*
X148412D01*
X146484Y137719D02*
X148412D01*
X147750Y167506D02*
X148291D01*
X142182Y160414D02*
X147015D01*
X146330Y154385D02*
X146901D01*
X141744Y158286D02*
X146869D01*
X142165Y160059D02*
X146799D01*
X141973Y158641D02*
X146782D01*
X142165Y159704D02*
X146778D01*
X142161Y159350D02*
X146778D01*
X142105Y158995D02*
X146778D01*
X145513Y138783D02*
X146042D01*
X145519Y139138D02*
X145726D01*
X143713Y161477D02*
X144914D01*
X144560Y164314D02*
X144838D01*
X142303Y161123D02*
X142538D01*
X141355Y157931D02*
X141997D01*
X138275Y156513D02*
X141727D01*
X139339Y157577D02*
X141712D01*
X138630Y156868D02*
X141602D01*
X138984Y157222D02*
X141598D01*
X137921Y156158D02*
X141497D01*
X137566Y155804D02*
X141143D01*
X137211Y155449D02*
X140788D01*
X136857Y155095D02*
X140433D01*
X136501Y154740D02*
X139184D01*
X122205Y154385D02*
X138808D01*
X122205Y154031D02*
X138614D01*
X122205Y153322D02*
X138526D01*
X122205Y153676D02*
X138526D01*
X122205Y152967D02*
X138306D01*
X122205Y152612D02*
X137969D01*
X122205Y152258D02*
X137952D01*
X122205Y151903D02*
X137952D01*
X122205Y151549D02*
X137952D01*
X122205Y151194D02*
X137952D01*
X122205Y150839D02*
X137952D01*
X122205Y150485D02*
X137952D01*
X122205Y150130D02*
X137952D01*
X122205Y149776D02*
X137952D01*
X122205Y149421D02*
X137952D01*
X122205Y149066D02*
X137952D01*
X122205Y148712D02*
X137952D01*
X122205Y148357D02*
X137952D01*
X122205Y148003D02*
X137952D01*
X122205Y147648D02*
X137952D01*
X122205Y147294D02*
X137952D01*
X122205Y146939D02*
X137952D01*
X122205Y146584D02*
X137952D01*
X122205Y146230D02*
X137952D01*
X122205Y145875D02*
X137952D01*
X122205Y145521D02*
X137952D01*
X122205Y145166D02*
X137952D01*
X122205Y144811D02*
X137952D01*
X122205Y144457D02*
X137952D01*
X122205Y144102D02*
X137952D01*
X122205Y143748D02*
X137952D01*
X122205Y143393D02*
X137952D01*
X122205Y143038D02*
X137952D01*
X122205Y142684D02*
X137952D01*
X122205Y142329D02*
X137952D01*
X122205Y141975D02*
X137952D01*
X122205Y141620D02*
X137952D01*
X122205Y141265D02*
X137952D01*
X122205Y140911D02*
X137952D01*
X122205Y140556D02*
X137952D01*
X122205Y140202D02*
X137952D01*
X122205Y139847D02*
X137952D01*
X122205Y139492D02*
X137952D01*
X122205Y139138D02*
X137952D01*
X101197Y176371D02*
X149737D01*
X101197Y176016D02*
X149604D01*
X101197Y175661D02*
X149450D01*
X101197Y175307D02*
X149275D01*
X101197Y174952D02*
X149076D01*
X101197Y174598D02*
X148850D01*
X101197Y174243D02*
X148596D01*
X101197Y173888D02*
X148308D01*
X101197Y173534D02*
X147983D01*
X101197Y173179D02*
X147629D01*
X101197Y172825D02*
X147274D01*
X101197Y172470D02*
X146920D01*
X101197Y172115D02*
X146565D01*
X101197Y171761D02*
X146210D01*
X132269Y171406D02*
X145856D01*
X132634Y171052D02*
X145501D01*
X132989Y170697D02*
X145147D01*
X133343Y170342D02*
X144792D01*
X133698Y169988D02*
X144444D01*
X137104Y169633D02*
X144090D01*
X137459Y169279D02*
X143735D01*
X137814Y168924D02*
X143381D01*
X138168Y168569D02*
X143057D01*
X138523Y168215D02*
X142728D01*
X138877Y167860D02*
X142406D01*
X139225Y167506D02*
X142017D01*
X139255Y167151D02*
X141607D01*
X139255Y166796D02*
X141252D01*
X139068Y166442D02*
X140898D01*
X138714Y166087D02*
X140543D01*
X138359Y165733D02*
X140189D01*
X138308Y165378D02*
X139857D01*
X138662Y165023D02*
X139563D01*
X138962Y164669D02*
X139323D01*
X134053Y169633D02*
X135755D01*
X134395Y169279D02*
X135400D01*
X134563Y168924D02*
X135045D01*
X101197Y171406D02*
X106177D01*
X101197Y171052D02*
X105812D01*
X101197Y170697D02*
X105457D01*
X101197Y170342D02*
X105103D01*
X101197Y169988D02*
X104748D01*
X101197Y169633D02*
X104393D01*
X102912Y169279D02*
X104039D01*
X102967Y168924D02*
X103684D01*
X102967Y168569D02*
X103330D01*
X111925Y141265D02*
X113276D01*
X111570Y140911D02*
X112921D01*
X111215Y140556D02*
X112567D01*
X110861Y140202D02*
X112212D01*
X110506Y139847D02*
X111858D01*
X110152Y139492D02*
X111541D01*
X109797Y139138D02*
X111413D01*
X109697Y138783D02*
X111403D01*
X109697Y138429D02*
X111403D01*
X109697Y138074D02*
X111185D01*
X109697Y137719D02*
X110830D01*
X109667Y137365D02*
X110475D01*
X109491Y137010D02*
X110121D01*
X109145Y136656D02*
X109766D01*
X108790Y136301D02*
X109412D01*
X108436Y135946D02*
X109057D01*
X108081Y135592D02*
X108702D01*
X107726Y135237D02*
X108348D01*
X107397Y134883D02*
X108003D01*
X107397Y134528D02*
X107831D01*
X107397Y134173D02*
X107803D01*
X107397Y133819D02*
X107803D01*
X107397Y133464D02*
X107803D01*
X107397Y133110D02*
X107803D01*
X107397Y132755D02*
X107803D01*
X107397Y132400D02*
X107803D01*
X107397Y132046D02*
X107803D01*
X107397Y131691D02*
X107803D01*
X107397Y131337D02*
X107803D01*
X107397Y130982D02*
X107803D01*
X107397Y130627D02*
X107803D01*
X107397Y130273D02*
X107803D01*
X107397Y129918D02*
X107803D01*
X107397Y129564D02*
X107803D01*
X107397Y129209D02*
X107803D01*
X107397Y128854D02*
X107803D01*
X107397Y128500D02*
X107803D01*
X107397Y128145D02*
X107803D01*
X107397Y127791D02*
X107803D01*
X107397Y127436D02*
X107803D01*
X107356Y127081D02*
X107803D01*
X107158Y126727D02*
X107803D01*
X106806Y126372D02*
X107803D01*
X106451Y126018D02*
X107803D01*
X106097Y125663D02*
X107803D01*
X105742Y125308D02*
X107803D01*
X105388Y124954D02*
X107803D01*
X105033Y124599D02*
X107803D01*
X104678Y124245D02*
X107803D01*
X104324Y123890D02*
X107803D01*
X103969Y123535D02*
X107803D01*
X103615Y123181D02*
X107803D01*
X103260Y122826D02*
X107803D01*
X102967Y122472D02*
X107803D01*
X102967Y122117D02*
X107803D01*
X102967Y121762D02*
X107803D01*
X102967Y121408D02*
X107803D01*
X102967Y121053D02*
X107803D01*
X102967Y120699D02*
X107803D01*
X102967Y120344D02*
X107803D01*
X102967Y119989D02*
X107803D01*
X102967Y119635D02*
X107803D01*
X102967Y119280D02*
X107803D01*
X102967Y118926D02*
X107803D01*
X102967Y118571D02*
X107803D01*
X102967Y118216D02*
X107803D01*
X102967Y117862D02*
X107803D01*
X102967Y117507D02*
X107803D01*
X102967Y117153D02*
X107803D01*
X102967Y116798D02*
X107803D01*
X102967Y116443D02*
X107803D01*
X102967Y116089D02*
X107803D01*
X102967Y115734D02*
X107803D01*
X102967Y115380D02*
X107803D01*
X102967Y115025D02*
X107803D01*
X102967Y114670D02*
X107803D01*
X102967Y114316D02*
X107803D01*
X102967Y113961D02*
X107803D01*
X102967Y113607D02*
X107803D01*
X102967Y113252D02*
X107803D01*
X102967Y112897D02*
X107803D01*
X102967Y112543D02*
X107803D01*
X102967Y112188D02*
X107803D01*
X102967Y111834D02*
X107803D01*
X102967Y111479D02*
X107803D01*
X102967Y111124D02*
X107635D01*
X102967Y110770D02*
X107281D01*
X102967Y110415D02*
X106926D01*
X102967Y110061D02*
X106571D01*
X102995Y109706D02*
X106215D01*
X108794Y145521D02*
X113983D01*
X108438Y145166D02*
X113679D01*
X108084Y144811D02*
X113322D01*
X107729Y144457D02*
X112967D01*
X107374Y144102D02*
X110664D01*
X107020Y143748D02*
X110308D01*
X106665Y143393D02*
X109954D01*
X106311Y143038D02*
X109599D01*
X105956Y142684D02*
X109244D01*
X105697Y142329D02*
X108890D01*
X105697Y141975D02*
X108535D01*
X105697Y141620D02*
X108181D01*
X105697Y141265D02*
X107826D01*
X105697Y140911D02*
X107471D01*
X105697Y140556D02*
X107117D01*
X105697Y140202D02*
X106871D01*
X105697Y139847D02*
X106803D01*
X105697Y139492D02*
X106803D01*
X105697Y139138D02*
X106803D01*
X105642Y138783D02*
X106803D01*
X105418Y138429D02*
X106739D01*
X105063Y138074D02*
X106385D01*
X104709Y137719D02*
X106030D01*
X104354Y137365D02*
X105675D01*
X104003Y137010D02*
X105321D01*
X103997Y136656D02*
X104966D01*
X103997Y136301D02*
X104630D01*
X103997Y135946D02*
X104474D01*
X103997Y135592D02*
X104453D01*
X103997Y135237D02*
X104453D01*
X103997Y134883D02*
X104453D01*
X103997Y134528D02*
X104453D01*
X103997Y134173D02*
X104453D01*
X103987Y133819D02*
X104453D01*
X103860Y133464D02*
X104453D01*
X103543Y133110D02*
X104453D01*
X103189Y132755D02*
X104453D01*
X102967Y132400D02*
X104453D01*
X102967Y132046D02*
X104453D01*
X102967Y131691D02*
X104453D01*
X102967Y131337D02*
X104453D01*
X102967Y130982D02*
X104453D01*
X102967Y130627D02*
X104453D01*
X102967Y130273D02*
X104453D01*
X102967Y129918D02*
X104453D01*
X102967Y129564D02*
X104453D01*
X102967Y129209D02*
X104453D01*
X102967Y128854D02*
X104453D01*
X102967Y128500D02*
X104380D01*
X102967Y128145D02*
X104025D01*
X102967Y127791D02*
X103671D01*
X102967Y127436D02*
X103316D01*
X111786Y152258D02*
X112768D01*
X111003Y151903D02*
X112237D01*
X104697Y151549D02*
X111985D01*
X104697Y151194D02*
X111858D01*
X104697Y150839D02*
X111824D01*
X104697Y150485D02*
X111737D01*
X104697Y150130D02*
X111524D01*
X104697Y148712D02*
X111509D01*
X104697Y149776D02*
X111505D01*
X104697Y149421D02*
X111505D01*
X104697Y149066D02*
X111505D01*
X108489Y155449D02*
X111054D01*
X108134Y155095D02*
X110965D01*
X104943Y151903D02*
X110614D01*
X108843Y155804D02*
X110530D01*
X109198Y156158D02*
X110258D01*
X107779Y154740D02*
X110225D01*
X109552Y156513D02*
X110118D01*
X109907Y156868D02*
X110074D01*
X105297Y152258D02*
X109830D01*
X107425Y154385D02*
X109721D01*
X105652Y152612D02*
X109534D01*
X107070Y154031D02*
X109476D01*
X106006Y152967D02*
X109381D01*
X106716Y153676D02*
X109354D01*
X106361Y153322D02*
X109325D01*
X104697Y148357D02*
X107629D01*
X104697Y148003D02*
X107170D01*
X104697Y147648D02*
X106816D01*
X104697Y147294D02*
X106461D01*
X104633Y146939D02*
X106107D01*
X104393Y146584D02*
X105752D01*
X104038Y146230D02*
X105397D01*
X103684Y145875D02*
X105043D01*
X103329Y145521D02*
X104688D01*
X102974Y145166D02*
X104334D01*
X102967Y144811D02*
X103979D01*
X102967Y144457D02*
X103624D01*
X102967Y144102D02*
X103270D01*
X135693Y162896D02*
X136018D01*
X135339Y163250D02*
X135808D01*
X134984Y163605D02*
X135453D01*
X134627Y163960D02*
X135099D01*
X133835Y164314D02*
X134744D01*
X133237Y164669D02*
X134389D01*
X127624Y165023D02*
X134035D01*
X127269Y165378D02*
X133680D01*
X126915Y165733D02*
X133326D01*
X126557Y166087D02*
X132971D01*
X107244Y166442D02*
X132684D01*
X127979Y164669D02*
X132363D01*
X107598Y166796D02*
X132156D01*
X128333Y164314D02*
X131765D01*
X113936Y167151D02*
X131733D01*
X128688Y163960D02*
X131496D01*
X130080Y162541D02*
X131496D01*
X114452Y167506D02*
X131379D01*
X129042Y163605D02*
X131359D01*
X129752Y162896D02*
X131358D01*
X129397Y163250D02*
X131315D01*
X114807Y167860D02*
X131024D01*
X115161Y168215D02*
X130669D01*
X106889Y166087D02*
X115782D01*
X106534Y165733D02*
X115425D01*
X106180Y165378D02*
X115070D01*
X105825Y165023D02*
X114716D01*
X105471Y164669D02*
X114361D01*
X105116Y164314D02*
X114006D01*
X104761Y163960D02*
X113652D01*
X104394Y163605D02*
X113297D01*
X102967Y163250D02*
X112943D01*
X102967Y162896D02*
X108453D01*
X102967Y162541D02*
X107752D01*
X102967Y162187D02*
X106926D01*
X102967Y159350D02*
X106727D01*
X102967Y158995D02*
X106406D01*
X102967Y161832D02*
X106284D01*
X102967Y159704D02*
X106246D01*
X102967Y158641D02*
X106051D01*
X102967Y161477D02*
X106006D01*
X102967Y160059D02*
X105986D01*
X102967Y161123D02*
X105863D01*
X102967Y160414D02*
X105854D01*
X102967Y160768D02*
X105816D01*
X102967Y158286D02*
X105697D01*
X102967Y157931D02*
X105342D01*
X102967Y157577D02*
X104988D01*
X102967Y157222D02*
X104633D01*
X102987Y156868D02*
X104278D01*
G54D192*
X140315Y160307D03*
G54D193*
X138740D03*
X137165D03*
X135590D03*
X134015D03*
X132441D03*
X130866D03*
X129291D03*
X127716D03*
X126141D03*
X124567D03*
X122992D03*
X121417D03*
X119842D03*
Y133339D03*
X121417D03*
X122992D03*
X124567D03*
X126141D03*
X127716D03*
X129291D03*
X130866D03*
X132441D03*
X134015D03*
X135590D03*
X137165D03*
X138740D03*
X140315D03*
G54D194*
X116594Y157059D03*
Y155485D03*
Y153910D03*
Y152335D03*
Y150760D03*
Y149185D03*
Y147611D03*
Y146036D03*
Y144461D03*
Y142886D03*
Y141311D03*
Y139737D03*
Y138162D03*
Y136587D03*
X143563D03*
Y138162D03*
Y139737D03*
Y141311D03*
Y142886D03*
Y144461D03*
Y146036D03*
Y147611D03*
Y149185D03*
Y150760D03*
Y152335D03*
Y153910D03*
Y155485D03*
G54D195*
Y157059D03*
G74*
X0Y0D02*
M02*
