*
*
G04 PADS VX.2 Build Number: 5060570 generated Gerber (RS-274-X) file*
G04 PC Version=2.1*
*
%IN "PCB_ESP32-S3-WROOM-1_V1"*%
*
%MOIN*%
*
%FSLAX35Y35*%
*
*
*
*
G04 PC Standard Apertures*
*
*
G04 Thermal Relief Aperture macro.*
%AMTER*
1,1,$1,0,0*
1,0,$1-$2,0,0*
21,0,$3,$4,0,0,45*
21,0,$3,$4,0,0,135*
%
*
*
G04 Annular Aperture macro.*
%AMANN*
1,1,$1,0,0*
1,0,$2,0,0*
%
*
*
G04 Odd Aperture macro.*
%AMODD*
1,1,$1,0,0*
1,0,$1-0.005,0,0*
%
*
*
G04 PC Custom Aperture Macros*
*
*
*
*
*
*
G04 PC Aperture Table*
*
%ADD010C,0.001*%
%ADD030C,0.01*%
%ADD037C,0.005*%
%ADD101R,0.03543X0.03543*%
%ADD183C,0.01575*%
*
*
*
*
G04 PC Circuitry*
G04 Layer Name PCB_ESP32-S3-WROOM-1_V1 - circuitry*
%LPD*%
*
*
G04 PC Custom Flashes*
G04 Layer Name PCB_ESP32-S3-WROOM-1_V1 - flashes*
%LPD*%
*
*
G04 PC Circuitry*
G04 Layer Name PCB_ESP32-S3-WROOM-1_V1 - circuitry*
%LPD*%
*
G54D10*
G54D30*
G01X100000Y200394D02*
X170866D01*
Y100000*
X100000*
Y200394*
G54D37*
X118921Y149238D02*
G75*
G03X119029Y149781I-351J352D01*
G01X119464Y149346D02*
G03X118921Y149238I-191J-459D01*
G01X119178Y149495*
X109250Y116924D02*
Y139226D01*
X110924Y140900*
X112961*
X118750Y146689*
Y149067*
X119558Y149875*
X141131Y101802D02*
G03X142668Y101498I995J996D01*
G01X141435Y100265D02*
G03X141131Y101802I-1299J542D01*
X142213Y101341I1115J1116*
G01X141131Y101802D02*
G03X141959Y101169I2776J2777D01*
G01X141764Y100974D02*
G03X141131Y101802I-3410J-1948D01*
G01X141593Y100720D02*
G03X141131Y101802I-1578J-33D01*
G01X109250Y116924D02*
X119519Y106656D01*
X130000*
X133000Y103656*
X139278*
X142933Y100000*
X117304Y119094D02*
G03X117847Y118986I352J351D01*
G01X117412Y118551D02*
G03X117304Y119094I-459J191D01*
G01X117561Y118837*
X115456Y125834D02*
Y120942D01*
X117941Y118457*
X125539Y129117D02*
G03X126347Y128817I730J730D01*
G01X125838Y128309D02*
G03X125539Y129117I-1029J78D01*
G01X125995Y128661*
X115456Y125834D02*
X119902Y130281D01*
X124375*
X126375Y128281*
X112443Y133906D02*
G03X113226Y134265I-0J1032D01*
G01Y133546D02*
G03X112443Y133906I-783J-673D01*
G01X113088*
X110250Y117406D02*
Y132281D01*
X111875Y133906*
X113625*
X146313Y101968D02*
G03X148298Y101477I1398J1398D01*
G01X146526Y100578D02*
G03X146313Y101968I-1052J550D01*
X147441Y101440I1291J1291*
G01X146313Y101968D02*
G03X147143Y101301I3465J3465D01*
G01X146919Y101135D02*
G03X146313Y101968I-2950J-1512D01*
G01X146722Y100921D02*
G03X146313Y101968I-1399J57D01*
G01X110250Y117406D02*
X120000Y107656D01*
X130625*
X133625Y104656*
X140000*
X141625Y103031*
X145250*
X147933Y100347*
Y100000*
X118921Y153613D02*
G03X119029Y154156I-351J352D01*
G01X119464Y153721D02*
G03X118921Y153613I-191J-459D01*
G01X119178Y153870*
X107250Y116096D02*
Y140055D01*
X110095Y142900*
X112132*
X116750Y147518*
Y151442*
X119558Y154250*
X131131Y101802D02*
G03X132668Y101498I995J996D01*
G01X131435Y100265D02*
G03X131131Y101802I-1299J542D01*
X132213Y101341I1115J1116*
G01X131131Y101802D02*
G03X131959Y101169I2776J2777D01*
G01X131764Y100974D02*
G03X131131Y101802I-3410J-1948D01*
G01X131593Y100720D02*
G03X131131Y101802I-1578J-33D01*
G01X107250Y116096D02*
X118690Y104656D01*
X128278*
X132933Y100000*
X110249Y153375D02*
G03X110279Y153468I0J51D01*
G01Y153282D02*
G03X110249Y153375I-30J42D01*
G01X106250Y115682D02*
Y140689D01*
X107250Y141689*
Y150376*
X110249Y153375*
X110808*
X127933Y102496D02*
G03X128791Y101257I1323J-0D01*
G01X127076D02*
G03X127933Y102496I-466J1239D01*
X128363Y101460I1462J-0*
G01X127933Y102496D02*
G03X128069Y101516I3606J-0D01*
G01X127797D02*
G03X127933Y102496I-3470J980D01*
G01X127503Y101460D02*
G03X127933Y102496I-1032J1036D01*
G01X106250Y115682D02*
X118276Y103656D01*
X126773*
X127933Y102496*
Y100000*
X111534Y154916D02*
G03X112046Y155248I-0J561D01*
G01X111958Y154623D02*
G03X111534Y154916I-424J-162D01*
G01X111897*
X105250Y115267D02*
Y141136D01*
X106250Y142136*
Y150991*
X110174Y154916*
X112433*
Y154875*
X121131Y101802D02*
G03X122668Y101498I995J996D01*
G01X121435Y100265D02*
G03X121131Y101802I-1299J542D01*
X122213Y101341I1115J1116*
G01X121131Y101802D02*
G03X121959Y101169I2776J2777D01*
G01X121764Y100974D02*
G03X121131Y101802I-3410J-1948D01*
G01X121593Y100720D02*
G03X121131Y101802I-1578J-33D01*
G01X105250Y115267D02*
X117932Y102586D01*
X120348*
X122933Y100000*
X110720Y156875D02*
G03X111106Y157165I-0J402D01*
G01Y156585D02*
G03X110720Y156875I-386J-112D01*
G01X111021*
X104250Y114467D02*
Y141583D01*
X105250Y142583*
Y151405*
X110720Y156875*
X111558*
X116504Y101429D02*
G03X117449Y101443I466J465D01*
G01X116490Y100484D02*
G03X116504Y101429I-451J479D01*
X117065Y101249I454J454*
G01X116504Y101429D02*
X116857Y101076D01*
X116684Y100869D02*
G03X116504Y101429I-633J106D01*
G01X104250Y114467D02*
X116504Y102212D01*
Y101429*
X117933Y100000*
X119000Y152125D02*
G03X119194Y152347I0J196D01*
G01Y151903D02*
G03X119000Y152125I-194J26D01*
G01X119146*
X108250Y116510D02*
Y139640D01*
X110510Y141900*
X112547*
X117750Y147103*
Y150875*
X119000Y152125*
X119683*
X136245Y101910D02*
G03X138035Y101518I1201J1201D01*
G01X136497Y100504D02*
G03X136245Y101910I-1135J522D01*
X137374Y101415I1198J1198*
G01X136245Y101910D02*
G03X137087Y101265I2858J2858D01*
G01X136871Y101090D02*
G03X136245Y101910I-3361J-1915D01*
G01X136682Y100866D02*
G03X136245Y101910I-1490J-10D01*
G01X108250Y116510D02*
X119105Y105656D01*
X129139*
X132209Y102586*
X135570*
X137933Y100222*
Y100000*
X113485Y128131D02*
G03X113125Y127348I672J-783D01*
X112765Y128131I-1032J0*
G01X113125Y127348D02*
Y127993D01*
X147600Y114866D02*
G03X148059Y115173I-0J497D01*
G01Y114558D02*
G03X147600Y114866I-459J-190D01*
G01X147963*
X113125Y128531D02*
Y119009D01*
X121410Y110724*
X126774*
X130916Y114866*
X148500*
X116594Y132560D02*
G03X117137Y132667I191J459D01*
X117029Y132124I351J-351*
G01X117137Y132667D02*
X116880Y132411D01*
X129500Y128181D02*
G03X129808Y127721I497J-0D01*
G01X129192D02*
G03X129500Y128181I-189J460D01*
G01Y127818*
X116500Y132031D02*
X118119Y133650D01*
X126704*
X129500Y130854*
Y127281*
X121505Y125216D02*
G03X121753Y124537I856J-71D01*
X121257Y124559I-259J-259*
G01X121753Y124537D02*
G03X121464Y124759I-983J-983D01*
G01X146643Y119666D02*
G03X147103Y119974I-0J497D01*
G01Y119358D02*
G03X146643Y119666I-460J-190D01*
G01X147006*
X121000Y125031D02*
X121260D01*
X126625Y119666*
X147543*
X119037Y122436D02*
G03X118961Y121945I140J-273D01*
X118345Y122322I-1101J-1108*
G01X118800Y122272D02*
G03X118961Y121945I555J70D01*
G01X122550Y116000D02*
G03X122858Y115541I497J0D01*
G01X122242D02*
G03X122550Y116000I-189J459D01*
G01Y115637*
X118625Y122781D02*
Y122279D01*
X122550Y118378*
Y115100*
X123904Y127062D02*
G03X124012Y126519I459J-192D01*
X123469Y126626I-352J-352*
G01X124012Y126519D02*
X123755Y126775D01*
X160430Y110836D02*
G03X160738Y110376I497J-0D01*
G01X160122D02*
G03X160430Y110836I-189J460D01*
G01Y110473*
X123375Y127156D02*
X127512Y123019D01*
X148750*
X160430Y111339*
Y109936*
X100407Y117372D02*
G03X101864Y117644I530J1199D01*
X101519Y115997I1087J-1087*
G01X100804Y117197D02*
G03X101864Y117644I-19J1526D01*
G01X101040Y117016D02*
G03X101864Y117644I-1925J3376D01*
X101225Y116809I2817J-2817*
G01X101864Y117644D02*
G03X101385Y116537I1159J-1159D01*
G01X120546Y158262D02*
G03X121089Y158154I352J351D01*
G01X120654Y157719D02*
G03X120546Y158262I-459J191D01*
G01X120803Y158005*
X100000Y115906D02*
X100125D01*
X103250Y119030*
Y142023*
X104250Y143023*
Y151820*
X110846Y158416*
X120393*
X121183Y157625*
X141599Y108653D02*
G03X142125Y108750I193J430D01*
X142028Y108224I333J-333*
G01X142125Y108750D02*
X141880Y108505D01*
X156229Y101896D02*
G03X157963Y101521I1157J1157D01*
G01X156487Y100475D02*
G03X156229Y101896I-1154J524D01*
X157351Y101406I1185J1185*
G01X156229Y101896D02*
G03X157069Y101253I2845J2844D01*
G01X156856Y101075D02*
G03X156229Y101896I-3365J-1918D01*
G01X156669Y100847D02*
G03X156229Y101896I-1501J-12D01*
G01X141500Y108125D02*
X142125Y108750D01*
X149375*
X157933Y100192*
Y100000*
X143924Y107633D02*
G03X144250Y107625I167J151D01*
X144258Y107299I159J-159*
G01X144250Y107625D02*
X144130Y107505D01*
X152933Y102549D02*
G03X153805Y101247I1408J-0D01*
G01X152061D02*
G03X152933Y102549I-535J1302D01*
X153372Y101457I1578J-0*
G01X152933Y102549D02*
G03X153072Y101515I3927J-0D01*
G01X152795D02*
G03X152933Y102549I-3789J1034D01*
G01X152494Y101457D02*
G03X152933Y102549I-1139J1092D01*
G01X143750Y107125D02*
X144250Y107625D01*
X148683*
X152933Y103375*
Y100000*
X130512Y156705D02*
G03X130435Y156215I141J-273D01*
X129819Y156592I-1091J-1092*
G01X130275Y156542D02*
G03X130435Y156215I559J71D01*
G01X168461Y161750D02*
G03X170413Y162358I0J3437D01*
G01X169363Y160671D02*
G03X168461Y161750I-902J163D01*
X169700Y161883I0J5843*
G01X169517Y161610D02*
G03X168461Y161750I-1056J-3898D01*
G01X169411Y161352D02*
G03X168461Y161750I-950J-934D01*
G01X169353Y161066D02*
G03X168461Y161750I-892J-239D01*
G01X130100Y157050D02*
Y156550D01*
X132350Y154300*
X135700*
X137650Y156250*
X142546*
X145662Y159362*
X149762*
X152150Y161750*
X170022*
X170866Y160906*
X132676Y156723D02*
G03X132621Y156229I169J-269D01*
X131989Y156580I-929J-928*
G01X132446Y156550D02*
G03X132621Y156229I630J135D01*
G01X169064Y164103D02*
G03X169368Y165640I-995J996D01*
G01X170601Y164407D02*
G03X169064Y164103I-542J-1299D01*
X169526Y165185I-1116J1116*
G01X169064Y164103D02*
G03X169697Y164932I-2777J2777D01*
G01X169893Y164736D02*
G03X169064Y164103I1947J-3409D01*
G01X170146Y164565D02*
G03X169064Y164103I33J-1577D01*
G01X132250Y157050D02*
Y156600D01*
X133550Y155300*
X135150*
X137100Y157250*
X141910*
X145138Y160473*
X149423*
X151700Y162750*
X167711*
X170866Y165906*
X100531Y142332D02*
G03X101923Y142578I519J1119D01*
X101510Y140714I1256J-1256*
G01X100883Y142145D02*
G03X101923Y142578I-7J1480D01*
G01X101103Y141953D02*
G03X101923Y142578I-1913J3358D01*
X101276Y141735I2871J-2870*
G01X101923Y142578D02*
G03X101424Y141443I1209J-1209D01*
G01X122796Y158262D02*
G03X123339Y158154I352J351D01*
G01X122904Y157719D02*
G03X122796Y158262I-459J191D01*
G01X123053Y158005*
X100000Y140906D02*
X100250D01*
X103250Y143906*
Y152281*
X110386Y159417*
X121641*
X123433Y157625*
X101263Y161754D02*
G03X102464Y160906I1201J425D01*
X101263Y160057I-0J-1274*
G01X101461Y161331D02*
G03X102464Y160906I1003J969D01*
G01X101516Y161040D02*
G03X102464Y160906I948J3285D01*
X101516Y160772I-0J-3420*
G01X102464Y160906D02*
G03X101461Y160480I-0J-1395D01*
G01X132125Y163845D02*
G03X132620Y163757I311J312D01*
G01X132264Y163210D02*
G03X132125Y163845I-566J209D01*
G01X132382Y163588*
X100000Y160906D02*
X102464D01*
X106808Y165250*
X130720*
X132720Y163250*
X132800*
X139100Y153500D02*
G03X139559Y153808I-0J497D01*
G01Y153192D02*
G03X139100Y153500I-459J-189D01*
G01X139463*
X137640Y140360D02*
Y152590D01*
X138550Y153500*
X140000*
X168317Y105906D02*
G03X169619Y106777I0J1407D01*
G01Y105034D02*
G03X168317Y105906I-1302J-536D01*
X169409Y106344I0J1577*
G01X168317Y105906D02*
G03X169351Y106044I0J3926D01*
G01Y105767D02*
G03X168317Y105906I-1034J-3788D01*
G01X169409Y105467D02*
G03X168317Y105906I-1092J-1139D01*
G01X137640Y140360D02*
X164000Y114000D01*
Y108546*
X166640Y105906*
X170866*
X140823Y145409D02*
G03X141264Y145106I441J169D01*
X140823Y144802I0J-473*
G01X141264Y145106D02*
X140917D01*
X169073Y149095D02*
G03X169369Y150633I-1000J990D01*
G01X170608Y149406D02*
G03X169073Y149095I-535J-1302D01*
X169529Y150179I-1121J1110*
G01X169073Y149095D02*
G03X169701Y149926I-2790J2763D01*
G01X169898Y149731D02*
G03X169073Y149095I1964J-3400D01*
G01X170153Y149562D02*
G03X169073Y149095I41J-1578D01*
G01X140380Y145106D02*
X141264D01*
X143747Y142623*
Y141393*
X148390Y136750*
X163100*
X166250Y139900*
Y146245*
X170866Y150906*
X152019Y138161D02*
G03X152050Y137750I254J-188D01*
X151639Y137781I-223J-223*
G01X152050Y137750D02*
X151880Y137920D01*
X169064Y154103D02*
G03X169368Y155640I-995J996D01*
G01X170601Y154407D02*
G03X169064Y154103I-542J-1299D01*
X169526Y155185I-1116J1116*
G01X169064Y154103D02*
G03X169697Y154932I-2777J2777D01*
G01X169893Y154736D02*
G03X169064Y154103I1947J-3409D01*
G01X170146Y154565D02*
G03X169064Y154103I33J-1577D01*
G01X151500Y138300D02*
X152050Y137750D01*
X162600*
X165250Y140400*
Y146942*
X168009Y149701*
Y153049*
X170866Y155906*
X129936Y169802D02*
G03X129936I-1538J0D01*
G01X121088Y169900D02*
G03X121088I-1538J0D01*
G01X108838Y160750D02*
G03X108838I-1538J0D01*
G01X114846Y150875D02*
G03X114846I-1538J0D01*
G01X165388Y130700D02*
G03X165388I-1538J0D01*
G01X148258Y149550D02*
G03X148258I-1538J0D01*
G01X148215Y156543D02*
G03X148215I-1538J0D01*
G01X142028Y141336D02*
G03X142028I-1538J0D01*
G01X169616Y176458D02*
G03X169553Y176522I-63J0D01*
G01X101314*
G03X101250Y176458I-0J-64*
G01Y169455*
G03X101314Y169392I64J0*
G01X102770*
X103020Y169142D02*
G03X102770Y169392I-250J-0D01*
G01X103020Y169142D02*
Y163029D01*
X103020D02*
G03X103128Y162985I64J0D01*
G01X106101Y165957*
X106808Y166250D02*
G03X106101Y165957I0J-1000D01*
G01X106808Y166250D02*
X130720D01*
X131427Y165957D02*
G03X130720Y166250I-707J-707D01*
G01X131427Y165957D02*
X132587Y164797D01*
G03X132639Y164779I45J45*
G01X134338Y163250D02*
G03X132639Y164779I-1538J0D01*
G01X131267Y163128D02*
G03X134338Y163250I1533J122D01*
G01X131267Y163128D02*
X131267D01*
X131266Y163143D02*
G03X131267Y163128I998J67D01*
G01X131266Y163143D02*
Y163144D01*
X131262Y163250D02*
G03X131266Y163144I1538J-0D01*
G01X131262Y163250D02*
X131262D01*
X131263Y163266D02*
G03X131262Y163250I1537J-16D01*
G01X131263Y163266D02*
Y163267D01*
G03X131244Y163312I-64J-0*
G01X130324Y164231*
G03X130279Y164250I-45J-45*
G01X107249*
G03X107204Y164231I-0J-64*
G01X103171Y160199*
X103047Y160093D02*
G03X103171Y160199I-583J813D01*
G01X103047Y160093D02*
G03X103020Y160041I37J-52D01*
G01Y153618*
G03X103128Y153573I64J0*
G01X109679Y160124*
X110386Y160417D02*
G03X109679Y160124I0J-1000D01*
G01X110386Y160417D02*
X121641D01*
X122348Y160124D02*
G03X121641Y160417I-707J-707D01*
G01X122348Y160124D02*
X123294Y159178D01*
G03X123343Y159160I45J45*
G01X124971Y157625D02*
G03X123343Y159160I-1538J0D01*
G01X122353Y156531D02*
G03X124971Y157625I1080J1094D01*
G01X122353Y156531D02*
G03X122263I-45J-45D01*
G01X119668Y157363D02*
G03X122263Y156531I1515J262D01*
G01X119668Y157363D02*
G03X119605Y157415I-63J-11D01*
G01X119605D02*
X113086D01*
G03X113023Y157352I0J-63*
X113026Y157333I63J-0*
G01X113096Y156875D02*
G03X113026Y157333I-1538J0D01*
G01X113096Y156875D02*
X113096D01*
X113009Y156366D02*
G03X113096Y156875I-1451J509D01*
G01X113009Y156366D02*
G03X113005Y156344I60J-22D01*
X113043Y156286I64J0*
G01X113971Y154875D02*
G03X113043Y156286I-1538J0D01*
G01X112407Y153338D02*
G03X113971Y154875I26J1537D01*
G01X112407Y153338D02*
G03X112343Y153278I-1J-64D01*
G01X110274Y151933D02*
G03X112343Y153278I534J1442D01*
G01X110274Y151933D02*
G03X110207Y151919I-22J-59D01*
G01X108269Y149980*
G03X108250Y149935I45J-45*
G01Y142622*
G03X108358Y142577I64J0*
G01X109388Y143607*
X110095Y143900D02*
G03X109388Y143607I0J-1000D01*
G01X110095Y143900D02*
X111692D01*
G03X111737Y143919I-0J64*
G01X115731Y147913*
G03X115750Y147958I-45J45*
G01Y151442*
X116043Y152149D02*
G03X115750Y151442I707J-707D01*
G01X116043Y152149D02*
X118005Y154111D01*
G03X118023Y154156I-45J45*
Y154160I-63J-0*
G01X118021Y154250D02*
G03X118023Y154160I1537J0D01*
G01X121096Y154250D02*
G03X118021I-1538J0D01*
G01X120765Y153297D02*
G03X121096Y154250I-1207J953D01*
G01X120765Y153297D02*
G03X120751Y153258I50J-39D01*
X120770Y153213I64J-0*
G01X121221Y152125D02*
G03X120770Y153213I-1538J0D01*
G01X120714Y150984D02*
G03X121221Y152125I-1031J1141D01*
G01X120714Y150984D02*
G03X120693Y150937I42J-47D01*
X120709Y150895I63J-0*
G01X121096Y149875D02*
G03X120709Y150895I-1538J0D01*
G01X119803Y148357D02*
G03X121096Y149875I-245J1518D01*
G01X119803Y148357D02*
G03X119750Y148294I11J-63D01*
G01Y146689*
X119457Y145982D02*
G03X119750Y146689I-707J707D01*
G01X119457Y145982D02*
X113668Y140193D01*
X112961Y139900D02*
G03X113668Y140193I-0J1000D01*
G01X112961Y139900D02*
X111364D01*
G03X111319Y139881I0J-64*
G01X110269Y138831*
G03X110250Y138786I45J-45*
G01Y133848*
G03X110358Y133803I64J0*
G01X111168Y134613*
X111875Y134906D02*
G03X111168Y134613I0J-1000D01*
G01X111875Y134906D02*
X112428D01*
G03X112476Y134927I0J63*
G01X115163Y133906D02*
G03X112476Y134927I-1538J-0D01*
G01X112485Y132874D02*
G03X115163Y133906I1140J1032D01*
G01X112485Y132874D02*
X112485D01*
X112480Y132880D02*
G03X112485Y132874I746J666D01*
G01X112480Y132880D02*
X112476Y132884D01*
G03X112428Y132905I-48J-42*
G01X112316*
G03X112271Y132887I-0J-63*
G01X111269Y131885*
G03X111250Y131840I45J-45*
G01Y117846*
G03X111269Y117801I64J0*
G01X120396Y108674*
G03X120441Y108656I45J45*
G01X130625*
X131332Y108363D02*
G03X130625Y108656I-707J-707D01*
G01X131332Y108363D02*
X134021Y105674D01*
G03X134066Y105656I45J45*
G01X140000*
X140707Y105363D02*
G03X140000Y105656I-707J-707D01*
G01X140707Y105363D02*
X142021Y104049D01*
G03X142066Y104031I45J45*
G01X145250*
X145957Y103738D02*
G03X145250Y104031I-707J-707D01*
G01X145957Y103738D02*
X146661Y103034D01*
G03X146706Y103016I45J45*
G01X151725*
G03X151788Y103079I-0J63*
X151770Y103124I-63J0*
G01X148287Y106606*
G03X148243Y106625I-44J-45*
G01X145249*
G03X145189Y106584I-0J-64*
G01X142270Y106707D02*
G03X145189Y106584I1480J418D01*
G01X142270Y106707D02*
G03X142181Y106747I-61J-17D01*
G01X139962Y108125D02*
G03X142181Y106747I1538J0D01*
G01X141673Y109653D02*
G03X139962Y108125I-173J-1528D01*
G01X141673Y109653D02*
G03X141706Y109658I7J63D01*
G01X142125Y109750D02*
G03X141706Y109658I0J-1000D01*
G01X142125Y109750D02*
X149375D01*
X150082Y109457D02*
G03X149375Y109750I-707J-707D01*
G01X150082Y109457D02*
X156505Y103034D01*
G03X156550Y103016I45J45*
G01X165700*
X165950Y102766D02*
G03X165700Y103016I-250J-0D01*
G01X165950Y102766D02*
Y101314D01*
G03X166014Y101250I64J-0*
G01X169553*
G03X169616Y101314I-0J64*
G01Y102592*
G03X169553Y102655I-63J-0*
G01X168096*
X167846Y102906D02*
G03X168096Y102655I250J-0D01*
G01X167846Y102906D02*
Y104842D01*
G03X167782Y104905I-64J-0*
G01X166640*
X165933Y105198D02*
G03X166640Y104905I707J708D01*
G01X165933Y105198D02*
X163293Y107838D01*
X163000Y108546D02*
G03X163293Y107838I1000J-0D01*
G01X163000Y108546D02*
Y113559D01*
G03X162981Y113604I-64J0*
G01X136933Y139652*
X136640Y140360D02*
G03X136933Y139652I1000J0D01*
G01X136640Y140360D02*
Y152590D01*
X136933Y153297D02*
G03X136640Y152590I707J-707D01*
G01X136933Y153297D02*
X137843Y154207D01*
X138550Y154500D02*
G03X137843Y154207I0J-1000D01*
G01X138550Y154500D02*
X138803D01*
G03X138851Y154521I0J64*
G01X141538Y153500D02*
G03X138851Y154521I-1538J0D01*
G01X141311Y152697D02*
G03X141538Y153500I-1311J803D01*
G01X141311Y152697D02*
G03X141302Y152664I54J-33D01*
X141326Y152614I63J-0*
G01X141785Y150792D02*
G03X141326Y152614I-1410J614D01*
G01X141785Y150792D02*
G03X141780Y150767I58J-25D01*
X141810Y150713I63J-0*
G01X142538Y149406D02*
G03X141810Y150713I-1538J-0D01*
G01X139462Y149406D02*
G03X142538I1538J-0D01*
G01X139590Y150019D02*
G03X139462Y149406I1410J-613D01*
G01X139590Y150019D02*
G03X139595Y150044I-58J25D01*
X139565Y150098I-63J0*
G01X138837Y151406D02*
G03X139565Y150098I1538J-0D01*
G01X139064Y152209D02*
G03X138837Y151406I1311J-803D01*
G01X139064Y152209D02*
G03X139073Y152242I-54J33D01*
X139049Y152292I-63J-0*
G01X138939Y152387D02*
G03X139049Y152292I1061J1113D01*
G01X138939Y152387D02*
G03X138850Y152386I-44J-46D01*
G01X138659Y152194*
G03X138640Y152149I45J-45*
G01Y140801*
G03X138659Y140756I64J-0*
G01X164707Y114707*
X165000Y114000D02*
G03X164707Y114707I-1000J-0D01*
G01X165000Y114000D02*
Y108986D01*
G03X165019Y108941I64J0*
G01X167036Y106924*
G03X167081Y106906I45J45*
G01X167782*
G03X167846Y106969I0J63*
G01Y146281*
G03X167737Y146325I-64J-0*
G01X167268Y145852*
G03X167250Y145807I46J-45*
G01Y139900*
X166957Y139193D02*
G03X167250Y139900I-707J707D01*
G01X166957Y139193D02*
X163807Y136043D01*
X163100Y135750D02*
G03X163807Y136043I-0J1000D01*
G01X163100Y135750D02*
X148390D01*
X147683Y136043D02*
G03X148390Y135750I707J707D01*
G01X147683Y136043D02*
X143040Y140686D01*
X142747Y141393D02*
G03X143040Y140686I1000J0D01*
G01X142747Y141393D02*
Y142182D01*
G03X142728Y142227I-64J0*
G01X141204Y143752*
G03X141128Y143762I-45J-45*
G01X138842Y145106D02*
G03X141128Y143762I1538J-0D01*
G01X141582Y146064D02*
G03X138842Y145106I-1202J-958D01*
G01X141582Y146064D02*
G03X141610Y146044I50J40D01*
G01X141972Y145812D02*
G03X141610Y146044I-708J-706D01*
G01X141972Y145812D02*
X144454Y143330D01*
X144747Y142623D02*
G03X144454Y143330I-1000J-0D01*
G01X144747Y142623D02*
Y141834D01*
G03X144766Y141789I64J-0*
G01X148786Y137769*
G03X148831Y137750I45J45*
G01X149975*
G03X150038Y137814I-0J64*
X150035Y137833I-63J-0*
G01X149962Y138300D02*
G03X150035Y137833I1538J0D01*
G01X152956Y138793D02*
G03X149962Y138300I-1456J-493D01*
G01X152956Y138793D02*
G03X153016Y138750I60J21D01*
G01X162159*
G03X162204Y138769I0J64*
G01X164231Y140796*
G03X164250Y140841I-45J45*
G01Y146942*
X164543Y147649D02*
G03X164250Y146942I707J-707D01*
G01X164543Y147649D02*
X166991Y150097D01*
G03X167009Y150142I-45J45*
G01Y153049*
X167302Y153756D02*
G03X167009Y153049I707J-707D01*
G01X167302Y153756D02*
X167827Y154281D01*
G03X167846Y154326I-45J45*
G01Y160686*
G03X167782Y160750I-64J0*
G01X152591*
G03X152546Y160731I-0J-64*
G01X150469Y158655*
X149762Y158362D02*
G03X150469Y158655I-0J1000D01*
G01X149762Y158362D02*
X146103D01*
G03X146058Y158343I-0J-64*
G01X143252Y155542*
X142546Y155250D02*
G03X143252Y155542I-0J1000D01*
G01X142546Y155250D02*
X138091D01*
G03X138046Y155231I-0J-64*
G01X136407Y153593*
X135700Y153300D02*
G03X136407Y153593I-0J1000D01*
G01X135700Y153300D02*
X132350D01*
X131643Y153593D02*
G03X132350Y153300I707J707D01*
G01X131643Y153593D02*
X129728Y155507D01*
G03X129634Y155583I-384J-384*
X129620Y155589I-34J-54*
G01X129303Y155735D02*
G03X129620Y155589I797J1315D01*
G01X129303Y155735D02*
X129303D01*
X129292Y155742D02*
G03X129303Y155735I528J849D01*
G01X129292Y155742D02*
X129292D01*
X128562Y157050D02*
G03X129292Y155742I1538J0D01*
G01X131132Y158189D02*
G03X128562Y157050I-1032J-1139D01*
G01X131132Y158189D02*
G03X131218I43J47D01*
G01X133282D02*
G03X131218I-1032J-1139D01*
G01X133282D02*
G03X133368I43J47D01*
G01X135855Y157548D02*
G03X133368Y158189I-1455J-498D01*
G01X135855Y157548D02*
G03X135960Y157524I60J21D01*
G01X136393Y157957*
X137100Y158250D02*
G03X136393Y157957I0J-1000D01*
G01X137100Y158250D02*
X141470D01*
G03X141515Y158269I-0J64*
G01X144431Y161181*
X145138Y161473D02*
G03X144431Y161181I-0J-1000D01*
G01X145138Y161473D02*
X148982D01*
G03X149027Y161492I0J64*
G01X150993Y163457*
X151700Y163750D02*
G03X150993Y163457I0J-1000D01*
G01X151700Y163750D02*
X167270D01*
G03X167315Y163769I0J64*
G01X167827Y164281*
G03X167846Y164326I-45J45*
G01Y169150*
X168096Y169400D02*
G03X167846Y169150I0J-250D01*
G01X168096Y169400D02*
X169553D01*
G03X169616Y169463I-0J63*
G01Y176458*
X114197Y103079D02*
G03X114178Y103124I-64J0D01*
G01X103543Y113759*
X103250Y114467D02*
G03X103543Y113759I1000J-0D01*
G01X103250Y114467D02*
Y117463D01*
G03X103142Y117508I-64J-0*
G01X103039Y117405*
G03X103020Y117360I45J-45*
G01Y103136*
X102770Y102885D02*
G03X103020Y103136I0J251D01*
G01X102770Y102885D02*
X101314D01*
G03X101250Y102822I-0J-63*
G01Y101314*
G03X101314Y101250I64J-0*
G01X104846*
G03X104910Y101314I0J64*
G01Y102766*
X105160Y103016D02*
G03X104910Y102766I0J-250D01*
G01X105160Y103016D02*
X114133D01*
G03X114197Y103079I0J63*
G01X158892Y109936D02*
G03X161968I1538J-0D01*
G01X159296Y110973D02*
G03X158892Y109936I1134J-1037D01*
G01X159296Y110973D02*
G03X159312Y111016I-47J43D01*
X159294Y111061I-63J0*
G01X148354Y122000*
G03X148309Y122019I-45J-45*
G01X127512*
X126804Y122312D02*
G03X127512Y122019I708J707D01*
G01X126804Y122312D02*
X123514Y125602D01*
G03X123465Y125621I-45J-45*
G01X122334Y126024D02*
G03X123465Y125621I1041J1132D01*
G01X122334Y126024D02*
G03X122228Y125977I-43J-47D01*
X122240Y125940I63J0*
G01X122529Y125196D02*
G03X122240Y125940I-1529J-165D01*
G01X122529Y125196D02*
G03X122547Y125158I63J7D01*
G01X127021Y120684*
G03X127066Y120666I45J45*
G01X146347*
G03X146394Y120687I-0J63*
G01X149081Y119666D02*
G03X146394Y120687I-1538J-0D01*
G01Y118644D02*
G03X149081Y119666I1149J1022D01*
G01X146394Y118644D02*
G03X146347Y118666I-47J-42D01*
G01X126625*
X125918Y118959D02*
G03X126625Y118666I707J707D01*
G01X125918Y118959D02*
X121369Y123508D01*
G03X121311Y123525I-45J-45*
G01X119462Y125031D02*
G03X121311Y123525I1538J-0D01*
G01X122041Y126162D02*
G03X119462Y125031I-1041J-1131D01*
G01X122041Y126162D02*
G03X122147Y126209I43J47D01*
X122135Y126247I-63J-0*
G01X121837Y127156D02*
G03X122135Y126247I1538J-0D01*
G01X124913Y127156D02*
G03X121837I-1538J-0D01*
G01X124910Y127065D02*
G03X124913Y127156I-1535J91D01*
G01X124910Y127065D02*
G03Y127061I63J-4D01*
X124928Y127016I63J0*
G01X127907Y124038*
G03X127952Y124019I45J45*
G01X148750*
X149457Y123726D02*
G03X148750Y124019I-707J-707D01*
G01X149457Y123726D02*
X161137Y112046D01*
X161430Y111339D02*
G03X161137Y112046I-1000J-0D01*
G01X161430Y111339D02*
Y111132D01*
G03X161451Y111085I64J0*
G01X161968Y109936D02*
G03X161451Y111085I-1538J-0D01*
G01X129936Y169802D02*
G03X129936I-1538J0D01*
G01X121088Y169900D02*
G03X121088I-1538J0D01*
G01X108838Y160750D02*
G03X108838I-1538J0D01*
G01X114846Y150875D02*
G03X114846I-1538J0D01*
G01X147351Y113844D02*
G03X150038Y114866I1149J1022D01*
G01X147351Y113844D02*
G03X147303Y113865I-48J-42D01*
G01X131356*
G03X131311Y113847I0J-63*
G01X127481Y110017*
X126774Y109724D02*
G03X127481Y110017I0J1000D01*
G01X126774Y109724D02*
X121410D01*
X120702Y110017D02*
G03X121410Y109724I708J707D01*
G01X120702Y110017D02*
X112418Y118302D01*
X112125Y119009D02*
G03X112418Y118302I1000J-0D01*
G01X112125Y119009D02*
Y127334D01*
G03X112104Y127381I-64J-0*
G01X112099Y127385*
X112093Y127390D02*
G03X112099Y127385I672J741D01*
G01X112093Y127390D02*
X112093D01*
X111587Y128531D02*
G03X112093Y127390I1538J-0D01*
G01X114663Y128531D02*
G03X111587I-1538J-0D01*
G01X114146Y127381D02*
G03X114663Y128531I-1021J1150D01*
G01X114146Y127381D02*
G03X114125Y127334I43J-47D01*
G01Y119449*
G03X114144Y119404I64J0*
G01X121805Y111743*
G03X121850Y111724I45J45*
G01X126334*
G03X126379Y111743I-0J64*
G01X130208Y115573*
X130916Y115866D02*
G03X130208Y115573I-0J-1000D01*
G01X130916Y115866D02*
X147303D01*
G03X147351Y115887I0J63*
G01X150038Y114866D02*
G03X147351Y115887I-1538J-0D01*
G01X121012Y115100D02*
G03X124088I1538J0D01*
G01X121529Y116249D02*
G03X121012Y115100I1021J-1149D01*
G01X121529Y116249D02*
G03X121550Y116297I-43J48D01*
G01Y117936*
G03X121531Y117981I-64J-0*
G01X118256Y121236*
G03X118157Y121314I-396J-399*
X118143Y121320I-33J-54*
G01X117828Y121466D02*
G03X118143Y121320I797J1315D01*
G01X117828Y121466D02*
X117828D01*
X117817Y121472D02*
G03X117828Y121466I528J850D01*
G01X117817Y121472D02*
X117817D01*
X117087Y122781D02*
G03X117817Y121472I1538J-0D01*
G01X120163Y122781D02*
G03X117087I-1538J-0D01*
G01X120082Y122290D02*
G03X120163Y122781I-1457J491D01*
G01X120082Y122290D02*
G03X120079Y122270I60J-20D01*
X120098Y122225I63J0*
G01X123255Y119087*
X123550Y118378D02*
G03X123255Y119087I-1000J0D01*
G01X123550Y118378D02*
Y116297D01*
G03X123571Y116249I64J-0*
G01X124088Y115100D02*
G03X123571Y116249I-1538J0D01*
G01X165388Y130700D02*
G03X165388I-1538J0D01*
G01X148356Y142846D02*
G03X149048Y144130I-846J1284D01*
G01X148356Y142846D02*
G03X148327Y142793I35J-53D01*
X148336Y142762I64J0*
G01X148538Y142000D02*
G03X148336Y142762I-1538J0D01*
G01X145462Y142000D02*
G03X148538I1538J0D01*
G01X146154Y143284D02*
G03X145462Y142000I846J-1284D01*
G01X146154Y143284D02*
G03X146183Y143337I-35J53D01*
X146174Y143368I-64J-0*
G01X145972Y144130D02*
G03X146174Y143368I1538J0D01*
G01X149048Y144130D02*
G03X145972I-1538J0D01*
G01X148258Y149550D02*
G03X148258I-1538J0D01*
G01X148215Y156543D02*
G03X148215I-1538J0D01*
G01X142028Y141336D02*
G03X142028I-1538J0D01*
G01X127962Y127281D02*
G03X131038I1538J-0D01*
G01X128479Y128430D02*
G03X127962Y127281I1021J-1149D01*
G01X128479Y128430D02*
G03X128500Y128477I-43J47D01*
G01Y130413*
G03X128481Y130458I-64J0*
G01X126308Y132631*
G03X126263Y132650I-45J-45*
G01X118560*
G03X118515Y132631I0J-64*
G01X118053Y132170*
G03X118035Y132125I45J-45*
Y132121I63J-0*
G01X118038Y132031D02*
G03X118035Y132121I-1538J-0D01*
G01X114962Y132031D02*
G03X118038I1538J-0D01*
G01X116590Y133565D02*
G03X114962Y132031I-90J-1534D01*
G01X116590Y133565D02*
G03X116639Y133584I4J64D01*
G01X117412Y134357*
X118119Y134650D02*
G03X117412Y134357I0J-1000D01*
G01X118119Y134650D02*
X126704D01*
X127411Y134357D02*
G03X126704Y134650I-707J-707D01*
G01X127411Y134357D02*
X130207Y131561D01*
X130500Y130854D02*
G03X130207Y131561I-1000J-0D01*
G01X130500Y130854D02*
Y128477D01*
G03X130521Y128430I64J0*
G01X131038Y127281D02*
G03X130521Y128430I-1538J-0D01*
G01X139308Y167401D02*
Y166710D01*
X139235Y166533D02*
G03X139308Y166710I-177J177D01*
G01X139235Y166533D02*
X137838Y165137D01*
X137661Y165063D02*
G03X137838Y165137I0J250D01*
G01X137661Y165063D02*
X137438D01*
X137261Y165137D02*
G03X137438Y165063I177J176D01*
G01X137261Y165137D02*
X134819Y167579D01*
X134746Y167756D02*
G03X134819Y167579I250J-0D01*
G01X134746Y167755D02*
Y168596D01*
X134819Y168773D02*
G03X134746Y168596I177J-177D01*
G01X134819Y168773D02*
X135737Y169691D01*
X135914Y169764D02*
G03X135737Y169691I0J-250D01*
G01X135914Y169764D02*
X136945D01*
X137122Y169691D02*
G03X136945Y169764I-177J-177D01*
G01X137122Y169691D02*
X139235Y167578D01*
X139308Y167401D02*
G03X139235Y167578I-250J-0D01*
G01X124837Y128281D02*
G03X127913I1538J-0D01*
G01X124837D02*
X124837D01*
X124839Y128357D02*
G03X124837Y128281I1536J-76D01*
G01X124839Y128357D02*
X124839D01*
X124840Y128366D02*
G03X124839Y128357I998J-57D01*
G01X124840Y128366D02*
Y128371D01*
G03Y128375I-63J4*
X124822Y128420I-63J-0*
G01X123979Y129262*
G03X123934Y129280I-45J-45*
G01X120343*
G03X120298Y129262I-0J-63*
G01X116474Y125438*
G03X116456Y125393I45J-45*
G01Y121383*
G03X116474Y121338I63J-0*
G01X117802Y120010*
G03X117850Y119992I45J45*
G01X119478Y118457D02*
G03X117850Y119992I-1537J-0D01*
G01X116403Y118457D02*
G03X119478I1538J-0D01*
G01X116406Y118547D02*
G03X116403Y118457I1535J-90D01*
G01X116406Y118547D02*
G03Y118551I-63J4D01*
X116388Y118596I-63J0*
G01X114748Y120235*
X114455Y120942D02*
G03X114748Y120235I1001J0D01*
G01X114455Y120942D02*
Y125834D01*
X114749Y126541D02*
G03X114455Y125834I707J-707D01*
G01X114749Y126541D02*
X119195Y130988D01*
X119902Y131281D02*
G03X119195Y130988I0J-1000D01*
G01X119902Y131281D02*
X124375D01*
X125082Y130988D02*
G03X124375Y131281I-707J-707D01*
G01X125082Y130988D02*
X126236Y129834D01*
G03X126285Y129815I45J45*
G01X127913Y128281D02*
G03X126285Y129815I-1538J-0D01*
G01X101250Y176399D02*
X169616D01*
X101250Y175949D02*
X169616D01*
X101250Y175499D02*
X169616D01*
X101250Y175049D02*
X169616D01*
X101250Y174599D02*
X169616D01*
X101250Y174149D02*
X169616D01*
X101250Y173699D02*
X169616D01*
X101250Y173249D02*
X169616D01*
X101250Y172799D02*
X169616D01*
X101250Y172349D02*
X169616D01*
X101250Y171899D02*
X169616D01*
X101250Y171449D02*
X169616D01*
X129363Y170999D02*
X169616D01*
X129742Y170549D02*
X169616D01*
X129907Y170099D02*
X169616D01*
X137164Y169649D02*
X169616D01*
X165950Y102149D02*
X169616D01*
X165950Y101699D02*
X169616D01*
X165950Y102599D02*
X169616D01*
X137614Y169199D02*
X167851D01*
X138064Y168749D02*
X167846D01*
X138514Y168299D02*
X167846D01*
X138964Y167849D02*
X167846D01*
X139308Y167399D02*
X167846D01*
X139308Y166949D02*
X167846D01*
X139200Y166499D02*
X167846D01*
X138750Y166049D02*
X167846D01*
X138300Y165599D02*
X167846D01*
X137850Y165149D02*
X167846D01*
X133315Y164699D02*
X167846D01*
X152463Y160649D02*
X167846D01*
X152013Y160199D02*
X167846D01*
X151563Y159749D02*
X167846D01*
X151113Y159299D02*
X167846D01*
X150663Y158849D02*
X167846D01*
X150031Y158399D02*
X167846D01*
X147300Y157949D02*
X167846D01*
X147881Y157499D02*
X167846D01*
X148129Y157049D02*
X167846D01*
X148214Y156599D02*
X167846D01*
X148163Y156149D02*
X167846D01*
X147962Y155699D02*
X167846D01*
X147507Y155249D02*
X167846D01*
X140823Y154799D02*
X167846D01*
X141282Y154349D02*
X167846D01*
X167661Y146249D02*
X167846D01*
X167250Y145799D02*
X167846D01*
X167250Y145349D02*
X167846D01*
X167250Y144899D02*
X167846D01*
X167250Y144449D02*
X167846D01*
X167250Y143999D02*
X167846D01*
X167250Y143549D02*
X167846D01*
X167250Y143099D02*
X167846D01*
X167250Y142649D02*
X167846D01*
X167250Y142199D02*
X167846D01*
X167250Y141749D02*
X167846D01*
X167250Y141299D02*
X167846D01*
X167250Y140849D02*
X167846D01*
X167250Y140399D02*
X167846D01*
X167250Y139949D02*
X167846D01*
X167166Y139499D02*
X167846D01*
X166813Y139049D02*
X167846D01*
X166363Y138599D02*
X167846D01*
X165913Y138149D02*
X167846D01*
X165463Y137699D02*
X167846D01*
X165013Y137249D02*
X167846D01*
X164563Y136799D02*
X167846D01*
X164113Y136349D02*
X167846D01*
X163625Y135899D02*
X167846D01*
X143966Y135449D02*
X167846D01*
X144416Y134999D02*
X167846D01*
X144866Y134549D02*
X167846D01*
X145316Y134099D02*
X167846D01*
X145766Y133649D02*
X167846D01*
X146216Y133199D02*
X167846D01*
X146666Y132749D02*
X167846D01*
X147116Y132299D02*
X167846D01*
X164872Y131849D02*
X167846D01*
X165220Y131399D02*
X167846D01*
X165367Y130949D02*
X167846D01*
X165374Y130499D02*
X167846D01*
X165243Y130049D02*
X167846D01*
X164923Y129599D02*
X167846D01*
X150266Y129149D02*
X167846D01*
X150716Y128699D02*
X167846D01*
X151166Y128249D02*
X167846D01*
X151616Y127799D02*
X167846D01*
X152066Y127349D02*
X167846D01*
X152516Y126899D02*
X167846D01*
X152966Y126449D02*
X167846D01*
X153416Y125999D02*
X167846D01*
X153866Y125549D02*
X167846D01*
X154316Y125099D02*
X167846D01*
X154766Y124649D02*
X167846D01*
X155216Y124199D02*
X167846D01*
X155666Y123749D02*
X167846D01*
X156116Y123299D02*
X167846D01*
X156566Y122849D02*
X167846D01*
X157016Y122399D02*
X167846D01*
X157466Y121949D02*
X167846D01*
X157916Y121499D02*
X167846D01*
X158366Y121049D02*
X167846D01*
X158816Y120599D02*
X167846D01*
X159266Y120149D02*
X167846D01*
X159716Y119699D02*
X167846D01*
X160166Y119249D02*
X167846D01*
X160616Y118799D02*
X167846D01*
X161066Y118349D02*
X167846D01*
X161516Y117899D02*
X167846D01*
X161966Y117449D02*
X167846D01*
X162416Y116999D02*
X167846D01*
X162866Y116549D02*
X167846D01*
X163316Y116099D02*
X167846D01*
X163766Y115649D02*
X167846D01*
X164216Y115199D02*
X167846D01*
X164666Y114749D02*
X167846D01*
X164954Y114299D02*
X167846D01*
X165000Y113849D02*
X167846D01*
X165000Y113399D02*
X167846D01*
X165000Y112949D02*
X167846D01*
X165000Y112499D02*
X167846D01*
X165000Y112049D02*
X167846D01*
X165000Y111599D02*
X167846D01*
X165000Y111149D02*
X167846D01*
X165000Y110699D02*
X167846D01*
X165000Y110249D02*
X167846D01*
X165000Y109799D02*
X167846D01*
X165000Y109349D02*
X167846D01*
X165061Y108899D02*
X167846D01*
X165511Y108449D02*
X167846D01*
X165961Y107999D02*
X167846D01*
X166411Y107549D02*
X167846D01*
X166861Y107099D02*
X167846D01*
X155141Y104399D02*
X167846D01*
X155591Y103949D02*
X167846D01*
X156041Y103499D02*
X167846D01*
X156491Y103049D02*
X167846D01*
X154691Y104849D02*
X167846D01*
X133969Y164249D02*
X167795D01*
X141485Y153899D02*
X167445D01*
X134236Y163799D02*
X167345D01*
X141537Y153449D02*
X167093D01*
X141454Y152999D02*
X167009D01*
X141403Y152549D02*
X167009D01*
X141747Y152099D02*
X167009D01*
X141893Y151649D02*
X167009D01*
X141899Y151199D02*
X167009D01*
X147683Y150749D02*
X167009D01*
X148063Y150299D02*
X167009D01*
X148228Y149849D02*
X166743D01*
X148250Y149399D02*
X166293D01*
X148135Y148949D02*
X165843D01*
X154241Y105299D02*
X165833D01*
X147842Y148499D02*
X165393D01*
X153791Y105749D02*
X165383D01*
X147052Y148049D02*
X164943D01*
X153341Y106199D02*
X164933D01*
X138640Y147599D02*
X164496D01*
X152891Y106649D02*
X164483D01*
X138640Y147149D02*
X164272D01*
X138640Y146699D02*
X164250D01*
X141408Y146249D02*
X164250D01*
X141986Y145799D02*
X164250D01*
X148447Y145349D02*
X164250D01*
X148842Y144899D02*
X164250D01*
X149014Y144449D02*
X164250D01*
X149042Y143999D02*
X164250D01*
X148933Y143549D02*
X164250D01*
X148650Y143099D02*
X164250D01*
X148394Y142649D02*
X164250D01*
X148525Y142199D02*
X164250D01*
X148517Y141749D02*
X164250D01*
X148368Y141299D02*
X164250D01*
X148019Y140849D02*
X164250D01*
X152441Y107099D02*
X164033D01*
X146156Y140399D02*
X163834D01*
X151991Y107549D02*
X163583D01*
X146606Y139949D02*
X163384D01*
X151541Y107999D02*
X163163D01*
X160822Y108449D02*
X163005D01*
X159785Y113399D02*
X163000D01*
X160235Y112949D02*
X163000D01*
X160685Y112499D02*
X163000D01*
X161135Y112049D02*
X163000D01*
X161396Y111599D02*
X163000D01*
X161430Y111149D02*
X163000D01*
X161765Y110699D02*
X163000D01*
X161935Y110249D02*
X163000D01*
X161961Y109799D02*
X163000D01*
X161851Y109349D02*
X163000D01*
X161565Y108899D02*
X163000D01*
X152463Y139499D02*
X162934D01*
X147566Y131849D02*
X162828D01*
X149816Y129599D02*
X162777D01*
X159335Y113849D02*
X162737D01*
X152843Y139049D02*
X162484D01*
X148016Y131399D02*
X162480D01*
X149366Y130049D02*
X162457D01*
X148466Y130949D02*
X162333D01*
X148916Y130499D02*
X162326D01*
X158885Y114299D02*
X162287D01*
X158435Y114749D02*
X161837D01*
X157985Y115199D02*
X161387D01*
X157535Y115649D02*
X160937D01*
X157085Y116099D02*
X160487D01*
X151091Y108449D02*
X160038D01*
X156635Y116549D02*
X160037D01*
X156185Y116999D02*
X159587D01*
X150641Y108899D02*
X159295D01*
X128613Y111149D02*
X159206D01*
X155735Y117449D02*
X159137D01*
X128163Y110699D02*
X159095D01*
X150191Y109349D02*
X159009D01*
X127713Y110249D02*
X158925D01*
X127153Y109799D02*
X158899D01*
X129063Y111599D02*
X158756D01*
X155285Y117899D02*
X158687D01*
X129513Y112049D02*
X158306D01*
X154835Y118349D02*
X158237D01*
X129963Y112499D02*
X157856D01*
X154385Y118799D02*
X157787D01*
X130413Y112949D02*
X157406D01*
X153935Y119249D02*
X157337D01*
X148961Y113399D02*
X156956D01*
X153485Y119699D02*
X156887D01*
X149653Y113849D02*
X156506D01*
X153035Y120149D02*
X156437D01*
X149929Y114299D02*
X156056D01*
X152585Y120599D02*
X155987D01*
X150033Y114749D02*
X155606D01*
X152135Y121049D02*
X155537D01*
X150001Y115199D02*
X155156D01*
X151685Y121499D02*
X155087D01*
X149823Y115649D02*
X154706D01*
X151235Y121949D02*
X154637D01*
X149418Y116099D02*
X154256D01*
X150785Y122399D02*
X154187D01*
X123550Y116549D02*
X153806D01*
X150335Y122849D02*
X153737D01*
X123550Y116999D02*
X153356D01*
X149885Y123299D02*
X153287D01*
X123550Y117449D02*
X152906D01*
X149434Y123749D02*
X152837D01*
X123550Y117899D02*
X152456D01*
X127746Y124199D02*
X152387D01*
X148337Y118349D02*
X152006D01*
X127296Y124649D02*
X151937D01*
X146646Y103049D02*
X151781D01*
X148813Y118799D02*
X151556D01*
X126846Y125099D02*
X151487D01*
X146196Y103499D02*
X151395D01*
X149023Y119249D02*
X151106D01*
X126396Y125549D02*
X151037D01*
X145646Y103949D02*
X150945D01*
X134334Y163349D02*
X150884D01*
X149080Y119699D02*
X150656D01*
X130349Y125999D02*
X150587D01*
X147056Y139499D02*
X150537D01*
X141671Y104399D02*
X150495D01*
X134297Y162899D02*
X150434D01*
X149003Y120149D02*
X150206D01*
X147506Y139049D02*
X150157D01*
X130793Y126449D02*
X150137D01*
X141221Y104849D02*
X150045D01*
X147956Y138599D02*
X149992D01*
X134112Y162449D02*
X149984D01*
X148406Y138149D02*
X149970D01*
X148765Y120599D02*
X149756D01*
X130989Y126899D02*
X149687D01*
X140771Y105299D02*
X149595D01*
X133693Y161999D02*
X149534D01*
X148215Y121049D02*
X149306D01*
X131036Y127349D02*
X149237D01*
X144435Y105749D02*
X149145D01*
X108614Y161549D02*
X149084D01*
X126206Y121499D02*
X148856D01*
X130948Y127799D02*
X148787D01*
X144977Y106199D02*
X148695D01*
X125756Y121949D02*
X148406D01*
X130694Y128249D02*
X148337D01*
X130863Y113399D02*
X148039D01*
X130500Y128699D02*
X147887D01*
X143516Y135899D02*
X147865D01*
X123719Y116099D02*
X147582D01*
X130500Y129149D02*
X147437D01*
X143066Y136349D02*
X147377D01*
X131313Y113849D02*
X147346D01*
X130500Y129599D02*
X146987D01*
X142616Y136799D02*
X146927D01*
X126656Y121049D02*
X146872D01*
X123550Y118349D02*
X146750D01*
X142436Y145349D02*
X146573D01*
X130500Y130049D02*
X146537D01*
X142166Y137249D02*
X146477D01*
X141723Y148049D02*
X146388D01*
X142886Y144899D02*
X146178D01*
X130500Y130499D02*
X146087D01*
X144236Y143549D02*
X146087D01*
X145662Y157949D02*
X146054D01*
X141716Y137699D02*
X146027D01*
X143336Y144449D02*
X146006D01*
X145706Y140849D02*
X145981D01*
X143786Y143999D02*
X145978D01*
X144627Y143099D02*
X145924D01*
X138078Y155249D02*
X145847D01*
X141782Y150749D02*
X145757D01*
X130496Y130949D02*
X145637D01*
X145256Y141299D02*
X145632D01*
X144747Y142649D02*
X145606D01*
X142242Y148499D02*
X145598D01*
X141266Y138149D02*
X145577D01*
X144806Y141749D02*
X145483D01*
X144747Y142199D02*
X145475D01*
X145212Y157499D02*
X145473D01*
X143409Y155699D02*
X145392D01*
X142251Y150299D02*
X145377D01*
X142468Y148949D02*
X145305D01*
X144761Y157049D02*
X145225D01*
X142472Y149849D02*
X145212D01*
X143860Y156149D02*
X145191D01*
X142538Y149399D02*
X145190D01*
X130339Y131399D02*
X145187D01*
X144310Y156599D02*
X145140D01*
X140816Y138599D02*
X145127D01*
X129920Y131849D02*
X144737D01*
X140366Y139049D02*
X144677D01*
X108797Y161099D02*
X144349D01*
X129470Y132299D02*
X144287D01*
X139916Y139499D02*
X144227D01*
X108834Y160649D02*
X143898D01*
X129020Y132749D02*
X143837D01*
X141154Y139949D02*
X143777D01*
X122265Y160199D02*
X143448D01*
X128570Y133199D02*
X143387D01*
X141709Y140399D02*
X143327D01*
X133946Y105749D02*
X143065D01*
X122724Y159749D02*
X142997D01*
X128120Y133649D02*
X142937D01*
X141948Y140849D02*
X142908D01*
X142027Y141299D02*
X142751D01*
X141971Y141749D02*
X142747D01*
X141762Y142199D02*
X142745D01*
X123174Y159299D02*
X142546D01*
X133496Y106199D02*
X142523D01*
X127670Y134099D02*
X142487D01*
X141290Y142649D02*
X142307D01*
X141930Y106649D02*
X142288D01*
X124364Y158849D02*
X142096D01*
X127143Y134549D02*
X142037D01*
X138640Y143099D02*
X141857D01*
X135138Y158399D02*
X141645D01*
X114706Y134999D02*
X141587D01*
X138640Y143549D02*
X141407D01*
X110250Y135449D02*
X141137D01*
X133046Y106649D02*
X141070D01*
X110250Y135899D02*
X140687D01*
X119721Y109349D02*
X140569D01*
X132596Y107099D02*
X140355D01*
X138640Y148049D02*
X140277D01*
X110250Y136349D02*
X140237D01*
X120171Y108899D02*
X140171D01*
X132146Y107549D02*
X140075D01*
X131234Y108449D02*
X139997D01*
X131696Y107999D02*
X139968D01*
X139466Y139949D02*
X139826D01*
X110250Y136799D02*
X139787D01*
X138640Y148499D02*
X139758D01*
X138640Y142649D02*
X139690D01*
X138640Y148949D02*
X139532D01*
X138640Y149849D02*
X139528D01*
X138640Y149399D02*
X139462D01*
X138640Y146249D02*
X139352D01*
X110250Y137249D02*
X139337D01*
X138640Y143999D02*
X139313D01*
X138640Y150299D02*
X139308D01*
X139016Y140399D02*
X139271D01*
X138640Y142199D02*
X139218D01*
X137613Y154799D02*
X139177D01*
X138640Y140849D02*
X139032D01*
X138640Y141749D02*
X139009D01*
X138640Y145799D02*
X139008D01*
X138640Y152099D02*
X139003D01*
X138640Y144449D02*
X138990D01*
X138640Y150749D02*
X138985D01*
X138640Y141299D02*
X138953D01*
X110250Y137699D02*
X138887D01*
X138640Y145349D02*
X138862D01*
X138640Y151649D02*
X138857D01*
X138640Y144899D02*
X138856D01*
X138640Y151199D02*
X138851D01*
X110250Y138149D02*
X138437D01*
X137163Y154349D02*
X138021D01*
X110250Y138599D02*
X137987D01*
X110487Y139049D02*
X137537D01*
X136713Y153899D02*
X137534D01*
X132236Y165149D02*
X137249D01*
X110937Y139499D02*
X137087D01*
X136225Y153449D02*
X137084D01*
X131786Y165599D02*
X136799D01*
X113269Y139949D02*
X136728D01*
X120948Y152999D02*
X136727D01*
X121161Y152549D02*
X136640D01*
X121220Y152099D02*
X136640D01*
X121145Y151649D02*
X136640D01*
X120910Y151199D02*
X136640D01*
X120823Y150749D02*
X136640D01*
X121036Y150299D02*
X136640D01*
X121095Y149849D02*
X136640D01*
X121020Y149399D02*
X136640D01*
X120785Y148949D02*
X136640D01*
X120243Y148499D02*
X136640D01*
X119750Y148049D02*
X136640D01*
X119750Y147599D02*
X136640D01*
X119750Y147149D02*
X136640D01*
X119750Y146699D02*
X136640D01*
X119648Y146249D02*
X136640D01*
X119274Y145799D02*
X136640D01*
X118824Y145349D02*
X136640D01*
X118374Y144899D02*
X136640D01*
X117924Y144449D02*
X136640D01*
X117474Y143999D02*
X136640D01*
X117024Y143549D02*
X136640D01*
X116574Y143099D02*
X136640D01*
X116124Y142649D02*
X136640D01*
X115674Y142199D02*
X136640D01*
X115224Y141749D02*
X136640D01*
X114774Y141299D02*
X136640D01*
X114324Y140849D02*
X136640D01*
X113874Y140399D02*
X136640D01*
X135648Y157949D02*
X136384D01*
X131322Y166049D02*
X136349D01*
X103020Y166499D02*
X135899D01*
X129928Y169649D02*
X135695D01*
X103020Y166949D02*
X135449D01*
X129812Y169199D02*
X135245D01*
X103020Y167399D02*
X134999D01*
X129518Y168749D02*
X134798D01*
X128721Y168299D02*
X134746D01*
X103020Y167849D02*
X134746D01*
X132988Y158399D02*
X133662D01*
X108197Y161999D02*
X131907D01*
X120870Y153449D02*
X131825D01*
X130838Y158399D02*
X131512D01*
X105421Y162449D02*
X131488D01*
X121055Y153899D02*
X131337D01*
X105871Y162899D02*
X131303D01*
X106321Y163349D02*
X131207D01*
X121092Y154349D02*
X130887D01*
X106771Y163799D02*
X130757D01*
X120994Y154799D02*
X130437D01*
X123986Y115649D02*
X130294D01*
X107236Y164249D02*
X130292D01*
X120727Y155249D02*
X129987D01*
X124084Y115199D02*
X129834D01*
X124047Y114749D02*
X129384D01*
X120073Y155699D02*
X129367D01*
X124762Y158399D02*
X129362D01*
X123862Y114299D02*
X128934D01*
X123863Y156149D02*
X128854D01*
X124936Y157949D02*
X128852D01*
X125946Y125999D02*
X128651D01*
X124578Y156599D02*
X128630D01*
X124965Y157499D02*
X128629D01*
X124859Y157049D02*
X128562D01*
X126021Y130049D02*
X128500D01*
X127166Y129599D02*
X128500D01*
X127644Y129149D02*
X128500D01*
X127855Y128699D02*
X128500D01*
X123443Y113849D02*
X128484D01*
X125571Y130499D02*
X128441D01*
X127912Y128249D02*
X128306D01*
X125496Y126449D02*
X128207D01*
X103020Y168299D02*
X128075D01*
X127835Y127799D02*
X128052D01*
X120149Y113399D02*
X128034D01*
X127049Y126899D02*
X128011D01*
X125121Y130949D02*
X127991D01*
X127598Y127349D02*
X127964D01*
X120599Y112949D02*
X127584D01*
X117902Y131399D02*
X127541D01*
X120626Y170999D02*
X127433D01*
X120569Y168749D02*
X127278D01*
X121049Y112499D02*
X127134D01*
X118027Y131849D02*
X127091D01*
X120944Y170549D02*
X127054D01*
X120918Y169199D02*
X126984D01*
X121075Y170099D02*
X126889D01*
X121067Y169649D02*
X126868D01*
X125306Y122399D02*
X126718D01*
X121499Y112049D02*
X126684D01*
X118182Y132299D02*
X126641D01*
X124856Y122849D02*
X126268D01*
X123457Y118799D02*
X126127D01*
X124406Y123299D02*
X125818D01*
X125046Y126899D02*
X125701D01*
X123093Y119249D02*
X125628D01*
X123956Y123749D02*
X125368D01*
X122640Y119699D02*
X125178D01*
X124900Y127349D02*
X125152D01*
X123506Y124199D02*
X124918D01*
X124772Y127799D02*
X124915D01*
X124456Y128249D02*
X124838D01*
X122187Y120149D02*
X124728D01*
X119735Y128699D02*
X124543D01*
X123056Y124649D02*
X124468D01*
X121734Y120599D02*
X124278D01*
X120185Y129149D02*
X124093D01*
X122606Y125099D02*
X124018D01*
X121281Y121049D02*
X123828D01*
X122448Y125549D02*
X123568D01*
X120829Y121499D02*
X123378D01*
X121613Y156149D02*
X123004D01*
X120376Y121949D02*
X122928D01*
X120114Y122399D02*
X122478D01*
X122232Y125999D02*
X122362D01*
X119285Y128249D02*
X122294D01*
X120161Y122849D02*
X122028D01*
X121594Y126449D02*
X122010D01*
X118835Y127799D02*
X121978D01*
X117935Y126899D02*
X121859D01*
X118385Y127349D02*
X121850D01*
X119699Y113849D02*
X121657D01*
X120073Y123299D02*
X121578D01*
X119374Y117899D02*
X121550D01*
X119102Y117449D02*
X121550D01*
X118428Y116999D02*
X121550D01*
X116999Y116549D02*
X121550D01*
X117449Y116099D02*
X121381D01*
X119249Y114299D02*
X121238D01*
X119475Y118349D02*
X121161D01*
X117899Y115649D02*
X121114D01*
X118799Y114749D02*
X121053D01*
X119271Y109799D02*
X121031D01*
X118349Y115199D02*
X121016D01*
X113294Y156149D02*
X120754D01*
X119440Y118799D02*
X120708D01*
X118821Y110249D02*
X120471D01*
X117485Y126449D02*
X120406D01*
X119259Y119249D02*
X120255D01*
X119819Y123749D02*
X120151D01*
X113071Y156599D02*
X120038D01*
X118371Y110699D02*
X120021D01*
X117035Y125999D02*
X119806D01*
X118848Y119699D02*
X119802D01*
X113086Y157049D02*
X119758D01*
X119219Y124199D02*
X119707D01*
X117921Y111149D02*
X119571D01*
X116585Y125549D02*
X119552D01*
X116456Y124649D02*
X119511D01*
X116456Y125099D02*
X119464D01*
X117663Y120149D02*
X119350D01*
X117593Y130949D02*
X119156D01*
X117471Y111599D02*
X119121D01*
X113731Y155699D02*
X119043D01*
X117213Y120599D02*
X118897D01*
X116632Y130499D02*
X118706D01*
X117021Y112049D02*
X118671D01*
X103020Y168749D02*
X118531D01*
X101250Y170999D02*
X118474D01*
X116763Y121049D02*
X118444D01*
X113924Y155249D02*
X118389D01*
X113368Y130049D02*
X118256D01*
X116571Y112499D02*
X118221D01*
X103013Y169199D02*
X118182D01*
X101250Y170549D02*
X118156D01*
X113969Y154799D02*
X118122D01*
X101250Y169649D02*
X118033D01*
X116456Y124199D02*
X118031D01*
X101250Y170099D02*
X118025D01*
X113878Y154349D02*
X118024D01*
X114231Y129599D02*
X117806D01*
X113621Y153899D02*
X117793D01*
X116456Y121499D02*
X117776D01*
X116121Y112949D02*
X117771D01*
X115022Y134549D02*
X117681D01*
X116549Y116999D02*
X117454D01*
X116456Y123749D02*
X117431D01*
X114533Y129149D02*
X117356D01*
X113007Y153449D02*
X117343D01*
X116456Y121949D02*
X117332D01*
X115671Y113399D02*
X117321D01*
X116456Y123299D02*
X117177D01*
X115150Y134099D02*
X117154D01*
X116456Y122399D02*
X117136D01*
X116456Y122849D02*
X117089D01*
X114653Y128699D02*
X116906D01*
X112299Y152999D02*
X116893D01*
X115221Y113849D02*
X116871D01*
X116099Y117449D02*
X116780D01*
X115141Y133649D02*
X116704D01*
X115649Y117899D02*
X116508D01*
X114636Y128249D02*
X116456D01*
X112105Y152549D02*
X116443D01*
X114771Y114299D02*
X116421D01*
X115199Y118349D02*
X116407D01*
X111250Y130499D02*
X116368D01*
X114749Y118799D02*
X116185D01*
X114477Y127799D02*
X116006D01*
X114239Y152099D02*
X115996D01*
X114321Y114749D02*
X115971D01*
X114637Y151649D02*
X115772D01*
X114811Y151199D02*
X115750D01*
X114840Y150749D02*
X115750D01*
X114734Y150299D02*
X115750D01*
X114453Y149849D02*
X115750D01*
X113738Y149399D02*
X115750D01*
X108250Y148949D02*
X115750D01*
X108250Y148499D02*
X115750D01*
X108250Y148049D02*
X115750D01*
X114299Y119249D02*
X115735D01*
X114127Y127349D02*
X115556D01*
X113871Y115199D02*
X115521D01*
X114990Y133199D02*
X115500D01*
X108250Y147599D02*
X115417D01*
X111250Y130949D02*
X115407D01*
X114125Y119699D02*
X115285D01*
X114638Y132749D02*
X115141D01*
X114125Y126899D02*
X115106D01*
X111250Y131399D02*
X115098D01*
X113421Y115649D02*
X115071D01*
X111682Y132299D02*
X114986D01*
X111251Y131849D02*
X114973D01*
X108250Y147149D02*
X114967D01*
X114125Y120149D02*
X114835D01*
X114125Y126449D02*
X114667D01*
X112971Y116099D02*
X114621D01*
X108250Y146699D02*
X114517D01*
X114125Y120599D02*
X114516D01*
X114125Y125999D02*
X114469D01*
X114125Y125549D02*
X114455D01*
X114125Y125099D02*
X114455D01*
X114125Y124649D02*
X114455D01*
X114125Y124199D02*
X114455D01*
X114125Y123749D02*
X114455D01*
X114125Y123299D02*
X114455D01*
X114125Y122849D02*
X114455D01*
X114125Y122399D02*
X114455D01*
X114125Y121949D02*
X114455D01*
X114125Y121499D02*
X114455D01*
X114125Y121049D02*
X114455D01*
X112521Y116549D02*
X114171D01*
X108250Y146249D02*
X114067D01*
X112071Y116999D02*
X113721D01*
X108250Y145799D02*
X113617D01*
X111621Y117449D02*
X113271D01*
X108250Y145349D02*
X113167D01*
X111250Y130049D02*
X112882D01*
X108250Y149399D02*
X112879D01*
X111250Y117899D02*
X112821D01*
X108250Y144899D02*
X112717D01*
X112132Y132749D02*
X112612D01*
X110250Y134999D02*
X112544D01*
X111665Y152099D02*
X112377D01*
X111250Y118349D02*
X112374D01*
X108250Y144449D02*
X112267D01*
X108250Y149849D02*
X112163D01*
X111250Y118799D02*
X112147D01*
X111250Y126899D02*
X112125D01*
X111250Y126449D02*
X112125D01*
X111250Y125999D02*
X112125D01*
X111250Y125549D02*
X112125D01*
X111250Y125099D02*
X112125D01*
X111250Y124649D02*
X112125D01*
X111250Y124199D02*
X112125D01*
X111250Y123749D02*
X112125D01*
X111250Y123299D02*
X112125D01*
X111250Y122849D02*
X112125D01*
X111250Y122399D02*
X112125D01*
X111250Y121949D02*
X112125D01*
X111250Y121499D02*
X112125D01*
X111250Y121049D02*
X112125D01*
X111250Y120599D02*
X112125D01*
X111250Y120149D02*
X112125D01*
X111250Y119699D02*
X112125D01*
X111250Y119249D02*
X112125D01*
X111250Y127349D02*
X112123D01*
X111250Y129599D02*
X112019D01*
X109937Y151649D02*
X111979D01*
X108587Y150299D02*
X111883D01*
X108250Y143999D02*
X111817D01*
X109487Y151199D02*
X111805D01*
X109037Y150749D02*
X111776D01*
X111250Y127799D02*
X111773D01*
X111250Y129149D02*
X111717D01*
X111250Y128249D02*
X111614D01*
X111250Y128699D02*
X111597D01*
X110250Y134549D02*
X111104D01*
X110250Y134099D02*
X110654D01*
X108735Y160199D02*
X109763D01*
X108250Y143549D02*
X109330D01*
X108467Y159749D02*
X109304D01*
X108250Y143099D02*
X108880D01*
X107808Y159299D02*
X108854D01*
X108250Y142649D02*
X108430D01*
X103020Y158849D02*
X108404D01*
X103020Y158399D02*
X107954D01*
X103020Y157949D02*
X107504D01*
X103020Y157499D02*
X107054D01*
X103020Y159299D02*
X106792D01*
X103020Y157049D02*
X106604D01*
X104971Y161999D02*
X106403D01*
X103020Y166049D02*
X106206D01*
X103020Y156599D02*
X106154D01*
X103020Y159749D02*
X106133D01*
X104521Y161549D02*
X105986D01*
X103171Y160199D02*
X105865D01*
X104071Y161099D02*
X105803D01*
X103621Y160649D02*
X105766D01*
X103020Y165599D02*
X105743D01*
X103020Y156149D02*
X105704D01*
X103020Y165149D02*
X105293D01*
X103020Y155699D02*
X105254D01*
X103020Y164699D02*
X104843D01*
X103020Y155249D02*
X104804D01*
X103020Y164249D02*
X104393D01*
X103020Y154799D02*
X104354D01*
X103020Y163799D02*
X103943D01*
X103020Y154349D02*
X103904D01*
X103020Y163349D02*
X103493D01*
X103020Y153899D02*
X103454D01*
X103004Y103049D02*
X114189D01*
X103020Y103499D02*
X113804D01*
X103020Y103949D02*
X113354D01*
X103020Y104399D02*
X112904D01*
X103020Y104849D02*
X112454D01*
X103020Y105299D02*
X112004D01*
X103020Y105749D02*
X111554D01*
X103020Y106199D02*
X111104D01*
X103020Y106649D02*
X110654D01*
X103020Y107099D02*
X110204D01*
X103020Y107549D02*
X109754D01*
X103020Y107999D02*
X109304D01*
X103020Y108449D02*
X108854D01*
X103020Y108899D02*
X108404D01*
X103020Y109349D02*
X107954D01*
X103020Y109799D02*
X107504D01*
X103020Y110249D02*
X107054D01*
X103020Y110699D02*
X106604D01*
X103020Y111149D02*
X106154D01*
X103020Y111599D02*
X105704D01*
X103020Y112049D02*
X105254D01*
X101250Y102599D02*
X104910D01*
X101250Y102149D02*
X104910D01*
X101250Y101699D02*
X104910D01*
X103020Y112499D02*
X104804D01*
X103020Y112949D02*
X104354D01*
X103020Y113399D02*
X103904D01*
X103020Y113849D02*
X103464D01*
X103020Y114299D02*
X103264D01*
X103083Y117449D02*
X103250D01*
X103020Y116999D02*
X103250D01*
X103020Y116549D02*
X103250D01*
X103020Y116099D02*
X103250D01*
X103020Y115649D02*
X103250D01*
X103020Y115199D02*
X103250D01*
X103020Y114749D02*
X103250D01*
G54D101*
X100000Y170906D03*
Y165906D03*
Y160906D03*
Y155906D03*
Y150906D03*
Y145906D03*
Y140906D03*
Y135906D03*
Y130906D03*
Y125906D03*
Y120906D03*
Y115906D03*
Y110906D03*
Y105906D03*
X107933Y100000D03*
X112933D03*
X117933D03*
X122933D03*
X127933D03*
X132933D03*
X137933D03*
X142933D03*
X147933D03*
X152933D03*
X157933D03*
X162933D03*
X170866Y105906D03*
Y110906D03*
Y115906D03*
Y120906D03*
Y125906D03*
Y130906D03*
Y135906D03*
Y140906D03*
Y145906D03*
Y150906D03*
Y155906D03*
Y160906D03*
Y165906D03*
Y170906D03*
G54D183*
X113125Y128531D03*
X129500Y127281D03*
X116500Y132031D03*
X126375Y128281D03*
X117941Y118457D03*
X121000Y125031D03*
X122550Y115100D03*
X118625Y122781D03*
X123375Y127156D03*
X135350Y109750D03*
X135183Y118000D03*
X134625Y125406D03*
X122000Y113031D03*
X110000Y105281D03*
X102125Y102156D03*
X105248Y105506D03*
X105250Y110906D03*
X112750Y117156D03*
X119500Y116031D03*
X121875Y122000D03*
X117089Y124790D03*
X112250Y131781D03*
X163850Y130700D03*
X148500Y114866D03*
X141500Y108125D03*
X147543Y119666D03*
X160430Y109936D03*
X143750Y107125D03*
X165665Y125860D03*
X167875Y101906D03*
X163420Y105436D03*
X165690Y110636D03*
X162060Y112926D03*
X159200Y116600D03*
X162433Y120000D03*
X160308Y123250D03*
X163222Y128075D03*
X140875Y121406D03*
X139808Y125375D03*
X146500Y105156D03*
X142020Y105246D03*
X138750Y107281D03*
X138320Y112786D03*
X148570Y112296D03*
X146430Y117812D03*
X148058Y124625D03*
X137150Y129450D03*
X145800Y129800D03*
X153000Y129850D03*
X158500D03*
X119558Y149875D03*
X130100Y157050D03*
X123433Y157625D03*
X134400Y157050D03*
X132250D03*
X113625Y133906D03*
X119558Y154250D03*
X110808Y153375D03*
X112433Y154875D03*
X111558Y156875D03*
X107300Y160750D03*
X132800Y163250D03*
X121183Y157625D03*
X119683Y152125D03*
X105308Y161375D03*
X107558Y163250D03*
X111200Y163500D03*
X135984Y149776D03*
X133031Y152729D03*
X119183Y156375D03*
X126558Y157125D03*
X127126Y152729D03*
X124190Y149776D03*
X127130D03*
X127100Y143276D03*
X116000Y134300D03*
X110800Y138551D03*
X130600Y163050D03*
X110933Y151125D03*
X109200Y149400D03*
X108875Y144281D03*
X111614Y144942D03*
X120137Y144502D03*
X120183Y141750D03*
X120203Y139073D03*
X123130Y137776D03*
X127100D03*
X117450Y167000D03*
X122185Y167357D03*
X126600Y167350D03*
X132150Y166010D03*
X129900Y137776D03*
X130078Y149776D03*
X133030D03*
X133000Y143281D03*
Y137776D03*
X135880D03*
X136560Y168053D03*
X134352Y170179D03*
X128398Y169802D03*
X119550Y169900D03*
X113308Y150875D03*
X157023Y168337D03*
X161900Y142050D03*
X152150Y148800D03*
X140380Y145106D03*
X140375Y151406D03*
X141000Y149406D03*
X147510Y144130D03*
X151500Y138300D03*
X140000Y153500D03*
X147000Y142000D03*
X139132Y165437D03*
X153834Y169552D03*
X149550Y155300D03*
X163700Y143350D03*
X162000Y139450D03*
X165700Y136250D03*
X151750Y159150D03*
X142783Y160365D03*
X146404Y165301D03*
X145742Y162930D03*
X148142Y162429D03*
X148587Y164655D03*
X148017Y166916D03*
X149700Y135200D03*
X154300D03*
X160400Y158300D03*
X162800Y158000D03*
X164250Y148150D03*
X165700Y150000D03*
X164250Y152100D03*
X165700Y154250D03*
Y157000D03*
Y160150D03*
X161900D03*
X158700Y160200D03*
X156250Y142500D03*
X160150Y169700D03*
X160100Y165000D03*
X164850Y165050D03*
X164650Y167750D03*
X165000Y170906D03*
X158500Y135200D03*
X159050Y139500D03*
X155500D03*
X152683Y140125D03*
X151933Y142500D03*
X152058Y145000D03*
X150200Y146500D03*
X150150Y150500D03*
X151750Y156850D03*
X154550Y157800D03*
X155200Y160150D03*
Y165000D03*
X153815Y167197D03*
X150813Y164759D03*
X151831Y170627D03*
X152953Y172249D03*
X145900Y172350D03*
X143600Y171800D03*
X143184Y169655D03*
X141235Y167762D03*
X138903Y168982D03*
X146720Y149550D03*
X146677Y156543D03*
X140490Y141336D03*
X134375Y175531D03*
X130875Y173031D03*
X128125Y175531D03*
X125000Y172906D03*
X119750D03*
X121750Y175281D03*
X117125D03*
X114625Y173031D03*
X111750Y175281D03*
X109500Y173000D03*
X107375Y175281D03*
X105000Y173000D03*
X102384Y174638D03*
X140000Y175531D03*
X144375D03*
X140561Y172877D03*
X159625Y175125D03*
X163000Y175100D03*
X157331Y172786D03*
X161451Y172831D03*
X166300Y173106D03*
X168696Y174306D03*
X153919Y174061D03*
X154883Y175829D03*
X148878Y175934D03*
X147500Y174000D03*
X136750Y173031D03*
G74*
X0Y0D02*
M02*
