M48
;FILE_FORMAT=2:4
INCH,LZ
FMAT,2
ICI,OFF
;TYPE=PLATED
T1C.00984
T2C.02165
%
M72
G90
G93X0Y0
T1C.00984F0S0
X010213Y010216
X011Y010528
X010525Y010551
X010525Y011091
X0122Y011303
X012255Y01151
X01195Y011603
X011275Y011716
X011794Y011846
X012188Y0122
X011863Y012278
X011709Y012479
X0121Y012503
X012338Y012716
X011313Y012853
X011225Y013178
X01165Y013203
X011363Y013391
X0116Y01343
X012313Y013778
X01108Y013855
X01202Y013907
X012018Y014175
X010888Y014428
X012014Y01445
X011161Y014494
X01092Y01494
X012419Y014978
X011956Y014988
X011331Y015088
X011093Y015113
X011968Y015213
X011081Y015338
X011956Y015425
X011243Y015488
X011918Y015638
X011156Y015688
X012118Y015763
X012343Y015763
X01073Y016075
X010531Y016138
X010756Y016325
X01112Y01635
X011745Y0167
X012218Y016736
X011955Y01699
X011975Y017291
X01095Y0173
X0105Y0173
X011463Y017303
X010238Y017464
X012175Y017528
X010738Y017528
X011713Y017528
X011175Y017528
X014888Y017593
X013438Y017553
X012813Y017553
X014Y017553
X014438Y017553
X01475Y0174
X013088Y017303
X013675Y017303
X0125Y017291
X014056Y017288
X01459Y017235
X01436Y01718
X013435Y017018
X01284Y01698
X014318Y016966
X01389Y016898
X013656Y016805
X014124Y016776
X01266Y016735
X014802Y016692
X013215Y016601
X013913Y016544
X01464Y01653
X014859Y016466
X01328Y016325
X01306Y016305
X014574Y016293
X014814Y016243
X014278Y016037
X012656Y015713
X01301Y015705
X01344Y015705
X013225Y015705
X014668Y015654
X014955Y01553
X014Y01535
X012713Y015273
X013303Y015273
X014038Y015141
X013008Y014978
X013598Y014978
X013303Y014978
X012713Y014978
X014672Y014955
X0141Y014941
X014038Y014511
X014751Y014413
X0133Y014328
X01271Y014328
X0147Y0142
X014049Y014134
X0133Y013778
X01299Y013778
X013588Y013778
X01271Y013778
X01497Y01352
X01458Y01298
X013715Y012945
X012638Y012828
X01295Y012728
X013463Y012541
X013981Y012538
X014806Y012463
X014088Y012141
X014754Y011967
X013518Y0118
X014643Y011781
X01485Y011487
X013832Y011279
X014857Y01123
X013535Y010975
X01415Y010813
X013875Y010728
X014375Y010713
X014202Y010525
X01465Y010516
X016788Y010191
X016342Y010544
X016043Y010994
X016569Y011064
X016206Y011293
X01592Y01166
X016243Y012
X016031Y012325
X016567Y012586
X016322Y012808
X0153Y012985
X01585Y012985
X016385Y01307
X01585Y01352
X01543Y01352
X01657Y013625
X01515Y01383
X0162Y013945
X015905Y01395
X01555Y01395
X015268Y014013
X01619Y014205
X015193Y01425
X015625Y01425
X01637Y014335
X015206Y0145
X01502Y01465
X016425Y014815
X015215Y01488
X01657Y015
X015015Y01505
X016425Y01521
X01657Y015425
X015175Y015685
X01657Y0157
X015455Y01578
X01628Y0158
X01604Y01583
X015175Y015915
X01619Y016015
X01657Y016015
X01552Y016015
X01587Y01602
X015081Y016476
X01552Y0165
X01601Y0165
X016485Y016505
X015382Y01672
X016465Y016775
X015702Y016834
X015383Y016955
X016015Y01697
X015183Y017063
X0165Y017091
X015295Y017225
X015733Y017279
X016145Y017283
X01663Y017311
X015392Y017406
X01687Y017431
X0163Y01751
X015963Y017513
X015488Y017583
T2C.02165F197S55
X010793Y01
X011293Y01
X011793Y01
X012293Y01
X01Y010591
X01Y011091
X01Y011591
X01Y012091
X01Y012591
X01Y013091
X01Y013591
X01Y014091
X01Y014591
X01Y015091
X01Y015591
X01Y016091
X01Y016591
X01Y017091
X012793Y01
X013293Y01
X013793Y01
X014293Y01
X014793Y01
X015293Y01
X015793Y01
X016293Y01
X017087Y010591
X017087Y011091
X017087Y011591
X017087Y012091
X017087Y012591
X017087Y013091
X017087Y013591
X017087Y014091
X017087Y014591
X017087Y015091
X017087Y015591
X017087Y016091
X017087Y016591
X017087Y017091
M30
