*
*
G04 PADS VX.2 Build Number: 5060570 generated Gerber (RS-274-X) file*
G04 PC Version=2.1*
*
%IN "PCB_ESP32-S3-WROOM-1_V1"*%
*
%MOIN*%
*
%FSLAX35Y35*%
*
*
*
*
G04 PC Standard Apertures*
*
*
G04 Thermal Relief Aperture macro.*
%AMTER*
1,1,$1,0,0*
1,0,$1-$2,0,0*
21,0,$3,$4,0,0,45*
21,0,$3,$4,0,0,135*
%
*
*
G04 Annular Aperture macro.*
%AMANN*
1,1,$1,0,0*
1,0,$2,0,0*
%
*
*
G04 Odd Aperture macro.*
%AMODD*
1,1,$1,0,0*
1,0,$1-0.005,0,0*
%
*
*
G04 PC Custom Aperture Macros*
*
*
*
*
*
*
G04 PC Aperture Table*
*
%ADD010C,0.001*%
%ADD030C,0.01*%
%ADD038C,0.004*%
%ADD116C,0.002*%
%ADD117C,0.02362*%
*
*
*
*
G04 PC Circuitry*
G04 Layer Name PCB_ESP32-S3-WROOM-1_V1 - circuitry*
%LPD*%
*
*
G04 PC Custom Flashes*
G04 Layer Name PCB_ESP32-S3-WROOM-1_V1 - flashes*
%LPD*%
*
*
G04 PC Circuitry*
G04 Layer Name PCB_ESP32-S3-WROOM-1_V1 - circuitry*
%LPD*%
*
G54D10*
G54D30*
G01X152764Y158340D02*
X154170D01*
X153467Y157637*
X152764Y158340*
X100000Y200394D02*
X170866D01*
Y100000*
X100000*
Y200394*
G54D38*
X118267Y133044D02*
X116299D01*
Y135012*
X118267Y160603D02*
X116299D01*
Y158634*
X143858Y135012D02*
Y133044D01*
X141889*
X143858Y158437D02*
Y158634D01*
X141889Y160603*
X141693*
X144569D02*
G75*
G03X144569I-711J0D01*
G01X163859Y156804D02*
Y143690D01*
X152366*
Y156804*
X163859*
X148339Y106405D02*
Y126995D01*
X134339*
Y106405*
X139839*
X142839D02*
G03X139839I-1500J-0D01*
G01X142839D02*
X148339D01*
X147407Y109190D02*
G03X147407I-800J0D01*
G01X114400Y166306D02*
Y164106D01*
X114001Y163706*
X111813*
X111400Y164119*
Y166306*
X114400Y168306D02*
Y170506D01*
X114000Y170906*
X111800*
X111400Y170506*
Y168306*
G54D116*
X110966Y164517D02*
X107029D01*
X110966Y167617D02*
Y169782D01*
X107029*
Y167617*
Y166829D02*
Y164073D01*
X110966*
Y166829*
X145921Y170796D02*
X145065Y171651D01*
X144783*
X143510Y170378*
Y170095*
X144365Y169240*
X146756Y169961D02*
X147611Y169105D01*
Y168823*
X146338Y167550*
X146055*
X145200Y168405*
X148069Y139591D02*
Y140800D01*
X147869Y141000*
X146069*
X145869Y140800*
Y139591*
X148069Y138409D02*
Y137200D01*
X147869Y137000*
X146069*
X145869Y137200*
Y138409*
X148459Y157950D02*
X147250D01*
X147050Y157750*
Y155950*
X147250Y155750*
X148459*
X149641Y157950D02*
X150850D01*
X151050Y157750*
Y155950*
X150850Y155750*
X149641*
X117000Y169341D02*
Y170550D01*
X116800Y170750*
X115000*
X114800Y170550*
Y169341*
X117000Y168159D02*
Y166950D01*
X116800Y166750*
X115000*
X114800Y166950*
Y168159*
X112399Y148275D02*
X113608D01*
X113808Y148475*
Y150275*
X113608Y150475*
X112399*
X111218Y148275D02*
X110008D01*
X109808Y148475*
Y150275*
X110008Y150475*
X111218*
X130900Y169341D02*
Y170550D01*
X130700Y170750*
X128900*
X128700Y170550*
Y169341*
X130900Y168159D02*
Y166950D01*
X130700Y166750*
X128900*
X128700Y166950*
Y168159*
X119053Y110133D02*
Y108923D01*
X119253Y108723*
X121053*
X121253Y108923*
Y110133*
X119053Y111314D02*
Y112523D01*
X119253Y112723*
X121053*
X121253Y112523*
Y111314*
X159591Y141000D02*
X160800D01*
X161000Y141200*
Y143000*
X160800Y143200*
X159591*
X158409Y141000D02*
X157200D01*
X157000Y141200*
Y143000*
X157200Y143200*
X158409*
X141889Y162311D02*
X142744Y161456D01*
X143027*
X144300Y162729*
Y163012*
X143445Y163867*
X141054Y163146D02*
X140199Y164002D01*
Y164284*
X141471Y165557*
X141754*
X142609Y164702*
X117725Y128121D02*
Y129331D01*
X117525Y129531*
X115725*
X115525Y129331*
Y128121*
X117725Y126940D02*
Y125731D01*
X117525Y125531*
X115725*
X115525Y125731*
Y126940*
X148459Y160400D02*
X147250D01*
X147050Y160200*
Y158400*
X147250Y158200*
X148459*
X149641Y160400D02*
X150850D01*
X151050Y160200*
Y158400*
X150850Y158200*
X149641*
X156859Y159500D02*
X155650D01*
X155450Y159300*
Y157500*
X155650Y157300*
X156859*
X158041Y159500D02*
X159250D01*
X159450Y159300*
Y157500*
X159250Y157300*
X158041*
X135628Y166675D02*
X134772Y165820D01*
Y165537*
X136045Y164264*
X136328*
X137183Y165120*
X136463Y167510D02*
X137318Y168366D01*
X137601*
X138874Y167093*
Y166810*
X138018Y165955*
X141732Y165940D02*
X144516Y168724D01*
X146075Y167165*
X143291Y164381*
X141732Y165940*
X132775Y169718D02*
X135558Y166935D01*
X133999Y165376*
X131216Y168159*
X132775Y169718*
X122427Y128071D02*
Y129449D01*
X120223*
Y128071*
X122427Y126890D02*
Y125512D01*
X120223*
Y126890*
X149641Y152298D02*
X151019D01*
Y154502*
X149641*
X148459Y152298D02*
X147081D01*
Y154502*
X148459*
X149352Y148791D02*
Y150169D01*
X147148*
Y148791*
X149352Y147609D02*
Y146231D01*
X147148*
Y147609*
X150802Y139591D02*
Y140969D01*
X148598*
Y139591*
X150802Y138409D02*
Y137031D01*
X148598*
Y138409*
X119870Y120002D02*
X118492D01*
Y117798*
X119870*
X121052Y120002D02*
X122430D01*
Y117798*
X121052*
X120177Y128071D02*
Y129449D01*
X117973*
Y128071*
X120177Y126890D02*
Y125512D01*
X117973*
Y126890*
X115947Y129919D02*
X116921Y130893D01*
X115362Y132452*
X114388Y131478*
X115112Y129083D02*
X114138Y128109D01*
X112579Y129668*
X113553Y130642*
X131237Y130353D02*
X130263Y131327D01*
X128704Y129768*
X129678Y128794*
X132072Y129517D02*
X133046Y128543D01*
X131487Y126984*
X130513Y127958*
X148126Y172125D02*
X150909Y169342D01*
X149350Y167783*
X146567Y170566*
X148126Y172125*
X151347Y165763D02*
X152202Y164907D01*
X152485*
X153758Y166180*
Y166463*
X152902Y167318*
X150512Y166598D02*
X149656Y167453D01*
Y167736*
X150929Y169009*
X151212*
X152067Y168153*
G54D117*
X166604Y114500D02*
Y132500D01*
X105037Y125000D02*
Y170000D01*
Y104531D02*
Y108050D01*
G74*
X0Y0D02*
M02*
