*
*
G04 PADS VX.2 Build Number: 5060570 generated Gerber (RS-274-X) file*
G04 PC Version=2.1*
*
%IN "PCB_ESP32-S3-WROOM-1_V1"*%
*
%MOIN*%
*
%FSLAX35Y35*%
*
*
*
*
G04 PC Standard Apertures*
*
*
G04 Thermal Relief Aperture macro.*
%AMTER*
1,1,$1,0,0*
1,0,$1-$2,0,0*
21,0,$3,$4,0,0,45*
21,0,$3,$4,0,0,135*
%
*
*
G04 Annular Aperture macro.*
%AMANN*
1,1,$1,0,0*
1,0,$2,0,0*
%
*
*
G04 Odd Aperture macro.*
%AMODD*
1,1,$1,0,0*
1,0,$1-0.005,0,0*
%
*
*
G04 PC Custom Aperture Macros*
*
*
*
*
*
*
G04 PC Aperture Table*
*
%ADD010C,0.001*%
%ADD030C,0.01*%
%ADD036C,0.006*%
%ADD119R,0.03743X0.03743*%
%ADD130R,0.06893X0.03743*%
%ADD131R,0.03743X0.06893*%
*
*
*
*
G04 PC Circuitry*
G04 Layer Name PCB_ESP32-S3-WROOM-1_V1 - circuitry*
%LPD*%
*
*
G04 PC Custom Flashes*
G04 Layer Name PCB_ESP32-S3-WROOM-1_V1 - flashes*
%LPD*%
*
*
G04 PC Circuitry*
G04 Layer Name PCB_ESP32-S3-WROOM-1_V1 - circuitry*
%LPD*%
*
G54D10*
G54D30*
G01X100000Y200394D02*
X170866D01*
Y100000*
X100000*
Y200394*
G54D36*
X125568Y147599D02*
X122425D01*
Y144456*
X125568*
Y147599*
X122500Y144456D02*
Y147599D01*
X122800Y144456D02*
Y147599D01*
X123100Y144456D02*
Y147599D01*
X123400Y144456D02*
Y147599D01*
X123700Y144456D02*
Y147599D01*
X124000Y144456D02*
Y147599D01*
X124300Y144456D02*
Y147599D01*
X124600Y144456D02*
Y147599D01*
X124900Y144456D02*
Y147599D01*
X125200Y144456D02*
Y147599D01*
X125500Y144456D02*
Y147599D01*
X131080D02*
X127936D01*
Y144456*
X131080*
Y147599*
X128200Y144456D02*
Y147599D01*
X128500Y144456D02*
Y147599D01*
X128800Y144456D02*
Y147599D01*
X129100Y144456D02*
Y147599D01*
X129400Y144456D02*
Y147599D01*
X129700Y144456D02*
Y147599D01*
X130000Y144456D02*
Y147599D01*
X130300Y144456D02*
Y147599D01*
X130600Y144456D02*
Y147599D01*
X130900Y144456D02*
Y147599D01*
X136591D02*
X133448D01*
Y144456*
X136591*
Y147599*
X133600Y144456D02*
Y147599D01*
X133900Y144456D02*
Y147599D01*
X134200Y144456D02*
Y147599D01*
X134500Y144456D02*
Y147599D01*
X134800Y144456D02*
Y147599D01*
X135100Y144456D02*
Y147599D01*
X135400Y144456D02*
Y147599D01*
X135700Y144456D02*
Y147599D01*
X136000Y144456D02*
Y147599D01*
X136300Y144456D02*
Y147599D01*
X136591Y142087D02*
X133448D01*
Y138944*
X136591*
Y142087*
X133600Y138944D02*
Y142087D01*
X133900Y138944D02*
Y142087D01*
X134200Y138944D02*
Y142087D01*
X134500Y138944D02*
Y142087D01*
X134800Y138944D02*
Y142087D01*
X135100Y138944D02*
Y142087D01*
X135400Y138944D02*
Y142087D01*
X135700Y138944D02*
Y142087D01*
X136000Y138944D02*
Y142087D01*
X136300Y138944D02*
Y142087D01*
X136591Y136575D02*
X133448D01*
Y133432*
X136591*
Y136575*
X133600Y133432D02*
Y136575D01*
X133900Y133432D02*
Y136575D01*
X134200Y133432D02*
Y136575D01*
X134500Y133432D02*
Y136575D01*
X134800Y133432D02*
Y136575D01*
X135100Y133432D02*
Y136575D01*
X135400Y133432D02*
Y136575D01*
X135700Y133432D02*
Y136575D01*
X136000Y133432D02*
Y136575D01*
X136300Y133432D02*
Y136575D01*
X131080D02*
X127936D01*
Y133432*
X131080*
Y136575*
X128200Y133432D02*
Y136575D01*
X128500Y133432D02*
Y136575D01*
X128800Y133432D02*
Y136575D01*
X129100Y133432D02*
Y136575D01*
X129400Y133432D02*
Y136575D01*
X129700Y133432D02*
Y136575D01*
X130000Y133432D02*
Y136575D01*
X130300Y133432D02*
Y136575D01*
X130600Y133432D02*
Y136575D01*
X130900Y133432D02*
Y136575D01*
X125568D02*
X122425D01*
Y133432*
X125568*
Y136575*
X122500Y133432D02*
Y136575D01*
X122800Y133432D02*
Y136575D01*
X123100Y133432D02*
Y136575D01*
X123400Y133432D02*
Y136575D01*
X123700Y133432D02*
Y136575D01*
X124000Y133432D02*
Y136575D01*
X124300Y133432D02*
Y136575D01*
X124600Y133432D02*
Y136575D01*
X124900Y133432D02*
Y136575D01*
X125200Y133432D02*
Y136575D01*
X125500Y133432D02*
Y136575D01*
X125568Y142087D02*
X122425D01*
Y138944*
X125568*
Y142087*
X122500Y138944D02*
Y142087D01*
X122800Y138944D02*
Y142087D01*
X123100Y138944D02*
Y142087D01*
X123400Y138944D02*
Y142087D01*
X123700Y138944D02*
Y142087D01*
X124000Y138944D02*
Y142087D01*
X124300Y138944D02*
Y142087D01*
X124600Y138944D02*
Y142087D01*
X124900Y138944D02*
Y142087D01*
X125200Y138944D02*
Y142087D01*
X125500Y138944D02*
Y142087D01*
G54D119*
X129508Y140516D03*
G54D130*
X100000Y170906D03*
Y165906D03*
Y160906D03*
Y155906D03*
Y150906D03*
Y145906D03*
Y140906D03*
Y135906D03*
Y130906D03*
Y125906D03*
Y120906D03*
Y115906D03*
Y110906D03*
Y105906D03*
X170866D03*
Y110906D03*
Y115906D03*
Y120906D03*
Y125906D03*
Y130906D03*
Y135906D03*
Y140906D03*
Y145906D03*
Y150906D03*
Y155906D03*
Y160906D03*
Y165906D03*
Y170906D03*
G54D131*
X107933Y100000D03*
X112933D03*
X117933D03*
X122933D03*
X127933D03*
X132933D03*
X137933D03*
X142933D03*
X147933D03*
X152933D03*
X157933D03*
X162933D03*
X0Y0D02*
M02*
