*
*
G04 PADS VX.2 Build Number: 5060570 generated Gerber (RS-274-X) file*
G04 PC Version=2.1*
*
%IN "PCB_ESP32-S3-WROOM-1U_V"*%
*
%MOIN*%
*
%FSLAX35Y35*%
*
*
*
*
G04 PC Standard Apertures*
*
*
G04 Thermal Relief Aperture macro.*
%AMTER*
1,1,$1,0,0*
1,0,$1-$2,0,0*
21,0,$3,$4,0,0,45*
21,0,$3,$4,0,0,135*
%
*
*
G04 Annular Aperture macro.*
%AMANN*
1,1,$1,0,0*
1,0,$2,0,0*
%
*
*
G04 Odd Aperture macro.*
%AMODD*
1,1,$1,0,0*
1,0,$1-0.005,0,0*
%
*
*
G04 PC Custom Aperture Macros*
*
*
*
*
*
*
G04 PC Aperture Table*
*
%ADD010C,0.001*%
%ADD024C,0.005*%
%ADD059R,0.03543X0.03543*%
%ADD310C,0.01575*%
*
*
*
*
G04 PC Circuitry*
G04 Layer Name PCB_ESP32-S3-WROOM-1U_V - circuitry*
%LPD*%
*
*
G04 PC Custom Flashes*
G04 Layer Name PCB_ESP32-S3-WROOM-1U_V - flashes*
%LPD*%
*
*
G04 PC Circuitry*
G04 Layer Name PCB_ESP32-S3-WROOM-1U_V - circuitry*
%LPD*%
*
G54D10*
G54D24*
G01X2034241Y1602403D02*
G75*
G03X2034241I-1537J0D01*
G01Y1606803D02*
G03X2034241I-1537J0D01*
G01X2030471Y1584739D02*
G03X2030471I-1537J0D01*
G01X2018541Y1589669D02*
G03X2018541I-1537J0D01*
G01X2021491Y1609153D02*
G03X2021491I-1537J0D01*
G01X2017585Y1594469D02*
G03X2017585I-1538J0D01*
G01X2019211Y1618263D02*
G03X2019211I-1537J0D01*
G01X2018426Y1630594D02*
G03X2018426I-1537J0D01*
G01X2009141Y1585453D02*
G03X2009141I-1537J0D01*
G01X2009341Y1610753D02*
G03X2009341I-1537J0D01*
G01X1999541Y1602084D02*
G03X1999541I-1537J0D01*
G01X2002844Y1638047D02*
G03X2002844I-1537J0D01*
G01X1992441Y1590603D02*
G03X1992441I-1537J0D01*
G01X1987982Y1593260D02*
G03X1987982I-1537J0D01*
G01X1988666Y1597584D02*
G03X1988666I-1537J0D01*
G01X1991041Y1599834D02*
G03X1991041I-1537J0D01*
G01X1993441Y1602403D02*
G03X1993441I-1537J0D01*
G01X1996416Y1603603D02*
G03X1996416I-1537J0D01*
G01X1997116Y1644606D02*
G03X1997116I-1537J0D01*
G01X1986541Y1606834D02*
G03X1986541I-1537J0D01*
G01X1990100Y1644678D02*
G03X1990100I-1538J0D01*
G01X1983166Y1603334D02*
G03X1983166I-1537J0D01*
G01X1983691Y1608303D02*
G03X1983691I-1537J0D01*
G01X1977641Y1636653D02*
G03X1977641I-1537J0D01*
G01X2038120Y1649080D02*
G03X2038057Y1649144I-63J0D01*
G01X1969817*
G03X1969754Y1649080I0J-64*
G01Y1644258*
G03X1969817Y1644195I63J0*
G01X1971274*
X1971524Y1643945D02*
G03X1971274Y1644195I-250J-0D01*
G01X1971524Y1643945D02*
Y1577939D01*
X1971274Y1577689D02*
G03X1971524Y1577939I-0J250D01*
G01X1971274Y1577689D02*
X1969817D01*
G03X1969754Y1577625I0J-64*
G01Y1576117*
G03X1969817Y1576053I63J-0*
G01X1973350*
G03X1973414Y1576117I0J64*
G01Y1577569*
X1973664Y1577819D02*
G03X1973414Y1577569I-0J-250D01*
G01X1973664Y1577819D02*
X2034204D01*
X2034454Y1577569D02*
G03X2034204Y1577819I-250J-0D01*
G01X2034454Y1577569D02*
Y1576117D01*
G03X2034517Y1576053I63J-0*
G01X2038057*
G03X2038120Y1576117I-0J64*
G01Y1577395*
G03X2038057Y1577459I-63J0*
G01X2036600*
X2036350Y1577709D02*
G03X2036600Y1577459I250J-0D01*
G01X2036350Y1577709D02*
Y1643953D01*
X2036600Y1644203D02*
G03X2036350Y1643953I-0J-250D01*
G01X2036600Y1644203D02*
X2038057D01*
G03X2038120Y1644266I-0J63*
G01Y1649080*
X2034241Y1602403D02*
G03X2034241I-1537J0D01*
G01Y1606803D02*
G03X2034241I-1537J0D01*
G01X2030471Y1584739D02*
G03X2030471I-1537J0D01*
G01X2018541Y1589669D02*
G03X2018541I-1537J0D01*
G01X2021491Y1609153D02*
G03X2021491I-1537J0D01*
G01X2017585Y1594469D02*
G03X2017585I-1538J0D01*
G01X2019211Y1618263D02*
G03X2019211I-1537J0D01*
G01X2018426Y1630594D02*
G03X2018426I-1537J0D01*
G01X2019985Y1632818D02*
G03X2021921Y1634303I399J1485D01*
G01X2019985Y1632818D02*
G03X2019911Y1632783I-16J-61D01*
G01X2016966Y1633403D02*
G03X2019911Y1632783I1538J0D01*
G01X2018903Y1634888D02*
G03X2016966Y1633403I-399J-1485D01*
G01X2018903Y1634888D02*
G03X2018977Y1634924I16J61D01*
G01X2021921Y1634303D02*
G03X2018977Y1634924I-1537J0D01*
G01X2032254Y1644453D02*
Y1637003D01*
X2032004Y1636753D02*
G03X2032254Y1637003I-0J250D01*
G01X2032004Y1636753D02*
X2019504D01*
X2019254Y1637003D02*
G03X2019504Y1636753I250J0D01*
G01X2019254Y1637003D02*
Y1644453D01*
X2019504Y1644703D02*
G03X2019254Y1644453I-0J-250D01*
G01X2019504Y1644703D02*
X2032004D01*
X2032254Y1644453D02*
G03X2032004Y1644703I-250J0D01*
G01X2010774Y1581510D02*
G03X2013791Y1581928I1480J418D01*
G01X2010774Y1581510D02*
G03X2010685Y1581550I-61J-17D01*
G01X2008466Y1582928D02*
G03X2010685Y1581550I1538J0D01*
G01X2011484Y1583346D02*
G03X2008466Y1582928I-1480J-418D01*
G01X2011484Y1583346D02*
G03X2011573Y1583307I61J17D01*
G01X2013791Y1581928D02*
G03X2011573Y1583307I-1537J0D01*
G01X2011092Y1635375D02*
G03X2014668I1788J-0D01*
G01X2011092D02*
X2011092D01*
X2011093Y1635435D02*
G03X2011092Y1635375I1787J-60D01*
G01X2011093Y1635435D02*
G03Y1635437I-64J2D01*
X2011074Y1635482I-64J0*
G01X2010991Y1635565*
G03X2010946Y1635584I-45J-45*
G01X2010523*
X2010346Y1635657D02*
G03X2010523Y1635584I177J177D01*
G01X2010346Y1635657D02*
X2009285Y1636718D01*
X2009212Y1636895D02*
G03X2009285Y1636718I250J-0D01*
G01X2009212Y1636895D02*
Y1637950D01*
X2009285Y1638127D02*
G03X2009212Y1637950I177J-177D01*
G01X2009285Y1638127D02*
X2010347Y1639189D01*
X2010524Y1639262D02*
G03X2010347Y1639189I-0J-250D01*
G01X2010524Y1639262D02*
X2011137D01*
X2011314Y1639189D02*
G03X2011137Y1639262I-177J-177D01*
G01X2011314Y1639189D02*
X2012593Y1637910D01*
X2012666Y1637733D02*
G03X2012593Y1637910I-250J-0D01*
G01X2012666Y1637733D02*
Y1637314D01*
G03X2012684Y1637269I63J-0*
G01X2012773Y1637181*
G03X2012820Y1637162I45J44*
G01X2014668Y1635375D02*
G03X2012820Y1637162I-1788J-0D01*
G01X2009141Y1585453D02*
G03X2009141I-1537J0D01*
G01X2009341Y1610753D02*
G03X2009341I-1537J0D01*
G01X2009648Y1616856D02*
G03X2010391Y1618173I-794J1317D01*
G01X2009648Y1616856D02*
G03X2009617Y1616802I33J-54D01*
X2009622Y1616777I64J0*
G01X2009741Y1616183D02*
G03X2009622Y1616777I-1537J0D01*
G01X2006666Y1616183D02*
G03X2009741I1538J0D01*
G01X2007410Y1617500D02*
G03X2006666Y1616183I794J-1317D01*
G01X2007410Y1617500D02*
G03X2007441Y1617554I-33J54D01*
X2007436Y1617579I-64J0*
G01X2007316Y1618173D02*
G03X2007436Y1617579I1538J0D01*
G01X2008618Y1619692D02*
G03X2007316Y1618173I236J-1519D01*
G01X2008618Y1619693D02*
G03X2008637Y1619699I-10J62D01*
X2008658Y1619698I12J62*
G01X2010391Y1618173D02*
G03X2008658Y1619698I-1537J0D01*
G01X2008640Y1619824D02*
G03X2009941Y1621343I-236J1519D01*
G01X2008640Y1619824D02*
G03X2008621Y1619818I9J-63D01*
G01X2008620D02*
G03X2008600I-12J-63D01*
G01X2006866Y1621343D02*
G03X2008600Y1619818I1538J0D01*
G01X2009941Y1621343D02*
G03X2006866I-1537J0D01*
G01X2007816Y1624403D02*
G03X2010891I1538J0D01*
G01X2007996Y1625125D02*
G03X2007816Y1624403I1358J-722D01*
G01X2007996Y1625125D02*
G03X2008004Y1625155I-56J30D01*
X2007978Y1625205I-64J-0*
G01X2007366Y1626433D02*
G03X2007978Y1625205I1538J0D01*
G01X2010441Y1626433D02*
G03X2007366I-1537J0D01*
G01X2010262Y1625711D02*
G03X2010441Y1626433I-1358J722D01*
G01X2010262Y1625711D02*
G03X2010254Y1625682I56J-29D01*
X2010279Y1625631I64J-0*
G01X2010891Y1624403D02*
G03X2010279Y1625631I-1537J0D01*
G01X1999541Y1602084D02*
G03X1999541I-1537J0D01*
G01X2001372Y1630714D02*
G03X2003941Y1631853I1032J1139D01*
G01X2001372Y1630714D02*
G03X2001286I-43J-47D01*
G01X1999222D02*
G03X2001286I1032J1139D01*
G01X1999222D02*
G03X1999136I-43J-47D01*
G01X1996566Y1631853D02*
G03X1999136Y1630714I1538J0D01*
G01Y1632993D02*
G03X1996566Y1631853I-1032J-1140D01*
G01X1999136Y1632993D02*
G03X1999222I43J47D01*
G01X2001286D02*
G03X1999222I-1032J-1140D01*
G01X2001286D02*
G03X2001372I43J47D01*
G01X2003941Y1631853D02*
G03X2001372Y1632993I-1537J0D01*
G01X2007505Y1642488D02*
Y1641919D01*
X2007432Y1641742D02*
G03X2007505Y1641919I-177J177D01*
G01X2007432Y1641742D02*
X2006181Y1640491D01*
X2006004Y1640418D02*
G03X2006181Y1640491I-0J250D01*
G01X2006004Y1640418D02*
X2005421D01*
X2005244Y1640491D02*
G03X2005421Y1640418I177J177D01*
G01X2005244Y1640491D02*
X2003783Y1641952D01*
G03X2003771Y1641962I-45J-45*
G01X2002926Y1643454D02*
G03X2003771Y1641962I1740J-0D01*
G01X2006384Y1643730D02*
G03X2002926Y1643454I-1718J-276D01*
G01X2006384Y1643730D02*
G03X2006402Y1643695I62J10D01*
G01X2007432Y1642665*
X2007505Y1642488D02*
G03X2007432Y1642665I-250J0D01*
G01X2002844Y1638047D02*
G03X2002844I-1537J0D01*
G01X1992441Y1590603D02*
G03X1992441I-1537J0D01*
G01X1987982Y1593260D02*
G03X1987982I-1537J0D01*
G01X1988666Y1597584D02*
G03X1988666I-1537J0D01*
G01X1991041Y1599834D02*
G03X1991041I-1537J0D01*
G01X1993441Y1602403D02*
G03X1993441I-1537J0D01*
G01X1996416Y1603603D02*
G03X1996416I-1537J0D01*
G01X1997116Y1644606D02*
G03X1997116I-1537J0D01*
G01X1986541Y1606834D02*
G03X1986541I-1537J0D01*
G01X1989229Y1631427D02*
G03X1989599Y1632428I-1167J1001D01*
G01X1989229Y1631427D02*
G03X1989214Y1631386I48J-41D01*
X1989229Y1631345I63J-0*
G01X1989591Y1630353D02*
G03X1989229Y1631345I-1537J0D01*
G01X1986516Y1630353D02*
G03X1989591I1538J0D01*
G01X1986887Y1631354D02*
G03X1986516Y1630353I1167J-1001D01*
G01X1986887Y1631354D02*
G03X1986902Y1631395I-48J41D01*
X1986887Y1631436I-63J0*
G01X1986558Y1632110D02*
G03X1986887Y1631436I1504J318D01*
G01X1986558Y1632110D02*
G03X1986474Y1632156I-62J-13D01*
G01X1984416Y1633603D02*
G03X1986474Y1632156I1538J0D01*
G01X1987458Y1633922D02*
G03X1984416Y1633603I-1504J-319D01*
G01X1987458Y1633922D02*
G03X1987542Y1633875I62J13D01*
G01X1989599Y1632428D02*
G03X1987542Y1633875I-1537J0D01*
G01X1990100Y1644678D02*
G03X1990100I-1538J0D01*
G01X1983166Y1603334D02*
G03X1983166I-1537J0D01*
G01X1983691Y1608303D02*
G03X1983691I-1537J0D01*
G01X1984341Y1623953D02*
X1984341D01*
X1981266D02*
G03X1984341I1538J0D01*
G01X1981503Y1624773D02*
G03X1981266Y1623953I1301J-820D01*
G01X1981503Y1624773D02*
G03X1981513Y1624807I-54J34D01*
X1981489Y1624856I-64J-0*
G01X1980917Y1626004D02*
G03X1981489Y1624856I1537J49D01*
G01X1980917Y1626004D02*
G03X1980854Y1626066I-63J-2D01*
G01X1979316Y1627603D02*
G03X1980854Y1626066I1538J0D01*
G01X1980692Y1629132D02*
G03X1979316Y1627603I162J-1529D01*
G01X1980692Y1629132D02*
G03X1980748Y1629195I-7J63D01*
X1980700Y1629257I-63J0*
G01X1979516Y1630753D02*
G03X1980700Y1629257I1538J0D01*
G01X1980861Y1632279D02*
G03X1979516Y1630753I193J-1526D01*
G01X1980861Y1632279D02*
G03X1980917Y1632340I-8J63D01*
G01X1983991Y1632303D02*
G03X1980917Y1632340I-1537J0D01*
G01X1982730Y1630791D02*
G03X1983991Y1632303I-276J1512D01*
G01X1982730Y1630791D02*
G03X1982678Y1630728I11J-63D01*
X1982730Y1630666I63J0*
G01X1983991Y1629153D02*
G03X1982730Y1630666I-1537J0D01*
G01X1982839Y1627665D02*
G03X1983991Y1629153I-385J1488D01*
G01X1982839Y1627665D02*
G03X1982791Y1627603I16J-62D01*
X1982839Y1627542I64J0*
G01X1983991Y1626053D02*
G03X1982839Y1627542I-1537J0D01*
G01X1983755Y1625234D02*
G03X1983991Y1626053I-1301J819D01*
G01X1983755Y1625234D02*
G03X1983745Y1625200I54J-34D01*
X1983769Y1625150I64J-0*
G01X1984341Y1623953D02*
G03X1983769Y1625150I-1537J0D01*
G01X1977641Y1636653D02*
G03X1977641I-1537J0D01*
G01X1978048Y1643796D02*
G03X1980641Y1644913I1056J1117D01*
G01X1978048Y1643796D02*
G03X1977960I-44J-46D01*
G01X1975366Y1644913D02*
G03X1977960Y1643796I1538J0D01*
G01Y1646030D02*
G03X1975366Y1644913I-1056J-1117D01*
G01X1977960Y1646030D02*
G03X1978048I44J46D01*
G01X1980641Y1644913D02*
G03X1978048Y1646030I-1537J0D01*
G01X1969754Y1648952D02*
X2038120D01*
X1969754Y1648502D02*
X2038120D01*
X1969754Y1648052D02*
X2038120D01*
X1969754Y1647602D02*
X2038120D01*
X1969754Y1647152D02*
X2038120D01*
X1969754Y1646702D02*
X2038120D01*
X1979860Y1646252D02*
X2038120D01*
X1996546Y1645802D02*
X2038120D01*
X1996924Y1645352D02*
X2038120D01*
X2005631Y1644902D02*
X2038120D01*
X2032254Y1644452D02*
X2038120D01*
X2034454Y1576952D02*
X2038120D01*
X2034454Y1576502D02*
X2038120D01*
X2034454Y1577402D02*
X2038120D01*
X2032254Y1644002D02*
X2036355D01*
X2032254Y1643552D02*
X2036350D01*
X2032254Y1643102D02*
X2036350D01*
X2032254Y1642652D02*
X2036350D01*
X2032254Y1642202D02*
X2036350D01*
X2032254Y1641752D02*
X2036350D01*
X2032254Y1641302D02*
X2036350D01*
X2032254Y1640852D02*
X2036350D01*
X2032254Y1640402D02*
X2036350D01*
X2032254Y1639952D02*
X2036350D01*
X2032254Y1639502D02*
X2036350D01*
X2032254Y1639052D02*
X2036350D01*
X2032254Y1638602D02*
X2036350D01*
X2032254Y1638152D02*
X2036350D01*
X2032254Y1637702D02*
X2036350D01*
X2032254Y1637252D02*
X2036350D01*
X2032152Y1636802D02*
X2036350D01*
X2014377Y1636352D02*
X2036350D01*
X2014588Y1635902D02*
X2036350D01*
X2021406Y1635452D02*
X2036350D01*
X2021754Y1635002D02*
X2036350D01*
X2021901Y1634552D02*
X2036350D01*
X2021908Y1634102D02*
X2036350D01*
X2021777Y1633652D02*
X2036350D01*
X2021457Y1633202D02*
X2036350D01*
X2019897Y1632752D02*
X2036350D01*
X2019577Y1632302D02*
X2036350D01*
X2017773Y1631852D02*
X2036350D01*
X2018197Y1631402D02*
X2036350D01*
X2018384Y1630952D02*
X2036350D01*
X2018424Y1630502D02*
X2036350D01*
X2018328Y1630052D02*
X2036350D01*
X2018063Y1629602D02*
X2036350D01*
X2017422Y1629152D02*
X2036350D01*
X1983924Y1628702D02*
X2036350D01*
X1983700Y1628252D02*
X2036350D01*
X2009604Y1627802D02*
X2036350D01*
X2010137Y1627352D02*
X2036350D01*
X2010368Y1626902D02*
X2036350D01*
X2010441Y1626452D02*
X2036350D01*
X2010380Y1626002D02*
X2036350D01*
X2010376Y1625552D02*
X2036350D01*
X2010724Y1625102D02*
X2036350D01*
X2010871Y1624652D02*
X2036350D01*
X2010878Y1624202D02*
X2036350D01*
X2010747Y1623752D02*
X2036350D01*
X2010427Y1623302D02*
X2036350D01*
X2008700Y1622852D02*
X2036350D01*
X2009519Y1622402D02*
X2036350D01*
X2009816Y1621952D02*
X2036350D01*
X2009933Y1621502D02*
X2036350D01*
X2009914Y1621052D02*
X2036350D01*
X2009751Y1620602D02*
X2036350D01*
X2009376Y1620152D02*
X2036350D01*
X2018216Y1619702D02*
X2036350D01*
X2018851Y1619252D02*
X2036350D01*
X2019114Y1618802D02*
X2036350D01*
X2019209Y1618352D02*
X2036350D01*
X2019168Y1617902D02*
X2036350D01*
X2018980Y1617452D02*
X2036350D01*
X2018553Y1617002D02*
X2036350D01*
X2009697Y1616552D02*
X2036350D01*
X2009739Y1616102D02*
X2036350D01*
X2009647Y1615652D02*
X2036350D01*
X2009388Y1615202D02*
X2036350D01*
X2008766Y1614752D02*
X2036350D01*
X1971524Y1614302D02*
X2036350D01*
X1971524Y1613852D02*
X2036350D01*
X1971524Y1613402D02*
X2036350D01*
X1971524Y1612952D02*
X2036350D01*
X1971524Y1612502D02*
X2036350D01*
X2008627Y1612052D02*
X2036350D01*
X2009086Y1611602D02*
X2036350D01*
X2009289Y1611152D02*
X2036350D01*
X2009341Y1610702D02*
X2036350D01*
X2021029Y1610252D02*
X2036350D01*
X2021348Y1609802D02*
X2036350D01*
X2021479Y1609352D02*
X2036350D01*
X2021471Y1608902D02*
X2036350D01*
X2021322Y1608452D02*
X2036350D01*
X2033667Y1608002D02*
X2036350D01*
X2034047Y1607552D02*
X2036350D01*
X2034212Y1607102D02*
X2036350D01*
X2034234Y1606652D02*
X2036350D01*
X2034119Y1606202D02*
X2036350D01*
X2033826Y1605752D02*
X2036350D01*
X2033036Y1605302D02*
X2036350D01*
X1995776Y1604852D02*
X2036350D01*
X1996193Y1604402D02*
X2036350D01*
X1996376Y1603952D02*
X2036350D01*
X2033779Y1603502D02*
X2036350D01*
X2034098Y1603052D02*
X2036350D01*
X2034229Y1602602D02*
X2036350D01*
X2034221Y1602152D02*
X2036350D01*
X2034072Y1601702D02*
X2036350D01*
X2033723Y1601252D02*
X2036350D01*
X1998853Y1600802D02*
X2036350D01*
X1990952Y1600352D02*
X2036350D01*
X1991040Y1599902D02*
X2036350D01*
X1990993Y1599452D02*
X2036350D01*
X1990797Y1599002D02*
X2036350D01*
X1990353Y1598552D02*
X2036350D01*
X1988577Y1598102D02*
X2036350D01*
X1988665Y1597652D02*
X2036350D01*
X1988618Y1597202D02*
X2036350D01*
X1988422Y1596752D02*
X2036350D01*
X1987978Y1596302D02*
X2036350D01*
X2016719Y1595852D02*
X2036350D01*
X2017269Y1595402D02*
X2036350D01*
X2017507Y1594952D02*
X2036350D01*
X2017584Y1594502D02*
X2036350D01*
X2017527Y1594052D02*
X2036350D01*
X2017317Y1593602D02*
X2036350D01*
X2016841Y1593152D02*
X2036350D01*
X1987877Y1592702D02*
X2036350D01*
X1987606Y1592252D02*
X2036350D01*
X1991867Y1591802D02*
X2036350D01*
X1992247Y1591352D02*
X2036350D01*
X2017922Y1590902D02*
X2036350D01*
X2018327Y1590452D02*
X2036350D01*
X2018505Y1590002D02*
X2036350D01*
X2018537Y1589552D02*
X2036350D01*
X2018433Y1589102D02*
X2036350D01*
X2018157Y1588652D02*
X2036350D01*
X2017465Y1588202D02*
X2036350D01*
X1971524Y1587752D02*
X2036350D01*
X1971524Y1587302D02*
X2036350D01*
X2008242Y1586852D02*
X2036350D01*
X2008814Y1586402D02*
X2036350D01*
X2029878Y1585952D02*
X2036350D01*
X2030269Y1585502D02*
X2036350D01*
X2030439Y1585052D02*
X2036350D01*
X2030465Y1584602D02*
X2036350D01*
X2030355Y1584152D02*
X2036350D01*
X2030069Y1583702D02*
X2036350D01*
X2029326Y1583252D02*
X2036350D01*
X2013519Y1582802D02*
X2036350D01*
X2013732Y1582352D02*
X2036350D01*
X2013791Y1581902D02*
X2036350D01*
X2013716Y1581452D02*
X2036350D01*
X2013481Y1581002D02*
X2036350D01*
X2012939Y1580552D02*
X2036350D01*
X1971524Y1580102D02*
X2036350D01*
X1971524Y1579652D02*
X2036350D01*
X1971524Y1579202D02*
X2036350D01*
X1971524Y1578752D02*
X2036350D01*
X1971524Y1578302D02*
X2036350D01*
X1971508Y1577852D02*
X2036350D01*
X1985136Y1605302D02*
X2032372D01*
X2020973Y1608002D02*
X2031741D01*
X1999297Y1601252D02*
X2031685D01*
X1998598Y1603502D02*
X2031628D01*
X1986096Y1605752D02*
X2031582D01*
X1986363Y1607552D02*
X2031361D01*
X1999493Y1601702D02*
X2031336D01*
X1999198Y1603052D02*
X2031310D01*
X1986406Y1606202D02*
X2031289D01*
X1986518Y1607102D02*
X2031196D01*
X1999540Y1602152D02*
X2031187D01*
X1999452Y1602602D02*
X2031179D01*
X1986531Y1606652D02*
X2031174D01*
X2013036Y1583252D02*
X2028542D01*
X2009058Y1585952D02*
X2027989D01*
X2011333Y1583702D02*
X2027799D01*
X2009141Y1585502D02*
X2027599D01*
X2010935Y1584152D02*
X2027513D01*
X2009088Y1585052D02*
X2027429D01*
X2008884Y1584602D02*
X2027403D01*
X2014666Y1635452D02*
X2019362D01*
X2013957Y1636802D02*
X2019356D01*
X2006091Y1644452D02*
X2019254D01*
X2006317Y1644002D02*
X2019254D01*
X2006545Y1643552D02*
X2019254D01*
X2006995Y1643102D02*
X2019254D01*
X2007444Y1642652D02*
X2019254D01*
X2007505Y1642202D02*
X2019254D01*
X2007441Y1641752D02*
X2019254D01*
X2006991Y1641302D02*
X2019254D01*
X2006541Y1640852D02*
X2019254D01*
X1971524Y1640402D02*
X2019254D01*
X1971524Y1639952D02*
X2019254D01*
X2001805Y1639502D02*
X2019254D01*
X2011450Y1639052D02*
X2019254D01*
X2011900Y1638602D02*
X2019254D01*
X2012350Y1638152D02*
X2019254D01*
X2012666Y1637702D02*
X2019254D01*
X2012701Y1637252D02*
X2019254D01*
X2014628Y1635002D02*
X2019014D01*
X1986004Y1608002D02*
X2018935D01*
X2009257Y1610252D02*
X2018878D01*
X1983684Y1608452D02*
X2018586D01*
X2009012Y1609802D02*
X2018560D01*
X1983570Y1608902D02*
X2018437D01*
X2008437Y1609352D02*
X2018429D01*
X2014467Y1634552D02*
X2017482D01*
X2003875Y1632302D02*
X2017431D01*
X2014135Y1634102D02*
X2017134D01*
X2009018Y1619702D02*
X2017132D01*
X2003651Y1632752D02*
X2017111D01*
X2013357Y1633652D02*
X2016987D01*
X2003142Y1633202D02*
X2016980D01*
X2009850Y1617002D02*
X2016795D01*
X1971524Y1588202D02*
X2016543D01*
X2009950Y1619252D02*
X2016496D01*
X2010212Y1617452D02*
X2016368D01*
X1989014Y1629152D02*
X2016356D01*
X2010257Y1618802D02*
X2016234D01*
X2010367Y1617902D02*
X2016179D01*
X2010381Y1618352D02*
X2016139D01*
X1992412Y1590902D02*
X2016086D01*
X2003941Y1631852D02*
X2016005D01*
X1971524Y1588652D02*
X2015851D01*
X1989395Y1629602D02*
X2015714D01*
X1992434Y1590452D02*
X2015681D01*
X2003874Y1631402D02*
X2015581D01*
X1991236Y1589102D02*
X2015575D01*
X1992319Y1590002D02*
X2015503D01*
X1992026Y1589552D02*
X2015471D01*
X1989562Y1630052D02*
X2015450D01*
X2003650Y1630952D02*
X2015394D01*
X1971524Y1595852D02*
X2015376D01*
X2003137Y1630502D02*
X2015354D01*
X1987979Y1593152D02*
X2015254D01*
X1971524Y1595402D02*
X2014825D01*
X1987944Y1593602D02*
X2014777D01*
X1971524Y1594952D02*
X2014588D01*
X1987763Y1594052D02*
X2014567D01*
X1987352Y1594502D02*
X2014510D01*
X1988993Y1633652D02*
X2012402D01*
X1987408Y1634102D02*
X2011624D01*
X1971524Y1580552D02*
X2011569D01*
X1987164Y1634552D02*
X2011292D01*
X1986592Y1635002D02*
X2011131D01*
X1977064Y1635452D02*
X2011091D01*
X1971524Y1581002D02*
X2011027D01*
X2010434Y1581452D02*
X2010792D01*
X2002471Y1639052D02*
X2010210D01*
X1977445Y1635902D02*
X2010101D01*
X2002741Y1638602D02*
X2009760D01*
X1977612Y1636352D02*
X2009651D01*
X1971524Y1581452D02*
X2009574D01*
X2002841Y1638152D02*
X2009310D01*
X2002209Y1636802D02*
X2009230D01*
X2002805Y1637702D02*
X2009212D01*
X2002623Y1637252D02*
X2009212D01*
X2008423Y1584152D02*
X2009073D01*
X1971524Y1581902D02*
X2008859D01*
X1971524Y1619702D02*
X2008690D01*
X1971524Y1583702D02*
X2008675D01*
X1971524Y1582352D02*
X2008579D01*
X1971524Y1583252D02*
X2008501D01*
X1971524Y1582802D02*
X2008472D01*
X1984197Y1623302D02*
X2008281D01*
X1983187Y1627802D02*
X2008203D01*
X1983877Y1622852D02*
X2008108D01*
X1983826Y1625102D02*
X2007984D01*
X1984328Y1623752D02*
X2007961D01*
X1984174Y1624652D02*
X2007837D01*
X1984321Y1624202D02*
X2007830D01*
X1971524Y1619252D02*
X2007758D01*
X1983277Y1627352D02*
X2007671D01*
X1983907Y1625552D02*
X2007644D01*
X1971524Y1614752D02*
X2007642D01*
X1971524Y1618802D02*
X2007451D01*
X1983736Y1626902D02*
X2007440D01*
X1971524Y1620152D02*
X2007432D01*
X1983991Y1626002D02*
X2007428D01*
X1983939Y1626452D02*
X2007367D01*
X1971524Y1617902D02*
X2007341D01*
X1971524Y1617452D02*
X2007335D01*
X1971524Y1618352D02*
X2007327D01*
X1971524Y1622402D02*
X2007289D01*
X1983278Y1609352D02*
X2007171D01*
X1971524Y1620602D02*
X2007057D01*
X1971524Y1615202D02*
X2007020D01*
X1971524Y1621952D02*
X2006992D01*
X1971524Y1612052D02*
X2006981D01*
X1971524Y1586852D02*
X2006966D01*
X1971524Y1617002D02*
X2006903D01*
X1971524Y1621052D02*
X2006894D01*
X1971524Y1621502D02*
X2006875D01*
X1971524Y1584152D02*
X2006785D01*
X1971524Y1615652D02*
X2006761D01*
X1971524Y1616552D02*
X2006711D01*
X1971524Y1616102D02*
X2006669D01*
X1982497Y1609802D02*
X2006596D01*
X1971524Y1611602D02*
X2006522D01*
X1971524Y1586402D02*
X2006394D01*
X1971524Y1610252D02*
X2006350D01*
X1971524Y1584602D02*
X2006324D01*
X1971524Y1611152D02*
X2006319D01*
X1971524Y1610702D02*
X2006267D01*
X1971524Y1585952D02*
X2006150D01*
X1971524Y1585052D02*
X2006120D01*
X1971524Y1585502D02*
X2006067D01*
X1971524Y1640852D02*
X2004883D01*
X1971524Y1641302D02*
X2004433D01*
X1971524Y1641752D02*
X2003983D01*
X1997088Y1644902D02*
X2003701D01*
X1971524Y1642202D02*
X2003457D01*
X1997109Y1644452D02*
X2003240D01*
X1971524Y1642652D02*
X2003122D01*
X1996993Y1644002D02*
X2003014D01*
X1995897Y1643102D02*
X2002962D01*
X1996698Y1643552D02*
X2002928D01*
X2000987Y1630502D02*
X2001670D01*
X2000992Y1633202D02*
X2001666D01*
X1971524Y1639502D02*
X2000809D01*
X1977634Y1636802D02*
X2000405D01*
X1971524Y1639052D02*
X2000143D01*
X1977520Y1637252D02*
X1999991D01*
X1971524Y1638602D02*
X1999873D01*
X1977228Y1637702D02*
X1999809D01*
X1976447Y1638152D02*
X1999773D01*
X1998837Y1630502D02*
X1999520D01*
X1998842Y1633202D02*
X1999516D01*
X1996413Y1603502D02*
X1997410D01*
X1989584Y1630502D02*
X1997370D01*
X1989391Y1633202D02*
X1997366D01*
X1990698Y1600802D02*
X1997155D01*
X1989470Y1630952D02*
X1996858D01*
X1989565Y1632752D02*
X1996856D01*
X1996314Y1603052D02*
X1996810D01*
X1992923Y1601252D02*
X1996711D01*
X1989216Y1631402D02*
X1996634D01*
X1989594Y1632302D02*
X1996633D01*
X1989487Y1631852D02*
X1996566D01*
X1996046Y1602602D02*
X1996556D01*
X1993272Y1601702D02*
X1996515D01*
X1995387Y1602152D02*
X1996468D01*
X1971524Y1643102D02*
X1995261D01*
X1989611Y1645802D02*
X1994612D01*
X1989609Y1643552D02*
X1994460D01*
X1993421Y1602152D02*
X1994371D01*
X1989944Y1645352D02*
X1994234D01*
X1989943Y1644002D02*
X1994165D01*
X1990083Y1644902D02*
X1994070D01*
X1990083Y1644452D02*
X1994049D01*
X1981872Y1604852D02*
X1993982D01*
X1993429Y1602602D02*
X1993712D01*
X1982735Y1604402D02*
X1993565D01*
X1993298Y1603052D02*
X1993444D01*
X1983037Y1603952D02*
X1993381D01*
X1992979Y1603502D02*
X1993345D01*
X1990098Y1601252D02*
X1990885D01*
X1983157Y1603502D02*
X1990828D01*
X1971524Y1589102D02*
X1990572D01*
X1971524Y1601702D02*
X1990536D01*
X1983140Y1603052D02*
X1990510D01*
X1982612Y1602152D02*
X1990387D01*
X1982981Y1602602D02*
X1990379D01*
X1986932Y1591802D02*
X1989941D01*
X1971524Y1589552D02*
X1989782D01*
X1971524Y1591352D02*
X1989561D01*
X1971524Y1590002D02*
X1989489D01*
X1971524Y1590902D02*
X1989396D01*
X1971524Y1590452D02*
X1989374D01*
X1971524Y1601252D02*
X1988910D01*
X1988323Y1598552D02*
X1988655D01*
X1971524Y1600802D02*
X1988310D01*
X1987723Y1599002D02*
X1988211D01*
X1971524Y1600352D02*
X1988056D01*
X1971524Y1599452D02*
X1988015D01*
X1971524Y1599902D02*
X1987968D01*
X1979819Y1643552D02*
X1987515D01*
X1980359Y1645802D02*
X1987513D01*
X1980342Y1644002D02*
X1987181D01*
X1980578Y1645352D02*
X1987180D01*
X1983991Y1629152D02*
X1987094D01*
X1980571Y1644452D02*
X1987041D01*
X1980641Y1644902D02*
X1987041D01*
X1983700Y1631402D02*
X1986902D01*
X1983925Y1629602D02*
X1986712D01*
X1983187Y1630952D02*
X1986638D01*
X1983924Y1631852D02*
X1986637D01*
X1983701Y1630052D02*
X1986546D01*
X1971524Y1599002D02*
X1986535D01*
X1983192Y1630502D02*
X1986524D01*
X1971524Y1596302D02*
X1986280D01*
X1971524Y1591802D02*
X1985958D01*
X1971524Y1598552D02*
X1985935D01*
X1971524Y1596752D02*
X1985836D01*
X1971524Y1598102D02*
X1985681D01*
X1971524Y1597202D02*
X1985640D01*
X1971524Y1597652D02*
X1985593D01*
X1971524Y1594502D02*
X1985538D01*
X1971524Y1635002D02*
X1985316D01*
X1971524Y1592252D02*
X1985284D01*
X1983991Y1632302D02*
X1985135D01*
X1971524Y1594052D02*
X1985127D01*
X1971524Y1592702D02*
X1985012D01*
X1971524Y1593602D02*
X1984946D01*
X1971524Y1593152D02*
X1984911D01*
X1971524Y1605302D02*
X1984871D01*
X1971524Y1634552D02*
X1984744D01*
X1983925Y1632752D02*
X1984674D01*
X1971524Y1634102D02*
X1984500D01*
X1983701Y1633202D02*
X1984470D01*
X1983192Y1633652D02*
X1984417D01*
X1983662Y1608002D02*
X1984004D01*
X1971524Y1605752D02*
X1983911D01*
X1983495Y1607552D02*
X1983644D01*
X1971524Y1606202D02*
X1983602D01*
X1983114Y1607102D02*
X1983490D01*
X1971524Y1606652D02*
X1983477D01*
X1971524Y1609802D02*
X1981811D01*
X1971524Y1622852D02*
X1981731D01*
X1971524Y1633652D02*
X1981716D01*
X1971524Y1624652D02*
X1981434D01*
X1971524Y1623302D02*
X1981411D01*
X1971524Y1604852D02*
X1981386D01*
X1971524Y1624202D02*
X1981287D01*
X1971524Y1623752D02*
X1981280D01*
X1971524Y1625102D02*
X1981246D01*
X1971524Y1633202D02*
X1981206D01*
X1971524Y1607102D02*
X1981194D01*
X1971524Y1609352D02*
X1981030D01*
X1971524Y1625552D02*
X1981000D01*
X1971524Y1632752D02*
X1980983D01*
X1971524Y1626002D02*
X1980917D01*
X1971524Y1632302D02*
X1980903D01*
X1971524Y1607552D02*
X1980812D01*
X1971524Y1608902D02*
X1980738D01*
X1971524Y1629152D02*
X1980731D01*
X1971524Y1608002D02*
X1980646D01*
X1971524Y1602152D02*
X1980645D01*
X1971524Y1608452D02*
X1980624D01*
X1971524Y1604402D02*
X1980523D01*
X1971524Y1602602D02*
X1980277D01*
X1971524Y1603952D02*
X1980221D01*
X1971524Y1603052D02*
X1980117D01*
X1971524Y1603502D02*
X1980101D01*
X1971524Y1629602D02*
X1980035D01*
X1971524Y1631852D02*
X1979978D01*
X1971524Y1626452D02*
X1979835D01*
X1971524Y1628702D02*
X1979778D01*
X1971524Y1630052D02*
X1979686D01*
X1971524Y1631402D02*
X1979660D01*
X1971524Y1630502D02*
X1979537D01*
X1971524Y1630952D02*
X1979529D01*
X1971524Y1626902D02*
X1979486D01*
X1971524Y1628252D02*
X1979460D01*
X1971524Y1627352D02*
X1979337D01*
X1971524Y1627802D02*
X1979329D01*
X1977619Y1643552D02*
X1978389D01*
X1977660Y1646252D02*
X1978348D01*
X1971524Y1643552D02*
X1976189D01*
X1969754Y1646252D02*
X1976148D01*
X1971524Y1638152D02*
X1975761D01*
X1971517Y1644002D02*
X1975666D01*
X1969754Y1645802D02*
X1975649D01*
X1969754Y1644452D02*
X1975437D01*
X1969754Y1645352D02*
X1975430D01*
X1969754Y1644902D02*
X1975366D01*
X1971524Y1635452D02*
X1975144D01*
X1971524Y1637702D02*
X1974980D01*
X1971524Y1635902D02*
X1974762D01*
X1971524Y1637252D02*
X1974688D01*
X1971524Y1636352D02*
X1974596D01*
X1971524Y1636802D02*
X1974574D01*
X1969754Y1577402D02*
X1973414D01*
X1969754Y1576952D02*
X1973414D01*
X1969754Y1576502D02*
X1973414D01*
X1968504Y1650394D02*
X2039370D01*
Y1574803*
X1968504*
Y1650394*
G54D59*
Y1645709D03*
Y1640709D03*
Y1635709D03*
Y1630709D03*
Y1625709D03*
Y1620709D03*
Y1615709D03*
Y1610709D03*
Y1605709D03*
Y1600709D03*
Y1595709D03*
Y1590709D03*
Y1585709D03*
Y1580709D03*
X1976437Y1574803D03*
X1981437D03*
X1986437D03*
X1991437D03*
X1996437D03*
X2001437D03*
X2006437D03*
X2011437D03*
X2016437D03*
X2021437D03*
X2026437D03*
X2031437D03*
X2039370Y1580709D03*
Y1585709D03*
Y1590709D03*
Y1595709D03*
Y1600709D03*
Y1605709D03*
Y1610709D03*
Y1615709D03*
Y1620709D03*
Y1625709D03*
Y1630709D03*
Y1635709D03*
Y1640709D03*
Y1645709D03*
G54D310*
X1970629Y1576959D03*
X2036379Y1576709D03*
X1973752Y1580309D03*
X1973754Y1585709D03*
X1980234Y1579973D03*
X1977794Y1579983D03*
X1990608Y1587678D03*
X2002754Y1587303D03*
X2007604Y1585453D03*
X2006824Y1587589D03*
X2004504Y1585203D03*
X2010004Y1582928D03*
X2012254Y1581928D03*
X2022434Y1581183D03*
X2017454Y1579953D03*
X2015004Y1579959D03*
X2017074Y1587099D03*
X2026804Y1581183D03*
X2033514Y1580033D03*
X2030194Y1579963D03*
X2029754Y1582178D03*
X2030564Y1587729D03*
X2028934Y1584739D03*
X2034194Y1585439D03*
X1981654Y1591603D03*
X1990379Y1596803D03*
X1988004Y1590834D03*
X1986445Y1593260D03*
X1990904Y1590603D03*
X1987129Y1597584D03*
X2003687Y1592803D03*
X2009379Y1596209D03*
X2014934Y1592616D03*
X2017004Y1589669D03*
X2016047Y1594469D03*
X2028629Y1596803D03*
Y1591334D03*
X2031879Y1594053D03*
X1981754Y1606253D03*
X1981629Y1603334D03*
X1982154Y1608303D03*
X1986604Y1608553D03*
X1985593Y1599593D03*
X1985004Y1606834D03*
X1989504Y1599834D03*
X1991904Y1602403D03*
X1995044Y1601512D03*
X2003129Y1600209D03*
X1998004Y1602084D03*
X1994879Y1603603D03*
X2010554Y1607153D03*
X2008312Y1600178D03*
X2005654Y1604253D03*
X2016104Y1608603D03*
X2016562Y1599428D03*
X2019954Y1609153D03*
X2032704Y1606803D03*
Y1602403D03*
X2033207Y1608963D03*
X2034204Y1600153D03*
X1980294Y1613703D03*
X1987704Y1614353D03*
Y1618053D03*
X1992754Y1612583D03*
X2001534Y1618083D03*
X1998582Y1612579D03*
X1995634Y1618083D03*
Y1612583D03*
X2001534D03*
X2008854Y1618173D03*
X2004504Y1612603D03*
X2008204Y1616183D03*
X2007804Y1610753D03*
X2021804Y1610103D03*
X2020304Y1611703D03*
X2019654Y1614003D03*
X2018105Y1616219D03*
X2019680Y1617711D03*
X2023704Y1611196D03*
X2022354Y1612803D03*
X2017674Y1618263D03*
X2024904Y1612883D03*
X2032604Y1618903D03*
X1982454Y1626053D03*
X1979296Y1626224D03*
X1981304Y1619653D03*
X1982454Y1629153D03*
X1980854Y1627603D03*
X1982804Y1623953D03*
X1987704Y1621853D03*
X1988004Y1626303D03*
X1992754Y1624543D03*
X1995634Y1627533D03*
Y1624579D03*
X1998582D03*
X2001534D03*
X2003704Y1624553D03*
X2001535Y1627532D03*
X2008404Y1621343D03*
X2008904Y1626433D03*
X2009354Y1624403D03*
X2016316Y1628154D03*
X2021804Y1627603D03*
X2028204Y1619803D03*
X2030704D03*
X2031954Y1628103D03*
X2033404Y1624803D03*
X2032604Y1621803D03*
X2030604Y1626003D03*
X2028904Y1627603D03*
X2034208Y1627753D03*
X1973654Y1633853D03*
X1973804Y1636253D03*
X1982104Y1638403D03*
X1977704D03*
X1980054Y1638453D03*
X1981054Y1630753D03*
X1982454Y1632303D03*
X1976104Y1636653D03*
X1993304Y1631853D03*
X1988054Y1630353D03*
X1985954Y1633603D03*
X1988062Y1632428D03*
X1996004Y1631803D03*
X1998666Y1638335D03*
X1998104Y1631853D03*
X2002404D03*
X2000254D03*
X2001307Y1638047D03*
X2012880Y1635375D03*
X2013216Y1638214D03*
X2011220Y1633743D03*
X2018864Y1636503D03*
X2022454Y1634153D03*
X2021254Y1636203D03*
X2015634Y1637813D03*
X2017464Y1638473D03*
X2016004Y1635853D03*
X2021864Y1629823D03*
X2018504Y1633403D03*
X2020384Y1634303D03*
X2016889Y1630594D03*
X2030518Y1634112D03*
X2025004Y1634153D03*
X2028004D03*
X2033104Y1636503D03*
X2032954Y1634153D03*
X2033754Y1630003D03*
X2029921Y1630000D03*
X2027404Y1629953D03*
X2024604D03*
X1973454Y1644603D03*
X1970654Y1648453D03*
X1973504Y1647803D03*
X1976504D03*
X1979504D03*
X1982804D03*
X1979104Y1644913D03*
X1976904D03*
X1989004Y1647753D03*
X1986004Y1647803D03*
X1991854Y1647753D03*
X1985937Y1642303D03*
X1991054D03*
X1988562Y1644678D03*
X1995054Y1647803D03*
X2001804Y1647753D03*
X1995254Y1642303D03*
X2001154Y1640153D03*
X2002903Y1645521D03*
X1998354Y1647803D03*
X1997441Y1640848D03*
X1995579Y1644606D03*
X2004666Y1643454D03*
X2011408Y1646361D03*
X2010791Y1644002D03*
X2009020Y1642169D03*
X2007476Y1640655D03*
X2013021Y1647986D03*
X2005254Y1647834D03*
X2008454Y1647803D03*
X2007384Y1645125D03*
X2019504Y1648053D03*
X2016154D03*
X2014521Y1640073D03*
X2014646Y1646348D03*
X2022204Y1645303D03*
X2022304Y1647803D03*
X2019754Y1645678D03*
X2017304Y1646153D03*
X2017054Y1640653D03*
X2031004Y1647303D03*
X2027554D03*
X2024504D03*
X2033154Y1645303D03*
Y1642553D03*
X2033354Y1639853D03*
X2033358Y1648303D03*
X2037454Y1648453D03*
G74*
X0Y0D02*
M02*
