M48
;FILE_FORMAT=2:4
INCH,LZ
FMAT,2
ICI,OFF
;TYPE=PLATED
T1C.00984
T2C.02165
%
M72
G90
G93X0Y0
T1C.00984F0S0
X197063Y157696
X198023Y157997
X197779Y157998
X197375Y158031
X197375Y158571
X199061Y158768
X19909Y15906
X1988Y159083
X198165Y15916
X198644Y159326
X199038Y15968
X198713Y159758
X198559Y159959
X19895Y159983
X19919Y16024
X198163Y160333
X198175Y160625
X1985Y160683
X198215Y16083
X19866Y160855
X199275Y161258
X198029Y16137
X19877Y161435
X19877Y161805
X19813Y161965
X19877Y162185
X19828Y162395
X199275Y162454
X198245Y162605
X19793Y162622
X1988Y16263
X198085Y16276
X198245Y162915
X198805Y163035
X198105Y163075
X19933Y163185
X198245Y16323
X198806Y163243
X198595Y16336
X197365Y163385
X19738Y163625
X19761Y163665
X19777Y16384
X19821Y16384
X198005Y163845
X198594Y16423
X199105Y16423
X197345Y16446
X198856Y164468
X19791Y164491
X19769Y164491
X1989Y164775
X199185Y164775
X19795Y16478
X1986Y16478
X19828Y16478
X19735Y16478
X19765Y16478
X197065Y164845
X201615Y164805
X201302Y164799
X200525Y164783
X199505Y16478
X199835Y16478
X200845Y16478
X20018Y164775
X201141Y164636
X201465Y164635
X20173Y164615
X20029Y164552
X200738Y164513
X199558Y164461
X201079Y1644
X200467Y164345
X199525Y16423
X200902Y164217
X199744Y164085
X200748Y164066
X201705Y164065
X200115Y164015
X201452Y164007
X201746Y163847
X199867Y163834
X201322Y163821
X200131Y163805
X201563Y163781
X2016Y163585
X201288Y163538
X201122Y163374
X19981Y163185
X20024Y163185
X200025Y163185
X1996Y16318
X201689Y163059
X201632Y162815
X199563Y162753
X200154Y162753
X20089Y162643
X199858Y162458
X200153Y162458
X199563Y162458
X20037Y162455
X200935Y16244
X20084Y162134
X201767Y161826
X200885Y161817
X199563Y161808
X200153Y161808
X20181Y161622
X20082Y161618
X20045Y16126
X199563Y161258
X200153Y161258
X199858Y161258
X20078Y161075
X20161Y16086
X201055Y160715
X200565Y160425
X199488Y16036
X1998Y160208
X199504Y160151
X200313Y160021
X200831Y160018
X201656Y159943
X200938Y159621
X201605Y159447
X200369Y15928
X201493Y159262
X2017Y158967
X200682Y158759
X200275Y15873
X201707Y15871
X20076Y158545
X20045Y15852
X201Y158293
X201225Y158193
X2015Y157996
X201745Y157995
X203638Y157671
X203019Y157996
X203351Y158003
X202243Y158118
X20268Y158118
X202975Y158218
X202893Y158474
X203419Y158544
X203056Y158773
X202863Y159133
X203188Y159405
X202863Y15968
X20342Y160015
X20327Y16024
X20327Y16068
X203321Y160896
X201995Y160915
X20218Y16101
X20237Y16112
X20203Y16117
X202235Y16128
X20249Y161288
X201965Y1614
X201968Y161771
X20326Y16189
X20282Y16198
X20307Y16198
X20326Y16218
X20334Y16248
X20306Y1626
X20218Y16276
X20289Y16276
X203421Y162775
X203195Y16281
X202186Y162982
X20246Y162995
X20274Y162995
X202992Y163
X203375Y163
X20185Y16334
X203052Y163411
X2028Y163415
X2025Y163415
X202245Y163415
X203295Y163415
X202038Y16343
X202125Y16362
X20331Y16365
X201886Y16365
X203335Y163985
X203315Y164255
X20222Y16453
X203315Y16453
X201975Y164568
X202755Y16473
X20245Y16473
X2031Y16473
X20223Y16478
X20195Y164805
X203336Y16483
X203745Y164845
T2C.02165F0S0
X197644Y15748
X198144Y15748
X198644Y15748
X199144Y15748
X19685Y158071
X19685Y158571
X19685Y159071
X19685Y159571
X19685Y160071
X19685Y160571
X19685Y161071
X19685Y161571
X19685Y162071
X19685Y162571
X19685Y163071
X19685Y163571
X19685Y164071
X19685Y164571
X199644Y15748
X200144Y15748
X200644Y15748
X201144Y15748
X201644Y15748
X202144Y15748
X202644Y15748
X203144Y15748
X203937Y158071
X203937Y158571
X203937Y159071
X203937Y159571
X203937Y160071
X203937Y160571
X203937Y161071
X203937Y161571
X203937Y162071
X203937Y162571
X203937Y163071
X203937Y163571
X203937Y164071
X203937Y164571
M30
