*
*
G04 PADS VX.2 Build Number: 5060570 generated Gerber (RS-274-X) file*
G04 PC Version=2.1*
*
%IN "PCB_ESP32-S3-WROOM-1U_V"*%
*
%MOIN*%
*
%FSLAX35Y35*%
*
*
*
*
G04 PC Standard Apertures*
*
*
G04 Thermal Relief Aperture macro.*
%AMTER*
1,1,$1,0,0*
1,0,$1-$2,0,0*
21,0,$3,$4,0,0,45*
21,0,$3,$4,0,0,135*
%
*
*
G04 Annular Aperture macro.*
%AMANN*
1,1,$1,0,0*
1,0,$2,0,0*
%
*
*
G04 Odd Aperture macro.*
%AMODD*
1,1,$1,0,0*
1,0,$1-0.005,0,0*
%
*
*
G04 PC Custom Aperture Macros*
*
*
*
*
*
*
G04 PC Aperture Table*
*
%ADD010C,0.001*%
%ADD024C,0.005*%
%ADD025C,0.006*%
%ADD059R,0.03543X0.03543*%
*
*
*
*
G04 PC Circuitry*
G04 Layer Name PCB_ESP32-S3-WROOM-1U_V - circuitry*
%LPD*%
*
*
G04 PC Custom Flashes*
G04 Layer Name PCB_ESP32-S3-WROOM-1U_V - flashes*
%LPD*%
*
*
G04 PC Circuitry*
G04 Layer Name PCB_ESP32-S3-WROOM-1U_V - circuitry*
%LPD*%
*
G54D10*
G54D24*
G01X1968504Y1650394D02*
X2039370D01*
Y1574803*
X1968504*
Y1650394*
G54D25*
X1993972Y1622302D02*
X1991028D01*
Y1619359*
X1993972*
Y1622302*
X1991304Y1619359D02*
Y1622302D01*
X1991604Y1619359D02*
Y1622302D01*
X1991904Y1619359D02*
Y1622302D01*
X1992204Y1619359D02*
Y1622302D01*
X1992504Y1619359D02*
Y1622302D01*
X1992804Y1619359D02*
Y1622302D01*
X1993104Y1619359D02*
Y1622302D01*
X1993404Y1619359D02*
Y1622302D01*
X1993704Y1619359D02*
Y1622302D01*
X1999484D02*
X1996540D01*
Y1619359*
X1999484*
Y1622302*
X1996704Y1619359D02*
Y1622302D01*
X1997004Y1619359D02*
Y1622302D01*
X1997304Y1619359D02*
Y1622302D01*
X1997604Y1619359D02*
Y1622302D01*
X1997904Y1619359D02*
Y1622302D01*
X1998204Y1619359D02*
Y1622302D01*
X1998504Y1619359D02*
Y1622302D01*
X1998804Y1619359D02*
Y1622302D01*
X1999104Y1619359D02*
Y1622302D01*
X1999404Y1619359D02*
Y1622302D01*
X2004995D02*
X2002052D01*
Y1619359*
X2004995*
Y1622302*
X2002104Y1619359D02*
Y1622302D01*
X2002404Y1619359D02*
Y1622302D01*
X2002704Y1619359D02*
Y1622302D01*
X2003004Y1619359D02*
Y1622302D01*
X2003304Y1619359D02*
Y1622302D01*
X2003604Y1619359D02*
Y1622302D01*
X2003904Y1619359D02*
Y1622302D01*
X2004204Y1619359D02*
Y1622302D01*
X2004504Y1619359D02*
Y1622302D01*
X2004804Y1619359D02*
Y1622302D01*
X2004995Y1616790D02*
X2002052D01*
Y1613847*
X2004995*
Y1616790*
X2002104Y1613847D02*
Y1616790D01*
X2002404Y1613847D02*
Y1616790D01*
X2002704Y1613847D02*
Y1616790D01*
X2003004Y1613847D02*
Y1616790D01*
X2003304Y1613847D02*
Y1616790D01*
X2003604Y1613847D02*
Y1616790D01*
X2003904Y1613847D02*
Y1616790D01*
X2004204Y1613847D02*
Y1616790D01*
X2004504Y1613847D02*
Y1616790D01*
X2004804Y1613847D02*
Y1616790D01*
X2004995Y1611279D02*
X2002052D01*
Y1608335*
X2004995*
Y1611279*
X2002104Y1608335D02*
Y1611279D01*
X2002404Y1608335D02*
Y1611279D01*
X2002704Y1608335D02*
Y1611279D01*
X2003004Y1608335D02*
Y1611279D01*
X2003304Y1608335D02*
Y1611279D01*
X2003604Y1608335D02*
Y1611279D01*
X2003904Y1608335D02*
Y1611279D01*
X2004204Y1608335D02*
Y1611279D01*
X2004504Y1608335D02*
Y1611279D01*
X2004804Y1608335D02*
Y1611279D01*
X1999484D02*
X1996540D01*
Y1608335*
X1999484*
Y1611279*
X1996704Y1608335D02*
Y1611279D01*
X1997004Y1608335D02*
Y1611279D01*
X1997304Y1608335D02*
Y1611279D01*
X1997604Y1608335D02*
Y1611279D01*
X1997904Y1608335D02*
Y1611279D01*
X1998204Y1608335D02*
Y1611279D01*
X1998504Y1608335D02*
Y1611279D01*
X1998804Y1608335D02*
Y1611279D01*
X1999104Y1608335D02*
Y1611279D01*
X1999404Y1608335D02*
Y1611279D01*
X1993972D02*
X1991028D01*
Y1608335*
X1993972*
Y1611279*
X1991304Y1608335D02*
Y1611279D01*
X1991604Y1608335D02*
Y1611279D01*
X1991904Y1608335D02*
Y1611279D01*
X1992204Y1608335D02*
Y1611279D01*
X1992504Y1608335D02*
Y1611279D01*
X1992804Y1608335D02*
Y1611279D01*
X1993104Y1608335D02*
Y1611279D01*
X1993404Y1608335D02*
Y1611279D01*
X1993704Y1608335D02*
Y1611279D01*
X1993972Y1616790D02*
X1991028D01*
Y1613847*
X1993972*
Y1616790*
X1991304Y1613847D02*
Y1616790D01*
X1991604Y1613847D02*
Y1616790D01*
X1991904Y1613847D02*
Y1616790D01*
X1992204Y1613847D02*
Y1616790D01*
X1992504Y1613847D02*
Y1616790D01*
X1992804Y1613847D02*
Y1616790D01*
X1993104Y1613847D02*
Y1616790D01*
X1993404Y1613847D02*
Y1616790D01*
X1993704Y1613847D02*
Y1616790D01*
G54D59*
X1998012Y1615319D03*
X0Y0D02*
M02*
