M48
;Layer_Color=9474304
;FILE_FORMAT=2:4
INCH,LZ
;TYPE=PLATED
T01F00S00C0.0197
T02F00S00C0.0433
T03F00S00C0.0472
T04F00S00C0.0591
T05F00S00C0.0630
T06F00S00C0.0700
T07F00S00C0.1220
T08F00S00C0.1260
%
T01
X0306Y0009
Y001479
Y002057
Y002664
Y003243
Y003821
Y004421
X03235Y004236
Y003657
Y003079
X0345Y003107
Y003686
Y004264
Y002529
X0386Y003336
Y003914
X04075Y003814
Y004393
Y003236
Y002657
X0435Y002907
Y002329
Y003486
Y004064
X0459Y00435
Y00365
Y00295
X05085Y0027
X05115Y0034
Y00395
X05335Y003843
Y004421
Y003264
X0538Y00275
X0543Y0022
X05495Y00165
X0556Y00115
X0586Y0027
X058Y00335
X05745Y0039
X05695Y0044
X0605Y004443
Y003864
Y003286
Y0027
X061Y0021
X06155Y00155
X0621Y0011
X0639Y0041
X0646Y00355
X0653Y00285
X06715Y0025
X0672Y003236
Y003814
Y004393
X06985Y004471
X07035Y00395
X071Y00335
X0716Y00265
X07385Y0023
Y003136
Y003714
Y004293
X07665Y004471
Y003893
X0772Y0034
X0778Y0029
X0743Y0016
X0682Y0013
X0676Y0019
X0672Y004971
Y005521
Y0061
Y006679
Y007257
Y007836
Y008414
Y008993
Y009571
Y010121
Y0107
X06985Y01025
Y009671
Y009093
Y008514
Y007936
Y007386
Y006807
Y006229
Y00565
Y00505
X07385Y004871
Y005421
Y006
Y006579
Y007157
Y007736
Y008314
Y008893
Y009471
Y010021
Y0106
X07665Y01035
Y009771
Y009193
Y008614
Y008036
Y007486
Y006907
Y006329
Y00575
Y00505
X0761Y0149
X0765Y0153
X0766Y0159
Y016479
Y017057
Y017636
Y018214
Y018793
Y019371
Y01995
X0739Y019764
Y019186
Y018607
Y018029
Y01745
X0739Y01685
X073321
X072743
X072164
X071586
X071007
X070429
X06985
X069693Y0147
X070271
X07085
X0714
X071979
X072557
X073136
X073714
X074293
X074871
X07545
X069114
X068536
X067957
X067379
X0668
X06625
X065671
X065093
X064514
X063936
X063357
X062779
X0631Y01885
X063679
X064257
X064836
X065414
X065993
X066571
X06715
X06325Y0104
Y009821
Y009243
Y008664
Y008086
Y007536
Y006957
Y006379
Y0058
Y0052
Y004621
X0605Y005021
Y005571
Y00615
Y006729
Y007307
Y007886
Y008464
Y009043
Y009621
Y010171
Y01075
X060443Y0147
X061021
X0616
X0622
X059864
X059286
X058707
X058129
X05755
X05695
X056371
X055793
X055214
X0546
X05395
X05335Y0142
Y013621
Y013043
Y012464
Y011886
Y011307
Y010729
Y01015
Y0096
Y009021
Y008443
Y007864
Y007286
Y006707
Y006129
Y00555
Y005
X05115Y0051
Y00565
Y006229
Y006807
Y007386
Y007964
Y008543
Y009121
Y0097
Y01025
Y010829
Y011407
Y011986
Y012564
Y013143
Y013721
Y0143
Y01495
X05165Y0155
X05215Y01595
X05265Y01645
X050357Y0189
X049779
X0492
X0473
X04775Y01625
X0473Y01575
X0564Y01035
Y009771
Y009193
Y008614
Y008036
Y007486
Y006907
Y006329
Y00575
Y005
X05115Y0045
X0459Y0051
Y0057
Y006279
Y006857
Y007436
Y008014
Y008593
Y009171
Y00975
Y01035
Y010929
Y011507
Y012086
Y012664
Y013243
Y013821
Y0144
X0464Y01485
X04685Y0153
X0467Y0186
X0462Y0182
X04575Y01775
X0453Y0173
X0448Y01685
X0442Y01635
X04375Y0158
X0435Y0151
Y014521
Y013943
Y013364
Y012786
Y012207
Y011629
Y01105
Y01045
Y009871
Y009293
Y008714
Y008136
Y007557
Y006979
Y0064
Y0058
Y005221
Y004643
X04075Y004971
Y00555
Y006079
Y006657
Y007236
Y007814
Y008393
Y008971
Y00955
Y01015
Y010729
Y011307
Y011886
Y012464
Y013043
Y013621
Y0142
Y0148
Y015379
Y015957
Y016536
Y017114
Y017693
Y018271
Y01885
X04125Y0193
X0418Y01985
X0386Y0192
Y018621
Y018043
Y017464
Y016886
Y016307
Y015729
Y01515
Y01455
Y013971
Y013393
Y012814
Y012236
Y011657
Y011079
Y0105
Y0099
Y009321
Y008743
Y008164
Y007586
Y007007
Y006429
Y00565
Y005071
Y004493
X0345Y004843
Y005421
Y006
Y0066
Y007179
Y007757
Y008336
Y008914
Y009493
Y010071
Y01065
Y01125
Y011829
Y012407
Y012986
Y013564
Y014143
Y014721
Y0153
X03495Y0158
X03555Y0163
X03605Y01675
X0365Y0172
X03695Y01765
X03745Y01805
X03545Y01955
X035Y0191
X03445Y0186
X0339Y0181
X0334Y01765
X0329Y0171
X03235Y01655
Y01585
Y015271
Y014693
Y014114
Y013536
Y012957
Y012379
Y0118
Y0112
Y010621
Y010043
Y009464
Y008886
Y008307
Y007729
Y00715
Y00655
Y005971
Y005393
Y004814
X0306Y005
Y005621
Y0062
X03045Y00725
X0299Y0078
X02935Y0083
X0289Y0088
X0284Y00935
X02785Y00985
X0273Y0104
X02675Y0109
X0263Y0114
X0258Y01195
X0252Y01245
X02465Y013
X0241Y0135
X02365Y014
X02315Y01455
X0227Y0119
X0221Y0125
X02155Y01305
X021Y01355
X02055Y01405
X02005Y0146
X01945Y01515
X0189Y0157
X01835Y0162
X01805Y0168
X01745Y01735
X0199Y0178
X02035Y0173
X0209Y0168
X02145Y01625
X02355Y017864
Y018464
Y019043
Y019621
X0254Y019571
Y018993
Y018414
Y017814
Y017236
Y016657
X0194Y01835
X01455Y0179
X014Y0184
X01355Y0189
X01305Y01945
X01105Y01865
X01155Y0181
X012Y0176
X0085Y0175
X00795Y01805
X0074Y01855
X00695Y01905
X00645Y0196
X0047Y0186
X0052Y01805
X00565Y01755
X005929Y0272
X006507
X007086
X007686
X008264
X008843
X00945
X010029
X010607
X0114
X011979
X012579
X013157
X013736
X014343
X014921
X0155
X00535
X004771
X004193
X003614
X003036
X002436
X001857
X001279
X0007
X02355Y02485
Y024271
Y023693
Y023114
Y022514
Y021936
Y021357
Y020779
Y0202
X0254Y02015
Y020729
Y021307
Y021886
Y022464
Y023064
Y023643
Y024221
Y0248
X02715Y0284
X027729
X028307
X028886
X029464
X029329Y03025
X02875
X028171
X027593
X027014
X026436
X025836
X025257
X024679
X0241
X029907
X030486
X031086
X031664
X032243
X03285
X033429
X034007
X034586
X035186
X035764
X036343
X036921
X0375
X038079
X038657
X039236
X039836
X040414
X040993
X04345Y02795
X044029
X044607
X045186
X045093Y0251
X045671
X04625
X044514
X043936
X043357
X042779
X0422
X0407Y02465
X04015Y02415
X03965Y0237
X03915Y02315
X0386Y0226
X0381Y0221
X03755Y0216
X037Y0211
X0365Y02065
X036Y0201
X033436Y02265
X033986Y0232
X034486Y02375
X0352Y0259
X035779
X036357
X036936
X037514
X037314Y0284
X036736
X036157
X035579
X035
X0423Y0204
X0455Y02075
X046079
X046657
X0473
X052293Y0204
X052871
X05345
X05355Y02395
X05275
X05215Y02455
X05155Y0251
X0507
X057457Y02035
X058036
X058614
X059193
X059771
X06035
T02
X00458Y0025
X005671
X006761
X007852
X008942
X010033
X011124
X012214
X013305
X014395
X015486
X014941Y0035
X01385
X012759
X011669
X010578
X009488
X008397
X007307
X006216
X005126
X004035
X016031
X017122
X018212
X019303
X020393
X021484
X022574
X023665
X02312Y0025
X022029
X020938
X019848
X018757
X017667
X016576
T03
X0317Y00135
X0337
X037993
X039993
X044286
X046286
X050579
X052579
X056871
X058871
X063164
X065164
X069457
X071457
X07575
X07775
X0245Y02715
X032367
X040233
X0481
T04
X04995Y01603
X02293
T05
X02326Y02591
X02574
Y02839
X02326
X031127
Y02591
X033607
Y02839
X038993
X041473
Y02591
X038993
X04686
Y02839
X04934
Y02591
T06
X063333Y0116
Y0136
X068067
X070067
Y0116
X069067Y0126
X068067Y0116
X0748
X0748Y0136
X0768
Y0116
X0758Y0126
X062333
X061333Y0136
X061333Y0116
X0566Y0116
Y0136
X0546
X0556Y0126
X0546Y0116
X0183Y01115
X0163
Y01315
X0173Y01215
X0183Y01315
X01202
X01202Y01115
X01002
Y01315
X01102Y01215
X00554Y01315
X00354
X00454Y01215
X00554Y01115
X00354Y01115
Y0211
X00554
X00454Y0221
X00354Y0231
X00554Y0231
X00992Y0231
X01192
Y0211
X01092Y0221
X00992Y0211
X0163
X0163Y0231
X0183
Y0211
X0173Y0221
X0546Y0211
X0546Y0231
X0566
Y0211
X0556Y0221
X061333Y0211
X061333Y0231
X062333Y0221
X063333Y0231
Y0211
X068067Y0211
X068067Y0231
X070067
Y0211
X069067Y0221
X0748Y0211
X0748Y0231
X0768
Y0211
X0758Y0221
T07
X0726Y007
X02868Y0119
X00925Y007
Y0294
X04425Y02025
X0726Y0294
T08
X00135Y003
X02635
M30
