G04*
G04 #@! TF.GenerationSoftware,Altium Limited,Altium Designer,24.1.2 (44)*
G04*
G04 Layer_Color=8388736*
%FSLAX43Y43*%
%MOMM*%
G71*
G04*
G04 #@! TF.SameCoordinates,2BF940BF-4250-42CE-90D2-99074F7E85B8*
G04*
G04*
G04 #@! TF.FilePolarity,Negative*
G04*
G01*
G75*
%ADD14C,3.503*%
%ADD15C,3.303*%
%ADD16C,2.903*%
%ADD17C,2.803*%
%ADD18R,1.853X1.853*%
%ADD19C,1.853*%
%ADD20C,5.003*%
%ADD21R,2.203X2.703*%
D14*
X58242Y40716D02*
D03*
X126873D02*
D03*
D15*
X112395Y51435D02*
D03*
X72847Y30226D02*
D03*
X23495Y17780D02*
D03*
X184404D02*
D03*
Y74676D02*
D03*
X23495D02*
D03*
D16*
X172889Y29464D02*
D03*
X172889Y34544D02*
D03*
X177969D02*
D03*
Y29464D02*
D03*
X175429Y32004D02*
D03*
X189992Y53594D02*
D03*
X189992Y58674D02*
D03*
X195072D02*
D03*
Y53594D02*
D03*
X192532Y56134D02*
D03*
X172889Y53594D02*
D03*
X172889Y58674D02*
D03*
X177969D02*
D03*
Y53594D02*
D03*
X175429Y56134D02*
D03*
X155787Y53594D02*
D03*
X155787Y58674D02*
D03*
X160867D02*
D03*
Y53594D02*
D03*
X158327Y56134D02*
D03*
X138684Y53594D02*
D03*
X138684Y58674D02*
D03*
X143764D02*
D03*
Y53594D02*
D03*
X141224Y56134D02*
D03*
X14072Y58674D02*
D03*
X14072Y53594D02*
D03*
X8992D02*
D03*
Y58674D02*
D03*
X11532Y56134D02*
D03*
X25197Y53594D02*
D03*
X25197Y58674D02*
D03*
X30277D02*
D03*
Y53594D02*
D03*
X27737Y56134D02*
D03*
X41402Y53594D02*
D03*
X41402Y58674D02*
D03*
X46482D02*
D03*
Y53594D02*
D03*
X43942Y56134D02*
D03*
X189992Y29464D02*
D03*
X189992Y34544D02*
D03*
X195072D02*
D03*
Y29464D02*
D03*
X192532Y32004D02*
D03*
X155787Y29464D02*
D03*
X155787Y34544D02*
D03*
X160867D02*
D03*
Y29464D02*
D03*
X158327Y32004D02*
D03*
X138684Y29464D02*
D03*
X138684Y34544D02*
D03*
X143764D02*
D03*
Y29464D02*
D03*
X141224Y32004D02*
D03*
X46482Y33401D02*
D03*
X46482Y28321D02*
D03*
X41402D02*
D03*
Y33401D02*
D03*
X43942Y30861D02*
D03*
X30531Y33401D02*
D03*
X30531Y28321D02*
D03*
X25451D02*
D03*
Y33401D02*
D03*
X27991Y30861D02*
D03*
X8992Y28321D02*
D03*
X8992Y33401D02*
D03*
X14072D02*
D03*
Y28321D02*
D03*
X11532Y30861D02*
D03*
D17*
X122174Y68961D02*
D03*
X125324Y72111D02*
D03*
Y65811D02*
D03*
X119024D02*
D03*
Y72111D02*
D03*
X82211Y68961D02*
D03*
X85361Y72111D02*
D03*
Y65811D02*
D03*
X79061D02*
D03*
Y72111D02*
D03*
X102193Y68961D02*
D03*
X105343Y72111D02*
D03*
Y65811D02*
D03*
X99043D02*
D03*
Y72111D02*
D03*
X62230Y68961D02*
D03*
X65380Y72111D02*
D03*
Y65811D02*
D03*
X59080D02*
D03*
Y72111D02*
D03*
D18*
X10249Y8890D02*
D03*
D19*
X13019D02*
D03*
X15789D02*
D03*
X18559D02*
D03*
X21329D02*
D03*
X24099D02*
D03*
X26869D02*
D03*
X29639D02*
D03*
X32409D02*
D03*
X35179D02*
D03*
X37949D02*
D03*
X40719D02*
D03*
X43489D02*
D03*
X46259D02*
D03*
X49029D02*
D03*
X51799D02*
D03*
X54569D02*
D03*
X57339D02*
D03*
X60109D02*
D03*
X11634Y6350D02*
D03*
X14404D02*
D03*
X17174D02*
D03*
X19944D02*
D03*
X22714D02*
D03*
X25484D02*
D03*
X28254D02*
D03*
X31024D02*
D03*
X33794D02*
D03*
X36564D02*
D03*
X39334D02*
D03*
X42104D02*
D03*
X44874D02*
D03*
X47644D02*
D03*
X50414D02*
D03*
X53184D02*
D03*
X55954D02*
D03*
X58724D02*
D03*
D20*
X3429Y7620D02*
D03*
X66929D02*
D03*
D21*
X197485Y3429D02*
D03*
X192405D02*
D03*
X133550D02*
D03*
X128470D02*
D03*
X117566D02*
D03*
X112486D02*
D03*
X181501D02*
D03*
X176421D02*
D03*
X101582D02*
D03*
X96502D02*
D03*
X165517D02*
D03*
X160437D02*
D03*
X85598D02*
D03*
X80518D02*
D03*
X149533D02*
D03*
X144453D02*
D03*
M02*
