G04*
G04 #@! TF.GenerationSoftware,Altium Limited,Altium Designer,24.1.2 (44)*
G04*
G04 Layer_Color=65535*
%FSLAX43Y43*%
%MOMM*%
G71*
G04*
G04 #@! TF.SameCoordinates,824917EC-EC0E-457F-9D36-E806AB631C10*
G04*
G04*
G04 #@! TF.FilePolarity,Positive*
G04*
G01*
G75*
%ADD10C,0.203*%
%ADD11C,0.127*%
%ADD12C,0.254*%
%ADD13C,0.102*%
G36*
X88061Y50266D02*
X87363D01*
X86733Y52659D01*
X86094Y50266D01*
X85391D01*
X84632Y53469D01*
X85294D01*
X85775Y51266D01*
X86358Y53469D01*
X87136D01*
X87691Y51229D01*
X88182Y53469D01*
X88834D01*
X88061Y50266D01*
D02*
G37*
G36*
X81851Y52853D02*
X80689D01*
X80592Y52307D01*
X80597D01*
X80601Y52312D01*
X80629Y52326D01*
X80671Y52340D01*
X80722Y52363D01*
X80786Y52381D01*
X80856Y52395D01*
X80934Y52409D01*
X81013Y52414D01*
X81055D01*
X81083Y52409D01*
X81115Y52405D01*
X81157Y52400D01*
X81203Y52391D01*
X81254Y52377D01*
X81360Y52340D01*
X81420Y52317D01*
X81476Y52289D01*
X81536Y52252D01*
X81596Y52210D01*
X81652Y52164D01*
X81707Y52113D01*
X81712Y52108D01*
X81721Y52099D01*
X81735Y52081D01*
X81754Y52057D01*
X81772Y52030D01*
X81800Y51993D01*
X81823Y51951D01*
X81851Y51905D01*
X81879Y51854D01*
X81902Y51794D01*
X81929Y51729D01*
X81948Y51664D01*
X81966Y51590D01*
X81980Y51511D01*
X81990Y51428D01*
X81994Y51340D01*
Y51335D01*
Y51322D01*
Y51303D01*
X81990Y51275D01*
Y51238D01*
X81980Y51197D01*
X81976Y51150D01*
X81966Y51104D01*
X81939Y50993D01*
X81897Y50873D01*
X81869Y50808D01*
X81841Y50748D01*
X81804Y50688D01*
X81763Y50627D01*
X81758Y50623D01*
X81749Y50609D01*
X81730Y50590D01*
X81707Y50563D01*
X81675Y50530D01*
X81633Y50493D01*
X81587Y50456D01*
X81536Y50419D01*
X81476Y50378D01*
X81411Y50341D01*
X81342Y50303D01*
X81263Y50271D01*
X81180Y50243D01*
X81092Y50225D01*
X80995Y50211D01*
X80893Y50206D01*
X80851D01*
X80819Y50211D01*
X80782Y50216D01*
X80735Y50220D01*
X80689Y50225D01*
X80634Y50234D01*
X80523Y50262D01*
X80398Y50308D01*
X80337Y50331D01*
X80277Y50364D01*
X80222Y50401D01*
X80166Y50442D01*
X80162Y50447D01*
X80152Y50452D01*
X80138Y50465D01*
X80120Y50484D01*
X80101Y50512D01*
X80074Y50540D01*
X80050Y50572D01*
X80023Y50609D01*
X79990Y50655D01*
X79963Y50701D01*
X79912Y50813D01*
X79865Y50938D01*
X79851Y51007D01*
X79838Y51081D01*
X80448Y51146D01*
Y51137D01*
X80453Y51113D01*
X80462Y51072D01*
X80476Y51025D01*
X80495Y50975D01*
X80523Y50919D01*
X80560Y50868D01*
X80601Y50817D01*
X80606Y50813D01*
X80624Y50799D01*
X80652Y50780D01*
X80689Y50757D01*
X80731Y50734D01*
X80782Y50715D01*
X80842Y50701D01*
X80902Y50697D01*
X80911D01*
X80934Y50701D01*
X80971Y50706D01*
X81018Y50715D01*
X81069Y50734D01*
X81124Y50762D01*
X81180Y50803D01*
X81231Y50854D01*
X81235Y50863D01*
X81254Y50882D01*
X81272Y50919D01*
X81300Y50975D01*
X81323Y51039D01*
X81346Y51118D01*
X81360Y51215D01*
X81365Y51326D01*
Y51331D01*
Y51340D01*
Y51354D01*
Y51377D01*
X81360Y51428D01*
X81346Y51493D01*
X81332Y51567D01*
X81309Y51641D01*
X81277Y51710D01*
X81231Y51771D01*
X81226Y51775D01*
X81207Y51794D01*
X81175Y51817D01*
X81138Y51849D01*
X81087Y51877D01*
X81027Y51900D01*
X80958Y51919D01*
X80884Y51923D01*
X80856D01*
X80837Y51919D01*
X80791Y51909D01*
X80726Y51895D01*
X80652Y51868D01*
X80573Y51826D01*
X80532Y51798D01*
X80490Y51766D01*
X80448Y51729D01*
X80407Y51687D01*
X79912Y51757D01*
X80226Y53427D01*
X81851D01*
Y52853D01*
D02*
G37*
G36*
X73641D02*
X72479D01*
X72382Y52307D01*
X72387D01*
X72391Y52312D01*
X72419Y52326D01*
X72461Y52340D01*
X72512Y52363D01*
X72576Y52381D01*
X72646Y52395D01*
X72725Y52409D01*
X72803Y52414D01*
X72845D01*
X72873Y52409D01*
X72905Y52405D01*
X72947Y52400D01*
X72993Y52391D01*
X73044Y52377D01*
X73150Y52340D01*
X73210Y52317D01*
X73266Y52289D01*
X73326Y52252D01*
X73386Y52210D01*
X73442Y52164D01*
X73497Y52113D01*
X73502Y52108D01*
X73511Y52099D01*
X73525Y52081D01*
X73544Y52057D01*
X73562Y52030D01*
X73590Y51993D01*
X73613Y51951D01*
X73641Y51905D01*
X73669Y51854D01*
X73692Y51794D01*
X73720Y51729D01*
X73738Y51664D01*
X73757Y51590D01*
X73770Y51511D01*
X73780Y51428D01*
X73784Y51340D01*
Y51335D01*
Y51322D01*
Y51303D01*
X73780Y51275D01*
Y51238D01*
X73770Y51197D01*
X73766Y51150D01*
X73757Y51104D01*
X73729Y50993D01*
X73687Y50873D01*
X73659Y50808D01*
X73632Y50748D01*
X73595Y50688D01*
X73553Y50627D01*
X73548Y50623D01*
X73539Y50609D01*
X73521Y50590D01*
X73497Y50563D01*
X73465Y50530D01*
X73423Y50493D01*
X73377Y50456D01*
X73326Y50419D01*
X73266Y50378D01*
X73201Y50341D01*
X73132Y50303D01*
X73053Y50271D01*
X72970Y50243D01*
X72882Y50225D01*
X72785Y50211D01*
X72683Y50206D01*
X72641D01*
X72609Y50211D01*
X72572Y50216D01*
X72526Y50220D01*
X72479Y50225D01*
X72424Y50234D01*
X72313Y50262D01*
X72188Y50308D01*
X72128Y50331D01*
X72067Y50364D01*
X72012Y50401D01*
X71956Y50442D01*
X71952Y50447D01*
X71942Y50452D01*
X71929Y50465D01*
X71910Y50484D01*
X71892Y50512D01*
X71864Y50540D01*
X71841Y50572D01*
X71813Y50609D01*
X71780Y50655D01*
X71753Y50701D01*
X71702Y50813D01*
X71656Y50938D01*
X71642Y51007D01*
X71628Y51081D01*
X72239Y51146D01*
Y51137D01*
X72243Y51113D01*
X72253Y51072D01*
X72266Y51025D01*
X72285Y50975D01*
X72313Y50919D01*
X72350Y50868D01*
X72391Y50817D01*
X72396Y50813D01*
X72414Y50799D01*
X72442Y50780D01*
X72479Y50757D01*
X72521Y50734D01*
X72572Y50715D01*
X72632Y50701D01*
X72692Y50697D01*
X72701D01*
X72725Y50701D01*
X72762Y50706D01*
X72808Y50715D01*
X72859Y50734D01*
X72914Y50762D01*
X72970Y50803D01*
X73021Y50854D01*
X73025Y50863D01*
X73044Y50882D01*
X73062Y50919D01*
X73090Y50975D01*
X73113Y51039D01*
X73136Y51118D01*
X73150Y51215D01*
X73155Y51326D01*
Y51331D01*
Y51340D01*
Y51354D01*
Y51377D01*
X73150Y51428D01*
X73136Y51493D01*
X73123Y51567D01*
X73099Y51641D01*
X73067Y51710D01*
X73021Y51771D01*
X73016Y51775D01*
X72998Y51794D01*
X72965Y51817D01*
X72928Y51849D01*
X72877Y51877D01*
X72817Y51900D01*
X72748Y51919D01*
X72674Y51923D01*
X72646D01*
X72627Y51919D01*
X72581Y51909D01*
X72516Y51895D01*
X72442Y51868D01*
X72364Y51826D01*
X72322Y51798D01*
X72280Y51766D01*
X72239Y51729D01*
X72197Y51687D01*
X71702Y51757D01*
X72016Y53427D01*
X73641D01*
Y52853D01*
D02*
G37*
G36*
X75733Y53464D02*
X75784D01*
X75834Y53460D01*
X75895D01*
X76015Y53446D01*
X76140Y53432D01*
X76256Y53409D01*
X76307Y53395D01*
X76353Y53381D01*
X76357D01*
X76362Y53376D01*
X76390Y53363D01*
X76431Y53339D01*
X76487Y53312D01*
X76547Y53265D01*
X76607Y53214D01*
X76668Y53150D01*
X76723Y53071D01*
Y53066D01*
X76728Y53062D01*
X76737Y53048D01*
X76746Y53034D01*
X76769Y52988D01*
X76797Y52927D01*
X76820Y52853D01*
X76843Y52770D01*
X76862Y52673D01*
X76867Y52571D01*
Y52567D01*
Y52557D01*
Y52534D01*
X76862Y52511D01*
Y52479D01*
X76857Y52446D01*
X76839Y52363D01*
X76816Y52266D01*
X76779Y52169D01*
X76723Y52067D01*
X76691Y52020D01*
X76654Y51974D01*
X76649Y51970D01*
X76644Y51965D01*
X76630Y51951D01*
X76612Y51937D01*
X76593Y51919D01*
X76566Y51895D01*
X76533Y51872D01*
X76496Y51849D01*
X76455Y51821D01*
X76404Y51798D01*
X76353Y51775D01*
X76297Y51752D01*
X76232Y51729D01*
X76168Y51710D01*
X76098Y51692D01*
X76020Y51678D01*
X76024D01*
X76029Y51673D01*
X76057Y51655D01*
X76094Y51632D01*
X76140Y51599D01*
X76195Y51558D01*
X76251Y51516D01*
X76311Y51465D01*
X76362Y51410D01*
X76367Y51405D01*
X76390Y51382D01*
X76418Y51345D01*
X76459Y51289D01*
X76515Y51220D01*
X76543Y51174D01*
X76575Y51127D01*
X76612Y51076D01*
X76649Y51021D01*
X76691Y50956D01*
X76732Y50891D01*
X77126Y50266D01*
X76348D01*
X75885Y50961D01*
X75881Y50965D01*
X75876Y50979D01*
X75862Y50998D01*
X75844Y51021D01*
X75825Y51049D01*
X75802Y51086D01*
X75751Y51160D01*
X75691Y51243D01*
X75635Y51317D01*
X75585Y51386D01*
X75561Y51410D01*
X75543Y51433D01*
X75538Y51437D01*
X75529Y51447D01*
X75511Y51465D01*
X75487Y51488D01*
X75455Y51507D01*
X75423Y51530D01*
X75386Y51548D01*
X75349Y51567D01*
X75344D01*
X75330Y51572D01*
X75307Y51581D01*
X75270Y51585D01*
X75224Y51595D01*
X75168Y51599D01*
X75103Y51604D01*
X74895D01*
Y50266D01*
X74247D01*
Y53469D01*
X75691D01*
X75733Y53464D01*
D02*
G37*
G36*
X71119Y50266D02*
X70503D01*
Y50882D01*
X71119D01*
Y50266D01*
D02*
G37*
G36*
X83433Y53483D02*
X83470Y53478D01*
X83517Y53469D01*
X83563Y53460D01*
X83619Y53446D01*
X83679Y53427D01*
X83734Y53404D01*
X83794Y53381D01*
X83855Y53349D01*
X83915Y53307D01*
X83975Y53265D01*
X84030Y53214D01*
X84081Y53154D01*
X84086Y53150D01*
X84095Y53136D01*
X84109Y53113D01*
X84132Y53080D01*
X84155Y53034D01*
X84183Y52978D01*
X84211Y52918D01*
X84239Y52840D01*
X84266Y52756D01*
X84299Y52659D01*
X84322Y52553D01*
X84345Y52432D01*
X84368Y52303D01*
X84382Y52164D01*
X84391Y52011D01*
X84396Y51845D01*
Y51840D01*
Y51835D01*
Y51821D01*
Y51803D01*
Y51757D01*
X84391Y51696D01*
X84387Y51622D01*
X84378Y51535D01*
X84368Y51442D01*
X84359Y51340D01*
X84341Y51234D01*
X84317Y51123D01*
X84294Y51016D01*
X84262Y50910D01*
X84229Y50803D01*
X84183Y50706D01*
X84137Y50614D01*
X84081Y50535D01*
X84077Y50530D01*
X84067Y50521D01*
X84054Y50502D01*
X84035Y50484D01*
X84007Y50461D01*
X83975Y50433D01*
X83933Y50401D01*
X83892Y50373D01*
X83841Y50341D01*
X83790Y50308D01*
X83730Y50280D01*
X83665Y50257D01*
X83595Y50239D01*
X83517Y50220D01*
X83438Y50211D01*
X83355Y50206D01*
X83336D01*
X83309Y50211D01*
X83276D01*
X83239Y50216D01*
X83193Y50225D01*
X83142Y50234D01*
X83086Y50253D01*
X83026Y50271D01*
X82966Y50294D01*
X82901Y50322D01*
X82841Y50359D01*
X82776Y50396D01*
X82716Y50447D01*
X82656Y50498D01*
X82600Y50563D01*
X82596Y50567D01*
X82587Y50581D01*
X82573Y50604D01*
X82559Y50632D01*
X82536Y50674D01*
X82513Y50725D01*
X82485Y50789D01*
X82462Y50859D01*
X82434Y50942D01*
X82406Y51035D01*
X82383Y51141D01*
X82364Y51257D01*
X82346Y51386D01*
X82332Y51530D01*
X82323Y51683D01*
X82318Y51849D01*
Y51854D01*
Y51858D01*
Y51872D01*
Y51891D01*
Y51937D01*
X82323Y51997D01*
X82327Y52071D01*
X82337Y52159D01*
X82346Y52252D01*
X82355Y52354D01*
X82374Y52460D01*
X82392Y52567D01*
X82420Y52678D01*
X82448Y52784D01*
X82485Y52886D01*
X82526Y52983D01*
X82573Y53076D01*
X82628Y53154D01*
X82633Y53159D01*
X82642Y53168D01*
X82656Y53187D01*
X82679Y53205D01*
X82702Y53233D01*
X82735Y53261D01*
X82776Y53288D01*
X82818Y53321D01*
X82869Y53353D01*
X82920Y53381D01*
X82980Y53409D01*
X83045Y53437D01*
X83114Y53455D01*
X83193Y53474D01*
X83271Y53483D01*
X83355Y53487D01*
X83401D01*
X83433Y53483D01*
D02*
G37*
G36*
X68999D02*
X69036Y53478D01*
X69082Y53469D01*
X69129Y53460D01*
X69184Y53446D01*
X69244Y53427D01*
X69300Y53404D01*
X69360Y53381D01*
X69420Y53349D01*
X69480Y53307D01*
X69541Y53265D01*
X69596Y53214D01*
X69647Y53154D01*
X69652Y53150D01*
X69661Y53136D01*
X69675Y53113D01*
X69698Y53080D01*
X69721Y53034D01*
X69749Y52978D01*
X69777Y52918D01*
X69804Y52840D01*
X69832Y52756D01*
X69865Y52659D01*
X69888Y52553D01*
X69911Y52432D01*
X69934Y52303D01*
X69948Y52164D01*
X69957Y52011D01*
X69962Y51845D01*
Y51840D01*
Y51835D01*
Y51821D01*
Y51803D01*
Y51757D01*
X69957Y51696D01*
X69952Y51622D01*
X69943Y51535D01*
X69934Y51442D01*
X69925Y51340D01*
X69906Y51234D01*
X69883Y51123D01*
X69860Y51016D01*
X69827Y50910D01*
X69795Y50803D01*
X69749Y50706D01*
X69703Y50614D01*
X69647Y50535D01*
X69642Y50530D01*
X69633Y50521D01*
X69619Y50502D01*
X69601Y50484D01*
X69573Y50461D01*
X69541Y50433D01*
X69499Y50401D01*
X69457Y50373D01*
X69406Y50341D01*
X69355Y50308D01*
X69295Y50280D01*
X69231Y50257D01*
X69161Y50239D01*
X69082Y50220D01*
X69004Y50211D01*
X68920Y50206D01*
X68902D01*
X68874Y50211D01*
X68842D01*
X68805Y50216D01*
X68758Y50225D01*
X68708Y50234D01*
X68652Y50253D01*
X68592Y50271D01*
X68532Y50294D01*
X68467Y50322D01*
X68407Y50359D01*
X68342Y50396D01*
X68282Y50447D01*
X68222Y50498D01*
X68166Y50563D01*
X68161Y50567D01*
X68152Y50581D01*
X68138Y50604D01*
X68124Y50632D01*
X68101Y50674D01*
X68078Y50725D01*
X68050Y50789D01*
X68027Y50859D01*
X67999Y50942D01*
X67972Y51035D01*
X67949Y51141D01*
X67930Y51257D01*
X67912Y51386D01*
X67898Y51530D01*
X67888Y51683D01*
X67884Y51849D01*
Y51854D01*
Y51858D01*
Y51872D01*
Y51891D01*
Y51937D01*
X67888Y51997D01*
X67893Y52071D01*
X67902Y52159D01*
X67912Y52252D01*
X67921Y52354D01*
X67939Y52460D01*
X67958Y52567D01*
X67986Y52678D01*
X68013Y52784D01*
X68050Y52886D01*
X68092Y52983D01*
X68138Y53076D01*
X68194Y53154D01*
X68198Y53159D01*
X68208Y53168D01*
X68222Y53187D01*
X68245Y53205D01*
X68268Y53233D01*
X68300Y53261D01*
X68342Y53288D01*
X68384Y53321D01*
X68435Y53353D01*
X68485Y53381D01*
X68546Y53409D01*
X68610Y53437D01*
X68680Y53455D01*
X68758Y53474D01*
X68837Y53483D01*
X68920Y53487D01*
X68967D01*
X68999Y53483D01*
D02*
G37*
G36*
X79662Y49383D02*
X77107D01*
Y49781D01*
X79662D01*
Y49383D01*
D02*
G37*
G36*
X188942Y65132D02*
X188993Y65128D01*
X189049Y65119D01*
X189114Y65109D01*
X189183Y65095D01*
X189257Y65077D01*
X189336Y65054D01*
X189414Y65026D01*
X189498Y64989D01*
X189576Y64952D01*
X189650Y64906D01*
X189729Y64850D01*
X189799Y64790D01*
X189803D01*
X189808Y64781D01*
X189822Y64767D01*
X189836Y64753D01*
X189854Y64730D01*
X189873Y64702D01*
X189923Y64637D01*
X189974Y64554D01*
X190030Y64452D01*
X190081Y64336D01*
X190127Y64202D01*
X189488Y64049D01*
Y64054D01*
X189484Y64059D01*
Y64073D01*
X189475Y64091D01*
X189461Y64133D01*
X189438Y64188D01*
X189405Y64253D01*
X189364Y64318D01*
X189308Y64383D01*
X189248Y64438D01*
X189239Y64443D01*
X189215Y64461D01*
X189178Y64485D01*
X189128Y64512D01*
X189063Y64540D01*
X188989Y64563D01*
X188905Y64582D01*
X188813Y64586D01*
X188780D01*
X188753Y64582D01*
X188725Y64577D01*
X188688Y64572D01*
X188609Y64554D01*
X188517Y64522D01*
X188419Y64475D01*
X188369Y64448D01*
X188322Y64415D01*
X188276Y64373D01*
X188234Y64327D01*
Y64323D01*
X188225Y64313D01*
X188216Y64299D01*
X188202Y64276D01*
X188183Y64248D01*
X188165Y64216D01*
X188146Y64174D01*
X188128Y64128D01*
X188105Y64073D01*
X188086Y64012D01*
X188068Y63943D01*
X188049Y63869D01*
X188035Y63786D01*
X188026Y63698D01*
X188021Y63601D01*
X188017Y63494D01*
Y63490D01*
Y63466D01*
Y63434D01*
X188021Y63397D01*
Y63346D01*
X188031Y63286D01*
X188035Y63226D01*
X188045Y63156D01*
X188072Y63013D01*
X188109Y62869D01*
X188133Y62800D01*
X188165Y62735D01*
X188197Y62675D01*
X188234Y62624D01*
X188239Y62619D01*
X188244Y62615D01*
X188257Y62601D01*
X188276Y62582D01*
X188322Y62545D01*
X188387Y62499D01*
X188466Y62448D01*
X188563Y62411D01*
X188674Y62379D01*
X188734Y62374D01*
X188799Y62370D01*
X188822D01*
X188841Y62374D01*
X188891Y62379D01*
X188952Y62388D01*
X189016Y62411D01*
X189090Y62439D01*
X189165Y62476D01*
X189239Y62532D01*
X189248Y62541D01*
X189271Y62564D01*
X189303Y62601D01*
X189340Y62657D01*
X189387Y62731D01*
X189428Y62818D01*
X189470Y62925D01*
X189507Y63050D01*
X190136Y62856D01*
Y62851D01*
X190132Y62832D01*
X190122Y62805D01*
X190109Y62768D01*
X190090Y62726D01*
X190072Y62675D01*
X190048Y62619D01*
X190021Y62559D01*
X189956Y62434D01*
X189873Y62305D01*
X189771Y62180D01*
X189715Y62124D01*
X189655Y62073D01*
X189650Y62069D01*
X189641Y62064D01*
X189623Y62050D01*
X189595Y62032D01*
X189563Y62013D01*
X189521Y61995D01*
X189475Y61972D01*
X189424Y61948D01*
X189364Y61921D01*
X189299Y61898D01*
X189229Y61879D01*
X189155Y61861D01*
X189077Y61842D01*
X188989Y61828D01*
X188901Y61823D01*
X188804Y61819D01*
X188776D01*
X188743Y61823D01*
X188697Y61828D01*
X188646Y61833D01*
X188581Y61842D01*
X188512Y61856D01*
X188433Y61874D01*
X188355Y61898D01*
X188271Y61925D01*
X188183Y61962D01*
X188095Y62004D01*
X188008Y62050D01*
X187920Y62110D01*
X187836Y62175D01*
X187758Y62254D01*
X187753Y62259D01*
X187739Y62272D01*
X187721Y62300D01*
X187693Y62333D01*
X187665Y62379D01*
X187628Y62430D01*
X187591Y62495D01*
X187554Y62569D01*
X187517Y62647D01*
X187480Y62735D01*
X187443Y62837D01*
X187415Y62943D01*
X187387Y63055D01*
X187369Y63179D01*
X187355Y63309D01*
X187350Y63448D01*
Y63453D01*
Y63457D01*
Y63485D01*
X187355Y63527D01*
Y63582D01*
X187364Y63647D01*
X187374Y63726D01*
X187383Y63809D01*
X187401Y63906D01*
X187424Y64003D01*
X187452Y64105D01*
X187485Y64207D01*
X187526Y64313D01*
X187573Y64415D01*
X187628Y64512D01*
X187688Y64605D01*
X187762Y64693D01*
X187767Y64697D01*
X187781Y64711D01*
X187804Y64734D01*
X187836Y64762D01*
X187878Y64795D01*
X187929Y64832D01*
X187984Y64873D01*
X188054Y64915D01*
X188128Y64957D01*
X188207Y64998D01*
X188299Y65035D01*
X188392Y65068D01*
X188498Y65095D01*
X188605Y65119D01*
X188725Y65132D01*
X188845Y65137D01*
X188901D01*
X188942Y65132D01*
D02*
G37*
G36*
X193256Y61874D02*
X192608D01*
Y63277D01*
X191344D01*
Y61874D01*
X190696D01*
Y65077D01*
X191344D01*
Y63818D01*
X192608D01*
Y65077D01*
X193256D01*
Y61874D01*
D02*
G37*
G36*
X195810Y64461D02*
X194649D01*
X194551Y63915D01*
X194556D01*
X194561Y63920D01*
X194588Y63934D01*
X194630Y63948D01*
X194681Y63971D01*
X194746Y63989D01*
X194815Y64003D01*
X194894Y64017D01*
X194973Y64022D01*
X195014D01*
X195042Y64017D01*
X195074Y64012D01*
X195116Y64008D01*
X195162Y63999D01*
X195213Y63985D01*
X195320Y63948D01*
X195380Y63925D01*
X195435Y63897D01*
X195495Y63860D01*
X195556Y63818D01*
X195611Y63772D01*
X195667Y63721D01*
X195671Y63716D01*
X195681Y63707D01*
X195694Y63689D01*
X195713Y63665D01*
X195731Y63638D01*
X195759Y63601D01*
X195782Y63559D01*
X195810Y63513D01*
X195838Y63462D01*
X195861Y63402D01*
X195889Y63337D01*
X195907Y63272D01*
X195926Y63198D01*
X195940Y63119D01*
X195949Y63036D01*
X195954Y62948D01*
Y62943D01*
Y62930D01*
Y62911D01*
X195949Y62883D01*
Y62846D01*
X195940Y62805D01*
X195935Y62758D01*
X195926Y62712D01*
X195898Y62601D01*
X195856Y62481D01*
X195829Y62416D01*
X195801Y62356D01*
X195764Y62296D01*
X195722Y62235D01*
X195718Y62231D01*
X195708Y62217D01*
X195690Y62198D01*
X195667Y62171D01*
X195634Y62138D01*
X195593Y62101D01*
X195546Y62064D01*
X195495Y62027D01*
X195435Y61985D01*
X195371Y61948D01*
X195301Y61911D01*
X195222Y61879D01*
X195139Y61851D01*
X195051Y61833D01*
X194954Y61819D01*
X194852Y61814D01*
X194811D01*
X194778Y61819D01*
X194741Y61823D01*
X194695Y61828D01*
X194649Y61833D01*
X194593Y61842D01*
X194482Y61870D01*
X194357Y61916D01*
X194297Y61939D01*
X194237Y61972D01*
X194181Y62009D01*
X194126Y62050D01*
X194121Y62055D01*
X194112Y62060D01*
X194098Y62073D01*
X194079Y62092D01*
X194061Y62120D01*
X194033Y62147D01*
X194010Y62180D01*
X193982Y62217D01*
X193950Y62263D01*
X193922Y62309D01*
X193871Y62420D01*
X193825Y62545D01*
X193811Y62615D01*
X193797Y62689D01*
X194408Y62754D01*
Y62744D01*
X194413Y62721D01*
X194422Y62680D01*
X194436Y62633D01*
X194454Y62582D01*
X194482Y62527D01*
X194519Y62476D01*
X194561Y62425D01*
X194565Y62420D01*
X194584Y62407D01*
X194612Y62388D01*
X194649Y62365D01*
X194690Y62342D01*
X194741Y62323D01*
X194801Y62309D01*
X194861Y62305D01*
X194871D01*
X194894Y62309D01*
X194931Y62314D01*
X194977Y62323D01*
X195028Y62342D01*
X195084Y62370D01*
X195139Y62411D01*
X195190Y62462D01*
X195195Y62471D01*
X195213Y62490D01*
X195232Y62527D01*
X195259Y62582D01*
X195283Y62647D01*
X195306Y62726D01*
X195320Y62823D01*
X195324Y62934D01*
Y62939D01*
Y62948D01*
Y62962D01*
Y62985D01*
X195320Y63036D01*
X195306Y63101D01*
X195292Y63175D01*
X195269Y63249D01*
X195236Y63318D01*
X195190Y63378D01*
X195185Y63383D01*
X195167Y63402D01*
X195134Y63425D01*
X195097Y63457D01*
X195047Y63485D01*
X194986Y63508D01*
X194917Y63527D01*
X194843Y63531D01*
X194815D01*
X194797Y63527D01*
X194750Y63517D01*
X194686Y63503D01*
X194612Y63476D01*
X194533Y63434D01*
X194491Y63406D01*
X194450Y63374D01*
X194408Y63337D01*
X194366Y63295D01*
X193871Y63365D01*
X194186Y65035D01*
X195810D01*
Y64461D01*
D02*
G37*
G36*
X177925Y65091D02*
X177957D01*
X177994Y65086D01*
X178077Y65068D01*
X178170Y65045D01*
X178272Y65007D01*
X178374Y64957D01*
X178420Y64924D01*
X178466Y64887D01*
X178471D01*
X178475Y64878D01*
X178489Y64864D01*
X178503Y64850D01*
X178526Y64827D01*
X178545Y64804D01*
X178596Y64739D01*
X178647Y64651D01*
X178697Y64549D01*
X178744Y64434D01*
X178776Y64295D01*
X178184Y64230D01*
Y64239D01*
X178179Y64258D01*
X178170Y64290D01*
X178161Y64332D01*
X178147Y64373D01*
X178124Y64420D01*
X178100Y64461D01*
X178068Y64498D01*
X178063Y64503D01*
X178050Y64512D01*
X178031Y64526D01*
X178003Y64545D01*
X177971Y64559D01*
X177929Y64572D01*
X177878Y64582D01*
X177827Y64586D01*
X177818D01*
X177795Y64582D01*
X177758Y64577D01*
X177712Y64563D01*
X177661Y64545D01*
X177605Y64512D01*
X177550Y64471D01*
X177499Y64410D01*
X177494Y64401D01*
X177485Y64392D01*
X177476Y64373D01*
X177466Y64355D01*
X177453Y64327D01*
X177443Y64295D01*
X177429Y64253D01*
X177411Y64207D01*
X177397Y64156D01*
X177383Y64096D01*
X177369Y64031D01*
X177355Y63957D01*
X177346Y63874D01*
X177337Y63781D01*
X177328Y63684D01*
X177332Y63689D01*
X177337Y63698D01*
X177351Y63707D01*
X177369Y63726D01*
X177392Y63749D01*
X177420Y63772D01*
X177485Y63823D01*
X177568Y63869D01*
X177665Y63915D01*
X177721Y63934D01*
X177777Y63943D01*
X177837Y63952D01*
X177901Y63957D01*
X177938D01*
X177966Y63952D01*
X177999Y63948D01*
X178036Y63943D01*
X178082Y63934D01*
X178128Y63920D01*
X178230Y63883D01*
X178286Y63860D01*
X178341Y63832D01*
X178397Y63800D01*
X178452Y63758D01*
X178508Y63712D01*
X178559Y63661D01*
X178563Y63656D01*
X178572Y63647D01*
X178586Y63633D01*
X178600Y63610D01*
X178623Y63577D01*
X178647Y63545D01*
X178670Y63503D01*
X178697Y63457D01*
X178725Y63406D01*
X178748Y63346D01*
X178771Y63286D01*
X178795Y63216D01*
X178809Y63147D01*
X178822Y63068D01*
X178832Y62990D01*
X178836Y62902D01*
Y62897D01*
Y62879D01*
Y62856D01*
X178832Y62818D01*
X178827Y62777D01*
X178822Y62731D01*
X178813Y62675D01*
X178799Y62619D01*
X178767Y62490D01*
X178744Y62425D01*
X178711Y62360D01*
X178679Y62296D01*
X178642Y62231D01*
X178596Y62166D01*
X178545Y62110D01*
X178540Y62106D01*
X178531Y62097D01*
X178517Y62083D01*
X178494Y62064D01*
X178466Y62041D01*
X178429Y62018D01*
X178392Y61990D01*
X178346Y61962D01*
X178295Y61935D01*
X178239Y61907D01*
X178179Y61884D01*
X178110Y61861D01*
X178040Y61842D01*
X177966Y61828D01*
X177888Y61819D01*
X177804Y61814D01*
X177781D01*
X177758Y61819D01*
X177726D01*
X177684Y61828D01*
X177633Y61833D01*
X177582Y61847D01*
X177522Y61861D01*
X177462Y61879D01*
X177397Y61907D01*
X177328Y61935D01*
X177263Y61972D01*
X177193Y62013D01*
X177129Y62064D01*
X177064Y62124D01*
X177004Y62189D01*
X176999Y62194D01*
X176990Y62208D01*
X176976Y62231D01*
X176957Y62263D01*
X176930Y62305D01*
X176906Y62356D01*
X176879Y62416D01*
X176851Y62485D01*
X176819Y62569D01*
X176791Y62657D01*
X176768Y62758D01*
X176744Y62874D01*
X176721Y62994D01*
X176707Y63129D01*
X176698Y63272D01*
X176694Y63429D01*
Y63434D01*
Y63439D01*
Y63453D01*
Y63466D01*
Y63513D01*
X176698Y63573D01*
X176703Y63647D01*
X176712Y63730D01*
X176721Y63823D01*
X176735Y63920D01*
X176749Y64022D01*
X176772Y64128D01*
X176800Y64235D01*
X176832Y64341D01*
X176869Y64438D01*
X176911Y64535D01*
X176962Y64623D01*
X177018Y64702D01*
X177022Y64707D01*
X177031Y64721D01*
X177050Y64739D01*
X177078Y64762D01*
X177110Y64795D01*
X177147Y64827D01*
X177193Y64864D01*
X177244Y64901D01*
X177304Y64933D01*
X177365Y64970D01*
X177439Y65003D01*
X177513Y65035D01*
X177591Y65058D01*
X177679Y65077D01*
X177767Y65091D01*
X177864Y65095D01*
X177901D01*
X177925Y65091D01*
D02*
G37*
G36*
X171848Y65132D02*
X171899Y65128D01*
X171955Y65119D01*
X172019Y65109D01*
X172089Y65095D01*
X172163Y65077D01*
X172242Y65054D01*
X172320Y65026D01*
X172404Y64989D01*
X172482Y64952D01*
X172556Y64906D01*
X172635Y64850D01*
X172704Y64790D01*
X172709D01*
X172714Y64781D01*
X172727Y64767D01*
X172741Y64753D01*
X172760Y64730D01*
X172778Y64702D01*
X172829Y64637D01*
X172880Y64554D01*
X172936Y64452D01*
X172987Y64336D01*
X173033Y64202D01*
X172394Y64049D01*
Y64054D01*
X172390Y64059D01*
Y64073D01*
X172380Y64091D01*
X172367Y64133D01*
X172343Y64188D01*
X172311Y64253D01*
X172269Y64318D01*
X172214Y64383D01*
X172154Y64438D01*
X172144Y64443D01*
X172121Y64461D01*
X172084Y64485D01*
X172033Y64512D01*
X171969Y64540D01*
X171894Y64563D01*
X171811Y64582D01*
X171719Y64586D01*
X171686D01*
X171658Y64582D01*
X171631Y64577D01*
X171594Y64572D01*
X171515Y64554D01*
X171422Y64522D01*
X171325Y64475D01*
X171274Y64448D01*
X171228Y64415D01*
X171182Y64373D01*
X171140Y64327D01*
Y64323D01*
X171131Y64313D01*
X171122Y64299D01*
X171108Y64276D01*
X171089Y64248D01*
X171071Y64216D01*
X171052Y64174D01*
X171034Y64128D01*
X171011Y64073D01*
X170992Y64012D01*
X170974Y63943D01*
X170955Y63869D01*
X170941Y63786D01*
X170932Y63698D01*
X170927Y63601D01*
X170923Y63494D01*
Y63490D01*
Y63466D01*
Y63434D01*
X170927Y63397D01*
Y63346D01*
X170936Y63286D01*
X170941Y63226D01*
X170950Y63156D01*
X170978Y63013D01*
X171015Y62869D01*
X171038Y62800D01*
X171071Y62735D01*
X171103Y62675D01*
X171140Y62624D01*
X171145Y62619D01*
X171149Y62615D01*
X171163Y62601D01*
X171182Y62582D01*
X171228Y62545D01*
X171293Y62499D01*
X171372Y62448D01*
X171469Y62411D01*
X171580Y62379D01*
X171640Y62374D01*
X171705Y62370D01*
X171728D01*
X171746Y62374D01*
X171797Y62379D01*
X171857Y62388D01*
X171922Y62411D01*
X171996Y62439D01*
X172070Y62476D01*
X172144Y62532D01*
X172154Y62541D01*
X172177Y62564D01*
X172209Y62601D01*
X172246Y62657D01*
X172292Y62731D01*
X172334Y62818D01*
X172376Y62925D01*
X172413Y63050D01*
X173042Y62856D01*
Y62851D01*
X173038Y62832D01*
X173028Y62805D01*
X173014Y62768D01*
X172996Y62726D01*
X172977Y62675D01*
X172954Y62619D01*
X172926Y62559D01*
X172862Y62434D01*
X172778Y62305D01*
X172677Y62180D01*
X172621Y62124D01*
X172561Y62073D01*
X172556Y62069D01*
X172547Y62064D01*
X172528Y62050D01*
X172501Y62032D01*
X172468Y62013D01*
X172427Y61995D01*
X172380Y61972D01*
X172329Y61948D01*
X172269Y61921D01*
X172205Y61898D01*
X172135Y61879D01*
X172061Y61861D01*
X171982Y61842D01*
X171894Y61828D01*
X171807Y61823D01*
X171709Y61819D01*
X171682D01*
X171649Y61823D01*
X171603Y61828D01*
X171552Y61833D01*
X171487Y61842D01*
X171418Y61856D01*
X171339Y61874D01*
X171260Y61898D01*
X171177Y61925D01*
X171089Y61962D01*
X171001Y62004D01*
X170913Y62050D01*
X170825Y62110D01*
X170742Y62175D01*
X170663Y62254D01*
X170659Y62259D01*
X170645Y62272D01*
X170626Y62300D01*
X170599Y62333D01*
X170571Y62379D01*
X170534Y62430D01*
X170497Y62495D01*
X170460Y62569D01*
X170423Y62647D01*
X170386Y62735D01*
X170349Y62837D01*
X170321Y62943D01*
X170293Y63055D01*
X170275Y63179D01*
X170261Y63309D01*
X170256Y63448D01*
Y63453D01*
Y63457D01*
Y63485D01*
X170261Y63527D01*
Y63582D01*
X170270Y63647D01*
X170279Y63726D01*
X170289Y63809D01*
X170307Y63906D01*
X170330Y64003D01*
X170358Y64105D01*
X170390Y64207D01*
X170432Y64313D01*
X170478Y64415D01*
X170534Y64512D01*
X170594Y64605D01*
X170668Y64693D01*
X170673Y64697D01*
X170687Y64711D01*
X170710Y64734D01*
X170742Y64762D01*
X170784Y64795D01*
X170835Y64832D01*
X170890Y64873D01*
X170960Y64915D01*
X171034Y64957D01*
X171112Y64998D01*
X171205Y65035D01*
X171297Y65068D01*
X171404Y65095D01*
X171510Y65119D01*
X171631Y65132D01*
X171751Y65137D01*
X171807D01*
X171848Y65132D01*
D02*
G37*
G36*
X176161Y61874D02*
X175513D01*
Y63277D01*
X174250D01*
Y61874D01*
X173602D01*
Y65077D01*
X174250D01*
Y63818D01*
X175513D01*
Y65077D01*
X176161D01*
Y61874D01*
D02*
G37*
G36*
X154729Y65132D02*
X154779Y65128D01*
X154835Y65119D01*
X154900Y65109D01*
X154969Y65095D01*
X155043Y65077D01*
X155122Y65054D01*
X155201Y65026D01*
X155284Y64989D01*
X155363Y64952D01*
X155437Y64906D01*
X155515Y64850D01*
X155585Y64790D01*
X155589D01*
X155594Y64781D01*
X155608Y64767D01*
X155622Y64753D01*
X155640Y64730D01*
X155659Y64702D01*
X155710Y64637D01*
X155761Y64554D01*
X155816Y64452D01*
X155867Y64336D01*
X155913Y64202D01*
X155275Y64049D01*
Y64054D01*
X155270Y64059D01*
Y64073D01*
X155261Y64091D01*
X155247Y64133D01*
X155224Y64188D01*
X155191Y64253D01*
X155150Y64318D01*
X155094Y64383D01*
X155034Y64438D01*
X155025Y64443D01*
X155002Y64461D01*
X154965Y64485D01*
X154914Y64512D01*
X154849Y64540D01*
X154775Y64563D01*
X154692Y64582D01*
X154599Y64586D01*
X154567D01*
X154539Y64582D01*
X154511Y64577D01*
X154474Y64572D01*
X154395Y64554D01*
X154303Y64522D01*
X154206Y64475D01*
X154155Y64448D01*
X154108Y64415D01*
X154062Y64373D01*
X154021Y64327D01*
Y64323D01*
X154011Y64313D01*
X154002Y64299D01*
X153988Y64276D01*
X153970Y64248D01*
X153951Y64216D01*
X153933Y64174D01*
X153914Y64128D01*
X153891Y64073D01*
X153872Y64012D01*
X153854Y63943D01*
X153835Y63869D01*
X153822Y63786D01*
X153812Y63698D01*
X153808Y63601D01*
X153803Y63494D01*
Y63490D01*
Y63466D01*
Y63434D01*
X153808Y63397D01*
Y63346D01*
X153817Y63286D01*
X153822Y63226D01*
X153831Y63156D01*
X153859Y63013D01*
X153896Y62869D01*
X153919Y62800D01*
X153951Y62735D01*
X153984Y62675D01*
X154021Y62624D01*
X154025Y62619D01*
X154030Y62615D01*
X154044Y62601D01*
X154062Y62582D01*
X154108Y62545D01*
X154173Y62499D01*
X154252Y62448D01*
X154349Y62411D01*
X154460Y62379D01*
X154520Y62374D01*
X154585Y62370D01*
X154608D01*
X154627Y62374D01*
X154678Y62379D01*
X154738Y62388D01*
X154803Y62411D01*
X154877Y62439D01*
X154951Y62476D01*
X155025Y62532D01*
X155034Y62541D01*
X155057Y62564D01*
X155090Y62601D01*
X155127Y62657D01*
X155173Y62731D01*
X155215Y62818D01*
X155256Y62925D01*
X155293Y63050D01*
X155923Y62856D01*
Y62851D01*
X155918Y62832D01*
X155909Y62805D01*
X155895Y62768D01*
X155876Y62726D01*
X155858Y62675D01*
X155835Y62619D01*
X155807Y62559D01*
X155742Y62434D01*
X155659Y62305D01*
X155557Y62180D01*
X155501Y62124D01*
X155441Y62073D01*
X155437Y62069D01*
X155427Y62064D01*
X155409Y62050D01*
X155381Y62032D01*
X155349Y62013D01*
X155307Y61995D01*
X155261Y61972D01*
X155210Y61948D01*
X155150Y61921D01*
X155085Y61898D01*
X155016Y61879D01*
X154941Y61861D01*
X154863Y61842D01*
X154775Y61828D01*
X154687Y61823D01*
X154590Y61819D01*
X154562D01*
X154530Y61823D01*
X154483Y61828D01*
X154432Y61833D01*
X154368Y61842D01*
X154298Y61856D01*
X154220Y61874D01*
X154141Y61898D01*
X154058Y61925D01*
X153970Y61962D01*
X153882Y62004D01*
X153794Y62050D01*
X153706Y62110D01*
X153623Y62175D01*
X153544Y62254D01*
X153539Y62259D01*
X153525Y62272D01*
X153507Y62300D01*
X153479Y62333D01*
X153451Y62379D01*
X153414Y62430D01*
X153377Y62495D01*
X153340Y62569D01*
X153303Y62647D01*
X153266Y62735D01*
X153229Y62837D01*
X153201Y62943D01*
X153174Y63055D01*
X153155Y63179D01*
X153141Y63309D01*
X153137Y63448D01*
Y63453D01*
Y63457D01*
Y63485D01*
X153141Y63527D01*
Y63582D01*
X153150Y63647D01*
X153160Y63726D01*
X153169Y63809D01*
X153188Y63906D01*
X153211Y64003D01*
X153238Y64105D01*
X153271Y64207D01*
X153312Y64313D01*
X153359Y64415D01*
X153414Y64512D01*
X153474Y64605D01*
X153548Y64693D01*
X153553Y64697D01*
X153567Y64711D01*
X153590Y64734D01*
X153623Y64762D01*
X153664Y64795D01*
X153715Y64832D01*
X153771Y64873D01*
X153840Y64915D01*
X153914Y64957D01*
X153993Y64998D01*
X154085Y65035D01*
X154178Y65068D01*
X154284Y65095D01*
X154391Y65119D01*
X154511Y65132D01*
X154631Y65137D01*
X154687D01*
X154729Y65132D01*
D02*
G37*
G36*
X159042Y61874D02*
X158394D01*
Y63277D01*
X157130D01*
Y61874D01*
X156483D01*
Y65077D01*
X157130D01*
Y63818D01*
X158394D01*
Y65077D01*
X159042D01*
Y61874D01*
D02*
G37*
G36*
X161675Y64591D02*
X161670Y64586D01*
X161661Y64577D01*
X161647Y64563D01*
X161629Y64545D01*
X161606Y64517D01*
X161578Y64485D01*
X161545Y64448D01*
X161508Y64401D01*
X161471Y64350D01*
X161430Y64295D01*
X161383Y64235D01*
X161337Y64170D01*
X161291Y64096D01*
X161245Y64022D01*
X161194Y63938D01*
X161143Y63850D01*
X161138Y63846D01*
X161129Y63827D01*
X161115Y63804D01*
X161097Y63767D01*
X161078Y63726D01*
X161050Y63670D01*
X161023Y63610D01*
X160990Y63545D01*
X160958Y63471D01*
X160925Y63392D01*
X160888Y63309D01*
X160856Y63221D01*
X160791Y63031D01*
X160731Y62832D01*
Y62828D01*
X160726Y62809D01*
X160717Y62781D01*
X160708Y62740D01*
X160699Y62694D01*
X160689Y62643D01*
X160675Y62578D01*
X160662Y62513D01*
X160648Y62439D01*
X160638Y62365D01*
X160615Y62203D01*
X160601Y62036D01*
X160597Y61874D01*
X160004D01*
Y61884D01*
Y61902D01*
X160009Y61939D01*
Y61990D01*
X160014Y62050D01*
X160023Y62120D01*
X160032Y62203D01*
X160046Y62291D01*
X160060Y62388D01*
X160078Y62495D01*
X160102Y62606D01*
X160125Y62726D01*
X160157Y62846D01*
X160189Y62971D01*
X160231Y63096D01*
X160277Y63226D01*
X160282Y63235D01*
X160291Y63258D01*
X160305Y63295D01*
X160324Y63341D01*
X160351Y63402D01*
X160384Y63476D01*
X160421Y63554D01*
X160463Y63642D01*
X160509Y63735D01*
X160560Y63832D01*
X160615Y63938D01*
X160680Y64040D01*
X160814Y64258D01*
X160967Y64466D01*
X159574D01*
Y65035D01*
X161675D01*
Y64591D01*
D02*
G37*
G36*
X137634Y65132D02*
X137685Y65128D01*
X137741Y65119D01*
X137806Y65109D01*
X137875Y65095D01*
X137949Y65077D01*
X138028Y65054D01*
X138106Y65026D01*
X138190Y64989D01*
X138268Y64952D01*
X138342Y64906D01*
X138421Y64850D01*
X138491Y64790D01*
X138495D01*
X138500Y64781D01*
X138514Y64767D01*
X138528Y64753D01*
X138546Y64730D01*
X138565Y64702D01*
X138615Y64637D01*
X138666Y64554D01*
X138722Y64452D01*
X138773Y64336D01*
X138819Y64202D01*
X138180Y64049D01*
Y64054D01*
X138176Y64059D01*
Y64073D01*
X138167Y64091D01*
X138153Y64133D01*
X138130Y64188D01*
X138097Y64253D01*
X138056Y64318D01*
X138000Y64383D01*
X137940Y64438D01*
X137931Y64443D01*
X137907Y64461D01*
X137870Y64485D01*
X137820Y64512D01*
X137755Y64540D01*
X137681Y64563D01*
X137597Y64582D01*
X137505Y64586D01*
X137472D01*
X137445Y64582D01*
X137417Y64577D01*
X137380Y64572D01*
X137301Y64554D01*
X137209Y64522D01*
X137111Y64475D01*
X137061Y64448D01*
X137014Y64415D01*
X136968Y64373D01*
X136926Y64327D01*
Y64323D01*
X136917Y64313D01*
X136908Y64299D01*
X136894Y64276D01*
X136875Y64248D01*
X136857Y64216D01*
X136838Y64174D01*
X136820Y64128D01*
X136797Y64073D01*
X136778Y64012D01*
X136760Y63943D01*
X136741Y63869D01*
X136727Y63786D01*
X136718Y63698D01*
X136713Y63601D01*
X136709Y63494D01*
Y63490D01*
Y63466D01*
Y63434D01*
X136713Y63397D01*
Y63346D01*
X136723Y63286D01*
X136727Y63226D01*
X136737Y63156D01*
X136764Y63013D01*
X136801Y62869D01*
X136825Y62800D01*
X136857Y62735D01*
X136889Y62675D01*
X136926Y62624D01*
X136931Y62619D01*
X136936Y62615D01*
X136949Y62601D01*
X136968Y62582D01*
X137014Y62545D01*
X137079Y62499D01*
X137158Y62448D01*
X137255Y62411D01*
X137366Y62379D01*
X137426Y62374D01*
X137491Y62370D01*
X137514D01*
X137533Y62374D01*
X137583Y62379D01*
X137644Y62388D01*
X137708Y62411D01*
X137782Y62439D01*
X137857Y62476D01*
X137931Y62532D01*
X137940Y62541D01*
X137963Y62564D01*
X137995Y62601D01*
X138032Y62657D01*
X138079Y62731D01*
X138120Y62818D01*
X138162Y62925D01*
X138199Y63050D01*
X138828Y62856D01*
Y62851D01*
X138824Y62832D01*
X138814Y62805D01*
X138801Y62768D01*
X138782Y62726D01*
X138764Y62675D01*
X138740Y62619D01*
X138713Y62559D01*
X138648Y62434D01*
X138565Y62305D01*
X138463Y62180D01*
X138407Y62124D01*
X138347Y62073D01*
X138342Y62069D01*
X138333Y62064D01*
X138315Y62050D01*
X138287Y62032D01*
X138255Y62013D01*
X138213Y61995D01*
X138167Y61972D01*
X138116Y61948D01*
X138056Y61921D01*
X137991Y61898D01*
X137921Y61879D01*
X137847Y61861D01*
X137769Y61842D01*
X137681Y61828D01*
X137593Y61823D01*
X137496Y61819D01*
X137468D01*
X137435Y61823D01*
X137389Y61828D01*
X137338Y61833D01*
X137273Y61842D01*
X137204Y61856D01*
X137125Y61874D01*
X137047Y61898D01*
X136963Y61925D01*
X136875Y61962D01*
X136787Y62004D01*
X136700Y62050D01*
X136612Y62110D01*
X136528Y62175D01*
X136450Y62254D01*
X136445Y62259D01*
X136431Y62272D01*
X136413Y62300D01*
X136385Y62333D01*
X136357Y62379D01*
X136320Y62430D01*
X136283Y62495D01*
X136246Y62569D01*
X136209Y62647D01*
X136172Y62735D01*
X136135Y62837D01*
X136107Y62943D01*
X136079Y63055D01*
X136061Y63179D01*
X136047Y63309D01*
X136042Y63448D01*
Y63453D01*
Y63457D01*
Y63485D01*
X136047Y63527D01*
Y63582D01*
X136056Y63647D01*
X136066Y63726D01*
X136075Y63809D01*
X136093Y63906D01*
X136116Y64003D01*
X136144Y64105D01*
X136177Y64207D01*
X136218Y64313D01*
X136265Y64415D01*
X136320Y64512D01*
X136380Y64605D01*
X136454Y64693D01*
X136459Y64697D01*
X136473Y64711D01*
X136496Y64734D01*
X136528Y64762D01*
X136570Y64795D01*
X136621Y64832D01*
X136676Y64873D01*
X136746Y64915D01*
X136820Y64957D01*
X136899Y64998D01*
X136991Y65035D01*
X137084Y65068D01*
X137190Y65095D01*
X137297Y65119D01*
X137417Y65132D01*
X137537Y65137D01*
X137593D01*
X137634Y65132D01*
D02*
G37*
G36*
X141948Y61874D02*
X141300D01*
Y63277D01*
X140036D01*
Y61874D01*
X139388D01*
Y65077D01*
X140036D01*
Y63818D01*
X141300D01*
Y65077D01*
X141948D01*
Y61874D01*
D02*
G37*
G36*
X143586Y65091D02*
X143628Y65086D01*
X143669Y65082D01*
X143720Y65077D01*
X143771Y65068D01*
X143887Y65040D01*
X144007Y64998D01*
X144063Y64970D01*
X144123Y64938D01*
X144174Y64901D01*
X144224Y64859D01*
X144229Y64855D01*
X144234Y64850D01*
X144248Y64836D01*
X144266Y64818D01*
X144285Y64795D01*
X144303Y64767D01*
X144354Y64697D01*
X144400Y64609D01*
X144437Y64512D01*
X144470Y64397D01*
X144474Y64332D01*
X144479Y64267D01*
Y64262D01*
Y64258D01*
Y64230D01*
X144474Y64188D01*
X144465Y64133D01*
X144451Y64073D01*
X144428Y64008D01*
X144400Y63938D01*
X144359Y63869D01*
X144354Y63860D01*
X144336Y63841D01*
X144312Y63809D01*
X144275Y63772D01*
X144229Y63726D01*
X144174Y63684D01*
X144109Y63642D01*
X144035Y63605D01*
X144039D01*
X144049Y63601D01*
X144063Y63596D01*
X144081Y63587D01*
X144127Y63559D01*
X144187Y63522D01*
X144252Y63480D01*
X144322Y63425D01*
X144386Y63360D01*
X144442Y63286D01*
X144447Y63277D01*
X144465Y63249D01*
X144488Y63207D01*
X144511Y63152D01*
X144539Y63082D01*
X144558Y62999D01*
X144576Y62911D01*
X144581Y62814D01*
Y62809D01*
Y62795D01*
Y62772D01*
X144576Y62740D01*
X144572Y62703D01*
X144567Y62657D01*
X144558Y62610D01*
X144544Y62559D01*
X144511Y62444D01*
X144488Y62383D01*
X144461Y62323D01*
X144428Y62263D01*
X144386Y62203D01*
X144345Y62147D01*
X144294Y62092D01*
X144289Y62087D01*
X144280Y62078D01*
X144266Y62064D01*
X144243Y62050D01*
X144215Y62027D01*
X144178Y62004D01*
X144141Y61981D01*
X144095Y61953D01*
X144044Y61925D01*
X143984Y61902D01*
X143924Y61879D01*
X143859Y61856D01*
X143785Y61842D01*
X143706Y61828D01*
X143628Y61819D01*
X143540Y61814D01*
X143498D01*
X143466Y61819D01*
X143428Y61823D01*
X143387Y61828D01*
X143341Y61833D01*
X143285Y61842D01*
X143169Y61870D01*
X143049Y61911D01*
X142989Y61935D01*
X142929Y61967D01*
X142869Y61999D01*
X142813Y62041D01*
X142808Y62046D01*
X142799Y62055D01*
X142781Y62069D01*
X142757Y62092D01*
X142734Y62120D01*
X142707Y62152D01*
X142674Y62194D01*
X142642Y62235D01*
X142609Y62286D01*
X142577Y62342D01*
X142549Y62402D01*
X142526Y62471D01*
X142503Y62541D01*
X142484Y62619D01*
X142475Y62698D01*
X142471Y62786D01*
Y62791D01*
Y62800D01*
Y62814D01*
Y62832D01*
X142475Y62883D01*
X142484Y62943D01*
X142503Y63017D01*
X142521Y63101D01*
X142554Y63184D01*
X142595Y63267D01*
Y63272D01*
X142600Y63277D01*
X142619Y63304D01*
X142651Y63341D01*
X142697Y63392D01*
X142753Y63448D01*
X142822Y63503D01*
X142906Y63554D01*
X143003Y63605D01*
X142998D01*
X142993Y63610D01*
X142966Y63624D01*
X142924Y63647D01*
X142873Y63675D01*
X142813Y63716D01*
X142757Y63763D01*
X142702Y63818D01*
X142656Y63878D01*
X142651Y63888D01*
X142637Y63911D01*
X142623Y63943D01*
X142605Y63994D01*
X142582Y64049D01*
X142568Y64119D01*
X142554Y64188D01*
X142549Y64267D01*
Y64272D01*
Y64281D01*
Y64299D01*
X142554Y64327D01*
X142558Y64355D01*
X142563Y64392D01*
X142582Y64475D01*
X142609Y64568D01*
X142656Y64670D01*
X142683Y64716D01*
X142716Y64767D01*
X142757Y64813D01*
X142799Y64859D01*
X142804Y64864D01*
X142813Y64869D01*
X142827Y64883D01*
X142845Y64896D01*
X142873Y64915D01*
X142901Y64933D01*
X142938Y64957D01*
X142984Y64980D01*
X143031Y64998D01*
X143081Y65021D01*
X143142Y65040D01*
X143206Y65058D01*
X143276Y65072D01*
X143350Y65086D01*
X143428Y65091D01*
X143512Y65095D01*
X143558D01*
X143586Y65091D01*
D02*
G37*
G36*
X14018D02*
X14051D01*
X14088Y65086D01*
X14171Y65068D01*
X14264Y65045D01*
X14365Y65007D01*
X14467Y64957D01*
X14514Y64924D01*
X14560Y64887D01*
X14564D01*
X14569Y64878D01*
X14583Y64864D01*
X14597Y64850D01*
X14620Y64827D01*
X14639Y64804D01*
X14689Y64739D01*
X14740Y64651D01*
X14791Y64549D01*
X14838Y64434D01*
X14870Y64295D01*
X14278Y64230D01*
Y64239D01*
X14273Y64258D01*
X14264Y64290D01*
X14254Y64332D01*
X14241Y64373D01*
X14217Y64420D01*
X14194Y64461D01*
X14162Y64498D01*
X14157Y64503D01*
X14143Y64512D01*
X14125Y64526D01*
X14097Y64545D01*
X14065Y64559D01*
X14023Y64572D01*
X13972Y64582D01*
X13921Y64586D01*
X13912D01*
X13889Y64582D01*
X13852Y64577D01*
X13806Y64563D01*
X13755Y64545D01*
X13699Y64512D01*
X13644Y64471D01*
X13593Y64410D01*
X13588Y64401D01*
X13579Y64392D01*
X13569Y64373D01*
X13560Y64355D01*
X13546Y64327D01*
X13537Y64295D01*
X13523Y64253D01*
X13505Y64207D01*
X13491Y64156D01*
X13477Y64096D01*
X13463Y64031D01*
X13449Y63957D01*
X13440Y63874D01*
X13431Y63781D01*
X13421Y63684D01*
X13426Y63689D01*
X13431Y63698D01*
X13445Y63707D01*
X13463Y63726D01*
X13486Y63749D01*
X13514Y63772D01*
X13579Y63823D01*
X13662Y63869D01*
X13759Y63915D01*
X13815Y63934D01*
X13870Y63943D01*
X13930Y63952D01*
X13995Y63957D01*
X14032D01*
X14060Y63952D01*
X14092Y63948D01*
X14129Y63943D01*
X14176Y63934D01*
X14222Y63920D01*
X14324Y63883D01*
X14379Y63860D01*
X14435Y63832D01*
X14490Y63800D01*
X14546Y63758D01*
X14602Y63712D01*
X14652Y63661D01*
X14657Y63656D01*
X14666Y63647D01*
X14680Y63633D01*
X14694Y63610D01*
X14717Y63577D01*
X14740Y63545D01*
X14763Y63503D01*
X14791Y63457D01*
X14819Y63406D01*
X14842Y63346D01*
X14865Y63286D01*
X14888Y63216D01*
X14902Y63147D01*
X14916Y63068D01*
X14925Y62990D01*
X14930Y62902D01*
Y62897D01*
Y62879D01*
Y62856D01*
X14925Y62818D01*
X14921Y62777D01*
X14916Y62731D01*
X14907Y62675D01*
X14893Y62619D01*
X14861Y62490D01*
X14838Y62425D01*
X14805Y62360D01*
X14773Y62296D01*
X14736Y62231D01*
X14689Y62166D01*
X14639Y62110D01*
X14634Y62106D01*
X14625Y62097D01*
X14611Y62083D01*
X14588Y62064D01*
X14560Y62041D01*
X14523Y62018D01*
X14486Y61990D01*
X14440Y61962D01*
X14389Y61935D01*
X14333Y61907D01*
X14273Y61884D01*
X14204Y61861D01*
X14134Y61842D01*
X14060Y61828D01*
X13981Y61819D01*
X13898Y61814D01*
X13875D01*
X13852Y61819D01*
X13819D01*
X13778Y61828D01*
X13727Y61833D01*
X13676Y61847D01*
X13616Y61861D01*
X13556Y61879D01*
X13491Y61907D01*
X13421Y61935D01*
X13357Y61972D01*
X13287Y62013D01*
X13222Y62064D01*
X13158Y62124D01*
X13097Y62189D01*
X13093Y62194D01*
X13084Y62208D01*
X13070Y62231D01*
X13051Y62263D01*
X13023Y62305D01*
X13000Y62356D01*
X12972Y62416D01*
X12945Y62485D01*
X12912Y62569D01*
X12885Y62657D01*
X12861Y62758D01*
X12838Y62874D01*
X12815Y62994D01*
X12801Y63129D01*
X12792Y63272D01*
X12787Y63429D01*
Y63434D01*
Y63439D01*
Y63453D01*
Y63466D01*
Y63513D01*
X12792Y63573D01*
X12797Y63647D01*
X12806Y63730D01*
X12815Y63823D01*
X12829Y63920D01*
X12843Y64022D01*
X12866Y64128D01*
X12894Y64235D01*
X12926Y64341D01*
X12963Y64438D01*
X13005Y64535D01*
X13056Y64623D01*
X13111Y64702D01*
X13116Y64707D01*
X13125Y64721D01*
X13144Y64739D01*
X13172Y64762D01*
X13204Y64795D01*
X13241Y64827D01*
X13287Y64864D01*
X13338Y64901D01*
X13398Y64933D01*
X13458Y64970D01*
X13532Y65003D01*
X13607Y65035D01*
X13685Y65058D01*
X13773Y65077D01*
X13861Y65091D01*
X13958Y65095D01*
X13995D01*
X14018Y65091D01*
D02*
G37*
G36*
X7942Y65132D02*
X7993Y65128D01*
X8048Y65119D01*
X8113Y65109D01*
X8183Y65095D01*
X8257Y65077D01*
X8335Y65054D01*
X8414Y65026D01*
X8497Y64989D01*
X8576Y64952D01*
X8650Y64906D01*
X8729Y64850D01*
X8798Y64790D01*
X8803D01*
X8807Y64781D01*
X8821Y64767D01*
X8835Y64753D01*
X8854Y64730D01*
X8872Y64702D01*
X8923Y64637D01*
X8974Y64554D01*
X9030Y64452D01*
X9080Y64336D01*
X9127Y64202D01*
X8488Y64049D01*
Y64054D01*
X8483Y64059D01*
Y64073D01*
X8474Y64091D01*
X8460Y64133D01*
X8437Y64188D01*
X8405Y64253D01*
X8363Y64318D01*
X8308Y64383D01*
X8247Y64438D01*
X8238Y64443D01*
X8215Y64461D01*
X8178Y64485D01*
X8127Y64512D01*
X8062Y64540D01*
X7988Y64563D01*
X7905Y64582D01*
X7812Y64586D01*
X7780D01*
X7752Y64582D01*
X7724Y64577D01*
X7687Y64572D01*
X7609Y64554D01*
X7516Y64522D01*
X7419Y64475D01*
X7368Y64448D01*
X7322Y64415D01*
X7276Y64373D01*
X7234Y64327D01*
Y64323D01*
X7225Y64313D01*
X7215Y64299D01*
X7202Y64276D01*
X7183Y64248D01*
X7165Y64216D01*
X7146Y64174D01*
X7127Y64128D01*
X7104Y64073D01*
X7086Y64012D01*
X7067Y63943D01*
X7049Y63869D01*
X7035Y63786D01*
X7026Y63698D01*
X7021Y63601D01*
X7016Y63494D01*
Y63490D01*
Y63466D01*
Y63434D01*
X7021Y63397D01*
Y63346D01*
X7030Y63286D01*
X7035Y63226D01*
X7044Y63156D01*
X7072Y63013D01*
X7109Y62869D01*
X7132Y62800D01*
X7165Y62735D01*
X7197Y62675D01*
X7234Y62624D01*
X7239Y62619D01*
X7243Y62615D01*
X7257Y62601D01*
X7276Y62582D01*
X7322Y62545D01*
X7387Y62499D01*
X7465Y62448D01*
X7562Y62411D01*
X7674Y62379D01*
X7734Y62374D01*
X7799Y62370D01*
X7822D01*
X7840Y62374D01*
X7891Y62379D01*
X7951Y62388D01*
X8016Y62411D01*
X8090Y62439D01*
X8164Y62476D01*
X8238Y62532D01*
X8247Y62541D01*
X8271Y62564D01*
X8303Y62601D01*
X8340Y62657D01*
X8386Y62731D01*
X8428Y62818D01*
X8470Y62925D01*
X8507Y63050D01*
X9136Y62856D01*
Y62851D01*
X9131Y62832D01*
X9122Y62805D01*
X9108Y62768D01*
X9090Y62726D01*
X9071Y62675D01*
X9048Y62619D01*
X9020Y62559D01*
X8955Y62434D01*
X8872Y62305D01*
X8770Y62180D01*
X8715Y62124D01*
X8655Y62073D01*
X8650Y62069D01*
X8641Y62064D01*
X8622Y62050D01*
X8595Y62032D01*
X8562Y62013D01*
X8520Y61995D01*
X8474Y61972D01*
X8423Y61948D01*
X8363Y61921D01*
X8298Y61898D01*
X8229Y61879D01*
X8155Y61861D01*
X8076Y61842D01*
X7988Y61828D01*
X7900Y61823D01*
X7803Y61819D01*
X7775D01*
X7743Y61823D01*
X7697Y61828D01*
X7646Y61833D01*
X7581Y61842D01*
X7512Y61856D01*
X7433Y61874D01*
X7354Y61898D01*
X7271Y61925D01*
X7183Y61962D01*
X7095Y62004D01*
X7007Y62050D01*
X6919Y62110D01*
X6836Y62175D01*
X6757Y62254D01*
X6753Y62259D01*
X6739Y62272D01*
X6720Y62300D01*
X6692Y62333D01*
X6665Y62379D01*
X6628Y62430D01*
X6591Y62495D01*
X6554Y62569D01*
X6517Y62647D01*
X6480Y62735D01*
X6443Y62837D01*
X6415Y62943D01*
X6387Y63055D01*
X6369Y63179D01*
X6355Y63309D01*
X6350Y63448D01*
Y63453D01*
Y63457D01*
Y63485D01*
X6355Y63527D01*
Y63582D01*
X6364Y63647D01*
X6373Y63726D01*
X6382Y63809D01*
X6401Y63906D01*
X6424Y64003D01*
X6452Y64105D01*
X6484Y64207D01*
X6526Y64313D01*
X6572Y64415D01*
X6628Y64512D01*
X6688Y64605D01*
X6762Y64693D01*
X6767Y64697D01*
X6780Y64711D01*
X6804Y64734D01*
X6836Y64762D01*
X6878Y64795D01*
X6928Y64832D01*
X6984Y64873D01*
X7053Y64915D01*
X7127Y64957D01*
X7206Y64998D01*
X7299Y65035D01*
X7391Y65068D01*
X7498Y65095D01*
X7604Y65119D01*
X7724Y65132D01*
X7845Y65137D01*
X7900D01*
X7942Y65132D01*
D02*
G37*
G36*
X12255Y61874D02*
X11607D01*
Y63277D01*
X10344D01*
Y61874D01*
X9696D01*
Y65077D01*
X10344D01*
Y63818D01*
X11607D01*
Y65077D01*
X12255D01*
Y61874D01*
D02*
G37*
G36*
X24147Y65132D02*
X24198Y65128D01*
X24254Y65119D01*
X24318Y65109D01*
X24388Y65095D01*
X24462Y65077D01*
X24541Y65054D01*
X24619Y65026D01*
X24703Y64989D01*
X24781Y64952D01*
X24855Y64906D01*
X24934Y64850D01*
X25003Y64790D01*
X25008D01*
X25013Y64781D01*
X25026Y64767D01*
X25040Y64753D01*
X25059Y64730D01*
X25077Y64702D01*
X25128Y64637D01*
X25179Y64554D01*
X25235Y64452D01*
X25286Y64336D01*
X25332Y64202D01*
X24693Y64049D01*
Y64054D01*
X24689Y64059D01*
Y64073D01*
X24679Y64091D01*
X24666Y64133D01*
X24642Y64188D01*
X24610Y64253D01*
X24568Y64318D01*
X24513Y64383D01*
X24453Y64438D01*
X24443Y64443D01*
X24420Y64461D01*
X24383Y64485D01*
X24332Y64512D01*
X24268Y64540D01*
X24193Y64563D01*
X24110Y64582D01*
X24018Y64586D01*
X23985D01*
X23957Y64582D01*
X23930Y64577D01*
X23893Y64572D01*
X23814Y64554D01*
X23721Y64522D01*
X23624Y64475D01*
X23573Y64448D01*
X23527Y64415D01*
X23481Y64373D01*
X23439Y64327D01*
Y64323D01*
X23430Y64313D01*
X23421Y64299D01*
X23407Y64276D01*
X23388Y64248D01*
X23370Y64216D01*
X23351Y64174D01*
X23333Y64128D01*
X23310Y64073D01*
X23291Y64012D01*
X23273Y63943D01*
X23254Y63869D01*
X23240Y63786D01*
X23231Y63698D01*
X23226Y63601D01*
X23222Y63494D01*
Y63490D01*
Y63466D01*
Y63434D01*
X23226Y63397D01*
Y63346D01*
X23236Y63286D01*
X23240Y63226D01*
X23249Y63156D01*
X23277Y63013D01*
X23314Y62869D01*
X23337Y62800D01*
X23370Y62735D01*
X23402Y62675D01*
X23439Y62624D01*
X23444Y62619D01*
X23448Y62615D01*
X23462Y62601D01*
X23481Y62582D01*
X23527Y62545D01*
X23592Y62499D01*
X23671Y62448D01*
X23768Y62411D01*
X23879Y62379D01*
X23939Y62374D01*
X24004Y62370D01*
X24027D01*
X24045Y62374D01*
X24096Y62379D01*
X24156Y62388D01*
X24221Y62411D01*
X24295Y62439D01*
X24369Y62476D01*
X24443Y62532D01*
X24453Y62541D01*
X24476Y62564D01*
X24508Y62601D01*
X24545Y62657D01*
X24591Y62731D01*
X24633Y62818D01*
X24675Y62925D01*
X24712Y63050D01*
X25341Y62856D01*
Y62851D01*
X25337Y62832D01*
X25327Y62805D01*
X25313Y62768D01*
X25295Y62726D01*
X25276Y62675D01*
X25253Y62619D01*
X25225Y62559D01*
X25161Y62434D01*
X25077Y62305D01*
X24976Y62180D01*
X24920Y62124D01*
X24860Y62073D01*
X24855Y62069D01*
X24846Y62064D01*
X24827Y62050D01*
X24800Y62032D01*
X24767Y62013D01*
X24726Y61995D01*
X24679Y61972D01*
X24628Y61948D01*
X24568Y61921D01*
X24504Y61898D01*
X24434Y61879D01*
X24360Y61861D01*
X24281Y61842D01*
X24193Y61828D01*
X24106Y61823D01*
X24008Y61819D01*
X23981D01*
X23948Y61823D01*
X23902Y61828D01*
X23851Y61833D01*
X23786Y61842D01*
X23717Y61856D01*
X23638Y61874D01*
X23559Y61898D01*
X23476Y61925D01*
X23388Y61962D01*
X23300Y62004D01*
X23212Y62050D01*
X23124Y62110D01*
X23041Y62175D01*
X22962Y62254D01*
X22958Y62259D01*
X22944Y62272D01*
X22925Y62300D01*
X22898Y62333D01*
X22870Y62379D01*
X22833Y62430D01*
X22796Y62495D01*
X22759Y62569D01*
X22722Y62647D01*
X22685Y62735D01*
X22648Y62837D01*
X22620Y62943D01*
X22592Y63055D01*
X22574Y63179D01*
X22560Y63309D01*
X22555Y63448D01*
Y63453D01*
Y63457D01*
Y63485D01*
X22560Y63527D01*
Y63582D01*
X22569Y63647D01*
X22578Y63726D01*
X22588Y63809D01*
X22606Y63906D01*
X22629Y64003D01*
X22657Y64105D01*
X22689Y64207D01*
X22731Y64313D01*
X22777Y64415D01*
X22833Y64512D01*
X22893Y64605D01*
X22967Y64693D01*
X22972Y64697D01*
X22986Y64711D01*
X23009Y64734D01*
X23041Y64762D01*
X23083Y64795D01*
X23134Y64832D01*
X23189Y64873D01*
X23259Y64915D01*
X23333Y64957D01*
X23411Y64998D01*
X23504Y65035D01*
X23596Y65068D01*
X23703Y65095D01*
X23809Y65119D01*
X23930Y65132D01*
X24050Y65137D01*
X24106D01*
X24147Y65132D01*
D02*
G37*
G36*
X28460Y61874D02*
X27812D01*
Y63277D01*
X26549D01*
Y61874D01*
X25901D01*
Y65077D01*
X26549D01*
Y63818D01*
X27812D01*
Y65077D01*
X28460D01*
Y61874D01*
D02*
G37*
G36*
X31015Y64461D02*
X29853D01*
X29756Y63915D01*
X29761D01*
X29765Y63920D01*
X29793Y63934D01*
X29835Y63948D01*
X29886Y63971D01*
X29951Y63989D01*
X30020Y64003D01*
X30099Y64017D01*
X30177Y64022D01*
X30219D01*
X30247Y64017D01*
X30279Y64012D01*
X30321Y64008D01*
X30367Y63999D01*
X30418Y63985D01*
X30524Y63948D01*
X30585Y63925D01*
X30640Y63897D01*
X30700Y63860D01*
X30760Y63818D01*
X30816Y63772D01*
X30872Y63721D01*
X30876Y63716D01*
X30885Y63707D01*
X30899Y63689D01*
X30918Y63665D01*
X30936Y63638D01*
X30964Y63601D01*
X30987Y63559D01*
X31015Y63513D01*
X31043Y63462D01*
X31066Y63402D01*
X31094Y63337D01*
X31112Y63272D01*
X31131Y63198D01*
X31145Y63119D01*
X31154Y63036D01*
X31158Y62948D01*
Y62943D01*
Y62930D01*
Y62911D01*
X31154Y62883D01*
Y62846D01*
X31145Y62805D01*
X31140Y62758D01*
X31131Y62712D01*
X31103Y62601D01*
X31061Y62481D01*
X31033Y62416D01*
X31006Y62356D01*
X30969Y62296D01*
X30927Y62235D01*
X30922Y62231D01*
X30913Y62217D01*
X30895Y62198D01*
X30872Y62171D01*
X30839Y62138D01*
X30797Y62101D01*
X30751Y62064D01*
X30700Y62027D01*
X30640Y61985D01*
X30575Y61948D01*
X30506Y61911D01*
X30427Y61879D01*
X30344Y61851D01*
X30256Y61833D01*
X30159Y61819D01*
X30057Y61814D01*
X30015D01*
X29983Y61819D01*
X29946Y61823D01*
X29900Y61828D01*
X29853Y61833D01*
X29798Y61842D01*
X29687Y61870D01*
X29562Y61916D01*
X29502Y61939D01*
X29441Y61972D01*
X29386Y62009D01*
X29330Y62050D01*
X29326Y62055D01*
X29317Y62060D01*
X29303Y62073D01*
X29284Y62092D01*
X29266Y62120D01*
X29238Y62147D01*
X29215Y62180D01*
X29187Y62217D01*
X29155Y62263D01*
X29127Y62309D01*
X29076Y62420D01*
X29030Y62545D01*
X29016Y62615D01*
X29002Y62689D01*
X29613Y62754D01*
Y62744D01*
X29617Y62721D01*
X29627Y62680D01*
X29640Y62633D01*
X29659Y62582D01*
X29687Y62527D01*
X29724Y62476D01*
X29765Y62425D01*
X29770Y62420D01*
X29789Y62407D01*
X29816Y62388D01*
X29853Y62365D01*
X29895Y62342D01*
X29946Y62323D01*
X30006Y62309D01*
X30066Y62305D01*
X30076D01*
X30099Y62309D01*
X30136Y62314D01*
X30182Y62323D01*
X30233Y62342D01*
X30288Y62370D01*
X30344Y62411D01*
X30395Y62462D01*
X30399Y62471D01*
X30418Y62490D01*
X30436Y62527D01*
X30464Y62582D01*
X30487Y62647D01*
X30511Y62726D01*
X30524Y62823D01*
X30529Y62934D01*
Y62939D01*
Y62948D01*
Y62962D01*
Y62985D01*
X30524Y63036D01*
X30511Y63101D01*
X30497Y63175D01*
X30473Y63249D01*
X30441Y63318D01*
X30395Y63378D01*
X30390Y63383D01*
X30372Y63402D01*
X30339Y63425D01*
X30302Y63457D01*
X30251Y63485D01*
X30191Y63508D01*
X30122Y63527D01*
X30048Y63531D01*
X30020D01*
X30001Y63527D01*
X29955Y63517D01*
X29890Y63503D01*
X29816Y63476D01*
X29738Y63434D01*
X29696Y63406D01*
X29654Y63374D01*
X29613Y63337D01*
X29571Y63295D01*
X29076Y63365D01*
X29391Y65035D01*
X31015D01*
Y64461D01*
D02*
G37*
G36*
X40352Y65132D02*
X40403Y65128D01*
X40459Y65119D01*
X40524Y65109D01*
X40593Y65095D01*
X40667Y65077D01*
X40746Y65054D01*
X40824Y65026D01*
X40908Y64989D01*
X40986Y64952D01*
X41060Y64906D01*
X41139Y64850D01*
X41209Y64790D01*
X41213D01*
X41218Y64781D01*
X41232Y64767D01*
X41246Y64753D01*
X41264Y64730D01*
X41283Y64702D01*
X41333Y64637D01*
X41384Y64554D01*
X41440Y64452D01*
X41491Y64336D01*
X41537Y64202D01*
X40898Y64049D01*
Y64054D01*
X40894Y64059D01*
Y64073D01*
X40885Y64091D01*
X40871Y64133D01*
X40848Y64188D01*
X40815Y64253D01*
X40774Y64318D01*
X40718Y64383D01*
X40658Y64438D01*
X40649Y64443D01*
X40625Y64461D01*
X40588Y64485D01*
X40538Y64512D01*
X40473Y64540D01*
X40399Y64563D01*
X40315Y64582D01*
X40223Y64586D01*
X40190D01*
X40163Y64582D01*
X40135Y64577D01*
X40098Y64572D01*
X40019Y64554D01*
X39927Y64522D01*
X39829Y64475D01*
X39779Y64448D01*
X39732Y64415D01*
X39686Y64373D01*
X39644Y64327D01*
Y64323D01*
X39635Y64313D01*
X39626Y64299D01*
X39612Y64276D01*
X39593Y64248D01*
X39575Y64216D01*
X39556Y64174D01*
X39538Y64128D01*
X39515Y64073D01*
X39496Y64012D01*
X39478Y63943D01*
X39459Y63869D01*
X39445Y63786D01*
X39436Y63698D01*
X39431Y63601D01*
X39427Y63494D01*
Y63490D01*
Y63466D01*
Y63434D01*
X39431Y63397D01*
Y63346D01*
X39441Y63286D01*
X39445Y63226D01*
X39455Y63156D01*
X39482Y63013D01*
X39519Y62869D01*
X39543Y62800D01*
X39575Y62735D01*
X39607Y62675D01*
X39644Y62624D01*
X39649Y62619D01*
X39654Y62615D01*
X39667Y62601D01*
X39686Y62582D01*
X39732Y62545D01*
X39797Y62499D01*
X39876Y62448D01*
X39973Y62411D01*
X40084Y62379D01*
X40144Y62374D01*
X40209Y62370D01*
X40232D01*
X40251Y62374D01*
X40301Y62379D01*
X40362Y62388D01*
X40426Y62411D01*
X40500Y62439D01*
X40575Y62476D01*
X40649Y62532D01*
X40658Y62541D01*
X40681Y62564D01*
X40713Y62601D01*
X40750Y62657D01*
X40797Y62731D01*
X40838Y62818D01*
X40880Y62925D01*
X40917Y63050D01*
X41546Y62856D01*
Y62851D01*
X41542Y62832D01*
X41533Y62805D01*
X41519Y62768D01*
X41500Y62726D01*
X41482Y62675D01*
X41458Y62619D01*
X41431Y62559D01*
X41366Y62434D01*
X41283Y62305D01*
X41181Y62180D01*
X41125Y62124D01*
X41065Y62073D01*
X41060Y62069D01*
X41051Y62064D01*
X41033Y62050D01*
X41005Y62032D01*
X40973Y62013D01*
X40931Y61995D01*
X40885Y61972D01*
X40834Y61948D01*
X40774Y61921D01*
X40709Y61898D01*
X40639Y61879D01*
X40565Y61861D01*
X40487Y61842D01*
X40399Y61828D01*
X40311Y61823D01*
X40214Y61819D01*
X40186D01*
X40153Y61823D01*
X40107Y61828D01*
X40056Y61833D01*
X39991Y61842D01*
X39922Y61856D01*
X39843Y61874D01*
X39765Y61898D01*
X39681Y61925D01*
X39593Y61962D01*
X39505Y62004D01*
X39418Y62050D01*
X39330Y62110D01*
X39246Y62175D01*
X39168Y62254D01*
X39163Y62259D01*
X39149Y62272D01*
X39131Y62300D01*
X39103Y62333D01*
X39075Y62379D01*
X39038Y62430D01*
X39001Y62495D01*
X38964Y62569D01*
X38927Y62647D01*
X38890Y62735D01*
X38853Y62837D01*
X38825Y62943D01*
X38797Y63055D01*
X38779Y63179D01*
X38765Y63309D01*
X38760Y63448D01*
Y63453D01*
Y63457D01*
Y63485D01*
X38765Y63527D01*
Y63582D01*
X38774Y63647D01*
X38784Y63726D01*
X38793Y63809D01*
X38811Y63906D01*
X38834Y64003D01*
X38862Y64105D01*
X38895Y64207D01*
X38936Y64313D01*
X38983Y64415D01*
X39038Y64512D01*
X39098Y64605D01*
X39172Y64693D01*
X39177Y64697D01*
X39191Y64711D01*
X39214Y64734D01*
X39246Y64762D01*
X39288Y64795D01*
X39339Y64832D01*
X39394Y64873D01*
X39464Y64915D01*
X39538Y64957D01*
X39617Y64998D01*
X39709Y65035D01*
X39802Y65068D01*
X39908Y65095D01*
X40015Y65119D01*
X40135Y65132D01*
X40255Y65137D01*
X40311D01*
X40352Y65132D01*
D02*
G37*
G36*
X44666Y61874D02*
X44018D01*
Y63277D01*
X42754D01*
Y61874D01*
X42106D01*
Y65077D01*
X42754D01*
Y63818D01*
X44018D01*
Y65077D01*
X44666D01*
Y61874D01*
D02*
G37*
G36*
X46998Y63055D02*
X47396D01*
Y62518D01*
X46998D01*
Y61874D01*
X46406D01*
Y62518D01*
X45091D01*
Y63050D01*
X46480Y65091D01*
X46998D01*
Y63055D01*
D02*
G37*
G36*
X130986Y77790D02*
Y77785D01*
Y77766D01*
Y77734D01*
Y77697D01*
Y77651D01*
X130982Y77595D01*
Y77535D01*
Y77475D01*
X130972Y77341D01*
X130963Y77202D01*
X130959Y77142D01*
X130949Y77081D01*
X130940Y77026D01*
X130931Y76975D01*
Y76970D01*
X130926Y76966D01*
Y76952D01*
X130922Y76938D01*
X130908Y76892D01*
X130889Y76836D01*
X130861Y76771D01*
X130829Y76707D01*
X130787Y76637D01*
X130736Y76572D01*
X130732Y76563D01*
X130713Y76545D01*
X130681Y76517D01*
X130639Y76480D01*
X130584Y76438D01*
X130519Y76397D01*
X130445Y76350D01*
X130362Y76313D01*
X130357D01*
X130352Y76309D01*
X130338Y76304D01*
X130320Y76299D01*
X130297Y76290D01*
X130269Y76281D01*
X130232Y76272D01*
X130195Y76267D01*
X130107Y76248D01*
X130001Y76230D01*
X129880Y76221D01*
X129746Y76216D01*
X129672D01*
X129630Y76221D01*
X129589D01*
X129538Y76225D01*
X129487Y76230D01*
X129376Y76239D01*
X129260Y76258D01*
X129144Y76285D01*
X129094Y76299D01*
X129047Y76318D01*
X129043D01*
X129038Y76322D01*
X129010Y76336D01*
X128964Y76359D01*
X128913Y76392D01*
X128853Y76434D01*
X128788Y76480D01*
X128728Y76535D01*
X128672Y76596D01*
X128668Y76605D01*
X128649Y76623D01*
X128626Y76660D01*
X128598Y76707D01*
X128571Y76757D01*
X128538Y76818D01*
X128515Y76882D01*
X128492Y76952D01*
Y76956D01*
X128487Y76966D01*
Y76980D01*
X128483Y77003D01*
X128478Y77031D01*
X128473Y77068D01*
X128469Y77109D01*
X128464Y77156D01*
X128455Y77211D01*
X128450Y77271D01*
X128446Y77336D01*
X128441Y77410D01*
X128436Y77489D01*
Y77577D01*
X128432Y77669D01*
Y77766D01*
Y79479D01*
X129080D01*
Y77739D01*
Y77734D01*
Y77720D01*
Y77702D01*
Y77674D01*
Y77637D01*
Y77600D01*
X129084Y77516D01*
Y77424D01*
X129089Y77336D01*
X129094Y77294D01*
Y77257D01*
X129098Y77230D01*
X129103Y77202D01*
Y77193D01*
X129112Y77169D01*
X129126Y77132D01*
X129144Y77086D01*
X129168Y77035D01*
X129205Y76984D01*
X129246Y76929D01*
X129297Y76882D01*
X129306Y76878D01*
X129325Y76864D01*
X129362Y76845D01*
X129408Y76827D01*
X129473Y76804D01*
X129547Y76785D01*
X129630Y76771D01*
X129728Y76767D01*
X129774D01*
X129820Y76771D01*
X129880Y76781D01*
X129950Y76795D01*
X130014Y76813D01*
X130084Y76841D01*
X130139Y76878D01*
X130144Y76882D01*
X130163Y76896D01*
X130186Y76919D01*
X130213Y76952D01*
X130241Y76994D01*
X130269Y77040D01*
X130292Y77091D01*
X130306Y77151D01*
Y77160D01*
X130311Y77183D01*
X130315Y77225D01*
X130325Y77280D01*
Y77317D01*
X130329Y77359D01*
Y77405D01*
X130334Y77452D01*
Y77507D01*
X130338Y77567D01*
Y77632D01*
Y77702D01*
Y79479D01*
X130986D01*
Y77790D01*
D02*
G37*
G36*
X133985Y78937D02*
X133041D01*
Y76276D01*
X132393D01*
Y78937D01*
X131445D01*
Y79479D01*
X133985D01*
Y78937D01*
D02*
G37*
G36*
X122124Y76276D02*
X121425D01*
X121147Y77003D01*
X119861D01*
X119597Y76276D01*
X118912D01*
X120152Y79479D01*
X120837D01*
X122124Y76276D01*
D02*
G37*
G36*
X117487Y79474D02*
X117607D01*
X117737Y79465D01*
X117866Y79456D01*
X117922Y79451D01*
X117977Y79446D01*
X118024Y79437D01*
X118061Y79428D01*
X118065D01*
X118075Y79423D01*
X118088Y79419D01*
X118107Y79414D01*
X118158Y79391D01*
X118223Y79363D01*
X118292Y79321D01*
X118371Y79266D01*
X118445Y79196D01*
X118519Y79113D01*
Y79108D01*
X118528Y79104D01*
X118537Y79090D01*
X118547Y79071D01*
X118565Y79044D01*
X118579Y79016D01*
X118598Y78984D01*
X118616Y78946D01*
X118648Y78854D01*
X118681Y78752D01*
X118699Y78627D01*
X118709Y78493D01*
Y78488D01*
Y78479D01*
Y78465D01*
Y78442D01*
X118704Y78419D01*
Y78387D01*
X118695Y78322D01*
X118681Y78243D01*
X118662Y78155D01*
X118635Y78072D01*
X118598Y77993D01*
X118593Y77984D01*
X118579Y77961D01*
X118556Y77924D01*
X118523Y77877D01*
X118486Y77831D01*
X118436Y77776D01*
X118385Y77725D01*
X118324Y77678D01*
X118315Y77674D01*
X118297Y77660D01*
X118264Y77641D01*
X118223Y77618D01*
X118172Y77591D01*
X118116Y77567D01*
X118056Y77544D01*
X117991Y77526D01*
X117982D01*
X117968Y77521D01*
X117950D01*
X117926Y77516D01*
X117894Y77512D01*
X117862Y77507D01*
X117820D01*
X117778Y77503D01*
X117727Y77498D01*
X117672Y77493D01*
X117612Y77489D01*
X117547D01*
X117478Y77484D01*
X116904D01*
Y76276D01*
X116256D01*
Y79479D01*
X117436D01*
X117487Y79474D01*
D02*
G37*
G36*
X126442Y79534D02*
X126488D01*
X126548Y79525D01*
X126618Y79516D01*
X126696Y79502D01*
X126780Y79483D01*
X126868Y79460D01*
X126960Y79432D01*
X127053Y79395D01*
X127150Y79354D01*
X127242Y79303D01*
X127335Y79243D01*
X127423Y79173D01*
X127506Y79095D01*
X127511Y79090D01*
X127525Y79076D01*
X127548Y79048D01*
X127571Y79016D01*
X127603Y78970D01*
X127640Y78914D01*
X127677Y78849D01*
X127719Y78775D01*
X127761Y78697D01*
X127798Y78604D01*
X127835Y78502D01*
X127867Y78396D01*
X127895Y78275D01*
X127913Y78150D01*
X127927Y78016D01*
X127932Y77873D01*
Y77864D01*
Y77840D01*
X127927Y77799D01*
Y77743D01*
X127918Y77678D01*
X127909Y77604D01*
X127895Y77516D01*
X127881Y77429D01*
X127858Y77331D01*
X127830Y77230D01*
X127793Y77128D01*
X127751Y77026D01*
X127705Y76929D01*
X127645Y76832D01*
X127580Y76739D01*
X127506Y76651D01*
X127502Y76646D01*
X127488Y76633D01*
X127465Y76609D01*
X127427Y76582D01*
X127386Y76549D01*
X127335Y76512D01*
X127275Y76475D01*
X127210Y76434D01*
X127131Y76392D01*
X127048Y76355D01*
X126955Y76318D01*
X126854Y76285D01*
X126747Y76258D01*
X126632Y76235D01*
X126511Y76221D01*
X126382Y76216D01*
X126349D01*
X126312Y76221D01*
X126266Y76225D01*
X126206Y76230D01*
X126136Y76239D01*
X126058Y76253D01*
X125974Y76272D01*
X125882Y76295D01*
X125794Y76322D01*
X125697Y76359D01*
X125604Y76401D01*
X125507Y76447D01*
X125419Y76508D01*
X125331Y76572D01*
X125248Y76651D01*
X125243Y76656D01*
X125229Y76670D01*
X125211Y76697D01*
X125183Y76730D01*
X125151Y76776D01*
X125114Y76832D01*
X125077Y76892D01*
X125040Y76966D01*
X124998Y77044D01*
X124961Y77137D01*
X124924Y77234D01*
X124891Y77341D01*
X124864Y77456D01*
X124845Y77581D01*
X124831Y77715D01*
X124827Y77854D01*
Y77859D01*
Y77877D01*
Y77901D01*
X124831Y77938D01*
Y77979D01*
X124836Y78026D01*
X124841Y78081D01*
X124845Y78141D01*
X124864Y78271D01*
X124887Y78410D01*
X124924Y78548D01*
X124970Y78678D01*
Y78683D01*
X124975Y78687D01*
X124984Y78701D01*
X124989Y78720D01*
X125016Y78766D01*
X125049Y78826D01*
X125090Y78896D01*
X125141Y78965D01*
X125201Y79044D01*
X125266Y79118D01*
X125271Y79122D01*
X125276Y79127D01*
X125299Y79150D01*
X125340Y79187D01*
X125391Y79229D01*
X125451Y79275D01*
X125521Y79326D01*
X125599Y79372D01*
X125683Y79409D01*
X125687D01*
X125697Y79414D01*
X125715Y79423D01*
X125738Y79428D01*
X125766Y79442D01*
X125798Y79451D01*
X125840Y79460D01*
X125882Y79474D01*
X125984Y79497D01*
X126099Y79520D01*
X126234Y79534D01*
X126372Y79539D01*
X126405D01*
X126442Y79534D01*
D02*
G37*
G36*
X124655Y75392D02*
X122101D01*
Y75790D01*
X124655D01*
Y75392D01*
D02*
G37*
G36*
X92080Y76276D02*
X91433D01*
X90132Y78387D01*
Y76276D01*
X89535D01*
Y79479D01*
X90160D01*
X91483Y77322D01*
Y79479D01*
X92080D01*
Y76276D01*
D02*
G37*
G36*
X82380D02*
X81732D01*
X80432Y78387D01*
Y76276D01*
X79835D01*
Y79479D01*
X80460D01*
X81783Y77322D01*
Y79479D01*
X82380D01*
Y76276D01*
D02*
G37*
G36*
X88915D02*
X88267D01*
Y79479D01*
X88915D01*
Y76276D01*
D02*
G37*
G36*
X85379Y78937D02*
X84435D01*
Y76276D01*
X83787D01*
Y78937D01*
X82839D01*
Y79479D01*
X85379D01*
Y78937D01*
D02*
G37*
G36*
X79488Y76276D02*
X78789D01*
X78511Y77003D01*
X77225D01*
X76961Y76276D01*
X76276D01*
X77516Y79479D01*
X78201D01*
X79488Y76276D01*
D02*
G37*
G36*
X87985Y75392D02*
X85430D01*
Y75790D01*
X87985D01*
Y75392D01*
D02*
G37*
G36*
X68807Y76276D02*
X68159D01*
X66859Y78387D01*
Y76276D01*
X66262D01*
Y79479D01*
X66887D01*
X68210Y77322D01*
Y79479D01*
X68807D01*
Y76276D01*
D02*
G37*
G36*
X65642D02*
X64994D01*
Y79479D01*
X65642D01*
Y76276D01*
D02*
G37*
G36*
X62180D02*
X61481D01*
X61203Y77003D01*
X59917D01*
X59653Y76276D01*
X58968D01*
X60208Y79479D01*
X60893D01*
X62180Y76276D01*
D02*
G37*
G36*
X57543Y79474D02*
X57663D01*
X57793Y79465D01*
X57922Y79456D01*
X57978Y79451D01*
X58033Y79446D01*
X58080Y79437D01*
X58117Y79428D01*
X58121D01*
X58131Y79423D01*
X58144Y79419D01*
X58163Y79414D01*
X58214Y79391D01*
X58279Y79363D01*
X58348Y79321D01*
X58427Y79266D01*
X58501Y79196D01*
X58575Y79113D01*
Y79108D01*
X58584Y79104D01*
X58593Y79090D01*
X58603Y79071D01*
X58621Y79044D01*
X58635Y79016D01*
X58654Y78984D01*
X58672Y78946D01*
X58704Y78854D01*
X58737Y78752D01*
X58755Y78627D01*
X58765Y78493D01*
Y78488D01*
Y78479D01*
Y78465D01*
Y78442D01*
X58760Y78419D01*
Y78387D01*
X58751Y78322D01*
X58737Y78243D01*
X58718Y78155D01*
X58691Y78072D01*
X58654Y77993D01*
X58649Y77984D01*
X58635Y77961D01*
X58612Y77924D01*
X58579Y77877D01*
X58542Y77831D01*
X58492Y77776D01*
X58441Y77725D01*
X58380Y77678D01*
X58371Y77674D01*
X58353Y77660D01*
X58320Y77641D01*
X58279Y77618D01*
X58228Y77591D01*
X58172Y77567D01*
X58112Y77544D01*
X58047Y77526D01*
X58038D01*
X58024Y77521D01*
X58006D01*
X57982Y77516D01*
X57950Y77512D01*
X57918Y77507D01*
X57876D01*
X57834Y77503D01*
X57783Y77498D01*
X57728Y77493D01*
X57668Y77489D01*
X57603D01*
X57534Y77484D01*
X56960D01*
Y76276D01*
X56312D01*
Y79479D01*
X57492D01*
X57543Y79474D01*
D02*
G37*
G36*
X64711Y75392D02*
X62157D01*
Y75790D01*
X64711D01*
Y75392D01*
D02*
G37*
G36*
X191330Y11462D02*
X191381Y11458D01*
X191436Y11448D01*
X191501Y11439D01*
X191571Y11425D01*
X191645Y11407D01*
X191723Y11384D01*
X191802Y11356D01*
X191885Y11319D01*
X191964Y11282D01*
X192038Y11235D01*
X192117Y11180D01*
X192186Y11120D01*
X192191D01*
X192195Y11111D01*
X192209Y11097D01*
X192223Y11083D01*
X192242Y11060D01*
X192260Y11032D01*
X192311Y10967D01*
X192362Y10884D01*
X192418Y10782D01*
X192468Y10666D01*
X192515Y10532D01*
X191876Y10379D01*
Y10384D01*
X191871Y10389D01*
Y10402D01*
X191862Y10421D01*
X191848Y10463D01*
X191825Y10518D01*
X191793Y10583D01*
X191751Y10648D01*
X191696Y10713D01*
X191635Y10768D01*
X191626Y10773D01*
X191603Y10791D01*
X191566Y10814D01*
X191515Y10842D01*
X191450Y10870D01*
X191376Y10893D01*
X191293Y10912D01*
X191200Y10916D01*
X191168D01*
X191140Y10912D01*
X191112Y10907D01*
X191075Y10902D01*
X190997Y10884D01*
X190904Y10851D01*
X190807Y10805D01*
X190756Y10777D01*
X190710Y10745D01*
X190664Y10703D01*
X190622Y10657D01*
Y10652D01*
X190613Y10643D01*
X190603Y10629D01*
X190590Y10606D01*
X190571Y10578D01*
X190553Y10546D01*
X190534Y10504D01*
X190515Y10458D01*
X190492Y10402D01*
X190474Y10342D01*
X190455Y10273D01*
X190437Y10199D01*
X190423Y10116D01*
X190414Y10028D01*
X190409Y9930D01*
X190404Y9824D01*
Y9819D01*
Y9796D01*
Y9764D01*
X190409Y9727D01*
Y9676D01*
X190418Y9616D01*
X190423Y9556D01*
X190432Y9486D01*
X190460Y9343D01*
X190497Y9199D01*
X190520Y9130D01*
X190553Y9065D01*
X190585Y9005D01*
X190622Y8954D01*
X190627Y8949D01*
X190631Y8945D01*
X190645Y8931D01*
X190664Y8912D01*
X190710Y8875D01*
X190775Y8829D01*
X190853Y8778D01*
X190951Y8741D01*
X191062Y8709D01*
X191122Y8704D01*
X191187Y8699D01*
X191210D01*
X191228Y8704D01*
X191279Y8709D01*
X191339Y8718D01*
X191404Y8741D01*
X191478Y8769D01*
X191552Y8806D01*
X191626Y8861D01*
X191635Y8871D01*
X191659Y8894D01*
X191691Y8931D01*
X191728Y8986D01*
X191774Y9060D01*
X191816Y9148D01*
X191858Y9255D01*
X191895Y9380D01*
X192524Y9185D01*
Y9181D01*
X192519Y9162D01*
X192510Y9134D01*
X192496Y9097D01*
X192478Y9056D01*
X192459Y9005D01*
X192436Y8949D01*
X192408Y8889D01*
X192344Y8764D01*
X192260Y8635D01*
X192158Y8510D01*
X192103Y8454D01*
X192043Y8403D01*
X192038Y8399D01*
X192029Y8394D01*
X192010Y8380D01*
X191983Y8362D01*
X191950Y8343D01*
X191908Y8325D01*
X191862Y8301D01*
X191811Y8278D01*
X191751Y8250D01*
X191686Y8227D01*
X191617Y8209D01*
X191543Y8190D01*
X191464Y8172D01*
X191376Y8158D01*
X191288Y8153D01*
X191191Y8149D01*
X191163D01*
X191131Y8153D01*
X191085Y8158D01*
X191034Y8163D01*
X190969Y8172D01*
X190900Y8186D01*
X190821Y8204D01*
X190742Y8227D01*
X190659Y8255D01*
X190571Y8292D01*
X190483Y8334D01*
X190395Y8380D01*
X190307Y8440D01*
X190224Y8505D01*
X190145Y8584D01*
X190141Y8588D01*
X190127Y8602D01*
X190108Y8630D01*
X190080Y8662D01*
X190053Y8709D01*
X190016Y8760D01*
X189979Y8824D01*
X189942Y8898D01*
X189905Y8977D01*
X189868Y9065D01*
X189831Y9167D01*
X189803Y9273D01*
X189775Y9384D01*
X189757Y9509D01*
X189743Y9639D01*
X189738Y9778D01*
Y9782D01*
Y9787D01*
Y9815D01*
X189743Y9856D01*
Y9912D01*
X189752Y9977D01*
X189761Y10055D01*
X189770Y10139D01*
X189789Y10236D01*
X189812Y10333D01*
X189840Y10435D01*
X189872Y10537D01*
X189914Y10643D01*
X189960Y10745D01*
X190016Y10842D01*
X190076Y10935D01*
X190150Y11023D01*
X190155Y11027D01*
X190168Y11041D01*
X190192Y11064D01*
X190224Y11092D01*
X190266Y11124D01*
X190316Y11161D01*
X190372Y11203D01*
X190441Y11245D01*
X190515Y11286D01*
X190594Y11328D01*
X190687Y11365D01*
X190779Y11397D01*
X190886Y11425D01*
X190992Y11448D01*
X191112Y11462D01*
X191233Y11467D01*
X191288D01*
X191330Y11462D01*
D02*
G37*
G36*
X195643Y8204D02*
X194995D01*
Y9606D01*
X193732D01*
Y8204D01*
X193084D01*
Y11407D01*
X193732D01*
Y10148D01*
X194995D01*
Y11407D01*
X195643D01*
Y8204D01*
D02*
G37*
G36*
X197744D02*
X197129D01*
Y10523D01*
X197124Y10518D01*
X197115Y10509D01*
X197096Y10495D01*
X197069Y10472D01*
X197036Y10444D01*
X196999Y10416D01*
X196953Y10384D01*
X196902Y10347D01*
X196846Y10310D01*
X196786Y10273D01*
X196721Y10231D01*
X196652Y10194D01*
X196504Y10125D01*
X196337Y10060D01*
Y10615D01*
X196342D01*
X196347Y10620D01*
X196361Y10625D01*
X196379Y10629D01*
X196425Y10652D01*
X196490Y10680D01*
X196569Y10717D01*
X196657Y10768D01*
X196754Y10833D01*
X196856Y10907D01*
X196860Y10912D01*
X196870Y10916D01*
X196883Y10930D01*
X196902Y10949D01*
X196953Y10995D01*
X197008Y11055D01*
X197073Y11129D01*
X197138Y11222D01*
X197198Y11319D01*
X197244Y11425D01*
X197744D01*
Y8204D01*
D02*
G37*
G36*
X188942Y41002D02*
X188993Y40998D01*
X189049Y40989D01*
X189114Y40979D01*
X189183Y40965D01*
X189257Y40947D01*
X189336Y40924D01*
X189414Y40896D01*
X189498Y40859D01*
X189576Y40822D01*
X189650Y40776D01*
X189729Y40720D01*
X189799Y40660D01*
X189803D01*
X189808Y40651D01*
X189822Y40637D01*
X189836Y40623D01*
X189854Y40600D01*
X189873Y40572D01*
X189923Y40507D01*
X189974Y40424D01*
X190030Y40322D01*
X190081Y40206D01*
X190127Y40072D01*
X189488Y39919D01*
Y39924D01*
X189484Y39929D01*
Y39943D01*
X189475Y39961D01*
X189461Y40003D01*
X189438Y40058D01*
X189405Y40123D01*
X189364Y40188D01*
X189308Y40253D01*
X189248Y40308D01*
X189239Y40313D01*
X189215Y40331D01*
X189178Y40355D01*
X189128Y40382D01*
X189063Y40410D01*
X188989Y40433D01*
X188905Y40452D01*
X188813Y40456D01*
X188780D01*
X188753Y40452D01*
X188725Y40447D01*
X188688Y40442D01*
X188609Y40424D01*
X188517Y40392D01*
X188419Y40345D01*
X188369Y40318D01*
X188322Y40285D01*
X188276Y40243D01*
X188234Y40197D01*
Y40193D01*
X188225Y40183D01*
X188216Y40169D01*
X188202Y40146D01*
X188183Y40118D01*
X188165Y40086D01*
X188146Y40044D01*
X188128Y39998D01*
X188105Y39943D01*
X188086Y39882D01*
X188068Y39813D01*
X188049Y39739D01*
X188035Y39656D01*
X188026Y39568D01*
X188021Y39471D01*
X188017Y39364D01*
Y39360D01*
Y39336D01*
Y39304D01*
X188021Y39267D01*
Y39216D01*
X188031Y39156D01*
X188035Y39096D01*
X188045Y39026D01*
X188072Y38883D01*
X188109Y38739D01*
X188133Y38670D01*
X188165Y38605D01*
X188197Y38545D01*
X188234Y38494D01*
X188239Y38489D01*
X188244Y38485D01*
X188257Y38471D01*
X188276Y38452D01*
X188322Y38415D01*
X188387Y38369D01*
X188466Y38318D01*
X188563Y38281D01*
X188674Y38249D01*
X188734Y38244D01*
X188799Y38240D01*
X188822D01*
X188841Y38244D01*
X188891Y38249D01*
X188952Y38258D01*
X189016Y38281D01*
X189090Y38309D01*
X189165Y38346D01*
X189239Y38402D01*
X189248Y38411D01*
X189271Y38434D01*
X189303Y38471D01*
X189340Y38527D01*
X189387Y38601D01*
X189428Y38688D01*
X189470Y38795D01*
X189507Y38920D01*
X190136Y38726D01*
Y38721D01*
X190132Y38702D01*
X190122Y38675D01*
X190109Y38638D01*
X190090Y38596D01*
X190072Y38545D01*
X190048Y38489D01*
X190021Y38429D01*
X189956Y38304D01*
X189873Y38175D01*
X189771Y38050D01*
X189715Y37994D01*
X189655Y37943D01*
X189650Y37939D01*
X189641Y37934D01*
X189623Y37920D01*
X189595Y37902D01*
X189563Y37883D01*
X189521Y37865D01*
X189475Y37842D01*
X189424Y37818D01*
X189364Y37791D01*
X189299Y37768D01*
X189229Y37749D01*
X189155Y37731D01*
X189077Y37712D01*
X188989Y37698D01*
X188901Y37693D01*
X188804Y37689D01*
X188776D01*
X188743Y37693D01*
X188697Y37698D01*
X188646Y37703D01*
X188581Y37712D01*
X188512Y37726D01*
X188433Y37744D01*
X188355Y37768D01*
X188271Y37795D01*
X188183Y37832D01*
X188095Y37874D01*
X188008Y37920D01*
X187920Y37980D01*
X187836Y38045D01*
X187758Y38124D01*
X187753Y38129D01*
X187739Y38142D01*
X187721Y38170D01*
X187693Y38203D01*
X187665Y38249D01*
X187628Y38300D01*
X187591Y38365D01*
X187554Y38439D01*
X187517Y38517D01*
X187480Y38605D01*
X187443Y38707D01*
X187415Y38813D01*
X187387Y38925D01*
X187369Y39049D01*
X187355Y39179D01*
X187350Y39318D01*
Y39323D01*
Y39327D01*
Y39355D01*
X187355Y39397D01*
Y39452D01*
X187364Y39517D01*
X187374Y39596D01*
X187383Y39679D01*
X187401Y39776D01*
X187424Y39873D01*
X187452Y39975D01*
X187485Y40077D01*
X187526Y40183D01*
X187573Y40285D01*
X187628Y40382D01*
X187688Y40475D01*
X187762Y40563D01*
X187767Y40567D01*
X187781Y40581D01*
X187804Y40604D01*
X187836Y40632D01*
X187878Y40665D01*
X187929Y40702D01*
X187984Y40743D01*
X188054Y40785D01*
X188128Y40827D01*
X188207Y40868D01*
X188299Y40905D01*
X188392Y40938D01*
X188498Y40965D01*
X188605Y40989D01*
X188725Y41002D01*
X188845Y41007D01*
X188901D01*
X188942Y41002D01*
D02*
G37*
G36*
X193256Y37744D02*
X192608D01*
Y39147D01*
X191344D01*
Y37744D01*
X190696D01*
Y40947D01*
X191344D01*
Y39688D01*
X192608D01*
Y40947D01*
X193256D01*
Y37744D01*
D02*
G37*
G36*
X195357D02*
X194741D01*
Y40063D01*
X194736Y40058D01*
X194727Y40049D01*
X194709Y40035D01*
X194681Y40012D01*
X194649Y39984D01*
X194612Y39957D01*
X194565Y39924D01*
X194514Y39887D01*
X194459Y39850D01*
X194399Y39813D01*
X194334Y39771D01*
X194264Y39734D01*
X194116Y39665D01*
X193950Y39600D01*
Y40156D01*
X193954D01*
X193959Y40160D01*
X193973Y40165D01*
X193991Y40169D01*
X194038Y40193D01*
X194102Y40220D01*
X194181Y40257D01*
X194269Y40308D01*
X194366Y40373D01*
X194468Y40447D01*
X194473Y40452D01*
X194482Y40456D01*
X194496Y40470D01*
X194514Y40489D01*
X194565Y40535D01*
X194621Y40595D01*
X194686Y40669D01*
X194750Y40762D01*
X194811Y40859D01*
X194857Y40965D01*
X195357D01*
Y37744D01*
D02*
G37*
G36*
X127398Y11462D02*
X127449Y11458D01*
X127505Y11448D01*
X127569Y11439D01*
X127639Y11425D01*
X127713Y11407D01*
X127792Y11384D01*
X127870Y11356D01*
X127954Y11319D01*
X128032Y11282D01*
X128106Y11235D01*
X128185Y11180D01*
X128254Y11120D01*
X128259D01*
X128264Y11111D01*
X128277Y11097D01*
X128291Y11083D01*
X128310Y11060D01*
X128328Y11032D01*
X128379Y10967D01*
X128430Y10884D01*
X128486Y10782D01*
X128537Y10666D01*
X128583Y10532D01*
X127944Y10379D01*
Y10384D01*
X127940Y10389D01*
Y10402D01*
X127930Y10421D01*
X127917Y10463D01*
X127893Y10518D01*
X127861Y10583D01*
X127819Y10648D01*
X127764Y10713D01*
X127704Y10768D01*
X127694Y10773D01*
X127671Y10791D01*
X127634Y10814D01*
X127583Y10842D01*
X127519Y10870D01*
X127444Y10893D01*
X127361Y10912D01*
X127269Y10916D01*
X127236D01*
X127208Y10912D01*
X127181Y10907D01*
X127144Y10902D01*
X127065Y10884D01*
X126972Y10851D01*
X126875Y10805D01*
X126824Y10777D01*
X126778Y10745D01*
X126732Y10703D01*
X126690Y10657D01*
Y10652D01*
X126681Y10643D01*
X126672Y10629D01*
X126658Y10606D01*
X126639Y10578D01*
X126621Y10546D01*
X126602Y10504D01*
X126584Y10458D01*
X126561Y10402D01*
X126542Y10342D01*
X126524Y10273D01*
X126505Y10199D01*
X126491Y10116D01*
X126482Y10028D01*
X126477Y9930D01*
X126473Y9824D01*
Y9819D01*
Y9796D01*
Y9764D01*
X126477Y9727D01*
Y9676D01*
X126487Y9616D01*
X126491Y9556D01*
X126500Y9486D01*
X126528Y9343D01*
X126565Y9199D01*
X126588Y9130D01*
X126621Y9065D01*
X126653Y9005D01*
X126690Y8954D01*
X126695Y8949D01*
X126699Y8945D01*
X126713Y8931D01*
X126732Y8912D01*
X126778Y8875D01*
X126843Y8829D01*
X126922Y8778D01*
X127019Y8741D01*
X127130Y8709D01*
X127190Y8704D01*
X127255Y8699D01*
X127278D01*
X127296Y8704D01*
X127347Y8709D01*
X127407Y8718D01*
X127472Y8741D01*
X127546Y8769D01*
X127620Y8806D01*
X127694Y8861D01*
X127704Y8871D01*
X127727Y8894D01*
X127759Y8931D01*
X127796Y8986D01*
X127842Y9060D01*
X127884Y9148D01*
X127926Y9255D01*
X127963Y9380D01*
X128592Y9185D01*
Y9181D01*
X128588Y9162D01*
X128578Y9134D01*
X128564Y9097D01*
X128546Y9056D01*
X128527Y9005D01*
X128504Y8949D01*
X128476Y8889D01*
X128412Y8764D01*
X128328Y8635D01*
X128227Y8510D01*
X128171Y8454D01*
X128111Y8403D01*
X128106Y8399D01*
X128097Y8394D01*
X128078Y8380D01*
X128051Y8362D01*
X128018Y8343D01*
X127977Y8325D01*
X127930Y8301D01*
X127879Y8278D01*
X127819Y8250D01*
X127755Y8227D01*
X127685Y8209D01*
X127611Y8190D01*
X127532Y8172D01*
X127444Y8158D01*
X127357Y8153D01*
X127259Y8149D01*
X127232D01*
X127199Y8153D01*
X127153Y8158D01*
X127102Y8163D01*
X127037Y8172D01*
X126968Y8186D01*
X126889Y8204D01*
X126810Y8227D01*
X126727Y8255D01*
X126639Y8292D01*
X126551Y8334D01*
X126463Y8380D01*
X126375Y8440D01*
X126292Y8505D01*
X126213Y8584D01*
X126209Y8588D01*
X126195Y8602D01*
X126176Y8630D01*
X126149Y8662D01*
X126121Y8709D01*
X126084Y8760D01*
X126047Y8824D01*
X126010Y8898D01*
X125973Y8977D01*
X125936Y9065D01*
X125899Y9167D01*
X125871Y9273D01*
X125843Y9384D01*
X125825Y9509D01*
X125811Y9639D01*
X125806Y9778D01*
Y9782D01*
Y9787D01*
Y9815D01*
X125811Y9856D01*
Y9912D01*
X125820Y9977D01*
X125829Y10055D01*
X125839Y10139D01*
X125857Y10236D01*
X125880Y10333D01*
X125908Y10435D01*
X125940Y10537D01*
X125982Y10643D01*
X126028Y10745D01*
X126084Y10842D01*
X126144Y10935D01*
X126218Y11023D01*
X126223Y11027D01*
X126237Y11041D01*
X126260Y11064D01*
X126292Y11092D01*
X126334Y11124D01*
X126385Y11161D01*
X126440Y11203D01*
X126510Y11245D01*
X126584Y11286D01*
X126662Y11328D01*
X126755Y11365D01*
X126847Y11397D01*
X126954Y11425D01*
X127060Y11448D01*
X127181Y11462D01*
X127301Y11467D01*
X127357D01*
X127398Y11462D01*
D02*
G37*
G36*
X131711Y8204D02*
X131063D01*
Y9606D01*
X129800D01*
Y8204D01*
X129152D01*
Y11407D01*
X129800D01*
Y10148D01*
X131063D01*
Y11407D01*
X131711D01*
Y8204D01*
D02*
G37*
G36*
X134266Y10791D02*
X133104D01*
X133007Y10245D01*
X133012D01*
X133016Y10250D01*
X133044Y10264D01*
X133086Y10277D01*
X133137Y10301D01*
X133202Y10319D01*
X133271Y10333D01*
X133350Y10347D01*
X133428Y10352D01*
X133470D01*
X133498Y10347D01*
X133530Y10342D01*
X133572Y10338D01*
X133618Y10328D01*
X133669Y10315D01*
X133775Y10277D01*
X133836Y10254D01*
X133891Y10227D01*
X133951Y10190D01*
X134011Y10148D01*
X134067Y10102D01*
X134122Y10051D01*
X134127Y10046D01*
X134136Y10037D01*
X134150Y10018D01*
X134169Y9995D01*
X134187Y9967D01*
X134215Y9930D01*
X134238Y9889D01*
X134266Y9842D01*
X134294Y9792D01*
X134317Y9731D01*
X134345Y9667D01*
X134363Y9602D01*
X134382Y9528D01*
X134396Y9449D01*
X134405Y9366D01*
X134409Y9278D01*
Y9273D01*
Y9259D01*
Y9241D01*
X134405Y9213D01*
Y9176D01*
X134396Y9134D01*
X134391Y9088D01*
X134382Y9042D01*
X134354Y8931D01*
X134312Y8810D01*
X134284Y8746D01*
X134257Y8686D01*
X134220Y8625D01*
X134178Y8565D01*
X134173Y8561D01*
X134164Y8547D01*
X134146Y8528D01*
X134122Y8500D01*
X134090Y8468D01*
X134048Y8431D01*
X134002Y8394D01*
X133951Y8357D01*
X133891Y8315D01*
X133826Y8278D01*
X133757Y8241D01*
X133678Y8209D01*
X133595Y8181D01*
X133507Y8163D01*
X133410Y8149D01*
X133308Y8144D01*
X133266D01*
X133234Y8149D01*
X133197Y8153D01*
X133151Y8158D01*
X133104Y8163D01*
X133049Y8172D01*
X132938Y8200D01*
X132813Y8246D01*
X132753Y8269D01*
X132692Y8301D01*
X132637Y8338D01*
X132581Y8380D01*
X132577Y8385D01*
X132568Y8389D01*
X132554Y8403D01*
X132535Y8422D01*
X132517Y8449D01*
X132489Y8477D01*
X132466Y8510D01*
X132438Y8547D01*
X132406Y8593D01*
X132378Y8639D01*
X132327Y8750D01*
X132281Y8875D01*
X132267Y8945D01*
X132253Y9019D01*
X132864Y9083D01*
Y9074D01*
X132868Y9051D01*
X132878Y9009D01*
X132891Y8963D01*
X132910Y8912D01*
X132938Y8857D01*
X132975Y8806D01*
X133016Y8755D01*
X133021Y8750D01*
X133040Y8736D01*
X133067Y8718D01*
X133104Y8695D01*
X133146Y8672D01*
X133197Y8653D01*
X133257Y8639D01*
X133317Y8635D01*
X133327D01*
X133350Y8639D01*
X133387Y8644D01*
X133433Y8653D01*
X133484Y8672D01*
X133539Y8699D01*
X133595Y8741D01*
X133646Y8792D01*
X133650Y8801D01*
X133669Y8820D01*
X133687Y8857D01*
X133715Y8912D01*
X133738Y8977D01*
X133762Y9056D01*
X133775Y9153D01*
X133780Y9264D01*
Y9269D01*
Y9278D01*
Y9292D01*
Y9315D01*
X133775Y9366D01*
X133762Y9431D01*
X133748Y9505D01*
X133725Y9579D01*
X133692Y9648D01*
X133646Y9708D01*
X133641Y9713D01*
X133623Y9731D01*
X133590Y9755D01*
X133553Y9787D01*
X133502Y9815D01*
X133442Y9838D01*
X133373Y9856D01*
X133299Y9861D01*
X133271D01*
X133252Y9856D01*
X133206Y9847D01*
X133141Y9833D01*
X133067Y9805D01*
X132989Y9764D01*
X132947Y9736D01*
X132905Y9704D01*
X132864Y9667D01*
X132822Y9625D01*
X132327Y9694D01*
X132642Y11365D01*
X134266D01*
Y10791D01*
D02*
G37*
G36*
X171848Y41002D02*
X171899Y40998D01*
X171955Y40989D01*
X172019Y40979D01*
X172089Y40965D01*
X172163Y40947D01*
X172242Y40924D01*
X172320Y40896D01*
X172404Y40859D01*
X172482Y40822D01*
X172556Y40776D01*
X172635Y40720D01*
X172704Y40660D01*
X172709D01*
X172714Y40651D01*
X172727Y40637D01*
X172741Y40623D01*
X172760Y40600D01*
X172778Y40572D01*
X172829Y40507D01*
X172880Y40424D01*
X172936Y40322D01*
X172987Y40206D01*
X173033Y40072D01*
X172394Y39919D01*
Y39924D01*
X172390Y39929D01*
Y39943D01*
X172380Y39961D01*
X172367Y40003D01*
X172343Y40058D01*
X172311Y40123D01*
X172269Y40188D01*
X172214Y40253D01*
X172154Y40308D01*
X172144Y40313D01*
X172121Y40331D01*
X172084Y40355D01*
X172033Y40382D01*
X171969Y40410D01*
X171894Y40433D01*
X171811Y40452D01*
X171719Y40456D01*
X171686D01*
X171658Y40452D01*
X171631Y40447D01*
X171594Y40442D01*
X171515Y40424D01*
X171422Y40392D01*
X171325Y40345D01*
X171274Y40318D01*
X171228Y40285D01*
X171182Y40243D01*
X171140Y40197D01*
Y40193D01*
X171131Y40183D01*
X171122Y40169D01*
X171108Y40146D01*
X171089Y40118D01*
X171071Y40086D01*
X171052Y40044D01*
X171034Y39998D01*
X171011Y39943D01*
X170992Y39882D01*
X170974Y39813D01*
X170955Y39739D01*
X170941Y39656D01*
X170932Y39568D01*
X170927Y39471D01*
X170923Y39364D01*
Y39360D01*
Y39336D01*
Y39304D01*
X170927Y39267D01*
Y39216D01*
X170936Y39156D01*
X170941Y39096D01*
X170950Y39026D01*
X170978Y38883D01*
X171015Y38739D01*
X171038Y38670D01*
X171071Y38605D01*
X171103Y38545D01*
X171140Y38494D01*
X171145Y38489D01*
X171149Y38485D01*
X171163Y38471D01*
X171182Y38452D01*
X171228Y38415D01*
X171293Y38369D01*
X171372Y38318D01*
X171469Y38281D01*
X171580Y38249D01*
X171640Y38244D01*
X171705Y38240D01*
X171728D01*
X171746Y38244D01*
X171797Y38249D01*
X171857Y38258D01*
X171922Y38281D01*
X171996Y38309D01*
X172070Y38346D01*
X172144Y38402D01*
X172154Y38411D01*
X172177Y38434D01*
X172209Y38471D01*
X172246Y38527D01*
X172292Y38601D01*
X172334Y38688D01*
X172376Y38795D01*
X172413Y38920D01*
X173042Y38726D01*
Y38721D01*
X173038Y38702D01*
X173028Y38675D01*
X173014Y38638D01*
X172996Y38596D01*
X172977Y38545D01*
X172954Y38489D01*
X172926Y38429D01*
X172862Y38304D01*
X172778Y38175D01*
X172677Y38050D01*
X172621Y37994D01*
X172561Y37943D01*
X172556Y37939D01*
X172547Y37934D01*
X172528Y37920D01*
X172501Y37902D01*
X172468Y37883D01*
X172427Y37865D01*
X172380Y37842D01*
X172329Y37818D01*
X172269Y37791D01*
X172205Y37768D01*
X172135Y37749D01*
X172061Y37731D01*
X171982Y37712D01*
X171894Y37698D01*
X171807Y37693D01*
X171709Y37689D01*
X171682D01*
X171649Y37693D01*
X171603Y37698D01*
X171552Y37703D01*
X171487Y37712D01*
X171418Y37726D01*
X171339Y37744D01*
X171260Y37768D01*
X171177Y37795D01*
X171089Y37832D01*
X171001Y37874D01*
X170913Y37920D01*
X170825Y37980D01*
X170742Y38045D01*
X170663Y38124D01*
X170659Y38129D01*
X170645Y38142D01*
X170626Y38170D01*
X170599Y38203D01*
X170571Y38249D01*
X170534Y38300D01*
X170497Y38365D01*
X170460Y38439D01*
X170423Y38517D01*
X170386Y38605D01*
X170349Y38707D01*
X170321Y38813D01*
X170293Y38925D01*
X170275Y39049D01*
X170261Y39179D01*
X170256Y39318D01*
Y39323D01*
Y39327D01*
Y39355D01*
X170261Y39397D01*
Y39452D01*
X170270Y39517D01*
X170279Y39596D01*
X170289Y39679D01*
X170307Y39776D01*
X170330Y39873D01*
X170358Y39975D01*
X170390Y40077D01*
X170432Y40183D01*
X170478Y40285D01*
X170534Y40382D01*
X170594Y40475D01*
X170668Y40563D01*
X170673Y40567D01*
X170687Y40581D01*
X170710Y40604D01*
X170742Y40632D01*
X170784Y40665D01*
X170835Y40702D01*
X170890Y40743D01*
X170960Y40785D01*
X171034Y40827D01*
X171112Y40868D01*
X171205Y40905D01*
X171297Y40938D01*
X171404Y40965D01*
X171510Y40989D01*
X171631Y41002D01*
X171751Y41007D01*
X171807D01*
X171848Y41002D01*
D02*
G37*
G36*
X176161Y37744D02*
X175513D01*
Y39147D01*
X174250D01*
Y37744D01*
X173602D01*
Y40947D01*
X174250D01*
Y39688D01*
X175513D01*
Y40947D01*
X176161D01*
Y37744D01*
D02*
G37*
G36*
X177827Y40961D02*
X177869Y40956D01*
X177915Y40952D01*
X177966Y40942D01*
X178022Y40933D01*
X178142Y40901D01*
X178262Y40854D01*
X178327Y40827D01*
X178383Y40794D01*
X178443Y40753D01*
X178494Y40706D01*
X178498Y40702D01*
X178508Y40697D01*
X178517Y40678D01*
X178535Y40660D01*
X178559Y40637D01*
X178582Y40604D01*
X178605Y40572D01*
X178633Y40530D01*
X178679Y40438D01*
X178725Y40331D01*
X178744Y40271D01*
X178753Y40206D01*
X178762Y40137D01*
X178767Y40068D01*
Y40058D01*
Y40031D01*
X178762Y39989D01*
X178758Y39938D01*
X178748Y39873D01*
X178734Y39804D01*
X178716Y39730D01*
X178688Y39656D01*
X178684Y39646D01*
X178674Y39623D01*
X178656Y39582D01*
X178628Y39531D01*
X178596Y39471D01*
X178554Y39401D01*
X178503Y39327D01*
X178443Y39248D01*
X178438Y39244D01*
X178420Y39221D01*
X178392Y39188D01*
X178350Y39142D01*
X178295Y39086D01*
X178225Y39012D01*
X178142Y38934D01*
X178040Y38837D01*
X178036Y38832D01*
X178026Y38827D01*
X178013Y38813D01*
X177994Y38795D01*
X177943Y38749D01*
X177883Y38693D01*
X177823Y38633D01*
X177763Y38573D01*
X177707Y38522D01*
X177689Y38499D01*
X177670Y38480D01*
X177665Y38476D01*
X177656Y38466D01*
X177642Y38448D01*
X177624Y38425D01*
X177582Y38374D01*
X177545Y38314D01*
X178767D01*
Y37744D01*
X176615D01*
Y37749D01*
Y37758D01*
X176620Y37777D01*
X176624Y37800D01*
X176629Y37828D01*
X176633Y37860D01*
X176652Y37943D01*
X176680Y38036D01*
X176717Y38138D01*
X176763Y38249D01*
X176823Y38355D01*
Y38360D01*
X176832Y38369D01*
X176842Y38388D01*
X176860Y38406D01*
X176879Y38439D01*
X176906Y38471D01*
X176939Y38513D01*
X176976Y38559D01*
X177018Y38614D01*
X177068Y38670D01*
X177124Y38735D01*
X177189Y38804D01*
X177258Y38874D01*
X177337Y38952D01*
X177420Y39036D01*
X177513Y39124D01*
X177517Y39128D01*
X177531Y39142D01*
X177550Y39161D01*
X177578Y39188D01*
X177615Y39216D01*
X177652Y39253D01*
X177735Y39336D01*
X177818Y39424D01*
X177901Y39512D01*
X177938Y39549D01*
X177975Y39591D01*
X178003Y39623D01*
X178022Y39651D01*
X178026Y39660D01*
X178040Y39683D01*
X178063Y39721D01*
X178087Y39771D01*
X178110Y39827D01*
X178133Y39892D01*
X178147Y39957D01*
X178151Y40026D01*
Y40031D01*
Y40035D01*
Y40058D01*
X178147Y40100D01*
X178137Y40146D01*
X178124Y40197D01*
X178105Y40248D01*
X178077Y40299D01*
X178040Y40345D01*
X178036Y40350D01*
X178022Y40364D01*
X177994Y40382D01*
X177962Y40401D01*
X177915Y40419D01*
X177864Y40438D01*
X177804Y40452D01*
X177735Y40456D01*
X177702D01*
X177665Y40452D01*
X177624Y40442D01*
X177573Y40429D01*
X177522Y40405D01*
X177471Y40378D01*
X177425Y40341D01*
X177420Y40336D01*
X177406Y40318D01*
X177388Y40290D01*
X177369Y40248D01*
X177346Y40197D01*
X177328Y40128D01*
X177309Y40049D01*
X177300Y39957D01*
X176689Y40017D01*
Y40021D01*
X176694Y40040D01*
Y40063D01*
X176703Y40100D01*
X176707Y40142D01*
X176721Y40188D01*
X176735Y40239D01*
X176749Y40299D01*
X176795Y40415D01*
X176851Y40535D01*
X176888Y40595D01*
X176930Y40651D01*
X176976Y40697D01*
X177027Y40743D01*
X177031Y40748D01*
X177041Y40753D01*
X177055Y40762D01*
X177078Y40780D01*
X177105Y40794D01*
X177142Y40813D01*
X177180Y40836D01*
X177226Y40854D01*
X177277Y40877D01*
X177332Y40896D01*
X177453Y40933D01*
X177596Y40956D01*
X177670Y40961D01*
X177749Y40965D01*
X177795D01*
X177827Y40961D01*
D02*
G37*
G36*
X117498Y11421D02*
X117530D01*
X117567Y11416D01*
X117651Y11397D01*
X117743Y11374D01*
X117845Y11337D01*
X117947Y11286D01*
X117993Y11254D01*
X118039Y11217D01*
X118044D01*
X118049Y11208D01*
X118063Y11194D01*
X118076Y11180D01*
X118100Y11157D01*
X118118Y11134D01*
X118169Y11069D01*
X118220Y10981D01*
X118271Y10879D01*
X118317Y10763D01*
X118350Y10625D01*
X117757Y10560D01*
Y10569D01*
X117753Y10588D01*
X117743Y10620D01*
X117734Y10662D01*
X117720Y10703D01*
X117697Y10750D01*
X117674Y10791D01*
X117641Y10828D01*
X117637Y10833D01*
X117623Y10842D01*
X117604Y10856D01*
X117577Y10874D01*
X117544Y10888D01*
X117503Y10902D01*
X117452Y10912D01*
X117401Y10916D01*
X117392D01*
X117368Y10912D01*
X117331Y10907D01*
X117285Y10893D01*
X117234Y10874D01*
X117179Y10842D01*
X117123Y10800D01*
X117072Y10740D01*
X117068Y10731D01*
X117058Y10722D01*
X117049Y10703D01*
X117040Y10685D01*
X117026Y10657D01*
X117017Y10625D01*
X117003Y10583D01*
X116984Y10537D01*
X116970Y10486D01*
X116957Y10426D01*
X116943Y10361D01*
X116929Y10287D01*
X116920Y10203D01*
X116910Y10111D01*
X116901Y10014D01*
X116906Y10018D01*
X116910Y10028D01*
X116924Y10037D01*
X116943Y10055D01*
X116966Y10078D01*
X116994Y10102D01*
X117058Y10153D01*
X117142Y10199D01*
X117239Y10245D01*
X117294Y10264D01*
X117350Y10273D01*
X117410Y10282D01*
X117475Y10287D01*
X117512D01*
X117540Y10282D01*
X117572Y10277D01*
X117609Y10273D01*
X117655Y10264D01*
X117702Y10250D01*
X117803Y10213D01*
X117859Y10190D01*
X117915Y10162D01*
X117970Y10129D01*
X118026Y10088D01*
X118081Y10041D01*
X118132Y9991D01*
X118137Y9986D01*
X118146Y9977D01*
X118160Y9963D01*
X118174Y9940D01*
X118197Y9907D01*
X118220Y9875D01*
X118243Y9833D01*
X118271Y9787D01*
X118299Y9736D01*
X118322Y9676D01*
X118345Y9616D01*
X118368Y9546D01*
X118382Y9477D01*
X118396Y9398D01*
X118405Y9320D01*
X118410Y9232D01*
Y9227D01*
Y9208D01*
Y9185D01*
X118405Y9148D01*
X118400Y9107D01*
X118396Y9060D01*
X118387Y9005D01*
X118373Y8949D01*
X118340Y8820D01*
X118317Y8755D01*
X118285Y8690D01*
X118252Y8625D01*
X118215Y8561D01*
X118169Y8496D01*
X118118Y8440D01*
X118114Y8436D01*
X118104Y8426D01*
X118090Y8412D01*
X118067Y8394D01*
X118039Y8371D01*
X118002Y8348D01*
X117965Y8320D01*
X117919Y8292D01*
X117868Y8264D01*
X117813Y8237D01*
X117753Y8213D01*
X117683Y8190D01*
X117614Y8172D01*
X117540Y8158D01*
X117461Y8149D01*
X117378Y8144D01*
X117355D01*
X117331Y8149D01*
X117299D01*
X117257Y8158D01*
X117206Y8163D01*
X117156Y8176D01*
X117095Y8190D01*
X117035Y8209D01*
X116970Y8237D01*
X116901Y8264D01*
X116836Y8301D01*
X116767Y8343D01*
X116702Y8394D01*
X116637Y8454D01*
X116577Y8519D01*
X116572Y8524D01*
X116563Y8537D01*
X116549Y8561D01*
X116531Y8593D01*
X116503Y8635D01*
X116480Y8686D01*
X116452Y8746D01*
X116424Y8815D01*
X116392Y8898D01*
X116364Y8986D01*
X116341Y9088D01*
X116318Y9204D01*
X116295Y9324D01*
X116281Y9458D01*
X116272Y9602D01*
X116267Y9759D01*
Y9764D01*
Y9768D01*
Y9782D01*
Y9796D01*
Y9842D01*
X116272Y9903D01*
X116276Y9977D01*
X116285Y10060D01*
X116295Y10153D01*
X116309Y10250D01*
X116323Y10352D01*
X116346Y10458D01*
X116373Y10564D01*
X116406Y10671D01*
X116443Y10768D01*
X116484Y10865D01*
X116535Y10953D01*
X116591Y11032D01*
X116596Y11036D01*
X116605Y11050D01*
X116623Y11069D01*
X116651Y11092D01*
X116683Y11124D01*
X116721Y11157D01*
X116767Y11194D01*
X116818Y11231D01*
X116878Y11263D01*
X116938Y11300D01*
X117012Y11333D01*
X117086Y11365D01*
X117165Y11388D01*
X117253Y11407D01*
X117341Y11421D01*
X117438Y11425D01*
X117475D01*
X117498Y11421D01*
D02*
G37*
G36*
X111422Y11462D02*
X111473Y11458D01*
X111528Y11448D01*
X111593Y11439D01*
X111662Y11425D01*
X111736Y11407D01*
X111815Y11384D01*
X111894Y11356D01*
X111977Y11319D01*
X112056Y11282D01*
X112130Y11235D01*
X112208Y11180D01*
X112278Y11120D01*
X112282D01*
X112287Y11111D01*
X112301Y11097D01*
X112315Y11083D01*
X112333Y11060D01*
X112352Y11032D01*
X112403Y10967D01*
X112454Y10884D01*
X112509Y10782D01*
X112560Y10666D01*
X112606Y10532D01*
X111968Y10379D01*
Y10384D01*
X111963Y10389D01*
Y10402D01*
X111954Y10421D01*
X111940Y10463D01*
X111917Y10518D01*
X111884Y10583D01*
X111843Y10648D01*
X111787Y10713D01*
X111727Y10768D01*
X111718Y10773D01*
X111695Y10791D01*
X111658Y10814D01*
X111607Y10842D01*
X111542Y10870D01*
X111468Y10893D01*
X111385Y10912D01*
X111292Y10916D01*
X111260D01*
X111232Y10912D01*
X111204Y10907D01*
X111167Y10902D01*
X111088Y10884D01*
X110996Y10851D01*
X110899Y10805D01*
X110848Y10777D01*
X110801Y10745D01*
X110755Y10703D01*
X110714Y10657D01*
Y10652D01*
X110704Y10643D01*
X110695Y10629D01*
X110681Y10606D01*
X110663Y10578D01*
X110644Y10546D01*
X110626Y10504D01*
X110607Y10458D01*
X110584Y10402D01*
X110565Y10342D01*
X110547Y10273D01*
X110528Y10199D01*
X110515Y10116D01*
X110505Y10028D01*
X110501Y9930D01*
X110496Y9824D01*
Y9819D01*
Y9796D01*
Y9764D01*
X110501Y9727D01*
Y9676D01*
X110510Y9616D01*
X110515Y9556D01*
X110524Y9486D01*
X110552Y9343D01*
X110589Y9199D01*
X110612Y9130D01*
X110644Y9065D01*
X110676Y9005D01*
X110714Y8954D01*
X110718Y8949D01*
X110723Y8945D01*
X110737Y8931D01*
X110755Y8912D01*
X110801Y8875D01*
X110866Y8829D01*
X110945Y8778D01*
X111042Y8741D01*
X111153Y8709D01*
X111213Y8704D01*
X111278Y8699D01*
X111301D01*
X111320Y8704D01*
X111371Y8709D01*
X111431Y8718D01*
X111496Y8741D01*
X111570Y8769D01*
X111644Y8806D01*
X111718Y8861D01*
X111727Y8871D01*
X111750Y8894D01*
X111783Y8931D01*
X111820Y8986D01*
X111866Y9060D01*
X111908Y9148D01*
X111949Y9255D01*
X111986Y9380D01*
X112616Y9185D01*
Y9181D01*
X112611Y9162D01*
X112602Y9134D01*
X112588Y9097D01*
X112569Y9056D01*
X112551Y9005D01*
X112528Y8949D01*
X112500Y8889D01*
X112435Y8764D01*
X112352Y8635D01*
X112250Y8510D01*
X112194Y8454D01*
X112134Y8403D01*
X112130Y8399D01*
X112120Y8394D01*
X112102Y8380D01*
X112074Y8362D01*
X112042Y8343D01*
X112000Y8325D01*
X111954Y8301D01*
X111903Y8278D01*
X111843Y8250D01*
X111778Y8227D01*
X111709Y8209D01*
X111634Y8190D01*
X111556Y8172D01*
X111468Y8158D01*
X111380Y8153D01*
X111283Y8149D01*
X111255D01*
X111223Y8153D01*
X111176Y8158D01*
X111125Y8163D01*
X111061Y8172D01*
X110991Y8186D01*
X110913Y8204D01*
X110834Y8227D01*
X110751Y8255D01*
X110663Y8292D01*
X110575Y8334D01*
X110487Y8380D01*
X110399Y8440D01*
X110316Y8505D01*
X110237Y8584D01*
X110232Y8588D01*
X110218Y8602D01*
X110200Y8630D01*
X110172Y8662D01*
X110144Y8709D01*
X110107Y8760D01*
X110070Y8824D01*
X110033Y8898D01*
X109996Y8977D01*
X109959Y9065D01*
X109922Y9167D01*
X109894Y9273D01*
X109867Y9384D01*
X109848Y9509D01*
X109834Y9639D01*
X109830Y9778D01*
Y9782D01*
Y9787D01*
Y9815D01*
X109834Y9856D01*
Y9912D01*
X109843Y9977D01*
X109853Y10055D01*
X109862Y10139D01*
X109881Y10236D01*
X109904Y10333D01*
X109931Y10435D01*
X109964Y10537D01*
X110005Y10643D01*
X110052Y10745D01*
X110107Y10842D01*
X110167Y10935D01*
X110241Y11023D01*
X110246Y11027D01*
X110260Y11041D01*
X110283Y11064D01*
X110316Y11092D01*
X110357Y11124D01*
X110408Y11161D01*
X110464Y11203D01*
X110533Y11245D01*
X110607Y11286D01*
X110686Y11328D01*
X110778Y11365D01*
X110871Y11397D01*
X110977Y11425D01*
X111084Y11448D01*
X111204Y11462D01*
X111324Y11467D01*
X111380D01*
X111422Y11462D01*
D02*
G37*
G36*
X115735Y8204D02*
X115087D01*
Y9606D01*
X113823D01*
Y8204D01*
X113176D01*
Y11407D01*
X113823D01*
Y10148D01*
X115087D01*
Y11407D01*
X115735D01*
Y8204D01*
D02*
G37*
G36*
X175353Y11462D02*
X175404Y11458D01*
X175460Y11448D01*
X175525Y11439D01*
X175594Y11425D01*
X175668Y11407D01*
X175747Y11384D01*
X175825Y11356D01*
X175909Y11319D01*
X175987Y11282D01*
X176061Y11235D01*
X176140Y11180D01*
X176210Y11120D01*
X176214D01*
X176219Y11111D01*
X176233Y11097D01*
X176247Y11083D01*
X176265Y11060D01*
X176284Y11032D01*
X176335Y10967D01*
X176385Y10884D01*
X176441Y10782D01*
X176492Y10666D01*
X176538Y10532D01*
X175899Y10379D01*
Y10384D01*
X175895Y10389D01*
Y10402D01*
X175886Y10421D01*
X175872Y10463D01*
X175849Y10518D01*
X175816Y10583D01*
X175775Y10648D01*
X175719Y10713D01*
X175659Y10768D01*
X175650Y10773D01*
X175626Y10791D01*
X175589Y10814D01*
X175539Y10842D01*
X175474Y10870D01*
X175400Y10893D01*
X175316Y10912D01*
X175224Y10916D01*
X175191D01*
X175164Y10912D01*
X175136Y10907D01*
X175099Y10902D01*
X175020Y10884D01*
X174928Y10851D01*
X174830Y10805D01*
X174780Y10777D01*
X174733Y10745D01*
X174687Y10703D01*
X174645Y10657D01*
Y10652D01*
X174636Y10643D01*
X174627Y10629D01*
X174613Y10606D01*
X174594Y10578D01*
X174576Y10546D01*
X174557Y10504D01*
X174539Y10458D01*
X174516Y10402D01*
X174497Y10342D01*
X174479Y10273D01*
X174460Y10199D01*
X174446Y10116D01*
X174437Y10028D01*
X174432Y9930D01*
X174428Y9824D01*
Y9819D01*
Y9796D01*
Y9764D01*
X174432Y9727D01*
Y9676D01*
X174442Y9616D01*
X174446Y9556D01*
X174456Y9486D01*
X174483Y9343D01*
X174520Y9199D01*
X174544Y9130D01*
X174576Y9065D01*
X174608Y9005D01*
X174645Y8954D01*
X174650Y8949D01*
X174655Y8945D01*
X174668Y8931D01*
X174687Y8912D01*
X174733Y8875D01*
X174798Y8829D01*
X174877Y8778D01*
X174974Y8741D01*
X175085Y8709D01*
X175145Y8704D01*
X175210Y8699D01*
X175233D01*
X175252Y8704D01*
X175302Y8709D01*
X175363Y8718D01*
X175427Y8741D01*
X175501Y8769D01*
X175576Y8806D01*
X175650Y8861D01*
X175659Y8871D01*
X175682Y8894D01*
X175714Y8931D01*
X175751Y8986D01*
X175798Y9060D01*
X175839Y9148D01*
X175881Y9255D01*
X175918Y9380D01*
X176547Y9185D01*
Y9181D01*
X176543Y9162D01*
X176533Y9134D01*
X176520Y9097D01*
X176501Y9056D01*
X176483Y9005D01*
X176459Y8949D01*
X176432Y8889D01*
X176367Y8764D01*
X176284Y8635D01*
X176182Y8510D01*
X176126Y8454D01*
X176066Y8403D01*
X176061Y8399D01*
X176052Y8394D01*
X176034Y8380D01*
X176006Y8362D01*
X175974Y8343D01*
X175932Y8325D01*
X175886Y8301D01*
X175835Y8278D01*
X175775Y8250D01*
X175710Y8227D01*
X175640Y8209D01*
X175566Y8190D01*
X175488Y8172D01*
X175400Y8158D01*
X175312Y8153D01*
X175215Y8149D01*
X175187D01*
X175154Y8153D01*
X175108Y8158D01*
X175057Y8163D01*
X174992Y8172D01*
X174923Y8186D01*
X174844Y8204D01*
X174766Y8227D01*
X174682Y8255D01*
X174594Y8292D01*
X174506Y8334D01*
X174419Y8380D01*
X174331Y8440D01*
X174247Y8505D01*
X174169Y8584D01*
X174164Y8588D01*
X174150Y8602D01*
X174132Y8630D01*
X174104Y8662D01*
X174076Y8709D01*
X174039Y8760D01*
X174002Y8824D01*
X173965Y8898D01*
X173928Y8977D01*
X173891Y9065D01*
X173854Y9167D01*
X173826Y9273D01*
X173798Y9384D01*
X173780Y9509D01*
X173766Y9639D01*
X173761Y9778D01*
Y9782D01*
Y9787D01*
Y9815D01*
X173766Y9856D01*
Y9912D01*
X173775Y9977D01*
X173785Y10055D01*
X173794Y10139D01*
X173812Y10236D01*
X173835Y10333D01*
X173863Y10435D01*
X173896Y10537D01*
X173937Y10643D01*
X173984Y10745D01*
X174039Y10842D01*
X174099Y10935D01*
X174173Y11023D01*
X174178Y11027D01*
X174192Y11041D01*
X174215Y11064D01*
X174247Y11092D01*
X174289Y11124D01*
X174340Y11161D01*
X174395Y11203D01*
X174465Y11245D01*
X174539Y11286D01*
X174618Y11328D01*
X174710Y11365D01*
X174803Y11397D01*
X174909Y11425D01*
X175016Y11448D01*
X175136Y11462D01*
X175256Y11467D01*
X175312D01*
X175353Y11462D01*
D02*
G37*
G36*
X179667Y8204D02*
X179019D01*
Y9606D01*
X177755D01*
Y8204D01*
X177107D01*
Y11407D01*
X177755D01*
Y10148D01*
X179019D01*
Y11407D01*
X179667D01*
Y8204D01*
D02*
G37*
G36*
X181333Y11421D02*
X181374Y11416D01*
X181421Y11411D01*
X181471Y11402D01*
X181527Y11393D01*
X181647Y11360D01*
X181768Y11314D01*
X181832Y11286D01*
X181888Y11254D01*
X181948Y11212D01*
X181999Y11166D01*
X182004Y11161D01*
X182013Y11157D01*
X182022Y11138D01*
X182041Y11120D01*
X182064Y11097D01*
X182087Y11064D01*
X182110Y11032D01*
X182138Y10990D01*
X182184Y10898D01*
X182230Y10791D01*
X182249Y10731D01*
X182258Y10666D01*
X182267Y10597D01*
X182272Y10527D01*
Y10518D01*
Y10490D01*
X182267Y10449D01*
X182263Y10398D01*
X182254Y10333D01*
X182240Y10264D01*
X182221Y10190D01*
X182193Y10116D01*
X182189Y10106D01*
X182180Y10083D01*
X182161Y10041D01*
X182133Y9991D01*
X182101Y9930D01*
X182059Y9861D01*
X182008Y9787D01*
X181948Y9708D01*
X181943Y9704D01*
X181925Y9680D01*
X181897Y9648D01*
X181856Y9602D01*
X181800Y9546D01*
X181731Y9472D01*
X181647Y9394D01*
X181545Y9296D01*
X181541Y9292D01*
X181532Y9287D01*
X181518Y9273D01*
X181499Y9255D01*
X181448Y9208D01*
X181388Y9153D01*
X181328Y9093D01*
X181268Y9033D01*
X181212Y8982D01*
X181194Y8959D01*
X181175Y8940D01*
X181171Y8935D01*
X181161Y8926D01*
X181148Y8908D01*
X181129Y8884D01*
X181087Y8834D01*
X181050Y8773D01*
X182272D01*
Y8204D01*
X180120D01*
Y8209D01*
Y8218D01*
X180125Y8237D01*
X180129Y8260D01*
X180134Y8288D01*
X180139Y8320D01*
X180157Y8403D01*
X180185Y8496D01*
X180222Y8598D01*
X180268Y8709D01*
X180328Y8815D01*
Y8820D01*
X180338Y8829D01*
X180347Y8847D01*
X180365Y8866D01*
X180384Y8898D01*
X180412Y8931D01*
X180444Y8972D01*
X180481Y9019D01*
X180523Y9074D01*
X180574Y9130D01*
X180629Y9195D01*
X180694Y9264D01*
X180763Y9333D01*
X180842Y9412D01*
X180925Y9495D01*
X181018Y9583D01*
X181023Y9588D01*
X181036Y9602D01*
X181055Y9620D01*
X181083Y9648D01*
X181120Y9676D01*
X181157Y9713D01*
X181240Y9796D01*
X181323Y9884D01*
X181407Y9972D01*
X181444Y10009D01*
X181481Y10051D01*
X181508Y10083D01*
X181527Y10111D01*
X181532Y10120D01*
X181545Y10143D01*
X181569Y10180D01*
X181592Y10231D01*
X181615Y10287D01*
X181638Y10352D01*
X181652Y10416D01*
X181657Y10486D01*
Y10490D01*
Y10495D01*
Y10518D01*
X181652Y10560D01*
X181643Y10606D01*
X181629Y10657D01*
X181610Y10708D01*
X181583Y10759D01*
X181545Y10805D01*
X181541Y10810D01*
X181527Y10824D01*
X181499Y10842D01*
X181467Y10861D01*
X181421Y10879D01*
X181370Y10898D01*
X181309Y10912D01*
X181240Y10916D01*
X181208D01*
X181171Y10912D01*
X181129Y10902D01*
X181078Y10888D01*
X181027Y10865D01*
X180976Y10837D01*
X180930Y10800D01*
X180925Y10796D01*
X180911Y10777D01*
X180893Y10750D01*
X180874Y10708D01*
X180851Y10657D01*
X180833Y10588D01*
X180814Y10509D01*
X180805Y10416D01*
X180194Y10476D01*
Y10481D01*
X180199Y10500D01*
Y10523D01*
X180208Y10560D01*
X180213Y10601D01*
X180227Y10648D01*
X180240Y10699D01*
X180254Y10759D01*
X180301Y10874D01*
X180356Y10995D01*
X180393Y11055D01*
X180435Y11111D01*
X180481Y11157D01*
X180532Y11203D01*
X180537Y11208D01*
X180546Y11212D01*
X180560Y11222D01*
X180583Y11240D01*
X180611Y11254D01*
X180648Y11272D01*
X180685Y11296D01*
X180731Y11314D01*
X180782Y11337D01*
X180837Y11356D01*
X180958Y11393D01*
X181101Y11416D01*
X181175Y11421D01*
X181254Y11425D01*
X181300D01*
X181333Y11421D01*
D02*
G37*
G36*
X154729Y41002D02*
X154779Y40998D01*
X154835Y40989D01*
X154900Y40979D01*
X154969Y40965D01*
X155043Y40947D01*
X155122Y40924D01*
X155201Y40896D01*
X155284Y40859D01*
X155363Y40822D01*
X155437Y40776D01*
X155515Y40720D01*
X155585Y40660D01*
X155589D01*
X155594Y40651D01*
X155608Y40637D01*
X155622Y40623D01*
X155640Y40600D01*
X155659Y40572D01*
X155710Y40507D01*
X155761Y40424D01*
X155816Y40322D01*
X155867Y40206D01*
X155913Y40072D01*
X155275Y39919D01*
Y39924D01*
X155270Y39929D01*
Y39943D01*
X155261Y39961D01*
X155247Y40003D01*
X155224Y40058D01*
X155191Y40123D01*
X155150Y40188D01*
X155094Y40253D01*
X155034Y40308D01*
X155025Y40313D01*
X155002Y40331D01*
X154965Y40355D01*
X154914Y40382D01*
X154849Y40410D01*
X154775Y40433D01*
X154692Y40452D01*
X154599Y40456D01*
X154567D01*
X154539Y40452D01*
X154511Y40447D01*
X154474Y40442D01*
X154395Y40424D01*
X154303Y40392D01*
X154206Y40345D01*
X154155Y40318D01*
X154108Y40285D01*
X154062Y40243D01*
X154021Y40197D01*
Y40193D01*
X154011Y40183D01*
X154002Y40169D01*
X153988Y40146D01*
X153970Y40118D01*
X153951Y40086D01*
X153933Y40044D01*
X153914Y39998D01*
X153891Y39943D01*
X153872Y39882D01*
X153854Y39813D01*
X153835Y39739D01*
X153822Y39656D01*
X153812Y39568D01*
X153808Y39471D01*
X153803Y39364D01*
Y39360D01*
Y39336D01*
Y39304D01*
X153808Y39267D01*
Y39216D01*
X153817Y39156D01*
X153822Y39096D01*
X153831Y39026D01*
X153859Y38883D01*
X153896Y38739D01*
X153919Y38670D01*
X153951Y38605D01*
X153984Y38545D01*
X154021Y38494D01*
X154025Y38489D01*
X154030Y38485D01*
X154044Y38471D01*
X154062Y38452D01*
X154108Y38415D01*
X154173Y38369D01*
X154252Y38318D01*
X154349Y38281D01*
X154460Y38249D01*
X154520Y38244D01*
X154585Y38240D01*
X154608D01*
X154627Y38244D01*
X154678Y38249D01*
X154738Y38258D01*
X154803Y38281D01*
X154877Y38309D01*
X154951Y38346D01*
X155025Y38402D01*
X155034Y38411D01*
X155057Y38434D01*
X155090Y38471D01*
X155127Y38527D01*
X155173Y38601D01*
X155215Y38688D01*
X155256Y38795D01*
X155293Y38920D01*
X155923Y38726D01*
Y38721D01*
X155918Y38702D01*
X155909Y38675D01*
X155895Y38638D01*
X155876Y38596D01*
X155858Y38545D01*
X155835Y38489D01*
X155807Y38429D01*
X155742Y38304D01*
X155659Y38175D01*
X155557Y38050D01*
X155501Y37994D01*
X155441Y37943D01*
X155437Y37939D01*
X155427Y37934D01*
X155409Y37920D01*
X155381Y37902D01*
X155349Y37883D01*
X155307Y37865D01*
X155261Y37842D01*
X155210Y37818D01*
X155150Y37791D01*
X155085Y37768D01*
X155016Y37749D01*
X154941Y37731D01*
X154863Y37712D01*
X154775Y37698D01*
X154687Y37693D01*
X154590Y37689D01*
X154562D01*
X154530Y37693D01*
X154483Y37698D01*
X154432Y37703D01*
X154368Y37712D01*
X154298Y37726D01*
X154220Y37744D01*
X154141Y37768D01*
X154058Y37795D01*
X153970Y37832D01*
X153882Y37874D01*
X153794Y37920D01*
X153706Y37980D01*
X153623Y38045D01*
X153544Y38124D01*
X153539Y38129D01*
X153525Y38142D01*
X153507Y38170D01*
X153479Y38203D01*
X153451Y38249D01*
X153414Y38300D01*
X153377Y38365D01*
X153340Y38439D01*
X153303Y38517D01*
X153266Y38605D01*
X153229Y38707D01*
X153201Y38813D01*
X153174Y38925D01*
X153155Y39049D01*
X153141Y39179D01*
X153137Y39318D01*
Y39323D01*
Y39327D01*
Y39355D01*
X153141Y39397D01*
Y39452D01*
X153150Y39517D01*
X153160Y39596D01*
X153169Y39679D01*
X153188Y39776D01*
X153211Y39873D01*
X153238Y39975D01*
X153271Y40077D01*
X153312Y40183D01*
X153359Y40285D01*
X153414Y40382D01*
X153474Y40475D01*
X153548Y40563D01*
X153553Y40567D01*
X153567Y40581D01*
X153590Y40604D01*
X153623Y40632D01*
X153664Y40665D01*
X153715Y40702D01*
X153771Y40743D01*
X153840Y40785D01*
X153914Y40827D01*
X153993Y40868D01*
X154085Y40905D01*
X154178Y40938D01*
X154284Y40965D01*
X154391Y40989D01*
X154511Y41002D01*
X154631Y41007D01*
X154687D01*
X154729Y41002D01*
D02*
G37*
G36*
X159042Y37744D02*
X158394D01*
Y39147D01*
X157130D01*
Y37744D01*
X156483D01*
Y40947D01*
X157130D01*
Y39688D01*
X158394D01*
Y40947D01*
X159042D01*
Y37744D01*
D02*
G37*
G36*
X160657Y40961D02*
X160699Y40956D01*
X160740Y40952D01*
X160791Y40942D01*
X160842Y40928D01*
X160958Y40896D01*
X161018Y40873D01*
X161083Y40840D01*
X161143Y40808D01*
X161198Y40771D01*
X161259Y40725D01*
X161309Y40674D01*
X161314Y40669D01*
X161319Y40665D01*
X161333Y40651D01*
X161346Y40632D01*
X161383Y40586D01*
X161425Y40521D01*
X161467Y40442D01*
X161499Y40350D01*
X161527Y40248D01*
X161532Y40197D01*
X161536Y40142D01*
Y40137D01*
Y40123D01*
X161532Y40100D01*
X161527Y40072D01*
X161522Y40035D01*
X161513Y39994D01*
X161499Y39947D01*
X161481Y39896D01*
X161453Y39845D01*
X161425Y39790D01*
X161388Y39734D01*
X161342Y39679D01*
X161286Y39623D01*
X161226Y39568D01*
X161157Y39517D01*
X161073Y39466D01*
X161078D01*
X161087Y39461D01*
X161101D01*
X161120Y39452D01*
X161171Y39438D01*
X161231Y39410D01*
X161300Y39373D01*
X161374Y39327D01*
X161448Y39267D01*
X161513Y39198D01*
X161522Y39188D01*
X161541Y39161D01*
X161564Y39119D01*
X161596Y39059D01*
X161629Y38989D01*
X161652Y38901D01*
X161670Y38809D01*
X161680Y38702D01*
Y38698D01*
Y38684D01*
Y38661D01*
X161675Y38633D01*
X161670Y38596D01*
X161661Y38554D01*
X161652Y38503D01*
X161643Y38452D01*
X161606Y38341D01*
X161578Y38281D01*
X161550Y38216D01*
X161513Y38156D01*
X161471Y38096D01*
X161425Y38036D01*
X161370Y37980D01*
X161365Y37976D01*
X161356Y37967D01*
X161337Y37953D01*
X161314Y37934D01*
X161282Y37911D01*
X161249Y37888D01*
X161203Y37860D01*
X161157Y37832D01*
X161106Y37805D01*
X161046Y37777D01*
X160981Y37754D01*
X160916Y37731D01*
X160842Y37712D01*
X160768Y37698D01*
X160685Y37689D01*
X160601Y37684D01*
X160560D01*
X160527Y37689D01*
X160490Y37693D01*
X160449Y37698D01*
X160402Y37707D01*
X160347Y37717D01*
X160236Y37744D01*
X160115Y37791D01*
X160051Y37818D01*
X159995Y37851D01*
X159935Y37892D01*
X159879Y37934D01*
X159875Y37939D01*
X159866Y37948D01*
X159852Y37962D01*
X159833Y37980D01*
X159810Y38004D01*
X159787Y38036D01*
X159759Y38068D01*
X159731Y38110D01*
X159704Y38156D01*
X159671Y38203D01*
X159620Y38314D01*
X159579Y38443D01*
X159560Y38513D01*
X159551Y38587D01*
X160143Y38661D01*
Y38656D01*
Y38651D01*
X160148Y38624D01*
X160157Y38582D01*
X160171Y38531D01*
X160194Y38476D01*
X160217Y38415D01*
X160254Y38360D01*
X160296Y38309D01*
X160301Y38304D01*
X160319Y38290D01*
X160347Y38272D01*
X160379Y38253D01*
X160426Y38230D01*
X160476Y38212D01*
X160532Y38198D01*
X160597Y38193D01*
X160606D01*
X160629Y38198D01*
X160662Y38203D01*
X160708Y38212D01*
X160759Y38230D01*
X160810Y38253D01*
X160865Y38290D01*
X160916Y38337D01*
X160921Y38341D01*
X160939Y38365D01*
X160958Y38397D01*
X160985Y38439D01*
X161009Y38494D01*
X161032Y38564D01*
X161046Y38642D01*
X161050Y38730D01*
Y38735D01*
Y38739D01*
Y38767D01*
X161046Y38809D01*
X161036Y38864D01*
X161018Y38925D01*
X160995Y38985D01*
X160962Y39045D01*
X160921Y39100D01*
X160916Y39105D01*
X160898Y39124D01*
X160870Y39147D01*
X160837Y39170D01*
X160791Y39198D01*
X160740Y39216D01*
X160685Y39235D01*
X160620Y39239D01*
X160574D01*
X160541Y39235D01*
X160500Y39230D01*
X160449Y39221D01*
X160398Y39207D01*
X160338Y39193D01*
X160402Y39688D01*
X160444D01*
X160490Y39693D01*
X160546Y39697D01*
X160606Y39711D01*
X160671Y39730D01*
X160731Y39758D01*
X160786Y39795D01*
X160791Y39799D01*
X160810Y39818D01*
X160828Y39841D01*
X160856Y39878D01*
X160879Y39919D01*
X160902Y39970D01*
X160916Y40031D01*
X160921Y40100D01*
Y40109D01*
Y40128D01*
X160916Y40156D01*
X160907Y40193D01*
X160898Y40234D01*
X160879Y40276D01*
X160856Y40322D01*
X160824Y40359D01*
X160819Y40364D01*
X160805Y40373D01*
X160786Y40392D01*
X160754Y40410D01*
X160717Y40424D01*
X160675Y40442D01*
X160620Y40452D01*
X160564Y40456D01*
X160537D01*
X160509Y40452D01*
X160472Y40442D01*
X160430Y40429D01*
X160384Y40410D01*
X160338Y40382D01*
X160296Y40345D01*
X160291Y40341D01*
X160277Y40327D01*
X160259Y40299D01*
X160236Y40262D01*
X160213Y40220D01*
X160194Y40165D01*
X160176Y40100D01*
X160162Y40026D01*
X159597Y40118D01*
Y40123D01*
X159602Y40132D01*
Y40146D01*
X159606Y40169D01*
X159620Y40220D01*
X159639Y40290D01*
X159667Y40364D01*
X159694Y40442D01*
X159731Y40516D01*
X159773Y40586D01*
X159778Y40595D01*
X159796Y40614D01*
X159824Y40646D01*
X159861Y40688D01*
X159907Y40729D01*
X159963Y40776D01*
X160032Y40822D01*
X160106Y40864D01*
X160111D01*
X160115Y40868D01*
X160143Y40877D01*
X160189Y40896D01*
X160245Y40915D01*
X160314Y40933D01*
X160398Y40952D01*
X160486Y40961D01*
X160583Y40965D01*
X160625D01*
X160657Y40961D01*
D02*
G37*
G36*
X95420Y11462D02*
X95470Y11458D01*
X95526Y11448D01*
X95591Y11439D01*
X95660Y11425D01*
X95734Y11407D01*
X95813Y11384D01*
X95892Y11356D01*
X95975Y11319D01*
X96054Y11282D01*
X96128Y11235D01*
X96206Y11180D01*
X96276Y11120D01*
X96280D01*
X96285Y11111D01*
X96299Y11097D01*
X96313Y11083D01*
X96331Y11060D01*
X96350Y11032D01*
X96401Y10967D01*
X96452Y10884D01*
X96507Y10782D01*
X96558Y10666D01*
X96604Y10532D01*
X95966Y10379D01*
Y10384D01*
X95961Y10389D01*
Y10402D01*
X95952Y10421D01*
X95938Y10463D01*
X95915Y10518D01*
X95882Y10583D01*
X95841Y10648D01*
X95785Y10713D01*
X95725Y10768D01*
X95716Y10773D01*
X95693Y10791D01*
X95656Y10814D01*
X95605Y10842D01*
X95540Y10870D01*
X95466Y10893D01*
X95383Y10912D01*
X95290Y10916D01*
X95258D01*
X95230Y10912D01*
X95202Y10907D01*
X95165Y10902D01*
X95086Y10884D01*
X94994Y10851D01*
X94897Y10805D01*
X94846Y10777D01*
X94799Y10745D01*
X94753Y10703D01*
X94712Y10657D01*
Y10652D01*
X94702Y10643D01*
X94693Y10629D01*
X94679Y10606D01*
X94661Y10578D01*
X94642Y10546D01*
X94624Y10504D01*
X94605Y10458D01*
X94582Y10402D01*
X94563Y10342D01*
X94545Y10273D01*
X94526Y10199D01*
X94513Y10116D01*
X94503Y10028D01*
X94499Y9930D01*
X94494Y9824D01*
Y9819D01*
Y9796D01*
Y9764D01*
X94499Y9727D01*
Y9676D01*
X94508Y9616D01*
X94513Y9556D01*
X94522Y9486D01*
X94550Y9343D01*
X94587Y9199D01*
X94610Y9130D01*
X94642Y9065D01*
X94674Y9005D01*
X94712Y8954D01*
X94716Y8949D01*
X94721Y8945D01*
X94735Y8931D01*
X94753Y8912D01*
X94799Y8875D01*
X94864Y8829D01*
X94943Y8778D01*
X95040Y8741D01*
X95151Y8709D01*
X95211Y8704D01*
X95276Y8699D01*
X95299D01*
X95318Y8704D01*
X95369Y8709D01*
X95429Y8718D01*
X95494Y8741D01*
X95568Y8769D01*
X95642Y8806D01*
X95716Y8861D01*
X95725Y8871D01*
X95748Y8894D01*
X95781Y8931D01*
X95818Y8986D01*
X95864Y9060D01*
X95906Y9148D01*
X95947Y9255D01*
X95984Y9380D01*
X96614Y9185D01*
Y9181D01*
X96609Y9162D01*
X96600Y9134D01*
X96586Y9097D01*
X96567Y9056D01*
X96549Y9005D01*
X96526Y8949D01*
X96498Y8889D01*
X96433Y8764D01*
X96350Y8635D01*
X96248Y8510D01*
X96192Y8454D01*
X96132Y8403D01*
X96128Y8399D01*
X96118Y8394D01*
X96100Y8380D01*
X96072Y8362D01*
X96040Y8343D01*
X95998Y8325D01*
X95952Y8301D01*
X95901Y8278D01*
X95841Y8250D01*
X95776Y8227D01*
X95707Y8209D01*
X95632Y8190D01*
X95554Y8172D01*
X95466Y8158D01*
X95378Y8153D01*
X95281Y8149D01*
X95253D01*
X95221Y8153D01*
X95174Y8158D01*
X95123Y8163D01*
X95059Y8172D01*
X94989Y8186D01*
X94911Y8204D01*
X94832Y8227D01*
X94749Y8255D01*
X94661Y8292D01*
X94573Y8334D01*
X94485Y8380D01*
X94397Y8440D01*
X94314Y8505D01*
X94235Y8584D01*
X94230Y8588D01*
X94216Y8602D01*
X94198Y8630D01*
X94170Y8662D01*
X94142Y8709D01*
X94105Y8760D01*
X94068Y8824D01*
X94031Y8898D01*
X93994Y8977D01*
X93957Y9065D01*
X93920Y9167D01*
X93892Y9273D01*
X93865Y9384D01*
X93846Y9509D01*
X93832Y9639D01*
X93828Y9778D01*
Y9782D01*
Y9787D01*
Y9815D01*
X93832Y9856D01*
Y9912D01*
X93841Y9977D01*
X93851Y10055D01*
X93860Y10139D01*
X93879Y10236D01*
X93902Y10333D01*
X93929Y10435D01*
X93962Y10537D01*
X94003Y10643D01*
X94050Y10745D01*
X94105Y10842D01*
X94165Y10935D01*
X94239Y11023D01*
X94244Y11027D01*
X94258Y11041D01*
X94281Y11064D01*
X94314Y11092D01*
X94355Y11124D01*
X94406Y11161D01*
X94462Y11203D01*
X94531Y11245D01*
X94605Y11286D01*
X94684Y11328D01*
X94776Y11365D01*
X94869Y11397D01*
X94975Y11425D01*
X95082Y11448D01*
X95202Y11462D01*
X95322Y11467D01*
X95378D01*
X95420Y11462D01*
D02*
G37*
G36*
X99733Y8204D02*
X99085D01*
Y9606D01*
X97821D01*
Y8204D01*
X97174D01*
Y11407D01*
X97821D01*
Y10148D01*
X99085D01*
Y11407D01*
X99733D01*
Y8204D01*
D02*
G37*
G36*
X102366Y10921D02*
X102361Y10916D01*
X102352Y10907D01*
X102338Y10893D01*
X102320Y10874D01*
X102297Y10847D01*
X102269Y10814D01*
X102236Y10777D01*
X102199Y10731D01*
X102162Y10680D01*
X102121Y10625D01*
X102074Y10564D01*
X102028Y10500D01*
X101982Y10426D01*
X101936Y10352D01*
X101885Y10268D01*
X101834Y10180D01*
X101829Y10176D01*
X101820Y10157D01*
X101806Y10134D01*
X101788Y10097D01*
X101769Y10055D01*
X101741Y10000D01*
X101714Y9940D01*
X101681Y9875D01*
X101649Y9801D01*
X101616Y9722D01*
X101579Y9639D01*
X101547Y9551D01*
X101482Y9361D01*
X101422Y9162D01*
Y9158D01*
X101417Y9139D01*
X101408Y9111D01*
X101399Y9070D01*
X101390Y9023D01*
X101380Y8972D01*
X101366Y8908D01*
X101353Y8843D01*
X101339Y8769D01*
X101329Y8695D01*
X101306Y8533D01*
X101292Y8366D01*
X101288Y8204D01*
X100695D01*
Y8213D01*
Y8232D01*
X100700Y8269D01*
Y8320D01*
X100705Y8380D01*
X100714Y8449D01*
X100723Y8533D01*
X100737Y8621D01*
X100751Y8718D01*
X100769Y8824D01*
X100793Y8935D01*
X100816Y9056D01*
X100848Y9176D01*
X100880Y9301D01*
X100922Y9426D01*
X100968Y9556D01*
X100973Y9565D01*
X100982Y9588D01*
X100996Y9625D01*
X101015Y9671D01*
X101042Y9731D01*
X101075Y9805D01*
X101112Y9884D01*
X101154Y9972D01*
X101200Y10065D01*
X101251Y10162D01*
X101306Y10268D01*
X101371Y10370D01*
X101505Y10588D01*
X101658Y10796D01*
X100265D01*
Y11365D01*
X102366D01*
Y10921D01*
D02*
G37*
G36*
X159351Y11462D02*
X159402Y11458D01*
X159458Y11448D01*
X159523Y11439D01*
X159592Y11425D01*
X159666Y11407D01*
X159745Y11384D01*
X159823Y11356D01*
X159907Y11319D01*
X159985Y11282D01*
X160059Y11235D01*
X160138Y11180D01*
X160208Y11120D01*
X160212D01*
X160217Y11111D01*
X160231Y11097D01*
X160245Y11083D01*
X160263Y11060D01*
X160282Y11032D01*
X160333Y10967D01*
X160383Y10884D01*
X160439Y10782D01*
X160490Y10666D01*
X160536Y10532D01*
X159897Y10379D01*
Y10384D01*
X159893Y10389D01*
Y10402D01*
X159884Y10421D01*
X159870Y10463D01*
X159847Y10518D01*
X159814Y10583D01*
X159773Y10648D01*
X159717Y10713D01*
X159657Y10768D01*
X159648Y10773D01*
X159624Y10791D01*
X159587Y10814D01*
X159537Y10842D01*
X159472Y10870D01*
X159398Y10893D01*
X159314Y10912D01*
X159222Y10916D01*
X159189D01*
X159162Y10912D01*
X159134Y10907D01*
X159097Y10902D01*
X159018Y10884D01*
X158926Y10851D01*
X158828Y10805D01*
X158778Y10777D01*
X158731Y10745D01*
X158685Y10703D01*
X158643Y10657D01*
Y10652D01*
X158634Y10643D01*
X158625Y10629D01*
X158611Y10606D01*
X158592Y10578D01*
X158574Y10546D01*
X158555Y10504D01*
X158537Y10458D01*
X158514Y10402D01*
X158495Y10342D01*
X158477Y10273D01*
X158458Y10199D01*
X158444Y10116D01*
X158435Y10028D01*
X158430Y9930D01*
X158426Y9824D01*
Y9819D01*
Y9796D01*
Y9764D01*
X158430Y9727D01*
Y9676D01*
X158440Y9616D01*
X158444Y9556D01*
X158454Y9486D01*
X158481Y9343D01*
X158518Y9199D01*
X158542Y9130D01*
X158574Y9065D01*
X158606Y9005D01*
X158643Y8954D01*
X158648Y8949D01*
X158653Y8945D01*
X158666Y8931D01*
X158685Y8912D01*
X158731Y8875D01*
X158796Y8829D01*
X158875Y8778D01*
X158972Y8741D01*
X159083Y8709D01*
X159143Y8704D01*
X159208Y8699D01*
X159231D01*
X159250Y8704D01*
X159300Y8709D01*
X159361Y8718D01*
X159425Y8741D01*
X159499Y8769D01*
X159574Y8806D01*
X159648Y8861D01*
X159657Y8871D01*
X159680Y8894D01*
X159712Y8931D01*
X159749Y8986D01*
X159796Y9060D01*
X159837Y9148D01*
X159879Y9255D01*
X159916Y9380D01*
X160545Y9185D01*
Y9181D01*
X160541Y9162D01*
X160531Y9134D01*
X160518Y9097D01*
X160499Y9056D01*
X160481Y9005D01*
X160457Y8949D01*
X160430Y8889D01*
X160365Y8764D01*
X160282Y8635D01*
X160180Y8510D01*
X160124Y8454D01*
X160064Y8403D01*
X160059Y8399D01*
X160050Y8394D01*
X160032Y8380D01*
X160004Y8362D01*
X159972Y8343D01*
X159930Y8325D01*
X159884Y8301D01*
X159833Y8278D01*
X159773Y8250D01*
X159708Y8227D01*
X159638Y8209D01*
X159564Y8190D01*
X159486Y8172D01*
X159398Y8158D01*
X159310Y8153D01*
X159213Y8149D01*
X159185D01*
X159152Y8153D01*
X159106Y8158D01*
X159055Y8163D01*
X158990Y8172D01*
X158921Y8186D01*
X158842Y8204D01*
X158764Y8227D01*
X158680Y8255D01*
X158592Y8292D01*
X158504Y8334D01*
X158417Y8380D01*
X158329Y8440D01*
X158245Y8505D01*
X158167Y8584D01*
X158162Y8588D01*
X158148Y8602D01*
X158130Y8630D01*
X158102Y8662D01*
X158074Y8709D01*
X158037Y8760D01*
X158000Y8824D01*
X157963Y8898D01*
X157926Y8977D01*
X157889Y9065D01*
X157852Y9167D01*
X157824Y9273D01*
X157796Y9384D01*
X157778Y9509D01*
X157764Y9639D01*
X157759Y9778D01*
Y9782D01*
Y9787D01*
Y9815D01*
X157764Y9856D01*
Y9912D01*
X157773Y9977D01*
X157783Y10055D01*
X157792Y10139D01*
X157810Y10236D01*
X157833Y10333D01*
X157861Y10435D01*
X157894Y10537D01*
X157935Y10643D01*
X157982Y10745D01*
X158037Y10842D01*
X158097Y10935D01*
X158171Y11023D01*
X158176Y11027D01*
X158190Y11041D01*
X158213Y11064D01*
X158245Y11092D01*
X158287Y11124D01*
X158338Y11161D01*
X158393Y11203D01*
X158463Y11245D01*
X158537Y11286D01*
X158616Y11328D01*
X158708Y11365D01*
X158801Y11397D01*
X158907Y11425D01*
X159014Y11448D01*
X159134Y11462D01*
X159254Y11467D01*
X159310D01*
X159351Y11462D01*
D02*
G37*
G36*
X163665Y8204D02*
X163017D01*
Y9606D01*
X161753D01*
Y8204D01*
X161105D01*
Y11407D01*
X161753D01*
Y10148D01*
X163017D01*
Y11407D01*
X163665D01*
Y8204D01*
D02*
G37*
G36*
X165280Y11421D02*
X165321Y11416D01*
X165363Y11411D01*
X165414Y11402D01*
X165465Y11388D01*
X165581Y11356D01*
X165641Y11333D01*
X165705Y11300D01*
X165766Y11268D01*
X165821Y11231D01*
X165881Y11185D01*
X165932Y11134D01*
X165937Y11129D01*
X165941Y11124D01*
X165955Y11111D01*
X165969Y11092D01*
X166006Y11046D01*
X166048Y10981D01*
X166090Y10902D01*
X166122Y10810D01*
X166150Y10708D01*
X166154Y10657D01*
X166159Y10601D01*
Y10597D01*
Y10583D01*
X166154Y10560D01*
X166150Y10532D01*
X166145Y10495D01*
X166136Y10453D01*
X166122Y10407D01*
X166103Y10356D01*
X166076Y10305D01*
X166048Y10250D01*
X166011Y10194D01*
X165965Y10139D01*
X165909Y10083D01*
X165849Y10028D01*
X165780Y9977D01*
X165696Y9926D01*
X165701D01*
X165710Y9921D01*
X165724D01*
X165742Y9912D01*
X165793Y9898D01*
X165854Y9870D01*
X165923Y9833D01*
X165997Y9787D01*
X166071Y9727D01*
X166136Y9657D01*
X166145Y9648D01*
X166164Y9620D01*
X166187Y9579D01*
X166219Y9519D01*
X166252Y9449D01*
X166275Y9361D01*
X166293Y9269D01*
X166302Y9162D01*
Y9158D01*
Y9144D01*
Y9121D01*
X166298Y9093D01*
X166293Y9056D01*
X166284Y9014D01*
X166275Y8963D01*
X166265Y8912D01*
X166228Y8801D01*
X166201Y8741D01*
X166173Y8676D01*
X166136Y8616D01*
X166094Y8556D01*
X166048Y8496D01*
X165992Y8440D01*
X165988Y8436D01*
X165979Y8426D01*
X165960Y8412D01*
X165937Y8394D01*
X165904Y8371D01*
X165872Y8348D01*
X165826Y8320D01*
X165780Y8292D01*
X165729Y8264D01*
X165668Y8237D01*
X165604Y8213D01*
X165539Y8190D01*
X165465Y8172D01*
X165391Y8158D01*
X165307Y8149D01*
X165224Y8144D01*
X165183D01*
X165150Y8149D01*
X165113Y8153D01*
X165071Y8158D01*
X165025Y8167D01*
X164970Y8176D01*
X164859Y8204D01*
X164738Y8250D01*
X164673Y8278D01*
X164618Y8311D01*
X164558Y8352D01*
X164502Y8394D01*
X164498Y8399D01*
X164488Y8408D01*
X164474Y8422D01*
X164456Y8440D01*
X164433Y8463D01*
X164410Y8496D01*
X164382Y8528D01*
X164354Y8570D01*
X164326Y8616D01*
X164294Y8662D01*
X164243Y8773D01*
X164201Y8903D01*
X164183Y8972D01*
X164174Y9046D01*
X164766Y9121D01*
Y9116D01*
Y9111D01*
X164771Y9083D01*
X164780Y9042D01*
X164794Y8991D01*
X164817Y8935D01*
X164840Y8875D01*
X164877Y8820D01*
X164919Y8769D01*
X164923Y8764D01*
X164942Y8750D01*
X164970Y8732D01*
X165002Y8713D01*
X165048Y8690D01*
X165099Y8672D01*
X165155Y8658D01*
X165220Y8653D01*
X165229D01*
X165252Y8658D01*
X165284Y8662D01*
X165331Y8672D01*
X165382Y8690D01*
X165432Y8713D01*
X165488Y8750D01*
X165539Y8797D01*
X165543Y8801D01*
X165562Y8824D01*
X165581Y8857D01*
X165608Y8898D01*
X165631Y8954D01*
X165655Y9023D01*
X165668Y9102D01*
X165673Y9190D01*
Y9195D01*
Y9199D01*
Y9227D01*
X165668Y9269D01*
X165659Y9324D01*
X165641Y9384D01*
X165618Y9444D01*
X165585Y9505D01*
X165543Y9560D01*
X165539Y9565D01*
X165520Y9583D01*
X165493Y9606D01*
X165460Y9630D01*
X165414Y9657D01*
X165363Y9676D01*
X165307Y9694D01*
X165243Y9699D01*
X165196D01*
X165164Y9694D01*
X165122Y9690D01*
X165071Y9680D01*
X165021Y9667D01*
X164960Y9653D01*
X165025Y10148D01*
X165067D01*
X165113Y10153D01*
X165169Y10157D01*
X165229Y10171D01*
X165294Y10190D01*
X165354Y10217D01*
X165409Y10254D01*
X165414Y10259D01*
X165432Y10277D01*
X165451Y10301D01*
X165479Y10338D01*
X165502Y10379D01*
X165525Y10430D01*
X165539Y10490D01*
X165543Y10560D01*
Y10569D01*
Y10588D01*
X165539Y10615D01*
X165530Y10652D01*
X165520Y10694D01*
X165502Y10736D01*
X165479Y10782D01*
X165446Y10819D01*
X165442Y10824D01*
X165428Y10833D01*
X165409Y10851D01*
X165377Y10870D01*
X165340Y10884D01*
X165298Y10902D01*
X165243Y10912D01*
X165187Y10916D01*
X165159D01*
X165132Y10912D01*
X165095Y10902D01*
X165053Y10888D01*
X165007Y10870D01*
X164960Y10842D01*
X164919Y10805D01*
X164914Y10800D01*
X164900Y10787D01*
X164882Y10759D01*
X164859Y10722D01*
X164835Y10680D01*
X164817Y10625D01*
X164798Y10560D01*
X164785Y10486D01*
X164220Y10578D01*
Y10583D01*
X164225Y10592D01*
Y10606D01*
X164229Y10629D01*
X164243Y10680D01*
X164262Y10750D01*
X164289Y10824D01*
X164317Y10902D01*
X164354Y10976D01*
X164396Y11046D01*
X164400Y11055D01*
X164419Y11073D01*
X164447Y11106D01*
X164484Y11148D01*
X164530Y11189D01*
X164586Y11235D01*
X164655Y11282D01*
X164729Y11323D01*
X164734D01*
X164738Y11328D01*
X164766Y11337D01*
X164812Y11356D01*
X164868Y11374D01*
X164937Y11393D01*
X165021Y11411D01*
X165108Y11421D01*
X165206Y11425D01*
X165247D01*
X165280Y11421D01*
D02*
G37*
G36*
X137634Y41002D02*
X137685Y40998D01*
X137741Y40989D01*
X137806Y40979D01*
X137875Y40965D01*
X137949Y40947D01*
X138028Y40924D01*
X138106Y40896D01*
X138190Y40859D01*
X138268Y40822D01*
X138342Y40776D01*
X138421Y40720D01*
X138491Y40660D01*
X138495D01*
X138500Y40651D01*
X138514Y40637D01*
X138528Y40623D01*
X138546Y40600D01*
X138565Y40572D01*
X138615Y40507D01*
X138666Y40424D01*
X138722Y40322D01*
X138773Y40206D01*
X138819Y40072D01*
X138180Y39919D01*
Y39924D01*
X138176Y39929D01*
Y39943D01*
X138167Y39961D01*
X138153Y40003D01*
X138130Y40058D01*
X138097Y40123D01*
X138056Y40188D01*
X138000Y40253D01*
X137940Y40308D01*
X137931Y40313D01*
X137907Y40331D01*
X137870Y40355D01*
X137820Y40382D01*
X137755Y40410D01*
X137681Y40433D01*
X137597Y40452D01*
X137505Y40456D01*
X137472D01*
X137445Y40452D01*
X137417Y40447D01*
X137380Y40442D01*
X137301Y40424D01*
X137209Y40392D01*
X137111Y40345D01*
X137061Y40318D01*
X137014Y40285D01*
X136968Y40243D01*
X136926Y40197D01*
Y40193D01*
X136917Y40183D01*
X136908Y40169D01*
X136894Y40146D01*
X136875Y40118D01*
X136857Y40086D01*
X136838Y40044D01*
X136820Y39998D01*
X136797Y39943D01*
X136778Y39882D01*
X136760Y39813D01*
X136741Y39739D01*
X136727Y39656D01*
X136718Y39568D01*
X136713Y39471D01*
X136709Y39364D01*
Y39360D01*
Y39336D01*
Y39304D01*
X136713Y39267D01*
Y39216D01*
X136723Y39156D01*
X136727Y39096D01*
X136737Y39026D01*
X136764Y38883D01*
X136801Y38739D01*
X136825Y38670D01*
X136857Y38605D01*
X136889Y38545D01*
X136926Y38494D01*
X136931Y38489D01*
X136936Y38485D01*
X136949Y38471D01*
X136968Y38452D01*
X137014Y38415D01*
X137079Y38369D01*
X137158Y38318D01*
X137255Y38281D01*
X137366Y38249D01*
X137426Y38244D01*
X137491Y38240D01*
X137514D01*
X137533Y38244D01*
X137583Y38249D01*
X137644Y38258D01*
X137708Y38281D01*
X137782Y38309D01*
X137857Y38346D01*
X137931Y38402D01*
X137940Y38411D01*
X137963Y38434D01*
X137995Y38471D01*
X138032Y38527D01*
X138079Y38601D01*
X138120Y38688D01*
X138162Y38795D01*
X138199Y38920D01*
X138828Y38726D01*
Y38721D01*
X138824Y38702D01*
X138814Y38675D01*
X138801Y38638D01*
X138782Y38596D01*
X138764Y38545D01*
X138740Y38489D01*
X138713Y38429D01*
X138648Y38304D01*
X138565Y38175D01*
X138463Y38050D01*
X138407Y37994D01*
X138347Y37943D01*
X138342Y37939D01*
X138333Y37934D01*
X138315Y37920D01*
X138287Y37902D01*
X138255Y37883D01*
X138213Y37865D01*
X138167Y37842D01*
X138116Y37818D01*
X138056Y37791D01*
X137991Y37768D01*
X137921Y37749D01*
X137847Y37731D01*
X137769Y37712D01*
X137681Y37698D01*
X137593Y37693D01*
X137496Y37689D01*
X137468D01*
X137435Y37693D01*
X137389Y37698D01*
X137338Y37703D01*
X137273Y37712D01*
X137204Y37726D01*
X137125Y37744D01*
X137047Y37768D01*
X136963Y37795D01*
X136875Y37832D01*
X136787Y37874D01*
X136700Y37920D01*
X136612Y37980D01*
X136528Y38045D01*
X136450Y38124D01*
X136445Y38129D01*
X136431Y38142D01*
X136413Y38170D01*
X136385Y38203D01*
X136357Y38249D01*
X136320Y38300D01*
X136283Y38365D01*
X136246Y38439D01*
X136209Y38517D01*
X136172Y38605D01*
X136135Y38707D01*
X136107Y38813D01*
X136079Y38925D01*
X136061Y39049D01*
X136047Y39179D01*
X136042Y39318D01*
Y39323D01*
Y39327D01*
Y39355D01*
X136047Y39397D01*
Y39452D01*
X136056Y39517D01*
X136066Y39596D01*
X136075Y39679D01*
X136093Y39776D01*
X136116Y39873D01*
X136144Y39975D01*
X136177Y40077D01*
X136218Y40183D01*
X136265Y40285D01*
X136320Y40382D01*
X136380Y40475D01*
X136454Y40563D01*
X136459Y40567D01*
X136473Y40581D01*
X136496Y40604D01*
X136528Y40632D01*
X136570Y40665D01*
X136621Y40702D01*
X136676Y40743D01*
X136746Y40785D01*
X136820Y40827D01*
X136899Y40868D01*
X136991Y40905D01*
X137084Y40938D01*
X137190Y40965D01*
X137297Y40989D01*
X137417Y41002D01*
X137537Y41007D01*
X137593D01*
X137634Y41002D01*
D02*
G37*
G36*
X141948Y37744D02*
X141300D01*
Y39147D01*
X140036D01*
Y37744D01*
X139388D01*
Y40947D01*
X140036D01*
Y39688D01*
X141300D01*
Y40947D01*
X141948D01*
Y37744D01*
D02*
G37*
G36*
X144280Y38925D02*
X144678D01*
Y38388D01*
X144280D01*
Y37744D01*
X143688D01*
Y38388D01*
X142373D01*
Y38920D01*
X143762Y40961D01*
X144280D01*
Y38925D01*
D02*
G37*
G36*
X40352Y39859D02*
X40403Y39855D01*
X40459Y39846D01*
X40524Y39836D01*
X40593Y39822D01*
X40667Y39804D01*
X40746Y39781D01*
X40824Y39753D01*
X40908Y39716D01*
X40986Y39679D01*
X41060Y39633D01*
X41139Y39577D01*
X41209Y39517D01*
X41213D01*
X41218Y39508D01*
X41232Y39494D01*
X41246Y39480D01*
X41264Y39457D01*
X41283Y39429D01*
X41333Y39364D01*
X41384Y39281D01*
X41440Y39179D01*
X41491Y39063D01*
X41537Y38929D01*
X40898Y38777D01*
Y38781D01*
X40894Y38786D01*
Y38800D01*
X40885Y38818D01*
X40871Y38860D01*
X40848Y38915D01*
X40815Y38980D01*
X40774Y39045D01*
X40718Y39110D01*
X40658Y39165D01*
X40649Y39170D01*
X40625Y39188D01*
X40588Y39212D01*
X40538Y39239D01*
X40473Y39267D01*
X40399Y39290D01*
X40315Y39309D01*
X40223Y39313D01*
X40190D01*
X40163Y39309D01*
X40135Y39304D01*
X40098Y39299D01*
X40019Y39281D01*
X39927Y39249D01*
X39829Y39202D01*
X39779Y39174D01*
X39732Y39142D01*
X39686Y39100D01*
X39644Y39054D01*
Y39050D01*
X39635Y39040D01*
X39626Y39026D01*
X39612Y39003D01*
X39593Y38975D01*
X39575Y38943D01*
X39556Y38901D01*
X39538Y38855D01*
X39515Y38800D01*
X39496Y38739D01*
X39478Y38670D01*
X39459Y38596D01*
X39445Y38513D01*
X39436Y38425D01*
X39431Y38328D01*
X39427Y38221D01*
Y38217D01*
Y38193D01*
Y38161D01*
X39431Y38124D01*
Y38073D01*
X39441Y38013D01*
X39445Y37953D01*
X39455Y37883D01*
X39482Y37740D01*
X39519Y37596D01*
X39543Y37527D01*
X39575Y37462D01*
X39607Y37402D01*
X39644Y37351D01*
X39649Y37346D01*
X39654Y37342D01*
X39667Y37328D01*
X39686Y37309D01*
X39732Y37272D01*
X39797Y37226D01*
X39876Y37175D01*
X39973Y37138D01*
X40084Y37106D01*
X40144Y37101D01*
X40209Y37097D01*
X40232D01*
X40251Y37101D01*
X40301Y37106D01*
X40362Y37115D01*
X40426Y37138D01*
X40500Y37166D01*
X40575Y37203D01*
X40649Y37259D01*
X40658Y37268D01*
X40681Y37291D01*
X40713Y37328D01*
X40750Y37384D01*
X40797Y37458D01*
X40838Y37545D01*
X40880Y37652D01*
X40917Y37777D01*
X41546Y37583D01*
Y37578D01*
X41542Y37559D01*
X41533Y37532D01*
X41519Y37495D01*
X41500Y37453D01*
X41482Y37402D01*
X41458Y37346D01*
X41431Y37286D01*
X41366Y37161D01*
X41283Y37032D01*
X41181Y36907D01*
X41125Y36851D01*
X41065Y36800D01*
X41060Y36796D01*
X41051Y36791D01*
X41033Y36777D01*
X41005Y36759D01*
X40973Y36740D01*
X40931Y36722D01*
X40885Y36699D01*
X40834Y36675D01*
X40774Y36648D01*
X40709Y36625D01*
X40639Y36606D01*
X40565Y36588D01*
X40487Y36569D01*
X40399Y36555D01*
X40311Y36550D01*
X40214Y36546D01*
X40186D01*
X40153Y36550D01*
X40107Y36555D01*
X40056Y36560D01*
X39991Y36569D01*
X39922Y36583D01*
X39843Y36601D01*
X39765Y36625D01*
X39681Y36652D01*
X39593Y36689D01*
X39505Y36731D01*
X39418Y36777D01*
X39330Y36837D01*
X39246Y36902D01*
X39168Y36981D01*
X39163Y36986D01*
X39149Y36999D01*
X39131Y37027D01*
X39103Y37060D01*
X39075Y37106D01*
X39038Y37157D01*
X39001Y37222D01*
X38964Y37296D01*
X38927Y37374D01*
X38890Y37462D01*
X38853Y37564D01*
X38825Y37670D01*
X38797Y37782D01*
X38779Y37906D01*
X38765Y38036D01*
X38760Y38175D01*
Y38180D01*
Y38184D01*
Y38212D01*
X38765Y38254D01*
Y38309D01*
X38774Y38374D01*
X38784Y38453D01*
X38793Y38536D01*
X38811Y38633D01*
X38834Y38730D01*
X38862Y38832D01*
X38895Y38934D01*
X38936Y39040D01*
X38983Y39142D01*
X39038Y39239D01*
X39098Y39332D01*
X39172Y39420D01*
X39177Y39424D01*
X39191Y39438D01*
X39214Y39461D01*
X39246Y39489D01*
X39288Y39522D01*
X39339Y39559D01*
X39394Y39600D01*
X39464Y39642D01*
X39538Y39684D01*
X39617Y39725D01*
X39709Y39762D01*
X39802Y39795D01*
X39908Y39822D01*
X40015Y39846D01*
X40135Y39859D01*
X40255Y39864D01*
X40311D01*
X40352Y39859D01*
D02*
G37*
G36*
X44666Y36601D02*
X44018D01*
Y38004D01*
X42754D01*
Y36601D01*
X42106D01*
Y39804D01*
X42754D01*
Y38545D01*
X44018D01*
Y39804D01*
X44666D01*
Y36601D01*
D02*
G37*
G36*
X46767D02*
X46151D01*
Y38920D01*
X46146Y38915D01*
X46137Y38906D01*
X46119Y38892D01*
X46091Y38869D01*
X46059Y38841D01*
X46022Y38814D01*
X45975Y38781D01*
X45924Y38744D01*
X45869Y38707D01*
X45809Y38670D01*
X45744Y38628D01*
X45674Y38591D01*
X45526Y38522D01*
X45360Y38457D01*
Y39013D01*
X45364D01*
X45369Y39017D01*
X45383Y39022D01*
X45401Y39026D01*
X45448Y39050D01*
X45512Y39077D01*
X45591Y39114D01*
X45679Y39165D01*
X45776Y39230D01*
X45878Y39304D01*
X45883Y39309D01*
X45892Y39313D01*
X45906Y39327D01*
X45924Y39346D01*
X45975Y39392D01*
X46031Y39452D01*
X46096Y39526D01*
X46160Y39619D01*
X46221Y39716D01*
X46267Y39822D01*
X46767D01*
Y36601D01*
D02*
G37*
G36*
X79443Y11462D02*
X79494Y11458D01*
X79549Y11448D01*
X79614Y11439D01*
X79684Y11425D01*
X79758Y11407D01*
X79836Y11384D01*
X79915Y11356D01*
X79998Y11319D01*
X80077Y11282D01*
X80151Y11235D01*
X80230Y11180D01*
X80299Y11120D01*
X80304D01*
X80308Y11111D01*
X80322Y11097D01*
X80336Y11083D01*
X80355Y11060D01*
X80373Y11032D01*
X80424Y10967D01*
X80475Y10884D01*
X80531Y10782D01*
X80581Y10666D01*
X80628Y10532D01*
X79989Y10379D01*
Y10384D01*
X79984Y10389D01*
Y10402D01*
X79975Y10421D01*
X79961Y10463D01*
X79938Y10518D01*
X79906Y10583D01*
X79864Y10648D01*
X79809Y10713D01*
X79748Y10768D01*
X79739Y10773D01*
X79716Y10791D01*
X79679Y10814D01*
X79628Y10842D01*
X79563Y10870D01*
X79489Y10893D01*
X79406Y10912D01*
X79313Y10916D01*
X79281D01*
X79253Y10912D01*
X79225Y10907D01*
X79188Y10902D01*
X79110Y10884D01*
X79017Y10851D01*
X78920Y10805D01*
X78869Y10777D01*
X78823Y10745D01*
X78777Y10703D01*
X78735Y10657D01*
Y10652D01*
X78726Y10643D01*
X78716Y10629D01*
X78703Y10606D01*
X78684Y10578D01*
X78666Y10546D01*
X78647Y10504D01*
X78628Y10458D01*
X78605Y10402D01*
X78587Y10342D01*
X78568Y10273D01*
X78550Y10199D01*
X78536Y10116D01*
X78527Y10028D01*
X78522Y9930D01*
X78517Y9824D01*
Y9819D01*
Y9796D01*
Y9764D01*
X78522Y9727D01*
Y9676D01*
X78531Y9616D01*
X78536Y9556D01*
X78545Y9486D01*
X78573Y9343D01*
X78610Y9199D01*
X78633Y9130D01*
X78666Y9065D01*
X78698Y9005D01*
X78735Y8954D01*
X78740Y8949D01*
X78744Y8945D01*
X78758Y8931D01*
X78777Y8912D01*
X78823Y8875D01*
X78888Y8829D01*
X78966Y8778D01*
X79063Y8741D01*
X79175Y8709D01*
X79235Y8704D01*
X79300Y8699D01*
X79323D01*
X79341Y8704D01*
X79392Y8709D01*
X79452Y8718D01*
X79517Y8741D01*
X79591Y8769D01*
X79665Y8806D01*
X79739Y8861D01*
X79748Y8871D01*
X79772Y8894D01*
X79804Y8931D01*
X79841Y8986D01*
X79887Y9060D01*
X79929Y9148D01*
X79971Y9255D01*
X80008Y9380D01*
X80637Y9185D01*
Y9181D01*
X80632Y9162D01*
X80623Y9134D01*
X80609Y9097D01*
X80591Y9056D01*
X80572Y9005D01*
X80549Y8949D01*
X80521Y8889D01*
X80456Y8764D01*
X80373Y8635D01*
X80271Y8510D01*
X80216Y8454D01*
X80156Y8403D01*
X80151Y8399D01*
X80142Y8394D01*
X80123Y8380D01*
X80096Y8362D01*
X80063Y8343D01*
X80021Y8325D01*
X79975Y8301D01*
X79924Y8278D01*
X79864Y8250D01*
X79799Y8227D01*
X79730Y8209D01*
X79656Y8190D01*
X79577Y8172D01*
X79489Y8158D01*
X79401Y8153D01*
X79304Y8149D01*
X79276D01*
X79244Y8153D01*
X79198Y8158D01*
X79147Y8163D01*
X79082Y8172D01*
X79013Y8186D01*
X78934Y8204D01*
X78855Y8227D01*
X78772Y8255D01*
X78684Y8292D01*
X78596Y8334D01*
X78508Y8380D01*
X78420Y8440D01*
X78337Y8505D01*
X78258Y8584D01*
X78254Y8588D01*
X78240Y8602D01*
X78221Y8630D01*
X78193Y8662D01*
X78166Y8709D01*
X78129Y8760D01*
X78092Y8824D01*
X78055Y8898D01*
X78018Y8977D01*
X77981Y9065D01*
X77944Y9167D01*
X77916Y9273D01*
X77888Y9384D01*
X77870Y9509D01*
X77856Y9639D01*
X77851Y9778D01*
Y9782D01*
Y9787D01*
Y9815D01*
X77856Y9856D01*
Y9912D01*
X77865Y9977D01*
X77874Y10055D01*
X77883Y10139D01*
X77902Y10236D01*
X77925Y10333D01*
X77953Y10435D01*
X77985Y10537D01*
X78027Y10643D01*
X78073Y10745D01*
X78129Y10842D01*
X78189Y10935D01*
X78263Y11023D01*
X78268Y11027D01*
X78281Y11041D01*
X78305Y11064D01*
X78337Y11092D01*
X78379Y11124D01*
X78429Y11161D01*
X78485Y11203D01*
X78554Y11245D01*
X78628Y11286D01*
X78707Y11328D01*
X78800Y11365D01*
X78892Y11397D01*
X78999Y11425D01*
X79105Y11448D01*
X79225Y11462D01*
X79346Y11467D01*
X79401D01*
X79443Y11462D01*
D02*
G37*
G36*
X83756Y8204D02*
X83108D01*
Y9606D01*
X81845D01*
Y8204D01*
X81197D01*
Y11407D01*
X81845D01*
Y10148D01*
X83108D01*
Y11407D01*
X83756D01*
Y8204D01*
D02*
G37*
G36*
X85394Y11421D02*
X85436Y11416D01*
X85478Y11411D01*
X85529Y11407D01*
X85580Y11397D01*
X85695Y11370D01*
X85816Y11328D01*
X85871Y11300D01*
X85931Y11268D01*
X85982Y11231D01*
X86033Y11189D01*
X86038Y11185D01*
X86042Y11180D01*
X86056Y11166D01*
X86075Y11148D01*
X86093Y11124D01*
X86112Y11097D01*
X86163Y11027D01*
X86209Y10939D01*
X86246Y10842D01*
X86278Y10726D01*
X86283Y10662D01*
X86288Y10597D01*
Y10592D01*
Y10588D01*
Y10560D01*
X86283Y10518D01*
X86274Y10463D01*
X86260Y10402D01*
X86237Y10338D01*
X86209Y10268D01*
X86167Y10199D01*
X86163Y10190D01*
X86144Y10171D01*
X86121Y10139D01*
X86084Y10102D01*
X86038Y10055D01*
X85982Y10014D01*
X85917Y9972D01*
X85843Y9935D01*
X85848D01*
X85857Y9930D01*
X85871Y9926D01*
X85890Y9917D01*
X85936Y9889D01*
X85996Y9852D01*
X86061Y9810D01*
X86130Y9755D01*
X86195Y9690D01*
X86251Y9616D01*
X86255Y9606D01*
X86274Y9579D01*
X86297Y9537D01*
X86320Y9481D01*
X86348Y9412D01*
X86366Y9329D01*
X86385Y9241D01*
X86389Y9144D01*
Y9139D01*
Y9125D01*
Y9102D01*
X86385Y9070D01*
X86380Y9033D01*
X86376Y8986D01*
X86366Y8940D01*
X86352Y8889D01*
X86320Y8773D01*
X86297Y8713D01*
X86269Y8653D01*
X86237Y8593D01*
X86195Y8533D01*
X86153Y8477D01*
X86103Y8422D01*
X86098Y8417D01*
X86089Y8408D01*
X86075Y8394D01*
X86052Y8380D01*
X86024Y8357D01*
X85987Y8334D01*
X85950Y8311D01*
X85904Y8283D01*
X85853Y8255D01*
X85792Y8232D01*
X85732Y8209D01*
X85667Y8186D01*
X85593Y8172D01*
X85515Y8158D01*
X85436Y8149D01*
X85348Y8144D01*
X85307D01*
X85274Y8149D01*
X85237Y8153D01*
X85195Y8158D01*
X85149Y8163D01*
X85094Y8172D01*
X84978Y8200D01*
X84858Y8241D01*
X84797Y8264D01*
X84737Y8297D01*
X84677Y8329D01*
X84622Y8371D01*
X84617Y8375D01*
X84608Y8385D01*
X84589Y8399D01*
X84566Y8422D01*
X84543Y8449D01*
X84515Y8482D01*
X84483Y8524D01*
X84450Y8565D01*
X84418Y8616D01*
X84386Y8672D01*
X84358Y8732D01*
X84335Y8801D01*
X84312Y8871D01*
X84293Y8949D01*
X84284Y9028D01*
X84279Y9116D01*
Y9121D01*
Y9130D01*
Y9144D01*
Y9162D01*
X84284Y9213D01*
X84293Y9273D01*
X84312Y9347D01*
X84330Y9431D01*
X84362Y9514D01*
X84404Y9597D01*
Y9602D01*
X84409Y9606D01*
X84427Y9634D01*
X84460Y9671D01*
X84506Y9722D01*
X84561Y9778D01*
X84631Y9833D01*
X84714Y9884D01*
X84811Y9935D01*
X84807D01*
X84802Y9940D01*
X84774Y9954D01*
X84733Y9977D01*
X84682Y10004D01*
X84622Y10046D01*
X84566Y10092D01*
X84511Y10148D01*
X84464Y10208D01*
X84460Y10217D01*
X84446Y10240D01*
X84432Y10273D01*
X84413Y10324D01*
X84390Y10379D01*
X84376Y10449D01*
X84362Y10518D01*
X84358Y10597D01*
Y10601D01*
Y10611D01*
Y10629D01*
X84362Y10657D01*
X84367Y10685D01*
X84372Y10722D01*
X84390Y10805D01*
X84418Y10898D01*
X84464Y10999D01*
X84492Y11046D01*
X84524Y11097D01*
X84566Y11143D01*
X84608Y11189D01*
X84612Y11194D01*
X84622Y11198D01*
X84635Y11212D01*
X84654Y11226D01*
X84682Y11245D01*
X84710Y11263D01*
X84747Y11286D01*
X84793Y11310D01*
X84839Y11328D01*
X84890Y11351D01*
X84950Y11370D01*
X85015Y11388D01*
X85084Y11402D01*
X85158Y11416D01*
X85237Y11421D01*
X85320Y11425D01*
X85367D01*
X85394Y11421D01*
D02*
G37*
G36*
X143375Y11462D02*
X143426Y11458D01*
X143481Y11448D01*
X143546Y11439D01*
X143615Y11425D01*
X143689Y11407D01*
X143768Y11384D01*
X143847Y11356D01*
X143930Y11319D01*
X144009Y11282D01*
X144083Y11235D01*
X144162Y11180D01*
X144231Y11120D01*
X144236D01*
X144240Y11111D01*
X144254Y11097D01*
X144268Y11083D01*
X144286Y11060D01*
X144305Y11032D01*
X144356Y10967D01*
X144407Y10884D01*
X144462Y10782D01*
X144513Y10666D01*
X144560Y10532D01*
X143921Y10379D01*
Y10384D01*
X143916Y10389D01*
Y10402D01*
X143907Y10421D01*
X143893Y10463D01*
X143870Y10518D01*
X143838Y10583D01*
X143796Y10648D01*
X143740Y10713D01*
X143680Y10768D01*
X143671Y10773D01*
X143648Y10791D01*
X143611Y10814D01*
X143560Y10842D01*
X143495Y10870D01*
X143421Y10893D01*
X143338Y10912D01*
X143245Y10916D01*
X143213D01*
X143185Y10912D01*
X143157Y10907D01*
X143120Y10902D01*
X143042Y10884D01*
X142949Y10851D01*
X142852Y10805D01*
X142801Y10777D01*
X142755Y10745D01*
X142708Y10703D01*
X142667Y10657D01*
Y10652D01*
X142657Y10643D01*
X142648Y10629D01*
X142634Y10606D01*
X142616Y10578D01*
X142597Y10546D01*
X142579Y10504D01*
X142560Y10458D01*
X142537Y10402D01*
X142519Y10342D01*
X142500Y10273D01*
X142482Y10199D01*
X142468Y10116D01*
X142458Y10028D01*
X142454Y9930D01*
X142449Y9824D01*
Y9819D01*
Y9796D01*
Y9764D01*
X142454Y9727D01*
Y9676D01*
X142463Y9616D01*
X142468Y9556D01*
X142477Y9486D01*
X142505Y9343D01*
X142542Y9199D01*
X142565Y9130D01*
X142597Y9065D01*
X142630Y9005D01*
X142667Y8954D01*
X142671Y8949D01*
X142676Y8945D01*
X142690Y8931D01*
X142708Y8912D01*
X142755Y8875D01*
X142819Y8829D01*
X142898Y8778D01*
X142995Y8741D01*
X143106Y8709D01*
X143167Y8704D01*
X143231Y8699D01*
X143254D01*
X143273Y8704D01*
X143324Y8709D01*
X143384Y8718D01*
X143449Y8741D01*
X143523Y8769D01*
X143597Y8806D01*
X143671Y8861D01*
X143680Y8871D01*
X143703Y8894D01*
X143736Y8931D01*
X143773Y8986D01*
X143819Y9060D01*
X143861Y9148D01*
X143902Y9255D01*
X143939Y9380D01*
X144569Y9185D01*
Y9181D01*
X144564Y9162D01*
X144555Y9134D01*
X144541Y9097D01*
X144523Y9056D01*
X144504Y9005D01*
X144481Y8949D01*
X144453Y8889D01*
X144388Y8764D01*
X144305Y8635D01*
X144203Y8510D01*
X144148Y8454D01*
X144087Y8403D01*
X144083Y8399D01*
X144074Y8394D01*
X144055Y8380D01*
X144027Y8362D01*
X143995Y8343D01*
X143953Y8325D01*
X143907Y8301D01*
X143856Y8278D01*
X143796Y8250D01*
X143731Y8227D01*
X143662Y8209D01*
X143588Y8190D01*
X143509Y8172D01*
X143421Y8158D01*
X143333Y8153D01*
X143236Y8149D01*
X143208D01*
X143176Y8153D01*
X143130Y8158D01*
X143079Y8163D01*
X143014Y8172D01*
X142944Y8186D01*
X142866Y8204D01*
X142787Y8227D01*
X142704Y8255D01*
X142616Y8292D01*
X142528Y8334D01*
X142440Y8380D01*
X142352Y8440D01*
X142269Y8505D01*
X142190Y8584D01*
X142185Y8588D01*
X142172Y8602D01*
X142153Y8630D01*
X142125Y8662D01*
X142098Y8709D01*
X142060Y8760D01*
X142023Y8824D01*
X141986Y8898D01*
X141949Y8977D01*
X141912Y9065D01*
X141875Y9167D01*
X141848Y9273D01*
X141820Y9384D01*
X141801Y9509D01*
X141787Y9639D01*
X141783Y9778D01*
Y9782D01*
Y9787D01*
Y9815D01*
X141787Y9856D01*
Y9912D01*
X141797Y9977D01*
X141806Y10055D01*
X141815Y10139D01*
X141834Y10236D01*
X141857Y10333D01*
X141885Y10435D01*
X141917Y10537D01*
X141959Y10643D01*
X142005Y10745D01*
X142060Y10842D01*
X142121Y10935D01*
X142195Y11023D01*
X142199Y11027D01*
X142213Y11041D01*
X142236Y11064D01*
X142269Y11092D01*
X142310Y11124D01*
X142361Y11161D01*
X142417Y11203D01*
X142486Y11245D01*
X142560Y11286D01*
X142639Y11328D01*
X142732Y11365D01*
X142824Y11397D01*
X142931Y11425D01*
X143037Y11448D01*
X143157Y11462D01*
X143278Y11467D01*
X143333D01*
X143375Y11462D01*
D02*
G37*
G36*
X147688Y8204D02*
X147040D01*
Y9606D01*
X145777D01*
Y8204D01*
X145129D01*
Y11407D01*
X145777D01*
Y10148D01*
X147040D01*
Y11407D01*
X147688D01*
Y8204D01*
D02*
G37*
G36*
X150020Y9384D02*
X150418D01*
Y8847D01*
X150020D01*
Y8204D01*
X149428D01*
Y8847D01*
X148114D01*
Y9380D01*
X149502Y11421D01*
X150020D01*
Y9384D01*
D02*
G37*
G36*
X24401Y39859D02*
X24452Y39855D01*
X24508Y39846D01*
X24572Y39836D01*
X24642Y39822D01*
X24716Y39804D01*
X24795Y39781D01*
X24873Y39753D01*
X24957Y39716D01*
X25035Y39679D01*
X25109Y39633D01*
X25188Y39577D01*
X25257Y39517D01*
X25262D01*
X25267Y39508D01*
X25280Y39494D01*
X25294Y39480D01*
X25313Y39457D01*
X25331Y39429D01*
X25382Y39364D01*
X25433Y39281D01*
X25489Y39179D01*
X25540Y39063D01*
X25586Y38929D01*
X24947Y38777D01*
Y38781D01*
X24943Y38786D01*
Y38800D01*
X24933Y38818D01*
X24920Y38860D01*
X24896Y38915D01*
X24864Y38980D01*
X24822Y39045D01*
X24767Y39110D01*
X24707Y39165D01*
X24697Y39170D01*
X24674Y39188D01*
X24637Y39212D01*
X24586Y39239D01*
X24522Y39267D01*
X24447Y39290D01*
X24364Y39309D01*
X24272Y39313D01*
X24239D01*
X24211Y39309D01*
X24184Y39304D01*
X24147Y39299D01*
X24068Y39281D01*
X23975Y39249D01*
X23878Y39202D01*
X23827Y39174D01*
X23781Y39142D01*
X23735Y39100D01*
X23693Y39054D01*
Y39050D01*
X23684Y39040D01*
X23675Y39026D01*
X23661Y39003D01*
X23642Y38975D01*
X23624Y38943D01*
X23605Y38901D01*
X23587Y38855D01*
X23564Y38800D01*
X23545Y38739D01*
X23527Y38670D01*
X23508Y38596D01*
X23494Y38513D01*
X23485Y38425D01*
X23480Y38328D01*
X23476Y38221D01*
Y38217D01*
Y38193D01*
Y38161D01*
X23480Y38124D01*
Y38073D01*
X23490Y38013D01*
X23494Y37953D01*
X23503Y37883D01*
X23531Y37740D01*
X23568Y37596D01*
X23591Y37527D01*
X23624Y37462D01*
X23656Y37402D01*
X23693Y37351D01*
X23698Y37346D01*
X23702Y37342D01*
X23716Y37328D01*
X23735Y37309D01*
X23781Y37272D01*
X23846Y37226D01*
X23925Y37175D01*
X24022Y37138D01*
X24133Y37106D01*
X24193Y37101D01*
X24258Y37097D01*
X24281D01*
X24299Y37101D01*
X24350Y37106D01*
X24410Y37115D01*
X24475Y37138D01*
X24549Y37166D01*
X24623Y37203D01*
X24697Y37259D01*
X24707Y37268D01*
X24730Y37291D01*
X24762Y37328D01*
X24799Y37384D01*
X24845Y37458D01*
X24887Y37545D01*
X24929Y37652D01*
X24966Y37777D01*
X25595Y37583D01*
Y37578D01*
X25591Y37559D01*
X25581Y37532D01*
X25567Y37495D01*
X25549Y37453D01*
X25530Y37402D01*
X25507Y37346D01*
X25479Y37286D01*
X25415Y37161D01*
X25331Y37032D01*
X25230Y36907D01*
X25174Y36851D01*
X25114Y36800D01*
X25109Y36796D01*
X25100Y36791D01*
X25081Y36777D01*
X25054Y36759D01*
X25021Y36740D01*
X24980Y36722D01*
X24933Y36699D01*
X24882Y36675D01*
X24822Y36648D01*
X24758Y36625D01*
X24688Y36606D01*
X24614Y36588D01*
X24535Y36569D01*
X24447Y36555D01*
X24360Y36550D01*
X24262Y36546D01*
X24235D01*
X24202Y36550D01*
X24156Y36555D01*
X24105Y36560D01*
X24040Y36569D01*
X23971Y36583D01*
X23892Y36601D01*
X23813Y36625D01*
X23730Y36652D01*
X23642Y36689D01*
X23554Y36731D01*
X23466Y36777D01*
X23378Y36837D01*
X23295Y36902D01*
X23216Y36981D01*
X23212Y36986D01*
X23198Y36999D01*
X23179Y37027D01*
X23152Y37060D01*
X23124Y37106D01*
X23087Y37157D01*
X23050Y37222D01*
X23013Y37296D01*
X22976Y37374D01*
X22939Y37462D01*
X22902Y37564D01*
X22874Y37670D01*
X22846Y37782D01*
X22828Y37906D01*
X22814Y38036D01*
X22809Y38175D01*
Y38180D01*
Y38184D01*
Y38212D01*
X22814Y38254D01*
Y38309D01*
X22823Y38374D01*
X22832Y38453D01*
X22842Y38536D01*
X22860Y38633D01*
X22883Y38730D01*
X22911Y38832D01*
X22943Y38934D01*
X22985Y39040D01*
X23031Y39142D01*
X23087Y39239D01*
X23147Y39332D01*
X23221Y39420D01*
X23226Y39424D01*
X23240Y39438D01*
X23263Y39461D01*
X23295Y39489D01*
X23337Y39522D01*
X23388Y39559D01*
X23443Y39600D01*
X23513Y39642D01*
X23587Y39684D01*
X23665Y39725D01*
X23758Y39762D01*
X23850Y39795D01*
X23957Y39822D01*
X24063Y39846D01*
X24184Y39859D01*
X24304Y39864D01*
X24360D01*
X24401Y39859D01*
D02*
G37*
G36*
X28714Y36601D02*
X28066D01*
Y38004D01*
X26803D01*
Y36601D01*
X26155D01*
Y39804D01*
X26803D01*
Y38545D01*
X28066D01*
Y39804D01*
X28714D01*
Y36601D01*
D02*
G37*
G36*
X30380Y39818D02*
X30422Y39813D01*
X30468Y39809D01*
X30519Y39799D01*
X30575Y39790D01*
X30695Y39758D01*
X30815Y39711D01*
X30880Y39684D01*
X30936Y39651D01*
X30996Y39610D01*
X31047Y39563D01*
X31051Y39559D01*
X31061Y39554D01*
X31070Y39535D01*
X31088Y39517D01*
X31112Y39494D01*
X31135Y39461D01*
X31158Y39429D01*
X31186Y39387D01*
X31232Y39295D01*
X31278Y39188D01*
X31297Y39128D01*
X31306Y39063D01*
X31315Y38994D01*
X31320Y38925D01*
Y38915D01*
Y38888D01*
X31315Y38846D01*
X31311Y38795D01*
X31301Y38730D01*
X31287Y38661D01*
X31269Y38587D01*
X31241Y38513D01*
X31237Y38503D01*
X31227Y38480D01*
X31209Y38439D01*
X31181Y38388D01*
X31149Y38328D01*
X31107Y38258D01*
X31056Y38184D01*
X30996Y38105D01*
X30991Y38101D01*
X30973Y38078D01*
X30945Y38045D01*
X30903Y37999D01*
X30848Y37943D01*
X30778Y37869D01*
X30695Y37791D01*
X30593Y37694D01*
X30589Y37689D01*
X30579Y37684D01*
X30566Y37670D01*
X30547Y37652D01*
X30496Y37606D01*
X30436Y37550D01*
X30376Y37490D01*
X30316Y37430D01*
X30260Y37379D01*
X30242Y37356D01*
X30223Y37337D01*
X30218Y37333D01*
X30209Y37323D01*
X30195Y37305D01*
X30177Y37282D01*
X30135Y37231D01*
X30098Y37171D01*
X31320D01*
Y36601D01*
X29168D01*
Y36606D01*
Y36615D01*
X29173Y36634D01*
X29177Y36657D01*
X29182Y36685D01*
X29186Y36717D01*
X29205Y36800D01*
X29233Y36893D01*
X29270Y36995D01*
X29316Y37106D01*
X29376Y37212D01*
Y37217D01*
X29385Y37226D01*
X29395Y37245D01*
X29413Y37263D01*
X29432Y37296D01*
X29459Y37328D01*
X29492Y37370D01*
X29529Y37416D01*
X29571Y37471D01*
X29621Y37527D01*
X29677Y37592D01*
X29742Y37661D01*
X29811Y37731D01*
X29890Y37809D01*
X29973Y37893D01*
X30066Y37981D01*
X30070Y37985D01*
X30084Y37999D01*
X30103Y38018D01*
X30131Y38045D01*
X30168Y38073D01*
X30205Y38110D01*
X30288Y38193D01*
X30371Y38281D01*
X30454Y38369D01*
X30491Y38406D01*
X30528Y38448D01*
X30556Y38480D01*
X30575Y38508D01*
X30579Y38517D01*
X30593Y38540D01*
X30616Y38577D01*
X30640Y38628D01*
X30663Y38684D01*
X30686Y38749D01*
X30700Y38814D01*
X30704Y38883D01*
Y38888D01*
Y38892D01*
Y38915D01*
X30700Y38957D01*
X30690Y39003D01*
X30677Y39054D01*
X30658Y39105D01*
X30630Y39156D01*
X30593Y39202D01*
X30589Y39207D01*
X30575Y39221D01*
X30547Y39239D01*
X30515Y39258D01*
X30468Y39276D01*
X30417Y39295D01*
X30357Y39309D01*
X30288Y39313D01*
X30255D01*
X30218Y39309D01*
X30177Y39299D01*
X30126Y39286D01*
X30075Y39262D01*
X30024Y39235D01*
X29978Y39198D01*
X29973Y39193D01*
X29959Y39174D01*
X29941Y39147D01*
X29922Y39105D01*
X29899Y39054D01*
X29881Y38985D01*
X29862Y38906D01*
X29853Y38814D01*
X29242Y38874D01*
Y38878D01*
X29247Y38897D01*
Y38920D01*
X29256Y38957D01*
X29260Y38999D01*
X29274Y39045D01*
X29288Y39096D01*
X29302Y39156D01*
X29348Y39272D01*
X29404Y39392D01*
X29441Y39452D01*
X29483Y39508D01*
X29529Y39554D01*
X29580Y39600D01*
X29584Y39605D01*
X29594Y39610D01*
X29608Y39619D01*
X29631Y39637D01*
X29658Y39651D01*
X29695Y39670D01*
X29733Y39693D01*
X29779Y39711D01*
X29830Y39734D01*
X29885Y39753D01*
X30006Y39790D01*
X30149Y39813D01*
X30223Y39818D01*
X30302Y39822D01*
X30348D01*
X30380Y39818D01*
D02*
G37*
G36*
X7942Y39859D02*
X7993Y39855D01*
X8048Y39846D01*
X8113Y39836D01*
X8183Y39822D01*
X8257Y39804D01*
X8335Y39781D01*
X8414Y39753D01*
X8497Y39716D01*
X8576Y39679D01*
X8650Y39633D01*
X8729Y39577D01*
X8798Y39517D01*
X8803D01*
X8807Y39508D01*
X8821Y39494D01*
X8835Y39480D01*
X8854Y39457D01*
X8872Y39429D01*
X8923Y39364D01*
X8974Y39281D01*
X9030Y39179D01*
X9080Y39063D01*
X9127Y38929D01*
X8488Y38777D01*
Y38781D01*
X8483Y38786D01*
Y38800D01*
X8474Y38818D01*
X8460Y38860D01*
X8437Y38915D01*
X8405Y38980D01*
X8363Y39045D01*
X8308Y39110D01*
X8247Y39165D01*
X8238Y39170D01*
X8215Y39188D01*
X8178Y39212D01*
X8127Y39239D01*
X8062Y39267D01*
X7988Y39290D01*
X7905Y39309D01*
X7812Y39313D01*
X7780D01*
X7752Y39309D01*
X7724Y39304D01*
X7687Y39299D01*
X7609Y39281D01*
X7516Y39249D01*
X7419Y39202D01*
X7368Y39174D01*
X7322Y39142D01*
X7276Y39100D01*
X7234Y39054D01*
Y39050D01*
X7225Y39040D01*
X7215Y39026D01*
X7202Y39003D01*
X7183Y38975D01*
X7165Y38943D01*
X7146Y38901D01*
X7127Y38855D01*
X7104Y38800D01*
X7086Y38739D01*
X7067Y38670D01*
X7049Y38596D01*
X7035Y38513D01*
X7026Y38425D01*
X7021Y38328D01*
X7016Y38221D01*
Y38217D01*
Y38193D01*
Y38161D01*
X7021Y38124D01*
Y38073D01*
X7030Y38013D01*
X7035Y37953D01*
X7044Y37883D01*
X7072Y37740D01*
X7109Y37596D01*
X7132Y37527D01*
X7165Y37462D01*
X7197Y37402D01*
X7234Y37351D01*
X7239Y37346D01*
X7243Y37342D01*
X7257Y37328D01*
X7276Y37309D01*
X7322Y37272D01*
X7387Y37226D01*
X7465Y37175D01*
X7562Y37138D01*
X7674Y37106D01*
X7734Y37101D01*
X7799Y37097D01*
X7822D01*
X7840Y37101D01*
X7891Y37106D01*
X7951Y37115D01*
X8016Y37138D01*
X8090Y37166D01*
X8164Y37203D01*
X8238Y37259D01*
X8247Y37268D01*
X8271Y37291D01*
X8303Y37328D01*
X8340Y37384D01*
X8386Y37458D01*
X8428Y37545D01*
X8470Y37652D01*
X8507Y37777D01*
X9136Y37583D01*
Y37578D01*
X9131Y37559D01*
X9122Y37532D01*
X9108Y37495D01*
X9090Y37453D01*
X9071Y37402D01*
X9048Y37346D01*
X9020Y37286D01*
X8955Y37161D01*
X8872Y37032D01*
X8770Y36907D01*
X8715Y36851D01*
X8655Y36800D01*
X8650Y36796D01*
X8641Y36791D01*
X8622Y36777D01*
X8595Y36759D01*
X8562Y36740D01*
X8520Y36722D01*
X8474Y36699D01*
X8423Y36675D01*
X8363Y36648D01*
X8298Y36625D01*
X8229Y36606D01*
X8155Y36588D01*
X8076Y36569D01*
X7988Y36555D01*
X7900Y36550D01*
X7803Y36546D01*
X7775D01*
X7743Y36550D01*
X7697Y36555D01*
X7646Y36560D01*
X7581Y36569D01*
X7512Y36583D01*
X7433Y36601D01*
X7354Y36625D01*
X7271Y36652D01*
X7183Y36689D01*
X7095Y36731D01*
X7007Y36777D01*
X6919Y36837D01*
X6836Y36902D01*
X6757Y36981D01*
X6753Y36986D01*
X6739Y36999D01*
X6720Y37027D01*
X6692Y37060D01*
X6665Y37106D01*
X6628Y37157D01*
X6591Y37222D01*
X6554Y37296D01*
X6517Y37374D01*
X6480Y37462D01*
X6443Y37564D01*
X6415Y37670D01*
X6387Y37782D01*
X6369Y37906D01*
X6355Y38036D01*
X6350Y38175D01*
Y38180D01*
Y38184D01*
Y38212D01*
X6355Y38254D01*
Y38309D01*
X6364Y38374D01*
X6373Y38453D01*
X6382Y38536D01*
X6401Y38633D01*
X6424Y38730D01*
X6452Y38832D01*
X6484Y38934D01*
X6526Y39040D01*
X6572Y39142D01*
X6628Y39239D01*
X6688Y39332D01*
X6762Y39420D01*
X6767Y39424D01*
X6780Y39438D01*
X6804Y39461D01*
X6836Y39489D01*
X6878Y39522D01*
X6928Y39559D01*
X6984Y39600D01*
X7053Y39642D01*
X7127Y39684D01*
X7206Y39725D01*
X7299Y39762D01*
X7391Y39795D01*
X7498Y39822D01*
X7604Y39846D01*
X7724Y39859D01*
X7845Y39864D01*
X7900D01*
X7942Y39859D01*
D02*
G37*
G36*
X12255Y36601D02*
X11607D01*
Y38004D01*
X10344D01*
Y36601D01*
X9696D01*
Y39804D01*
X10344D01*
Y38545D01*
X11607D01*
Y39804D01*
X12255D01*
Y36601D01*
D02*
G37*
G36*
X13870Y39818D02*
X13912Y39813D01*
X13954Y39809D01*
X14005Y39799D01*
X14055Y39785D01*
X14171Y39753D01*
X14231Y39730D01*
X14296Y39697D01*
X14356Y39665D01*
X14412Y39628D01*
X14472Y39582D01*
X14523Y39531D01*
X14527Y39526D01*
X14532Y39522D01*
X14546Y39508D01*
X14560Y39489D01*
X14597Y39443D01*
X14639Y39378D01*
X14680Y39299D01*
X14713Y39207D01*
X14740Y39105D01*
X14745Y39054D01*
X14750Y38999D01*
Y38994D01*
Y38980D01*
X14745Y38957D01*
X14740Y38929D01*
X14736Y38892D01*
X14726Y38851D01*
X14713Y38804D01*
X14694Y38753D01*
X14666Y38702D01*
X14639Y38647D01*
X14602Y38591D01*
X14555Y38536D01*
X14500Y38480D01*
X14440Y38425D01*
X14370Y38374D01*
X14287Y38323D01*
X14291D01*
X14301Y38318D01*
X14315D01*
X14333Y38309D01*
X14384Y38295D01*
X14444Y38267D01*
X14514Y38230D01*
X14588Y38184D01*
X14662Y38124D01*
X14726Y38055D01*
X14736Y38045D01*
X14754Y38018D01*
X14777Y37976D01*
X14810Y37916D01*
X14842Y37846D01*
X14865Y37758D01*
X14884Y37666D01*
X14893Y37559D01*
Y37555D01*
Y37541D01*
Y37518D01*
X14888Y37490D01*
X14884Y37453D01*
X14875Y37411D01*
X14865Y37360D01*
X14856Y37309D01*
X14819Y37198D01*
X14791Y37138D01*
X14763Y37073D01*
X14726Y37013D01*
X14685Y36953D01*
X14639Y36893D01*
X14583Y36837D01*
X14578Y36833D01*
X14569Y36824D01*
X14551Y36810D01*
X14527Y36791D01*
X14495Y36768D01*
X14463Y36745D01*
X14416Y36717D01*
X14370Y36689D01*
X14319Y36662D01*
X14259Y36634D01*
X14194Y36611D01*
X14129Y36588D01*
X14055Y36569D01*
X13981Y36555D01*
X13898Y36546D01*
X13815Y36541D01*
X13773D01*
X13741Y36546D01*
X13704Y36550D01*
X13662Y36555D01*
X13616Y36564D01*
X13560Y36574D01*
X13449Y36601D01*
X13329Y36648D01*
X13264Y36675D01*
X13209Y36708D01*
X13148Y36749D01*
X13093Y36791D01*
X13088Y36796D01*
X13079Y36805D01*
X13065Y36819D01*
X13047Y36837D01*
X13023Y36861D01*
X13000Y36893D01*
X12972Y36925D01*
X12945Y36967D01*
X12917Y37013D01*
X12885Y37060D01*
X12834Y37171D01*
X12792Y37300D01*
X12774Y37370D01*
X12764Y37444D01*
X13357Y37518D01*
Y37513D01*
Y37508D01*
X13361Y37481D01*
X13370Y37439D01*
X13384Y37388D01*
X13408Y37333D01*
X13431Y37272D01*
X13468Y37217D01*
X13509Y37166D01*
X13514Y37161D01*
X13532Y37147D01*
X13560Y37129D01*
X13593Y37110D01*
X13639Y37087D01*
X13690Y37069D01*
X13745Y37055D01*
X13810Y37050D01*
X13819D01*
X13843Y37055D01*
X13875Y37060D01*
X13921Y37069D01*
X13972Y37087D01*
X14023Y37110D01*
X14079Y37147D01*
X14129Y37194D01*
X14134Y37198D01*
X14153Y37222D01*
X14171Y37254D01*
X14199Y37296D01*
X14222Y37351D01*
X14245Y37421D01*
X14259Y37499D01*
X14264Y37587D01*
Y37592D01*
Y37596D01*
Y37624D01*
X14259Y37666D01*
X14250Y37721D01*
X14231Y37782D01*
X14208Y37842D01*
X14176Y37902D01*
X14134Y37957D01*
X14129Y37962D01*
X14111Y37981D01*
X14083Y38004D01*
X14051Y38027D01*
X14005Y38055D01*
X13954Y38073D01*
X13898Y38092D01*
X13833Y38096D01*
X13787D01*
X13755Y38092D01*
X13713Y38087D01*
X13662Y38078D01*
X13611Y38064D01*
X13551Y38050D01*
X13616Y38545D01*
X13657D01*
X13704Y38550D01*
X13759Y38554D01*
X13819Y38568D01*
X13884Y38587D01*
X13944Y38615D01*
X14000Y38652D01*
X14005Y38656D01*
X14023Y38675D01*
X14042Y38698D01*
X14069Y38735D01*
X14092Y38777D01*
X14116Y38827D01*
X14129Y38888D01*
X14134Y38957D01*
Y38966D01*
Y38985D01*
X14129Y39013D01*
X14120Y39050D01*
X14111Y39091D01*
X14092Y39133D01*
X14069Y39179D01*
X14037Y39216D01*
X14032Y39221D01*
X14018Y39230D01*
X14000Y39249D01*
X13967Y39267D01*
X13930Y39281D01*
X13889Y39299D01*
X13833Y39309D01*
X13778Y39313D01*
X13750D01*
X13722Y39309D01*
X13685Y39299D01*
X13644Y39286D01*
X13597Y39267D01*
X13551Y39239D01*
X13509Y39202D01*
X13505Y39198D01*
X13491Y39184D01*
X13472Y39156D01*
X13449Y39119D01*
X13426Y39077D01*
X13408Y39022D01*
X13389Y38957D01*
X13375Y38883D01*
X12811Y38975D01*
Y38980D01*
X12815Y38989D01*
Y39003D01*
X12820Y39026D01*
X12834Y39077D01*
X12852Y39147D01*
X12880Y39221D01*
X12908Y39299D01*
X12945Y39374D01*
X12986Y39443D01*
X12991Y39452D01*
X13010Y39471D01*
X13037Y39503D01*
X13074Y39545D01*
X13121Y39586D01*
X13176Y39633D01*
X13246Y39679D01*
X13320Y39721D01*
X13324D01*
X13329Y39725D01*
X13357Y39734D01*
X13403Y39753D01*
X13458Y39771D01*
X13528Y39790D01*
X13611Y39809D01*
X13699Y39818D01*
X13796Y39822D01*
X13838D01*
X13870Y39818D01*
D02*
G37*
%LPC*%
G36*
X75635Y52927D02*
X74895D01*
Y52113D01*
X75524D01*
X75617Y52118D01*
X75714Y52122D01*
X75811Y52127D01*
X75853Y52132D01*
X75890Y52136D01*
X75927Y52145D01*
X75950Y52150D01*
X75955D01*
X75969Y52159D01*
X75992Y52169D01*
X76015Y52182D01*
X76075Y52224D01*
X76103Y52252D01*
X76131Y52284D01*
X76135Y52289D01*
X76140Y52303D01*
X76154Y52321D01*
X76168Y52349D01*
X76177Y52386D01*
X76191Y52428D01*
X76195Y52474D01*
X76200Y52525D01*
Y52534D01*
Y52553D01*
X76195Y52580D01*
X76191Y52617D01*
X76177Y52659D01*
X76163Y52701D01*
X76140Y52747D01*
X76112Y52784D01*
X76108Y52789D01*
X76098Y52803D01*
X76075Y52816D01*
X76047Y52840D01*
X76015Y52863D01*
X75973Y52881D01*
X75922Y52900D01*
X75867Y52914D01*
X75862D01*
X75848Y52918D01*
X75821D01*
X75779Y52923D01*
X75677D01*
X75635Y52927D01*
D02*
G37*
G36*
X83355Y52978D02*
X83336D01*
X83313Y52974D01*
X83290Y52969D01*
X83258Y52960D01*
X83225Y52946D01*
X83188Y52927D01*
X83156Y52904D01*
X83151Y52900D01*
X83142Y52890D01*
X83128Y52872D01*
X83110Y52849D01*
X83086Y52812D01*
X83068Y52770D01*
X83045Y52715D01*
X83026Y52650D01*
Y52645D01*
X83022Y52641D01*
Y52622D01*
X83017Y52604D01*
X83012Y52576D01*
X83008Y52543D01*
X83003Y52506D01*
X82998Y52460D01*
X82989Y52405D01*
X82985Y52349D01*
X82980Y52280D01*
X82975Y52210D01*
X82971Y52127D01*
Y52044D01*
X82966Y51946D01*
Y51845D01*
Y51840D01*
Y51821D01*
Y51789D01*
Y51752D01*
Y51706D01*
X82971Y51655D01*
Y51595D01*
X82975Y51535D01*
X82980Y51405D01*
X82989Y51275D01*
X82994Y51215D01*
X83003Y51160D01*
X83012Y51109D01*
X83022Y51062D01*
X83026Y51053D01*
X83031Y51030D01*
X83045Y50993D01*
X83059Y50951D01*
X83082Y50905D01*
X83105Y50859D01*
X83133Y50817D01*
X83160Y50785D01*
X83165Y50780D01*
X83174Y50776D01*
X83193Y50762D01*
X83216Y50752D01*
X83244Y50738D01*
X83276Y50725D01*
X83313Y50720D01*
X83355Y50715D01*
X83373D01*
X83396Y50720D01*
X83420Y50725D01*
X83452Y50734D01*
X83484Y50743D01*
X83517Y50762D01*
X83549Y50785D01*
X83554Y50789D01*
X83563Y50799D01*
X83582Y50817D01*
X83600Y50845D01*
X83619Y50877D01*
X83642Y50924D01*
X83665Y50975D01*
X83683Y51039D01*
Y51044D01*
X83688Y51049D01*
Y51067D01*
X83693Y51086D01*
X83697Y51113D01*
X83702Y51146D01*
X83711Y51183D01*
X83716Y51229D01*
X83720Y51280D01*
X83730Y51340D01*
X83734Y51405D01*
X83739Y51479D01*
X83744Y51558D01*
Y51646D01*
X83748Y51743D01*
Y51845D01*
Y51849D01*
Y51868D01*
Y51900D01*
Y51937D01*
Y51983D01*
X83744Y52034D01*
Y52094D01*
X83739Y52155D01*
X83734Y52284D01*
X83725Y52409D01*
X83716Y52469D01*
X83707Y52529D01*
X83697Y52580D01*
X83688Y52622D01*
Y52627D01*
X83683Y52631D01*
X83679Y52654D01*
X83665Y52691D01*
X83651Y52738D01*
X83628Y52784D01*
X83605Y52830D01*
X83577Y52872D01*
X83549Y52904D01*
X83545Y52909D01*
X83535Y52918D01*
X83517Y52927D01*
X83494Y52941D01*
X83466Y52955D01*
X83433Y52969D01*
X83396Y52974D01*
X83355Y52978D01*
D02*
G37*
G36*
X68920D02*
X68902D01*
X68879Y52974D01*
X68856Y52969D01*
X68823Y52960D01*
X68791Y52946D01*
X68754Y52927D01*
X68721Y52904D01*
X68717Y52900D01*
X68708Y52890D01*
X68694Y52872D01*
X68675Y52849D01*
X68652Y52812D01*
X68634Y52770D01*
X68610Y52715D01*
X68592Y52650D01*
Y52645D01*
X68587Y52641D01*
Y52622D01*
X68583Y52604D01*
X68578Y52576D01*
X68573Y52543D01*
X68569Y52506D01*
X68564Y52460D01*
X68555Y52405D01*
X68550Y52349D01*
X68546Y52280D01*
X68541Y52210D01*
X68536Y52127D01*
Y52044D01*
X68532Y51946D01*
Y51845D01*
Y51840D01*
Y51821D01*
Y51789D01*
Y51752D01*
Y51706D01*
X68536Y51655D01*
Y51595D01*
X68541Y51535D01*
X68546Y51405D01*
X68555Y51275D01*
X68559Y51215D01*
X68569Y51160D01*
X68578Y51109D01*
X68587Y51062D01*
X68592Y51053D01*
X68596Y51030D01*
X68610Y50993D01*
X68624Y50951D01*
X68647Y50905D01*
X68671Y50859D01*
X68698Y50817D01*
X68726Y50785D01*
X68731Y50780D01*
X68740Y50776D01*
X68758Y50762D01*
X68782Y50752D01*
X68809Y50738D01*
X68842Y50725D01*
X68879Y50720D01*
X68920Y50715D01*
X68939D01*
X68962Y50720D01*
X68985Y50725D01*
X69018Y50734D01*
X69050Y50743D01*
X69082Y50762D01*
X69115Y50785D01*
X69119Y50789D01*
X69129Y50799D01*
X69147Y50817D01*
X69166Y50845D01*
X69184Y50877D01*
X69207Y50924D01*
X69231Y50975D01*
X69249Y51039D01*
Y51044D01*
X69254Y51049D01*
Y51067D01*
X69258Y51086D01*
X69263Y51113D01*
X69268Y51146D01*
X69277Y51183D01*
X69281Y51229D01*
X69286Y51280D01*
X69295Y51340D01*
X69300Y51405D01*
X69305Y51479D01*
X69309Y51558D01*
Y51646D01*
X69314Y51743D01*
Y51845D01*
Y51849D01*
Y51868D01*
Y51900D01*
Y51937D01*
Y51983D01*
X69309Y52034D01*
Y52094D01*
X69305Y52155D01*
X69300Y52284D01*
X69291Y52409D01*
X69281Y52469D01*
X69272Y52529D01*
X69263Y52580D01*
X69254Y52622D01*
Y52627D01*
X69249Y52631D01*
X69244Y52654D01*
X69231Y52691D01*
X69217Y52738D01*
X69193Y52784D01*
X69170Y52830D01*
X69143Y52872D01*
X69115Y52904D01*
X69110Y52909D01*
X69101Y52918D01*
X69082Y52927D01*
X69059Y52941D01*
X69032Y52955D01*
X68999Y52969D01*
X68962Y52974D01*
X68920Y52978D01*
D02*
G37*
G36*
X177804Y63503D02*
X177777D01*
X177739Y63494D01*
X177698Y63485D01*
X177652Y63466D01*
X177601Y63443D01*
X177550Y63406D01*
X177503Y63360D01*
X177499Y63355D01*
X177485Y63332D01*
X177466Y63300D01*
X177443Y63258D01*
X177420Y63198D01*
X177402Y63129D01*
X177388Y63045D01*
X177383Y62948D01*
Y62943D01*
Y62934D01*
Y62920D01*
Y62897D01*
X177392Y62846D01*
X177402Y62777D01*
X177416Y62703D01*
X177439Y62624D01*
X177471Y62550D01*
X177517Y62485D01*
X177522Y62481D01*
X177540Y62462D01*
X177573Y62434D01*
X177610Y62407D01*
X177656Y62374D01*
X177707Y62351D01*
X177767Y62333D01*
X177832Y62323D01*
X177860D01*
X177892Y62333D01*
X177934Y62342D01*
X177975Y62356D01*
X178026Y62379D01*
X178073Y62411D01*
X178119Y62453D01*
X178124Y62458D01*
X178137Y62481D01*
X178156Y62513D01*
X178179Y62559D01*
X178198Y62619D01*
X178216Y62694D01*
X178230Y62786D01*
X178235Y62893D01*
Y62897D01*
Y62906D01*
Y62925D01*
Y62943D01*
X178230Y62999D01*
X178221Y63068D01*
X178202Y63142D01*
X178184Y63221D01*
X178151Y63295D01*
X178110Y63355D01*
X178105Y63360D01*
X178087Y63378D01*
X178063Y63402D01*
X178026Y63429D01*
X177980Y63457D01*
X177929Y63480D01*
X177869Y63499D01*
X177804Y63503D01*
D02*
G37*
G36*
X143516Y64609D02*
X143489D01*
X143456Y64605D01*
X143415Y64596D01*
X143368Y64582D01*
X143322Y64563D01*
X143276Y64540D01*
X143234Y64503D01*
X143230Y64498D01*
X143220Y64485D01*
X143202Y64461D01*
X143183Y64429D01*
X143165Y64387D01*
X143146Y64341D01*
X143137Y64286D01*
X143132Y64221D01*
Y64211D01*
Y64188D01*
X143137Y64156D01*
X143146Y64114D01*
X143155Y64068D01*
X143174Y64022D01*
X143202Y63975D01*
X143234Y63934D01*
X143239Y63929D01*
X143253Y63920D01*
X143276Y63901D01*
X143308Y63883D01*
X143350Y63864D01*
X143396Y63846D01*
X143452Y63837D01*
X143512Y63832D01*
X143540D01*
X143572Y63837D01*
X143614Y63846D01*
X143660Y63855D01*
X143706Y63874D01*
X143752Y63901D01*
X143794Y63934D01*
X143799Y63938D01*
X143813Y63952D01*
X143826Y63975D01*
X143850Y64012D01*
X143868Y64054D01*
X143882Y64100D01*
X143896Y64161D01*
X143901Y64225D01*
Y64235D01*
Y64253D01*
X143896Y64286D01*
X143887Y64323D01*
X143873Y64369D01*
X143854Y64415D01*
X143831Y64461D01*
X143794Y64503D01*
X143789Y64508D01*
X143776Y64522D01*
X143752Y64535D01*
X143720Y64559D01*
X143678Y64577D01*
X143632Y64591D01*
X143577Y64605D01*
X143516Y64609D01*
D02*
G37*
G36*
X143521Y63346D02*
X143484D01*
X143442Y63337D01*
X143396Y63328D01*
X143341Y63309D01*
X143285Y63281D01*
X143230Y63240D01*
X143183Y63189D01*
X143179Y63179D01*
X143165Y63161D01*
X143151Y63129D01*
X143132Y63087D01*
X143109Y63036D01*
X143095Y62980D01*
X143081Y62916D01*
X143077Y62851D01*
Y62846D01*
Y62842D01*
Y62828D01*
Y62809D01*
X143086Y62763D01*
X143095Y62703D01*
X143109Y62638D01*
X143132Y62573D01*
X143165Y62508D01*
X143206Y62448D01*
X143211Y62444D01*
X143230Y62425D01*
X143257Y62407D01*
X143294Y62379D01*
X143341Y62356D01*
X143396Y62333D01*
X143461Y62314D01*
X143530Y62309D01*
X143563D01*
X143595Y62319D01*
X143641Y62328D01*
X143692Y62342D01*
X143743Y62365D01*
X143794Y62397D01*
X143845Y62444D01*
X143850Y62448D01*
X143864Y62471D01*
X143887Y62499D01*
X143910Y62545D01*
X143933Y62601D01*
X143956Y62670D01*
X143970Y62749D01*
X143975Y62842D01*
Y62846D01*
Y62851D01*
Y62879D01*
X143970Y62920D01*
X143961Y62971D01*
X143942Y63031D01*
X143919Y63092D01*
X143887Y63152D01*
X143845Y63207D01*
X143840Y63212D01*
X143822Y63230D01*
X143794Y63254D01*
X143757Y63277D01*
X143711Y63304D01*
X143655Y63323D01*
X143590Y63341D01*
X143521Y63346D01*
D02*
G37*
G36*
X13898Y63503D02*
X13870D01*
X13833Y63494D01*
X13792Y63485D01*
X13745Y63466D01*
X13694Y63443D01*
X13644Y63406D01*
X13597Y63360D01*
X13593Y63355D01*
X13579Y63332D01*
X13560Y63300D01*
X13537Y63258D01*
X13514Y63198D01*
X13495Y63129D01*
X13482Y63045D01*
X13477Y62948D01*
Y62943D01*
Y62934D01*
Y62920D01*
Y62897D01*
X13486Y62846D01*
X13495Y62777D01*
X13509Y62703D01*
X13532Y62624D01*
X13565Y62550D01*
X13611Y62485D01*
X13616Y62481D01*
X13634Y62462D01*
X13667Y62434D01*
X13704Y62407D01*
X13750Y62374D01*
X13801Y62351D01*
X13861Y62333D01*
X13926Y62323D01*
X13954D01*
X13986Y62333D01*
X14028Y62342D01*
X14069Y62356D01*
X14120Y62379D01*
X14166Y62411D01*
X14213Y62453D01*
X14217Y62458D01*
X14231Y62481D01*
X14250Y62513D01*
X14273Y62559D01*
X14291Y62619D01*
X14310Y62694D01*
X14324Y62786D01*
X14328Y62893D01*
Y62897D01*
Y62906D01*
Y62925D01*
Y62943D01*
X14324Y62999D01*
X14315Y63068D01*
X14296Y63142D01*
X14278Y63221D01*
X14245Y63295D01*
X14204Y63355D01*
X14199Y63360D01*
X14180Y63378D01*
X14157Y63402D01*
X14120Y63429D01*
X14074Y63457D01*
X14023Y63480D01*
X13963Y63499D01*
X13898Y63503D01*
D02*
G37*
G36*
X46406Y64156D02*
X45661Y63055D01*
X46406D01*
Y64156D01*
D02*
G37*
G36*
X120490Y78734D02*
X120055Y77544D01*
X120939D01*
X120490Y78734D01*
D02*
G37*
G36*
X117385Y78937D02*
X116904D01*
Y78026D01*
X117348D01*
X117380Y78030D01*
X117464D01*
X117547Y78035D01*
X117630Y78044D01*
X117704Y78058D01*
X117737Y78063D01*
X117764Y78072D01*
X117769Y78076D01*
X117788Y78081D01*
X117811Y78095D01*
X117839Y78109D01*
X117871Y78132D01*
X117903Y78160D01*
X117940Y78192D01*
X117968Y78229D01*
X117973Y78234D01*
X117982Y78248D01*
X117991Y78271D01*
X118005Y78303D01*
X118019Y78340D01*
X118033Y78382D01*
X118038Y78428D01*
X118042Y78479D01*
Y78488D01*
Y78507D01*
X118038Y78539D01*
X118028Y78581D01*
X118014Y78627D01*
X117996Y78678D01*
X117973Y78724D01*
X117936Y78771D01*
X117931Y78775D01*
X117917Y78789D01*
X117894Y78808D01*
X117866Y78831D01*
X117829Y78859D01*
X117783Y78882D01*
X117732Y78900D01*
X117677Y78914D01*
X117672D01*
X117653Y78919D01*
X117621Y78923D01*
X117575Y78928D01*
X117515D01*
X117473Y78933D01*
X117431D01*
X117385Y78937D01*
D02*
G37*
G36*
X126382Y78988D02*
X126345D01*
X126317Y78984D01*
X126280Y78979D01*
X126243Y78974D01*
X126150Y78956D01*
X126048Y78919D01*
X125993Y78900D01*
X125937Y78872D01*
X125886Y78840D01*
X125831Y78803D01*
X125780Y78761D01*
X125734Y78710D01*
X125729Y78706D01*
X125724Y78697D01*
X125711Y78683D01*
X125697Y78660D01*
X125678Y78627D01*
X125660Y78595D01*
X125637Y78553D01*
X125613Y78502D01*
X125590Y78447D01*
X125567Y78387D01*
X125549Y78317D01*
X125530Y78243D01*
X125516Y78160D01*
X125502Y78072D01*
X125498Y77979D01*
X125493Y77877D01*
Y77873D01*
Y77854D01*
Y77827D01*
X125498Y77790D01*
X125502Y77743D01*
X125507Y77688D01*
X125516Y77632D01*
X125525Y77567D01*
X125553Y77433D01*
X125599Y77299D01*
X125627Y77230D01*
X125660Y77165D01*
X125701Y77105D01*
X125743Y77049D01*
X125748Y77044D01*
X125757Y77035D01*
X125771Y77021D01*
X125789Y77007D01*
X125812Y76984D01*
X125845Y76961D01*
X125877Y76933D01*
X125919Y76910D01*
X126007Y76855D01*
X126118Y76813D01*
X126178Y76795D01*
X126243Y76781D01*
X126312Y76771D01*
X126382Y76767D01*
X126419D01*
X126446Y76771D01*
X126479Y76776D01*
X126516Y76781D01*
X126604Y76804D01*
X126706Y76836D01*
X126756Y76859D01*
X126812Y76882D01*
X126863Y76915D01*
X126918Y76952D01*
X126969Y76994D01*
X127016Y77044D01*
X127020Y77049D01*
X127025Y77058D01*
X127039Y77072D01*
X127053Y77095D01*
X127076Y77128D01*
X127094Y77165D01*
X127117Y77206D01*
X127141Y77257D01*
X127164Y77313D01*
X127187Y77373D01*
X127210Y77442D01*
X127229Y77521D01*
X127242Y77600D01*
X127256Y77688D01*
X127261Y77785D01*
X127266Y77887D01*
Y77891D01*
Y77910D01*
Y77938D01*
X127261Y77979D01*
X127256Y78026D01*
X127252Y78076D01*
X127247Y78137D01*
X127233Y78197D01*
X127205Y78331D01*
X127164Y78470D01*
X127136Y78539D01*
X127104Y78599D01*
X127062Y78660D01*
X127020Y78715D01*
X127016Y78720D01*
X127011Y78729D01*
X126997Y78738D01*
X126979Y78757D01*
X126951Y78780D01*
X126923Y78803D01*
X126891Y78826D01*
X126849Y78854D01*
X126807Y78877D01*
X126756Y78900D01*
X126650Y78946D01*
X126590Y78965D01*
X126525Y78974D01*
X126456Y78984D01*
X126382Y78988D01*
D02*
G37*
G36*
X77854Y78734D02*
X77419Y77544D01*
X78303D01*
X77854Y78734D01*
D02*
G37*
G36*
X60546D02*
X60111Y77544D01*
X60995D01*
X60546Y78734D01*
D02*
G37*
G36*
X57441Y78937D02*
X56960D01*
Y78026D01*
X57404D01*
X57436Y78030D01*
X57520D01*
X57603Y78035D01*
X57686Y78044D01*
X57760Y78058D01*
X57793Y78063D01*
X57820Y78072D01*
X57825Y78076D01*
X57844Y78081D01*
X57867Y78095D01*
X57895Y78109D01*
X57927Y78132D01*
X57959Y78160D01*
X57996Y78192D01*
X58024Y78229D01*
X58029Y78234D01*
X58038Y78248D01*
X58047Y78271D01*
X58061Y78303D01*
X58075Y78340D01*
X58089Y78382D01*
X58094Y78428D01*
X58098Y78479D01*
Y78488D01*
Y78507D01*
X58094Y78539D01*
X58084Y78581D01*
X58070Y78627D01*
X58052Y78678D01*
X58029Y78724D01*
X57992Y78771D01*
X57987Y78775D01*
X57973Y78789D01*
X57950Y78808D01*
X57922Y78831D01*
X57885Y78859D01*
X57839Y78882D01*
X57788Y78900D01*
X57733Y78914D01*
X57728D01*
X57709Y78919D01*
X57677Y78923D01*
X57631Y78928D01*
X57571D01*
X57529Y78933D01*
X57487D01*
X57441Y78937D01*
D02*
G37*
G36*
X117378Y9833D02*
X117350D01*
X117313Y9824D01*
X117271Y9815D01*
X117225Y9796D01*
X117174Y9773D01*
X117123Y9736D01*
X117077Y9690D01*
X117072Y9685D01*
X117058Y9662D01*
X117040Y9630D01*
X117017Y9588D01*
X116994Y9528D01*
X116975Y9458D01*
X116961Y9375D01*
X116957Y9278D01*
Y9273D01*
Y9264D01*
Y9250D01*
Y9227D01*
X116966Y9176D01*
X116975Y9107D01*
X116989Y9033D01*
X117012Y8954D01*
X117044Y8880D01*
X117091Y8815D01*
X117095Y8810D01*
X117114Y8792D01*
X117146Y8764D01*
X117183Y8736D01*
X117230Y8704D01*
X117280Y8681D01*
X117341Y8662D01*
X117405Y8653D01*
X117433D01*
X117466Y8662D01*
X117507Y8672D01*
X117549Y8686D01*
X117600Y8709D01*
X117646Y8741D01*
X117692Y8783D01*
X117697Y8787D01*
X117711Y8810D01*
X117729Y8843D01*
X117753Y8889D01*
X117771Y8949D01*
X117790Y9023D01*
X117803Y9116D01*
X117808Y9222D01*
Y9227D01*
Y9236D01*
Y9255D01*
Y9273D01*
X117803Y9329D01*
X117794Y9398D01*
X117776Y9472D01*
X117757Y9551D01*
X117725Y9625D01*
X117683Y9685D01*
X117678Y9690D01*
X117660Y9708D01*
X117637Y9731D01*
X117600Y9759D01*
X117554Y9787D01*
X117503Y9810D01*
X117442Y9829D01*
X117378Y9833D01*
D02*
G37*
G36*
X143688Y40026D02*
X142943Y38925D01*
X143688D01*
Y40026D01*
D02*
G37*
G36*
X85325Y10939D02*
X85297D01*
X85265Y10935D01*
X85223Y10925D01*
X85177Y10912D01*
X85131Y10893D01*
X85084Y10870D01*
X85043Y10833D01*
X85038Y10828D01*
X85029Y10814D01*
X85010Y10791D01*
X84992Y10759D01*
X84973Y10717D01*
X84955Y10671D01*
X84946Y10615D01*
X84941Y10551D01*
Y10541D01*
Y10518D01*
X84946Y10486D01*
X84955Y10444D01*
X84964Y10398D01*
X84983Y10352D01*
X85010Y10305D01*
X85043Y10264D01*
X85047Y10259D01*
X85061Y10250D01*
X85084Y10231D01*
X85117Y10213D01*
X85158Y10194D01*
X85205Y10176D01*
X85260Y10166D01*
X85320Y10162D01*
X85348D01*
X85381Y10166D01*
X85422Y10176D01*
X85468Y10185D01*
X85515Y10203D01*
X85561Y10231D01*
X85603Y10264D01*
X85607Y10268D01*
X85621Y10282D01*
X85635Y10305D01*
X85658Y10342D01*
X85677Y10384D01*
X85691Y10430D01*
X85705Y10490D01*
X85709Y10555D01*
Y10564D01*
Y10583D01*
X85705Y10615D01*
X85695Y10652D01*
X85681Y10699D01*
X85663Y10745D01*
X85640Y10791D01*
X85603Y10833D01*
X85598Y10837D01*
X85584Y10851D01*
X85561Y10865D01*
X85529Y10888D01*
X85487Y10907D01*
X85441Y10921D01*
X85385Y10935D01*
X85325Y10939D01*
D02*
G37*
G36*
X85330Y9676D02*
X85293D01*
X85251Y9667D01*
X85205Y9657D01*
X85149Y9639D01*
X85094Y9611D01*
X85038Y9569D01*
X84992Y9519D01*
X84987Y9509D01*
X84973Y9491D01*
X84959Y9458D01*
X84941Y9417D01*
X84918Y9366D01*
X84904Y9310D01*
X84890Y9245D01*
X84885Y9181D01*
Y9176D01*
Y9171D01*
Y9158D01*
Y9139D01*
X84895Y9093D01*
X84904Y9033D01*
X84918Y8968D01*
X84941Y8903D01*
X84973Y8838D01*
X85015Y8778D01*
X85020Y8773D01*
X85038Y8755D01*
X85066Y8736D01*
X85103Y8709D01*
X85149Y8686D01*
X85205Y8662D01*
X85269Y8644D01*
X85339Y8639D01*
X85371D01*
X85404Y8648D01*
X85450Y8658D01*
X85501Y8672D01*
X85552Y8695D01*
X85603Y8727D01*
X85654Y8773D01*
X85658Y8778D01*
X85672Y8801D01*
X85695Y8829D01*
X85718Y8875D01*
X85742Y8931D01*
X85765Y9000D01*
X85779Y9079D01*
X85783Y9171D01*
Y9176D01*
Y9181D01*
Y9208D01*
X85779Y9250D01*
X85769Y9301D01*
X85751Y9361D01*
X85728Y9421D01*
X85695Y9481D01*
X85654Y9537D01*
X85649Y9542D01*
X85630Y9560D01*
X85603Y9583D01*
X85566Y9606D01*
X85519Y9634D01*
X85464Y9653D01*
X85399Y9671D01*
X85330Y9676D01*
D02*
G37*
G36*
X149428Y10486D02*
X148683Y9384D01*
X149428D01*
Y10486D01*
D02*
G37*
%LPD*%
D10*
X193167Y56134D02*
G03*
X193167Y56134I-635J0D01*
G01*
X195072D02*
G03*
X195072Y56134I-2540J0D01*
G01*
X176064D02*
G03*
X176064Y56134I-635J0D01*
G01*
X177969D02*
G03*
X177969Y56134I-2540J0D01*
G01*
X158962D02*
G03*
X158962Y56134I-635J0D01*
G01*
X160867D02*
G03*
X160867Y56134I-2540J0D01*
G01*
X141859D02*
G03*
X141859Y56134I-635J0D01*
G01*
X143764D02*
G03*
X143764Y56134I-2540J0D01*
G01*
X12167D02*
G03*
X12167Y56134I-635J0D01*
G01*
X14072D02*
G03*
X14072Y56134I-2540J0D01*
G01*
X28372D02*
G03*
X28372Y56134I-635J0D01*
G01*
X30277D02*
G03*
X30277Y56134I-2540J0D01*
G01*
X44577D02*
G03*
X44577Y56134I-635J0D01*
G01*
X46482D02*
G03*
X46482Y56134I-2540J0D01*
G01*
X193167Y32004D02*
G03*
X193167Y32004I-635J0D01*
G01*
X195072D02*
G03*
X195072Y32004I-2540J0D01*
G01*
X176064D02*
G03*
X176064Y32004I-635J0D01*
G01*
X177969D02*
G03*
X177969Y32004I-2540J0D01*
G01*
X158962D02*
G03*
X158962Y32004I-635J0D01*
G01*
X160867D02*
G03*
X160867Y32004I-2540J0D01*
G01*
X141859D02*
G03*
X141859Y32004I-635J0D01*
G01*
X143764D02*
G03*
X143764Y32004I-2540J0D01*
G01*
X44577Y30861D02*
G03*
X44577Y30861I-635J0D01*
G01*
X46482D02*
G03*
X46482Y30861I-2540J0D01*
G01*
X28626D02*
G03*
X28626Y30861I-635J0D01*
G01*
X30531D02*
G03*
X30531Y30861I-2540J0D01*
G01*
X12167D02*
G03*
X12167Y30861I-635J0D01*
G01*
X14072D02*
G03*
X14072Y30861I-2540J0D01*
G01*
X188087Y61214D02*
X196977D01*
X187452Y60579D02*
X188087Y61214D01*
X196977Y51054D02*
X197612Y51689D01*
Y60579D01*
X187452Y51689D02*
Y59944D01*
Y51689D02*
X188087Y51054D01*
X196977D01*
Y61214D02*
X197612Y60579D01*
X187452Y59944D02*
X187452Y60579D01*
X170984Y61214D02*
X179874D01*
X170349Y60579D02*
X170984Y61214D01*
X179874Y51054D02*
X180509Y51689D01*
Y60579D01*
X170349Y51689D02*
Y59944D01*
Y51689D02*
X170984Y51054D01*
X179874D01*
Y61214D02*
X180509Y60579D01*
X170349Y59944D02*
X170349Y60579D01*
X153882Y61214D02*
X162772D01*
X153247Y60579D02*
X153882Y61214D01*
X162772Y51054D02*
X163407Y51689D01*
Y60579D01*
X153247Y51689D02*
Y59944D01*
Y51689D02*
X153882Y51054D01*
X162772D01*
Y61214D02*
X163407Y60579D01*
X153247Y59944D02*
X153247Y60579D01*
X136779Y61214D02*
X145669D01*
X136144Y60579D02*
X136779Y61214D01*
X145669Y51054D02*
X146304Y51689D01*
Y60579D01*
X136144Y51689D02*
Y59944D01*
Y51689D02*
X136779Y51054D01*
X145669D01*
Y61214D02*
X146304Y60579D01*
X136144Y59944D02*
X136144Y60579D01*
X7087Y51054D02*
X15977D01*
X16612Y51689D01*
X6452Y60579D02*
X7087Y61214D01*
X6452Y51689D02*
Y60579D01*
X16612Y52324D02*
Y60579D01*
X15977Y61214D02*
X16612Y60579D01*
X7087Y61214D02*
X15977D01*
X6452Y51689D02*
X7087Y51054D01*
X16612Y51689D02*
X16612Y52324D01*
X23292Y61214D02*
X32182D01*
X22657Y60579D02*
X23292Y61214D01*
X32182Y51054D02*
X32817Y51689D01*
Y60579D01*
X22657Y51689D02*
Y59944D01*
Y51689D02*
X23292Y51054D01*
X32182D01*
Y61214D02*
X32817Y60579D01*
X22657Y59944D02*
X22657Y60579D01*
X39497Y61214D02*
X48387D01*
X38862Y60579D02*
X39497Y61214D01*
X48387Y51054D02*
X49022Y51689D01*
Y60579D01*
X38862Y51689D02*
Y59944D01*
Y51689D02*
X39497Y51054D01*
X48387D01*
Y61214D02*
X49022Y60579D01*
X38862Y59944D02*
X38862Y60579D01*
X188087Y37084D02*
X196977D01*
X187452Y36449D02*
X188087Y37084D01*
X196977Y26924D02*
X197612Y27559D01*
Y36449D01*
X187452Y27559D02*
Y35814D01*
Y27559D02*
X188087Y26924D01*
X196977D01*
Y37084D02*
X197612Y36449D01*
X187452Y35814D02*
X187452Y36449D01*
X170984Y37084D02*
X179874D01*
X170349Y36449D02*
X170984Y37084D01*
X179874Y26924D02*
X180509Y27559D01*
Y36449D01*
X170349Y27559D02*
Y35814D01*
Y27559D02*
X170984Y26924D01*
X179874D01*
Y37084D02*
X180509Y36449D01*
X170349Y35814D02*
X170349Y36449D01*
X153882Y37084D02*
X162772D01*
X153247Y36449D02*
X153882Y37084D01*
X162772Y26924D02*
X163407Y27559D01*
Y36449D01*
X153247Y27559D02*
Y35814D01*
Y27559D02*
X153882Y26924D01*
X162772D01*
Y37084D02*
X163407Y36449D01*
X153247Y35814D02*
X153247Y36449D01*
X136779Y37084D02*
X145669D01*
X136144Y36449D02*
X136779Y37084D01*
X145669Y26924D02*
X146304Y27559D01*
Y36449D01*
X136144Y27559D02*
Y35814D01*
Y27559D02*
X136779Y26924D01*
X145669D01*
Y37084D02*
X146304Y36449D01*
X136144Y35814D02*
X136144Y36449D01*
X39497Y25781D02*
X48387D01*
X49022Y26416D01*
X38862Y35306D02*
X39497Y35941D01*
X38862Y26416D02*
Y35306D01*
X49022Y27051D02*
Y35306D01*
X48387Y35941D02*
X49022Y35306D01*
X39497Y35941D02*
X48387D01*
X38862Y26416D02*
X39497Y25781D01*
X49022Y26416D02*
X49022Y27051D01*
X23546Y25781D02*
X32436D01*
X33071Y26416D01*
X22911Y35306D02*
X23546Y35941D01*
X22911Y26416D02*
Y35306D01*
X33071Y27051D02*
Y35306D01*
X32436Y35941D02*
X33071Y35306D01*
X23546Y35941D02*
X32436D01*
X22911Y26416D02*
X23546Y25781D01*
X33071Y26416D02*
X33071Y27051D01*
X7087Y35941D02*
X15977D01*
X6452Y35306D02*
X7087Y35941D01*
X15977Y25781D02*
X16612Y26416D01*
Y35306D01*
X6452Y26416D02*
Y34671D01*
Y26416D02*
X7087Y25781D01*
X15977D01*
Y35941D02*
X16612Y35306D01*
X6452Y34671D02*
X6452Y35306D01*
D11*
X117494Y71852D02*
G03*
X116674Y68990I4579J-2861D01*
G01*
X126854Y66070D02*
G03*
X127674Y68932I-4579J2861D01*
G01*
X125065Y73641D02*
G03*
X122203Y74461I-2861J-4579D01*
G01*
X119283Y64281D02*
G03*
X122145Y63461I2861J4579D01*
G01*
X116674Y68960D02*
G03*
X117510Y66046I5500J0D01*
G01*
X127674Y68962D02*
G03*
X126838Y71876I-5500J0D01*
G01*
X122173Y74461D02*
G03*
X119259Y73625I0J-5500D01*
G01*
X122175Y63461D02*
G03*
X125089Y64297I0J5500D01*
G01*
X77532Y71852D02*
G03*
X76711Y68990I4579J-2861D01*
G01*
X86891Y66070D02*
G03*
X87711Y68932I-4579J2861D01*
G01*
X85102Y73641D02*
G03*
X82241Y74461I-2861J-4579D01*
G01*
X79321Y64281D02*
G03*
X82182Y63461I2861J4579D01*
G01*
X76711Y68960D02*
G03*
X77547Y66046I5500J0D01*
G01*
X87711Y68962D02*
G03*
X86876Y71876I-5500J0D01*
G01*
X82211Y74461D02*
G03*
X79296Y73625I0J-5500D01*
G01*
X82212Y63461D02*
G03*
X85127Y64297I0J5500D01*
G01*
X97513Y71852D02*
G03*
X96693Y68990I4579J-2861D01*
G01*
X106872Y66070D02*
G03*
X107693Y68932I-4579J2861D01*
G01*
X105083Y73641D02*
G03*
X102222Y74461I-2861J-4579D01*
G01*
X99302Y64281D02*
G03*
X102163Y63461I2861J4579D01*
G01*
X96693Y68960D02*
G03*
X97528Y66046I5500J0D01*
G01*
X107693Y68962D02*
G03*
X106857Y71876I-5500J0D01*
G01*
X102192Y74461D02*
G03*
X99277Y73625I0J-5500D01*
G01*
X102193Y63461D02*
G03*
X105108Y64297I0J5500D01*
G01*
X57550Y71852D02*
G03*
X56730Y68990I4579J-2861D01*
G01*
X66910Y66070D02*
G03*
X67730Y68932I-4579J2861D01*
G01*
X65121Y73641D02*
G03*
X62259Y74461I-2861J-4579D01*
G01*
X59339Y64281D02*
G03*
X62201Y63461I2861J4579D01*
G01*
X56730Y68960D02*
G03*
X57566Y66046I5500J0D01*
G01*
X67730Y68962D02*
G03*
X66894Y71876I-5500J0D01*
G01*
X62229Y74461D02*
G03*
X59315Y73625I0J-5500D01*
G01*
X62231Y63461D02*
G03*
X65145Y64297I0J5500D01*
G01*
D12*
X77445Y25908D02*
Y33706D01*
X68174Y25908D02*
Y33706D01*
Y25908D02*
X77445D01*
X68174Y33706D02*
X77445D01*
X116688Y47701D02*
Y55626D01*
X107823Y47701D02*
Y55626D01*
Y47701D02*
X116688D01*
X107823Y55626D02*
X116688D01*
X68174Y38583D02*
Y42824D01*
X56210Y38583D02*
Y42824D01*
Y38583D02*
X68174D01*
X56210Y42824D02*
X68174D01*
X116688Y33706D02*
Y47701D01*
X68174Y33706D02*
Y47701D01*
Y33706D02*
X116688D01*
X68174Y47701D02*
X116688D01*
Y38583D02*
Y42824D01*
X128651Y38583D02*
Y42824D01*
X116688D02*
X128651D01*
X116688Y38583D02*
X128651D01*
X7874Y4191D02*
Y10541D01*
X61976Y4191D02*
Y10541D01*
X7874D02*
X61976D01*
X7874Y4191D02*
X61976D01*
X127Y1016D02*
Y13970D01*
X69977Y1016D02*
Y13970D01*
X127D02*
X69977D01*
X127Y1016D02*
X69977D01*
X194958Y51D02*
Y1613D01*
X195466Y1105D01*
X194450D02*
X194958Y1613D01*
X189865Y0D02*
X200025D01*
X189865D02*
Y7506D01*
X200025Y0D02*
Y7506D01*
X189865D02*
X200025D01*
X131022Y51D02*
Y1613D01*
X131530Y1105D01*
X130514D02*
X131022Y1613D01*
X125930Y0D02*
X136090D01*
X125930D02*
Y7506D01*
X136090Y0D02*
Y7506D01*
X125930D02*
X136090D01*
X115038Y51D02*
Y1613D01*
X115546Y1105D01*
X114530D02*
X115038Y1613D01*
X109946Y0D02*
X120106D01*
X109946D02*
Y7506D01*
X120106Y0D02*
Y7506D01*
X109946D02*
X120106D01*
X178974Y51D02*
Y1613D01*
X179482Y1105D01*
X178466D02*
X178974Y1613D01*
X173881Y0D02*
X184041D01*
X173881D02*
Y7506D01*
X184041Y0D02*
Y7506D01*
X173881D02*
X184041D01*
X99055Y51D02*
Y1613D01*
X99563Y1105D01*
X98547D02*
X99055Y1613D01*
X93962Y0D02*
X104122D01*
X93962D02*
Y7506D01*
X104122Y0D02*
Y7506D01*
X93962D02*
X104122D01*
X162990Y51D02*
Y1613D01*
X163498Y1105D01*
X162482D02*
X162990Y1613D01*
X157897Y0D02*
X168057D01*
X157897D02*
Y7506D01*
X168057Y0D02*
Y7506D01*
X157897D02*
X168057D01*
X83071Y51D02*
Y1613D01*
X83579Y1105D01*
X82563D02*
X83071Y1613D01*
X77978Y0D02*
X88138D01*
X77978D02*
Y7506D01*
X88138Y0D02*
Y7506D01*
X77978D02*
X88138D01*
X147006Y51D02*
Y1613D01*
X147514Y1105D01*
X146498D02*
X147006Y1613D01*
X141913Y0D02*
X152073D01*
X141913D02*
Y7506D01*
X152073Y0D02*
Y7506D01*
X141913D02*
X152073D01*
D13*
X189136Y54180D02*
X192546Y52212D01*
X189136Y54180D02*
Y58117D01*
X192546Y60086D01*
X195955Y58117D01*
X195955Y54180D02*
X195955Y58117D01*
X192546Y52212D02*
X195955Y54180D01*
X172034Y54180D02*
X175443Y52212D01*
X172034Y54180D02*
Y58117D01*
X175443Y60086D01*
X178853Y58117D01*
X178853Y54180D02*
X178853Y58117D01*
X175443Y52212D02*
X178853Y54180D01*
X154931Y54180D02*
X158341Y52212D01*
X154931Y54180D02*
Y58117D01*
X158341Y60086D01*
X161750Y58117D01*
X161750Y54180D02*
X161750Y58117D01*
X158341Y52212D02*
X161750Y54180D01*
X137828Y54180D02*
X141238Y52212D01*
X137828Y54180D02*
Y58117D01*
X141238Y60086D01*
X144647Y58117D01*
X144647Y54180D02*
X144647Y58117D01*
X141238Y52212D02*
X144647Y54180D01*
X11518Y60056D02*
X14927Y58088D01*
Y54151D02*
Y58088D01*
X11518Y52182D02*
X14927Y54151D01*
X8108D02*
X11518Y52182D01*
X8108Y54151D02*
X8108Y58088D01*
X11518Y60056D01*
X24341Y54180D02*
X27751Y52212D01*
X24341Y54180D02*
Y58117D01*
X27751Y60086D01*
X31160Y58117D01*
X31160Y54180D02*
X31160Y58117D01*
X27751Y52212D02*
X31160Y54180D01*
X40546Y54180D02*
X43956Y52212D01*
X40546Y54180D02*
Y58117D01*
X43956Y60086D01*
X47365Y58117D01*
X47365Y54180D02*
X47365Y58117D01*
X43956Y52212D02*
X47365Y54180D01*
X189136Y30050D02*
X192546Y28082D01*
X189136Y30050D02*
Y33987D01*
X192546Y35956D01*
X195955Y33987D01*
X195955Y30050D02*
X195955Y33987D01*
X192546Y28082D02*
X195955Y30050D01*
X172034Y30050D02*
X175443Y28082D01*
X172034Y30050D02*
Y33987D01*
X175443Y35956D01*
X178853Y33987D01*
X178853Y30050D02*
X178853Y33987D01*
X175443Y28082D02*
X178853Y30050D01*
X154931Y30050D02*
X158341Y28082D01*
X154931Y30050D02*
Y33987D01*
X158341Y35956D01*
X161750Y33987D01*
X161750Y30050D02*
X161750Y33987D01*
X158341Y28082D02*
X161750Y30050D01*
X137828Y30050D02*
X141238Y28082D01*
X137828Y30050D02*
Y33987D01*
X141238Y35956D01*
X144647Y33987D01*
X144647Y30050D02*
X144647Y33987D01*
X141238Y28082D02*
X144647Y30050D01*
X43928Y34783D02*
X47338Y32815D01*
Y28878D02*
Y32815D01*
X43928Y26909D02*
X47338Y28878D01*
X40519D02*
X43928Y26909D01*
X40519Y28878D02*
X40519Y32815D01*
X43928Y34783D01*
X27977D02*
X31386Y32815D01*
Y28878D02*
Y32815D01*
X27977Y26909D02*
X31386Y28878D01*
X24567D02*
X27977Y26909D01*
X24567Y28878D02*
X24567Y32815D01*
X27977Y34783D01*
X8136Y28907D02*
X11546Y26939D01*
X8136Y28907D02*
Y32844D01*
X11546Y34813D01*
X14955Y32844D01*
X14955Y28907D02*
X14955Y32844D01*
X11546Y26939D02*
X14955Y28907D01*
M02*
