G04*
G04 #@! TF.GenerationSoftware,Altium Limited,Altium Designer,24.1.2 (44)*
G04*
G04 Layer_Color=65535*
%FSLAX43Y43*%
%MOMM*%
G71*
G04*
G04 #@! TF.SameCoordinates,2BF940BF-4250-42CE-90D2-99074F7E85B8*
G04*
G04*
G04 #@! TF.FilePolarity,Positive*
G04*
G01*
G75*
%ADD10C,0.203*%
%ADD11C,0.127*%
%ADD12C,0.254*%
%ADD13C,0.102*%
G36*
X79062Y49825D02*
X78447D01*
Y52143D01*
X78442Y52138D01*
X78433Y52129D01*
X78415Y52115D01*
X78387Y52092D01*
X78354Y52064D01*
X78317Y52037D01*
X78271Y52004D01*
X78220Y51967D01*
X78165Y51930D01*
X78104Y51893D01*
X78040Y51852D01*
X77970Y51814D01*
X77822Y51745D01*
X77656Y51680D01*
Y52236D01*
X77660D01*
X77665Y52240D01*
X77679Y52245D01*
X77697Y52250D01*
X77743Y52273D01*
X77808Y52300D01*
X77887Y52337D01*
X77975Y52388D01*
X78072Y52453D01*
X78174Y52527D01*
X78179Y52532D01*
X78188Y52536D01*
X78202Y52550D01*
X78220Y52569D01*
X78271Y52615D01*
X78327Y52675D01*
X78391Y52749D01*
X78456Y52842D01*
X78516Y52939D01*
X78563Y53046D01*
X79062D01*
Y49825D01*
D02*
G37*
G36*
X170589Y41002D02*
X170640Y40998D01*
X170696Y40989D01*
X170761Y40979D01*
X170830Y40965D01*
X170904Y40947D01*
X170983Y40924D01*
X171061Y40896D01*
X171145Y40859D01*
X171223Y40822D01*
X171297Y40776D01*
X171376Y40720D01*
X171446Y40660D01*
X171450D01*
X171455Y40651D01*
X171469Y40637D01*
X171483Y40623D01*
X171501Y40600D01*
X171520Y40572D01*
X171571Y40507D01*
X171621Y40424D01*
X171677Y40322D01*
X171728Y40206D01*
X171774Y40072D01*
X171135Y39919D01*
Y39924D01*
X171131Y39929D01*
Y39943D01*
X171122Y39961D01*
X171108Y40003D01*
X171085Y40058D01*
X171052Y40123D01*
X171011Y40188D01*
X170955Y40253D01*
X170895Y40308D01*
X170886Y40313D01*
X170862Y40331D01*
X170825Y40355D01*
X170775Y40382D01*
X170710Y40410D01*
X170636Y40433D01*
X170552Y40452D01*
X170460Y40456D01*
X170427D01*
X170400Y40452D01*
X170372Y40447D01*
X170335Y40442D01*
X170256Y40424D01*
X170164Y40392D01*
X170066Y40345D01*
X170016Y40318D01*
X169969Y40285D01*
X169923Y40243D01*
X169881Y40197D01*
Y40193D01*
X169872Y40183D01*
X169863Y40169D01*
X169849Y40146D01*
X169830Y40118D01*
X169812Y40086D01*
X169793Y40044D01*
X169775Y39998D01*
X169752Y39943D01*
X169733Y39882D01*
X169715Y39813D01*
X169696Y39739D01*
X169682Y39656D01*
X169673Y39568D01*
X169668Y39471D01*
X169664Y39364D01*
Y39360D01*
Y39336D01*
Y39304D01*
X169668Y39267D01*
Y39216D01*
X169678Y39156D01*
X169682Y39096D01*
X169692Y39026D01*
X169719Y38883D01*
X169756Y38739D01*
X169780Y38670D01*
X169812Y38605D01*
X169844Y38545D01*
X169881Y38494D01*
X169886Y38489D01*
X169891Y38485D01*
X169904Y38471D01*
X169923Y38452D01*
X169969Y38415D01*
X170034Y38369D01*
X170113Y38318D01*
X170210Y38281D01*
X170321Y38249D01*
X170381Y38244D01*
X170446Y38240D01*
X170469D01*
X170488Y38244D01*
X170538Y38249D01*
X170599Y38258D01*
X170663Y38281D01*
X170738Y38309D01*
X170812Y38346D01*
X170886Y38402D01*
X170895Y38411D01*
X170918Y38434D01*
X170950Y38471D01*
X170987Y38527D01*
X171034Y38601D01*
X171075Y38688D01*
X171117Y38795D01*
X171154Y38920D01*
X171783Y38726D01*
Y38721D01*
X171779Y38702D01*
X171770Y38675D01*
X171756Y38638D01*
X171737Y38596D01*
X171719Y38545D01*
X171695Y38489D01*
X171668Y38429D01*
X171603Y38304D01*
X171520Y38175D01*
X171418Y38050D01*
X171362Y37994D01*
X171302Y37943D01*
X171297Y37939D01*
X171288Y37934D01*
X171270Y37920D01*
X171242Y37902D01*
X171210Y37883D01*
X171168Y37865D01*
X171122Y37842D01*
X171071Y37818D01*
X171011Y37791D01*
X170946Y37768D01*
X170876Y37749D01*
X170802Y37731D01*
X170724Y37712D01*
X170636Y37698D01*
X170548Y37693D01*
X170451Y37689D01*
X170423D01*
X170390Y37693D01*
X170344Y37698D01*
X170293Y37703D01*
X170228Y37712D01*
X170159Y37726D01*
X170080Y37744D01*
X170002Y37768D01*
X169918Y37795D01*
X169830Y37832D01*
X169743Y37874D01*
X169655Y37920D01*
X169567Y37980D01*
X169483Y38045D01*
X169405Y38124D01*
X169400Y38129D01*
X169386Y38142D01*
X169368Y38170D01*
X169340Y38203D01*
X169312Y38249D01*
X169275Y38300D01*
X169238Y38365D01*
X169201Y38439D01*
X169164Y38517D01*
X169127Y38605D01*
X169090Y38707D01*
X169062Y38813D01*
X169034Y38925D01*
X169016Y39049D01*
X169002Y39179D01*
X168997Y39318D01*
Y39323D01*
Y39327D01*
Y39355D01*
X169002Y39397D01*
Y39452D01*
X169011Y39517D01*
X169021Y39596D01*
X169030Y39679D01*
X169048Y39776D01*
X169071Y39873D01*
X169099Y39975D01*
X169132Y40077D01*
X169173Y40183D01*
X169220Y40285D01*
X169275Y40382D01*
X169335Y40475D01*
X169409Y40563D01*
X169414Y40567D01*
X169428Y40581D01*
X169451Y40604D01*
X169483Y40632D01*
X169525Y40665D01*
X169576Y40702D01*
X169631Y40743D01*
X169701Y40785D01*
X169775Y40827D01*
X169854Y40868D01*
X169946Y40905D01*
X170039Y40938D01*
X170145Y40965D01*
X170252Y40989D01*
X170372Y41002D01*
X170492Y41007D01*
X170548D01*
X170589Y41002D01*
D02*
G37*
G36*
X174903Y37744D02*
X174255D01*
Y39147D01*
X172991D01*
Y37744D01*
X172343D01*
Y40947D01*
X172991D01*
Y39688D01*
X174255D01*
Y40947D01*
X174903D01*
Y37744D01*
D02*
G37*
G36*
X180026Y40461D02*
X180021Y40456D01*
X180012Y40447D01*
X179998Y40433D01*
X179979Y40415D01*
X179956Y40387D01*
X179928Y40355D01*
X179896Y40318D01*
X179859Y40271D01*
X179822Y40220D01*
X179780Y40165D01*
X179734Y40105D01*
X179688Y40040D01*
X179642Y39966D01*
X179595Y39892D01*
X179544Y39808D01*
X179493Y39721D01*
X179489Y39716D01*
X179480Y39697D01*
X179466Y39674D01*
X179447Y39637D01*
X179429Y39596D01*
X179401Y39540D01*
X179373Y39480D01*
X179341Y39415D01*
X179308Y39341D01*
X179276Y39262D01*
X179239Y39179D01*
X179207Y39091D01*
X179142Y38901D01*
X179082Y38702D01*
Y38698D01*
X179077Y38679D01*
X179068Y38651D01*
X179058Y38610D01*
X179049Y38564D01*
X179040Y38513D01*
X179026Y38448D01*
X179012Y38383D01*
X178998Y38309D01*
X178989Y38235D01*
X178966Y38073D01*
X178952Y37906D01*
X178947Y37744D01*
X178355D01*
Y37754D01*
Y37772D01*
X178360Y37809D01*
Y37860D01*
X178364Y37920D01*
X178374Y37990D01*
X178383Y38073D01*
X178397Y38161D01*
X178411Y38258D01*
X178429Y38365D01*
X178452Y38476D01*
X178475Y38596D01*
X178508Y38716D01*
X178540Y38841D01*
X178582Y38966D01*
X178628Y39096D01*
X178633Y39105D01*
X178642Y39128D01*
X178656Y39165D01*
X178674Y39211D01*
X178702Y39272D01*
X178734Y39346D01*
X178771Y39424D01*
X178813Y39512D01*
X178859Y39605D01*
X178910Y39702D01*
X178966Y39808D01*
X179031Y39910D01*
X179165Y40128D01*
X179318Y40336D01*
X177925D01*
Y40905D01*
X180026D01*
Y40461D01*
D02*
G37*
G36*
X177004Y37744D02*
X176388D01*
Y40063D01*
X176384Y40058D01*
X176374Y40049D01*
X176356Y40035D01*
X176328Y40012D01*
X176296Y39984D01*
X176259Y39957D01*
X176212Y39924D01*
X176161Y39887D01*
X176106Y39850D01*
X176046Y39813D01*
X175981Y39771D01*
X175911Y39734D01*
X175763Y39665D01*
X175597Y39600D01*
Y40156D01*
X175601D01*
X175606Y40160D01*
X175620Y40165D01*
X175638Y40169D01*
X175685Y40193D01*
X175749Y40220D01*
X175828Y40257D01*
X175916Y40308D01*
X176013Y40373D01*
X176115Y40447D01*
X176120Y40452D01*
X176129Y40456D01*
X176143Y40470D01*
X176161Y40489D01*
X176212Y40535D01*
X176268Y40595D01*
X176333Y40669D01*
X176397Y40762D01*
X176458Y40859D01*
X176504Y40965D01*
X177004D01*
Y37744D01*
D02*
G37*
G36*
X187996Y65130D02*
X188047Y65125D01*
X188102Y65116D01*
X188167Y65107D01*
X188237Y65093D01*
X188311Y65075D01*
X188389Y65051D01*
X188468Y65024D01*
X188551Y64987D01*
X188630Y64950D01*
X188704Y64903D01*
X188783Y64848D01*
X188852Y64788D01*
X188857D01*
X188861Y64778D01*
X188875Y64765D01*
X188889Y64751D01*
X188908Y64727D01*
X188926Y64700D01*
X188977Y64635D01*
X189028Y64552D01*
X189084Y64450D01*
X189134Y64334D01*
X189181Y64200D01*
X188542Y64047D01*
Y64052D01*
X188537Y64056D01*
Y64070D01*
X188528Y64089D01*
X188514Y64130D01*
X188491Y64186D01*
X188459Y64251D01*
X188417Y64316D01*
X188362Y64380D01*
X188301Y64436D01*
X188292Y64441D01*
X188269Y64459D01*
X188232Y64482D01*
X188181Y64510D01*
X188116Y64538D01*
X188042Y64561D01*
X187959Y64579D01*
X187866Y64584D01*
X187834D01*
X187806Y64579D01*
X187778Y64575D01*
X187741Y64570D01*
X187663Y64552D01*
X187570Y64519D01*
X187473Y64473D01*
X187422Y64445D01*
X187376Y64413D01*
X187330Y64371D01*
X187288Y64325D01*
Y64320D01*
X187279Y64311D01*
X187269Y64297D01*
X187256Y64274D01*
X187237Y64246D01*
X187219Y64214D01*
X187200Y64172D01*
X187181Y64126D01*
X187158Y64070D01*
X187140Y64010D01*
X187121Y63941D01*
X187103Y63867D01*
X187089Y63783D01*
X187080Y63695D01*
X187075Y63598D01*
X187070Y63492D01*
Y63487D01*
Y63464D01*
Y63432D01*
X187075Y63395D01*
Y63344D01*
X187084Y63284D01*
X187089Y63223D01*
X187098Y63154D01*
X187126Y63011D01*
X187163Y62867D01*
X187186Y62798D01*
X187219Y62733D01*
X187251Y62673D01*
X187288Y62622D01*
X187293Y62617D01*
X187297Y62613D01*
X187311Y62599D01*
X187330Y62580D01*
X187376Y62543D01*
X187441Y62497D01*
X187519Y62446D01*
X187617Y62409D01*
X187728Y62377D01*
X187788Y62372D01*
X187853Y62367D01*
X187876D01*
X187894Y62372D01*
X187945Y62377D01*
X188005Y62386D01*
X188070Y62409D01*
X188144Y62437D01*
X188218Y62474D01*
X188292Y62529D01*
X188301Y62539D01*
X188325Y62562D01*
X188357Y62599D01*
X188394Y62654D01*
X188440Y62728D01*
X188482Y62816D01*
X188524Y62923D01*
X188561Y63048D01*
X189190Y62853D01*
Y62849D01*
X189185Y62830D01*
X189176Y62802D01*
X189162Y62765D01*
X189144Y62724D01*
X189125Y62673D01*
X189102Y62617D01*
X189074Y62557D01*
X189009Y62432D01*
X188926Y62302D01*
X188824Y62178D01*
X188769Y62122D01*
X188709Y62071D01*
X188704Y62066D01*
X188695Y62062D01*
X188676Y62048D01*
X188649Y62029D01*
X188616Y62011D01*
X188574Y61992D01*
X188528Y61969D01*
X188477Y61946D01*
X188417Y61918D01*
X188352Y61895D01*
X188283Y61877D01*
X188209Y61858D01*
X188130Y61840D01*
X188042Y61826D01*
X187954Y61821D01*
X187857Y61817D01*
X187829D01*
X187797Y61821D01*
X187751Y61826D01*
X187700Y61830D01*
X187635Y61840D01*
X187566Y61854D01*
X187487Y61872D01*
X187408Y61895D01*
X187325Y61923D01*
X187237Y61960D01*
X187149Y62002D01*
X187061Y62048D01*
X186973Y62108D01*
X186890Y62173D01*
X186811Y62252D01*
X186807Y62256D01*
X186793Y62270D01*
X186774Y62298D01*
X186746Y62330D01*
X186719Y62377D01*
X186682Y62427D01*
X186645Y62492D01*
X186608Y62566D01*
X186571Y62645D01*
X186534Y62733D01*
X186497Y62835D01*
X186469Y62941D01*
X186441Y63052D01*
X186423Y63177D01*
X186409Y63307D01*
X186404Y63446D01*
Y63450D01*
Y63455D01*
Y63483D01*
X186409Y63524D01*
Y63580D01*
X186418Y63645D01*
X186427Y63723D01*
X186436Y63807D01*
X186455Y63904D01*
X186478Y64001D01*
X186506Y64103D01*
X186538Y64205D01*
X186580Y64311D01*
X186626Y64413D01*
X186682Y64510D01*
X186742Y64603D01*
X186816Y64690D01*
X186821Y64695D01*
X186834Y64709D01*
X186858Y64732D01*
X186890Y64760D01*
X186932Y64792D01*
X186982Y64829D01*
X187038Y64871D01*
X187107Y64913D01*
X187181Y64954D01*
X187260Y64996D01*
X187353Y65033D01*
X187445Y65065D01*
X187552Y65093D01*
X187658Y65116D01*
X187778Y65130D01*
X187899Y65135D01*
X187954D01*
X187996Y65130D01*
D02*
G37*
G36*
X192309Y61872D02*
X191661D01*
Y63274D01*
X190398D01*
Y61872D01*
X189750D01*
Y65075D01*
X190398D01*
Y63816D01*
X191661D01*
Y65075D01*
X192309D01*
Y61872D01*
D02*
G37*
G36*
X196900D02*
X196285D01*
Y64191D01*
X196280Y64186D01*
X196271Y64177D01*
X196252Y64163D01*
X196224Y64140D01*
X196192Y64112D01*
X196155Y64084D01*
X196109Y64052D01*
X196058Y64015D01*
X196002Y63978D01*
X195942Y63941D01*
X195877Y63899D01*
X195808Y63862D01*
X195660Y63793D01*
X195493Y63728D01*
Y64283D01*
X195498D01*
X195502Y64288D01*
X195516Y64292D01*
X195535Y64297D01*
X195581Y64320D01*
X195646Y64348D01*
X195725Y64385D01*
X195812Y64436D01*
X195910Y64501D01*
X196011Y64575D01*
X196016Y64579D01*
X196025Y64584D01*
X196039Y64598D01*
X196058Y64616D01*
X196109Y64663D01*
X196164Y64723D01*
X196229Y64797D01*
X196294Y64889D01*
X196354Y64987D01*
X196400Y65093D01*
X196900D01*
Y61872D01*
D02*
G37*
G36*
X193975Y65088D02*
X194017Y65084D01*
X194063Y65079D01*
X194114Y65070D01*
X194170Y65061D01*
X194290Y65028D01*
X194410Y64982D01*
X194475Y64954D01*
X194531Y64922D01*
X194591Y64880D01*
X194642Y64834D01*
X194646Y64829D01*
X194656Y64825D01*
X194665Y64806D01*
X194683Y64788D01*
X194706Y64765D01*
X194730Y64732D01*
X194753Y64700D01*
X194780Y64658D01*
X194827Y64566D01*
X194873Y64459D01*
X194892Y64399D01*
X194901Y64334D01*
X194910Y64265D01*
X194915Y64195D01*
Y64186D01*
Y64158D01*
X194910Y64117D01*
X194905Y64066D01*
X194896Y64001D01*
X194882Y63931D01*
X194864Y63857D01*
X194836Y63783D01*
X194831Y63774D01*
X194822Y63751D01*
X194804Y63709D01*
X194776Y63658D01*
X194743Y63598D01*
X194702Y63529D01*
X194651Y63455D01*
X194591Y63376D01*
X194586Y63372D01*
X194568Y63348D01*
X194540Y63316D01*
X194498Y63270D01*
X194443Y63214D01*
X194373Y63140D01*
X194290Y63061D01*
X194188Y62964D01*
X194183Y62960D01*
X194174Y62955D01*
X194160Y62941D01*
X194142Y62923D01*
X194091Y62876D01*
X194031Y62821D01*
X193971Y62761D01*
X193910Y62700D01*
X193855Y62650D01*
X193836Y62626D01*
X193818Y62608D01*
X193813Y62603D01*
X193804Y62594D01*
X193790Y62576D01*
X193772Y62552D01*
X193730Y62501D01*
X193693Y62441D01*
X194915D01*
Y61872D01*
X192763D01*
Y61877D01*
Y61886D01*
X192767Y61904D01*
X192772Y61928D01*
X192777Y61955D01*
X192781Y61988D01*
X192800Y62071D01*
X192827Y62164D01*
X192865Y62265D01*
X192911Y62377D01*
X192971Y62483D01*
Y62488D01*
X192980Y62497D01*
X192989Y62515D01*
X193008Y62534D01*
X193026Y62566D01*
X193054Y62599D01*
X193087Y62640D01*
X193124Y62687D01*
X193165Y62742D01*
X193216Y62798D01*
X193272Y62862D01*
X193337Y62932D01*
X193406Y63001D01*
X193485Y63080D01*
X193568Y63163D01*
X193661Y63251D01*
X193665Y63256D01*
X193679Y63270D01*
X193698Y63288D01*
X193725Y63316D01*
X193762Y63344D01*
X193799Y63381D01*
X193883Y63464D01*
X193966Y63552D01*
X194049Y63640D01*
X194086Y63677D01*
X194123Y63719D01*
X194151Y63751D01*
X194170Y63779D01*
X194174Y63788D01*
X194188Y63811D01*
X194211Y63848D01*
X194234Y63899D01*
X194258Y63955D01*
X194281Y64019D01*
X194295Y64084D01*
X194299Y64154D01*
Y64158D01*
Y64163D01*
Y64186D01*
X194295Y64228D01*
X194285Y64274D01*
X194271Y64325D01*
X194253Y64376D01*
X194225Y64427D01*
X194188Y64473D01*
X194183Y64478D01*
X194170Y64491D01*
X194142Y64510D01*
X194109Y64528D01*
X194063Y64547D01*
X194012Y64566D01*
X193952Y64579D01*
X193883Y64584D01*
X193850D01*
X193813Y64579D01*
X193772Y64570D01*
X193721Y64556D01*
X193670Y64533D01*
X193619Y64505D01*
X193573Y64468D01*
X193568Y64464D01*
X193554Y64445D01*
X193536Y64417D01*
X193517Y64376D01*
X193494Y64325D01*
X193475Y64255D01*
X193457Y64177D01*
X193448Y64084D01*
X192837Y64144D01*
Y64149D01*
X192841Y64168D01*
Y64191D01*
X192851Y64228D01*
X192855Y64269D01*
X192869Y64316D01*
X192883Y64367D01*
X192897Y64427D01*
X192943Y64542D01*
X192999Y64663D01*
X193036Y64723D01*
X193077Y64778D01*
X193124Y64825D01*
X193175Y64871D01*
X193179Y64876D01*
X193188Y64880D01*
X193202Y64889D01*
X193225Y64908D01*
X193253Y64922D01*
X193290Y64940D01*
X193327Y64964D01*
X193374Y64982D01*
X193424Y65005D01*
X193480Y65024D01*
X193600Y65061D01*
X193744Y65084D01*
X193818Y65088D01*
X193897Y65093D01*
X193943D01*
X193975Y65088D01*
D02*
G37*
G36*
X170624Y65132D02*
X170675Y65128D01*
X170731Y65119D01*
X170795Y65109D01*
X170865Y65095D01*
X170939Y65077D01*
X171017Y65054D01*
X171096Y65026D01*
X171179Y64989D01*
X171258Y64952D01*
X171332Y64906D01*
X171411Y64850D01*
X171480Y64790D01*
X171485D01*
X171490Y64781D01*
X171503Y64767D01*
X171517Y64753D01*
X171536Y64730D01*
X171554Y64702D01*
X171605Y64637D01*
X171656Y64554D01*
X171712Y64452D01*
X171763Y64336D01*
X171809Y64202D01*
X171170Y64049D01*
Y64054D01*
X171166Y64059D01*
Y64073D01*
X171156Y64091D01*
X171142Y64133D01*
X171119Y64188D01*
X171087Y64253D01*
X171045Y64318D01*
X170990Y64383D01*
X170930Y64438D01*
X170920Y64443D01*
X170897Y64461D01*
X170860Y64485D01*
X170809Y64512D01*
X170744Y64540D01*
X170670Y64563D01*
X170587Y64582D01*
X170495Y64586D01*
X170462D01*
X170434Y64582D01*
X170407Y64577D01*
X170370Y64572D01*
X170291Y64554D01*
X170198Y64522D01*
X170101Y64475D01*
X170050Y64448D01*
X170004Y64415D01*
X169958Y64373D01*
X169916Y64327D01*
Y64323D01*
X169907Y64313D01*
X169898Y64299D01*
X169884Y64276D01*
X169865Y64248D01*
X169847Y64216D01*
X169828Y64174D01*
X169810Y64128D01*
X169786Y64073D01*
X169768Y64012D01*
X169749Y63943D01*
X169731Y63869D01*
X169717Y63786D01*
X169708Y63698D01*
X169703Y63601D01*
X169699Y63494D01*
Y63490D01*
Y63466D01*
Y63434D01*
X169703Y63397D01*
Y63346D01*
X169712Y63286D01*
X169717Y63226D01*
X169726Y63156D01*
X169754Y63013D01*
X169791Y62869D01*
X169814Y62800D01*
X169847Y62735D01*
X169879Y62675D01*
X169916Y62624D01*
X169921Y62619D01*
X169925Y62615D01*
X169939Y62601D01*
X169958Y62582D01*
X170004Y62545D01*
X170069Y62499D01*
X170147Y62448D01*
X170245Y62411D01*
X170356Y62379D01*
X170416Y62374D01*
X170481Y62370D01*
X170504D01*
X170522Y62374D01*
X170573Y62379D01*
X170633Y62388D01*
X170698Y62411D01*
X170772Y62439D01*
X170846Y62476D01*
X170920Y62532D01*
X170930Y62541D01*
X170953Y62564D01*
X170985Y62601D01*
X171022Y62657D01*
X171068Y62731D01*
X171110Y62818D01*
X171152Y62925D01*
X171189Y63050D01*
X171818Y62856D01*
Y62851D01*
X171813Y62832D01*
X171804Y62805D01*
X171790Y62768D01*
X171772Y62726D01*
X171753Y62675D01*
X171730Y62619D01*
X171702Y62559D01*
X171638Y62434D01*
X171554Y62305D01*
X171453Y62180D01*
X171397Y62124D01*
X171337Y62073D01*
X171332Y62069D01*
X171323Y62064D01*
X171304Y62050D01*
X171277Y62032D01*
X171244Y62013D01*
X171203Y61995D01*
X171156Y61972D01*
X171105Y61948D01*
X171045Y61921D01*
X170980Y61898D01*
X170911Y61879D01*
X170837Y61861D01*
X170758Y61842D01*
X170670Y61828D01*
X170582Y61823D01*
X170485Y61819D01*
X170458D01*
X170425Y61823D01*
X170379Y61828D01*
X170328Y61833D01*
X170263Y61842D01*
X170194Y61856D01*
X170115Y61874D01*
X170036Y61898D01*
X169953Y61925D01*
X169865Y61962D01*
X169777Y62004D01*
X169689Y62050D01*
X169601Y62110D01*
X169518Y62175D01*
X169439Y62254D01*
X169435Y62259D01*
X169421Y62272D01*
X169402Y62300D01*
X169375Y62333D01*
X169347Y62379D01*
X169310Y62430D01*
X169273Y62495D01*
X169236Y62569D01*
X169199Y62647D01*
X169162Y62735D01*
X169125Y62837D01*
X169097Y62943D01*
X169069Y63055D01*
X169051Y63179D01*
X169037Y63309D01*
X169032Y63448D01*
Y63453D01*
Y63457D01*
Y63485D01*
X169037Y63527D01*
Y63582D01*
X169046Y63647D01*
X169055Y63726D01*
X169065Y63809D01*
X169083Y63906D01*
X169106Y64003D01*
X169134Y64105D01*
X169166Y64207D01*
X169208Y64313D01*
X169254Y64415D01*
X169310Y64512D01*
X169370Y64605D01*
X169444Y64693D01*
X169449Y64697D01*
X169463Y64711D01*
X169486Y64734D01*
X169518Y64762D01*
X169560Y64795D01*
X169611Y64832D01*
X169666Y64873D01*
X169736Y64915D01*
X169810Y64957D01*
X169888Y64998D01*
X169981Y65035D01*
X170073Y65068D01*
X170180Y65095D01*
X170286Y65119D01*
X170407Y65132D01*
X170527Y65137D01*
X170582D01*
X170624Y65132D01*
D02*
G37*
G36*
X174937Y61874D02*
X174289D01*
Y63277D01*
X173026D01*
Y61874D01*
X172378D01*
Y65077D01*
X173026D01*
Y63818D01*
X174289D01*
Y65077D01*
X174937D01*
Y61874D01*
D02*
G37*
G36*
X177038D02*
X176423D01*
Y64193D01*
X176418Y64188D01*
X176409Y64179D01*
X176390Y64165D01*
X176363Y64142D01*
X176330Y64114D01*
X176293Y64087D01*
X176247Y64054D01*
X176196Y64017D01*
X176141Y63980D01*
X176080Y63943D01*
X176016Y63901D01*
X175946Y63864D01*
X175798Y63795D01*
X175631Y63730D01*
Y64286D01*
X175636D01*
X175641Y64290D01*
X175655Y64295D01*
X175673Y64299D01*
X175719Y64323D01*
X175784Y64350D01*
X175863Y64387D01*
X175951Y64438D01*
X176048Y64503D01*
X176150Y64577D01*
X176154Y64582D01*
X176164Y64586D01*
X176178Y64600D01*
X176196Y64619D01*
X176247Y64665D01*
X176303Y64725D01*
X176367Y64799D01*
X176432Y64892D01*
X176492Y64989D01*
X176539Y65095D01*
X177038D01*
Y61874D01*
D02*
G37*
G36*
X179065Y65091D02*
X179107Y65086D01*
X179149Y65082D01*
X179200Y65077D01*
X179250Y65068D01*
X179366Y65040D01*
X179487Y64998D01*
X179542Y64970D01*
X179602Y64938D01*
X179653Y64901D01*
X179704Y64859D01*
X179709Y64855D01*
X179713Y64850D01*
X179727Y64836D01*
X179746Y64818D01*
X179764Y64795D01*
X179783Y64767D01*
X179834Y64697D01*
X179880Y64609D01*
X179917Y64512D01*
X179949Y64397D01*
X179954Y64332D01*
X179959Y64267D01*
Y64262D01*
Y64258D01*
Y64230D01*
X179954Y64188D01*
X179945Y64133D01*
X179931Y64073D01*
X179908Y64008D01*
X179880Y63938D01*
X179838Y63869D01*
X179834Y63860D01*
X179815Y63841D01*
X179792Y63809D01*
X179755Y63772D01*
X179709Y63726D01*
X179653Y63684D01*
X179588Y63642D01*
X179514Y63605D01*
X179519D01*
X179528Y63601D01*
X179542Y63596D01*
X179561Y63587D01*
X179607Y63559D01*
X179667Y63522D01*
X179732Y63480D01*
X179801Y63425D01*
X179866Y63360D01*
X179922Y63286D01*
X179926Y63277D01*
X179945Y63249D01*
X179968Y63207D01*
X179991Y63152D01*
X180019Y63082D01*
X180037Y62999D01*
X180056Y62911D01*
X180060Y62814D01*
Y62809D01*
Y62795D01*
Y62772D01*
X180056Y62740D01*
X180051Y62703D01*
X180046Y62657D01*
X180037Y62610D01*
X180023Y62559D01*
X179991Y62444D01*
X179968Y62383D01*
X179940Y62323D01*
X179908Y62263D01*
X179866Y62203D01*
X179824Y62147D01*
X179773Y62092D01*
X179769Y62087D01*
X179760Y62078D01*
X179746Y62064D01*
X179723Y62050D01*
X179695Y62027D01*
X179658Y62004D01*
X179621Y61981D01*
X179574Y61953D01*
X179524Y61925D01*
X179463Y61902D01*
X179403Y61879D01*
X179338Y61856D01*
X179264Y61842D01*
X179186Y61828D01*
X179107Y61819D01*
X179019Y61814D01*
X178977D01*
X178945Y61819D01*
X178908Y61823D01*
X178866Y61828D01*
X178820Y61833D01*
X178765Y61842D01*
X178649Y61870D01*
X178529Y61911D01*
X178468Y61935D01*
X178408Y61967D01*
X178348Y61999D01*
X178293Y62041D01*
X178288Y62046D01*
X178279Y62055D01*
X178260Y62069D01*
X178237Y62092D01*
X178214Y62120D01*
X178186Y62152D01*
X178154Y62194D01*
X178121Y62235D01*
X178089Y62286D01*
X178056Y62342D01*
X178029Y62402D01*
X178006Y62471D01*
X177982Y62541D01*
X177964Y62619D01*
X177955Y62698D01*
X177950Y62786D01*
Y62791D01*
Y62800D01*
Y62814D01*
Y62832D01*
X177955Y62883D01*
X177964Y62943D01*
X177982Y63017D01*
X178001Y63101D01*
X178033Y63184D01*
X178075Y63267D01*
Y63272D01*
X178080Y63277D01*
X178098Y63304D01*
X178131Y63341D01*
X178177Y63392D01*
X178232Y63448D01*
X178302Y63503D01*
X178385Y63554D01*
X178482Y63605D01*
X178478D01*
X178473Y63610D01*
X178445Y63624D01*
X178404Y63647D01*
X178353Y63675D01*
X178293Y63716D01*
X178237Y63763D01*
X178181Y63818D01*
X178135Y63878D01*
X178131Y63888D01*
X178117Y63911D01*
X178103Y63943D01*
X178084Y63994D01*
X178061Y64049D01*
X178047Y64119D01*
X178033Y64188D01*
X178029Y64267D01*
Y64272D01*
Y64281D01*
Y64299D01*
X178033Y64327D01*
X178038Y64355D01*
X178043Y64392D01*
X178061Y64475D01*
X178089Y64568D01*
X178135Y64670D01*
X178163Y64716D01*
X178195Y64767D01*
X178237Y64813D01*
X178279Y64859D01*
X178283Y64864D01*
X178293Y64869D01*
X178306Y64883D01*
X178325Y64896D01*
X178353Y64915D01*
X178380Y64933D01*
X178417Y64957D01*
X178464Y64980D01*
X178510Y64998D01*
X178561Y65021D01*
X178621Y65040D01*
X178686Y65058D01*
X178755Y65072D01*
X178829Y65086D01*
X178908Y65091D01*
X178991Y65095D01*
X179038D01*
X179065Y65091D01*
D02*
G37*
G36*
X153451Y65135D02*
X153502Y65130D01*
X153558Y65121D01*
X153623Y65112D01*
X153692Y65098D01*
X153766Y65079D01*
X153845Y65056D01*
X153923Y65028D01*
X154007Y64991D01*
X154085Y64954D01*
X154159Y64908D01*
X154238Y64852D01*
X154307Y64792D01*
X154312D01*
X154317Y64783D01*
X154331Y64769D01*
X154344Y64755D01*
X154363Y64732D01*
X154382Y64704D01*
X154432Y64640D01*
X154483Y64556D01*
X154539Y64454D01*
X154590Y64339D01*
X154636Y64205D01*
X153997Y64052D01*
Y64056D01*
X153993Y64061D01*
Y64075D01*
X153984Y64093D01*
X153970Y64135D01*
X153946Y64191D01*
X153914Y64255D01*
X153872Y64320D01*
X153817Y64385D01*
X153757Y64441D01*
X153747Y64445D01*
X153724Y64464D01*
X153687Y64487D01*
X153636Y64515D01*
X153572Y64542D01*
X153498Y64566D01*
X153414Y64584D01*
X153322Y64589D01*
X153289D01*
X153262Y64584D01*
X153234Y64579D01*
X153197Y64575D01*
X153118Y64556D01*
X153026Y64524D01*
X152928Y64478D01*
X152877Y64450D01*
X152831Y64417D01*
X152785Y64376D01*
X152743Y64329D01*
Y64325D01*
X152734Y64316D01*
X152725Y64302D01*
X152711Y64279D01*
X152692Y64251D01*
X152674Y64218D01*
X152655Y64177D01*
X152637Y64130D01*
X152614Y64075D01*
X152595Y64015D01*
X152577Y63945D01*
X152558Y63871D01*
X152544Y63788D01*
X152535Y63700D01*
X152530Y63603D01*
X152526Y63496D01*
Y63492D01*
Y63469D01*
Y63436D01*
X152530Y63399D01*
Y63348D01*
X152540Y63288D01*
X152544Y63228D01*
X152553Y63159D01*
X152581Y63015D01*
X152618Y62872D01*
X152641Y62802D01*
X152674Y62737D01*
X152706Y62677D01*
X152743Y62626D01*
X152748Y62622D01*
X152752Y62617D01*
X152766Y62603D01*
X152785Y62585D01*
X152831Y62548D01*
X152896Y62501D01*
X152975Y62451D01*
X153072Y62414D01*
X153183Y62381D01*
X153243Y62377D01*
X153308Y62372D01*
X153331D01*
X153349Y62377D01*
X153400Y62381D01*
X153461Y62390D01*
X153525Y62414D01*
X153599Y62441D01*
X153673Y62478D01*
X153747Y62534D01*
X153757Y62543D01*
X153780Y62566D01*
X153812Y62603D01*
X153849Y62659D01*
X153896Y62733D01*
X153937Y62821D01*
X153979Y62927D01*
X154016Y63052D01*
X154645Y62858D01*
Y62853D01*
X154641Y62835D01*
X154631Y62807D01*
X154618Y62770D01*
X154599Y62728D01*
X154581Y62677D01*
X154557Y62622D01*
X154530Y62562D01*
X154465Y62437D01*
X154382Y62307D01*
X154280Y62182D01*
X154224Y62127D01*
X154164Y62076D01*
X154159Y62071D01*
X154150Y62066D01*
X154132Y62053D01*
X154104Y62034D01*
X154071Y62016D01*
X154030Y61997D01*
X153984Y61974D01*
X153933Y61951D01*
X153872Y61923D01*
X153808Y61900D01*
X153738Y61881D01*
X153664Y61863D01*
X153585Y61844D01*
X153498Y61830D01*
X153410Y61826D01*
X153312Y61821D01*
X153285D01*
X153252Y61826D01*
X153206Y61830D01*
X153155Y61835D01*
X153090Y61844D01*
X153021Y61858D01*
X152942Y61877D01*
X152864Y61900D01*
X152780Y61928D01*
X152692Y61965D01*
X152604Y62006D01*
X152516Y62053D01*
X152429Y62113D01*
X152345Y62178D01*
X152267Y62256D01*
X152262Y62261D01*
X152248Y62275D01*
X152230Y62302D01*
X152202Y62335D01*
X152174Y62381D01*
X152137Y62432D01*
X152100Y62497D01*
X152063Y62571D01*
X152026Y62650D01*
X151989Y62737D01*
X151952Y62839D01*
X151924Y62946D01*
X151896Y63057D01*
X151878Y63182D01*
X151864Y63311D01*
X151859Y63450D01*
Y63455D01*
Y63459D01*
Y63487D01*
X151864Y63529D01*
Y63584D01*
X151873Y63649D01*
X151882Y63728D01*
X151892Y63811D01*
X151910Y63908D01*
X151933Y64006D01*
X151961Y64107D01*
X151994Y64209D01*
X152035Y64316D01*
X152081Y64417D01*
X152137Y64515D01*
X152197Y64607D01*
X152271Y64695D01*
X152276Y64700D01*
X152290Y64714D01*
X152313Y64737D01*
X152345Y64765D01*
X152387Y64797D01*
X152438Y64834D01*
X152493Y64876D01*
X152563Y64917D01*
X152637Y64959D01*
X152715Y65001D01*
X152808Y65038D01*
X152901Y65070D01*
X153007Y65098D01*
X153113Y65121D01*
X153234Y65135D01*
X153354Y65139D01*
X153410D01*
X153451Y65135D01*
D02*
G37*
G36*
X157764Y61877D02*
X157117D01*
Y63279D01*
X155853D01*
Y61877D01*
X155205D01*
Y65079D01*
X155853D01*
Y63820D01*
X157117D01*
Y65079D01*
X157764D01*
Y61877D01*
D02*
G37*
G36*
X162809Y64464D02*
X161647D01*
X161550Y63918D01*
X161555D01*
X161559Y63922D01*
X161587Y63936D01*
X161629Y63950D01*
X161680Y63973D01*
X161744Y63992D01*
X161814Y64006D01*
X161893Y64019D01*
X161971Y64024D01*
X162013D01*
X162041Y64019D01*
X162073Y64015D01*
X162115Y64010D01*
X162161Y64001D01*
X162212Y63987D01*
X162318Y63950D01*
X162378Y63927D01*
X162434Y63899D01*
X162494Y63862D01*
X162554Y63820D01*
X162610Y63774D01*
X162665Y63723D01*
X162670Y63719D01*
X162679Y63709D01*
X162693Y63691D01*
X162712Y63668D01*
X162730Y63640D01*
X162758Y63603D01*
X162781Y63561D01*
X162809Y63515D01*
X162837Y63464D01*
X162860Y63404D01*
X162888Y63339D01*
X162906Y63274D01*
X162925Y63200D01*
X162938Y63122D01*
X162948Y63038D01*
X162952Y62950D01*
Y62946D01*
Y62932D01*
Y62913D01*
X162948Y62886D01*
Y62849D01*
X162938Y62807D01*
X162934Y62761D01*
X162925Y62714D01*
X162897Y62603D01*
X162855Y62483D01*
X162827Y62418D01*
X162800Y62358D01*
X162763Y62298D01*
X162721Y62238D01*
X162716Y62233D01*
X162707Y62219D01*
X162689Y62201D01*
X162665Y62173D01*
X162633Y62140D01*
X162591Y62103D01*
X162545Y62066D01*
X162494Y62029D01*
X162434Y61988D01*
X162369Y61951D01*
X162300Y61914D01*
X162221Y61881D01*
X162138Y61854D01*
X162050Y61835D01*
X161953Y61821D01*
X161851Y61817D01*
X161809D01*
X161777Y61821D01*
X161740Y61826D01*
X161694Y61830D01*
X161647Y61835D01*
X161592Y61844D01*
X161481Y61872D01*
X161356Y61918D01*
X161296Y61942D01*
X161235Y61974D01*
X161180Y62011D01*
X161124Y62053D01*
X161120Y62057D01*
X161110Y62062D01*
X161097Y62076D01*
X161078Y62094D01*
X161060Y62122D01*
X161032Y62150D01*
X161009Y62182D01*
X160981Y62219D01*
X160948Y62265D01*
X160921Y62312D01*
X160870Y62423D01*
X160824Y62548D01*
X160810Y62617D01*
X160796Y62691D01*
X161407Y62756D01*
Y62747D01*
X161411Y62724D01*
X161421Y62682D01*
X161434Y62636D01*
X161453Y62585D01*
X161481Y62529D01*
X161518Y62478D01*
X161559Y62427D01*
X161564Y62423D01*
X161582Y62409D01*
X161610Y62390D01*
X161647Y62367D01*
X161689Y62344D01*
X161740Y62326D01*
X161800Y62312D01*
X161860Y62307D01*
X161869D01*
X161893Y62312D01*
X161930Y62316D01*
X161976Y62326D01*
X162027Y62344D01*
X162082Y62372D01*
X162138Y62414D01*
X162189Y62464D01*
X162193Y62474D01*
X162212Y62492D01*
X162230Y62529D01*
X162258Y62585D01*
X162281Y62650D01*
X162304Y62728D01*
X162318Y62825D01*
X162323Y62937D01*
Y62941D01*
Y62950D01*
Y62964D01*
Y62987D01*
X162318Y63038D01*
X162304Y63103D01*
X162291Y63177D01*
X162267Y63251D01*
X162235Y63321D01*
X162189Y63381D01*
X162184Y63385D01*
X162166Y63404D01*
X162133Y63427D01*
X162096Y63459D01*
X162045Y63487D01*
X161985Y63510D01*
X161916Y63529D01*
X161842Y63533D01*
X161814D01*
X161795Y63529D01*
X161749Y63520D01*
X161684Y63506D01*
X161610Y63478D01*
X161532Y63436D01*
X161490Y63409D01*
X161448Y63376D01*
X161407Y63339D01*
X161365Y63297D01*
X160870Y63367D01*
X161184Y65038D01*
X162809D01*
Y64464D01*
D02*
G37*
G36*
X159866Y61877D02*
X159250D01*
Y64195D01*
X159245Y64191D01*
X159236Y64181D01*
X159218Y64168D01*
X159190Y64144D01*
X159157Y64117D01*
X159120Y64089D01*
X159074Y64056D01*
X159023Y64019D01*
X158968Y63982D01*
X158908Y63945D01*
X158843Y63904D01*
X158773Y63867D01*
X158625Y63797D01*
X158459Y63732D01*
Y64288D01*
X158463D01*
X158468Y64292D01*
X158482Y64297D01*
X158500Y64302D01*
X158547Y64325D01*
X158611Y64353D01*
X158690Y64390D01*
X158778Y64441D01*
X158875Y64505D01*
X158977Y64579D01*
X158982Y64584D01*
X158991Y64589D01*
X159005Y64603D01*
X159023Y64621D01*
X159074Y64667D01*
X159130Y64727D01*
X159194Y64802D01*
X159259Y64894D01*
X159319Y64991D01*
X159366Y65098D01*
X159866D01*
Y61877D01*
D02*
G37*
G36*
X136403Y65130D02*
X136454Y65125D01*
X136510Y65116D01*
X136575Y65107D01*
X136644Y65093D01*
X136718Y65075D01*
X136797Y65051D01*
X136875Y65024D01*
X136959Y64987D01*
X137037Y64950D01*
X137111Y64903D01*
X137190Y64848D01*
X137260Y64788D01*
X137264D01*
X137269Y64778D01*
X137283Y64765D01*
X137297Y64751D01*
X137315Y64727D01*
X137334Y64700D01*
X137384Y64635D01*
X137435Y64552D01*
X137491Y64450D01*
X137542Y64334D01*
X137588Y64200D01*
X136949Y64047D01*
Y64052D01*
X136945Y64056D01*
Y64070D01*
X136936Y64089D01*
X136922Y64130D01*
X136899Y64186D01*
X136866Y64251D01*
X136825Y64316D01*
X136769Y64380D01*
X136709Y64436D01*
X136700Y64441D01*
X136676Y64459D01*
X136639Y64482D01*
X136588Y64510D01*
X136524Y64538D01*
X136450Y64561D01*
X136366Y64579D01*
X136274Y64584D01*
X136241D01*
X136214Y64579D01*
X136186Y64575D01*
X136149Y64570D01*
X136070Y64552D01*
X135978Y64519D01*
X135880Y64473D01*
X135830Y64445D01*
X135783Y64413D01*
X135737Y64371D01*
X135695Y64325D01*
Y64320D01*
X135686Y64311D01*
X135677Y64297D01*
X135663Y64274D01*
X135644Y64246D01*
X135626Y64214D01*
X135607Y64172D01*
X135589Y64126D01*
X135566Y64070D01*
X135547Y64010D01*
X135529Y63941D01*
X135510Y63867D01*
X135496Y63783D01*
X135487Y63695D01*
X135482Y63598D01*
X135478Y63492D01*
Y63487D01*
Y63464D01*
Y63432D01*
X135482Y63395D01*
Y63344D01*
X135492Y63284D01*
X135496Y63223D01*
X135506Y63154D01*
X135533Y63011D01*
X135570Y62867D01*
X135594Y62798D01*
X135626Y62733D01*
X135658Y62673D01*
X135695Y62622D01*
X135700Y62617D01*
X135705Y62613D01*
X135718Y62599D01*
X135737Y62580D01*
X135783Y62543D01*
X135848Y62497D01*
X135927Y62446D01*
X136024Y62409D01*
X136135Y62377D01*
X136195Y62372D01*
X136260Y62367D01*
X136283D01*
X136302Y62372D01*
X136352Y62377D01*
X136413Y62386D01*
X136477Y62409D01*
X136551Y62437D01*
X136626Y62474D01*
X136700Y62529D01*
X136709Y62539D01*
X136732Y62562D01*
X136764Y62599D01*
X136801Y62654D01*
X136848Y62728D01*
X136889Y62816D01*
X136931Y62923D01*
X136968Y63048D01*
X137597Y62853D01*
Y62849D01*
X137593Y62830D01*
X137583Y62802D01*
X137570Y62765D01*
X137551Y62724D01*
X137533Y62673D01*
X137509Y62617D01*
X137482Y62557D01*
X137417Y62432D01*
X137334Y62302D01*
X137232Y62178D01*
X137176Y62122D01*
X137116Y62071D01*
X137111Y62066D01*
X137102Y62062D01*
X137084Y62048D01*
X137056Y62029D01*
X137024Y62011D01*
X136982Y61992D01*
X136936Y61969D01*
X136885Y61946D01*
X136825Y61918D01*
X136760Y61895D01*
X136690Y61877D01*
X136616Y61858D01*
X136538Y61840D01*
X136450Y61826D01*
X136362Y61821D01*
X136265Y61817D01*
X136237D01*
X136204Y61821D01*
X136158Y61826D01*
X136107Y61830D01*
X136042Y61840D01*
X135973Y61854D01*
X135894Y61872D01*
X135816Y61895D01*
X135732Y61923D01*
X135644Y61960D01*
X135556Y62002D01*
X135469Y62048D01*
X135381Y62108D01*
X135297Y62173D01*
X135219Y62252D01*
X135214Y62256D01*
X135200Y62270D01*
X135182Y62298D01*
X135154Y62330D01*
X135126Y62377D01*
X135089Y62427D01*
X135052Y62492D01*
X135015Y62566D01*
X134978Y62645D01*
X134941Y62733D01*
X134904Y62835D01*
X134876Y62941D01*
X134848Y63052D01*
X134830Y63177D01*
X134816Y63307D01*
X134811Y63446D01*
Y63450D01*
Y63455D01*
Y63483D01*
X134816Y63524D01*
Y63580D01*
X134825Y63645D01*
X134835Y63723D01*
X134844Y63807D01*
X134862Y63904D01*
X134885Y64001D01*
X134913Y64103D01*
X134946Y64205D01*
X134987Y64311D01*
X135034Y64413D01*
X135089Y64510D01*
X135149Y64603D01*
X135223Y64690D01*
X135228Y64695D01*
X135242Y64709D01*
X135265Y64732D01*
X135297Y64760D01*
X135339Y64792D01*
X135390Y64829D01*
X135445Y64871D01*
X135515Y64913D01*
X135589Y64954D01*
X135668Y64996D01*
X135760Y65033D01*
X135853Y65065D01*
X135959Y65093D01*
X136066Y65116D01*
X136186Y65130D01*
X136306Y65135D01*
X136362D01*
X136403Y65130D01*
D02*
G37*
G36*
X140717Y61872D02*
X140069D01*
Y63274D01*
X138805D01*
Y61872D01*
X138157D01*
Y65075D01*
X138805D01*
Y63816D01*
X140069D01*
Y65075D01*
X140717D01*
Y61872D01*
D02*
G37*
G36*
X144872Y65088D02*
X144914Y65084D01*
X144960Y65079D01*
X145011Y65070D01*
X145067Y65061D01*
X145187Y65028D01*
X145307Y64982D01*
X145372Y64954D01*
X145428Y64922D01*
X145488Y64880D01*
X145539Y64834D01*
X145543Y64829D01*
X145553Y64825D01*
X145562Y64806D01*
X145580Y64788D01*
X145604Y64765D01*
X145627Y64732D01*
X145650Y64700D01*
X145678Y64658D01*
X145724Y64566D01*
X145770Y64459D01*
X145789Y64399D01*
X145798Y64334D01*
X145807Y64265D01*
X145812Y64195D01*
Y64186D01*
Y64158D01*
X145807Y64117D01*
X145803Y64066D01*
X145793Y64001D01*
X145779Y63931D01*
X145761Y63857D01*
X145733Y63783D01*
X145729Y63774D01*
X145719Y63751D01*
X145701Y63709D01*
X145673Y63658D01*
X145641Y63598D01*
X145599Y63529D01*
X145548Y63455D01*
X145488Y63376D01*
X145483Y63372D01*
X145465Y63348D01*
X145437Y63316D01*
X145395Y63270D01*
X145340Y63214D01*
X145270Y63140D01*
X145187Y63061D01*
X145085Y62964D01*
X145081Y62960D01*
X145071Y62955D01*
X145058Y62941D01*
X145039Y62923D01*
X144988Y62876D01*
X144928Y62821D01*
X144868Y62761D01*
X144808Y62700D01*
X144752Y62650D01*
X144734Y62626D01*
X144715Y62608D01*
X144710Y62603D01*
X144701Y62594D01*
X144687Y62576D01*
X144669Y62552D01*
X144627Y62501D01*
X144590Y62441D01*
X145812D01*
Y61872D01*
X143660D01*
Y61877D01*
Y61886D01*
X143665Y61904D01*
X143669Y61928D01*
X143674Y61955D01*
X143678Y61988D01*
X143697Y62071D01*
X143725Y62164D01*
X143762Y62265D01*
X143808Y62377D01*
X143868Y62483D01*
Y62488D01*
X143877Y62497D01*
X143887Y62515D01*
X143905Y62534D01*
X143924Y62566D01*
X143951Y62599D01*
X143984Y62640D01*
X144021Y62687D01*
X144063Y62742D01*
X144113Y62798D01*
X144169Y62862D01*
X144234Y62932D01*
X144303Y63001D01*
X144382Y63080D01*
X144465Y63163D01*
X144558Y63251D01*
X144562Y63256D01*
X144576Y63270D01*
X144595Y63288D01*
X144622Y63316D01*
X144660Y63344D01*
X144697Y63381D01*
X144780Y63464D01*
X144863Y63552D01*
X144946Y63640D01*
X144983Y63677D01*
X145020Y63719D01*
X145048Y63751D01*
X145067Y63779D01*
X145071Y63788D01*
X145085Y63811D01*
X145108Y63848D01*
X145132Y63899D01*
X145155Y63955D01*
X145178Y64019D01*
X145192Y64084D01*
X145196Y64154D01*
Y64158D01*
Y64163D01*
Y64186D01*
X145192Y64228D01*
X145182Y64274D01*
X145169Y64325D01*
X145150Y64376D01*
X145122Y64427D01*
X145085Y64473D01*
X145081Y64478D01*
X145067Y64491D01*
X145039Y64510D01*
X145007Y64528D01*
X144960Y64547D01*
X144909Y64566D01*
X144849Y64579D01*
X144780Y64584D01*
X144747D01*
X144710Y64579D01*
X144669Y64570D01*
X144618Y64556D01*
X144567Y64533D01*
X144516Y64505D01*
X144470Y64468D01*
X144465Y64464D01*
X144451Y64445D01*
X144433Y64417D01*
X144414Y64376D01*
X144391Y64325D01*
X144373Y64255D01*
X144354Y64177D01*
X144345Y64084D01*
X143734Y64144D01*
Y64149D01*
X143739Y64168D01*
Y64191D01*
X143748Y64228D01*
X143752Y64269D01*
X143766Y64316D01*
X143780Y64367D01*
X143794Y64427D01*
X143840Y64542D01*
X143896Y64663D01*
X143933Y64723D01*
X143975Y64778D01*
X144021Y64825D01*
X144072Y64871D01*
X144076Y64876D01*
X144086Y64880D01*
X144100Y64889D01*
X144123Y64908D01*
X144150Y64922D01*
X144187Y64940D01*
X144224Y64964D01*
X144271Y64982D01*
X144322Y65005D01*
X144377Y65024D01*
X144498Y65061D01*
X144641Y65084D01*
X144715Y65088D01*
X144794Y65093D01*
X144840D01*
X144872Y65088D01*
D02*
G37*
G36*
X142818Y61872D02*
X142202D01*
Y64191D01*
X142197Y64186D01*
X142188Y64177D01*
X142170Y64163D01*
X142142Y64140D01*
X142110Y64112D01*
X142073Y64084D01*
X142026Y64052D01*
X141975Y64015D01*
X141920Y63978D01*
X141860Y63941D01*
X141795Y63899D01*
X141725Y63862D01*
X141577Y63793D01*
X141411Y63728D01*
Y64283D01*
X141415D01*
X141420Y64288D01*
X141434Y64292D01*
X141452Y64297D01*
X141499Y64320D01*
X141563Y64348D01*
X141642Y64385D01*
X141730Y64436D01*
X141827Y64501D01*
X141929Y64575D01*
X141934Y64579D01*
X141943Y64584D01*
X141957Y64598D01*
X141975Y64616D01*
X142026Y64663D01*
X142082Y64723D01*
X142147Y64797D01*
X142211Y64889D01*
X142272Y64987D01*
X142318Y65093D01*
X142818D01*
Y61872D01*
D02*
G37*
G36*
X7977Y65130D02*
X8028Y65125D01*
X8083Y65116D01*
X8148Y65107D01*
X8217Y65093D01*
X8291Y65075D01*
X8370Y65051D01*
X8449Y65024D01*
X8532Y64987D01*
X8611Y64950D01*
X8685Y64903D01*
X8763Y64848D01*
X8833Y64788D01*
X8837D01*
X8842Y64778D01*
X8856Y64765D01*
X8870Y64751D01*
X8888Y64727D01*
X8907Y64700D01*
X8958Y64635D01*
X9009Y64552D01*
X9064Y64450D01*
X9115Y64334D01*
X9161Y64200D01*
X8523Y64047D01*
Y64052D01*
X8518Y64056D01*
Y64070D01*
X8509Y64089D01*
X8495Y64130D01*
X8472Y64186D01*
X8439Y64251D01*
X8398Y64316D01*
X8342Y64380D01*
X8282Y64436D01*
X8273Y64441D01*
X8250Y64459D01*
X8213Y64482D01*
X8162Y64510D01*
X8097Y64538D01*
X8023Y64561D01*
X7940Y64579D01*
X7847Y64584D01*
X7815D01*
X7787Y64579D01*
X7759Y64575D01*
X7722Y64570D01*
X7643Y64552D01*
X7551Y64519D01*
X7454Y64473D01*
X7403Y64445D01*
X7357Y64413D01*
X7310Y64371D01*
X7269Y64325D01*
Y64320D01*
X7259Y64311D01*
X7250Y64297D01*
X7236Y64274D01*
X7218Y64246D01*
X7199Y64214D01*
X7181Y64172D01*
X7162Y64126D01*
X7139Y64070D01*
X7121Y64010D01*
X7102Y63941D01*
X7084Y63867D01*
X7070Y63783D01*
X7060Y63695D01*
X7056Y63598D01*
X7051Y63492D01*
Y63487D01*
Y63464D01*
Y63432D01*
X7056Y63395D01*
Y63344D01*
X7065Y63284D01*
X7070Y63223D01*
X7079Y63154D01*
X7107Y63011D01*
X7144Y62867D01*
X7167Y62798D01*
X7199Y62733D01*
X7232Y62673D01*
X7269Y62622D01*
X7273Y62617D01*
X7278Y62613D01*
X7292Y62599D01*
X7310Y62580D01*
X7357Y62543D01*
X7421Y62497D01*
X7500Y62446D01*
X7597Y62409D01*
X7708Y62377D01*
X7768Y62372D01*
X7833Y62367D01*
X7856D01*
X7875Y62372D01*
X7926Y62377D01*
X7986Y62386D01*
X8051Y62409D01*
X8125Y62437D01*
X8199Y62474D01*
X8273Y62529D01*
X8282Y62539D01*
X8305Y62562D01*
X8338Y62599D01*
X8375Y62654D01*
X8421Y62728D01*
X8463Y62816D01*
X8504Y62923D01*
X8541Y63048D01*
X9171Y62853D01*
Y62849D01*
X9166Y62830D01*
X9157Y62802D01*
X9143Y62765D01*
X9124Y62724D01*
X9106Y62673D01*
X9083Y62617D01*
X9055Y62557D01*
X8990Y62432D01*
X8907Y62302D01*
X8805Y62178D01*
X8750Y62122D01*
X8689Y62071D01*
X8685Y62066D01*
X8676Y62062D01*
X8657Y62048D01*
X8629Y62029D01*
X8597Y62011D01*
X8555Y61992D01*
X8509Y61969D01*
X8458Y61946D01*
X8398Y61918D01*
X8333Y61895D01*
X8264Y61877D01*
X8190Y61858D01*
X8111Y61840D01*
X8023Y61826D01*
X7935Y61821D01*
X7838Y61817D01*
X7810D01*
X7778Y61821D01*
X7731Y61826D01*
X7681Y61830D01*
X7616Y61840D01*
X7546Y61854D01*
X7468Y61872D01*
X7389Y61895D01*
X7306Y61923D01*
X7218Y61960D01*
X7130Y62002D01*
X7042Y62048D01*
X6954Y62108D01*
X6871Y62173D01*
X6792Y62252D01*
X6787Y62256D01*
X6773Y62270D01*
X6755Y62298D01*
X6727Y62330D01*
X6699Y62377D01*
X6662Y62427D01*
X6625Y62492D01*
X6588Y62566D01*
X6551Y62645D01*
X6514Y62733D01*
X6477Y62835D01*
X6450Y62941D01*
X6422Y63052D01*
X6403Y63177D01*
X6389Y63307D01*
X6385Y63446D01*
Y63450D01*
Y63455D01*
Y63483D01*
X6389Y63524D01*
Y63580D01*
X6399Y63645D01*
X6408Y63723D01*
X6417Y63807D01*
X6436Y63904D01*
X6459Y64001D01*
X6487Y64103D01*
X6519Y64205D01*
X6561Y64311D01*
X6607Y64413D01*
X6662Y64510D01*
X6723Y64603D01*
X6797Y64690D01*
X6801Y64695D01*
X6815Y64709D01*
X6838Y64732D01*
X6871Y64760D01*
X6912Y64792D01*
X6963Y64829D01*
X7019Y64871D01*
X7088Y64913D01*
X7162Y64954D01*
X7241Y64996D01*
X7333Y65033D01*
X7426Y65065D01*
X7532Y65093D01*
X7639Y65116D01*
X7759Y65130D01*
X7880Y65135D01*
X7935D01*
X7977Y65130D01*
D02*
G37*
G36*
X12290Y61872D02*
X11642D01*
Y63274D01*
X10379D01*
Y61872D01*
X9731D01*
Y65075D01*
X10379D01*
Y63816D01*
X11642D01*
Y65075D01*
X12290D01*
Y61872D01*
D02*
G37*
G36*
X13956Y65088D02*
X13998Y65084D01*
X14044Y65079D01*
X14095Y65070D01*
X14150Y65061D01*
X14271Y65028D01*
X14391Y64982D01*
X14456Y64954D01*
X14511Y64922D01*
X14571Y64880D01*
X14622Y64834D01*
X14627Y64829D01*
X14636Y64825D01*
X14645Y64806D01*
X14664Y64788D01*
X14687Y64765D01*
X14710Y64732D01*
X14733Y64700D01*
X14761Y64658D01*
X14807Y64566D01*
X14854Y64459D01*
X14872Y64399D01*
X14882Y64334D01*
X14891Y64265D01*
X14895Y64195D01*
Y64186D01*
Y64158D01*
X14891Y64117D01*
X14886Y64066D01*
X14877Y64001D01*
X14863Y63931D01*
X14844Y63857D01*
X14817Y63783D01*
X14812Y63774D01*
X14803Y63751D01*
X14784Y63709D01*
X14757Y63658D01*
X14724Y63598D01*
X14682Y63529D01*
X14632Y63455D01*
X14571Y63376D01*
X14567Y63372D01*
X14548Y63348D01*
X14521Y63316D01*
X14479Y63270D01*
X14423Y63214D01*
X14354Y63140D01*
X14271Y63061D01*
X14169Y62964D01*
X14164Y62960D01*
X14155Y62955D01*
X14141Y62941D01*
X14123Y62923D01*
X14072Y62876D01*
X14011Y62821D01*
X13951Y62761D01*
X13891Y62700D01*
X13836Y62650D01*
X13817Y62626D01*
X13799Y62608D01*
X13794Y62603D01*
X13785Y62594D01*
X13771Y62576D01*
X13752Y62552D01*
X13711Y62501D01*
X13674Y62441D01*
X14895D01*
Y61872D01*
X12743D01*
Y61877D01*
Y61886D01*
X12748Y61904D01*
X12753Y61928D01*
X12757Y61955D01*
X12762Y61988D01*
X12780Y62071D01*
X12808Y62164D01*
X12845Y62265D01*
X12892Y62377D01*
X12952Y62483D01*
Y62488D01*
X12961Y62497D01*
X12970Y62515D01*
X12989Y62534D01*
X13007Y62566D01*
X13035Y62599D01*
X13067Y62640D01*
X13104Y62687D01*
X13146Y62742D01*
X13197Y62798D01*
X13252Y62862D01*
X13317Y62932D01*
X13387Y63001D01*
X13465Y63080D01*
X13549Y63163D01*
X13641Y63251D01*
X13646Y63256D01*
X13660Y63270D01*
X13678Y63288D01*
X13706Y63316D01*
X13743Y63344D01*
X13780Y63381D01*
X13863Y63464D01*
X13947Y63552D01*
X14030Y63640D01*
X14067Y63677D01*
X14104Y63719D01*
X14132Y63751D01*
X14150Y63779D01*
X14155Y63788D01*
X14169Y63811D01*
X14192Y63848D01*
X14215Y63899D01*
X14238Y63955D01*
X14261Y64019D01*
X14275Y64084D01*
X14280Y64154D01*
Y64158D01*
Y64163D01*
Y64186D01*
X14275Y64228D01*
X14266Y64274D01*
X14252Y64325D01*
X14234Y64376D01*
X14206Y64427D01*
X14169Y64473D01*
X14164Y64478D01*
X14150Y64491D01*
X14123Y64510D01*
X14090Y64528D01*
X14044Y64547D01*
X13993Y64566D01*
X13933Y64579D01*
X13863Y64584D01*
X13831D01*
X13794Y64579D01*
X13752Y64570D01*
X13701Y64556D01*
X13650Y64533D01*
X13600Y64505D01*
X13553Y64468D01*
X13549Y64464D01*
X13535Y64445D01*
X13516Y64417D01*
X13498Y64376D01*
X13475Y64325D01*
X13456Y64255D01*
X13438Y64177D01*
X13428Y64084D01*
X12817Y64144D01*
Y64149D01*
X12822Y64168D01*
Y64191D01*
X12831Y64228D01*
X12836Y64269D01*
X12850Y64316D01*
X12864Y64367D01*
X12878Y64427D01*
X12924Y64542D01*
X12979Y64663D01*
X13016Y64723D01*
X13058Y64778D01*
X13104Y64825D01*
X13155Y64871D01*
X13160Y64876D01*
X13169Y64880D01*
X13183Y64889D01*
X13206Y64908D01*
X13234Y64922D01*
X13271Y64940D01*
X13308Y64964D01*
X13354Y64982D01*
X13405Y65005D01*
X13461Y65024D01*
X13581Y65061D01*
X13725Y65084D01*
X13799Y65088D01*
X13877Y65093D01*
X13924D01*
X13956Y65088D01*
D02*
G37*
G36*
X24177Y65132D02*
X24228Y65128D01*
X24284Y65119D01*
X24348Y65109D01*
X24418Y65095D01*
X24492Y65077D01*
X24571Y65054D01*
X24649Y65026D01*
X24733Y64989D01*
X24811Y64952D01*
X24885Y64906D01*
X24964Y64850D01*
X25033Y64790D01*
X25038D01*
X25043Y64781D01*
X25057Y64767D01*
X25070Y64753D01*
X25089Y64730D01*
X25107Y64702D01*
X25158Y64637D01*
X25209Y64554D01*
X25265Y64452D01*
X25316Y64336D01*
X25362Y64202D01*
X24723Y64049D01*
Y64054D01*
X24719Y64059D01*
Y64073D01*
X24709Y64091D01*
X24696Y64133D01*
X24672Y64188D01*
X24640Y64253D01*
X24598Y64318D01*
X24543Y64383D01*
X24483Y64438D01*
X24473Y64443D01*
X24450Y64461D01*
X24413Y64485D01*
X24362Y64512D01*
X24298Y64540D01*
X24224Y64563D01*
X24140Y64582D01*
X24048Y64586D01*
X24015D01*
X23988Y64582D01*
X23960Y64577D01*
X23923Y64572D01*
X23844Y64554D01*
X23752Y64522D01*
X23654Y64475D01*
X23603Y64448D01*
X23557Y64415D01*
X23511Y64373D01*
X23469Y64327D01*
Y64323D01*
X23460Y64313D01*
X23451Y64299D01*
X23437Y64276D01*
X23418Y64248D01*
X23400Y64216D01*
X23381Y64174D01*
X23363Y64128D01*
X23340Y64073D01*
X23321Y64012D01*
X23303Y63943D01*
X23284Y63869D01*
X23270Y63786D01*
X23261Y63698D01*
X23256Y63601D01*
X23252Y63494D01*
Y63490D01*
Y63466D01*
Y63434D01*
X23256Y63397D01*
Y63346D01*
X23266Y63286D01*
X23270Y63226D01*
X23279Y63156D01*
X23307Y63013D01*
X23344Y62869D01*
X23367Y62800D01*
X23400Y62735D01*
X23432Y62675D01*
X23469Y62624D01*
X23474Y62619D01*
X23478Y62615D01*
X23492Y62601D01*
X23511Y62582D01*
X23557Y62545D01*
X23622Y62499D01*
X23701Y62448D01*
X23798Y62411D01*
X23909Y62379D01*
X23969Y62374D01*
X24034Y62370D01*
X24057D01*
X24075Y62374D01*
X24126Y62379D01*
X24187Y62388D01*
X24251Y62411D01*
X24325Y62439D01*
X24399Y62476D01*
X24473Y62532D01*
X24483Y62541D01*
X24506Y62564D01*
X24538Y62601D01*
X24575Y62657D01*
X24622Y62731D01*
X24663Y62818D01*
X24705Y62925D01*
X24742Y63050D01*
X25371Y62856D01*
Y62851D01*
X25367Y62832D01*
X25357Y62805D01*
X25344Y62768D01*
X25325Y62726D01*
X25306Y62675D01*
X25283Y62619D01*
X25256Y62559D01*
X25191Y62434D01*
X25107Y62305D01*
X25006Y62180D01*
X24950Y62124D01*
X24890Y62073D01*
X24885Y62069D01*
X24876Y62064D01*
X24858Y62050D01*
X24830Y62032D01*
X24797Y62013D01*
X24756Y61995D01*
X24709Y61972D01*
X24659Y61948D01*
X24598Y61921D01*
X24534Y61898D01*
X24464Y61879D01*
X24390Y61861D01*
X24311Y61842D01*
X24224Y61828D01*
X24136Y61823D01*
X24038Y61819D01*
X24011D01*
X23978Y61823D01*
X23932Y61828D01*
X23881Y61833D01*
X23816Y61842D01*
X23747Y61856D01*
X23668Y61874D01*
X23590Y61898D01*
X23506Y61925D01*
X23418Y61962D01*
X23330Y62004D01*
X23242Y62050D01*
X23155Y62110D01*
X23071Y62175D01*
X22993Y62254D01*
X22988Y62259D01*
X22974Y62272D01*
X22956Y62300D01*
X22928Y62333D01*
X22900Y62379D01*
X22863Y62430D01*
X22826Y62495D01*
X22789Y62569D01*
X22752Y62647D01*
X22715Y62735D01*
X22678Y62837D01*
X22650Y62943D01*
X22622Y63055D01*
X22604Y63179D01*
X22590Y63309D01*
X22585Y63448D01*
Y63453D01*
Y63457D01*
Y63485D01*
X22590Y63527D01*
Y63582D01*
X22599Y63647D01*
X22608Y63726D01*
X22618Y63809D01*
X22636Y63906D01*
X22659Y64003D01*
X22687Y64105D01*
X22719Y64207D01*
X22761Y64313D01*
X22807Y64415D01*
X22863Y64512D01*
X22923Y64605D01*
X22997Y64693D01*
X23002Y64697D01*
X23016Y64711D01*
X23039Y64734D01*
X23071Y64762D01*
X23113Y64795D01*
X23164Y64832D01*
X23219Y64873D01*
X23289Y64915D01*
X23363Y64957D01*
X23441Y64998D01*
X23534Y65035D01*
X23627Y65068D01*
X23733Y65095D01*
X23839Y65119D01*
X23960Y65132D01*
X24080Y65137D01*
X24136D01*
X24177Y65132D01*
D02*
G37*
G36*
X28490Y61874D02*
X27843D01*
Y63277D01*
X26579D01*
Y61874D01*
X25931D01*
Y65077D01*
X26579D01*
Y63818D01*
X27843D01*
Y65077D01*
X28490D01*
Y61874D01*
D02*
G37*
G36*
X30106Y65091D02*
X30147Y65086D01*
X30189Y65082D01*
X30240Y65072D01*
X30291Y65058D01*
X30406Y65026D01*
X30467Y65003D01*
X30531Y64970D01*
X30592Y64938D01*
X30647Y64901D01*
X30707Y64855D01*
X30758Y64804D01*
X30763Y64799D01*
X30767Y64795D01*
X30781Y64781D01*
X30795Y64762D01*
X30832Y64716D01*
X30874Y64651D01*
X30915Y64572D01*
X30948Y64480D01*
X30976Y64378D01*
X30980Y64327D01*
X30985Y64272D01*
Y64267D01*
Y64253D01*
X30980Y64230D01*
X30976Y64202D01*
X30971Y64165D01*
X30962Y64124D01*
X30948Y64077D01*
X30929Y64026D01*
X30902Y63975D01*
X30874Y63920D01*
X30837Y63864D01*
X30791Y63809D01*
X30735Y63753D01*
X30675Y63698D01*
X30605Y63647D01*
X30522Y63596D01*
X30527D01*
X30536Y63591D01*
X30550D01*
X30568Y63582D01*
X30619Y63568D01*
X30679Y63540D01*
X30749Y63503D01*
X30823Y63457D01*
X30897Y63397D01*
X30962Y63328D01*
X30971Y63318D01*
X30990Y63291D01*
X31013Y63249D01*
X31045Y63189D01*
X31077Y63119D01*
X31101Y63031D01*
X31119Y62939D01*
X31128Y62832D01*
Y62828D01*
Y62814D01*
Y62791D01*
X31124Y62763D01*
X31119Y62726D01*
X31110Y62684D01*
X31101Y62633D01*
X31091Y62582D01*
X31054Y62471D01*
X31027Y62411D01*
X30999Y62346D01*
X30962Y62286D01*
X30920Y62226D01*
X30874Y62166D01*
X30818Y62110D01*
X30814Y62106D01*
X30804Y62097D01*
X30786Y62083D01*
X30763Y62064D01*
X30730Y62041D01*
X30698Y62018D01*
X30652Y61990D01*
X30605Y61962D01*
X30554Y61935D01*
X30494Y61907D01*
X30430Y61884D01*
X30365Y61861D01*
X30291Y61842D01*
X30217Y61828D01*
X30133Y61819D01*
X30050Y61814D01*
X30008D01*
X29976Y61819D01*
X29939Y61823D01*
X29897Y61828D01*
X29851Y61837D01*
X29796Y61847D01*
X29684Y61874D01*
X29564Y61921D01*
X29499Y61948D01*
X29444Y61981D01*
X29384Y62022D01*
X29328Y62064D01*
X29323Y62069D01*
X29314Y62078D01*
X29300Y62092D01*
X29282Y62110D01*
X29259Y62134D01*
X29236Y62166D01*
X29208Y62198D01*
X29180Y62240D01*
X29152Y62286D01*
X29120Y62333D01*
X29069Y62444D01*
X29027Y62573D01*
X29009Y62643D01*
X29000Y62717D01*
X29592Y62791D01*
Y62786D01*
Y62781D01*
X29597Y62754D01*
X29606Y62712D01*
X29620Y62661D01*
X29643Y62606D01*
X29666Y62545D01*
X29703Y62490D01*
X29745Y62439D01*
X29749Y62434D01*
X29768Y62420D01*
X29796Y62402D01*
X29828Y62383D01*
X29874Y62360D01*
X29925Y62342D01*
X29981Y62328D01*
X30045Y62323D01*
X30055D01*
X30078Y62328D01*
X30110Y62333D01*
X30156Y62342D01*
X30207Y62360D01*
X30258Y62383D01*
X30314Y62420D01*
X30365Y62467D01*
X30369Y62471D01*
X30388Y62495D01*
X30406Y62527D01*
X30434Y62569D01*
X30457Y62624D01*
X30480Y62694D01*
X30494Y62772D01*
X30499Y62860D01*
Y62865D01*
Y62869D01*
Y62897D01*
X30494Y62939D01*
X30485Y62994D01*
X30467Y63055D01*
X30443Y63115D01*
X30411Y63175D01*
X30369Y63230D01*
X30365Y63235D01*
X30346Y63254D01*
X30318Y63277D01*
X30286Y63300D01*
X30240Y63328D01*
X30189Y63346D01*
X30133Y63365D01*
X30069Y63369D01*
X30022D01*
X29990Y63365D01*
X29948Y63360D01*
X29897Y63351D01*
X29846Y63337D01*
X29786Y63323D01*
X29851Y63818D01*
X29893D01*
X29939Y63823D01*
X29995Y63827D01*
X30055Y63841D01*
X30119Y63860D01*
X30180Y63888D01*
X30235Y63925D01*
X30240Y63929D01*
X30258Y63948D01*
X30277Y63971D01*
X30305Y64008D01*
X30328Y64049D01*
X30351Y64100D01*
X30365Y64161D01*
X30369Y64230D01*
Y64239D01*
Y64258D01*
X30365Y64286D01*
X30355Y64323D01*
X30346Y64364D01*
X30328Y64406D01*
X30305Y64452D01*
X30272Y64489D01*
X30268Y64494D01*
X30254Y64503D01*
X30235Y64522D01*
X30203Y64540D01*
X30166Y64554D01*
X30124Y64572D01*
X30069Y64582D01*
X30013Y64586D01*
X29985D01*
X29957Y64582D01*
X29920Y64572D01*
X29879Y64559D01*
X29833Y64540D01*
X29786Y64512D01*
X29745Y64475D01*
X29740Y64471D01*
X29726Y64457D01*
X29708Y64429D01*
X29684Y64392D01*
X29661Y64350D01*
X29643Y64295D01*
X29624Y64230D01*
X29610Y64156D01*
X29046Y64248D01*
Y64253D01*
X29050Y64262D01*
Y64276D01*
X29055Y64299D01*
X29069Y64350D01*
X29087Y64420D01*
X29115Y64494D01*
X29143Y64572D01*
X29180Y64646D01*
X29222Y64716D01*
X29226Y64725D01*
X29245Y64744D01*
X29273Y64776D01*
X29310Y64818D01*
X29356Y64859D01*
X29411Y64906D01*
X29481Y64952D01*
X29555Y64994D01*
X29559D01*
X29564Y64998D01*
X29592Y65007D01*
X29638Y65026D01*
X29694Y65045D01*
X29763Y65063D01*
X29846Y65082D01*
X29934Y65091D01*
X30032Y65095D01*
X30073D01*
X30106Y65091D01*
D02*
G37*
G36*
X46457Y65093D02*
X46489D01*
X46526Y65088D01*
X46609Y65070D01*
X46702Y65047D01*
X46804Y65010D01*
X46905Y64959D01*
X46952Y64926D01*
X46998Y64889D01*
X47003D01*
X47007Y64880D01*
X47021Y64866D01*
X47035Y64852D01*
X47058Y64829D01*
X47077Y64806D01*
X47128Y64741D01*
X47179Y64653D01*
X47229Y64552D01*
X47276Y64436D01*
X47308Y64297D01*
X46716Y64232D01*
Y64242D01*
X46711Y64260D01*
X46702Y64292D01*
X46693Y64334D01*
X46679Y64376D01*
X46656Y64422D01*
X46632Y64464D01*
X46600Y64501D01*
X46595Y64505D01*
X46582Y64515D01*
X46563Y64528D01*
X46535Y64547D01*
X46503Y64561D01*
X46461Y64575D01*
X46410Y64584D01*
X46359Y64589D01*
X46350D01*
X46327Y64584D01*
X46290Y64579D01*
X46244Y64566D01*
X46193Y64547D01*
X46137Y64515D01*
X46082Y64473D01*
X46031Y64413D01*
X46026Y64404D01*
X46017Y64394D01*
X46008Y64376D01*
X45998Y64357D01*
X45985Y64329D01*
X45975Y64297D01*
X45961Y64255D01*
X45943Y64209D01*
X45929Y64158D01*
X45915Y64098D01*
X45901Y64033D01*
X45887Y63959D01*
X45878Y63876D01*
X45869Y63783D01*
X45860Y63686D01*
X45864Y63691D01*
X45869Y63700D01*
X45883Y63709D01*
X45901Y63728D01*
X45924Y63751D01*
X45952Y63774D01*
X46017Y63825D01*
X46100Y63871D01*
X46197Y63918D01*
X46253Y63936D01*
X46308Y63945D01*
X46369Y63955D01*
X46433Y63959D01*
X46470D01*
X46498Y63955D01*
X46531Y63950D01*
X46568Y63945D01*
X46614Y63936D01*
X46660Y63922D01*
X46762Y63885D01*
X46818Y63862D01*
X46873Y63834D01*
X46929Y63802D01*
X46984Y63760D01*
X47040Y63714D01*
X47091Y63663D01*
X47095Y63658D01*
X47104Y63649D01*
X47118Y63635D01*
X47132Y63612D01*
X47155Y63580D01*
X47179Y63547D01*
X47202Y63506D01*
X47229Y63459D01*
X47257Y63409D01*
X47280Y63348D01*
X47303Y63288D01*
X47327Y63219D01*
X47340Y63149D01*
X47354Y63071D01*
X47364Y62992D01*
X47368Y62904D01*
Y62899D01*
Y62881D01*
Y62858D01*
X47364Y62821D01*
X47359Y62779D01*
X47354Y62733D01*
X47345Y62677D01*
X47331Y62622D01*
X47299Y62492D01*
X47276Y62427D01*
X47243Y62363D01*
X47211Y62298D01*
X47174Y62233D01*
X47128Y62168D01*
X47077Y62113D01*
X47072Y62108D01*
X47063Y62099D01*
X47049Y62085D01*
X47026Y62066D01*
X46998Y62043D01*
X46961Y62020D01*
X46924Y61992D01*
X46878Y61965D01*
X46827Y61937D01*
X46771Y61909D01*
X46711Y61886D01*
X46642Y61863D01*
X46572Y61844D01*
X46498Y61830D01*
X46420Y61821D01*
X46336Y61817D01*
X46313D01*
X46290Y61821D01*
X46258D01*
X46216Y61830D01*
X46165Y61835D01*
X46114Y61849D01*
X46054Y61863D01*
X45994Y61881D01*
X45929Y61909D01*
X45860Y61937D01*
X45795Y61974D01*
X45725Y62016D01*
X45661Y62066D01*
X45596Y62127D01*
X45536Y62191D01*
X45531Y62196D01*
X45522Y62210D01*
X45508Y62233D01*
X45489Y62265D01*
X45462Y62307D01*
X45438Y62358D01*
X45411Y62418D01*
X45383Y62488D01*
X45350Y62571D01*
X45323Y62659D01*
X45300Y62761D01*
X45276Y62876D01*
X45253Y62997D01*
X45239Y63131D01*
X45230Y63274D01*
X45226Y63432D01*
Y63436D01*
Y63441D01*
Y63455D01*
Y63469D01*
Y63515D01*
X45230Y63575D01*
X45235Y63649D01*
X45244Y63732D01*
X45253Y63825D01*
X45267Y63922D01*
X45281Y64024D01*
X45304Y64130D01*
X45332Y64237D01*
X45364Y64343D01*
X45401Y64441D01*
X45443Y64538D01*
X45494Y64626D01*
X45549Y64704D01*
X45554Y64709D01*
X45563Y64723D01*
X45582Y64741D01*
X45610Y64765D01*
X45642Y64797D01*
X45679Y64829D01*
X45725Y64866D01*
X45776Y64903D01*
X45836Y64936D01*
X45897Y64973D01*
X45971Y65005D01*
X46045Y65038D01*
X46123Y65061D01*
X46211Y65079D01*
X46299Y65093D01*
X46396Y65098D01*
X46433D01*
X46457Y65093D01*
D02*
G37*
G36*
X40380Y65135D02*
X40431Y65130D01*
X40487Y65121D01*
X40551Y65112D01*
X40621Y65098D01*
X40695Y65079D01*
X40774Y65056D01*
X40852Y65028D01*
X40936Y64991D01*
X41014Y64954D01*
X41088Y64908D01*
X41167Y64852D01*
X41236Y64792D01*
X41241D01*
X41246Y64783D01*
X41259Y64769D01*
X41273Y64755D01*
X41292Y64732D01*
X41310Y64704D01*
X41361Y64640D01*
X41412Y64556D01*
X41468Y64454D01*
X41519Y64339D01*
X41565Y64205D01*
X40926Y64052D01*
Y64056D01*
X40922Y64061D01*
Y64075D01*
X40912Y64093D01*
X40898Y64135D01*
X40875Y64191D01*
X40843Y64255D01*
X40801Y64320D01*
X40746Y64385D01*
X40686Y64441D01*
X40676Y64445D01*
X40653Y64464D01*
X40616Y64487D01*
X40565Y64515D01*
X40500Y64542D01*
X40426Y64566D01*
X40343Y64584D01*
X40251Y64589D01*
X40218D01*
X40190Y64584D01*
X40163Y64579D01*
X40126Y64575D01*
X40047Y64556D01*
X39954Y64524D01*
X39857Y64478D01*
X39806Y64450D01*
X39760Y64417D01*
X39714Y64376D01*
X39672Y64329D01*
Y64325D01*
X39663Y64316D01*
X39654Y64302D01*
X39640Y64279D01*
X39621Y64251D01*
X39603Y64218D01*
X39584Y64177D01*
X39566Y64130D01*
X39543Y64075D01*
X39524Y64015D01*
X39505Y63945D01*
X39487Y63871D01*
X39473Y63788D01*
X39464Y63700D01*
X39459Y63603D01*
X39455Y63496D01*
Y63492D01*
Y63469D01*
Y63436D01*
X39459Y63399D01*
Y63348D01*
X39468Y63288D01*
X39473Y63228D01*
X39482Y63159D01*
X39510Y63015D01*
X39547Y62872D01*
X39570Y62802D01*
X39603Y62737D01*
X39635Y62677D01*
X39672Y62626D01*
X39677Y62622D01*
X39681Y62617D01*
X39695Y62603D01*
X39714Y62585D01*
X39760Y62548D01*
X39825Y62501D01*
X39903Y62451D01*
X40001Y62414D01*
X40112Y62381D01*
X40172Y62377D01*
X40237Y62372D01*
X40260D01*
X40278Y62377D01*
X40329Y62381D01*
X40389Y62390D01*
X40454Y62414D01*
X40528Y62441D01*
X40602Y62478D01*
X40676Y62534D01*
X40686Y62543D01*
X40709Y62566D01*
X40741Y62603D01*
X40778Y62659D01*
X40824Y62733D01*
X40866Y62821D01*
X40908Y62927D01*
X40945Y63052D01*
X41574Y62858D01*
Y62853D01*
X41570Y62835D01*
X41560Y62807D01*
X41546Y62770D01*
X41528Y62728D01*
X41509Y62677D01*
X41486Y62622D01*
X41458Y62562D01*
X41394Y62437D01*
X41310Y62307D01*
X41209Y62182D01*
X41153Y62127D01*
X41093Y62076D01*
X41088Y62071D01*
X41079Y62066D01*
X41060Y62053D01*
X41033Y62034D01*
X41000Y62016D01*
X40959Y61997D01*
X40912Y61974D01*
X40861Y61951D01*
X40801Y61923D01*
X40736Y61900D01*
X40667Y61881D01*
X40593Y61863D01*
X40514Y61844D01*
X40426Y61830D01*
X40339Y61826D01*
X40241Y61821D01*
X40214D01*
X40181Y61826D01*
X40135Y61830D01*
X40084Y61835D01*
X40019Y61844D01*
X39950Y61858D01*
X39871Y61877D01*
X39792Y61900D01*
X39709Y61928D01*
X39621Y61965D01*
X39533Y62006D01*
X39445Y62053D01*
X39357Y62113D01*
X39274Y62178D01*
X39195Y62256D01*
X39191Y62261D01*
X39177Y62275D01*
X39158Y62302D01*
X39131Y62335D01*
X39103Y62381D01*
X39066Y62432D01*
X39029Y62497D01*
X38992Y62571D01*
X38955Y62650D01*
X38918Y62737D01*
X38881Y62839D01*
X38853Y62946D01*
X38825Y63057D01*
X38807Y63182D01*
X38793Y63311D01*
X38788Y63450D01*
Y63455D01*
Y63459D01*
Y63487D01*
X38793Y63529D01*
Y63584D01*
X38802Y63649D01*
X38811Y63728D01*
X38821Y63811D01*
X38839Y63908D01*
X38862Y64006D01*
X38890Y64107D01*
X38922Y64209D01*
X38964Y64316D01*
X39010Y64417D01*
X39066Y64515D01*
X39126Y64607D01*
X39200Y64695D01*
X39205Y64700D01*
X39219Y64714D01*
X39242Y64737D01*
X39274Y64765D01*
X39316Y64797D01*
X39367Y64834D01*
X39422Y64876D01*
X39492Y64917D01*
X39566Y64959D01*
X39644Y65001D01*
X39737Y65038D01*
X39829Y65070D01*
X39936Y65098D01*
X40042Y65121D01*
X40163Y65135D01*
X40283Y65139D01*
X40339D01*
X40380Y65135D01*
D02*
G37*
G36*
X44693Y61877D02*
X44045D01*
Y63279D01*
X42782D01*
Y61877D01*
X42134D01*
Y65079D01*
X42782D01*
Y63820D01*
X44045D01*
Y65079D01*
X44693D01*
Y61877D01*
D02*
G37*
G36*
X130061Y77790D02*
Y77785D01*
Y77766D01*
Y77734D01*
Y77697D01*
Y77651D01*
X130056Y77595D01*
Y77535D01*
Y77475D01*
X130047Y77341D01*
X130038Y77202D01*
X130033Y77142D01*
X130024Y77081D01*
X130014Y77026D01*
X130005Y76975D01*
Y76970D01*
X130001Y76966D01*
Y76952D01*
X129996Y76938D01*
X129982Y76892D01*
X129964Y76836D01*
X129936Y76771D01*
X129903Y76707D01*
X129862Y76637D01*
X129811Y76572D01*
X129806Y76563D01*
X129788Y76545D01*
X129755Y76517D01*
X129714Y76480D01*
X129658Y76438D01*
X129593Y76397D01*
X129519Y76350D01*
X129436Y76313D01*
X129431D01*
X129427Y76309D01*
X129413Y76304D01*
X129394Y76299D01*
X129371Y76290D01*
X129343Y76281D01*
X129306Y76272D01*
X129269Y76267D01*
X129181Y76248D01*
X129075Y76230D01*
X128955Y76221D01*
X128820Y76216D01*
X128746D01*
X128705Y76221D01*
X128663D01*
X128612Y76225D01*
X128561Y76230D01*
X128450Y76239D01*
X128335Y76258D01*
X128219Y76285D01*
X128168Y76299D01*
X128122Y76318D01*
X128117D01*
X128112Y76322D01*
X128085Y76336D01*
X128038Y76359D01*
X127987Y76392D01*
X127927Y76434D01*
X127863Y76480D01*
X127802Y76535D01*
X127747Y76596D01*
X127742Y76605D01*
X127724Y76623D01*
X127701Y76660D01*
X127673Y76707D01*
X127645Y76757D01*
X127613Y76818D01*
X127589Y76882D01*
X127566Y76952D01*
Y76956D01*
X127562Y76966D01*
Y76980D01*
X127557Y77003D01*
X127552Y77031D01*
X127548Y77068D01*
X127543Y77109D01*
X127539Y77156D01*
X127529Y77211D01*
X127525Y77271D01*
X127520Y77336D01*
X127515Y77410D01*
X127511Y77489D01*
Y77577D01*
X127506Y77669D01*
Y77766D01*
Y79479D01*
X128154D01*
Y77739D01*
Y77734D01*
Y77720D01*
Y77702D01*
Y77674D01*
Y77637D01*
Y77600D01*
X128159Y77516D01*
Y77424D01*
X128163Y77336D01*
X128168Y77294D01*
Y77257D01*
X128173Y77230D01*
X128177Y77202D01*
Y77193D01*
X128186Y77169D01*
X128200Y77132D01*
X128219Y77086D01*
X128242Y77035D01*
X128279Y76984D01*
X128321Y76929D01*
X128372Y76882D01*
X128381Y76878D01*
X128399Y76864D01*
X128436Y76845D01*
X128483Y76827D01*
X128547Y76804D01*
X128622Y76785D01*
X128705Y76771D01*
X128802Y76767D01*
X128848D01*
X128895Y76771D01*
X128955Y76781D01*
X129024Y76795D01*
X129089Y76813D01*
X129158Y76841D01*
X129214Y76878D01*
X129218Y76882D01*
X129237Y76896D01*
X129260Y76919D01*
X129288Y76952D01*
X129316Y76994D01*
X129343Y77040D01*
X129367Y77091D01*
X129380Y77151D01*
Y77160D01*
X129385Y77183D01*
X129390Y77225D01*
X129399Y77280D01*
Y77317D01*
X129404Y77359D01*
Y77405D01*
X129408Y77452D01*
Y77507D01*
X129413Y77567D01*
Y77632D01*
Y77702D01*
Y79479D01*
X130061D01*
Y77790D01*
D02*
G37*
G36*
X134911Y76276D02*
X134295D01*
Y78595D01*
X134291Y78590D01*
X134281Y78581D01*
X134263Y78567D01*
X134235Y78544D01*
X134203Y78516D01*
X134166Y78488D01*
X134119Y78456D01*
X134069Y78419D01*
X134013Y78382D01*
X133953Y78345D01*
X133888Y78303D01*
X133819Y78266D01*
X133671Y78197D01*
X133504Y78132D01*
Y78687D01*
X133509D01*
X133513Y78692D01*
X133527Y78697D01*
X133546Y78701D01*
X133592Y78724D01*
X133657Y78752D01*
X133735Y78789D01*
X133823Y78840D01*
X133920Y78905D01*
X134022Y78979D01*
X134027Y78984D01*
X134036Y78988D01*
X134050Y79002D01*
X134069Y79021D01*
X134119Y79067D01*
X134175Y79127D01*
X134240Y79201D01*
X134305Y79294D01*
X134365Y79391D01*
X134411Y79497D01*
X134911D01*
Y76276D01*
D02*
G37*
G36*
X133060Y78937D02*
X132116D01*
Y76276D01*
X131468D01*
Y78937D01*
X130519D01*
Y79479D01*
X133060D01*
Y78937D01*
D02*
G37*
G36*
X121198Y76276D02*
X120500D01*
X120222Y77003D01*
X118935D01*
X118672Y76276D01*
X117987D01*
X119227Y79479D01*
X119912D01*
X121198Y76276D01*
D02*
G37*
G36*
X116561Y79474D02*
X116682D01*
X116811Y79465D01*
X116941Y79456D01*
X116996Y79451D01*
X117052Y79446D01*
X117098Y79437D01*
X117135Y79428D01*
X117140D01*
X117149Y79423D01*
X117163Y79419D01*
X117181Y79414D01*
X117232Y79391D01*
X117297Y79363D01*
X117366Y79321D01*
X117445Y79266D01*
X117519Y79196D01*
X117593Y79113D01*
Y79108D01*
X117603Y79104D01*
X117612Y79090D01*
X117621Y79071D01*
X117640Y79044D01*
X117653Y79016D01*
X117672Y78984D01*
X117690Y78946D01*
X117723Y78854D01*
X117755Y78752D01*
X117774Y78627D01*
X117783Y78493D01*
Y78488D01*
Y78479D01*
Y78465D01*
Y78442D01*
X117778Y78419D01*
Y78387D01*
X117769Y78322D01*
X117755Y78243D01*
X117737Y78155D01*
X117709Y78072D01*
X117672Y77993D01*
X117667Y77984D01*
X117653Y77961D01*
X117630Y77924D01*
X117598Y77877D01*
X117561Y77831D01*
X117510Y77776D01*
X117459Y77725D01*
X117399Y77678D01*
X117390Y77674D01*
X117371Y77660D01*
X117339Y77641D01*
X117297Y77618D01*
X117246Y77591D01*
X117191Y77567D01*
X117130Y77544D01*
X117066Y77526D01*
X117056D01*
X117043Y77521D01*
X117024D01*
X117001Y77516D01*
X116968Y77512D01*
X116936Y77507D01*
X116894D01*
X116853Y77503D01*
X116802Y77498D01*
X116746Y77493D01*
X116686Y77489D01*
X116621D01*
X116552Y77484D01*
X115978D01*
Y76276D01*
X115330D01*
Y79479D01*
X116510D01*
X116561Y79474D01*
D02*
G37*
G36*
X125516Y79534D02*
X125562D01*
X125623Y79525D01*
X125692Y79516D01*
X125771Y79502D01*
X125854Y79483D01*
X125942Y79460D01*
X126035Y79432D01*
X126127Y79395D01*
X126224Y79354D01*
X126317Y79303D01*
X126409Y79243D01*
X126497Y79173D01*
X126581Y79095D01*
X126585Y79090D01*
X126599Y79076D01*
X126622Y79048D01*
X126645Y79016D01*
X126678Y78970D01*
X126715Y78914D01*
X126752Y78849D01*
X126793Y78775D01*
X126835Y78697D01*
X126872Y78604D01*
X126909Y78502D01*
X126942Y78396D01*
X126969Y78275D01*
X126988Y78150D01*
X127002Y78016D01*
X127006Y77873D01*
Y77864D01*
Y77840D01*
X127002Y77799D01*
Y77743D01*
X126992Y77678D01*
X126983Y77604D01*
X126969Y77516D01*
X126955Y77429D01*
X126932Y77331D01*
X126905Y77230D01*
X126868Y77128D01*
X126826Y77026D01*
X126780Y76929D01*
X126719Y76832D01*
X126655Y76739D01*
X126581Y76651D01*
X126576Y76646D01*
X126562Y76633D01*
X126539Y76609D01*
X126502Y76582D01*
X126460Y76549D01*
X126409Y76512D01*
X126349Y76475D01*
X126284Y76434D01*
X126206Y76392D01*
X126122Y76355D01*
X126030Y76318D01*
X125928Y76285D01*
X125822Y76258D01*
X125706Y76235D01*
X125586Y76221D01*
X125456Y76216D01*
X125424D01*
X125387Y76221D01*
X125340Y76225D01*
X125280Y76230D01*
X125211Y76239D01*
X125132Y76253D01*
X125049Y76272D01*
X124956Y76295D01*
X124868Y76322D01*
X124771Y76359D01*
X124679Y76401D01*
X124581Y76447D01*
X124493Y76508D01*
X124406Y76572D01*
X124322Y76651D01*
X124318Y76656D01*
X124304Y76670D01*
X124285Y76697D01*
X124257Y76730D01*
X124225Y76776D01*
X124188Y76832D01*
X124151Y76892D01*
X124114Y76966D01*
X124072Y77044D01*
X124035Y77137D01*
X123998Y77234D01*
X123966Y77341D01*
X123938Y77456D01*
X123920Y77581D01*
X123906Y77715D01*
X123901Y77854D01*
Y77859D01*
Y77877D01*
Y77901D01*
X123906Y77938D01*
Y77979D01*
X123910Y78026D01*
X123915Y78081D01*
X123920Y78141D01*
X123938Y78271D01*
X123961Y78410D01*
X123998Y78548D01*
X124045Y78678D01*
Y78683D01*
X124049Y78687D01*
X124058Y78701D01*
X124063Y78720D01*
X124091Y78766D01*
X124123Y78826D01*
X124165Y78896D01*
X124216Y78965D01*
X124276Y79044D01*
X124341Y79118D01*
X124345Y79122D01*
X124350Y79127D01*
X124373Y79150D01*
X124415Y79187D01*
X124466Y79229D01*
X124526Y79275D01*
X124595Y79326D01*
X124674Y79372D01*
X124757Y79409D01*
X124762D01*
X124771Y79414D01*
X124790Y79423D01*
X124813Y79428D01*
X124841Y79442D01*
X124873Y79451D01*
X124915Y79460D01*
X124956Y79474D01*
X125058Y79497D01*
X125174Y79520D01*
X125308Y79534D01*
X125447Y79539D01*
X125479D01*
X125516Y79534D01*
D02*
G37*
G36*
X123730Y75392D02*
X121175D01*
Y75790D01*
X123730D01*
Y75392D01*
D02*
G37*
G36*
X91023Y76267D02*
X90375D01*
X89075Y78377D01*
Y76267D01*
X88478D01*
Y79469D01*
X89102D01*
X90426Y77313D01*
Y79469D01*
X91023D01*
Y76267D01*
D02*
G37*
G36*
X81323D02*
X80675D01*
X79375Y78377D01*
Y76267D01*
X78778D01*
Y79469D01*
X79402D01*
X80726Y77313D01*
Y79469D01*
X81323D01*
Y76267D01*
D02*
G37*
G36*
X93138D02*
X92522D01*
Y78586D01*
X92518Y78581D01*
X92508Y78572D01*
X92490Y78558D01*
X92462Y78535D01*
X92430Y78507D01*
X92393Y78479D01*
X92347Y78447D01*
X92296Y78410D01*
X92240Y78373D01*
X92180Y78336D01*
X92115Y78294D01*
X92046Y78257D01*
X91898Y78188D01*
X91731Y78123D01*
Y78678D01*
X91736D01*
X91740Y78683D01*
X91754Y78687D01*
X91773Y78692D01*
X91819Y78715D01*
X91884Y78743D01*
X91962Y78780D01*
X92050Y78831D01*
X92148Y78896D01*
X92249Y78970D01*
X92254Y78974D01*
X92263Y78979D01*
X92277Y78993D01*
X92296Y79011D01*
X92347Y79058D01*
X92402Y79118D01*
X92467Y79192D01*
X92532Y79284D01*
X92592Y79382D01*
X92638Y79488D01*
X93138D01*
Y76267D01*
D02*
G37*
G36*
X87857D02*
X87210D01*
Y79469D01*
X87857D01*
Y76267D01*
D02*
G37*
G36*
X84322Y78928D02*
X83378D01*
Y76267D01*
X82730D01*
Y78928D01*
X81781D01*
Y79469D01*
X84322D01*
Y78928D01*
D02*
G37*
G36*
X78430Y76267D02*
X77732D01*
X77454Y76994D01*
X76167D01*
X75904Y76267D01*
X75219D01*
X76459Y79469D01*
X77144D01*
X78430Y76267D01*
D02*
G37*
G36*
X86927Y75383D02*
X84373D01*
Y75781D01*
X86927D01*
Y75383D01*
D02*
G37*
G36*
X67750Y76267D02*
X67102D01*
X65801Y78377D01*
Y76267D01*
X65204D01*
Y79469D01*
X65829D01*
X67153Y77313D01*
Y79469D01*
X67750D01*
Y76267D01*
D02*
G37*
G36*
X69865D02*
X69249D01*
Y78586D01*
X69244Y78581D01*
X69235Y78572D01*
X69217Y78558D01*
X69189Y78535D01*
X69156Y78507D01*
X69119Y78479D01*
X69073Y78447D01*
X69022Y78410D01*
X68967Y78373D01*
X68907Y78336D01*
X68842Y78294D01*
X68772Y78257D01*
X68624Y78188D01*
X68458Y78123D01*
Y78678D01*
X68462D01*
X68467Y78683D01*
X68481Y78687D01*
X68499Y78692D01*
X68546Y78715D01*
X68610Y78743D01*
X68689Y78780D01*
X68777Y78831D01*
X68874Y78896D01*
X68976Y78970D01*
X68981Y78974D01*
X68990Y78979D01*
X69004Y78993D01*
X69022Y79011D01*
X69073Y79058D01*
X69129Y79118D01*
X69193Y79192D01*
X69258Y79284D01*
X69318Y79382D01*
X69365Y79488D01*
X69865D01*
Y76267D01*
D02*
G37*
G36*
X64584D02*
X63936D01*
Y79469D01*
X64584D01*
Y76267D01*
D02*
G37*
G36*
X61122D02*
X60424D01*
X60146Y76994D01*
X58859D01*
X58596Y76267D01*
X57911D01*
X59151Y79469D01*
X59836D01*
X61122Y76267D01*
D02*
G37*
G36*
X56485Y79465D02*
X56606D01*
X56735Y79456D01*
X56865Y79446D01*
X56920Y79442D01*
X56976Y79437D01*
X57022Y79428D01*
X57059Y79419D01*
X57064D01*
X57073Y79414D01*
X57087Y79409D01*
X57105Y79405D01*
X57156Y79382D01*
X57221Y79354D01*
X57291Y79312D01*
X57369Y79257D01*
X57443Y79187D01*
X57517Y79104D01*
Y79099D01*
X57527Y79095D01*
X57536Y79081D01*
X57545Y79062D01*
X57564Y79034D01*
X57578Y79007D01*
X57596Y78974D01*
X57615Y78937D01*
X57647Y78845D01*
X57679Y78743D01*
X57698Y78618D01*
X57707Y78484D01*
Y78479D01*
Y78470D01*
Y78456D01*
Y78433D01*
X57702Y78410D01*
Y78377D01*
X57693Y78312D01*
X57679Y78234D01*
X57661Y78146D01*
X57633Y78063D01*
X57596Y77984D01*
X57591Y77975D01*
X57578Y77951D01*
X57554Y77914D01*
X57522Y77868D01*
X57485Y77822D01*
X57434Y77766D01*
X57383Y77715D01*
X57323Y77669D01*
X57314Y77665D01*
X57295Y77651D01*
X57263Y77632D01*
X57221Y77609D01*
X57170Y77581D01*
X57115Y77558D01*
X57055Y77535D01*
X56990Y77516D01*
X56981D01*
X56967Y77512D01*
X56948D01*
X56925Y77507D01*
X56893Y77503D01*
X56860Y77498D01*
X56819D01*
X56777Y77493D01*
X56726Y77489D01*
X56670Y77484D01*
X56610Y77479D01*
X56546D01*
X56476Y77475D01*
X55902D01*
Y76267D01*
X55254D01*
Y79469D01*
X56434D01*
X56485Y79465D01*
D02*
G37*
G36*
X63654Y75383D02*
X61099D01*
Y75781D01*
X63654D01*
Y75383D01*
D02*
G37*
G36*
X189833Y11462D02*
X189884Y11458D01*
X189939Y11448D01*
X190004Y11439D01*
X190074Y11425D01*
X190148Y11407D01*
X190226Y11384D01*
X190305Y11356D01*
X190388Y11319D01*
X190467Y11282D01*
X190541Y11235D01*
X190620Y11180D01*
X190689Y11120D01*
X190694D01*
X190698Y11111D01*
X190712Y11097D01*
X190726Y11083D01*
X190745Y11060D01*
X190763Y11032D01*
X190814Y10967D01*
X190865Y10884D01*
X190920Y10782D01*
X190971Y10666D01*
X191018Y10532D01*
X190379Y10379D01*
Y10384D01*
X190374Y10389D01*
Y10402D01*
X190365Y10421D01*
X190351Y10463D01*
X190328Y10518D01*
X190296Y10583D01*
X190254Y10648D01*
X190198Y10713D01*
X190138Y10768D01*
X190129Y10773D01*
X190106Y10791D01*
X190069Y10814D01*
X190018Y10842D01*
X189953Y10870D01*
X189879Y10893D01*
X189796Y10912D01*
X189703Y10916D01*
X189671D01*
X189643Y10912D01*
X189615Y10907D01*
X189578Y10902D01*
X189500Y10884D01*
X189407Y10851D01*
X189310Y10805D01*
X189259Y10777D01*
X189213Y10745D01*
X189166Y10703D01*
X189125Y10657D01*
Y10652D01*
X189116Y10643D01*
X189106Y10629D01*
X189092Y10606D01*
X189074Y10578D01*
X189055Y10546D01*
X189037Y10504D01*
X189018Y10458D01*
X188995Y10402D01*
X188977Y10342D01*
X188958Y10273D01*
X188940Y10199D01*
X188926Y10116D01*
X188917Y10028D01*
X188912Y9930D01*
X188907Y9824D01*
Y9819D01*
Y9796D01*
Y9764D01*
X188912Y9727D01*
Y9676D01*
X188921Y9616D01*
X188926Y9556D01*
X188935Y9486D01*
X188963Y9343D01*
X189000Y9199D01*
X189023Y9130D01*
X189055Y9065D01*
X189088Y9005D01*
X189125Y8954D01*
X189129Y8949D01*
X189134Y8945D01*
X189148Y8931D01*
X189166Y8912D01*
X189213Y8875D01*
X189278Y8829D01*
X189356Y8778D01*
X189453Y8741D01*
X189564Y8709D01*
X189625Y8704D01*
X189689Y8699D01*
X189713D01*
X189731Y8704D01*
X189782Y8709D01*
X189842Y8718D01*
X189907Y8741D01*
X189981Y8769D01*
X190055Y8806D01*
X190129Y8861D01*
X190138Y8871D01*
X190161Y8894D01*
X190194Y8931D01*
X190231Y8986D01*
X190277Y9060D01*
X190319Y9148D01*
X190360Y9255D01*
X190397Y9380D01*
X191027Y9185D01*
Y9181D01*
X191022Y9162D01*
X191013Y9134D01*
X190999Y9097D01*
X190981Y9056D01*
X190962Y9005D01*
X190939Y8949D01*
X190911Y8889D01*
X190846Y8764D01*
X190763Y8635D01*
X190661Y8510D01*
X190606Y8454D01*
X190546Y8403D01*
X190541Y8399D01*
X190532Y8394D01*
X190513Y8380D01*
X190485Y8362D01*
X190453Y8343D01*
X190411Y8325D01*
X190365Y8301D01*
X190314Y8278D01*
X190254Y8250D01*
X190189Y8227D01*
X190120Y8209D01*
X190046Y8190D01*
X189967Y8172D01*
X189879Y8158D01*
X189791Y8153D01*
X189694Y8149D01*
X189666D01*
X189634Y8153D01*
X189588Y8158D01*
X189537Y8163D01*
X189472Y8172D01*
X189402Y8186D01*
X189324Y8204D01*
X189245Y8227D01*
X189162Y8255D01*
X189074Y8292D01*
X188986Y8334D01*
X188898Y8380D01*
X188810Y8440D01*
X188727Y8505D01*
X188648Y8584D01*
X188644Y8588D01*
X188630Y8602D01*
X188611Y8630D01*
X188583Y8662D01*
X188556Y8709D01*
X188519Y8760D01*
X188482Y8824D01*
X188445Y8898D01*
X188407Y8977D01*
X188370Y9065D01*
X188333Y9167D01*
X188306Y9273D01*
X188278Y9384D01*
X188259Y9509D01*
X188246Y9639D01*
X188241Y9778D01*
Y9782D01*
Y9787D01*
Y9815D01*
X188246Y9856D01*
Y9912D01*
X188255Y9977D01*
X188264Y10055D01*
X188273Y10139D01*
X188292Y10236D01*
X188315Y10333D01*
X188343Y10435D01*
X188375Y10537D01*
X188417Y10643D01*
X188463Y10745D01*
X188519Y10842D01*
X188579Y10935D01*
X188653Y11023D01*
X188657Y11027D01*
X188671Y11041D01*
X188694Y11064D01*
X188727Y11092D01*
X188768Y11124D01*
X188819Y11161D01*
X188875Y11203D01*
X188944Y11245D01*
X189018Y11286D01*
X189097Y11328D01*
X189190Y11365D01*
X189282Y11397D01*
X189389Y11425D01*
X189495Y11448D01*
X189615Y11462D01*
X189736Y11467D01*
X189791D01*
X189833Y11462D01*
D02*
G37*
G36*
X194146Y8204D02*
X193498D01*
Y9606D01*
X192235D01*
Y8204D01*
X191587D01*
Y11407D01*
X192235D01*
Y10148D01*
X193498D01*
Y11407D01*
X194146D01*
Y8204D01*
D02*
G37*
G36*
X198302Y11421D02*
X198344Y11416D01*
X198390Y11411D01*
X198441Y11402D01*
X198496Y11393D01*
X198617Y11360D01*
X198737Y11314D01*
X198802Y11286D01*
X198857Y11254D01*
X198917Y11212D01*
X198968Y11166D01*
X198973Y11161D01*
X198982Y11157D01*
X198991Y11138D01*
X199010Y11120D01*
X199033Y11097D01*
X199056Y11064D01*
X199079Y11032D01*
X199107Y10990D01*
X199153Y10898D01*
X199200Y10791D01*
X199218Y10731D01*
X199227Y10666D01*
X199237Y10597D01*
X199241Y10527D01*
Y10518D01*
Y10490D01*
X199237Y10449D01*
X199232Y10398D01*
X199223Y10333D01*
X199209Y10264D01*
X199190Y10190D01*
X199163Y10116D01*
X199158Y10106D01*
X199149Y10083D01*
X199130Y10041D01*
X199103Y9991D01*
X199070Y9930D01*
X199028Y9861D01*
X198978Y9787D01*
X198917Y9708D01*
X198913Y9704D01*
X198894Y9680D01*
X198866Y9648D01*
X198825Y9602D01*
X198769Y9546D01*
X198700Y9472D01*
X198617Y9394D01*
X198515Y9296D01*
X198510Y9292D01*
X198501Y9287D01*
X198487Y9273D01*
X198469Y9255D01*
X198418Y9208D01*
X198357Y9153D01*
X198297Y9093D01*
X198237Y9033D01*
X198182Y8982D01*
X198163Y8959D01*
X198145Y8940D01*
X198140Y8935D01*
X198131Y8926D01*
X198117Y8908D01*
X198098Y8884D01*
X198057Y8834D01*
X198020Y8773D01*
X199241D01*
Y8204D01*
X197089D01*
Y8209D01*
Y8218D01*
X197094Y8237D01*
X197099Y8260D01*
X197103Y8288D01*
X197108Y8320D01*
X197126Y8403D01*
X197154Y8496D01*
X197191Y8598D01*
X197237Y8709D01*
X197298Y8815D01*
Y8820D01*
X197307Y8829D01*
X197316Y8847D01*
X197335Y8866D01*
X197353Y8898D01*
X197381Y8931D01*
X197413Y8972D01*
X197450Y9019D01*
X197492Y9074D01*
X197543Y9130D01*
X197598Y9195D01*
X197663Y9264D01*
X197733Y9333D01*
X197811Y9412D01*
X197895Y9495D01*
X197987Y9583D01*
X197992Y9588D01*
X198006Y9602D01*
X198024Y9620D01*
X198052Y9648D01*
X198089Y9676D01*
X198126Y9713D01*
X198209Y9796D01*
X198293Y9884D01*
X198376Y9972D01*
X198413Y10009D01*
X198450Y10051D01*
X198478Y10083D01*
X198496Y10111D01*
X198501Y10120D01*
X198515Y10143D01*
X198538Y10180D01*
X198561Y10231D01*
X198584Y10287D01*
X198607Y10352D01*
X198621Y10416D01*
X198626Y10486D01*
Y10490D01*
Y10495D01*
Y10518D01*
X198621Y10560D01*
X198612Y10606D01*
X198598Y10657D01*
X198580Y10708D01*
X198552Y10759D01*
X198515Y10805D01*
X198510Y10810D01*
X198496Y10824D01*
X198469Y10842D01*
X198436Y10861D01*
X198390Y10879D01*
X198339Y10898D01*
X198279Y10912D01*
X198209Y10916D01*
X198177D01*
X198140Y10912D01*
X198098Y10902D01*
X198047Y10888D01*
X197996Y10865D01*
X197946Y10837D01*
X197899Y10800D01*
X197895Y10796D01*
X197881Y10777D01*
X197862Y10750D01*
X197844Y10708D01*
X197821Y10657D01*
X197802Y10588D01*
X197784Y10509D01*
X197774Y10416D01*
X197163Y10476D01*
Y10481D01*
X197168Y10500D01*
Y10523D01*
X197177Y10560D01*
X197182Y10601D01*
X197196Y10648D01*
X197210Y10699D01*
X197224Y10759D01*
X197270Y10874D01*
X197325Y10995D01*
X197362Y11055D01*
X197404Y11111D01*
X197450Y11157D01*
X197501Y11203D01*
X197506Y11208D01*
X197515Y11212D01*
X197529Y11222D01*
X197552Y11240D01*
X197580Y11254D01*
X197617Y11272D01*
X197654Y11296D01*
X197700Y11314D01*
X197751Y11337D01*
X197807Y11356D01*
X197927Y11393D01*
X198070Y11416D01*
X198145Y11421D01*
X198223Y11425D01*
X198270D01*
X198302Y11421D01*
D02*
G37*
G36*
X195812D02*
X195854Y11416D01*
X195900Y11411D01*
X195951Y11402D01*
X196006Y11393D01*
X196127Y11360D01*
X196247Y11314D01*
X196312Y11286D01*
X196367Y11254D01*
X196428Y11212D01*
X196479Y11166D01*
X196483Y11161D01*
X196492Y11157D01*
X196502Y11138D01*
X196520Y11120D01*
X196543Y11097D01*
X196566Y11064D01*
X196590Y11032D01*
X196617Y10990D01*
X196664Y10898D01*
X196710Y10791D01*
X196728Y10731D01*
X196738Y10666D01*
X196747Y10597D01*
X196752Y10527D01*
Y10518D01*
Y10490D01*
X196747Y10449D01*
X196742Y10398D01*
X196733Y10333D01*
X196719Y10264D01*
X196701Y10190D01*
X196673Y10116D01*
X196668Y10106D01*
X196659Y10083D01*
X196640Y10041D01*
X196613Y9991D01*
X196580Y9930D01*
X196539Y9861D01*
X196488Y9787D01*
X196428Y9708D01*
X196423Y9704D01*
X196404Y9680D01*
X196377Y9648D01*
X196335Y9602D01*
X196280Y9546D01*
X196210Y9472D01*
X196127Y9394D01*
X196025Y9296D01*
X196020Y9292D01*
X196011Y9287D01*
X195997Y9273D01*
X195979Y9255D01*
X195928Y9208D01*
X195868Y9153D01*
X195807Y9093D01*
X195747Y9033D01*
X195692Y8982D01*
X195673Y8959D01*
X195655Y8940D01*
X195650Y8935D01*
X195641Y8926D01*
X195627Y8908D01*
X195608Y8884D01*
X195567Y8834D01*
X195530Y8773D01*
X196752D01*
Y8204D01*
X194600D01*
Y8209D01*
Y8218D01*
X194604Y8237D01*
X194609Y8260D01*
X194613Y8288D01*
X194618Y8320D01*
X194637Y8403D01*
X194664Y8496D01*
X194701Y8598D01*
X194748Y8709D01*
X194808Y8815D01*
Y8820D01*
X194817Y8829D01*
X194826Y8847D01*
X194845Y8866D01*
X194863Y8898D01*
X194891Y8931D01*
X194924Y8972D01*
X194961Y9019D01*
X195002Y9074D01*
X195053Y9130D01*
X195109Y9195D01*
X195173Y9264D01*
X195243Y9333D01*
X195322Y9412D01*
X195405Y9495D01*
X195497Y9583D01*
X195502Y9588D01*
X195516Y9602D01*
X195534Y9620D01*
X195562Y9648D01*
X195599Y9676D01*
X195636Y9713D01*
X195720Y9796D01*
X195803Y9884D01*
X195886Y9972D01*
X195923Y10009D01*
X195960Y10051D01*
X195988Y10083D01*
X196006Y10111D01*
X196011Y10120D01*
X196025Y10143D01*
X196048Y10180D01*
X196071Y10231D01*
X196094Y10287D01*
X196118Y10352D01*
X196131Y10416D01*
X196136Y10486D01*
Y10490D01*
Y10495D01*
Y10518D01*
X196131Y10560D01*
X196122Y10606D01*
X196108Y10657D01*
X196090Y10708D01*
X196062Y10759D01*
X196025Y10805D01*
X196020Y10810D01*
X196006Y10824D01*
X195979Y10842D01*
X195946Y10861D01*
X195900Y10879D01*
X195849Y10898D01*
X195789Y10912D01*
X195720Y10916D01*
X195687D01*
X195650Y10912D01*
X195608Y10902D01*
X195558Y10888D01*
X195507Y10865D01*
X195456Y10837D01*
X195409Y10800D01*
X195405Y10796D01*
X195391Y10777D01*
X195372Y10750D01*
X195354Y10708D01*
X195331Y10657D01*
X195312Y10588D01*
X195294Y10509D01*
X195285Y10416D01*
X194674Y10476D01*
Y10481D01*
X194678Y10500D01*
Y10523D01*
X194688Y10560D01*
X194692Y10601D01*
X194706Y10648D01*
X194720Y10699D01*
X194734Y10759D01*
X194780Y10874D01*
X194836Y10995D01*
X194873Y11055D01*
X194914Y11111D01*
X194961Y11157D01*
X195011Y11203D01*
X195016Y11208D01*
X195025Y11212D01*
X195039Y11222D01*
X195062Y11240D01*
X195090Y11254D01*
X195127Y11272D01*
X195164Y11296D01*
X195210Y11314D01*
X195261Y11337D01*
X195317Y11356D01*
X195437Y11393D01*
X195581Y11416D01*
X195655Y11421D01*
X195733Y11425D01*
X195780D01*
X195812Y11421D01*
D02*
G37*
G36*
X187443Y41005D02*
X187494Y41000D01*
X187549Y40991D01*
X187614Y40982D01*
X187684Y40968D01*
X187758Y40949D01*
X187836Y40926D01*
X187915Y40898D01*
X187998Y40861D01*
X188077Y40824D01*
X188151Y40778D01*
X188230Y40722D01*
X188299Y40662D01*
X188304D01*
X188308Y40653D01*
X188322Y40639D01*
X188336Y40625D01*
X188355Y40602D01*
X188373Y40574D01*
X188424Y40510D01*
X188475Y40426D01*
X188531Y40324D01*
X188581Y40209D01*
X188628Y40075D01*
X187989Y39922D01*
Y39926D01*
X187984Y39931D01*
Y39945D01*
X187975Y39963D01*
X187961Y40005D01*
X187938Y40061D01*
X187906Y40125D01*
X187864Y40190D01*
X187809Y40255D01*
X187748Y40311D01*
X187739Y40315D01*
X187716Y40334D01*
X187679Y40357D01*
X187628Y40385D01*
X187563Y40412D01*
X187489Y40436D01*
X187406Y40454D01*
X187313Y40459D01*
X187281D01*
X187253Y40454D01*
X187225Y40449D01*
X187188Y40445D01*
X187110Y40426D01*
X187017Y40394D01*
X186920Y40348D01*
X186869Y40320D01*
X186823Y40287D01*
X186777Y40246D01*
X186735Y40199D01*
Y40195D01*
X186726Y40186D01*
X186716Y40172D01*
X186702Y40149D01*
X186684Y40121D01*
X186665Y40088D01*
X186647Y40047D01*
X186628Y40000D01*
X186605Y39945D01*
X186587Y39885D01*
X186568Y39815D01*
X186550Y39741D01*
X186536Y39658D01*
X186527Y39570D01*
X186522Y39473D01*
X186517Y39366D01*
Y39362D01*
Y39339D01*
Y39306D01*
X186522Y39269D01*
Y39218D01*
X186531Y39158D01*
X186536Y39098D01*
X186545Y39029D01*
X186573Y38885D01*
X186610Y38742D01*
X186633Y38672D01*
X186665Y38607D01*
X186698Y38547D01*
X186735Y38496D01*
X186740Y38492D01*
X186744Y38487D01*
X186758Y38473D01*
X186777Y38455D01*
X186823Y38418D01*
X186888Y38371D01*
X186966Y38321D01*
X187063Y38284D01*
X187175Y38251D01*
X187235Y38247D01*
X187299Y38242D01*
X187323D01*
X187341Y38247D01*
X187392Y38251D01*
X187452Y38260D01*
X187517Y38284D01*
X187591Y38311D01*
X187665Y38348D01*
X187739Y38404D01*
X187748Y38413D01*
X187772Y38436D01*
X187804Y38473D01*
X187841Y38529D01*
X187887Y38603D01*
X187929Y38691D01*
X187971Y38797D01*
X188008Y38922D01*
X188637Y38728D01*
Y38723D01*
X188632Y38705D01*
X188623Y38677D01*
X188609Y38640D01*
X188591Y38598D01*
X188572Y38547D01*
X188549Y38492D01*
X188521Y38432D01*
X188456Y38307D01*
X188373Y38177D01*
X188271Y38052D01*
X188216Y37997D01*
X188156Y37946D01*
X188151Y37941D01*
X188142Y37936D01*
X188123Y37923D01*
X188095Y37904D01*
X188063Y37886D01*
X188021Y37867D01*
X187975Y37844D01*
X187924Y37821D01*
X187864Y37793D01*
X187799Y37770D01*
X187730Y37751D01*
X187656Y37733D01*
X187577Y37714D01*
X187489Y37700D01*
X187401Y37696D01*
X187304Y37691D01*
X187276D01*
X187244Y37696D01*
X187198Y37700D01*
X187147Y37705D01*
X187082Y37714D01*
X187013Y37728D01*
X186934Y37747D01*
X186855Y37770D01*
X186772Y37798D01*
X186684Y37835D01*
X186596Y37876D01*
X186508Y37923D01*
X186420Y37983D01*
X186337Y38048D01*
X186258Y38126D01*
X186254Y38131D01*
X186240Y38145D01*
X186221Y38172D01*
X186193Y38205D01*
X186166Y38251D01*
X186129Y38302D01*
X186092Y38367D01*
X186055Y38441D01*
X186018Y38520D01*
X185981Y38607D01*
X185944Y38709D01*
X185916Y38816D01*
X185888Y38927D01*
X185869Y39052D01*
X185856Y39181D01*
X185851Y39320D01*
Y39325D01*
Y39329D01*
Y39357D01*
X185856Y39399D01*
Y39454D01*
X185865Y39519D01*
X185874Y39598D01*
X185883Y39681D01*
X185902Y39778D01*
X185925Y39876D01*
X185953Y39977D01*
X185985Y40079D01*
X186027Y40186D01*
X186073Y40287D01*
X186129Y40385D01*
X186189Y40477D01*
X186263Y40565D01*
X186267Y40570D01*
X186281Y40584D01*
X186305Y40607D01*
X186337Y40635D01*
X186379Y40667D01*
X186429Y40704D01*
X186485Y40746D01*
X186554Y40787D01*
X186628Y40829D01*
X186707Y40871D01*
X186800Y40908D01*
X186892Y40940D01*
X186999Y40968D01*
X187105Y40991D01*
X187225Y41005D01*
X187346Y41009D01*
X187401D01*
X187443Y41005D01*
D02*
G37*
G36*
X191756Y37747D02*
X191108D01*
Y39149D01*
X189845D01*
Y37747D01*
X189197D01*
Y40949D01*
X189845D01*
Y39690D01*
X191108D01*
Y40949D01*
X191756D01*
Y37747D01*
D02*
G37*
G36*
X193422Y40963D02*
X193464Y40958D01*
X193510Y40954D01*
X193561Y40945D01*
X193617Y40935D01*
X193737Y40903D01*
X193857Y40857D01*
X193922Y40829D01*
X193978Y40796D01*
X194038Y40755D01*
X194089Y40709D01*
X194093Y40704D01*
X194102Y40699D01*
X194112Y40681D01*
X194130Y40662D01*
X194153Y40639D01*
X194177Y40607D01*
X194200Y40574D01*
X194227Y40533D01*
X194274Y40440D01*
X194320Y40334D01*
X194339Y40274D01*
X194348Y40209D01*
X194357Y40139D01*
X194362Y40070D01*
Y40061D01*
Y40033D01*
X194357Y39991D01*
X194352Y39940D01*
X194343Y39876D01*
X194329Y39806D01*
X194311Y39732D01*
X194283Y39658D01*
X194278Y39649D01*
X194269Y39626D01*
X194251Y39584D01*
X194223Y39533D01*
X194190Y39473D01*
X194149Y39403D01*
X194098Y39329D01*
X194038Y39251D01*
X194033Y39246D01*
X194015Y39223D01*
X193987Y39191D01*
X193945Y39144D01*
X193890Y39089D01*
X193820Y39015D01*
X193737Y38936D01*
X193635Y38839D01*
X193630Y38834D01*
X193621Y38830D01*
X193607Y38816D01*
X193589Y38797D01*
X193538Y38751D01*
X193478Y38695D01*
X193418Y38635D01*
X193357Y38575D01*
X193302Y38524D01*
X193283Y38501D01*
X193265Y38483D01*
X193260Y38478D01*
X193251Y38469D01*
X193237Y38450D01*
X193219Y38427D01*
X193177Y38376D01*
X193140Y38316D01*
X194362D01*
Y37747D01*
X192210D01*
Y37751D01*
Y37761D01*
X192214Y37779D01*
X192219Y37802D01*
X192224Y37830D01*
X192228Y37862D01*
X192247Y37946D01*
X192274Y38038D01*
X192311Y38140D01*
X192358Y38251D01*
X192418Y38358D01*
Y38362D01*
X192427Y38371D01*
X192436Y38390D01*
X192455Y38409D01*
X192473Y38441D01*
X192501Y38473D01*
X192534Y38515D01*
X192571Y38561D01*
X192612Y38617D01*
X192663Y38672D01*
X192719Y38737D01*
X192784Y38806D01*
X192853Y38876D01*
X192932Y38955D01*
X193015Y39038D01*
X193107Y39126D01*
X193112Y39130D01*
X193126Y39144D01*
X193145Y39163D01*
X193172Y39191D01*
X193209Y39218D01*
X193246Y39255D01*
X193330Y39339D01*
X193413Y39427D01*
X193496Y39515D01*
X193533Y39552D01*
X193570Y39593D01*
X193598Y39626D01*
X193617Y39653D01*
X193621Y39663D01*
X193635Y39686D01*
X193658Y39723D01*
X193681Y39774D01*
X193704Y39829D01*
X193728Y39894D01*
X193742Y39959D01*
X193746Y40028D01*
Y40033D01*
Y40038D01*
Y40061D01*
X193742Y40102D01*
X193732Y40149D01*
X193718Y40199D01*
X193700Y40250D01*
X193672Y40301D01*
X193635Y40348D01*
X193630Y40352D01*
X193617Y40366D01*
X193589Y40385D01*
X193556Y40403D01*
X193510Y40422D01*
X193459Y40440D01*
X193399Y40454D01*
X193330Y40459D01*
X193297D01*
X193260Y40454D01*
X193219Y40445D01*
X193168Y40431D01*
X193117Y40408D01*
X193066Y40380D01*
X193020Y40343D01*
X193015Y40338D01*
X193001Y40320D01*
X192983Y40292D01*
X192964Y40250D01*
X192941Y40199D01*
X192922Y40130D01*
X192904Y40051D01*
X192895Y39959D01*
X192284Y40019D01*
Y40024D01*
X192288Y40042D01*
Y40065D01*
X192298Y40102D01*
X192302Y40144D01*
X192316Y40190D01*
X192330Y40241D01*
X192344Y40301D01*
X192390Y40417D01*
X192446Y40537D01*
X192483Y40597D01*
X192524Y40653D01*
X192571Y40699D01*
X192622Y40746D01*
X192626Y40750D01*
X192635Y40755D01*
X192649Y40764D01*
X192672Y40783D01*
X192700Y40796D01*
X192737Y40815D01*
X192774Y40838D01*
X192821Y40857D01*
X192871Y40880D01*
X192927Y40898D01*
X193047Y40935D01*
X193191Y40958D01*
X193265Y40963D01*
X193344Y40968D01*
X193390D01*
X193422Y40963D01*
D02*
G37*
G36*
X195893D02*
X195930Y40958D01*
X195977Y40949D01*
X196023Y40940D01*
X196079Y40926D01*
X196139Y40908D01*
X196194Y40884D01*
X196254Y40861D01*
X196315Y40829D01*
X196375Y40787D01*
X196435Y40746D01*
X196490Y40695D01*
X196541Y40635D01*
X196546Y40630D01*
X196555Y40616D01*
X196569Y40593D01*
X196592Y40560D01*
X196615Y40514D01*
X196643Y40459D01*
X196671Y40398D01*
X196699Y40320D01*
X196726Y40237D01*
X196759Y40139D01*
X196782Y40033D01*
X196805Y39913D01*
X196828Y39783D01*
X196842Y39644D01*
X196851Y39491D01*
X196856Y39325D01*
Y39320D01*
Y39316D01*
Y39302D01*
Y39283D01*
Y39237D01*
X196851Y39177D01*
X196847Y39103D01*
X196838Y39015D01*
X196828Y38922D01*
X196819Y38820D01*
X196801Y38714D01*
X196777Y38603D01*
X196754Y38496D01*
X196722Y38390D01*
X196689Y38284D01*
X196643Y38186D01*
X196597Y38094D01*
X196541Y38015D01*
X196537Y38011D01*
X196527Y38001D01*
X196514Y37983D01*
X196495Y37964D01*
X196467Y37941D01*
X196435Y37913D01*
X196393Y37881D01*
X196352Y37853D01*
X196301Y37821D01*
X196250Y37788D01*
X196190Y37761D01*
X196125Y37737D01*
X196055Y37719D01*
X195977Y37700D01*
X195898Y37691D01*
X195815Y37687D01*
X195796D01*
X195769Y37691D01*
X195736D01*
X195699Y37696D01*
X195653Y37705D01*
X195602Y37714D01*
X195546Y37733D01*
X195486Y37751D01*
X195426Y37774D01*
X195361Y37802D01*
X195301Y37839D01*
X195236Y37876D01*
X195176Y37927D01*
X195116Y37978D01*
X195060Y38043D01*
X195056Y38048D01*
X195047Y38061D01*
X195033Y38085D01*
X195019Y38112D01*
X194996Y38154D01*
X194973Y38205D01*
X194945Y38270D01*
X194922Y38339D01*
X194894Y38422D01*
X194866Y38515D01*
X194843Y38621D01*
X194824Y38737D01*
X194806Y38867D01*
X194792Y39010D01*
X194783Y39163D01*
X194778Y39329D01*
Y39334D01*
Y39339D01*
Y39353D01*
Y39371D01*
Y39417D01*
X194783Y39478D01*
X194787Y39552D01*
X194797Y39640D01*
X194806Y39732D01*
X194815Y39834D01*
X194834Y39940D01*
X194852Y40047D01*
X194880Y40158D01*
X194908Y40264D01*
X194945Y40366D01*
X194986Y40463D01*
X195033Y40556D01*
X195088Y40635D01*
X195093Y40639D01*
X195102Y40648D01*
X195116Y40667D01*
X195139Y40685D01*
X195162Y40713D01*
X195195Y40741D01*
X195236Y40769D01*
X195278Y40801D01*
X195329Y40834D01*
X195380Y40861D01*
X195440Y40889D01*
X195505Y40917D01*
X195574Y40935D01*
X195653Y40954D01*
X195731Y40963D01*
X195815Y40968D01*
X195861D01*
X195893Y40963D01*
D02*
G37*
G36*
X126197Y11462D02*
X126248Y11458D01*
X126304Y11448D01*
X126368Y11439D01*
X126438Y11425D01*
X126512Y11407D01*
X126591Y11384D01*
X126669Y11356D01*
X126753Y11319D01*
X126831Y11282D01*
X126905Y11235D01*
X126984Y11180D01*
X127053Y11120D01*
X127058D01*
X127063Y11111D01*
X127077Y11097D01*
X127090Y11083D01*
X127109Y11060D01*
X127127Y11032D01*
X127178Y10967D01*
X127229Y10884D01*
X127285Y10782D01*
X127336Y10666D01*
X127382Y10532D01*
X126743Y10379D01*
Y10384D01*
X126739Y10389D01*
Y10402D01*
X126729Y10421D01*
X126716Y10463D01*
X126692Y10518D01*
X126660Y10583D01*
X126618Y10648D01*
X126563Y10713D01*
X126503Y10768D01*
X126493Y10773D01*
X126470Y10791D01*
X126433Y10814D01*
X126382Y10842D01*
X126318Y10870D01*
X126244Y10893D01*
X126160Y10912D01*
X126068Y10916D01*
X126035D01*
X126008Y10912D01*
X125980Y10907D01*
X125943Y10902D01*
X125864Y10884D01*
X125771Y10851D01*
X125674Y10805D01*
X125623Y10777D01*
X125577Y10745D01*
X125531Y10703D01*
X125489Y10657D01*
Y10652D01*
X125480Y10643D01*
X125471Y10629D01*
X125457Y10606D01*
X125438Y10578D01*
X125420Y10546D01*
X125401Y10504D01*
X125383Y10458D01*
X125360Y10402D01*
X125341Y10342D01*
X125323Y10273D01*
X125304Y10199D01*
X125290Y10116D01*
X125281Y10028D01*
X125276Y9930D01*
X125272Y9824D01*
Y9819D01*
Y9796D01*
Y9764D01*
X125276Y9727D01*
Y9676D01*
X125286Y9616D01*
X125290Y9556D01*
X125299Y9486D01*
X125327Y9343D01*
X125364Y9199D01*
X125387Y9130D01*
X125420Y9065D01*
X125452Y9005D01*
X125489Y8954D01*
X125494Y8949D01*
X125498Y8945D01*
X125512Y8931D01*
X125531Y8912D01*
X125577Y8875D01*
X125642Y8829D01*
X125721Y8778D01*
X125818Y8741D01*
X125929Y8709D01*
X125989Y8704D01*
X126054Y8699D01*
X126077D01*
X126095Y8704D01*
X126146Y8709D01*
X126207Y8718D01*
X126271Y8741D01*
X126345Y8769D01*
X126419Y8806D01*
X126493Y8861D01*
X126503Y8871D01*
X126526Y8894D01*
X126558Y8931D01*
X126595Y8986D01*
X126642Y9060D01*
X126683Y9148D01*
X126725Y9255D01*
X126762Y9380D01*
X127391Y9185D01*
Y9181D01*
X127387Y9162D01*
X127377Y9134D01*
X127363Y9097D01*
X127345Y9056D01*
X127326Y9005D01*
X127303Y8949D01*
X127276Y8889D01*
X127211Y8764D01*
X127127Y8635D01*
X127026Y8510D01*
X126970Y8454D01*
X126910Y8403D01*
X126905Y8399D01*
X126896Y8394D01*
X126878Y8380D01*
X126850Y8362D01*
X126817Y8343D01*
X126776Y8325D01*
X126729Y8301D01*
X126679Y8278D01*
X126618Y8250D01*
X126554Y8227D01*
X126484Y8209D01*
X126410Y8190D01*
X126331Y8172D01*
X126244Y8158D01*
X126156Y8153D01*
X126058Y8149D01*
X126031D01*
X125998Y8153D01*
X125952Y8158D01*
X125901Y8163D01*
X125836Y8172D01*
X125767Y8186D01*
X125688Y8204D01*
X125610Y8227D01*
X125526Y8255D01*
X125438Y8292D01*
X125350Y8334D01*
X125262Y8380D01*
X125174Y8440D01*
X125091Y8505D01*
X125013Y8584D01*
X125008Y8588D01*
X124994Y8602D01*
X124976Y8630D01*
X124948Y8662D01*
X124920Y8709D01*
X124883Y8760D01*
X124846Y8824D01*
X124809Y8898D01*
X124772Y8977D01*
X124735Y9065D01*
X124698Y9167D01*
X124670Y9273D01*
X124642Y9384D01*
X124624Y9509D01*
X124610Y9639D01*
X124605Y9778D01*
Y9782D01*
Y9787D01*
Y9815D01*
X124610Y9856D01*
Y9912D01*
X124619Y9977D01*
X124628Y10055D01*
X124638Y10139D01*
X124656Y10236D01*
X124679Y10333D01*
X124707Y10435D01*
X124739Y10537D01*
X124781Y10643D01*
X124827Y10745D01*
X124883Y10842D01*
X124943Y10935D01*
X125017Y11023D01*
X125022Y11027D01*
X125036Y11041D01*
X125059Y11064D01*
X125091Y11092D01*
X125133Y11124D01*
X125184Y11161D01*
X125239Y11203D01*
X125309Y11245D01*
X125383Y11286D01*
X125461Y11328D01*
X125554Y11365D01*
X125647Y11397D01*
X125753Y11425D01*
X125859Y11448D01*
X125980Y11462D01*
X126100Y11467D01*
X126156D01*
X126197Y11462D01*
D02*
G37*
G36*
X130510Y8204D02*
X129863D01*
Y9606D01*
X128599D01*
Y8204D01*
X127951D01*
Y11407D01*
X128599D01*
Y10148D01*
X129863D01*
Y11407D01*
X130510D01*
Y8204D01*
D02*
G37*
G36*
X132611D02*
X131996D01*
Y10523D01*
X131991Y10518D01*
X131982Y10509D01*
X131964Y10495D01*
X131936Y10472D01*
X131903Y10444D01*
X131866Y10416D01*
X131820Y10384D01*
X131769Y10347D01*
X131714Y10310D01*
X131654Y10273D01*
X131589Y10231D01*
X131519Y10194D01*
X131371Y10125D01*
X131205Y10060D01*
Y10615D01*
X131209D01*
X131214Y10620D01*
X131228Y10625D01*
X131246Y10629D01*
X131293Y10652D01*
X131357Y10680D01*
X131436Y10717D01*
X131524Y10768D01*
X131621Y10833D01*
X131723Y10907D01*
X131728Y10912D01*
X131737Y10916D01*
X131751Y10930D01*
X131769Y10949D01*
X131820Y10995D01*
X131876Y11055D01*
X131940Y11129D01*
X132005Y11222D01*
X132065Y11319D01*
X132112Y11425D01*
X132611D01*
Y8204D01*
D02*
G37*
G36*
X134648Y11421D02*
X134685Y11416D01*
X134731Y11407D01*
X134777Y11397D01*
X134833Y11384D01*
X134893Y11365D01*
X134949Y11342D01*
X135009Y11319D01*
X135069Y11286D01*
X135129Y11245D01*
X135189Y11203D01*
X135245Y11152D01*
X135296Y11092D01*
X135300Y11087D01*
X135310Y11073D01*
X135323Y11050D01*
X135347Y11018D01*
X135370Y10972D01*
X135397Y10916D01*
X135425Y10856D01*
X135453Y10777D01*
X135481Y10694D01*
X135513Y10597D01*
X135536Y10490D01*
X135559Y10370D01*
X135583Y10240D01*
X135596Y10102D01*
X135606Y9949D01*
X135610Y9782D01*
Y9778D01*
Y9773D01*
Y9759D01*
Y9741D01*
Y9694D01*
X135606Y9634D01*
X135601Y9560D01*
X135592Y9472D01*
X135583Y9380D01*
X135573Y9278D01*
X135555Y9171D01*
X135532Y9060D01*
X135509Y8954D01*
X135476Y8847D01*
X135444Y8741D01*
X135397Y8644D01*
X135351Y8551D01*
X135296Y8473D01*
X135291Y8468D01*
X135282Y8459D01*
X135268Y8440D01*
X135249Y8422D01*
X135222Y8399D01*
X135189Y8371D01*
X135148Y8338D01*
X135106Y8311D01*
X135055Y8278D01*
X135004Y8246D01*
X134944Y8218D01*
X134879Y8195D01*
X134810Y8176D01*
X134731Y8158D01*
X134652Y8149D01*
X134569Y8144D01*
X134551D01*
X134523Y8149D01*
X134490D01*
X134453Y8153D01*
X134407Y8163D01*
X134356Y8172D01*
X134301Y8190D01*
X134241Y8209D01*
X134180Y8232D01*
X134116Y8260D01*
X134055Y8297D01*
X133991Y8334D01*
X133930Y8385D01*
X133870Y8436D01*
X133815Y8500D01*
X133810Y8505D01*
X133801Y8519D01*
X133787Y8542D01*
X133773Y8570D01*
X133750Y8611D01*
X133727Y8662D01*
X133699Y8727D01*
X133676Y8797D01*
X133648Y8880D01*
X133620Y8972D01*
X133597Y9079D01*
X133579Y9195D01*
X133560Y9324D01*
X133546Y9468D01*
X133537Y9620D01*
X133532Y9787D01*
Y9792D01*
Y9796D01*
Y9810D01*
Y9829D01*
Y9875D01*
X133537Y9935D01*
X133542Y10009D01*
X133551Y10097D01*
X133560Y10190D01*
X133569Y10291D01*
X133588Y10398D01*
X133606Y10504D01*
X133634Y10615D01*
X133662Y10722D01*
X133699Y10824D01*
X133741Y10921D01*
X133787Y11013D01*
X133843Y11092D01*
X133847Y11097D01*
X133856Y11106D01*
X133870Y11124D01*
X133893Y11143D01*
X133917Y11171D01*
X133949Y11198D01*
X133991Y11226D01*
X134032Y11259D01*
X134083Y11291D01*
X134134Y11319D01*
X134194Y11347D01*
X134259Y11374D01*
X134328Y11393D01*
X134407Y11411D01*
X134486Y11421D01*
X134569Y11425D01*
X134615D01*
X134648Y11421D01*
D02*
G37*
G36*
X111447Y11462D02*
X111498Y11458D01*
X111553Y11448D01*
X111618Y11439D01*
X111688Y11425D01*
X111762Y11407D01*
X111840Y11384D01*
X111919Y11356D01*
X112002Y11319D01*
X112081Y11282D01*
X112155Y11235D01*
X112234Y11180D01*
X112303Y11120D01*
X112308D01*
X112312Y11111D01*
X112326Y11097D01*
X112340Y11083D01*
X112359Y11060D01*
X112377Y11032D01*
X112428Y10967D01*
X112479Y10884D01*
X112535Y10782D01*
X112586Y10666D01*
X112632Y10532D01*
X111993Y10379D01*
Y10384D01*
X111989Y10389D01*
Y10402D01*
X111979Y10421D01*
X111965Y10463D01*
X111942Y10518D01*
X111910Y10583D01*
X111868Y10648D01*
X111813Y10713D01*
X111752Y10768D01*
X111743Y10773D01*
X111720Y10791D01*
X111683Y10814D01*
X111632Y10842D01*
X111567Y10870D01*
X111493Y10893D01*
X111410Y10912D01*
X111317Y10916D01*
X111285D01*
X111257Y10912D01*
X111230Y10907D01*
X111193Y10902D01*
X111114Y10884D01*
X111021Y10851D01*
X110924Y10805D01*
X110873Y10777D01*
X110827Y10745D01*
X110781Y10703D01*
X110739Y10657D01*
Y10652D01*
X110730Y10643D01*
X110720Y10629D01*
X110707Y10606D01*
X110688Y10578D01*
X110670Y10546D01*
X110651Y10504D01*
X110633Y10458D01*
X110609Y10402D01*
X110591Y10342D01*
X110572Y10273D01*
X110554Y10199D01*
X110540Y10116D01*
X110531Y10028D01*
X110526Y9930D01*
X110521Y9824D01*
Y9819D01*
Y9796D01*
Y9764D01*
X110526Y9727D01*
Y9676D01*
X110535Y9616D01*
X110540Y9556D01*
X110549Y9486D01*
X110577Y9343D01*
X110614Y9199D01*
X110637Y9130D01*
X110670Y9065D01*
X110702Y9005D01*
X110739Y8954D01*
X110744Y8949D01*
X110748Y8945D01*
X110762Y8931D01*
X110781Y8912D01*
X110827Y8875D01*
X110892Y8829D01*
X110970Y8778D01*
X111068Y8741D01*
X111179Y8709D01*
X111239Y8704D01*
X111304Y8699D01*
X111327D01*
X111345Y8704D01*
X111396Y8709D01*
X111456Y8718D01*
X111521Y8741D01*
X111595Y8769D01*
X111669Y8806D01*
X111743Y8861D01*
X111752Y8871D01*
X111776Y8894D01*
X111808Y8931D01*
X111845Y8986D01*
X111891Y9060D01*
X111933Y9148D01*
X111975Y9255D01*
X112012Y9380D01*
X112641Y9185D01*
Y9181D01*
X112636Y9162D01*
X112627Y9134D01*
X112613Y9097D01*
X112595Y9056D01*
X112576Y9005D01*
X112553Y8949D01*
X112525Y8889D01*
X112461Y8764D01*
X112377Y8635D01*
X112275Y8510D01*
X112220Y8454D01*
X112160Y8403D01*
X112155Y8399D01*
X112146Y8394D01*
X112127Y8380D01*
X112100Y8362D01*
X112067Y8343D01*
X112026Y8325D01*
X111979Y8301D01*
X111928Y8278D01*
X111868Y8250D01*
X111803Y8227D01*
X111734Y8209D01*
X111660Y8190D01*
X111581Y8172D01*
X111493Y8158D01*
X111405Y8153D01*
X111308Y8149D01*
X111280D01*
X111248Y8153D01*
X111202Y8158D01*
X111151Y8163D01*
X111086Y8172D01*
X111017Y8186D01*
X110938Y8204D01*
X110859Y8227D01*
X110776Y8255D01*
X110688Y8292D01*
X110600Y8334D01*
X110512Y8380D01*
X110424Y8440D01*
X110341Y8505D01*
X110262Y8584D01*
X110258Y8588D01*
X110244Y8602D01*
X110225Y8630D01*
X110198Y8662D01*
X110170Y8709D01*
X110133Y8760D01*
X110096Y8824D01*
X110059Y8898D01*
X110022Y8977D01*
X109985Y9065D01*
X109948Y9167D01*
X109920Y9273D01*
X109892Y9384D01*
X109874Y9509D01*
X109860Y9639D01*
X109855Y9778D01*
Y9782D01*
Y9787D01*
Y9815D01*
X109860Y9856D01*
Y9912D01*
X109869Y9977D01*
X109878Y10055D01*
X109887Y10139D01*
X109906Y10236D01*
X109929Y10333D01*
X109957Y10435D01*
X109989Y10537D01*
X110031Y10643D01*
X110077Y10745D01*
X110133Y10842D01*
X110193Y10935D01*
X110267Y11023D01*
X110272Y11027D01*
X110285Y11041D01*
X110309Y11064D01*
X110341Y11092D01*
X110383Y11124D01*
X110434Y11161D01*
X110489Y11203D01*
X110558Y11245D01*
X110633Y11286D01*
X110711Y11328D01*
X110804Y11365D01*
X110896Y11397D01*
X111003Y11425D01*
X111109Y11448D01*
X111230Y11462D01*
X111350Y11467D01*
X111405D01*
X111447Y11462D01*
D02*
G37*
G36*
X115760Y8204D02*
X115112D01*
Y9606D01*
X113849D01*
Y8204D01*
X113201D01*
Y11407D01*
X113849D01*
Y10148D01*
X115112D01*
Y11407D01*
X115760D01*
Y8204D01*
D02*
G37*
G36*
X117315Y11421D02*
X117352D01*
X117394Y11416D01*
X117440Y11407D01*
X117496Y11393D01*
X117551Y11379D01*
X117616Y11356D01*
X117681Y11333D01*
X117746Y11300D01*
X117815Y11263D01*
X117880Y11222D01*
X117945Y11171D01*
X118009Y11111D01*
X118070Y11046D01*
X118074Y11041D01*
X118083Y11027D01*
X118097Y11004D01*
X118120Y10972D01*
X118144Y10930D01*
X118171Y10879D01*
X118199Y10819D01*
X118227Y10750D01*
X118255Y10666D01*
X118287Y10574D01*
X118310Y10472D01*
X118333Y10361D01*
X118356Y10236D01*
X118370Y10102D01*
X118380Y9958D01*
X118384Y9801D01*
Y9796D01*
Y9792D01*
Y9778D01*
Y9764D01*
Y9718D01*
X118380Y9657D01*
X118375Y9583D01*
X118366Y9500D01*
X118356Y9412D01*
X118343Y9315D01*
X118324Y9208D01*
X118306Y9107D01*
X118278Y9000D01*
X118245Y8894D01*
X118208Y8797D01*
X118162Y8699D01*
X118116Y8611D01*
X118056Y8533D01*
X118051Y8528D01*
X118042Y8514D01*
X118023Y8496D01*
X117995Y8473D01*
X117963Y8445D01*
X117926Y8408D01*
X117880Y8375D01*
X117829Y8338D01*
X117773Y8301D01*
X117709Y8269D01*
X117639Y8237D01*
X117565Y8204D01*
X117482Y8181D01*
X117398Y8163D01*
X117311Y8149D01*
X117213Y8144D01*
X117176D01*
X117153Y8149D01*
X117121D01*
X117084Y8153D01*
X116996Y8167D01*
X116899Y8195D01*
X116801Y8227D01*
X116700Y8278D01*
X116653Y8306D01*
X116607Y8343D01*
X116603Y8348D01*
X116598Y8352D01*
X116584Y8366D01*
X116570Y8380D01*
X116552Y8403D01*
X116528Y8426D01*
X116510Y8459D01*
X116482Y8491D01*
X116459Y8533D01*
X116431Y8574D01*
X116408Y8625D01*
X116385Y8681D01*
X116362Y8736D01*
X116343Y8801D01*
X116325Y8866D01*
X116311Y8940D01*
X116903Y9009D01*
Y9000D01*
X116908Y8977D01*
X116913Y8945D01*
X116926Y8908D01*
X116940Y8861D01*
X116959Y8815D01*
X116982Y8773D01*
X117014Y8736D01*
X117019Y8732D01*
X117033Y8723D01*
X117051Y8709D01*
X117079Y8695D01*
X117116Y8681D01*
X117153Y8667D01*
X117204Y8658D01*
X117255Y8653D01*
X117264D01*
X117287Y8658D01*
X117320Y8662D01*
X117366Y8676D01*
X117417Y8695D01*
X117468Y8727D01*
X117523Y8769D01*
X117574Y8824D01*
X117579Y8834D01*
X117588Y8843D01*
X117598Y8861D01*
X117607Y8880D01*
X117621Y8908D01*
X117630Y8940D01*
X117648Y8982D01*
X117662Y9028D01*
X117676Y9079D01*
X117690Y9139D01*
X117704Y9204D01*
X117718Y9278D01*
X117727Y9361D01*
X117736Y9454D01*
X117746Y9551D01*
X117741Y9546D01*
X117736Y9542D01*
X117722Y9528D01*
X117704Y9509D01*
X117681Y9491D01*
X117653Y9468D01*
X117588Y9417D01*
X117505Y9366D01*
X117403Y9324D01*
X117348Y9306D01*
X117292Y9296D01*
X117232Y9287D01*
X117167Y9283D01*
X117130D01*
X117102Y9287D01*
X117070Y9292D01*
X117033Y9296D01*
X116945Y9320D01*
X116843Y9352D01*
X116792Y9380D01*
X116737Y9407D01*
X116681Y9440D01*
X116626Y9477D01*
X116570Y9523D01*
X116519Y9574D01*
X116515Y9579D01*
X116505Y9588D01*
X116496Y9606D01*
X116478Y9625D01*
X116454Y9657D01*
X116431Y9690D01*
X116408Y9731D01*
X116385Y9778D01*
X116357Y9829D01*
X116334Y9889D01*
X116311Y9949D01*
X116288Y10018D01*
X116269Y10088D01*
X116260Y10166D01*
X116251Y10250D01*
X116246Y10333D01*
Y10338D01*
Y10356D01*
Y10379D01*
X116251Y10416D01*
X116255Y10458D01*
X116260Y10504D01*
X116269Y10560D01*
X116283Y10615D01*
X116316Y10740D01*
X116339Y10810D01*
X116366Y10874D01*
X116399Y10939D01*
X116441Y11004D01*
X116482Y11064D01*
X116533Y11124D01*
X116538Y11129D01*
X116547Y11138D01*
X116561Y11152D01*
X116584Y11171D01*
X116616Y11194D01*
X116649Y11222D01*
X116690Y11245D01*
X116737Y11277D01*
X116783Y11305D01*
X116843Y11328D01*
X116903Y11356D01*
X116968Y11379D01*
X117038Y11397D01*
X117112Y11411D01*
X117186Y11421D01*
X117269Y11425D01*
X117292D01*
X117315Y11421D01*
D02*
G37*
G36*
X174099Y11465D02*
X174150Y11460D01*
X174206Y11451D01*
X174270Y11441D01*
X174340Y11428D01*
X174414Y11409D01*
X174493Y11386D01*
X174571Y11358D01*
X174655Y11321D01*
X174733Y11284D01*
X174807Y11238D01*
X174886Y11182D01*
X174955Y11122D01*
X174960D01*
X174965Y11113D01*
X174979Y11099D01*
X174992Y11085D01*
X175011Y11062D01*
X175029Y11034D01*
X175080Y10969D01*
X175131Y10886D01*
X175187Y10784D01*
X175238Y10669D01*
X175284Y10534D01*
X174645Y10382D01*
Y10386D01*
X174641Y10391D01*
Y10405D01*
X174631Y10423D01*
X174618Y10465D01*
X174594Y10520D01*
X174562Y10585D01*
X174520Y10650D01*
X174465Y10715D01*
X174405Y10770D01*
X174395Y10775D01*
X174372Y10793D01*
X174335Y10817D01*
X174284Y10844D01*
X174220Y10872D01*
X174146Y10895D01*
X174062Y10914D01*
X173970Y10918D01*
X173937D01*
X173909Y10914D01*
X173882Y10909D01*
X173845Y10905D01*
X173766Y10886D01*
X173673Y10854D01*
X173576Y10807D01*
X173525Y10780D01*
X173479Y10747D01*
X173433Y10706D01*
X173391Y10659D01*
Y10655D01*
X173382Y10645D01*
X173373Y10632D01*
X173359Y10608D01*
X173340Y10581D01*
X173322Y10548D01*
X173303Y10507D01*
X173285Y10460D01*
X173262Y10405D01*
X173243Y10345D01*
X173225Y10275D01*
X173206Y10201D01*
X173192Y10118D01*
X173183Y10030D01*
X173178Y9933D01*
X173174Y9826D01*
Y9822D01*
Y9799D01*
Y9766D01*
X173178Y9729D01*
Y9678D01*
X173188Y9618D01*
X173192Y9558D01*
X173201Y9488D01*
X173229Y9345D01*
X173266Y9202D01*
X173289Y9132D01*
X173322Y9067D01*
X173354Y9007D01*
X173391Y8956D01*
X173396Y8952D01*
X173400Y8947D01*
X173414Y8933D01*
X173433Y8915D01*
X173479Y8878D01*
X173544Y8831D01*
X173623Y8780D01*
X173720Y8743D01*
X173831Y8711D01*
X173891Y8706D01*
X173956Y8702D01*
X173979D01*
X173997Y8706D01*
X174048Y8711D01*
X174108Y8720D01*
X174173Y8743D01*
X174247Y8771D01*
X174321Y8808D01*
X174395Y8864D01*
X174405Y8873D01*
X174428Y8896D01*
X174460Y8933D01*
X174497Y8989D01*
X174544Y9063D01*
X174585Y9151D01*
X174627Y9257D01*
X174664Y9382D01*
X175293Y9188D01*
Y9183D01*
X175289Y9164D01*
X175279Y9137D01*
X175265Y9100D01*
X175247Y9058D01*
X175228Y9007D01*
X175205Y8952D01*
X175178Y8891D01*
X175113Y8766D01*
X175029Y8637D01*
X174928Y8512D01*
X174872Y8456D01*
X174812Y8406D01*
X174807Y8401D01*
X174798Y8396D01*
X174780Y8382D01*
X174752Y8364D01*
X174719Y8345D01*
X174678Y8327D01*
X174631Y8304D01*
X174581Y8281D01*
X174520Y8253D01*
X174456Y8230D01*
X174386Y8211D01*
X174312Y8193D01*
X174233Y8174D01*
X174146Y8160D01*
X174058Y8156D01*
X173960Y8151D01*
X173933D01*
X173900Y8156D01*
X173854Y8160D01*
X173803Y8165D01*
X173738Y8174D01*
X173669Y8188D01*
X173590Y8207D01*
X173511Y8230D01*
X173428Y8257D01*
X173340Y8294D01*
X173252Y8336D01*
X173164Y8382D01*
X173076Y8443D01*
X172993Y8507D01*
X172915Y8586D01*
X172910Y8591D01*
X172896Y8605D01*
X172877Y8632D01*
X172850Y8665D01*
X172822Y8711D01*
X172785Y8762D01*
X172748Y8827D01*
X172711Y8901D01*
X172674Y8979D01*
X172637Y9067D01*
X172600Y9169D01*
X172572Y9276D01*
X172544Y9387D01*
X172526Y9512D01*
X172512Y9641D01*
X172507Y9780D01*
Y9785D01*
Y9789D01*
Y9817D01*
X172512Y9859D01*
Y9914D01*
X172521Y9979D01*
X172530Y10058D01*
X172540Y10141D01*
X172558Y10238D01*
X172581Y10335D01*
X172609Y10437D01*
X172641Y10539D01*
X172683Y10645D01*
X172729Y10747D01*
X172785Y10844D01*
X172845Y10937D01*
X172919Y11025D01*
X172924Y11030D01*
X172938Y11043D01*
X172961Y11067D01*
X172993Y11094D01*
X173035Y11127D01*
X173086Y11164D01*
X173141Y11205D01*
X173211Y11247D01*
X173285Y11289D01*
X173363Y11330D01*
X173456Y11367D01*
X173549Y11400D01*
X173655Y11428D01*
X173761Y11451D01*
X173882Y11465D01*
X174002Y11469D01*
X174058D01*
X174099Y11465D01*
D02*
G37*
G36*
X178412Y8207D02*
X177765D01*
Y9609D01*
X176501D01*
Y8207D01*
X175853D01*
Y11409D01*
X176501D01*
Y10150D01*
X177765D01*
Y11409D01*
X178412D01*
Y8207D01*
D02*
G37*
G36*
X182457Y11423D02*
X182494D01*
X182536Y11418D01*
X182582Y11409D01*
X182638Y11395D01*
X182693Y11381D01*
X182758Y11358D01*
X182823Y11335D01*
X182888Y11303D01*
X182957Y11266D01*
X183022Y11224D01*
X183087Y11173D01*
X183151Y11113D01*
X183212Y11048D01*
X183216Y11043D01*
X183225Y11030D01*
X183239Y11006D01*
X183262Y10974D01*
X183286Y10932D01*
X183313Y10881D01*
X183341Y10821D01*
X183369Y10752D01*
X183397Y10669D01*
X183429Y10576D01*
X183452Y10474D01*
X183475Y10363D01*
X183498Y10238D01*
X183512Y10104D01*
X183522Y9960D01*
X183526Y9803D01*
Y9799D01*
Y9794D01*
Y9780D01*
Y9766D01*
Y9720D01*
X183522Y9660D01*
X183517Y9586D01*
X183508Y9502D01*
X183498Y9414D01*
X183485Y9317D01*
X183466Y9211D01*
X183448Y9109D01*
X183420Y9003D01*
X183387Y8896D01*
X183350Y8799D01*
X183304Y8702D01*
X183258Y8614D01*
X183198Y8535D01*
X183193Y8530D01*
X183184Y8517D01*
X183165Y8498D01*
X183137Y8475D01*
X183105Y8447D01*
X183068Y8410D01*
X183022Y8378D01*
X182971Y8341D01*
X182915Y8304D01*
X182851Y8271D01*
X182781Y8239D01*
X182707Y8207D01*
X182624Y8183D01*
X182540Y8165D01*
X182453Y8151D01*
X182355Y8146D01*
X182318D01*
X182295Y8151D01*
X182263D01*
X182226Y8156D01*
X182138Y8169D01*
X182041Y8197D01*
X181943Y8230D01*
X181842Y8281D01*
X181795Y8308D01*
X181749Y8345D01*
X181744Y8350D01*
X181740Y8355D01*
X181726Y8368D01*
X181712Y8382D01*
X181694Y8406D01*
X181670Y8429D01*
X181652Y8461D01*
X181624Y8493D01*
X181601Y8535D01*
X181573Y8577D01*
X181550Y8628D01*
X181527Y8683D01*
X181504Y8739D01*
X181485Y8804D01*
X181467Y8868D01*
X181453Y8942D01*
X182045Y9012D01*
Y9003D01*
X182050Y8979D01*
X182055Y8947D01*
X182068Y8910D01*
X182082Y8864D01*
X182101Y8817D01*
X182124Y8776D01*
X182156Y8739D01*
X182161Y8734D01*
X182175Y8725D01*
X182193Y8711D01*
X182221Y8697D01*
X182258Y8683D01*
X182295Y8669D01*
X182346Y8660D01*
X182397Y8655D01*
X182406D01*
X182429Y8660D01*
X182462Y8665D01*
X182508Y8679D01*
X182559Y8697D01*
X182610Y8729D01*
X182665Y8771D01*
X182716Y8827D01*
X182721Y8836D01*
X182730Y8845D01*
X182739Y8864D01*
X182749Y8882D01*
X182763Y8910D01*
X182772Y8942D01*
X182790Y8984D01*
X182804Y9030D01*
X182818Y9081D01*
X182832Y9141D01*
X182846Y9206D01*
X182860Y9280D01*
X182869Y9363D01*
X182878Y9456D01*
X182888Y9553D01*
X182883Y9549D01*
X182878Y9544D01*
X182864Y9530D01*
X182846Y9512D01*
X182823Y9493D01*
X182795Y9470D01*
X182730Y9419D01*
X182647Y9368D01*
X182545Y9326D01*
X182490Y9308D01*
X182434Y9299D01*
X182374Y9289D01*
X182309Y9285D01*
X182272D01*
X182244Y9289D01*
X182212Y9294D01*
X182175Y9299D01*
X182087Y9322D01*
X181985Y9354D01*
X181934Y9382D01*
X181879Y9410D01*
X181823Y9442D01*
X181768Y9479D01*
X181712Y9525D01*
X181661Y9576D01*
X181657Y9581D01*
X181647Y9590D01*
X181638Y9609D01*
X181620Y9627D01*
X181596Y9660D01*
X181573Y9692D01*
X181550Y9734D01*
X181527Y9780D01*
X181499Y9831D01*
X181476Y9891D01*
X181453Y9951D01*
X181430Y10021D01*
X181411Y10090D01*
X181402Y10169D01*
X181393Y10252D01*
X181388Y10335D01*
Y10340D01*
Y10358D01*
Y10382D01*
X181393Y10419D01*
X181397Y10460D01*
X181402Y10507D01*
X181411Y10562D01*
X181425Y10618D01*
X181458Y10743D01*
X181481Y10812D01*
X181508Y10877D01*
X181541Y10942D01*
X181583Y11006D01*
X181624Y11067D01*
X181675Y11127D01*
X181680Y11131D01*
X181689Y11141D01*
X181703Y11154D01*
X181726Y11173D01*
X181758Y11196D01*
X181791Y11224D01*
X181832Y11247D01*
X181879Y11279D01*
X181925Y11307D01*
X181985Y11330D01*
X182045Y11358D01*
X182110Y11381D01*
X182180Y11400D01*
X182254Y11414D01*
X182328Y11423D01*
X182411Y11428D01*
X182434D01*
X182457Y11423D01*
D02*
G37*
G36*
X180513Y8207D02*
X179898D01*
Y10525D01*
X179893Y10520D01*
X179884Y10511D01*
X179866Y10497D01*
X179838Y10474D01*
X179805Y10446D01*
X179768Y10419D01*
X179722Y10386D01*
X179671Y10349D01*
X179616Y10312D01*
X179556Y10275D01*
X179491Y10234D01*
X179421Y10196D01*
X179273Y10127D01*
X179107Y10062D01*
Y10618D01*
X179111D01*
X179116Y10622D01*
X179130Y10627D01*
X179148Y10632D01*
X179195Y10655D01*
X179259Y10682D01*
X179338Y10719D01*
X179426Y10770D01*
X179523Y10835D01*
X179625Y10909D01*
X179630Y10914D01*
X179639Y10918D01*
X179653Y10932D01*
X179671Y10951D01*
X179722Y10997D01*
X179778Y11057D01*
X179842Y11131D01*
X179907Y11224D01*
X179967Y11321D01*
X180014Y11428D01*
X180513D01*
Y8207D01*
D02*
G37*
G36*
X153437Y41000D02*
X153488Y40995D01*
X153544Y40986D01*
X153609Y40977D01*
X153678Y40963D01*
X153752Y40945D01*
X153831Y40921D01*
X153909Y40894D01*
X153993Y40857D01*
X154071Y40820D01*
X154145Y40773D01*
X154224Y40718D01*
X154294Y40658D01*
X154298D01*
X154303Y40648D01*
X154317Y40635D01*
X154331Y40621D01*
X154349Y40597D01*
X154368Y40570D01*
X154419Y40505D01*
X154469Y40422D01*
X154525Y40320D01*
X154576Y40204D01*
X154622Y40070D01*
X153984Y39917D01*
Y39922D01*
X153979Y39926D01*
Y39940D01*
X153970Y39959D01*
X153956Y40000D01*
X153933Y40056D01*
X153900Y40121D01*
X153859Y40186D01*
X153803Y40250D01*
X153743Y40306D01*
X153734Y40311D01*
X153710Y40329D01*
X153673Y40352D01*
X153623Y40380D01*
X153558Y40408D01*
X153484Y40431D01*
X153400Y40449D01*
X153308Y40454D01*
X153275D01*
X153248Y40449D01*
X153220Y40445D01*
X153183Y40440D01*
X153104Y40422D01*
X153012Y40389D01*
X152914Y40343D01*
X152864Y40315D01*
X152817Y40283D01*
X152771Y40241D01*
X152729Y40195D01*
Y40190D01*
X152720Y40181D01*
X152711Y40167D01*
X152697Y40144D01*
X152678Y40116D01*
X152660Y40084D01*
X152641Y40042D01*
X152623Y39996D01*
X152600Y39940D01*
X152581Y39880D01*
X152563Y39811D01*
X152544Y39737D01*
X152530Y39653D01*
X152521Y39565D01*
X152516Y39468D01*
X152512Y39362D01*
Y39357D01*
Y39334D01*
Y39302D01*
X152516Y39265D01*
Y39214D01*
X152526Y39154D01*
X152530Y39093D01*
X152540Y39024D01*
X152567Y38881D01*
X152604Y38737D01*
X152628Y38668D01*
X152660Y38603D01*
X152692Y38543D01*
X152729Y38492D01*
X152734Y38487D01*
X152739Y38483D01*
X152752Y38469D01*
X152771Y38450D01*
X152817Y38413D01*
X152882Y38367D01*
X152961Y38316D01*
X153058Y38279D01*
X153169Y38247D01*
X153229Y38242D01*
X153294Y38237D01*
X153317D01*
X153336Y38242D01*
X153387Y38247D01*
X153447Y38256D01*
X153511Y38279D01*
X153585Y38307D01*
X153660Y38344D01*
X153734Y38399D01*
X153743Y38409D01*
X153766Y38432D01*
X153798Y38469D01*
X153835Y38524D01*
X153882Y38598D01*
X153923Y38686D01*
X153965Y38793D01*
X154002Y38918D01*
X154631Y38723D01*
Y38719D01*
X154627Y38700D01*
X154618Y38672D01*
X154604Y38635D01*
X154585Y38594D01*
X154567Y38543D01*
X154543Y38487D01*
X154516Y38427D01*
X154451Y38302D01*
X154368Y38172D01*
X154266Y38048D01*
X154210Y37992D01*
X154150Y37941D01*
X154145Y37936D01*
X154136Y37932D01*
X154118Y37918D01*
X154090Y37899D01*
X154058Y37881D01*
X154016Y37862D01*
X153970Y37839D01*
X153919Y37816D01*
X153859Y37788D01*
X153794Y37765D01*
X153724Y37747D01*
X153650Y37728D01*
X153572Y37710D01*
X153484Y37696D01*
X153396Y37691D01*
X153299Y37687D01*
X153271D01*
X153238Y37691D01*
X153192Y37696D01*
X153141Y37700D01*
X153076Y37710D01*
X153007Y37724D01*
X152928Y37742D01*
X152850Y37765D01*
X152766Y37793D01*
X152678Y37830D01*
X152591Y37872D01*
X152503Y37918D01*
X152415Y37978D01*
X152331Y38043D01*
X152253Y38122D01*
X152248Y38126D01*
X152234Y38140D01*
X152216Y38168D01*
X152188Y38200D01*
X152160Y38247D01*
X152123Y38297D01*
X152086Y38362D01*
X152049Y38436D01*
X152012Y38515D01*
X151975Y38603D01*
X151938Y38705D01*
X151910Y38811D01*
X151882Y38922D01*
X151864Y39047D01*
X151850Y39177D01*
X151845Y39316D01*
Y39320D01*
Y39325D01*
Y39353D01*
X151850Y39394D01*
Y39450D01*
X151859Y39515D01*
X151869Y39593D01*
X151878Y39677D01*
X151896Y39774D01*
X151919Y39871D01*
X151947Y39973D01*
X151980Y40075D01*
X152021Y40181D01*
X152068Y40283D01*
X152123Y40380D01*
X152183Y40473D01*
X152257Y40560D01*
X152262Y40565D01*
X152276Y40579D01*
X152299Y40602D01*
X152331Y40630D01*
X152373Y40662D01*
X152424Y40699D01*
X152479Y40741D01*
X152549Y40783D01*
X152623Y40824D01*
X152702Y40866D01*
X152794Y40903D01*
X152887Y40935D01*
X152993Y40963D01*
X153100Y40986D01*
X153220Y41000D01*
X153340Y41005D01*
X153396D01*
X153437Y41000D01*
D02*
G37*
G36*
X157751Y37742D02*
X157103D01*
Y39144D01*
X155839D01*
Y37742D01*
X155191D01*
Y40945D01*
X155839D01*
Y39686D01*
X157103D01*
Y40945D01*
X157751D01*
Y37742D01*
D02*
G37*
G36*
X162573Y38922D02*
X162971D01*
Y38385D01*
X162573D01*
Y37742D01*
X161980D01*
Y38385D01*
X160666D01*
Y38918D01*
X162055Y40958D01*
X162573D01*
Y38922D01*
D02*
G37*
G36*
X159852Y37742D02*
X159236D01*
Y40061D01*
X159232Y40056D01*
X159222Y40047D01*
X159204Y40033D01*
X159176Y40010D01*
X159144Y39982D01*
X159107Y39954D01*
X159060Y39922D01*
X159009Y39885D01*
X158954Y39848D01*
X158894Y39811D01*
X158829Y39769D01*
X158759Y39732D01*
X158611Y39663D01*
X158445Y39598D01*
Y40153D01*
X158449D01*
X158454Y40158D01*
X158468Y40162D01*
X158486Y40167D01*
X158533Y40190D01*
X158598Y40218D01*
X158676Y40255D01*
X158764Y40306D01*
X158861Y40371D01*
X158963Y40445D01*
X158968Y40449D01*
X158977Y40454D01*
X158991Y40468D01*
X159009Y40486D01*
X159060Y40533D01*
X159116Y40593D01*
X159181Y40667D01*
X159245Y40759D01*
X159306Y40857D01*
X159352Y40963D01*
X159852D01*
Y37742D01*
D02*
G37*
G36*
X95420Y11465D02*
X95470Y11460D01*
X95526Y11451D01*
X95591Y11441D01*
X95660Y11428D01*
X95734Y11409D01*
X95813Y11386D01*
X95892Y11358D01*
X95975Y11321D01*
X96054Y11284D01*
X96128Y11238D01*
X96206Y11182D01*
X96276Y11122D01*
X96280D01*
X96285Y11113D01*
X96299Y11099D01*
X96313Y11085D01*
X96331Y11062D01*
X96350Y11034D01*
X96401Y10969D01*
X96452Y10886D01*
X96507Y10784D01*
X96558Y10669D01*
X96604Y10534D01*
X95966Y10382D01*
Y10386D01*
X95961Y10391D01*
Y10405D01*
X95952Y10423D01*
X95938Y10465D01*
X95915Y10520D01*
X95882Y10585D01*
X95841Y10650D01*
X95785Y10715D01*
X95725Y10770D01*
X95716Y10775D01*
X95693Y10793D01*
X95656Y10817D01*
X95605Y10844D01*
X95540Y10872D01*
X95466Y10895D01*
X95383Y10914D01*
X95290Y10918D01*
X95258D01*
X95230Y10914D01*
X95202Y10909D01*
X95165Y10905D01*
X95086Y10886D01*
X94994Y10854D01*
X94897Y10807D01*
X94846Y10780D01*
X94799Y10747D01*
X94753Y10706D01*
X94712Y10659D01*
Y10655D01*
X94702Y10645D01*
X94693Y10632D01*
X94679Y10608D01*
X94661Y10581D01*
X94642Y10548D01*
X94624Y10507D01*
X94605Y10460D01*
X94582Y10405D01*
X94563Y10345D01*
X94545Y10275D01*
X94526Y10201D01*
X94513Y10118D01*
X94503Y10030D01*
X94499Y9933D01*
X94494Y9826D01*
Y9822D01*
Y9799D01*
Y9766D01*
X94499Y9729D01*
Y9678D01*
X94508Y9618D01*
X94513Y9558D01*
X94522Y9488D01*
X94550Y9345D01*
X94587Y9202D01*
X94610Y9132D01*
X94642Y9067D01*
X94674Y9007D01*
X94712Y8956D01*
X94716Y8952D01*
X94721Y8947D01*
X94735Y8933D01*
X94753Y8915D01*
X94799Y8878D01*
X94864Y8831D01*
X94943Y8780D01*
X95040Y8743D01*
X95151Y8711D01*
X95211Y8706D01*
X95276Y8702D01*
X95299D01*
X95318Y8706D01*
X95369Y8711D01*
X95429Y8720D01*
X95494Y8743D01*
X95568Y8771D01*
X95642Y8808D01*
X95716Y8864D01*
X95725Y8873D01*
X95748Y8896D01*
X95781Y8933D01*
X95818Y8989D01*
X95864Y9063D01*
X95906Y9151D01*
X95947Y9257D01*
X95984Y9382D01*
X96614Y9188D01*
Y9183D01*
X96609Y9164D01*
X96600Y9137D01*
X96586Y9100D01*
X96567Y9058D01*
X96549Y9007D01*
X96526Y8952D01*
X96498Y8891D01*
X96433Y8766D01*
X96350Y8637D01*
X96248Y8512D01*
X96192Y8456D01*
X96132Y8406D01*
X96128Y8401D01*
X96118Y8396D01*
X96100Y8382D01*
X96072Y8364D01*
X96040Y8345D01*
X95998Y8327D01*
X95952Y8304D01*
X95901Y8281D01*
X95841Y8253D01*
X95776Y8230D01*
X95707Y8211D01*
X95632Y8193D01*
X95554Y8174D01*
X95466Y8160D01*
X95378Y8156D01*
X95281Y8151D01*
X95253D01*
X95221Y8156D01*
X95174Y8160D01*
X95123Y8165D01*
X95059Y8174D01*
X94989Y8188D01*
X94911Y8207D01*
X94832Y8230D01*
X94749Y8257D01*
X94661Y8294D01*
X94573Y8336D01*
X94485Y8382D01*
X94397Y8443D01*
X94314Y8507D01*
X94235Y8586D01*
X94230Y8591D01*
X94216Y8605D01*
X94198Y8632D01*
X94170Y8665D01*
X94142Y8711D01*
X94105Y8762D01*
X94068Y8827D01*
X94031Y8901D01*
X93994Y8979D01*
X93957Y9067D01*
X93920Y9169D01*
X93892Y9276D01*
X93865Y9387D01*
X93846Y9512D01*
X93832Y9641D01*
X93828Y9780D01*
Y9785D01*
Y9789D01*
Y9817D01*
X93832Y9859D01*
Y9914D01*
X93841Y9979D01*
X93851Y10058D01*
X93860Y10141D01*
X93879Y10238D01*
X93902Y10335D01*
X93929Y10437D01*
X93962Y10539D01*
X94003Y10645D01*
X94050Y10747D01*
X94105Y10844D01*
X94165Y10937D01*
X94239Y11025D01*
X94244Y11030D01*
X94258Y11043D01*
X94281Y11067D01*
X94314Y11094D01*
X94355Y11127D01*
X94406Y11164D01*
X94462Y11205D01*
X94531Y11247D01*
X94605Y11289D01*
X94684Y11330D01*
X94776Y11367D01*
X94869Y11400D01*
X94975Y11428D01*
X95082Y11451D01*
X95202Y11465D01*
X95322Y11469D01*
X95378D01*
X95420Y11465D01*
D02*
G37*
G36*
X99733Y8207D02*
X99085D01*
Y9609D01*
X97821D01*
Y8207D01*
X97174D01*
Y11409D01*
X97821D01*
Y10150D01*
X99085D01*
Y11409D01*
X99733D01*
Y8207D01*
D02*
G37*
G36*
X101371Y11423D02*
X101413Y11418D01*
X101454Y11414D01*
X101505Y11409D01*
X101556Y11400D01*
X101672Y11372D01*
X101792Y11330D01*
X101848Y11303D01*
X101908Y11270D01*
X101959Y11233D01*
X102010Y11191D01*
X102014Y11187D01*
X102019Y11182D01*
X102033Y11168D01*
X102051Y11150D01*
X102070Y11127D01*
X102088Y11099D01*
X102139Y11030D01*
X102186Y10942D01*
X102223Y10844D01*
X102255Y10729D01*
X102260Y10664D01*
X102264Y10599D01*
Y10594D01*
Y10590D01*
Y10562D01*
X102260Y10520D01*
X102250Y10465D01*
X102236Y10405D01*
X102213Y10340D01*
X102186Y10271D01*
X102144Y10201D01*
X102139Y10192D01*
X102121Y10173D01*
X102098Y10141D01*
X102061Y10104D01*
X102014Y10058D01*
X101959Y10016D01*
X101894Y9974D01*
X101820Y9937D01*
X101825D01*
X101834Y9933D01*
X101848Y9928D01*
X101866Y9919D01*
X101913Y9891D01*
X101973Y9854D01*
X102037Y9812D01*
X102107Y9757D01*
X102172Y9692D01*
X102227Y9618D01*
X102232Y9609D01*
X102250Y9581D01*
X102273Y9539D01*
X102297Y9484D01*
X102324Y9414D01*
X102343Y9331D01*
X102361Y9243D01*
X102366Y9146D01*
Y9141D01*
Y9127D01*
Y9104D01*
X102361Y9072D01*
X102357Y9035D01*
X102352Y8989D01*
X102343Y8942D01*
X102329Y8891D01*
X102297Y8776D01*
X102273Y8716D01*
X102246Y8655D01*
X102213Y8595D01*
X102172Y8535D01*
X102130Y8480D01*
X102079Y8424D01*
X102074Y8419D01*
X102065Y8410D01*
X102051Y8396D01*
X102028Y8382D01*
X102000Y8359D01*
X101963Y8336D01*
X101926Y8313D01*
X101880Y8285D01*
X101829Y8257D01*
X101769Y8234D01*
X101709Y8211D01*
X101644Y8188D01*
X101570Y8174D01*
X101491Y8160D01*
X101413Y8151D01*
X101325Y8146D01*
X101283D01*
X101251Y8151D01*
X101214Y8156D01*
X101172Y8160D01*
X101126Y8165D01*
X101070Y8174D01*
X100955Y8202D01*
X100834Y8244D01*
X100774Y8267D01*
X100714Y8299D01*
X100654Y8331D01*
X100598Y8373D01*
X100594Y8378D01*
X100584Y8387D01*
X100566Y8401D01*
X100543Y8424D01*
X100520Y8452D01*
X100492Y8484D01*
X100459Y8526D01*
X100427Y8567D01*
X100395Y8618D01*
X100362Y8674D01*
X100334Y8734D01*
X100311Y8804D01*
X100288Y8873D01*
X100270Y8952D01*
X100260Y9030D01*
X100256Y9118D01*
Y9123D01*
Y9132D01*
Y9146D01*
Y9164D01*
X100260Y9215D01*
X100270Y9276D01*
X100288Y9350D01*
X100307Y9433D01*
X100339Y9516D01*
X100381Y9600D01*
Y9604D01*
X100385Y9609D01*
X100404Y9637D01*
X100436Y9674D01*
X100482Y9724D01*
X100538Y9780D01*
X100607Y9836D01*
X100691Y9886D01*
X100788Y9937D01*
X100783D01*
X100779Y9942D01*
X100751Y9956D01*
X100709Y9979D01*
X100658Y10007D01*
X100598Y10048D01*
X100543Y10095D01*
X100487Y10150D01*
X100441Y10210D01*
X100436Y10220D01*
X100422Y10243D01*
X100408Y10275D01*
X100390Y10326D01*
X100367Y10382D01*
X100353Y10451D01*
X100339Y10520D01*
X100334Y10599D01*
Y10604D01*
Y10613D01*
Y10632D01*
X100339Y10659D01*
X100344Y10687D01*
X100348Y10724D01*
X100367Y10807D01*
X100395Y10900D01*
X100441Y11002D01*
X100469Y11048D01*
X100501Y11099D01*
X100543Y11145D01*
X100584Y11191D01*
X100589Y11196D01*
X100598Y11201D01*
X100612Y11215D01*
X100631Y11229D01*
X100658Y11247D01*
X100686Y11266D01*
X100723Y11289D01*
X100769Y11312D01*
X100816Y11330D01*
X100867Y11353D01*
X100927Y11372D01*
X100992Y11391D01*
X101061Y11404D01*
X101135Y11418D01*
X101214Y11423D01*
X101297Y11428D01*
X101343D01*
X101371Y11423D01*
D02*
G37*
G36*
X166654Y11421D02*
X166687D01*
X166724Y11416D01*
X166807Y11397D01*
X166899Y11374D01*
X167001Y11337D01*
X167103Y11286D01*
X167149Y11254D01*
X167196Y11217D01*
X167200D01*
X167205Y11208D01*
X167219Y11194D01*
X167233Y11180D01*
X167256Y11157D01*
X167274Y11134D01*
X167325Y11069D01*
X167376Y10981D01*
X167427Y10879D01*
X167473Y10763D01*
X167506Y10625D01*
X166913Y10560D01*
Y10569D01*
X166909Y10588D01*
X166899Y10620D01*
X166890Y10662D01*
X166876Y10703D01*
X166853Y10750D01*
X166830Y10791D01*
X166798Y10828D01*
X166793Y10833D01*
X166779Y10842D01*
X166761Y10856D01*
X166733Y10874D01*
X166700Y10888D01*
X166659Y10902D01*
X166608Y10912D01*
X166557Y10916D01*
X166548D01*
X166525Y10912D01*
X166488Y10907D01*
X166441Y10893D01*
X166390Y10874D01*
X166335Y10842D01*
X166279Y10800D01*
X166228Y10740D01*
X166224Y10731D01*
X166215Y10722D01*
X166205Y10703D01*
X166196Y10685D01*
X166182Y10657D01*
X166173Y10625D01*
X166159Y10583D01*
X166140Y10537D01*
X166127Y10486D01*
X166113Y10426D01*
X166099Y10361D01*
X166085Y10287D01*
X166076Y10203D01*
X166066Y10111D01*
X166057Y10014D01*
X166062Y10018D01*
X166066Y10028D01*
X166080Y10037D01*
X166099Y10055D01*
X166122Y10078D01*
X166150Y10102D01*
X166215Y10153D01*
X166298Y10199D01*
X166395Y10245D01*
X166451Y10264D01*
X166506Y10273D01*
X166566Y10282D01*
X166631Y10287D01*
X166668D01*
X166696Y10282D01*
X166728Y10277D01*
X166765Y10273D01*
X166812Y10264D01*
X166858Y10250D01*
X166960Y10213D01*
X167015Y10190D01*
X167071Y10162D01*
X167126Y10129D01*
X167182Y10088D01*
X167237Y10041D01*
X167288Y9991D01*
X167293Y9986D01*
X167302Y9977D01*
X167316Y9963D01*
X167330Y9940D01*
X167353Y9907D01*
X167376Y9875D01*
X167399Y9833D01*
X167427Y9787D01*
X167455Y9736D01*
X167478Y9676D01*
X167501Y9616D01*
X167524Y9546D01*
X167538Y9477D01*
X167552Y9398D01*
X167561Y9320D01*
X167566Y9232D01*
Y9227D01*
Y9208D01*
Y9185D01*
X167561Y9148D01*
X167557Y9107D01*
X167552Y9060D01*
X167543Y9005D01*
X167529Y8949D01*
X167496Y8820D01*
X167473Y8755D01*
X167441Y8690D01*
X167409Y8625D01*
X167372Y8561D01*
X167325Y8496D01*
X167274Y8440D01*
X167270Y8436D01*
X167260Y8426D01*
X167247Y8412D01*
X167223Y8394D01*
X167196Y8371D01*
X167159Y8348D01*
X167122Y8320D01*
X167075Y8292D01*
X167024Y8264D01*
X166969Y8237D01*
X166909Y8213D01*
X166839Y8190D01*
X166770Y8172D01*
X166696Y8158D01*
X166617Y8149D01*
X166534Y8144D01*
X166511D01*
X166488Y8149D01*
X166455D01*
X166414Y8158D01*
X166363Y8163D01*
X166312Y8176D01*
X166252Y8190D01*
X166191Y8209D01*
X166127Y8237D01*
X166057Y8264D01*
X165992Y8301D01*
X165923Y8343D01*
X165858Y8394D01*
X165793Y8454D01*
X165733Y8519D01*
X165729Y8524D01*
X165719Y8537D01*
X165705Y8561D01*
X165687Y8593D01*
X165659Y8635D01*
X165636Y8686D01*
X165608Y8746D01*
X165581Y8815D01*
X165548Y8898D01*
X165520Y8986D01*
X165497Y9088D01*
X165474Y9204D01*
X165451Y9324D01*
X165437Y9458D01*
X165428Y9602D01*
X165423Y9759D01*
Y9764D01*
Y9768D01*
Y9782D01*
Y9796D01*
Y9842D01*
X165428Y9903D01*
X165432Y9977D01*
X165442Y10060D01*
X165451Y10153D01*
X165465Y10250D01*
X165479Y10352D01*
X165502Y10458D01*
X165530Y10564D01*
X165562Y10671D01*
X165599Y10768D01*
X165641Y10865D01*
X165692Y10953D01*
X165747Y11032D01*
X165752Y11036D01*
X165761Y11050D01*
X165780Y11069D01*
X165807Y11092D01*
X165840Y11124D01*
X165877Y11157D01*
X165923Y11194D01*
X165974Y11231D01*
X166034Y11263D01*
X166094Y11300D01*
X166168Y11333D01*
X166242Y11365D01*
X166321Y11388D01*
X166409Y11407D01*
X166497Y11421D01*
X166594Y11425D01*
X166631D01*
X166654Y11421D01*
D02*
G37*
G36*
X158088Y11462D02*
X158139Y11458D01*
X158194Y11448D01*
X158259Y11439D01*
X158329Y11425D01*
X158403Y11407D01*
X158481Y11384D01*
X158560Y11356D01*
X158643Y11319D01*
X158722Y11282D01*
X158796Y11235D01*
X158875Y11180D01*
X158944Y11120D01*
X158949D01*
X158953Y11111D01*
X158967Y11097D01*
X158981Y11083D01*
X159000Y11060D01*
X159018Y11032D01*
X159069Y10967D01*
X159120Y10884D01*
X159176Y10782D01*
X159226Y10666D01*
X159273Y10532D01*
X158634Y10379D01*
Y10384D01*
X158629Y10389D01*
Y10402D01*
X158620Y10421D01*
X158606Y10463D01*
X158583Y10518D01*
X158551Y10583D01*
X158509Y10648D01*
X158454Y10713D01*
X158393Y10768D01*
X158384Y10773D01*
X158361Y10791D01*
X158324Y10814D01*
X158273Y10842D01*
X158208Y10870D01*
X158134Y10893D01*
X158051Y10912D01*
X157958Y10916D01*
X157926D01*
X157898Y10912D01*
X157870Y10907D01*
X157833Y10902D01*
X157755Y10884D01*
X157662Y10851D01*
X157565Y10805D01*
X157514Y10777D01*
X157468Y10745D01*
X157422Y10703D01*
X157380Y10657D01*
Y10652D01*
X157371Y10643D01*
X157361Y10629D01*
X157348Y10606D01*
X157329Y10578D01*
X157311Y10546D01*
X157292Y10504D01*
X157273Y10458D01*
X157250Y10402D01*
X157232Y10342D01*
X157213Y10273D01*
X157195Y10199D01*
X157181Y10116D01*
X157172Y10028D01*
X157167Y9930D01*
X157162Y9824D01*
Y9819D01*
Y9796D01*
Y9764D01*
X157167Y9727D01*
Y9676D01*
X157176Y9616D01*
X157181Y9556D01*
X157190Y9486D01*
X157218Y9343D01*
X157255Y9199D01*
X157278Y9130D01*
X157311Y9065D01*
X157343Y9005D01*
X157380Y8954D01*
X157385Y8949D01*
X157389Y8945D01*
X157403Y8931D01*
X157422Y8912D01*
X157468Y8875D01*
X157533Y8829D01*
X157611Y8778D01*
X157708Y8741D01*
X157820Y8709D01*
X157880Y8704D01*
X157945Y8699D01*
X157968D01*
X157986Y8704D01*
X158037Y8709D01*
X158097Y8718D01*
X158162Y8741D01*
X158236Y8769D01*
X158310Y8806D01*
X158384Y8861D01*
X158393Y8871D01*
X158417Y8894D01*
X158449Y8931D01*
X158486Y8986D01*
X158532Y9060D01*
X158574Y9148D01*
X158616Y9255D01*
X158653Y9380D01*
X159282Y9185D01*
Y9181D01*
X159277Y9162D01*
X159268Y9134D01*
X159254Y9097D01*
X159236Y9056D01*
X159217Y9005D01*
X159194Y8949D01*
X159166Y8889D01*
X159101Y8764D01*
X159018Y8635D01*
X158916Y8510D01*
X158861Y8454D01*
X158801Y8403D01*
X158796Y8399D01*
X158787Y8394D01*
X158768Y8380D01*
X158741Y8362D01*
X158708Y8343D01*
X158666Y8325D01*
X158620Y8301D01*
X158569Y8278D01*
X158509Y8250D01*
X158444Y8227D01*
X158375Y8209D01*
X158301Y8190D01*
X158222Y8172D01*
X158134Y8158D01*
X158046Y8153D01*
X157949Y8149D01*
X157921D01*
X157889Y8153D01*
X157843Y8158D01*
X157792Y8163D01*
X157727Y8172D01*
X157658Y8186D01*
X157579Y8204D01*
X157500Y8227D01*
X157417Y8255D01*
X157329Y8292D01*
X157241Y8334D01*
X157153Y8380D01*
X157065Y8440D01*
X156982Y8505D01*
X156903Y8584D01*
X156899Y8588D01*
X156885Y8602D01*
X156866Y8630D01*
X156838Y8662D01*
X156811Y8709D01*
X156774Y8760D01*
X156737Y8824D01*
X156700Y8898D01*
X156663Y8977D01*
X156626Y9065D01*
X156589Y9167D01*
X156561Y9273D01*
X156533Y9384D01*
X156514Y9509D01*
X156501Y9639D01*
X156496Y9778D01*
Y9782D01*
Y9787D01*
Y9815D01*
X156501Y9856D01*
Y9912D01*
X156510Y9977D01*
X156519Y10055D01*
X156528Y10139D01*
X156547Y10236D01*
X156570Y10333D01*
X156598Y10435D01*
X156630Y10537D01*
X156672Y10643D01*
X156718Y10745D01*
X156774Y10842D01*
X156834Y10935D01*
X156908Y11023D01*
X156913Y11027D01*
X156926Y11041D01*
X156950Y11064D01*
X156982Y11092D01*
X157024Y11124D01*
X157074Y11161D01*
X157130Y11203D01*
X157199Y11245D01*
X157273Y11286D01*
X157352Y11328D01*
X157445Y11365D01*
X157537Y11397D01*
X157644Y11425D01*
X157750Y11448D01*
X157870Y11462D01*
X157991Y11467D01*
X158046D01*
X158088Y11462D01*
D02*
G37*
G36*
X162401Y8204D02*
X161753D01*
Y9606D01*
X160490D01*
Y8204D01*
X159842D01*
Y11407D01*
X160490D01*
Y10148D01*
X161753D01*
Y11407D01*
X162401D01*
Y8204D01*
D02*
G37*
G36*
X164502D02*
X163887D01*
Y10523D01*
X163882Y10518D01*
X163873Y10509D01*
X163854Y10495D01*
X163827Y10472D01*
X163794Y10444D01*
X163757Y10416D01*
X163711Y10384D01*
X163660Y10347D01*
X163604Y10310D01*
X163544Y10273D01*
X163479Y10231D01*
X163410Y10194D01*
X163262Y10125D01*
X163095Y10060D01*
Y10615D01*
X163100D01*
X163105Y10620D01*
X163118Y10625D01*
X163137Y10629D01*
X163183Y10652D01*
X163248Y10680D01*
X163327Y10717D01*
X163415Y10768D01*
X163512Y10833D01*
X163614Y10907D01*
X163618Y10912D01*
X163628Y10916D01*
X163641Y10930D01*
X163660Y10949D01*
X163711Y10995D01*
X163766Y11055D01*
X163831Y11129D01*
X163896Y11222D01*
X163956Y11319D01*
X164002Y11425D01*
X164502D01*
Y8204D01*
D02*
G37*
G36*
X136704Y41002D02*
X136755Y40998D01*
X136811Y40989D01*
X136875Y40979D01*
X136945Y40965D01*
X137019Y40947D01*
X137098Y40924D01*
X137176Y40896D01*
X137260Y40859D01*
X137338Y40822D01*
X137412Y40776D01*
X137491Y40720D01*
X137560Y40660D01*
X137565D01*
X137570Y40651D01*
X137583Y40637D01*
X137597Y40623D01*
X137616Y40600D01*
X137634Y40572D01*
X137685Y40507D01*
X137736Y40424D01*
X137792Y40322D01*
X137843Y40206D01*
X137889Y40072D01*
X137250Y39919D01*
Y39924D01*
X137246Y39929D01*
Y39943D01*
X137236Y39961D01*
X137223Y40003D01*
X137199Y40058D01*
X137167Y40123D01*
X137125Y40188D01*
X137070Y40253D01*
X137010Y40308D01*
X137000Y40313D01*
X136977Y40331D01*
X136940Y40355D01*
X136889Y40382D01*
X136825Y40410D01*
X136750Y40433D01*
X136667Y40452D01*
X136575Y40456D01*
X136542D01*
X136514Y40452D01*
X136487Y40447D01*
X136450Y40442D01*
X136371Y40424D01*
X136278Y40392D01*
X136181Y40345D01*
X136130Y40318D01*
X136084Y40285D01*
X136038Y40243D01*
X135996Y40197D01*
Y40193D01*
X135987Y40183D01*
X135978Y40169D01*
X135964Y40146D01*
X135945Y40118D01*
X135927Y40086D01*
X135908Y40044D01*
X135890Y39998D01*
X135867Y39943D01*
X135848Y39882D01*
X135830Y39813D01*
X135811Y39739D01*
X135797Y39656D01*
X135788Y39568D01*
X135783Y39471D01*
X135779Y39364D01*
Y39360D01*
Y39336D01*
Y39304D01*
X135783Y39267D01*
Y39216D01*
X135792Y39156D01*
X135797Y39096D01*
X135806Y39026D01*
X135834Y38883D01*
X135871Y38739D01*
X135894Y38670D01*
X135927Y38605D01*
X135959Y38545D01*
X135996Y38494D01*
X136001Y38489D01*
X136005Y38485D01*
X136019Y38471D01*
X136038Y38452D01*
X136084Y38415D01*
X136149Y38369D01*
X136228Y38318D01*
X136325Y38281D01*
X136436Y38249D01*
X136496Y38244D01*
X136561Y38240D01*
X136584D01*
X136602Y38244D01*
X136653Y38249D01*
X136713Y38258D01*
X136778Y38281D01*
X136852Y38309D01*
X136926Y38346D01*
X137000Y38402D01*
X137010Y38411D01*
X137033Y38434D01*
X137065Y38471D01*
X137102Y38527D01*
X137148Y38601D01*
X137190Y38688D01*
X137232Y38795D01*
X137269Y38920D01*
X137898Y38726D01*
Y38721D01*
X137894Y38702D01*
X137884Y38675D01*
X137870Y38638D01*
X137852Y38596D01*
X137833Y38545D01*
X137810Y38489D01*
X137782Y38429D01*
X137718Y38304D01*
X137634Y38175D01*
X137533Y38050D01*
X137477Y37994D01*
X137417Y37943D01*
X137412Y37939D01*
X137403Y37934D01*
X137384Y37920D01*
X137357Y37902D01*
X137324Y37883D01*
X137283Y37865D01*
X137236Y37842D01*
X137185Y37818D01*
X137125Y37791D01*
X137061Y37768D01*
X136991Y37749D01*
X136917Y37731D01*
X136838Y37712D01*
X136750Y37698D01*
X136663Y37693D01*
X136565Y37689D01*
X136538D01*
X136505Y37693D01*
X136459Y37698D01*
X136408Y37703D01*
X136343Y37712D01*
X136274Y37726D01*
X136195Y37744D01*
X136116Y37768D01*
X136033Y37795D01*
X135945Y37832D01*
X135857Y37874D01*
X135769Y37920D01*
X135681Y37980D01*
X135598Y38045D01*
X135519Y38124D01*
X135515Y38129D01*
X135501Y38142D01*
X135482Y38170D01*
X135455Y38203D01*
X135427Y38249D01*
X135390Y38300D01*
X135353Y38365D01*
X135316Y38439D01*
X135279Y38517D01*
X135242Y38605D01*
X135205Y38707D01*
X135177Y38813D01*
X135149Y38925D01*
X135131Y39049D01*
X135117Y39179D01*
X135112Y39318D01*
Y39323D01*
Y39327D01*
Y39355D01*
X135117Y39397D01*
Y39452D01*
X135126Y39517D01*
X135135Y39596D01*
X135145Y39679D01*
X135163Y39776D01*
X135186Y39873D01*
X135214Y39975D01*
X135246Y40077D01*
X135288Y40183D01*
X135334Y40285D01*
X135390Y40382D01*
X135450Y40475D01*
X135524Y40563D01*
X135529Y40567D01*
X135543Y40581D01*
X135566Y40604D01*
X135598Y40632D01*
X135640Y40665D01*
X135691Y40702D01*
X135746Y40743D01*
X135816Y40785D01*
X135890Y40827D01*
X135968Y40868D01*
X136061Y40905D01*
X136153Y40938D01*
X136260Y40965D01*
X136366Y40989D01*
X136487Y41002D01*
X136607Y41007D01*
X136663D01*
X136704Y41002D01*
D02*
G37*
G36*
X141017Y37744D02*
X140369D01*
Y39147D01*
X139106D01*
Y37744D01*
X138458D01*
Y40947D01*
X139106D01*
Y39688D01*
X140369D01*
Y40947D01*
X141017D01*
Y37744D01*
D02*
G37*
G36*
X145608D02*
X144993D01*
Y40063D01*
X144988Y40058D01*
X144979Y40049D01*
X144960Y40035D01*
X144933Y40012D01*
X144900Y39984D01*
X144863Y39957D01*
X144817Y39924D01*
X144766Y39887D01*
X144710Y39850D01*
X144650Y39813D01*
X144585Y39771D01*
X144516Y39734D01*
X144368Y39665D01*
X144201Y39600D01*
Y40156D01*
X144206D01*
X144211Y40160D01*
X144224Y40165D01*
X144243Y40169D01*
X144289Y40193D01*
X144354Y40220D01*
X144433Y40257D01*
X144521Y40308D01*
X144618Y40373D01*
X144720Y40447D01*
X144724Y40452D01*
X144734Y40456D01*
X144747Y40470D01*
X144766Y40489D01*
X144817Y40535D01*
X144872Y40595D01*
X144937Y40669D01*
X145002Y40762D01*
X145062Y40859D01*
X145108Y40965D01*
X145608D01*
Y37744D01*
D02*
G37*
G36*
X143118D02*
X142503D01*
Y40063D01*
X142498Y40058D01*
X142489Y40049D01*
X142471Y40035D01*
X142443Y40012D01*
X142410Y39984D01*
X142373Y39957D01*
X142327Y39924D01*
X142276Y39887D01*
X142221Y39850D01*
X142160Y39813D01*
X142096Y39771D01*
X142026Y39734D01*
X141878Y39665D01*
X141712Y39600D01*
Y40156D01*
X141716D01*
X141721Y40160D01*
X141735Y40165D01*
X141753Y40169D01*
X141799Y40193D01*
X141864Y40220D01*
X141943Y40257D01*
X142031Y40308D01*
X142128Y40373D01*
X142230Y40447D01*
X142234Y40452D01*
X142244Y40456D01*
X142258Y40470D01*
X142276Y40489D01*
X142327Y40535D01*
X142383Y40595D01*
X142447Y40669D01*
X142512Y40762D01*
X142572Y40859D01*
X142619Y40965D01*
X143118D01*
Y37744D01*
D02*
G37*
G36*
X40054Y39862D02*
X40105Y39857D01*
X40160Y39848D01*
X40225Y39839D01*
X40295Y39825D01*
X40369Y39806D01*
X40447Y39783D01*
X40526Y39755D01*
X40609Y39718D01*
X40688Y39681D01*
X40762Y39635D01*
X40841Y39579D01*
X40910Y39519D01*
X40915D01*
X40919Y39510D01*
X40933Y39496D01*
X40947Y39482D01*
X40966Y39459D01*
X40984Y39431D01*
X41035Y39367D01*
X41086Y39283D01*
X41141Y39181D01*
X41192Y39066D01*
X41239Y38932D01*
X40600Y38779D01*
Y38783D01*
X40595Y38788D01*
Y38802D01*
X40586Y38820D01*
X40572Y38862D01*
X40549Y38918D01*
X40517Y38982D01*
X40475Y39047D01*
X40419Y39112D01*
X40359Y39168D01*
X40350Y39172D01*
X40327Y39191D01*
X40290Y39214D01*
X40239Y39242D01*
X40174Y39269D01*
X40100Y39293D01*
X40017Y39311D01*
X39924Y39316D01*
X39892D01*
X39864Y39311D01*
X39836Y39306D01*
X39799Y39302D01*
X39721Y39283D01*
X39628Y39251D01*
X39531Y39205D01*
X39480Y39177D01*
X39434Y39144D01*
X39387Y39103D01*
X39346Y39056D01*
Y39052D01*
X39337Y39043D01*
X39327Y39029D01*
X39313Y39006D01*
X39295Y38978D01*
X39276Y38945D01*
X39258Y38904D01*
X39239Y38857D01*
X39216Y38802D01*
X39198Y38742D01*
X39179Y38672D01*
X39161Y38598D01*
X39147Y38515D01*
X39138Y38427D01*
X39133Y38330D01*
X39128Y38223D01*
Y38219D01*
Y38196D01*
Y38163D01*
X39133Y38126D01*
Y38075D01*
X39142Y38015D01*
X39147Y37955D01*
X39156Y37886D01*
X39184Y37742D01*
X39221Y37599D01*
X39244Y37529D01*
X39276Y37465D01*
X39309Y37404D01*
X39346Y37353D01*
X39350Y37349D01*
X39355Y37344D01*
X39369Y37330D01*
X39387Y37312D01*
X39434Y37275D01*
X39499Y37228D01*
X39577Y37178D01*
X39674Y37141D01*
X39785Y37108D01*
X39846Y37104D01*
X39910Y37099D01*
X39934D01*
X39952Y37104D01*
X40003Y37108D01*
X40063Y37117D01*
X40128Y37141D01*
X40202Y37168D01*
X40276Y37205D01*
X40350Y37261D01*
X40359Y37270D01*
X40382Y37293D01*
X40415Y37330D01*
X40452Y37386D01*
X40498Y37460D01*
X40540Y37548D01*
X40581Y37654D01*
X40618Y37779D01*
X41248Y37585D01*
Y37580D01*
X41243Y37562D01*
X41234Y37534D01*
X41220Y37497D01*
X41202Y37455D01*
X41183Y37404D01*
X41160Y37349D01*
X41132Y37289D01*
X41067Y37164D01*
X40984Y37034D01*
X40882Y36909D01*
X40827Y36854D01*
X40767Y36803D01*
X40762Y36798D01*
X40753Y36793D01*
X40734Y36780D01*
X40706Y36761D01*
X40674Y36743D01*
X40632Y36724D01*
X40586Y36701D01*
X40535Y36678D01*
X40475Y36650D01*
X40410Y36627D01*
X40341Y36608D01*
X40267Y36590D01*
X40188Y36571D01*
X40100Y36557D01*
X40012Y36553D01*
X39915Y36548D01*
X39887D01*
X39855Y36553D01*
X39809Y36557D01*
X39758Y36562D01*
X39693Y36571D01*
X39624Y36585D01*
X39545Y36604D01*
X39466Y36627D01*
X39383Y36655D01*
X39295Y36692D01*
X39207Y36733D01*
X39119Y36780D01*
X39031Y36840D01*
X38948Y36905D01*
X38869Y36983D01*
X38865Y36988D01*
X38851Y37002D01*
X38832Y37029D01*
X38804Y37062D01*
X38777Y37108D01*
X38740Y37159D01*
X38703Y37224D01*
X38666Y37298D01*
X38629Y37377D01*
X38591Y37465D01*
X38554Y37566D01*
X38527Y37673D01*
X38499Y37784D01*
X38480Y37909D01*
X38467Y38038D01*
X38462Y38177D01*
Y38182D01*
Y38186D01*
Y38214D01*
X38467Y38256D01*
Y38311D01*
X38476Y38376D01*
X38485Y38455D01*
X38494Y38538D01*
X38513Y38635D01*
X38536Y38733D01*
X38564Y38834D01*
X38596Y38936D01*
X38638Y39043D01*
X38684Y39144D01*
X38740Y39242D01*
X38800Y39334D01*
X38874Y39422D01*
X38878Y39427D01*
X38892Y39441D01*
X38915Y39464D01*
X38948Y39492D01*
X38989Y39524D01*
X39040Y39561D01*
X39096Y39603D01*
X39165Y39644D01*
X39239Y39686D01*
X39318Y39728D01*
X39411Y39765D01*
X39503Y39797D01*
X39610Y39825D01*
X39716Y39848D01*
X39836Y39862D01*
X39957Y39866D01*
X40012D01*
X40054Y39862D01*
D02*
G37*
G36*
X44367Y36604D02*
X43719D01*
Y38006D01*
X42456D01*
Y36604D01*
X41808D01*
Y39806D01*
X42456D01*
Y38547D01*
X43719D01*
Y39806D01*
X44367D01*
Y36604D01*
D02*
G37*
G36*
X46922Y39191D02*
X45760D01*
X45663Y38645D01*
X45668D01*
X45672Y38649D01*
X45700Y38663D01*
X45742Y38677D01*
X45792Y38700D01*
X45857Y38719D01*
X45927Y38733D01*
X46005Y38746D01*
X46084Y38751D01*
X46126D01*
X46153Y38746D01*
X46186Y38742D01*
X46227Y38737D01*
X46274Y38728D01*
X46325Y38714D01*
X46431Y38677D01*
X46491Y38654D01*
X46547Y38626D01*
X46607Y38589D01*
X46667Y38547D01*
X46723Y38501D01*
X46778Y38450D01*
X46783Y38446D01*
X46792Y38436D01*
X46806Y38418D01*
X46824Y38395D01*
X46843Y38367D01*
X46871Y38330D01*
X46894Y38288D01*
X46922Y38242D01*
X46949Y38191D01*
X46973Y38131D01*
X47000Y38066D01*
X47019Y38001D01*
X47037Y37927D01*
X47051Y37849D01*
X47061Y37765D01*
X47065Y37677D01*
Y37673D01*
Y37659D01*
Y37640D01*
X47061Y37613D01*
Y37576D01*
X47051Y37534D01*
X47047Y37488D01*
X47037Y37441D01*
X47010Y37330D01*
X46968Y37210D01*
X46940Y37145D01*
X46912Y37085D01*
X46875Y37025D01*
X46834Y36965D01*
X46829Y36960D01*
X46820Y36946D01*
X46801Y36928D01*
X46778Y36900D01*
X46746Y36868D01*
X46704Y36830D01*
X46658Y36793D01*
X46607Y36756D01*
X46547Y36715D01*
X46482Y36678D01*
X46413Y36641D01*
X46334Y36608D01*
X46251Y36581D01*
X46163Y36562D01*
X46066Y36548D01*
X45964Y36544D01*
X45922D01*
X45890Y36548D01*
X45853Y36553D01*
X45806Y36557D01*
X45760Y36562D01*
X45705Y36571D01*
X45593Y36599D01*
X45469Y36645D01*
X45408Y36668D01*
X45348Y36701D01*
X45293Y36738D01*
X45237Y36780D01*
X45232Y36784D01*
X45223Y36789D01*
X45209Y36803D01*
X45191Y36821D01*
X45172Y36849D01*
X45145Y36877D01*
X45121Y36909D01*
X45094Y36946D01*
X45061Y36992D01*
X45033Y37039D01*
X44983Y37150D01*
X44936Y37275D01*
X44922Y37344D01*
X44909Y37418D01*
X45519Y37483D01*
Y37474D01*
X45524Y37451D01*
X45533Y37409D01*
X45547Y37363D01*
X45566Y37312D01*
X45593Y37256D01*
X45630Y37205D01*
X45672Y37154D01*
X45677Y37150D01*
X45695Y37136D01*
X45723Y37117D01*
X45760Y37094D01*
X45802Y37071D01*
X45853Y37053D01*
X45913Y37039D01*
X45973Y37034D01*
X45982D01*
X46005Y37039D01*
X46042Y37043D01*
X46089Y37053D01*
X46140Y37071D01*
X46195Y37099D01*
X46251Y37141D01*
X46302Y37191D01*
X46306Y37201D01*
X46325Y37219D01*
X46343Y37256D01*
X46371Y37312D01*
X46394Y37377D01*
X46417Y37455D01*
X46431Y37552D01*
X46436Y37664D01*
Y37668D01*
Y37677D01*
Y37691D01*
Y37714D01*
X46431Y37765D01*
X46417Y37830D01*
X46403Y37904D01*
X46380Y37978D01*
X46348Y38048D01*
X46302Y38108D01*
X46297Y38112D01*
X46278Y38131D01*
X46246Y38154D01*
X46209Y38186D01*
X46158Y38214D01*
X46098Y38237D01*
X46028Y38256D01*
X45954Y38260D01*
X45927D01*
X45908Y38256D01*
X45862Y38247D01*
X45797Y38233D01*
X45723Y38205D01*
X45644Y38163D01*
X45603Y38136D01*
X45561Y38103D01*
X45519Y38066D01*
X45478Y38024D01*
X44983Y38094D01*
X45297Y39765D01*
X46922D01*
Y39191D01*
D02*
G37*
G36*
X79443Y11460D02*
X79494Y11455D01*
X79549Y11446D01*
X79614Y11437D01*
X79684Y11423D01*
X79758Y11404D01*
X79836Y11381D01*
X79915Y11353D01*
X79998Y11316D01*
X80077Y11279D01*
X80151Y11233D01*
X80230Y11178D01*
X80299Y11117D01*
X80304D01*
X80308Y11108D01*
X80322Y11094D01*
X80336Y11080D01*
X80355Y11057D01*
X80373Y11030D01*
X80424Y10965D01*
X80475Y10881D01*
X80531Y10780D01*
X80581Y10664D01*
X80628Y10530D01*
X79989Y10377D01*
Y10382D01*
X79984Y10386D01*
Y10400D01*
X79975Y10419D01*
X79961Y10460D01*
X79938Y10516D01*
X79906Y10581D01*
X79864Y10645D01*
X79809Y10710D01*
X79748Y10766D01*
X79739Y10770D01*
X79716Y10789D01*
X79679Y10812D01*
X79628Y10840D01*
X79563Y10868D01*
X79489Y10891D01*
X79406Y10909D01*
X79313Y10914D01*
X79281D01*
X79253Y10909D01*
X79225Y10905D01*
X79188Y10900D01*
X79110Y10881D01*
X79017Y10849D01*
X78920Y10803D01*
X78869Y10775D01*
X78823Y10743D01*
X78777Y10701D01*
X78735Y10655D01*
Y10650D01*
X78726Y10641D01*
X78716Y10627D01*
X78703Y10604D01*
X78684Y10576D01*
X78666Y10544D01*
X78647Y10502D01*
X78628Y10456D01*
X78605Y10400D01*
X78587Y10340D01*
X78568Y10271D01*
X78550Y10196D01*
X78536Y10113D01*
X78527Y10025D01*
X78522Y9928D01*
X78517Y9822D01*
Y9817D01*
Y9794D01*
Y9761D01*
X78522Y9724D01*
Y9674D01*
X78531Y9613D01*
X78536Y9553D01*
X78545Y9484D01*
X78573Y9340D01*
X78610Y9197D01*
X78633Y9127D01*
X78666Y9063D01*
X78698Y9003D01*
X78735Y8952D01*
X78740Y8947D01*
X78744Y8942D01*
X78758Y8928D01*
X78777Y8910D01*
X78823Y8873D01*
X78888Y8827D01*
X78966Y8776D01*
X79063Y8739D01*
X79175Y8706D01*
X79235Y8702D01*
X79300Y8697D01*
X79323D01*
X79341Y8702D01*
X79392Y8706D01*
X79452Y8716D01*
X79517Y8739D01*
X79591Y8766D01*
X79665Y8804D01*
X79739Y8859D01*
X79748Y8868D01*
X79772Y8891D01*
X79804Y8928D01*
X79841Y8984D01*
X79887Y9058D01*
X79929Y9146D01*
X79971Y9252D01*
X80008Y9377D01*
X80637Y9183D01*
Y9178D01*
X80632Y9160D01*
X80623Y9132D01*
X80609Y9095D01*
X80591Y9053D01*
X80572Y9003D01*
X80549Y8947D01*
X80521Y8887D01*
X80456Y8762D01*
X80373Y8632D01*
X80271Y8507D01*
X80216Y8452D01*
X80156Y8401D01*
X80151Y8396D01*
X80142Y8392D01*
X80123Y8378D01*
X80096Y8359D01*
X80063Y8341D01*
X80021Y8322D01*
X79975Y8299D01*
X79924Y8276D01*
X79864Y8248D01*
X79799Y8225D01*
X79730Y8207D01*
X79656Y8188D01*
X79577Y8169D01*
X79489Y8156D01*
X79401Y8151D01*
X79304Y8146D01*
X79276D01*
X79244Y8151D01*
X79198Y8156D01*
X79147Y8160D01*
X79082Y8169D01*
X79013Y8183D01*
X78934Y8202D01*
X78855Y8225D01*
X78772Y8253D01*
X78684Y8290D01*
X78596Y8331D01*
X78508Y8378D01*
X78420Y8438D01*
X78337Y8503D01*
X78258Y8581D01*
X78254Y8586D01*
X78240Y8600D01*
X78221Y8628D01*
X78193Y8660D01*
X78166Y8706D01*
X78129Y8757D01*
X78092Y8822D01*
X78055Y8896D01*
X78018Y8975D01*
X77981Y9063D01*
X77944Y9164D01*
X77916Y9271D01*
X77888Y9382D01*
X77870Y9507D01*
X77856Y9637D01*
X77851Y9775D01*
Y9780D01*
Y9785D01*
Y9812D01*
X77856Y9854D01*
Y9910D01*
X77865Y9974D01*
X77874Y10053D01*
X77883Y10136D01*
X77902Y10234D01*
X77925Y10331D01*
X77953Y10433D01*
X77985Y10534D01*
X78027Y10641D01*
X78073Y10743D01*
X78129Y10840D01*
X78189Y10932D01*
X78263Y11020D01*
X78268Y11025D01*
X78281Y11039D01*
X78305Y11062D01*
X78337Y11090D01*
X78379Y11122D01*
X78429Y11159D01*
X78485Y11201D01*
X78554Y11242D01*
X78628Y11284D01*
X78707Y11326D01*
X78800Y11363D01*
X78892Y11395D01*
X78999Y11423D01*
X79105Y11446D01*
X79225Y11460D01*
X79346Y11465D01*
X79401D01*
X79443Y11460D01*
D02*
G37*
G36*
X83756Y8202D02*
X83108D01*
Y9604D01*
X81845D01*
Y8202D01*
X81197D01*
Y11404D01*
X81845D01*
Y10146D01*
X83108D01*
Y11404D01*
X83756D01*
Y8202D01*
D02*
G37*
G36*
X86389Y10918D02*
X86385Y10914D01*
X86376Y10905D01*
X86362Y10891D01*
X86343Y10872D01*
X86320Y10844D01*
X86292Y10812D01*
X86260Y10775D01*
X86223Y10729D01*
X86186Y10678D01*
X86144Y10622D01*
X86098Y10562D01*
X86052Y10497D01*
X86005Y10423D01*
X85959Y10349D01*
X85908Y10266D01*
X85857Y10178D01*
X85853Y10173D01*
X85843Y10155D01*
X85829Y10132D01*
X85811Y10095D01*
X85792Y10053D01*
X85765Y9998D01*
X85737Y9937D01*
X85705Y9873D01*
X85672Y9799D01*
X85640Y9720D01*
X85603Y9637D01*
X85570Y9549D01*
X85506Y9359D01*
X85445Y9160D01*
Y9155D01*
X85441Y9137D01*
X85431Y9109D01*
X85422Y9067D01*
X85413Y9021D01*
X85404Y8970D01*
X85390Y8905D01*
X85376Y8841D01*
X85362Y8766D01*
X85353Y8692D01*
X85330Y8530D01*
X85316Y8364D01*
X85311Y8202D01*
X84719D01*
Y8211D01*
Y8230D01*
X84723Y8267D01*
Y8318D01*
X84728Y8378D01*
X84737Y8447D01*
X84747Y8530D01*
X84760Y8618D01*
X84774Y8716D01*
X84793Y8822D01*
X84816Y8933D01*
X84839Y9053D01*
X84871Y9174D01*
X84904Y9299D01*
X84946Y9424D01*
X84992Y9553D01*
X84996Y9562D01*
X85006Y9586D01*
X85020Y9623D01*
X85038Y9669D01*
X85066Y9729D01*
X85098Y9803D01*
X85135Y9882D01*
X85177Y9970D01*
X85223Y10062D01*
X85274Y10159D01*
X85330Y10266D01*
X85394Y10368D01*
X85529Y10585D01*
X85681Y10793D01*
X84288D01*
Y11363D01*
X86389D01*
Y10918D01*
D02*
G37*
G36*
X142176Y11465D02*
X142227Y11460D01*
X142283Y11451D01*
X142347Y11441D01*
X142417Y11428D01*
X142491Y11409D01*
X142570Y11386D01*
X142648Y11358D01*
X142732Y11321D01*
X142810Y11284D01*
X142884Y11238D01*
X142963Y11182D01*
X143032Y11122D01*
X143037D01*
X143042Y11113D01*
X143055Y11099D01*
X143069Y11085D01*
X143088Y11062D01*
X143106Y11034D01*
X143157Y10969D01*
X143208Y10886D01*
X143264Y10784D01*
X143315Y10669D01*
X143361Y10534D01*
X142722Y10382D01*
Y10386D01*
X142718Y10391D01*
Y10405D01*
X142708Y10423D01*
X142694Y10465D01*
X142671Y10520D01*
X142639Y10585D01*
X142597Y10650D01*
X142542Y10715D01*
X142482Y10770D01*
X142472Y10775D01*
X142449Y10793D01*
X142412Y10817D01*
X142361Y10844D01*
X142296Y10872D01*
X142222Y10895D01*
X142139Y10914D01*
X142047Y10918D01*
X142014D01*
X141986Y10914D01*
X141959Y10909D01*
X141922Y10905D01*
X141843Y10886D01*
X141750Y10854D01*
X141653Y10807D01*
X141602Y10780D01*
X141556Y10747D01*
X141510Y10706D01*
X141468Y10659D01*
Y10655D01*
X141459Y10645D01*
X141450Y10632D01*
X141436Y10608D01*
X141417Y10581D01*
X141399Y10548D01*
X141380Y10507D01*
X141362Y10460D01*
X141339Y10405D01*
X141320Y10345D01*
X141301Y10275D01*
X141283Y10201D01*
X141269Y10118D01*
X141260Y10030D01*
X141255Y9933D01*
X141251Y9826D01*
Y9822D01*
Y9799D01*
Y9766D01*
X141255Y9729D01*
Y9678D01*
X141264Y9618D01*
X141269Y9558D01*
X141278Y9488D01*
X141306Y9345D01*
X141343Y9202D01*
X141366Y9132D01*
X141399Y9067D01*
X141431Y9007D01*
X141468Y8956D01*
X141473Y8952D01*
X141477Y8947D01*
X141491Y8933D01*
X141510Y8915D01*
X141556Y8878D01*
X141621Y8831D01*
X141699Y8780D01*
X141797Y8743D01*
X141908Y8711D01*
X141968Y8706D01*
X142033Y8702D01*
X142056D01*
X142074Y8706D01*
X142125Y8711D01*
X142185Y8720D01*
X142250Y8743D01*
X142324Y8771D01*
X142398Y8808D01*
X142472Y8864D01*
X142482Y8873D01*
X142505Y8896D01*
X142537Y8933D01*
X142574Y8989D01*
X142620Y9063D01*
X142662Y9151D01*
X142704Y9257D01*
X142741Y9382D01*
X143370Y9188D01*
Y9183D01*
X143366Y9164D01*
X143356Y9137D01*
X143342Y9100D01*
X143324Y9058D01*
X143305Y9007D01*
X143282Y8952D01*
X143254Y8891D01*
X143190Y8766D01*
X143106Y8637D01*
X143005Y8512D01*
X142949Y8456D01*
X142889Y8406D01*
X142884Y8401D01*
X142875Y8396D01*
X142856Y8382D01*
X142829Y8364D01*
X142796Y8345D01*
X142755Y8327D01*
X142708Y8304D01*
X142657Y8281D01*
X142597Y8253D01*
X142533Y8230D01*
X142463Y8211D01*
X142389Y8193D01*
X142310Y8174D01*
X142222Y8160D01*
X142135Y8156D01*
X142037Y8151D01*
X142010D01*
X141977Y8156D01*
X141931Y8160D01*
X141880Y8165D01*
X141815Y8174D01*
X141746Y8188D01*
X141667Y8207D01*
X141588Y8230D01*
X141505Y8257D01*
X141417Y8294D01*
X141329Y8336D01*
X141241Y8382D01*
X141153Y8443D01*
X141070Y8507D01*
X140991Y8586D01*
X140987Y8591D01*
X140973Y8605D01*
X140954Y8632D01*
X140927Y8665D01*
X140899Y8711D01*
X140862Y8762D01*
X140825Y8827D01*
X140788Y8901D01*
X140751Y8979D01*
X140714Y9067D01*
X140677Y9169D01*
X140649Y9276D01*
X140621Y9387D01*
X140603Y9512D01*
X140589Y9641D01*
X140584Y9780D01*
Y9785D01*
Y9789D01*
Y9817D01*
X140589Y9859D01*
Y9914D01*
X140598Y9979D01*
X140607Y10058D01*
X140617Y10141D01*
X140635Y10238D01*
X140658Y10335D01*
X140686Y10437D01*
X140718Y10539D01*
X140760Y10645D01*
X140806Y10747D01*
X140862Y10844D01*
X140922Y10937D01*
X140996Y11025D01*
X141001Y11030D01*
X141015Y11043D01*
X141038Y11067D01*
X141070Y11094D01*
X141112Y11127D01*
X141163Y11164D01*
X141218Y11205D01*
X141288Y11247D01*
X141362Y11289D01*
X141440Y11330D01*
X141533Y11367D01*
X141625Y11400D01*
X141732Y11428D01*
X141838Y11451D01*
X141959Y11465D01*
X142079Y11469D01*
X142135D01*
X142176Y11465D01*
D02*
G37*
G36*
X146489Y8207D02*
X145841D01*
Y9609D01*
X144578D01*
Y8207D01*
X143930D01*
Y11409D01*
X144578D01*
Y10150D01*
X145841D01*
Y11409D01*
X146489D01*
Y8207D01*
D02*
G37*
G36*
X150594Y11423D02*
X150636Y11418D01*
X150678Y11414D01*
X150728Y11404D01*
X150779Y11391D01*
X150895Y11358D01*
X150955Y11335D01*
X151020Y11303D01*
X151080Y11270D01*
X151136Y11233D01*
X151196Y11187D01*
X151247Y11136D01*
X151251Y11131D01*
X151256Y11127D01*
X151270Y11113D01*
X151284Y11094D01*
X151321Y11048D01*
X151363Y10983D01*
X151404Y10905D01*
X151437Y10812D01*
X151464Y10710D01*
X151469Y10659D01*
X151474Y10604D01*
Y10599D01*
Y10585D01*
X151469Y10562D01*
X151464Y10534D01*
X151460Y10497D01*
X151450Y10456D01*
X151437Y10409D01*
X151418Y10358D01*
X151390Y10308D01*
X151363Y10252D01*
X151325Y10196D01*
X151279Y10141D01*
X151224Y10085D01*
X151164Y10030D01*
X151094Y9979D01*
X151011Y9928D01*
X151015D01*
X151025Y9923D01*
X151039D01*
X151057Y9914D01*
X151108Y9900D01*
X151168Y9873D01*
X151238Y9836D01*
X151312Y9789D01*
X151386Y9729D01*
X151450Y9660D01*
X151460Y9650D01*
X151478Y9623D01*
X151501Y9581D01*
X151534Y9521D01*
X151566Y9451D01*
X151589Y9363D01*
X151608Y9271D01*
X151617Y9164D01*
Y9160D01*
Y9146D01*
Y9123D01*
X151612Y9095D01*
X151608Y9058D01*
X151599Y9016D01*
X151589Y8965D01*
X151580Y8915D01*
X151543Y8804D01*
X151515Y8743D01*
X151487Y8679D01*
X151450Y8618D01*
X151409Y8558D01*
X151363Y8498D01*
X151307Y8443D01*
X151302Y8438D01*
X151293Y8429D01*
X151275Y8415D01*
X151251Y8396D01*
X151219Y8373D01*
X151187Y8350D01*
X151140Y8322D01*
X151094Y8294D01*
X151043Y8267D01*
X150983Y8239D01*
X150918Y8216D01*
X150853Y8193D01*
X150779Y8174D01*
X150705Y8160D01*
X150622Y8151D01*
X150539Y8146D01*
X150497D01*
X150465Y8151D01*
X150428Y8156D01*
X150386Y8160D01*
X150340Y8169D01*
X150284Y8179D01*
X150173Y8207D01*
X150053Y8253D01*
X149988Y8281D01*
X149932Y8313D01*
X149872Y8355D01*
X149817Y8396D01*
X149812Y8401D01*
X149803Y8410D01*
X149789Y8424D01*
X149771Y8443D01*
X149747Y8466D01*
X149724Y8498D01*
X149696Y8530D01*
X149669Y8572D01*
X149641Y8618D01*
X149609Y8665D01*
X149558Y8776D01*
X149516Y8905D01*
X149497Y8975D01*
X149488Y9049D01*
X150081Y9123D01*
Y9118D01*
Y9114D01*
X150085Y9086D01*
X150094Y9044D01*
X150108Y8993D01*
X150132Y8938D01*
X150155Y8878D01*
X150192Y8822D01*
X150233Y8771D01*
X150238Y8766D01*
X150256Y8753D01*
X150284Y8734D01*
X150317Y8716D01*
X150363Y8692D01*
X150414Y8674D01*
X150469Y8660D01*
X150534Y8655D01*
X150543D01*
X150567Y8660D01*
X150599Y8665D01*
X150645Y8674D01*
X150696Y8692D01*
X150747Y8716D01*
X150803Y8753D01*
X150853Y8799D01*
X150858Y8804D01*
X150877Y8827D01*
X150895Y8859D01*
X150923Y8901D01*
X150946Y8956D01*
X150969Y9026D01*
X150983Y9104D01*
X150988Y9192D01*
Y9197D01*
Y9202D01*
Y9229D01*
X150983Y9271D01*
X150974Y9326D01*
X150955Y9387D01*
X150932Y9447D01*
X150900Y9507D01*
X150858Y9562D01*
X150853Y9567D01*
X150835Y9586D01*
X150807Y9609D01*
X150775Y9632D01*
X150728Y9660D01*
X150678Y9678D01*
X150622Y9697D01*
X150557Y9701D01*
X150511D01*
X150479Y9697D01*
X150437Y9692D01*
X150386Y9683D01*
X150335Y9669D01*
X150275Y9655D01*
X150340Y10150D01*
X150381D01*
X150428Y10155D01*
X150483Y10159D01*
X150543Y10173D01*
X150608Y10192D01*
X150668Y10220D01*
X150724Y10257D01*
X150728Y10261D01*
X150747Y10280D01*
X150766Y10303D01*
X150793Y10340D01*
X150816Y10382D01*
X150840Y10433D01*
X150853Y10493D01*
X150858Y10562D01*
Y10571D01*
Y10590D01*
X150853Y10618D01*
X150844Y10655D01*
X150835Y10696D01*
X150816Y10738D01*
X150793Y10784D01*
X150761Y10821D01*
X150756Y10826D01*
X150742Y10835D01*
X150724Y10854D01*
X150691Y10872D01*
X150654Y10886D01*
X150613Y10905D01*
X150557Y10914D01*
X150502Y10918D01*
X150474D01*
X150446Y10914D01*
X150409Y10905D01*
X150368Y10891D01*
X150321Y10872D01*
X150275Y10844D01*
X150233Y10807D01*
X150229Y10803D01*
X150215Y10789D01*
X150196Y10761D01*
X150173Y10724D01*
X150150Y10682D01*
X150132Y10627D01*
X150113Y10562D01*
X150099Y10488D01*
X149535Y10581D01*
Y10585D01*
X149539Y10594D01*
Y10608D01*
X149544Y10632D01*
X149558Y10682D01*
X149576Y10752D01*
X149604Y10826D01*
X149632Y10905D01*
X149669Y10979D01*
X149710Y11048D01*
X149715Y11057D01*
X149734Y11076D01*
X149761Y11108D01*
X149798Y11150D01*
X149845Y11191D01*
X149900Y11238D01*
X149970Y11284D01*
X150044Y11326D01*
X150048D01*
X150053Y11330D01*
X150081Y11340D01*
X150127Y11358D01*
X150182Y11377D01*
X150252Y11395D01*
X150335Y11414D01*
X150423Y11423D01*
X150520Y11428D01*
X150562D01*
X150594Y11423D01*
D02*
G37*
G36*
X148590Y8207D02*
X147975D01*
Y10525D01*
X147970Y10520D01*
X147961Y10511D01*
X147943Y10497D01*
X147915Y10474D01*
X147882Y10446D01*
X147845Y10419D01*
X147799Y10386D01*
X147748Y10349D01*
X147693Y10312D01*
X147632Y10275D01*
X147568Y10234D01*
X147498Y10196D01*
X147350Y10127D01*
X147184Y10062D01*
Y10618D01*
X147188D01*
X147193Y10622D01*
X147207Y10627D01*
X147225Y10632D01*
X147271Y10655D01*
X147336Y10682D01*
X147415Y10719D01*
X147503Y10770D01*
X147600Y10835D01*
X147702Y10909D01*
X147706Y10914D01*
X147716Y10918D01*
X147730Y10932D01*
X147748Y10951D01*
X147799Y10997D01*
X147855Y11057D01*
X147919Y11131D01*
X147984Y11224D01*
X148044Y11321D01*
X148091Y11428D01*
X148590D01*
Y8207D01*
D02*
G37*
G36*
X24339Y39859D02*
X24390Y39855D01*
X24445Y39846D01*
X24510Y39836D01*
X24579Y39822D01*
X24653Y39804D01*
X24732Y39781D01*
X24811Y39753D01*
X24894Y39716D01*
X24973Y39679D01*
X25047Y39633D01*
X25125Y39577D01*
X25195Y39517D01*
X25199D01*
X25204Y39508D01*
X25218Y39494D01*
X25232Y39480D01*
X25250Y39457D01*
X25269Y39429D01*
X25320Y39364D01*
X25371Y39281D01*
X25426Y39179D01*
X25477Y39063D01*
X25523Y38929D01*
X24885Y38777D01*
Y38781D01*
X24880Y38786D01*
Y38800D01*
X24871Y38818D01*
X24857Y38860D01*
X24834Y38915D01*
X24802Y38980D01*
X24760Y39045D01*
X24704Y39110D01*
X24644Y39165D01*
X24635Y39170D01*
X24612Y39188D01*
X24575Y39212D01*
X24524Y39239D01*
X24459Y39267D01*
X24385Y39290D01*
X24302Y39309D01*
X24209Y39313D01*
X24177D01*
X24149Y39309D01*
X24121Y39304D01*
X24084Y39299D01*
X24006Y39281D01*
X23913Y39249D01*
X23816Y39202D01*
X23765Y39174D01*
X23719Y39142D01*
X23672Y39100D01*
X23631Y39054D01*
Y39050D01*
X23621Y39040D01*
X23612Y39026D01*
X23598Y39003D01*
X23580Y38975D01*
X23561Y38943D01*
X23543Y38901D01*
X23524Y38855D01*
X23501Y38800D01*
X23483Y38739D01*
X23464Y38670D01*
X23446Y38596D01*
X23432Y38513D01*
X23422Y38425D01*
X23418Y38328D01*
X23413Y38221D01*
Y38217D01*
Y38193D01*
Y38161D01*
X23418Y38124D01*
Y38073D01*
X23427Y38013D01*
X23432Y37953D01*
X23441Y37883D01*
X23469Y37740D01*
X23506Y37596D01*
X23529Y37527D01*
X23561Y37462D01*
X23594Y37402D01*
X23631Y37351D01*
X23635Y37346D01*
X23640Y37342D01*
X23654Y37328D01*
X23672Y37309D01*
X23719Y37272D01*
X23783Y37226D01*
X23862Y37175D01*
X23959Y37138D01*
X24070Y37106D01*
X24130Y37101D01*
X24195Y37097D01*
X24218D01*
X24237Y37101D01*
X24288Y37106D01*
X24348Y37115D01*
X24413Y37138D01*
X24487Y37166D01*
X24561Y37203D01*
X24635Y37259D01*
X24644Y37268D01*
X24667Y37291D01*
X24700Y37328D01*
X24737Y37384D01*
X24783Y37458D01*
X24825Y37545D01*
X24866Y37652D01*
X24903Y37777D01*
X25533Y37583D01*
Y37578D01*
X25528Y37559D01*
X25519Y37532D01*
X25505Y37495D01*
X25486Y37453D01*
X25468Y37402D01*
X25445Y37346D01*
X25417Y37286D01*
X25352Y37161D01*
X25269Y37032D01*
X25167Y36907D01*
X25112Y36851D01*
X25051Y36800D01*
X25047Y36796D01*
X25038Y36791D01*
X25019Y36777D01*
X24991Y36759D01*
X24959Y36740D01*
X24917Y36722D01*
X24871Y36699D01*
X24820Y36675D01*
X24760Y36648D01*
X24695Y36625D01*
X24626Y36606D01*
X24552Y36588D01*
X24473Y36569D01*
X24385Y36555D01*
X24297Y36550D01*
X24200Y36546D01*
X24172D01*
X24140Y36550D01*
X24093Y36555D01*
X24043Y36560D01*
X23978Y36569D01*
X23908Y36583D01*
X23830Y36601D01*
X23751Y36625D01*
X23668Y36652D01*
X23580Y36689D01*
X23492Y36731D01*
X23404Y36777D01*
X23316Y36837D01*
X23233Y36902D01*
X23154Y36981D01*
X23149Y36986D01*
X23135Y36999D01*
X23117Y37027D01*
X23089Y37060D01*
X23061Y37106D01*
X23024Y37157D01*
X22987Y37222D01*
X22950Y37296D01*
X22913Y37374D01*
X22876Y37462D01*
X22839Y37564D01*
X22812Y37670D01*
X22784Y37782D01*
X22765Y37906D01*
X22751Y38036D01*
X22747Y38175D01*
Y38180D01*
Y38184D01*
Y38212D01*
X22751Y38254D01*
Y38309D01*
X22761Y38374D01*
X22770Y38453D01*
X22779Y38536D01*
X22798Y38633D01*
X22821Y38730D01*
X22849Y38832D01*
X22881Y38934D01*
X22923Y39040D01*
X22969Y39142D01*
X23024Y39239D01*
X23085Y39332D01*
X23159Y39420D01*
X23163Y39424D01*
X23177Y39438D01*
X23200Y39461D01*
X23233Y39489D01*
X23274Y39522D01*
X23325Y39559D01*
X23381Y39600D01*
X23450Y39642D01*
X23524Y39684D01*
X23603Y39725D01*
X23695Y39762D01*
X23788Y39795D01*
X23894Y39822D01*
X24001Y39846D01*
X24121Y39859D01*
X24242Y39864D01*
X24297D01*
X24339Y39859D01*
D02*
G37*
G36*
X28652Y36601D02*
X28004D01*
Y38004D01*
X26741D01*
Y36601D01*
X26093D01*
Y39804D01*
X26741D01*
Y38545D01*
X28004D01*
Y39804D01*
X28652D01*
Y36601D01*
D02*
G37*
G36*
X30984Y37782D02*
X31382D01*
Y37245D01*
X30984D01*
Y36601D01*
X30392D01*
Y37245D01*
X29078D01*
Y37777D01*
X30466Y39818D01*
X30984D01*
Y37782D01*
D02*
G37*
G36*
X8210Y39857D02*
X8261Y39852D01*
X8317Y39843D01*
X8382Y39834D01*
X8451Y39820D01*
X8525Y39802D01*
X8604Y39778D01*
X8682Y39751D01*
X8766Y39714D01*
X8844Y39677D01*
X8918Y39630D01*
X8997Y39575D01*
X9067Y39515D01*
X9071D01*
X9076Y39505D01*
X9090Y39492D01*
X9104Y39478D01*
X9122Y39454D01*
X9141Y39427D01*
X9192Y39362D01*
X9242Y39279D01*
X9298Y39177D01*
X9349Y39061D01*
X9395Y38927D01*
X8757Y38774D01*
Y38779D01*
X8752Y38783D01*
Y38797D01*
X8743Y38816D01*
X8729Y38857D01*
X8706Y38913D01*
X8673Y38978D01*
X8632Y39043D01*
X8576Y39107D01*
X8516Y39163D01*
X8507Y39168D01*
X8483Y39186D01*
X8446Y39209D01*
X8396Y39237D01*
X8331Y39265D01*
X8257Y39288D01*
X8173Y39306D01*
X8081Y39311D01*
X8048D01*
X8021Y39306D01*
X7993Y39302D01*
X7956Y39297D01*
X7877Y39279D01*
X7785Y39246D01*
X7687Y39200D01*
X7637Y39172D01*
X7590Y39140D01*
X7544Y39098D01*
X7502Y39052D01*
Y39047D01*
X7493Y39038D01*
X7484Y39024D01*
X7470Y39001D01*
X7451Y38973D01*
X7433Y38941D01*
X7414Y38899D01*
X7396Y38853D01*
X7373Y38797D01*
X7354Y38737D01*
X7336Y38668D01*
X7317Y38594D01*
X7303Y38510D01*
X7294Y38422D01*
X7289Y38325D01*
X7285Y38219D01*
Y38214D01*
Y38191D01*
Y38159D01*
X7289Y38122D01*
Y38071D01*
X7299Y38011D01*
X7303Y37950D01*
X7313Y37881D01*
X7340Y37738D01*
X7377Y37594D01*
X7401Y37525D01*
X7433Y37460D01*
X7465Y37400D01*
X7502Y37349D01*
X7507Y37344D01*
X7512Y37340D01*
X7525Y37326D01*
X7544Y37307D01*
X7590Y37270D01*
X7655Y37224D01*
X7734Y37173D01*
X7831Y37136D01*
X7942Y37104D01*
X8002Y37099D01*
X8067Y37094D01*
X8090D01*
X8109Y37099D01*
X8160Y37104D01*
X8220Y37113D01*
X8284Y37136D01*
X8358Y37164D01*
X8433Y37201D01*
X8507Y37256D01*
X8516Y37265D01*
X8539Y37289D01*
X8571Y37326D01*
X8608Y37381D01*
X8655Y37455D01*
X8696Y37543D01*
X8738Y37650D01*
X8775Y37775D01*
X9404Y37580D01*
Y37576D01*
X9400Y37557D01*
X9391Y37529D01*
X9377Y37492D01*
X9358Y37451D01*
X9340Y37400D01*
X9316Y37344D01*
X9289Y37284D01*
X9224Y37159D01*
X9141Y37029D01*
X9039Y36905D01*
X8983Y36849D01*
X8923Y36798D01*
X8918Y36793D01*
X8909Y36789D01*
X8891Y36775D01*
X8863Y36756D01*
X8831Y36738D01*
X8789Y36719D01*
X8743Y36696D01*
X8692Y36673D01*
X8632Y36645D01*
X8567Y36622D01*
X8497Y36604D01*
X8423Y36585D01*
X8345Y36567D01*
X8257Y36553D01*
X8169Y36548D01*
X8072Y36544D01*
X8044D01*
X8011Y36548D01*
X7965Y36553D01*
X7914Y36557D01*
X7849Y36567D01*
X7780Y36581D01*
X7701Y36599D01*
X7623Y36622D01*
X7539Y36650D01*
X7451Y36687D01*
X7364Y36729D01*
X7276Y36775D01*
X7188Y36835D01*
X7104Y36900D01*
X7026Y36979D01*
X7021Y36983D01*
X7007Y36997D01*
X6989Y37025D01*
X6961Y37057D01*
X6933Y37104D01*
X6896Y37154D01*
X6859Y37219D01*
X6822Y37293D01*
X6785Y37372D01*
X6748Y37460D01*
X6711Y37562D01*
X6683Y37668D01*
X6655Y37779D01*
X6637Y37904D01*
X6623Y38034D01*
X6618Y38173D01*
Y38177D01*
Y38182D01*
Y38210D01*
X6623Y38251D01*
Y38307D01*
X6632Y38372D01*
X6642Y38450D01*
X6651Y38534D01*
X6669Y38631D01*
X6692Y38728D01*
X6720Y38830D01*
X6753Y38932D01*
X6794Y39038D01*
X6841Y39140D01*
X6896Y39237D01*
X6956Y39330D01*
X7030Y39417D01*
X7035Y39422D01*
X7049Y39436D01*
X7072Y39459D01*
X7104Y39487D01*
X7146Y39519D01*
X7197Y39556D01*
X7252Y39598D01*
X7322Y39640D01*
X7396Y39681D01*
X7475Y39723D01*
X7567Y39760D01*
X7660Y39792D01*
X7766Y39820D01*
X7873Y39843D01*
X7993Y39857D01*
X8113Y39862D01*
X8169D01*
X8210Y39857D01*
D02*
G37*
G36*
X12524Y36599D02*
X11876D01*
Y38001D01*
X10612D01*
Y36599D01*
X9964D01*
Y39802D01*
X10612D01*
Y38543D01*
X11876D01*
Y39802D01*
X12524D01*
Y36599D01*
D02*
G37*
G36*
X14625D02*
X14009D01*
Y38918D01*
X14005Y38913D01*
X13995Y38904D01*
X13977Y38890D01*
X13949Y38867D01*
X13917Y38839D01*
X13880Y38811D01*
X13833Y38779D01*
X13782Y38742D01*
X13727Y38705D01*
X13667Y38668D01*
X13602Y38626D01*
X13532Y38589D01*
X13384Y38520D01*
X13218Y38455D01*
Y39010D01*
X13222D01*
X13227Y39015D01*
X13241Y39019D01*
X13259Y39024D01*
X13306Y39047D01*
X13370Y39075D01*
X13449Y39112D01*
X13537Y39163D01*
X13634Y39228D01*
X13736Y39302D01*
X13741Y39306D01*
X13750Y39311D01*
X13764Y39325D01*
X13782Y39343D01*
X13833Y39390D01*
X13889Y39450D01*
X13954Y39524D01*
X14018Y39616D01*
X14079Y39714D01*
X14125Y39820D01*
X14625D01*
Y36599D01*
D02*
G37*
%LPC*%
G36*
X178996Y64609D02*
X178968D01*
X178936Y64605D01*
X178894Y64596D01*
X178848Y64582D01*
X178802Y64563D01*
X178755Y64540D01*
X178714Y64503D01*
X178709Y64498D01*
X178700Y64485D01*
X178681Y64461D01*
X178663Y64429D01*
X178644Y64387D01*
X178626Y64341D01*
X178616Y64286D01*
X178612Y64221D01*
Y64211D01*
Y64188D01*
X178616Y64156D01*
X178626Y64114D01*
X178635Y64068D01*
X178653Y64022D01*
X178681Y63975D01*
X178714Y63934D01*
X178718Y63929D01*
X178732Y63920D01*
X178755Y63901D01*
X178788Y63883D01*
X178829Y63864D01*
X178876Y63846D01*
X178931Y63837D01*
X178991Y63832D01*
X179019D01*
X179051Y63837D01*
X179093Y63846D01*
X179139Y63855D01*
X179186Y63874D01*
X179232Y63901D01*
X179274Y63934D01*
X179278Y63938D01*
X179292Y63952D01*
X179306Y63975D01*
X179329Y64012D01*
X179348Y64054D01*
X179362Y64100D01*
X179375Y64161D01*
X179380Y64225D01*
Y64235D01*
Y64253D01*
X179375Y64286D01*
X179366Y64323D01*
X179352Y64369D01*
X179334Y64415D01*
X179311Y64461D01*
X179274Y64503D01*
X179269Y64508D01*
X179255Y64522D01*
X179232Y64535D01*
X179200Y64559D01*
X179158Y64577D01*
X179112Y64591D01*
X179056Y64605D01*
X178996Y64609D01*
D02*
G37*
G36*
X179001Y63346D02*
X178964D01*
X178922Y63337D01*
X178876Y63328D01*
X178820Y63309D01*
X178765Y63281D01*
X178709Y63240D01*
X178663Y63189D01*
X178658Y63179D01*
X178644Y63161D01*
X178630Y63129D01*
X178612Y63087D01*
X178589Y63036D01*
X178575Y62980D01*
X178561Y62916D01*
X178556Y62851D01*
Y62846D01*
Y62842D01*
Y62828D01*
Y62809D01*
X178566Y62763D01*
X178575Y62703D01*
X178589Y62638D01*
X178612Y62573D01*
X178644Y62508D01*
X178686Y62448D01*
X178691Y62444D01*
X178709Y62425D01*
X178737Y62407D01*
X178774Y62379D01*
X178820Y62356D01*
X178876Y62333D01*
X178940Y62314D01*
X179010Y62309D01*
X179042D01*
X179075Y62319D01*
X179121Y62328D01*
X179172Y62342D01*
X179223Y62365D01*
X179274Y62397D01*
X179325Y62444D01*
X179329Y62448D01*
X179343Y62471D01*
X179366Y62499D01*
X179389Y62545D01*
X179412Y62601D01*
X179436Y62670D01*
X179449Y62749D01*
X179454Y62842D01*
Y62846D01*
Y62851D01*
Y62879D01*
X179449Y62920D01*
X179440Y62971D01*
X179422Y63031D01*
X179399Y63092D01*
X179366Y63152D01*
X179325Y63207D01*
X179320Y63212D01*
X179301Y63230D01*
X179274Y63254D01*
X179237Y63277D01*
X179190Y63304D01*
X179135Y63323D01*
X179070Y63341D01*
X179001Y63346D01*
D02*
G37*
G36*
X46336Y63506D02*
X46308D01*
X46271Y63496D01*
X46230Y63487D01*
X46184Y63469D01*
X46133Y63446D01*
X46082Y63409D01*
X46035Y63362D01*
X46031Y63358D01*
X46017Y63334D01*
X45998Y63302D01*
X45975Y63260D01*
X45952Y63200D01*
X45934Y63131D01*
X45920Y63048D01*
X45915Y62950D01*
Y62946D01*
Y62937D01*
Y62923D01*
Y62899D01*
X45924Y62849D01*
X45934Y62779D01*
X45947Y62705D01*
X45971Y62626D01*
X46003Y62552D01*
X46049Y62488D01*
X46054Y62483D01*
X46072Y62464D01*
X46105Y62437D01*
X46142Y62409D01*
X46188Y62377D01*
X46239Y62353D01*
X46299Y62335D01*
X46364Y62326D01*
X46392D01*
X46424Y62335D01*
X46466Y62344D01*
X46507Y62358D01*
X46558Y62381D01*
X46605Y62414D01*
X46651Y62455D01*
X46656Y62460D01*
X46669Y62483D01*
X46688Y62515D01*
X46711Y62562D01*
X46730Y62622D01*
X46748Y62696D01*
X46762Y62788D01*
X46767Y62895D01*
Y62899D01*
Y62909D01*
Y62927D01*
Y62946D01*
X46762Y63001D01*
X46753Y63071D01*
X46734Y63145D01*
X46716Y63223D01*
X46683Y63297D01*
X46642Y63358D01*
X46637Y63362D01*
X46619Y63381D01*
X46595Y63404D01*
X46558Y63432D01*
X46512Y63459D01*
X46461Y63483D01*
X46401Y63501D01*
X46336Y63506D01*
D02*
G37*
G36*
X119565Y78734D02*
X119130Y77544D01*
X120014D01*
X119565Y78734D01*
D02*
G37*
G36*
X116459Y78937D02*
X115978D01*
Y78026D01*
X116422D01*
X116455Y78030D01*
X116538D01*
X116621Y78035D01*
X116705Y78044D01*
X116779Y78058D01*
X116811Y78063D01*
X116839Y78072D01*
X116844Y78076D01*
X116862Y78081D01*
X116885Y78095D01*
X116913Y78109D01*
X116945Y78132D01*
X116978Y78160D01*
X117015Y78192D01*
X117043Y78229D01*
X117047Y78234D01*
X117056Y78248D01*
X117066Y78271D01*
X117080Y78303D01*
X117093Y78340D01*
X117107Y78382D01*
X117112Y78428D01*
X117117Y78479D01*
Y78488D01*
Y78507D01*
X117112Y78539D01*
X117103Y78581D01*
X117089Y78627D01*
X117070Y78678D01*
X117047Y78724D01*
X117010Y78771D01*
X117006Y78775D01*
X116992Y78789D01*
X116968Y78808D01*
X116941Y78831D01*
X116904Y78859D01*
X116857Y78882D01*
X116807Y78900D01*
X116751Y78914D01*
X116746D01*
X116728Y78919D01*
X116695Y78923D01*
X116649Y78928D01*
X116589D01*
X116547Y78933D01*
X116506D01*
X116459Y78937D01*
D02*
G37*
G36*
X125456Y78988D02*
X125419D01*
X125391Y78984D01*
X125354Y78979D01*
X125317Y78974D01*
X125225Y78956D01*
X125123Y78919D01*
X125067Y78900D01*
X125012Y78872D01*
X124961Y78840D01*
X124905Y78803D01*
X124854Y78761D01*
X124808Y78710D01*
X124803Y78706D01*
X124799Y78697D01*
X124785Y78683D01*
X124771Y78660D01*
X124753Y78627D01*
X124734Y78595D01*
X124711Y78553D01*
X124688Y78502D01*
X124665Y78447D01*
X124642Y78387D01*
X124623Y78317D01*
X124604Y78243D01*
X124591Y78160D01*
X124577Y78072D01*
X124572Y77979D01*
X124567Y77877D01*
Y77873D01*
Y77854D01*
Y77827D01*
X124572Y77790D01*
X124577Y77743D01*
X124581Y77688D01*
X124591Y77632D01*
X124600Y77567D01*
X124628Y77433D01*
X124674Y77299D01*
X124702Y77230D01*
X124734Y77165D01*
X124776Y77105D01*
X124817Y77049D01*
X124822Y77044D01*
X124831Y77035D01*
X124845Y77021D01*
X124864Y77007D01*
X124887Y76984D01*
X124919Y76961D01*
X124952Y76933D01*
X124993Y76910D01*
X125081Y76855D01*
X125192Y76813D01*
X125252Y76795D01*
X125317Y76781D01*
X125387Y76771D01*
X125456Y76767D01*
X125493D01*
X125521Y76771D01*
X125553Y76776D01*
X125590Y76781D01*
X125678Y76804D01*
X125780Y76836D01*
X125831Y76859D01*
X125886Y76882D01*
X125937Y76915D01*
X125993Y76952D01*
X126044Y76994D01*
X126090Y77044D01*
X126095Y77049D01*
X126099Y77058D01*
X126113Y77072D01*
X126127Y77095D01*
X126150Y77128D01*
X126169Y77165D01*
X126192Y77206D01*
X126215Y77257D01*
X126238Y77313D01*
X126261Y77373D01*
X126284Y77442D01*
X126303Y77521D01*
X126317Y77600D01*
X126331Y77688D01*
X126335Y77785D01*
X126340Y77887D01*
Y77891D01*
Y77910D01*
Y77938D01*
X126335Y77979D01*
X126331Y78026D01*
X126326Y78076D01*
X126321Y78137D01*
X126308Y78197D01*
X126280Y78331D01*
X126238Y78470D01*
X126210Y78539D01*
X126178Y78599D01*
X126136Y78660D01*
X126095Y78715D01*
X126090Y78720D01*
X126085Y78729D01*
X126072Y78738D01*
X126053Y78757D01*
X126025Y78780D01*
X125997Y78803D01*
X125965Y78826D01*
X125923Y78854D01*
X125882Y78877D01*
X125831Y78900D01*
X125724Y78946D01*
X125664Y78965D01*
X125599Y78974D01*
X125530Y78984D01*
X125456Y78988D01*
D02*
G37*
G36*
X76797Y78724D02*
X76362Y77535D01*
X77246D01*
X76797Y78724D01*
D02*
G37*
G36*
X59489D02*
X59054Y77535D01*
X59938D01*
X59489Y78724D01*
D02*
G37*
G36*
X56384Y78928D02*
X55902D01*
Y78016D01*
X56347D01*
X56379Y78021D01*
X56462D01*
X56546Y78026D01*
X56629Y78035D01*
X56703Y78049D01*
X56735Y78053D01*
X56763Y78063D01*
X56768Y78067D01*
X56786Y78072D01*
X56809Y78086D01*
X56837Y78100D01*
X56869Y78123D01*
X56902Y78150D01*
X56939Y78183D01*
X56967Y78220D01*
X56971Y78225D01*
X56981Y78238D01*
X56990Y78262D01*
X57004Y78294D01*
X57018Y78331D01*
X57031Y78373D01*
X57036Y78419D01*
X57041Y78470D01*
Y78479D01*
Y78498D01*
X57036Y78530D01*
X57027Y78572D01*
X57013Y78618D01*
X56994Y78669D01*
X56971Y78715D01*
X56934Y78761D01*
X56930Y78766D01*
X56916Y78780D01*
X56893Y78798D01*
X56865Y78822D01*
X56828Y78849D01*
X56782Y78872D01*
X56731Y78891D01*
X56675Y78905D01*
X56670D01*
X56652Y78909D01*
X56620Y78914D01*
X56573Y78919D01*
X56513D01*
X56471Y78923D01*
X56430D01*
X56384Y78928D01*
D02*
G37*
G36*
X195815Y40459D02*
X195796D01*
X195773Y40454D01*
X195750Y40449D01*
X195718Y40440D01*
X195685Y40426D01*
X195648Y40408D01*
X195616Y40385D01*
X195611Y40380D01*
X195602Y40371D01*
X195588Y40352D01*
X195570Y40329D01*
X195546Y40292D01*
X195528Y40250D01*
X195505Y40195D01*
X195486Y40130D01*
Y40125D01*
X195482Y40121D01*
Y40102D01*
X195477Y40084D01*
X195472Y40056D01*
X195468Y40024D01*
X195463Y39987D01*
X195458Y39940D01*
X195449Y39885D01*
X195445Y39829D01*
X195440Y39760D01*
X195435Y39690D01*
X195431Y39607D01*
Y39524D01*
X195426Y39427D01*
Y39325D01*
Y39320D01*
Y39302D01*
Y39269D01*
Y39232D01*
Y39186D01*
X195431Y39135D01*
Y39075D01*
X195435Y39015D01*
X195440Y38885D01*
X195449Y38756D01*
X195454Y38695D01*
X195463Y38640D01*
X195472Y38589D01*
X195482Y38543D01*
X195486Y38533D01*
X195491Y38510D01*
X195505Y38473D01*
X195519Y38432D01*
X195542Y38385D01*
X195565Y38339D01*
X195593Y38297D01*
X195620Y38265D01*
X195625Y38260D01*
X195634Y38256D01*
X195653Y38242D01*
X195676Y38233D01*
X195704Y38219D01*
X195736Y38205D01*
X195773Y38200D01*
X195815Y38196D01*
X195833D01*
X195856Y38200D01*
X195880Y38205D01*
X195912Y38214D01*
X195944Y38223D01*
X195977Y38242D01*
X196009Y38265D01*
X196014Y38270D01*
X196023Y38279D01*
X196042Y38297D01*
X196060Y38325D01*
X196079Y38358D01*
X196102Y38404D01*
X196125Y38455D01*
X196143Y38520D01*
Y38524D01*
X196148Y38529D01*
Y38547D01*
X196153Y38566D01*
X196157Y38594D01*
X196162Y38626D01*
X196171Y38663D01*
X196176Y38709D01*
X196180Y38760D01*
X196190Y38820D01*
X196194Y38885D01*
X196199Y38959D01*
X196204Y39038D01*
Y39126D01*
X196208Y39223D01*
Y39325D01*
Y39329D01*
Y39348D01*
Y39380D01*
Y39417D01*
Y39464D01*
X196204Y39515D01*
Y39575D01*
X196199Y39635D01*
X196194Y39764D01*
X196185Y39889D01*
X196176Y39950D01*
X196167Y40010D01*
X196157Y40061D01*
X196148Y40102D01*
Y40107D01*
X196143Y40112D01*
X196139Y40135D01*
X196125Y40172D01*
X196111Y40218D01*
X196088Y40264D01*
X196065Y40311D01*
X196037Y40352D01*
X196009Y40385D01*
X196005Y40389D01*
X195995Y40398D01*
X195977Y40408D01*
X195954Y40422D01*
X195926Y40436D01*
X195893Y40449D01*
X195856Y40454D01*
X195815Y40459D01*
D02*
G37*
G36*
X134569Y10916D02*
X134551D01*
X134527Y10912D01*
X134504Y10907D01*
X134472Y10898D01*
X134440Y10884D01*
X134402Y10865D01*
X134370Y10842D01*
X134365Y10837D01*
X134356Y10828D01*
X134342Y10810D01*
X134324Y10787D01*
X134301Y10750D01*
X134282Y10708D01*
X134259Y10652D01*
X134241Y10588D01*
Y10583D01*
X134236Y10578D01*
Y10560D01*
X134231Y10541D01*
X134227Y10514D01*
X134222Y10481D01*
X134217Y10444D01*
X134213Y10398D01*
X134203Y10342D01*
X134199Y10287D01*
X134194Y10217D01*
X134190Y10148D01*
X134185Y10065D01*
Y9981D01*
X134180Y9884D01*
Y9782D01*
Y9778D01*
Y9759D01*
Y9727D01*
Y9690D01*
Y9643D01*
X134185Y9593D01*
Y9532D01*
X134190Y9472D01*
X134194Y9343D01*
X134203Y9213D01*
X134208Y9153D01*
X134217Y9097D01*
X134227Y9046D01*
X134236Y9000D01*
X134241Y8991D01*
X134245Y8968D01*
X134259Y8931D01*
X134273Y8889D01*
X134296Y8843D01*
X134319Y8797D01*
X134347Y8755D01*
X134375Y8723D01*
X134379Y8718D01*
X134389Y8713D01*
X134407Y8699D01*
X134430Y8690D01*
X134458Y8676D01*
X134490Y8662D01*
X134527Y8658D01*
X134569Y8653D01*
X134588D01*
X134611Y8658D01*
X134634Y8662D01*
X134666Y8672D01*
X134699Y8681D01*
X134731Y8699D01*
X134763Y8723D01*
X134768Y8727D01*
X134777Y8736D01*
X134796Y8755D01*
X134814Y8783D01*
X134833Y8815D01*
X134856Y8861D01*
X134879Y8912D01*
X134898Y8977D01*
Y8982D01*
X134902Y8986D01*
Y9005D01*
X134907Y9023D01*
X134912Y9051D01*
X134916Y9083D01*
X134925Y9121D01*
X134930Y9167D01*
X134935Y9218D01*
X134944Y9278D01*
X134949Y9343D01*
X134953Y9417D01*
X134958Y9495D01*
Y9583D01*
X134962Y9680D01*
Y9782D01*
Y9787D01*
Y9805D01*
Y9838D01*
Y9875D01*
Y9921D01*
X134958Y9972D01*
Y10032D01*
X134953Y10092D01*
X134949Y10222D01*
X134939Y10347D01*
X134930Y10407D01*
X134921Y10467D01*
X134912Y10518D01*
X134902Y10560D01*
Y10564D01*
X134898Y10569D01*
X134893Y10592D01*
X134879Y10629D01*
X134865Y10675D01*
X134842Y10722D01*
X134819Y10768D01*
X134791Y10810D01*
X134763Y10842D01*
X134759Y10847D01*
X134750Y10856D01*
X134731Y10865D01*
X134708Y10879D01*
X134680Y10893D01*
X134648Y10907D01*
X134611Y10912D01*
X134569Y10916D01*
D02*
G37*
G36*
X117241D02*
X117213D01*
X117181Y10907D01*
X117144Y10898D01*
X117098Y10884D01*
X117051Y10856D01*
X117005Y10824D01*
X116959Y10777D01*
X116954Y10773D01*
X116940Y10750D01*
X116922Y10717D01*
X116903Y10671D01*
X116885Y10611D01*
X116866Y10532D01*
X116852Y10439D01*
X116848Y10333D01*
Y10328D01*
Y10319D01*
Y10305D01*
Y10282D01*
X116852Y10227D01*
X116862Y10162D01*
X116876Y10083D01*
X116899Y10009D01*
X116926Y9935D01*
X116968Y9875D01*
X116973Y9870D01*
X116991Y9852D01*
X117014Y9829D01*
X117051Y9805D01*
X117098Y9778D01*
X117149Y9755D01*
X117209Y9736D01*
X117274Y9731D01*
X117283D01*
X117301Y9736D01*
X117334Y9741D01*
X117375Y9750D01*
X117422Y9764D01*
X117473Y9792D01*
X117523Y9824D01*
X117570Y9870D01*
X117574Y9875D01*
X117588Y9898D01*
X117611Y9930D01*
X117635Y9972D01*
X117653Y10032D01*
X117676Y10102D01*
X117690Y10185D01*
X117695Y10282D01*
Y10287D01*
Y10296D01*
Y10310D01*
Y10333D01*
X117685Y10384D01*
X117676Y10453D01*
X117662Y10527D01*
X117635Y10606D01*
X117602Y10680D01*
X117556Y10750D01*
X117551Y10759D01*
X117533Y10777D01*
X117505Y10800D01*
X117468Y10833D01*
X117422Y10865D01*
X117366Y10888D01*
X117306Y10907D01*
X117241Y10916D01*
D02*
G37*
G36*
X182383Y10918D02*
X182355D01*
X182323Y10909D01*
X182286Y10900D01*
X182240Y10886D01*
X182193Y10858D01*
X182147Y10826D01*
X182101Y10780D01*
X182096Y10775D01*
X182082Y10752D01*
X182064Y10719D01*
X182045Y10673D01*
X182027Y10613D01*
X182008Y10534D01*
X181994Y10442D01*
X181990Y10335D01*
Y10331D01*
Y10321D01*
Y10308D01*
Y10284D01*
X181994Y10229D01*
X182004Y10164D01*
X182018Y10085D01*
X182041Y10011D01*
X182068Y9937D01*
X182110Y9877D01*
X182115Y9873D01*
X182133Y9854D01*
X182156Y9831D01*
X182193Y9808D01*
X182240Y9780D01*
X182291Y9757D01*
X182351Y9738D01*
X182416Y9734D01*
X182425D01*
X182443Y9738D01*
X182476Y9743D01*
X182517Y9752D01*
X182564Y9766D01*
X182615Y9794D01*
X182665Y9826D01*
X182712Y9873D01*
X182716Y9877D01*
X182730Y9900D01*
X182753Y9933D01*
X182777Y9974D01*
X182795Y10035D01*
X182818Y10104D01*
X182832Y10187D01*
X182837Y10284D01*
Y10289D01*
Y10298D01*
Y10312D01*
Y10335D01*
X182827Y10386D01*
X182818Y10456D01*
X182804Y10530D01*
X182777Y10608D01*
X182744Y10682D01*
X182698Y10752D01*
X182693Y10761D01*
X182675Y10780D01*
X182647Y10803D01*
X182610Y10835D01*
X182564Y10868D01*
X182508Y10891D01*
X182448Y10909D01*
X182383Y10918D01*
D02*
G37*
G36*
X161980Y40024D02*
X161235Y38922D01*
X161980D01*
Y40024D01*
D02*
G37*
G36*
X101302Y10942D02*
X101274D01*
X101241Y10937D01*
X101200Y10928D01*
X101154Y10914D01*
X101107Y10895D01*
X101061Y10872D01*
X101019Y10835D01*
X101015Y10831D01*
X101005Y10817D01*
X100987Y10793D01*
X100968Y10761D01*
X100950Y10719D01*
X100931Y10673D01*
X100922Y10618D01*
X100918Y10553D01*
Y10544D01*
Y10520D01*
X100922Y10488D01*
X100931Y10446D01*
X100941Y10400D01*
X100959Y10354D01*
X100987Y10308D01*
X101019Y10266D01*
X101024Y10261D01*
X101038Y10252D01*
X101061Y10234D01*
X101093Y10215D01*
X101135Y10196D01*
X101181Y10178D01*
X101237Y10169D01*
X101297Y10164D01*
X101325D01*
X101357Y10169D01*
X101399Y10178D01*
X101445Y10187D01*
X101491Y10206D01*
X101538Y10234D01*
X101579Y10266D01*
X101584Y10271D01*
X101598Y10284D01*
X101612Y10308D01*
X101635Y10345D01*
X101653Y10386D01*
X101667Y10433D01*
X101681Y10493D01*
X101686Y10557D01*
Y10567D01*
Y10585D01*
X101681Y10618D01*
X101672Y10655D01*
X101658Y10701D01*
X101639Y10747D01*
X101616Y10793D01*
X101579Y10835D01*
X101575Y10840D01*
X101561Y10854D01*
X101538Y10868D01*
X101505Y10891D01*
X101464Y10909D01*
X101417Y10923D01*
X101362Y10937D01*
X101302Y10942D01*
D02*
G37*
G36*
X101306Y9678D02*
X101269D01*
X101228Y9669D01*
X101181Y9660D01*
X101126Y9641D01*
X101070Y9613D01*
X101015Y9572D01*
X100968Y9521D01*
X100964Y9512D01*
X100950Y9493D01*
X100936Y9461D01*
X100918Y9419D01*
X100894Y9368D01*
X100880Y9313D01*
X100867Y9248D01*
X100862Y9183D01*
Y9178D01*
Y9174D01*
Y9160D01*
Y9141D01*
X100871Y9095D01*
X100880Y9035D01*
X100894Y8970D01*
X100918Y8905D01*
X100950Y8841D01*
X100992Y8780D01*
X100996Y8776D01*
X101015Y8757D01*
X101042Y8739D01*
X101079Y8711D01*
X101126Y8688D01*
X101181Y8665D01*
X101246Y8646D01*
X101316Y8642D01*
X101348D01*
X101380Y8651D01*
X101427Y8660D01*
X101477Y8674D01*
X101528Y8697D01*
X101579Y8729D01*
X101630Y8776D01*
X101635Y8780D01*
X101649Y8804D01*
X101672Y8831D01*
X101695Y8878D01*
X101718Y8933D01*
X101741Y9003D01*
X101755Y9081D01*
X101760Y9174D01*
Y9178D01*
Y9183D01*
Y9211D01*
X101755Y9252D01*
X101746Y9303D01*
X101727Y9363D01*
X101704Y9424D01*
X101672Y9484D01*
X101630Y9539D01*
X101626Y9544D01*
X101607Y9562D01*
X101579Y9586D01*
X101542Y9609D01*
X101496Y9637D01*
X101440Y9655D01*
X101376Y9674D01*
X101306Y9678D01*
D02*
G37*
G36*
X166534Y9833D02*
X166506D01*
X166469Y9824D01*
X166427Y9815D01*
X166381Y9796D01*
X166330Y9773D01*
X166279Y9736D01*
X166233Y9690D01*
X166228Y9685D01*
X166215Y9662D01*
X166196Y9630D01*
X166173Y9588D01*
X166150Y9528D01*
X166131Y9458D01*
X166117Y9375D01*
X166113Y9278D01*
Y9273D01*
Y9264D01*
Y9250D01*
Y9227D01*
X166122Y9176D01*
X166131Y9107D01*
X166145Y9033D01*
X166168Y8954D01*
X166201Y8880D01*
X166247Y8815D01*
X166252Y8810D01*
X166270Y8792D01*
X166302Y8764D01*
X166339Y8736D01*
X166386Y8704D01*
X166437Y8681D01*
X166497Y8662D01*
X166562Y8653D01*
X166589D01*
X166622Y8662D01*
X166663Y8672D01*
X166705Y8686D01*
X166756Y8709D01*
X166802Y8741D01*
X166849Y8783D01*
X166853Y8787D01*
X166867Y8810D01*
X166886Y8843D01*
X166909Y8889D01*
X166927Y8949D01*
X166946Y9023D01*
X166960Y9116D01*
X166964Y9222D01*
Y9227D01*
Y9236D01*
Y9255D01*
Y9273D01*
X166960Y9329D01*
X166950Y9398D01*
X166932Y9472D01*
X166913Y9551D01*
X166881Y9625D01*
X166839Y9685D01*
X166835Y9690D01*
X166816Y9708D01*
X166793Y9731D01*
X166756Y9759D01*
X166710Y9787D01*
X166659Y9810D01*
X166599Y9829D01*
X166534Y9833D01*
D02*
G37*
G36*
X30392Y38883D02*
X29647Y37782D01*
X30392D01*
Y38883D01*
D02*
G37*
%LPD*%
D10*
X176064Y32004D02*
G03*
X176064Y32004I-635J0D01*
G01*
X177969D02*
G03*
X177969Y32004I-2540J0D01*
G01*
X193167Y56134D02*
G03*
X193167Y56134I-635J0D01*
G01*
X195072D02*
G03*
X195072Y56134I-2540J0D01*
G01*
X176064D02*
G03*
X176064Y56134I-635J0D01*
G01*
X177969D02*
G03*
X177969Y56134I-2540J0D01*
G01*
X158962D02*
G03*
X158962Y56134I-635J0D01*
G01*
X160867D02*
G03*
X160867Y56134I-2540J0D01*
G01*
X141859D02*
G03*
X141859Y56134I-635J0D01*
G01*
X143764D02*
G03*
X143764Y56134I-2540J0D01*
G01*
X12167D02*
G03*
X12167Y56134I-635J0D01*
G01*
X14072D02*
G03*
X14072Y56134I-2540J0D01*
G01*
X28372D02*
G03*
X28372Y56134I-635J0D01*
G01*
X30277D02*
G03*
X30277Y56134I-2540J0D01*
G01*
X44577D02*
G03*
X44577Y56134I-635J0D01*
G01*
X46482D02*
G03*
X46482Y56134I-2540J0D01*
G01*
X193167Y32004D02*
G03*
X193167Y32004I-635J0D01*
G01*
X195072D02*
G03*
X195072Y32004I-2540J0D01*
G01*
X158962D02*
G03*
X158962Y32004I-635J0D01*
G01*
X160867D02*
G03*
X160867Y32004I-2540J0D01*
G01*
X141859D02*
G03*
X141859Y32004I-635J0D01*
G01*
X143764D02*
G03*
X143764Y32004I-2540J0D01*
G01*
X44577Y30861D02*
G03*
X44577Y30861I-635J0D01*
G01*
X46482D02*
G03*
X46482Y30861I-2540J0D01*
G01*
X28626D02*
G03*
X28626Y30861I-635J0D01*
G01*
X30531D02*
G03*
X30531Y30861I-2540J0D01*
G01*
X12167D02*
G03*
X12167Y30861I-635J0D01*
G01*
X14072D02*
G03*
X14072Y30861I-2540J0D01*
G01*
X170984Y37084D02*
X179874D01*
X170349Y36449D02*
X170984Y37084D01*
X179874Y26924D02*
X180509Y27559D01*
Y36449D01*
X170349Y27559D02*
Y35814D01*
Y27559D02*
X170984Y26924D01*
X179874D01*
Y37084D02*
X180509Y36449D01*
X170349Y35814D02*
X170349Y36449D01*
X188087Y61214D02*
X196977D01*
X187452Y60579D02*
X188087Y61214D01*
X196977Y51054D02*
X197612Y51689D01*
Y60579D01*
X187452Y51689D02*
Y59944D01*
Y51689D02*
X188087Y51054D01*
X196977D01*
Y61214D02*
X197612Y60579D01*
X187452Y59944D02*
X187452Y60579D01*
X170984Y61214D02*
X179874D01*
X170349Y60579D02*
X170984Y61214D01*
X179874Y51054D02*
X180509Y51689D01*
Y60579D01*
X170349Y51689D02*
Y59944D01*
Y51689D02*
X170984Y51054D01*
X179874D01*
Y61214D02*
X180509Y60579D01*
X170349Y59944D02*
X170349Y60579D01*
X153882Y61214D02*
X162772D01*
X153247Y60579D02*
X153882Y61214D01*
X162772Y51054D02*
X163407Y51689D01*
Y60579D01*
X153247Y51689D02*
Y59944D01*
Y51689D02*
X153882Y51054D01*
X162772D01*
Y61214D02*
X163407Y60579D01*
X153247Y59944D02*
X153247Y60579D01*
X136779Y61214D02*
X145669D01*
X136144Y60579D02*
X136779Y61214D01*
X145669Y51054D02*
X146304Y51689D01*
Y60579D01*
X136144Y51689D02*
Y59944D01*
Y51689D02*
X136779Y51054D01*
X145669D01*
Y61214D02*
X146304Y60579D01*
X136144Y59944D02*
X136144Y60579D01*
X7087Y51054D02*
X15977D01*
X16612Y51689D01*
X6452Y60579D02*
X7087Y61214D01*
X6452Y51689D02*
Y60579D01*
X16612Y52324D02*
Y60579D01*
X15977Y61214D02*
X16612Y60579D01*
X7087Y61214D02*
X15977D01*
X6452Y51689D02*
X7087Y51054D01*
X16612Y51689D02*
X16612Y52324D01*
X23292Y61214D02*
X32182D01*
X22657Y60579D02*
X23292Y61214D01*
X32182Y51054D02*
X32817Y51689D01*
Y60579D01*
X22657Y51689D02*
Y59944D01*
Y51689D02*
X23292Y51054D01*
X32182D01*
Y61214D02*
X32817Y60579D01*
X22657Y59944D02*
X22657Y60579D01*
X39497Y61214D02*
X48387D01*
X38862Y60579D02*
X39497Y61214D01*
X48387Y51054D02*
X49022Y51689D01*
Y60579D01*
X38862Y51689D02*
Y59944D01*
Y51689D02*
X39497Y51054D01*
X48387D01*
Y61214D02*
X49022Y60579D01*
X38862Y59944D02*
X38862Y60579D01*
X188087Y37084D02*
X196977D01*
X187452Y36449D02*
X188087Y37084D01*
X196977Y26924D02*
X197612Y27559D01*
Y36449D01*
X187452Y27559D02*
Y35814D01*
Y27559D02*
X188087Y26924D01*
X196977D01*
Y37084D02*
X197612Y36449D01*
X187452Y35814D02*
X187452Y36449D01*
X153882Y37084D02*
X162772D01*
X153247Y36449D02*
X153882Y37084D01*
X162772Y26924D02*
X163407Y27559D01*
Y36449D01*
X153247Y27559D02*
Y35814D01*
Y27559D02*
X153882Y26924D01*
X162772D01*
Y37084D02*
X163407Y36449D01*
X153247Y35814D02*
X153247Y36449D01*
X136779Y37084D02*
X145669D01*
X136144Y36449D02*
X136779Y37084D01*
X145669Y26924D02*
X146304Y27559D01*
Y36449D01*
X136144Y27559D02*
Y35814D01*
Y27559D02*
X136779Y26924D01*
X145669D01*
Y37084D02*
X146304Y36449D01*
X136144Y35814D02*
X136144Y36449D01*
X39497Y25781D02*
X48387D01*
X49022Y26416D01*
X38862Y35306D02*
X39497Y35941D01*
X38862Y26416D02*
Y35306D01*
X49022Y27051D02*
Y35306D01*
X48387Y35941D02*
X49022Y35306D01*
X39497Y35941D02*
X48387D01*
X38862Y26416D02*
X39497Y25781D01*
X49022Y26416D02*
X49022Y27051D01*
X23546Y25781D02*
X32436D01*
X33071Y26416D01*
X22911Y35306D02*
X23546Y35941D01*
X22911Y26416D02*
Y35306D01*
X33071Y27051D02*
Y35306D01*
X32436Y35941D02*
X33071Y35306D01*
X23546Y35941D02*
X32436D01*
X22911Y26416D02*
X23546Y25781D01*
X33071Y26416D02*
X33071Y27051D01*
X7087Y35941D02*
X15977D01*
X6452Y35306D02*
X7087Y35941D01*
X15977Y25781D02*
X16612Y26416D01*
Y35306D01*
X6452Y26416D02*
Y34671D01*
Y26416D02*
X7087Y25781D01*
X15977D01*
Y35941D02*
X16612Y35306D01*
X6452Y34671D02*
X6452Y35306D01*
D11*
X117494Y71852D02*
G03*
X116674Y68990I4579J-2861D01*
G01*
X126854Y66070D02*
G03*
X127674Y68932I-4579J2861D01*
G01*
X125065Y73641D02*
G03*
X122203Y74461I-2861J-4579D01*
G01*
X119283Y64281D02*
G03*
X122145Y63461I2861J4579D01*
G01*
X116674Y68960D02*
G03*
X117510Y66046I5500J0D01*
G01*
X127674Y68962D02*
G03*
X126838Y71876I-5500J0D01*
G01*
X122173Y74461D02*
G03*
X119259Y73625I0J-5500D01*
G01*
X122175Y63461D02*
G03*
X125089Y64297I0J5500D01*
G01*
X77532Y71852D02*
G03*
X76711Y68990I4579J-2861D01*
G01*
X86891Y66070D02*
G03*
X87711Y68932I-4579J2861D01*
G01*
X85102Y73641D02*
G03*
X82241Y74461I-2861J-4579D01*
G01*
X79321Y64281D02*
G03*
X82182Y63461I2861J4579D01*
G01*
X76711Y68960D02*
G03*
X77547Y66046I5500J0D01*
G01*
X87711Y68962D02*
G03*
X86876Y71876I-5500J0D01*
G01*
X82211Y74461D02*
G03*
X79296Y73625I0J-5500D01*
G01*
X82212Y63461D02*
G03*
X85127Y64297I0J5500D01*
G01*
X97513Y71852D02*
G03*
X96693Y68990I4579J-2861D01*
G01*
X106872Y66070D02*
G03*
X107693Y68932I-4579J2861D01*
G01*
X105083Y73641D02*
G03*
X102222Y74461I-2861J-4579D01*
G01*
X99302Y64281D02*
G03*
X102163Y63461I2861J4579D01*
G01*
X96693Y68960D02*
G03*
X97528Y66046I5500J0D01*
G01*
X107693Y68962D02*
G03*
X106857Y71876I-5500J0D01*
G01*
X102192Y74461D02*
G03*
X99277Y73625I0J-5500D01*
G01*
X102193Y63461D02*
G03*
X105108Y64297I0J5500D01*
G01*
X57550Y71852D02*
G03*
X56730Y68990I4579J-2861D01*
G01*
X66910Y66070D02*
G03*
X67730Y68932I-4579J2861D01*
G01*
X65121Y73641D02*
G03*
X62259Y74461I-2861J-4579D01*
G01*
X59339Y64281D02*
G03*
X62201Y63461I2861J4579D01*
G01*
X56730Y68960D02*
G03*
X57566Y66046I5500J0D01*
G01*
X67730Y68962D02*
G03*
X66894Y71876I-5500J0D01*
G01*
X62229Y74461D02*
G03*
X59315Y73625I0J-5500D01*
G01*
X62231Y63461D02*
G03*
X65145Y64297I0J5500D01*
G01*
D12*
X77445Y25908D02*
Y33706D01*
X68174Y25908D02*
Y33706D01*
Y25908D02*
X77445D01*
X68174Y33706D02*
X77445D01*
X116688Y47701D02*
Y55626D01*
X107823Y47701D02*
Y55626D01*
Y47701D02*
X116688D01*
X107823Y55626D02*
X116688D01*
X68174Y38583D02*
Y42824D01*
X56210Y38583D02*
Y42824D01*
Y38583D02*
X68174D01*
X56210Y42824D02*
X68174D01*
X116688Y33706D02*
Y47701D01*
X68174Y33706D02*
Y47701D01*
Y33706D02*
X116688D01*
X68174Y47701D02*
X116688D01*
Y38583D02*
Y42824D01*
X128651Y38583D02*
Y42824D01*
X116688D02*
X128651D01*
X116688Y38583D02*
X128651D01*
X7874Y4191D02*
Y10541D01*
X61976Y4191D02*
Y10541D01*
X7874D02*
X61976D01*
X7874Y4191D02*
X61976D01*
X127Y1016D02*
Y13970D01*
X69977Y1016D02*
Y13970D01*
X127D02*
X69977D01*
X127Y1016D02*
X69977D01*
X194958Y51D02*
Y1613D01*
X195466Y1105D01*
X194450D02*
X194958Y1613D01*
X189865Y0D02*
X200025D01*
X189865D02*
Y7506D01*
X200025Y0D02*
Y7506D01*
X189865D02*
X200025D01*
X131022Y51D02*
Y1613D01*
X131530Y1105D01*
X130514D02*
X131022Y1613D01*
X125930Y0D02*
X136090D01*
X125930D02*
Y7506D01*
X136090Y0D02*
Y7506D01*
X125930D02*
X136090D01*
X115038Y51D02*
Y1613D01*
X115546Y1105D01*
X114530D02*
X115038Y1613D01*
X109946Y0D02*
X120106D01*
X109946D02*
Y7506D01*
X120106Y0D02*
Y7506D01*
X109946D02*
X120106D01*
X178974Y51D02*
Y1613D01*
X179482Y1105D01*
X178466D02*
X178974Y1613D01*
X173881Y0D02*
X184041D01*
X173881D02*
Y7506D01*
X184041Y0D02*
Y7506D01*
X173881D02*
X184041D01*
X99055Y51D02*
Y1613D01*
X99563Y1105D01*
X98547D02*
X99055Y1613D01*
X93962Y0D02*
X104122D01*
X93962D02*
Y7506D01*
X104122Y0D02*
Y7506D01*
X93962D02*
X104122D01*
X162990Y51D02*
Y1613D01*
X163498Y1105D01*
X162482D02*
X162990Y1613D01*
X157897Y0D02*
X168057D01*
X157897D02*
Y7506D01*
X168057Y0D02*
Y7506D01*
X157897D02*
X168057D01*
X83071Y51D02*
Y1613D01*
X83579Y1105D01*
X82563D02*
X83071Y1613D01*
X77978Y0D02*
X88138D01*
X77978D02*
Y7506D01*
X88138Y0D02*
Y7506D01*
X77978D02*
X88138D01*
X147006Y51D02*
Y1613D01*
X147514Y1105D01*
X146498D02*
X147006Y1613D01*
X141913Y0D02*
X152073D01*
X141913D02*
Y7506D01*
X152073Y0D02*
Y7506D01*
X141913D02*
X152073D01*
D13*
X172034Y30050D02*
X175443Y28082D01*
X172034Y30050D02*
Y33987D01*
X175443Y35956D01*
X178853Y33987D01*
X178853Y30050D02*
X178853Y33987D01*
X175443Y28082D02*
X178853Y30050D01*
X189136Y54180D02*
X192546Y52212D01*
X189136Y54180D02*
Y58117D01*
X192546Y60086D01*
X195955Y58117D01*
X195955Y54180D02*
X195955Y58117D01*
X192546Y52212D02*
X195955Y54180D01*
X172034Y54180D02*
X175443Y52212D01*
X172034Y54180D02*
Y58117D01*
X175443Y60086D01*
X178853Y58117D01*
X178853Y54180D02*
X178853Y58117D01*
X175443Y52212D02*
X178853Y54180D01*
X154931Y54180D02*
X158341Y52212D01*
X154931Y54180D02*
Y58117D01*
X158341Y60086D01*
X161750Y58117D01*
X161750Y54180D02*
X161750Y58117D01*
X158341Y52212D02*
X161750Y54180D01*
X137828Y54180D02*
X141238Y52212D01*
X137828Y54180D02*
Y58117D01*
X141238Y60086D01*
X144647Y58117D01*
X144647Y54180D02*
X144647Y58117D01*
X141238Y52212D02*
X144647Y54180D01*
X11518Y60056D02*
X14927Y58088D01*
Y54151D02*
Y58088D01*
X11518Y52182D02*
X14927Y54151D01*
X8108D02*
X11518Y52182D01*
X8108Y54151D02*
X8108Y58088D01*
X11518Y60056D01*
X24341Y54180D02*
X27751Y52212D01*
X24341Y54180D02*
Y58117D01*
X27751Y60086D01*
X31160Y58117D01*
X31160Y54180D02*
X31160Y58117D01*
X27751Y52212D02*
X31160Y54180D01*
X40546Y54180D02*
X43956Y52212D01*
X40546Y54180D02*
Y58117D01*
X43956Y60086D01*
X47365Y58117D01*
X47365Y54180D02*
X47365Y58117D01*
X43956Y52212D02*
X47365Y54180D01*
X189136Y30050D02*
X192546Y28082D01*
X189136Y30050D02*
Y33987D01*
X192546Y35956D01*
X195955Y33987D01*
X195955Y30050D02*
X195955Y33987D01*
X192546Y28082D02*
X195955Y30050D01*
X154931Y30050D02*
X158341Y28082D01*
X154931Y30050D02*
Y33987D01*
X158341Y35956D01*
X161750Y33987D01*
X161750Y30050D02*
X161750Y33987D01*
X158341Y28082D02*
X161750Y30050D01*
X137828Y30050D02*
X141238Y28082D01*
X137828Y30050D02*
Y33987D01*
X141238Y35956D01*
X144647Y33987D01*
X144647Y30050D02*
X144647Y33987D01*
X141238Y28082D02*
X144647Y30050D01*
X43928Y34783D02*
X47338Y32815D01*
Y28878D02*
Y32815D01*
X43928Y26909D02*
X47338Y28878D01*
X40519D02*
X43928Y26909D01*
X40519Y28878D02*
X40519Y32815D01*
X43928Y34783D01*
X27977D02*
X31386Y32815D01*
Y28878D02*
Y32815D01*
X27977Y26909D02*
X31386Y28878D01*
X24567D02*
X27977Y26909D01*
X24567Y28878D02*
X24567Y32815D01*
X27977Y34783D01*
X8136Y28907D02*
X11546Y26939D01*
X8136Y28907D02*
Y32844D01*
X11546Y34813D01*
X14955Y32844D01*
X14955Y28907D02*
X14955Y32844D01*
X11546Y26939D02*
X14955Y28907D01*
M02*
