M48
;Layer_Color=9474304
;FILE_FORMAT=2:4
INCH,LZ
;TYPE=PLATED
T01F00S00C0.0433
T02F00S00C0.0472
T03F00S00C0.0591
T04F00S00C0.0630
T05F00S00C0.0700
T06F00S00C0.1220
T07F00S00C0.1260
%
T01
X00458Y0025
X005671
X006761
X007852
X008942
X010033
X011124
X012214
X013305
X014395
X015486
X014941Y0035
X01385
X012759
X011669
X010578
X009488
X008397
X007307
X006216
X005126
X004035
X016031
X017122
X018212
X019303
X020393
X021484
X022574
X023665
X02312Y0025
X022029
X020938
X019848
X018757
X017667
X016576
T02
X0317Y00135
X0337
X037993
X039993
X044286
X046286
X050579
X052579
X056871
X058871
X063164
X065164
X069457
X071457
X07575
X07775
X0245Y02715
X032367
X040233
X0481
T03
X04995Y01603
X02293
T04
X02326Y02591
X02574
Y02839
X02326
X031127
Y02591
X033607
Y02839
X038993
X041473
Y02591
X038993
X04686
Y02839
X04934
Y02591
T05
X063333Y0116
Y0136
X068067
X070067
Y0116
X069067Y0126
X068067Y0116
X0748
X0748Y0136
X0768
Y0116
X0758Y0126
X062333
X061333Y0136
X061333Y0116
X0566Y0116
Y0136
X0546
X0556Y0126
X0546Y0116
X0183Y01115
X0163
Y01315
X0173Y01215
X0183Y01315
X01202
X01202Y01115
X01002
Y01315
X01102Y01215
X00554Y01315
X00354
X00454Y01215
X00554Y01115
X00354Y01115
Y0211
X00554
X00454Y0221
X00354Y0231
X00554Y0231
X00992Y0231
X01192
Y0211
X01092Y0221
X00992Y0211
X0163
X0163Y0231
X0183
Y0211
X0173Y0221
X0546Y0211
X0546Y0231
X0566
Y0211
X0556Y0221
X061333Y0211
X061333Y0231
X062333Y0221
X063333Y0231
Y0211
X068067Y0211
X068067Y0231
X070067
Y0211
X069067Y0221
X0748Y0211
X0748Y0231
X0768
Y0211
X0758Y0221
T06
X0726Y007
X02868Y0119
X00925Y007
Y0294
X04425Y02025
X0726Y0294
T07
X00135Y003
X02635
M30
