G04*
G04 #@! TF.GenerationSoftware,Altium Limited,Altium Designer,24.1.2 (44)*
G04*
G04 Layer_Physical_Order=2*
G04 Layer_Color=16711680*
%FSLAX43Y43*%
%MOMM*%
G71*
G04*
G04 #@! TF.SameCoordinates,824917EC-EC0E-457F-9D36-E806AB631C10*
G04*
G04*
G04 #@! TF.FilePolarity,Positive*
G04*
G01*
G75*
%ADD22C,0.854*%
%ADD23C,3.100*%
%ADD24C,3.300*%
%ADD25C,2.700*%
%ADD26C,2.600*%
%ADD27R,1.650X1.650*%
%ADD28C,1.650*%
%ADD29C,4.800*%
%ADD30R,2.000X2.500*%
G36*
X127635Y63373D02*
X56769D01*
Y74422D01*
X127635D01*
Y63373D01*
D02*
G37*
%LPC*%
G36*
X125824Y73586D02*
Y72611D01*
X126799D01*
X126701Y72847D01*
X126531Y73102D01*
X126315Y73318D01*
X126060Y73488D01*
X125824Y73586D01*
D02*
G37*
G36*
X124824D02*
X124588Y73488D01*
X124333Y73318D01*
X124117Y73102D01*
X123947Y72847D01*
X123849Y72611D01*
X124824D01*
Y73586D01*
D02*
G37*
G36*
X119524D02*
Y72611D01*
X120499D01*
X120401Y72847D01*
X120231Y73102D01*
X120015Y73318D01*
X119760Y73488D01*
X119524Y73586D01*
D02*
G37*
G36*
X118524D02*
X118288Y73488D01*
X118033Y73318D01*
X117817Y73102D01*
X117647Y72847D01*
X117549Y72611D01*
X118524D01*
Y73586D01*
D02*
G37*
G36*
X85861D02*
Y72611D01*
X86836D01*
X86738Y72847D01*
X86568Y73102D01*
X86352Y73318D01*
X86097Y73488D01*
X85861Y73586D01*
D02*
G37*
G36*
X84861D02*
X84625Y73488D01*
X84371Y73318D01*
X84154Y73102D01*
X83984Y72847D01*
X83886Y72611D01*
X84861D01*
Y73586D01*
D02*
G37*
G36*
X79561D02*
Y72611D01*
X80536D01*
X80438Y72847D01*
X80268Y73102D01*
X80052Y73318D01*
X79797Y73488D01*
X79561Y73586D01*
D02*
G37*
G36*
X78561D02*
X78325Y73488D01*
X78071Y73318D01*
X77854Y73102D01*
X77684Y72847D01*
X77586Y72611D01*
X78561D01*
Y73586D01*
D02*
G37*
G36*
X65880D02*
Y72611D01*
X66855D01*
X66757Y72847D01*
X66587Y73102D01*
X66371Y73318D01*
X66116Y73488D01*
X65880Y73586D01*
D02*
G37*
G36*
X64880D02*
X64644Y73488D01*
X64389Y73318D01*
X64173Y73102D01*
X64003Y72847D01*
X63905Y72611D01*
X64880D01*
Y73586D01*
D02*
G37*
G36*
X59580D02*
Y72611D01*
X60555D01*
X60457Y72847D01*
X60287Y73102D01*
X60071Y73318D01*
X59816Y73488D01*
X59580Y73586D01*
D02*
G37*
G36*
X58580D02*
X58344Y73488D01*
X58089Y73318D01*
X57873Y73102D01*
X57703Y72847D01*
X57605Y72611D01*
X58580D01*
Y73586D01*
D02*
G37*
G36*
X126799Y71611D02*
X125824D01*
Y70636D01*
X126060Y70734D01*
X126315Y70904D01*
X126531Y71120D01*
X126701Y71375D01*
X126799Y71611D01*
D02*
G37*
G36*
X124824D02*
X123849D01*
X123947Y71375D01*
X124117Y71120D01*
X124333Y70904D01*
X124588Y70734D01*
X124824Y70636D01*
Y71611D01*
D02*
G37*
G36*
X120499D02*
X119524D01*
Y70636D01*
X119760Y70734D01*
X120015Y70904D01*
X120231Y71120D01*
X120401Y71375D01*
X120499Y71611D01*
D02*
G37*
G36*
X118524D02*
X117549D01*
X117647Y71375D01*
X117817Y71120D01*
X118033Y70904D01*
X118288Y70734D01*
X118524Y70636D01*
Y71611D01*
D02*
G37*
G36*
X86836D02*
X85861D01*
Y70636D01*
X86097Y70734D01*
X86352Y70904D01*
X86568Y71120D01*
X86738Y71375D01*
X86836Y71611D01*
D02*
G37*
G36*
X84861D02*
X83886D01*
X83984Y71375D01*
X84154Y71120D01*
X84371Y70904D01*
X84625Y70734D01*
X84861Y70636D01*
Y71611D01*
D02*
G37*
G36*
X80536D02*
X79561D01*
Y70636D01*
X79797Y70734D01*
X80052Y70904D01*
X80268Y71120D01*
X80438Y71375D01*
X80536Y71611D01*
D02*
G37*
G36*
X78561D02*
X77586D01*
X77684Y71375D01*
X77854Y71120D01*
X78071Y70904D01*
X78325Y70734D01*
X78561Y70636D01*
Y71611D01*
D02*
G37*
G36*
X66855D02*
X65880D01*
Y70636D01*
X66116Y70734D01*
X66371Y70904D01*
X66587Y71120D01*
X66757Y71375D01*
X66855Y71611D01*
D02*
G37*
G36*
X64880D02*
X63905D01*
X64003Y71375D01*
X64173Y71120D01*
X64389Y70904D01*
X64644Y70734D01*
X64880Y70636D01*
Y71611D01*
D02*
G37*
G36*
X60555D02*
X59580D01*
Y70636D01*
X59816Y70734D01*
X60071Y70904D01*
X60287Y71120D01*
X60457Y71375D01*
X60555Y71611D01*
D02*
G37*
G36*
X58580D02*
X57605D01*
X57703Y71375D01*
X57873Y71120D01*
X58089Y70904D01*
X58344Y70734D01*
X58580Y70636D01*
Y71611D01*
D02*
G37*
G36*
X99220Y73911D02*
X98865D01*
X98518Y73842D01*
X98190Y73706D01*
X97895Y73509D01*
X97645Y73258D01*
X97448Y72964D01*
X97312Y72636D01*
X97243Y72288D01*
Y71934D01*
X97312Y71586D01*
X97448Y71258D01*
X97645Y70964D01*
X97895Y70713D01*
X98190Y70516D01*
X98518Y70380D01*
X98865Y70311D01*
X99220D01*
X99568Y70380D01*
X99895Y70516D01*
X100190Y70713D01*
X100441Y70964D01*
X100638Y71258D01*
X100773Y71586D01*
X100843Y71934D01*
Y72288D01*
X100773Y72636D01*
X100638Y72964D01*
X100441Y73258D01*
X100190Y73509D01*
X99895Y73706D01*
X99568Y73842D01*
X99220Y73911D01*
D02*
G37*
G36*
X122351Y70761D02*
X121997D01*
X121649Y70692D01*
X121321Y70556D01*
X121027Y70359D01*
X120776Y70108D01*
X120579Y69814D01*
X120443Y69486D01*
X120374Y69138D01*
Y68784D01*
X120443Y68436D01*
X120579Y68108D01*
X120776Y67814D01*
X121027Y67563D01*
X121321Y67366D01*
X121649Y67230D01*
X121997Y67161D01*
X122351D01*
X122699Y67230D01*
X123027Y67366D01*
X123321Y67563D01*
X123572Y67814D01*
X123769Y68108D01*
X123905Y68436D01*
X123974Y68784D01*
Y69138D01*
X123905Y69486D01*
X123769Y69814D01*
X123572Y70108D01*
X123321Y70359D01*
X123027Y70556D01*
X122699Y70692D01*
X122351Y70761D01*
D02*
G37*
G36*
X102370D02*
X102015D01*
X101668Y70692D01*
X101340Y70556D01*
X101045Y70359D01*
X100795Y70108D01*
X100598Y69814D01*
X100462Y69486D01*
X100393Y69138D01*
Y68784D01*
X100462Y68436D01*
X100598Y68108D01*
X100795Y67814D01*
X101045Y67563D01*
X101340Y67366D01*
X101668Y67230D01*
X102015Y67161D01*
X102370D01*
X102718Y67230D01*
X103045Y67366D01*
X103340Y67563D01*
X103591Y67814D01*
X103788Y68108D01*
X103923Y68436D01*
X103993Y68784D01*
Y69138D01*
X103923Y69486D01*
X103788Y69814D01*
X103591Y70108D01*
X103340Y70359D01*
X103045Y70556D01*
X102718Y70692D01*
X102370Y70761D01*
D02*
G37*
G36*
X82389D02*
X82034D01*
X81686Y70692D01*
X81359Y70556D01*
X81064Y70359D01*
X80813Y70108D01*
X80616Y69814D01*
X80480Y69486D01*
X80411Y69138D01*
Y68784D01*
X80480Y68436D01*
X80616Y68108D01*
X80813Y67814D01*
X81064Y67563D01*
X81359Y67366D01*
X81686Y67230D01*
X82034Y67161D01*
X82389D01*
X82736Y67230D01*
X83064Y67366D01*
X83359Y67563D01*
X83609Y67814D01*
X83806Y68108D01*
X83942Y68436D01*
X84011Y68784D01*
Y69138D01*
X83942Y69486D01*
X83806Y69814D01*
X83609Y70108D01*
X83359Y70359D01*
X83064Y70556D01*
X82736Y70692D01*
X82389Y70761D01*
D02*
G37*
G36*
X62407D02*
X62053D01*
X61705Y70692D01*
X61377Y70556D01*
X61083Y70359D01*
X60832Y70108D01*
X60635Y69814D01*
X60499Y69486D01*
X60430Y69138D01*
Y68784D01*
X60499Y68436D01*
X60635Y68108D01*
X60832Y67814D01*
X61083Y67563D01*
X61377Y67366D01*
X61705Y67230D01*
X62053Y67161D01*
X62407D01*
X62755Y67230D01*
X63083Y67366D01*
X63377Y67563D01*
X63628Y67814D01*
X63825Y68108D01*
X63961Y68436D01*
X64030Y68784D01*
Y69138D01*
X63961Y69486D01*
X63825Y69814D01*
X63628Y70108D01*
X63377Y70359D01*
X63083Y70556D01*
X62755Y70692D01*
X62407Y70761D01*
D02*
G37*
G36*
X125824Y67286D02*
Y66311D01*
X126799D01*
X126701Y66547D01*
X126531Y66802D01*
X126315Y67018D01*
X126060Y67188D01*
X125824Y67286D01*
D02*
G37*
G36*
X124824D02*
X124588Y67188D01*
X124333Y67018D01*
X124117Y66802D01*
X123947Y66547D01*
X123849Y66311D01*
X124824D01*
Y67286D01*
D02*
G37*
G36*
X119524D02*
Y66311D01*
X120499D01*
X120401Y66547D01*
X120231Y66802D01*
X120015Y67018D01*
X119760Y67188D01*
X119524Y67286D01*
D02*
G37*
G36*
X118524D02*
X118288Y67188D01*
X118033Y67018D01*
X117817Y66802D01*
X117647Y66547D01*
X117549Y66311D01*
X118524D01*
Y67286D01*
D02*
G37*
G36*
X85861D02*
Y66311D01*
X86836D01*
X86738Y66547D01*
X86568Y66802D01*
X86352Y67018D01*
X86097Y67188D01*
X85861Y67286D01*
D02*
G37*
G36*
X84861D02*
X84625Y67188D01*
X84371Y67018D01*
X84154Y66802D01*
X83984Y66547D01*
X83886Y66311D01*
X84861D01*
Y67286D01*
D02*
G37*
G36*
X79561D02*
Y66311D01*
X80536D01*
X80438Y66547D01*
X80268Y66802D01*
X80052Y67018D01*
X79797Y67188D01*
X79561Y67286D01*
D02*
G37*
G36*
X78561D02*
X78325Y67188D01*
X78071Y67018D01*
X77854Y66802D01*
X77684Y66547D01*
X77586Y66311D01*
X78561D01*
Y67286D01*
D02*
G37*
G36*
X65880D02*
Y66311D01*
X66855D01*
X66757Y66547D01*
X66587Y66802D01*
X66371Y67018D01*
X66116Y67188D01*
X65880Y67286D01*
D02*
G37*
G36*
X64880D02*
X64644Y67188D01*
X64389Y67018D01*
X64173Y66802D01*
X64003Y66547D01*
X63905Y66311D01*
X64880D01*
Y67286D01*
D02*
G37*
G36*
X59580D02*
Y66311D01*
X60555D01*
X60457Y66547D01*
X60287Y66802D01*
X60071Y67018D01*
X59816Y67188D01*
X59580Y67286D01*
D02*
G37*
G36*
X58580D02*
X58344Y67188D01*
X58089Y67018D01*
X57873Y66802D01*
X57703Y66547D01*
X57605Y66311D01*
X58580D01*
Y67286D01*
D02*
G37*
G36*
X126799Y65311D02*
X125824D01*
Y64336D01*
X126060Y64434D01*
X126315Y64604D01*
X126531Y64820D01*
X126701Y65075D01*
X126799Y65311D01*
D02*
G37*
G36*
X124824D02*
X123849D01*
X123947Y65075D01*
X124117Y64820D01*
X124333Y64604D01*
X124588Y64434D01*
X124824Y64336D01*
Y65311D01*
D02*
G37*
G36*
X120499D02*
X119524D01*
Y64336D01*
X119760Y64434D01*
X120015Y64604D01*
X120231Y64820D01*
X120401Y65075D01*
X120499Y65311D01*
D02*
G37*
G36*
X118524D02*
X117549D01*
X117647Y65075D01*
X117817Y64820D01*
X118033Y64604D01*
X118288Y64434D01*
X118524Y64336D01*
Y65311D01*
D02*
G37*
G36*
X86836D02*
X85861D01*
Y64336D01*
X86097Y64434D01*
X86352Y64604D01*
X86568Y64820D01*
X86738Y65075D01*
X86836Y65311D01*
D02*
G37*
G36*
X84861D02*
X83886D01*
X83984Y65075D01*
X84154Y64820D01*
X84371Y64604D01*
X84625Y64434D01*
X84861Y64336D01*
Y65311D01*
D02*
G37*
G36*
X80536D02*
X79561D01*
Y64336D01*
X79797Y64434D01*
X80052Y64604D01*
X80268Y64820D01*
X80438Y65075D01*
X80536Y65311D01*
D02*
G37*
G36*
X78561D02*
X77586D01*
X77684Y65075D01*
X77854Y64820D01*
X78071Y64604D01*
X78325Y64434D01*
X78561Y64336D01*
Y65311D01*
D02*
G37*
G36*
X66855D02*
X65880D01*
Y64336D01*
X66116Y64434D01*
X66371Y64604D01*
X66587Y64820D01*
X66757Y65075D01*
X66855Y65311D01*
D02*
G37*
G36*
X64880D02*
X63905D01*
X64003Y65075D01*
X64173Y64820D01*
X64389Y64604D01*
X64644Y64434D01*
X64880Y64336D01*
Y65311D01*
D02*
G37*
G36*
X60555D02*
X59580D01*
Y64336D01*
X59816Y64434D01*
X60071Y64604D01*
X60287Y64820D01*
X60457Y65075D01*
X60555Y65311D01*
D02*
G37*
G36*
X58580D02*
X57605D01*
X57703Y65075D01*
X57873Y64820D01*
X58089Y64604D01*
X58344Y64434D01*
X58580Y64336D01*
Y65311D01*
D02*
G37*
G36*
X105520Y73911D02*
X105165D01*
X104818Y73842D01*
X104490Y73706D01*
X104195Y73509D01*
X103945Y73258D01*
X103748Y72964D01*
X103612Y72636D01*
X103543Y72288D01*
Y71934D01*
X103612Y71586D01*
X103748Y71258D01*
X103945Y70964D01*
X104195Y70713D01*
X104408Y70571D01*
Y67351D01*
X104195Y67209D01*
X103945Y66958D01*
X103748Y66664D01*
X103612Y66336D01*
X103543Y65988D01*
Y65634D01*
X103612Y65286D01*
X103748Y64958D01*
X103945Y64664D01*
X104195Y64413D01*
X104490Y64216D01*
X104818Y64080D01*
X105165Y64011D01*
X105520D01*
X105868Y64080D01*
X106195Y64216D01*
X106490Y64413D01*
X106741Y64664D01*
X106938Y64958D01*
X107073Y65286D01*
X107143Y65634D01*
Y65988D01*
X107073Y66336D01*
X106938Y66664D01*
X106741Y66958D01*
X106490Y67209D01*
X106278Y67351D01*
Y70571D01*
X106490Y70713D01*
X106741Y70964D01*
X106938Y71258D01*
X107073Y71586D01*
X107143Y71934D01*
Y72288D01*
X107073Y72636D01*
X106938Y72964D01*
X106741Y73258D01*
X106490Y73509D01*
X106195Y73706D01*
X105868Y73842D01*
X105520Y73911D01*
D02*
G37*
G36*
X99220Y67611D02*
X98865D01*
X98518Y67542D01*
X98190Y67406D01*
X97895Y67209D01*
X97645Y66958D01*
X97448Y66664D01*
X97312Y66336D01*
X97243Y65988D01*
Y65634D01*
X97312Y65286D01*
X97448Y64958D01*
X97645Y64664D01*
X97895Y64413D01*
X98190Y64216D01*
X98518Y64080D01*
X98865Y64011D01*
X99220D01*
X99568Y64080D01*
X99895Y64216D01*
X100190Y64413D01*
X100441Y64664D01*
X100638Y64958D01*
X100773Y65286D01*
X100843Y65634D01*
Y65988D01*
X100773Y66336D01*
X100638Y66664D01*
X100441Y66958D01*
X100190Y67209D01*
X99895Y67406D01*
X99568Y67542D01*
X99220Y67611D01*
D02*
G37*
%LPD*%
D22*
X195072Y53594D02*
Y58674D01*
X189992D02*
X195072D01*
X189992Y53594D02*
Y58674D01*
X189992Y58674D01*
X177969Y53594D02*
Y58674D01*
X172889D02*
X177969D01*
X172889Y53594D02*
Y58674D01*
X172889Y58674D01*
X160867Y53594D02*
Y58674D01*
X155787D02*
X160867D01*
X155787Y53594D02*
Y58674D01*
X155787Y58674D01*
X138684Y53594D02*
X143764D01*
X143764Y53594D01*
Y58674D01*
X138684D02*
X143764D01*
X85598Y16637D02*
X125095Y56134D01*
X85598Y3429D02*
Y16637D01*
X125095Y56134D02*
X141224D01*
X120523Y48260D02*
X131826D01*
X110236Y37973D02*
X120523Y48260D01*
X110236Y17413D02*
Y37973D01*
X122555Y46482D02*
X130937D01*
X112395Y36322D02*
X122555Y46482D01*
X112395Y14492D02*
Y36322D01*
X116787Y7980D02*
Y36904D01*
X124333Y44450D02*
X130810D01*
X116787Y36904D02*
X124333Y44450D01*
X80518Y14986D02*
X124206Y58674D01*
X138684D01*
X80518Y3429D02*
Y14986D01*
X96502Y3679D02*
X110236Y17413D01*
X96502Y3429D02*
Y3679D01*
X155787Y46474D02*
Y53594D01*
X155286Y45974D02*
X155787Y46474D01*
X134112Y45974D02*
X155286D01*
X131826Y48260D02*
X134112Y45974D01*
X158327Y44696D02*
Y56134D01*
X133223Y44196D02*
X157826D01*
X158327Y44696D01*
X192532Y56134D02*
X192532Y56134D01*
X175429Y56134D02*
X175472Y56092D01*
X132715Y42545D02*
X172389D01*
X172889Y43045D02*
Y53594D01*
X172389Y42545D02*
X172889Y43045D01*
X46482Y53594D02*
Y58674D01*
X46482Y53594D02*
X46482Y53594D01*
X41402Y53594D02*
X46482D01*
X41402Y53594D02*
Y58674D01*
X41402Y53594D02*
X41402Y53594D01*
X30277D02*
Y58674D01*
X30277Y53594D02*
X30277Y53594D01*
X25197Y53594D02*
X30277D01*
X25197Y53594D02*
Y58674D01*
X25197Y53594D02*
X25197Y53594D01*
X8992D02*
Y58674D01*
X14072Y53594D02*
Y58674D01*
X14072Y53594D02*
X14072Y53594D01*
X8992Y53594D02*
X14072D01*
X46482Y46609D02*
X75692Y17399D01*
X46482Y46609D02*
Y53594D01*
X4572Y28417D02*
Y62492D01*
X5072Y62992D01*
X11031D01*
X11532Y62492D01*
Y56134D02*
Y62492D01*
X2921Y27298D02*
Y64270D01*
X27237Y64770D02*
X27737Y64270D01*
Y56134D02*
Y64270D01*
X2921D02*
X3421Y64770D01*
X27237D01*
X1016Y26433D02*
Y66175D01*
X1516Y66675D01*
X43442D02*
X43942Y66175D01*
Y56134D02*
Y66175D01*
X1516Y66675D02*
X43442D01*
X101582Y3429D02*
Y3679D01*
X112395Y14492D01*
X130937Y46482D02*
X133223Y44196D01*
X130810Y44450D02*
X132715Y42545D01*
X128470Y34109D02*
X133731Y39370D01*
X128470Y3429D02*
Y34109D01*
X117566Y3679D02*
X121285Y7398D01*
Y29072D01*
X117566Y3429D02*
Y3679D01*
X133144Y40931D02*
X175472D01*
X121285Y29072D02*
X133144Y40931D01*
X175472D02*
Y56092D01*
X112486Y3429D02*
Y3679D01*
X116787Y7980D01*
X134231Y37846D02*
X192032D01*
X133731Y39370D02*
X189492D01*
X133550Y37164D02*
X134231Y37846D01*
X133550Y3429D02*
Y37164D01*
X189492Y39370D02*
X189992Y39870D01*
Y52705D01*
X192032Y37846D02*
X192532Y38346D01*
Y56134D01*
X189992Y52705D02*
X189992Y52705D01*
X105343Y65811D02*
Y72111D01*
X25484Y6350D02*
X27643Y4191D01*
X71001D01*
X71501Y4691D02*
Y14478D01*
X71001Y4191D02*
X71501Y4691D01*
X22714Y6350D02*
X26651Y2413D01*
X75692Y1397D02*
Y17399D01*
X75184Y889D02*
X75692Y1397D01*
X19944Y6350D02*
X25405Y889D01*
X75184D01*
X26651Y2413D02*
X73279D01*
X62611Y23368D02*
X71501Y14478D01*
X20312Y23368D02*
X62611D01*
X19812Y23868D02*
X20312Y23368D01*
X19812Y23868D02*
Y42774D01*
X14072Y48514D02*
X19812Y42774D01*
X73279Y2413D02*
X73787Y2921D01*
Y15748D01*
X63754Y25781D02*
X73787Y15748D01*
X36068Y26281D02*
X36568Y25781D01*
X63754D01*
X36068Y26281D02*
Y42723D01*
X30277Y48514D02*
X36068Y42723D01*
X1016Y26433D02*
X18559Y8890D01*
X4572Y28417D02*
X24099Y8890D01*
X2921Y27298D02*
X21329Y8890D01*
X14072Y48514D02*
Y53594D01*
X14072Y48514D02*
X14072Y48514D01*
X30277Y48514D02*
X30277Y48514D01*
Y53594D01*
D23*
X23495Y17780D02*
D03*
X184404D02*
D03*
Y74676D02*
D03*
X23495D02*
D03*
X112395Y51435D02*
D03*
X72847Y30226D02*
D03*
D24*
X58242Y40716D02*
D03*
X126873D02*
D03*
D25*
X189992Y53594D02*
D03*
X189992Y58674D02*
D03*
X195072D02*
D03*
Y53594D02*
D03*
X192532Y56134D02*
D03*
X172889Y53594D02*
D03*
X172889Y58674D02*
D03*
X177969D02*
D03*
Y53594D02*
D03*
X175429Y56134D02*
D03*
X155787Y53594D02*
D03*
X155787Y58674D02*
D03*
X160867D02*
D03*
Y53594D02*
D03*
X158327Y56134D02*
D03*
X138684Y53594D02*
D03*
X138684Y58674D02*
D03*
X143764D02*
D03*
Y53594D02*
D03*
X141224Y56134D02*
D03*
X14072Y58674D02*
D03*
X14072Y53594D02*
D03*
X8992D02*
D03*
Y58674D02*
D03*
X11532Y56134D02*
D03*
X25197Y53594D02*
D03*
X25197Y58674D02*
D03*
X30277D02*
D03*
Y53594D02*
D03*
X27737Y56134D02*
D03*
X41402Y53594D02*
D03*
X41402Y58674D02*
D03*
X46482D02*
D03*
Y53594D02*
D03*
X43942Y56134D02*
D03*
X189992Y29464D02*
D03*
X189992Y34544D02*
D03*
X195072D02*
D03*
Y29464D02*
D03*
X192532Y32004D02*
D03*
X172889Y29464D02*
D03*
X172889Y34544D02*
D03*
X177969D02*
D03*
Y29464D02*
D03*
X175429Y32004D02*
D03*
X155787Y29464D02*
D03*
X155787Y34544D02*
D03*
X160867D02*
D03*
Y29464D02*
D03*
X158327Y32004D02*
D03*
X138684Y29464D02*
D03*
X138684Y34544D02*
D03*
X143764D02*
D03*
Y29464D02*
D03*
X141224Y32004D02*
D03*
X46482Y33401D02*
D03*
X46482Y28321D02*
D03*
X41402D02*
D03*
Y33401D02*
D03*
X43942Y30861D02*
D03*
X30531Y33401D02*
D03*
X30531Y28321D02*
D03*
X25451D02*
D03*
Y33401D02*
D03*
X27991Y30861D02*
D03*
X8992Y28321D02*
D03*
X8992Y33401D02*
D03*
X14072D02*
D03*
Y28321D02*
D03*
X11532Y30861D02*
D03*
D26*
X122174Y68961D02*
D03*
X125324Y72111D02*
D03*
Y65811D02*
D03*
X119024D02*
D03*
Y72111D02*
D03*
X82211Y68961D02*
D03*
X85361Y72111D02*
D03*
Y65811D02*
D03*
X79061D02*
D03*
Y72111D02*
D03*
X102193Y68961D02*
D03*
X105343Y72111D02*
D03*
Y65811D02*
D03*
X99043D02*
D03*
Y72111D02*
D03*
X62230Y68961D02*
D03*
X65380Y72111D02*
D03*
Y65811D02*
D03*
X59080D02*
D03*
Y72111D02*
D03*
D27*
X10249Y8890D02*
D03*
D28*
X13019D02*
D03*
X15789D02*
D03*
X18559D02*
D03*
X21329D02*
D03*
X24099D02*
D03*
X26869D02*
D03*
X29639D02*
D03*
X32409D02*
D03*
X35179D02*
D03*
X37949D02*
D03*
X40719D02*
D03*
X43489D02*
D03*
X46259D02*
D03*
X49029D02*
D03*
X51799D02*
D03*
X54569D02*
D03*
X57339D02*
D03*
X60109D02*
D03*
X11634Y6350D02*
D03*
X14404D02*
D03*
X17174D02*
D03*
X19944D02*
D03*
X22714D02*
D03*
X25484D02*
D03*
X28254D02*
D03*
X31024D02*
D03*
X33794D02*
D03*
X36564D02*
D03*
X39334D02*
D03*
X42104D02*
D03*
X44874D02*
D03*
X47644D02*
D03*
X50414D02*
D03*
X53184D02*
D03*
X55954D02*
D03*
X58724D02*
D03*
D29*
X3429Y7620D02*
D03*
X66929D02*
D03*
D30*
X197485Y3429D02*
D03*
X192405D02*
D03*
X133550D02*
D03*
X128470D02*
D03*
X117566D02*
D03*
X112486D02*
D03*
X181501D02*
D03*
X176421D02*
D03*
X101582D02*
D03*
X96502D02*
D03*
X165517D02*
D03*
X160437D02*
D03*
X85598D02*
D03*
X80518D02*
D03*
X149533D02*
D03*
X144453D02*
D03*
M02*
